<?xml version="1.0" encoding="utf-8"?>
<!-- Generator: Adobe Illustrator 22.0.1, SVG Export Plug-In . SVG Version: 6.00 Build 0)  -->
<svg version="1.1" id="图层_1" xmlns="http://www.w3.org/2000/svg" xmlns:xlink="http://www.w3.org/1999/xlink" x="0px" y="0px"
	 viewBox="0 0 32 32" style="enable-background:new 0 0 32 32;" xml:space="preserve">
<g id="电动开关阀">
</g>
<g id="电动调节阀">
</g>
<g id="压差平衡阀">
	<path d="M18.1,9.6V5.2h-3v4.4h0.1H18.1z"/>
	<g>
		<path d="M25.6,20c-0.6,0-1,0.5-1,1.1v8c0,0.6,0.5,1.1,1,1.1s1-0.5,1-1.1v-8C26.6,20.5,26.1,20,25.6,20z"/>
		<path d="M6.3,20L6.3,20c-0.6,0-1,0.5-1,1v8.1c0,0.6,0.5,1,1,1l0,0c0.6,0,1-0.5,1-1V21C7.3,20.5,6.9,20,6.3,20z"/>
		<path d="M21.4,21h-11c-1.1,0-2.1,0.9-2.1,2.1v4.1c0,1.1,0.9,2.1,2.1,2.1h11c1.1,0,2.1-0.9,2.1-2.1V23C23.5,21.9,22.6,21,21.4,21z"
			/>
		<path d="M14.3,15.6h-2h-0.6c-0.6,0-1,0.4-1,1s0.4,1,1,1h0.6v2.6h7v-2.6h0.6c0.6,0,1-0.4,1-1s-0.4-1-1-1h-0.6h-2
			c3.2-0.7,5.6-3.5,5.6-6.9c0-3.9-3.2-7.1-7.1-7.1S8.7,4.8,8.7,8.7C8.7,12,11.1,14.9,14.3,15.6z M12.4,12c0.2,0,0.6,0,0.7-0.7
			c0.1-0.7,0.5-1.2,0.9-1.4V4h5.3v6.7h-4.8c-0.2,0.1-0.3,0.3-0.3,0.7c-0.1,0.6-0.3,1-0.7,1.3C13,13,12.7,13,12.4,13
			c-0.1,0-0.2,0-0.2,0c-0.3,0-0.5-0.3-0.4-0.6C11.9,12.2,12.1,12,12.4,12z"/>
	</g>
</g>
<g id="电动三通阀">
</g>
<g id="水流开关">
</g>
<g id="压差旁通阀">
</g>
<g id="电磁阀">
</g>
<g id="截止阀">
</g>
<g id="闸阀">
</g>
<g id="球阀">
</g>
<g id="快开阀">
</g>
<g id="蝶阀">
</g>
<g id="旋塞阀">
</g>
<g id="止回阀">
</g>
<g id="浮球阀">
</g>
<g id="三通阀">
</g>
<g id="自动排气阀">
</g>
</svg>
