<?xml version="1.0" encoding="utf-8"?>
<!-- Generator: Adobe Illustrator 22.0.1, SVG Export Plug-In . SVG Version: 6.00 Build 0)  -->
<svg version="1.1" id="图层_1" xmlns="http://www.w3.org/2000/svg" xmlns:xlink="http://www.w3.org/1999/xlink" x="0px" y="0px"
	 viewBox="0 0 32 32" style="enable-background:new 0 0 32 32;" xml:space="preserve">
<g id="图层_17">
	<g>
		<path d="M26.5,3.4H5.4c-1.1,0-2,0.9-2,2v21.1c0,1.1,0.9,2,2,2h21.1c1.1,0,2-0.9,2-2V5.4C28.5,4.3,27.6,3.4,26.5,3.4z M25.6,24.7
			c-0.1,0.1-2,1.4-4.9,1.4c-1.4,0-3.1-0.3-5-1.3c-5-2.5-9-1.1-9-1.1c-0.3,0.1-0.5,0-0.6-0.3s0-0.5,0.3-0.6c0.2-0.1,4.4-1.6,9.8,1.2
			c5,2.6,8.7,0.1,8.9,0c0.2-0.2,0.5-0.1,0.7,0.1C25.9,24.2,25.8,24.5,25.6,24.7z M25.6,21.1c-0.1,0.1-2,1.4-4.9,1.4
			c-1.4,0-3.1-0.3-5-1.3c-5-2.5-9-1.1-9-1.1c-0.3,0.1-0.5,0-0.6-0.3s0-0.5,0.3-0.6c0.2-0.1,4.4-1.6,9.8,1.2c5.1,2.6,8.8,0,8.9,0
			c0.2-0.2,0.5-0.1,0.7,0.1S25.8,20.9,25.6,21.1z M26.4,17.4c0,0-3.8,2.8-10.5,0s-10.5,0-10.5,0v-10c0-1.1,0.9-2,2-2h17
			c1.1,0,2,0.9,2,2V17.4z"/>
		<path d="M19,11.1l-0.2-0.3l-0.1-0.1L16,6l-2.8,4.7c0,0,0,0.1-0.1,0.1L13,11.1l0,0c-0.2,0.5-0.4,1-0.4,1.5c0,1.9,1.5,3.4,3.4,3.4
			s3.4-1.5,3.4-3.4C19.4,12.1,19.3,11.6,19,11.1L19,11.1z"/>
	</g>
</g>
</svg>
