<?xml version="1.0" encoding="utf-8"?>
<!-- Generator: Adobe Illustrator 22.0.1, SVG Export Plug-In . SVG Version: 6.00 Build 0)  -->
<svg version="1.1" id="图层_1" xmlns="http://www.w3.org/2000/svg" xmlns:xlink="http://www.w3.org/1999/xlink" x="0px" y="0px"
	 viewBox="0 0 32 32" style="enable-background:new 0 0 32 32;" xml:space="preserve">
<g id="图层_7">
	<g>
		<path d="M28,1.7H4c-1.3,0-2.3,1-2.3,2.3v24c0,1.3,1,2.3,2.3,2.3h24c1.3,0,2.3-1,2.3-2.3V4C30.3,2.8,29.2,1.7,28,1.7z M8.2,26.7
			H6.5c-0.5,0-1-0.4-1-1c0-0.5,0.5-1,1-1h1.7c0.5,0,1,0.5,1,1S8.7,26.7,8.2,26.7z M14,26.7h-1.7c-0.5,0-1-0.4-1-1c0-0.5,0.5-1,1-1
			H14c0.5,0,1,0.5,1,1S14.6,26.7,14,26.7z M19.9,26.7h-1.7c-0.5,0-1-0.4-1-1c0-0.5,0.5-1,1-1h1.7c0.5,0,1,0.5,1,1
			S20.4,26.7,19.9,26.7z M25.6,26.7h-1.7c-0.5,0-1-0.4-1-1c0-0.5,0.5-1,1-1h1.7c0.5,0,1,0.5,1,1S26.1,26.7,25.6,26.7z M26.7,19.6
			c0,1.1-0.9,2-2,2H7.3c-1.1,0-2-0.9-2-2V6.8c0-1.1,0.9-2,2-2h17.3c1.1,0,2,0.9,2,2v12.8H26.7z"/>
		<path d="M14.4,13.3L14.2,13l-0.1-0.1l-2.8-4.7L8.5,13c0,0,0,0.1-0.1,0.1l-0.2,0.3l0,0c-0.2,0.5-0.4,1-0.4,1.5
			c0,1.9,1.5,3.4,3.4,3.4s3.4-1.5,3.4-3.4C14.8,14.3,14.6,13.8,14.4,13.3L14.4,13.3z"/>
		<path d="M24.7,7.7h-6.9c-0.6,0-1,0.4-1,1s0.4,1,1,1h6.9c0.6,0,1-0.4,1-1S25.2,7.7,24.7,7.7z"/>
		<path d="M22.5,12.4h-4.8c-0.6,0-1,0.4-1,1s0.4,1,1,1h4.8c0.6,0,1-0.4,1-1S23.1,12.4,22.5,12.4z"/>
		<path d="M20.1,17.2h-2.4c-0.6,0-1,0.4-1,1s0.4,1,1,1h2.4c0.6,0,1-0.4,1-1S20.7,17.2,20.1,17.2z"/>
	</g>
</g>
</svg>
