<?xml version="1.0" encoding="utf-8"?>
<!-- Generator: Adobe Illustrator 22.0.1, SVG Export Plug-In . SVG Version: 6.00 Build 0)  -->
<svg version="1.1" id="图层_1" xmlns="http://www.w3.org/2000/svg" xmlns:xlink="http://www.w3.org/1999/xlink" x="0px" y="0px"
	 width="32px" height="32px" viewBox="0 0 32 32" style="enable-background:new 0 0 32 32;" xml:space="preserve">
<g id="电动开关阀">
</g>
<g id="电动调节阀">
</g>
<g id="压差平衡阀">
</g>
<g id="电动三通阀">
</g>
<g id="水流开关">
</g>
<g id="压差旁通阀">
</g>
<g id="电磁阀">
</g>
<g id="截止阀">
</g>
<g id="闸阀">
</g>
<g id="球阀">
	<g>
		<path d="M4.6,13.6c-0.6,0-1,0.4-1,1v10.8c0,0.6,0.4,1,1,1s1-0.4,1-1V14.6C5.6,14,5.1,13.6,4.6,13.6z"/>
		<path d="M27.4,13.5c-0.6,0-1,0.4-1,1v10.8c0,0.6,0.4,1,1,1s1-0.4,1-1V14.5C28.4,13.9,28,13.5,27.4,13.5z"/>
		<path d="M9.1,19.9c0-2.3,1.1-4.3,2.8-5.5H8.5c-1.1,0-2,0.9-2,2v7c0,1.1,0.9,2,2,2h3.4C10.2,24.2,9.1,22.2,9.1,19.9z"/>
		<path d="M23.4,14.4H20c1.7,1.2,2.8,3.2,2.8,5.5s-1.1,4.3-2.8,5.5h3.4c1.1,0,2-0.9,2-2v-7C25.4,15.3,24.5,14.4,23.4,14.4z"/>
		<path d="M21.8,19.9c0-2.9-2.1-5.2-4.8-5.7v-0.8h3.7v-1.8h0.8c0.6,0,1-0.4,1-1s-0.4-1-1-1h-0.8H17V7.5h1c0.6,0,1-0.4,1-1
			s-0.4-1-1-1h-4c-0.6,0-1,0.4-1,1s0.4,1,1,1h1v2.2h-3.7h-0.8c-0.6,0-1,0.4-1,1s0.4,1,1,1h0.8v1.8H15v0.8c-2.8,0.4-4.9,2.8-4.9,5.8
			c0,3.2,2.6,5.8,5.8,5.8S21.8,23.1,21.8,19.9z M15.9,22.4c-1.4,0-2.5-1.1-2.5-2.5s1.1-2.5,2.5-2.5s2.5,1.1,2.5,2.5
			S17.3,22.4,15.9,22.4z"/>
	</g>
</g>
<g id="快开阀">
</g>
<g id="蝶阀">
</g>
<g id="旋塞阀">
</g>
<g id="止回阀">
</g>
<g id="浮球阀">
</g>
<g id="三通阀">
</g>
<g id="自动排气阀">
</g>
</svg>
