<?xml version="1.0" encoding="utf-8"?>
<!-- Generator: Adobe Illustrator 22.0.1, SVG Export Plug-In . SVG Version: 6.00 Build 0)  -->
<svg version="1.1" id="图层_1" xmlns="http://www.w3.org/2000/svg" xmlns:xlink="http://www.w3.org/1999/xlink" x="0px" y="0px"
	 width="32px" height="32px" viewBox="0 0 32 32" style="enable-background:new 0 0 32 32;" xml:space="preserve">
<g id="图层_18">
	<path d="M28.4,22.2c-1.1,0-2,0.9-2,2v3.7h-2.1v-2.5v-0.6v-7.4h0.2c0.3,0,0.5-0.2,0.5-0.5s-0.2-0.5-0.5-0.5h-8.1
		c-0.3,0-0.5,0.2-0.5,0.5s0.2,0.5,0.5,0.5h0.3v7.4v0.5h-3.2V10.6c0-2.4-1.7-4.4-4-4.9V5.3v-1V3.8h0.9c0.5,0,1-0.5,1-1V2.6
		c0-0.5-0.5-1-1-1H6.6c-0.6,0-1,0.5-1,1v0.3c0,0.5,0.4,1,1,1h0.9v0.5v1v0.4c-2.3,0.5-4,2.5-4,4.9v15.9c0,1,0.7,1.8,1.6,2L4.5,30
		c0,0-0.1,0.5,0.4,0.5s1.2,0,1.2,0s0.5,0,0.5-0.4l0.6-1.4h2.5l0.6,1.5c0.1,0.4,0.5,0.4,0.5,0.4s0.7,0,1.2,0s0.4-0.5,0.4-0.5
		l-0.6-1.5c0.9-0.2,1.6-1,1.6-2v-0.2h3.2V30c0,0.3,0.2,0.5,0.5,0.5s0.5-0.2,0.5-0.5v-3.6H20v2c0,0.3,0.2,0.5,0.5,0.5h2.8V30
		c0,0.3,0.2,0.5,0.5,0.5s0.5-0.2,0.5-0.5v-1.1h2.1v0.7c0,0.5,0.5,1,1,1h2c0.5,0,1-0.5,1-1v-5.3C30.4,23.1,29.5,22.2,28.4,22.2z
		 M12.2,20.7c0,0.3-0.2,0.5-0.5,0.5s-0.5-0.2-0.5-0.5V9.5c0-0.3,0.2-0.5,0.5-0.5s0.5,0.2,0.5,0.5V20.7z M18.6,19.6c0-0.5,0.5-1,1-1
		h1.7c0.5,0,1,0.5,1,1v1.3c0,0.5-0.5,1-1,1h-1.7c-0.5,0-1-0.5-1-1V19.6z M21,27.9v-1.5h2.3v1.5H21z M29.2,29.4h-1.6
		c-0.3,0-0.5-0.2-0.5-0.5s0.2-0.5,0.5-0.5h1.6c0.3,0,0.5,0.2,0.5,0.5S29.5,29.4,29.2,29.4z M29.2,27.5h-1.6c-0.3,0-0.5-0.2-0.5-0.5
		s0.2-0.5,0.5-0.5h1.6c0.3,0,0.5,0.2,0.5,0.5S29.5,27.5,29.2,27.5z"/>
</g>
</svg>
