<?xml version="1.0" encoding="utf-8"?>
<!-- Generator: Adobe Illustrator 22.0.1, SVG Export Plug-In . SVG Version: 6.00 Build 0)  -->
<svg version="1.1" id="图层_1" xmlns="http://www.w3.org/2000/svg" xmlns:xlink="http://www.w3.org/1999/xlink" x="0px" y="0px"
	 viewBox="0 0 32 32" style="enable-background:new 0 0 32 32;" xml:space="preserve">
<g id="自动排气阀">
	<g>
		<path d="M6.7,18.3c-0.6,0-1,0.4-1,1v8c0,0.6,0.4,1,1,1s1-0.4,1-1v-8C7.7,18.7,7.2,18.3,6.7,18.3z"/>
		<path d="M25.4,18.4c-0.6,0-1,0.4-1,1v8c0,0.6,0.4,1,1,1s1-0.4,1-1v-8C26.4,18.8,26,18.4,25.4,18.4z"/>
		<path d="M16.9,17.1c0.5-0.3,0.8-0.7,0.9-1.2h1.7v1.3c0,0.3,0.2,0.5,0.5,0.5s0.5-0.2,0.5-0.5v-3.7c0-0.3-0.2-0.5-0.5-0.5
			s-0.5,0.2-0.5,0.5v1.3h-1.7c-0.1-0.5-0.5-1-0.9-1.2v-1.4c1.8-0.5,3.2-2.1,3.2-4.1V6.5H22c0.6,0,1-0.4,1-1s-0.4-1-1-1h-4.1V3.8
			c0-0.4-0.4-0.8-0.8-0.8s-0.8,0.4-0.8,0.8v0.8H10c-0.6,0-1,0.4-1,1s0.4,1,1,1h1.5v1.6c0,2.1,1.4,3.8,3.4,4.2v1.4
			c-0.6,0.3-1,1-1,1.7s0.4,1.4,1,1.7v2.2H8.7v8.1h14.8v-8.1h-6.6V17.1z M13.5,8.1V6.5h4.6v1.6c0,1.3-1,2.3-2.3,2.3
			S13.5,9.4,13.5,8.1z"/>
	</g>
</g>
</svg>
