<?xml version="1.0" encoding="utf-8"?>
<!-- Generator: Adobe Illustrator 22.0.1, SVG Export Plug-In . SVG Version: 6.00 Build 0)  -->
<svg version="1.1" id="图层_1" xmlns="http://www.w3.org/2000/svg" xmlns:xlink="http://www.w3.org/1999/xlink" x="0px" y="0px"
	 viewBox="0 0 32 32" style="enable-background:new 0 0 32 32;" xml:space="preserve">
<g id="图层_11">
	<path d="M29.5,12.1L29.5,12.1c-0.6,0-1,0.4-1,1v1.7c0-0.5-0.4-1-1-1l0,0c-0.5,0-1,0.4-1,1V15h-1.7v-2v-0.1c1-0.1,1.8-0.9,1.8-2V7
		c0-0.5-0.5-1-1-1h-3.7c-0.5,0-1,0.5-1,1v3.8c0,1.1,0.9,2,1.9,2v0.1v2h-5.2v-1.2c1-0.1,1.8-0.9,1.8-2v-1.6c0-1.1-0.9-2-2-2h-3.3v-1
		C14.6,7,15,6.6,15,6.1l0,0h0.6C15.9,6,16,5.8,16,5.6s-0.2-0.4-0.4-0.4h-3.8c-0.2,0-0.4,0.2-0.4,0.4S11.5,6,11.8,6h0.5l0,0
		c0,0.5,0.4,0.9,0.9,1v1.1h-1.8V7.3c0-0.2-0.2-0.4-0.4-0.4h-0.2c-0.2,0-0.4,0.2-0.4,0.4v0.9c-1,0-1.8,0.8-1.9,1.7H7
		c-0.3,0-0.5,0.2-0.5,0.5V15h-1v-0.2c0-0.5-0.4-1-1-1l0,0c-0.5,0-0.9,0.4-1,0.9v-1.5c0-0.5-0.4-1-1-1l0,0c-0.5,0-1,0.4-1,1v12.4
		c0,0.5,0.4,1,1,1h0.1c0.5,0,1-0.4,1-1v-3.5c0.1,0.5,0.5,0.9,1,0.9l0,0c0.5,0,1-0.4,1-1v-1.4h4.3v2.2H7.4V22c0-0.3-0.2-0.5-0.5-0.5
		S6.4,21.7,6.4,22v4c0,0.3,0.2,0.5,0.5,0.5s0.5-0.2,0.5-0.5v-0.5h17.4V26c0,0.3,0.2,0.5,0.5,0.5s0.5-0.2,0.5-0.5v-4
		c0-0.3-0.2-0.5-0.5-0.5s-0.5,0.2-0.5,0.5v0.8H22v-2.2h4.5V22c0,0.5,0.4,1,1,1l0,0c0.5,0,1-0.4,1-1v3.6c0,0.5,0.4,1,1,1h0.1
		c0.5,0,1-0.4,1-1V13.1C30.5,12.6,30.1,12.1,29.5,12.1z M11.8,14.9v-1.2h3.7v1.2H11.8z M10.2,9.5c0-0.2,0.2-0.4,0.4-0.4h0.1h0.2h2.6
		h0.2h4c0.2,0,0.4,0.2,0.4,0.4v0.2c0,0.2-0.2,0.4-0.4,0.4h-7.1c-0.2,0-0.4-0.2-0.4-0.4C10.2,9.7,10.2,9.5,10.2,9.5z M7.5,10.9h0.9
		v0.9c0,0.9,0.6,1.7,1.5,1.9V15H7.5V10.9z M20,22.7h-8.2v-2.2H20V22.7z M26.1,16.9H5.9c-0.2,0-0.4-0.1-0.4-0.3v-0.4
		c0-0.1,0.1-0.2,0.2-0.3h20.5c0.1,0.1,0.2,0.2,0.2,0.4v0.1C26.5,16.7,26.3,16.9,26.1,16.9z"/>
</g>
</svg>
