<?xml version="1.0" encoding="utf-8"?>
<!-- Generator: Adobe Illustrator 22.0.1, SVG Export Plug-In . SVG Version: 6.00 Build 0)  -->
<svg version="1.1" id="图层_1" xmlns="http://www.w3.org/2000/svg" xmlns:xlink="http://www.w3.org/1999/xlink" x="0px" y="0px"
	 width="32px" height="32px" viewBox="0 0 32 32" style="enable-background:new 0 0 32 32;" xml:space="preserve">
<g id="图层_2_1_">
	<path d="M26.6,21.1h-0.2c-0.5,0-0.9,0.4-0.9,0.9v0.5h-0.8v-0.9l-3.4-3.1H17v-0.8h2.3c0.6,0,1-0.4,1-1s-0.4-1-1-1H19V9
		c0-0.6-0.4-1-1-1V4c0-1.1-0.9-2-2-2s-2,0.9-2,2v4c-0.6,0-1,0.4-1,1v6.7h-0.4c-0.6,0-1,0.4-1,1s0.4,1,1,1H15v0.8h-4.7l-3.1,3.1v0.9
		H6.5V22c0-0.5-0.4-0.9-0.9-0.9H5.4c-0.5,0-0.9,0.4-0.9,0.9v5.1c0,0.5,0.4,0.9,0.9,0.9h0.2c0.5,0,0.9-0.4,0.9-0.9v-0.7h0.8v1.1
		l3.3,2.9h11.1l3.1-2.5v-1.4h0.8v0.7c0,0.5,0.4,0.9,0.9,0.9h0.2c0.5,0,0.9-0.4,0.9-0.9V22C27.5,21.5,27.1,21.1,26.6,21.1z M15.5,3.5
		C15.5,3.2,15.7,3,16,3c0.3,0,0.5,0.2,0.5,0.5v1C16.5,4.8,16.3,5,16,5s-0.5-0.2-0.5-0.5V3.5z M21,26.4c0,0.1-1.1,1.3-2.7,1.4
		c-0.1,0-0.1,0-0.2,0c-0.8,0-1.5-0.3-2.2-0.9c-1.9-1.7-4.1,0-4.2,0c-0.2,0.2-0.5,0.1-0.7-0.1s-0.1-0.5,0.1-0.7c1-0.8,3.5-1.8,5.5,0
		c0.5,0.5,1.1,0.7,1.7,0.7c1.1-0.1,2-1.1,2-1.1c0.2-0.2,0.5-0.2,0.7-0.1C21.1,25.9,21.2,26.2,21,26.4z M21,22.7
		c0,0.1-1.1,1.3-2.7,1.4c-0.1,0-0.1,0-0.2,0c-0.8,0-1.5-0.3-2.2-0.9c-1.9-1.7-4.1,0-4.2,0c-0.2,0.2-0.5,0.1-0.7-0.1
		s-0.1-0.5,0.1-0.7c1-0.8,3.5-1.8,5.5,0c0.5,0.5,1.1,0.7,1.7,0.7c1.1-0.1,2-1.1,2-1.1c0.2-0.2,0.5-0.2,0.7-0.1
		C21.1,22.1,21.2,22.4,21,22.7z"/>
</g>
</svg>
