<?xml version="1.0" encoding="utf-8"?>
<!-- Generator: Adobe Illustrator 22.0.1, SVG Export Plug-In . SVG Version: 6.00 Build 0)  -->
<svg version="1.1" id="图层_1" xmlns="http://www.w3.org/2000/svg" xmlns:xlink="http://www.w3.org/1999/xlink" x="0px" y="0px"
	 width="32px" height="32px" viewBox="0 0 32 32" style="enable-background:new 0 0 32 32;" xml:space="preserve">
<g id="图层_2_1_">
	<rect x="13" y="9" style="fill:#141414;" width="6" height="2"/>
	<path style="fill:#141414;" d="M25.8,2H6.2C5,2,4,3,4,4.3v23.3C4,28.9,5,30,6.2,30h19.6c1.2,0,2.2-1.1,2.2-2.3V4.3
		C28,3,27,2,25.8,2z M22,24H10c-0.5,0-1-0.5-1-1s0.5-1,1-1h12c0.5,0,1,0.5,1,1S22.5,24,22,24z M22,20H10c-0.5,0-1-0.5-1-1s0.5-1,1-1
		h12c0.5,0,1,0.5,1,1S22.5,20,22,20z M23,11h-2v2H11v-2H9V9h2V7h10v2h2V11z"/>
</g>
</svg>
