<?xml version="1.0" encoding="utf-8"?>
<!-- Generator: Adobe Illustrator 22.0.1, SVG Export Plug-In . SVG Version: 6.00 Build 0)  -->
<svg version="1.1" id="图层_1" xmlns="http://www.w3.org/2000/svg" xmlns:xlink="http://www.w3.org/1999/xlink" x="0px" y="0px"
	 viewBox="0 0 32 32" style="enable-background:new 0 0 32 32;" xml:space="preserve">
<g id="图层_16">
	<path d="M29.4,4.2h-5.2V3.8H25c0.5,0,1-0.5,1-1V2.5c0-0.5-0.5-1-1-1h-3.7c-0.6,0-1,0.5-1,1v0.3c0,0.5,0.4,1,1,1h0.9v0.5h-5.9
		c-0.3,0-0.5,0.2-0.5,0.5v11.8H13v-0.2c0-1.1-0.9-2-2-2H3.6c-1.1,0-2,0.9-2,2v11.9c0,1.1,0.9,2,2,2h7.3c1.1,0,2-0.9,2-2V17.5h3.3
		c0.3,0,0.5-0.2,0.5-0.5V5.2h5.4v0.4c-2.3,0.5-4,2.5-4,4.9v15.9c0,1,0.7,1.8,1.6,2l-0.6,1.4c0,0-0.1,0.5,0.4,0.5s1.2,0,1.2,0
		s0.5,0,0.5-0.4l0.6-1.4h2.5l0.6,1.5c0.1,0.4,0.5,0.4,0.5,0.4s0.7,0,1.2,0s0.4-0.5,0.4-0.5l-0.6-1.5c0.9-0.2,1.6-1,1.6-2V10.5
		c0-2.4-1.7-4.4-4-4.9V5.2h5.2c0.3,0,0.5-0.2,0.5-0.5S29.7,4.2,29.4,4.2z M11.5,23.2c0,0.3-0.2,0.5-0.5,0.5s-0.5-0.2-0.5-0.5v-6.7
		c0-0.3,0.2-0.5,0.5-0.5s0.5,0.2,0.5,0.5V23.2z M25.9,9.4c0-0.3,0.2-0.5,0.5-0.5s0.5,0.2,0.5,0.5v11.1c0,0.3-0.2,0.5-0.5,0.5
		s-0.5-0.2-0.5-0.5V9.4z"/>
</g>
</svg>
