<?xml version="1.0" encoding="utf-8"?>
<!-- Generator: Adobe Illustrator 22.0.1, SVG Export Plug-In . SVG Version: 6.00 Build 0)  -->
<svg version="1.1" id="图层_1" xmlns="http://www.w3.org/2000/svg" xmlns:xlink="http://www.w3.org/1999/xlink" x="0px" y="0px"
	 viewBox="0 0 32 32" style="enable-background:new 0 0 32 32;" xml:space="preserve">
<g id="止回阀">
	<g>
		<path d="M25.4,20.4c-0.6,0-1,0.5-1,1v7.8c0,0.6,0.5,1,1,1s1-0.5,1-1v-7.8C26.4,20.9,25.9,20.4,25.4,20.4z"/>
		<path d="M6.6,20.4L6.6,20.4c-0.6,0-1,0.4-1,1v7.9c0,0.6,0.4,1,1,1l0,0c0.6,0,1-0.4,1-1v-7.9C7.6,20.8,7.1,20.4,6.6,20.4z"/>
		<path d="M21.3,21.3H10.6c-1.1,0-2,0.9-2,2v4c0,1.1,0.9,2,2,2h10.8c1.1,0,2-0.9,2-2v-4C23.3,22.2,22.4,21.3,21.3,21.3z"/>
		<path d="M14.3,15.7h-2h-0.6c-0.6,0-1,0.4-1,1s0.4,1,1,1h0.6v2.6h7v-2.6h0.6c0.6,0,1-0.4,1-1s-0.4-1-1-1h-0.6h-2
			c3.2-0.7,5.6-3.5,5.6-6.9c0-3.9-3.2-7.1-7.1-7.1S8.7,4.9,8.7,8.8C8.7,12.2,11.1,15,14.3,15.7z M13,5.2c0-0.6,0.7-1,1.2-0.7L20,7.8
			c0.5,0.3,0.5,1.1,0,1.4l-5.8,3.3c-0.5,0.3-1.2-0.1-1.2-0.7V5.2z"/>
	</g>
</g>
</svg>
