<?xml version="1.0" encoding="utf-8"?>
<!-- Generator: Adobe Illustrator 22.0.1, SVG Export Plug-In . SVG Version: 6.00 Build 0)  -->
<svg version="1.1" id="图层_1" xmlns="http://www.w3.org/2000/svg" xmlns:xlink="http://www.w3.org/1999/xlink" x="0px" y="0px"
	 width="32px" height="32px" viewBox="0 0 32 32" style="enable-background:new 0 0 32 32;" xml:space="preserve">
<g id="图层_2_1_">
	<path style="fill:#141414;" d="M17.1,16.3L17.1,16.3c0-0.2,0-0.3,0-0.4c2-1.7,4-1.9,4.4-2c-0.1-0.3-0.3-0.7-0.5-1
		c-0.3-0.5-0.6-0.9-1-1.3c-1.5,0.6-3,2.3-3.7,3.2c-0.1-0.1-0.2-0.1-0.3-0.2c-0.6-2.8,0.2-4.8,0.4-5.2c-0.4-0.1-0.7-0.1-1.1-0.1
		c-0.6,0-1.1,0.1-1.7,0.2c-0.3,1.7,0.7,4.2,1.1,5.1c-0.3,0.1-0.5,0.3-0.7,0.5c-2.7-0.9-3.9-2.5-4.2-2.9c-0.2,0.3-0.4,0.6-0.6,0.9
		c-0.3,0.5-0.5,1-0.7,1.5c1.4,1.1,4.2,1.5,5,1.6c0,0,0,0,0,0.1c0,0.3,0.1,0.5,0.2,0.7l0,0c-2.2,2-4.3,2.2-4.8,2.3
		c0.1,0.3,0.3,0.7,0.5,1c0.3,0.5,0.6,0.9,1,1.3c2-0.8,4.1-3.7,4.1-3.7l-0.1-0.1c0.2,0.2,0.5,0.3,0.9,0.3c0.5,2.7-0.3,4.5-0.5,4.9
		c0.4,0.1,0.7,0.1,1.1,0.1c0.6,0,1.1-0.1,1.7-0.2c0.3-1.8-0.8-4.4-1.1-5.2c0.1-0.1,0.1-0.1,0.2-0.2c2.6,0.9,3.8,2.5,4.1,2.9
		c0.2-0.3,0.4-0.6,0.6-0.9c0.3-0.5,0.5-1,0.7-1.5C20.7,16.8,18,16.4,17.1,16.3z"/>
	<path style="fill:#141414;" d="M28,4v1h-1H15l0,0c-4.6,0.1-8.6,3-10.2,7.1c-1.7,1.8-2.8,4.3-2.8,7c0,1.4,0.3,2.7,0.8,3.9h3.5
		c2.1,2.7,5.3,4.5,9,4.5c6.2,0,11.3-5,11.3-11.3c0-1.2-0.2-2.3-0.5-3.4H27h1V14h2V4H28z M15.3,24.5c-4.6,0-8.3-3.7-8.3-8.3
		C7,11.7,10.7,8,15.3,8s8.3,3.7,8.3,8.3C23.6,20.8,19.9,24.5,15.3,24.5z"/>
</g>
</svg>
