<?xml version="1.0" encoding="utf-8"?>
<!-- Generator: Adobe Illustrator 22.0.1, SVG Export Plug-In . SVG Version: 6.00 Build 0)  -->
<svg version="1.1" id="图层_1" xmlns="http://www.w3.org/2000/svg" xmlns:xlink="http://www.w3.org/1999/xlink" x="0px" y="0px"
	 width="32px" height="32px" viewBox="0 0 32 32" style="enable-background:new 0 0 32 32;" xml:space="preserve">
<g id="截止阀">
	<g>
		<path d="M6.5,15.8c-0.6,0-1,0.5-1,1v7.8c0,0.6,0.5,1,1,1s1-0.5,1-1v-7.8C7.6,16.3,7.1,15.8,6.5,15.8z"/>
		<path d="M25.4,15.8c-0.6,0-1,0.5-1,1v7.8c0,0.6,0.5,1,1,1s1-0.5,1-1v-7.8C26.4,16.3,25.9,15.8,25.4,15.8z"/>
		<path d="M19.4,14.3L19.4,14.3v-1.5h-2.2v-4H22c0.6,0,1-0.4,1-1s-0.4-1-1-1h-2.5l-0.6-1.2h-5.8l-0.6,1.2H10c-0.6,0-1,0.4-1,1
			s0.4,1,1,1h5.1v3.9h-2.4v1.6c-0.8,0.3-1.6,0.9-2.2,1.6H8.8v9h1.3c0.5,0.6,1.1,1.1,1.8,1.4l0.6,0.2h6.8l0.7-0.3
			c0.7-0.3,1.3-0.7,1.8-1.3h1.3v-4l0,0V16h-1.7C20.9,15.1,20.2,14.6,19.4,14.3z M17.6,23.8l-1.4,1.6l-1.4-1.6
			c-1.4-0.6-2.4-1.9-2.4-3.6c0-2.1,1.7-3.8,3.8-3.8s3.8,1.7,3.8,3.8C20.1,21.8,19,23.2,17.6,23.8z"/>
		<circle cx="16.2" cy="20.2" r="1.8"/>
	</g>
</g>
</svg>
