<?xml version="1.0" encoding="utf-8"?>
<!-- Generator: Adobe Illustrator 22.0.1, SVG Export Plug-In . SVG Version: 6.00 Build 0)  -->
<svg version="1.1" id="图层_1" xmlns="http://www.w3.org/2000/svg" xmlns:xlink="http://www.w3.org/1999/xlink" x="0px" y="0px"
	 width="32px" height="32px" viewBox="0 0 32 32" style="enable-background:new 0 0 32 32;" xml:space="preserve">
<g id="图层_2_1_">
	<path d="M25.6,21.1h-0.2c-0.5,0-0.9,0.4-0.9,0.9v0.5h-0.8v-0.9l-3.4-3.1H16v-0.8h2.3c0.6,0,1-0.4,1-1s-0.4-1-1-1H16v-1.2h7.2
		c1.1,0,2-0.9,2-2v-9c0-1.1-0.9-2-2-2H6.6c-1.1,0-2,0.9-2,2v9c0,1.1,0.9,2,2,2H14v1.2h-2.4c-0.6,0-1,0.4-1,1s0.4,1,1,1H14v0.8H9.4
		l-3.1,3.1v0.9H5.5V22c0-0.5-0.4-0.9-0.9-0.9H4.4c-0.5,0-0.9,0.4-0.9,0.9v5.1c0,0.5,0.4,0.9,0.9,0.9h0.2c0.5,0,0.9-0.4,0.9-0.9v-0.7
		h0.8v1.1l3.3,2.9h11.1l3.1-2.5v-1.4h0.8v0.7c0,0.5,0.4,0.9,0.9,0.9h0.2c0.5,0,0.9-0.4,0.9-0.9V22C26.5,21.5,26.1,21.1,25.6,21.1z
		 M15.1,10.5c0.2,0.2,0.6,0.4,1,0.5s0.8,0.2,1.2,0.2c1.1,0,1.7-0.4,1.7-1.2c0-0.2-0.1-0.4-0.2-0.6c-0.1-0.2-0.3-0.3-0.5-0.5
		c-0.2-0.1-0.6-0.3-1.2-0.6c-0.8-0.4-1.3-0.8-1.6-1.1S15.1,6.5,15.1,6c0-0.7,0.3-1.2,0.8-1.6c0.5-0.4,1.2-0.6,2-0.6
		c0.8,0,1.4,0.1,1.7,0.3v1.1c-0.5-0.3-1.1-0.5-1.8-0.5c-0.5,0-0.9,0.1-1.2,0.3c-0.3,0.2-0.5,0.5-0.5,0.9c0,0.3,0.1,0.6,0.3,0.8
		c0.2,0.2,0.7,0.5,1.4,0.8c0.8,0.4,1.3,0.7,1.6,1.1S20,9.5,20,10c0,0.7-0.3,1.2-0.8,1.6c-0.5,0.4-1.2,0.6-2.1,0.6
		c-0.3,0-0.7,0-1.1-0.1s-0.7-0.2-0.9-0.3V10.5z M13.9,7.6v0.9H11V12h-1V4h4.1v0.9H11v2.7C11,7.6,13.9,7.6,13.9,7.6z M20,26.4
		c0,0.1-1.1,1.3-2.7,1.4c-0.1,0-0.1,0-0.2,0c-0.8,0-1.5-0.3-2.2-0.9c-1.9-1.7-4.1,0-4.2,0c-0.2,0.2-0.5,0.1-0.7-0.1
		s-0.1-0.5,0.1-0.7c1-0.8,3.5-1.8,5.5,0c0.5,0.5,1.1,0.7,1.7,0.7c1.1-0.1,2-1.1,2-1.1c0.2-0.2,0.5-0.2,0.7-0.1
		C20.1,25.9,20.2,26.2,20,26.4z M20,22.7c0,0.1-1.1,1.3-2.7,1.4c-0.1,0-0.1,0-0.2,0c-0.8,0-1.5-0.3-2.2-0.9c-1.9-1.7-4.1,0-4.2,0
		c-0.2,0.2-0.5,0.1-0.7-0.1s-0.1-0.5,0.1-0.7c1-0.8,3.5-1.8,5.5,0c0.5,0.5,1.1,0.7,1.7,0.7c1.1-0.1,2-1.1,2-1.1
		c0.2-0.2,0.5-0.2,0.7-0.1C20.1,22.1,20.2,22.4,20,22.7z"/>
</g>
</svg>
