<?xml version="1.0" encoding="utf-8"?>
<!-- Generator: Adobe Illustrator 22.0.1, SVG Export Plug-In . SVG Version: 6.00 Build 0)  -->
<svg version="1.1" id="图层_1" xmlns="http://www.w3.org/2000/svg" xmlns:xlink="http://www.w3.org/1999/xlink" x="0px" y="0px"
	 width="32px" height="32px" viewBox="0 0 32 32" style="enable-background:new 0 0 32 32;" xml:space="preserve">
<g id="图层_2_1_">
	<path d="M28.5,3.5h-25c-1.1,0-2,0.9-2,2v21c0,1.1,0.9,2,2,2h25c1.1,0,2-0.9,2-2v-21C30.5,4.4,29.6,3.5,28.5,3.5z M26.6,22.6
		c-0.1,0.1-2.3,1.9-5.6,1.9h-0.1c-1.9,0-3.8-0.7-5.7-1.9c-2.7-1.8-5-1.8-6.4-1.4c-0.6,0.1-1,0.3-1.4,0.5L9.2,23L4,22.8l2.7-4.4
		l0.1,1.7c1.9-0.9,5.3-1.8,9.4,1c5.2,3.5,9.1,0.3,9.3,0.1c0.4-0.3,0.9-0.3,1.2,0.1S26.9,22.3,26.6,22.6z M26.6,16.7
		c0,0-2.3,1.9-5.6,1.9l0,0c-1.9,0-3.9-0.7-5.7-1.9c-2.1-1.4-4.3-1.9-6.4-1.4c-1.6,0.4-2.5,1.3-2.5,1.3c-0.2,0.2-0.4,0.2-0.6,0.2
		s-0.4-0.1-0.6-0.3C5,16.3,5,16.1,5,15.9c0-0.2,0.1-0.4,0.3-0.6c0,0,1.2-1.1,3.2-1.7c1.1-0.3,2.3-0.4,3.5-0.2
		c1.5,0.2,2.9,0.8,4.4,1.8c5.2,3.5,9.1,0.3,9.3,0.1c0.4-0.3,0.9-0.3,1.2,0.1C27,15.8,27,16.4,26.6,16.7z M25.3,13.6l-0.1-1.9
		c-1,0.5-2.4,1-4.2,1l0,0c-1.9,0-3.9-0.7-5.7-1.9C13.1,9.3,11,8.8,9,9.4c-1.5,0.4-2.4,1.2-2.5,1.3c-0.5,0.3-1,0.3-1.4,0
		c-0.3-0.3-0.3-0.9,0-1.2c0,0,1.2-1.1,3.2-1.7c1.1-0.3,2.3-0.4,3.5-0.2c1.5,0.2,2.9,0.8,4.4,1.8c3.7,2.5,6.8,1.6,8.3,0.8L22.8,9
		L28,9.2L25.3,13.6z"/>
</g>
</svg>
