<?xml version="1.0" encoding="utf-8"?>
<!-- Generator: Adobe Illustrator 22.0.1, SVG Export Plug-In . SVG Version: 6.00 Build 0)  -->
<svg version="1.1" id="图层_1" xmlns="http://www.w3.org/2000/svg" xmlns:xlink="http://www.w3.org/1999/xlink" x="0px" y="0px"
	 width="32px" height="32px" viewBox="0 0 32 32" style="enable-background:new 0 0 32 32;" xml:space="preserve">
<g id="图层_2_1_">
	<g>
		<g>
			<path d="M7.5,22v1c0,1.1,0.9,2,2,2s2-0.9,2-2v-1H7.5z"/>
			<path d="M21.5,22v1c0,1.1,0.9,2,2,2s2-0.9,2-2v-1H21.5z"/>
		</g>
		<path d="M24.5,7h-8h-3h-1h-1h-4c-3.3,0-6,2.7-6,6v2c0,3.3,2.7,6,6,6h3h2h1h2h9c3.3,0,6-2.7,6-6v-2C30.5,9.7,27.8,7,24.5,7z
			 M13.5,17h-1h-1v-6h1h1V17z M24.5,18c-2.2,0-4-1.8-4-4s1.8-4,4-4c0.9,0,1.7,0.3,2.4,0.8l-2.1,2c-0.2-0.1-0.4-0.1-0.5-0.1
			c-0.9,0-1.7,0.8-1.7,1.7s0.8,1.7,1.7,1.7s1.7-0.8,1.7-1.7c0-0.2,0-0.4-0.1-0.5l2-2.1c0.5,0.7,0.8,1.5,0.8,2.4
			C28.5,16.2,26.7,18,24.5,18z"/>
	</g>
</g>
</svg>
