<?xml version="1.0" encoding="utf-8"?>
<!-- Generator: Adobe Illustrator 22.0.1, SVG Export Plug-In . SVG Version: 6.00 Build 0)  -->
<svg version="1.1" id="图层_1" xmlns="http://www.w3.org/2000/svg" xmlns:xlink="http://www.w3.org/1999/xlink" x="0px" y="0px"
	 width="32px" height="32px" viewBox="0 0 32 32" style="enable-background:new 0 0 32 32;" xml:space="preserve">
<g>
	<polygon points="11.9,8 13.4,8 13.4,7.2 11.9,7.2 11.9,6.1 13.5,6.1 13.5,5.3 10.9,5.3 10.9,9.8 13.6,9.8 13.6,9 11.9,9 	"/>
	<path d="M15.9,5.3h-1.6v4.6h1V8.3V8.2h0.5c0.5,0,1-0.1,1.3-0.4c0.3-0.3,0.5-0.6,0.5-1.1C17.6,5.8,17,5.3,15.9,5.3z M15.7,7.5h-0.4
		V6.1h0.5c0.5,0,0.8,0.2,0.8,0.7S16.3,7.5,15.7,7.5z"/>
	<path d="M19.8,7.1c-0.4-0.2-0.6-0.3-0.7-0.4C19,6.6,19,6.5,19,6.4c0-0.1,0-0.2,0.2-0.3C19.4,6,19.6,6,19.8,6c0.5,0,0.8,0.1,1.1,0.3
		V5.4c-0.3-0.1-0.7-0.2-1.1-0.2c-0.6,0-1,0.1-1.3,0.4c-0.3,0.3-0.5,0.6-0.5,1c0,0.5,0.4,1,1.1,1.4c0.4,0.1,0.7,0.3,0.8,0.4
		c0.1,0.1,0.2,0.2,0.2,0.3c0,0.2-0.1,0.3-0.2,0.4c-0.1,0.1-0.3,0.1-0.6,0.1c-0.4,0-0.8-0.2-1.2-0.5h-0.2v0.8
		c0.4,0.2,0.8,0.3,1.3,0.3c0.6,0,1-0.1,1.3-0.3s0.5-0.6,0.5-1c0-0.3-0.2-0.6-0.3-0.8C20.6,7.5,20.3,7.3,19.8,7.1z"/>
	<path d="M22.3,1.5H9.7c-1.1,0-2,0.9-2,2v25c0,1.1,0.9,2,2,2h12.6c1.1,0,2-0.9,2-2v-25C24.3,2.4,23.4,1.5,22.3,1.5z M13,27h-2v-2h2
		V27z M17,27h-2v-2h2V27z M21,27h-2v-2h2V27z M21,21H11v-2h10V21z M11,15v-2h2v2H11z M15,15v-2h2v2H15z M21,15h-2v-2h2V15z M22,10
		c0,0.6-0.4,1-1,1H11c-0.6,0-1-0.4-1-1V5c0-0.6,0.4-1,1-1h10c0.6,0,1,0.4,1,1V10z"/>
</g>
</svg>
