<?xml version="1.0" encoding="utf-8"?>
<!-- Generator: Adobe Illustrator 22.0.1, SVG Export Plug-In . SVG Version: 6.00 Build 0)  -->
<svg version="1.1" id="图层_1" xmlns="http://www.w3.org/2000/svg" xmlns:xlink="http://www.w3.org/1999/xlink" x="0px" y="0px"
	 width="32px" height="32px" viewBox="0 0 32 32" style="enable-background:new 0 0 32 32;" xml:space="preserve">
<g id="图层_2_1_">
	<g>
		<g>
			<path d="M8.8,30.5h14.4c1.2,0,2.1-1,2.1-2.2V6.8c0-0.7-0.5-1.2-1.1-1.2h-6.3c-0.5,0-0.9,0.1-1.2,0.4l0,0l-9,7.3
				c-0.6,0.5-1,1.4-1,2.3v12.6C6.7,29.5,7.6,30.5,8.8,30.5z M20.9,17.2c1.4,3.3,1.8,4.3,1.8,5.1c0,1-0.8,1.9-1.8,1.9
				s-1.8-0.9-1.8-1.9C19.1,21.5,19.5,20.4,20.9,17.2z M9.9,14.6l6.4-5.2C16.8,9,17.6,9.1,18,9.6c0.4,0.6,0.3,1.3-0.2,1.8l-6.4,5.2
				c-0.2,0.2-0.5,0.3-0.7,0.3c-0.4,0-0.7-0.2-1-0.5C9.2,15.9,9.3,15.1,9.9,14.6z"/>
		</g>
		<g>
			<path d="M23.8,3.6c0-1.1-0.8-2.1-1.7-2.1h-1.7c-1,0-1.7,0.9-1.7,2.1v1h5.2L23.8,3.6L23.8,3.6z"/>
		</g>
	</g>
</g>
</svg>
