<?xml version="1.0" encoding="utf-8"?>
<!-- Generator: Adobe Illustrator 22.0.1, SVG Export Plug-In . SVG Version: 6.00 Build 0)  -->
<svg version="1.1" id="图层_1" xmlns="http://www.w3.org/2000/svg" xmlns:xlink="http://www.w3.org/1999/xlink" x="0px" y="0px"
	 width="32px" height="32px" viewBox="0 0 32 32" style="enable-background:new 0 0 32 32;" xml:space="preserve">
<g id="图层_2_1_">
	<path d="M26.6,2H5.4C4.1,2,3,3,3,4.3v23.3C3,28.9,4.1,30,5.4,30h21.3c1.3,0,2.4-1.1,2.4-2.3V4.3C29,3,27.9,2,26.6,2z M25,25
		c0,1.1-0.9,2-2,2H9c-1.1,0-2-0.9-2-2V11c0-1.1,0.9-2,2-2h14c1.1,0,2,0.9,2,2V25z M24,6h-2c-0.5,0-1-0.5-1-1s0.5-1,1-1h2
		c0.5,0,1,0.5,1,1S24.5,6,24,6z"/>
	<path d="M13.5,13c0.6,0,1,0.4,1,1s-0.4,1-1,1s-1-0.4-1-1S12.9,13,13.5,13 M13.5,11c-1.7,0-3,1.3-3,3s1.3,3,3,3s3-1.3,3-3
		S15.2,11,13.5,11L13.5,11z"/>
	<path d="M19,21c0.6,0,1,0.4,1,1s-0.4,1-1,1s-1-0.4-1-1S18.4,21,19,21 M19,19c-1.7,0-3,1.3-3,3s1.3,3,3,3s3-1.3,3-3S20.7,19,19,19
		L19,19z"/>
	<g>
		<path d="M11,13H9c-0.5,0-1,0.5-1,1s0.5,1,1,1h2V13z"/>
		<path d="M23,13h-8v2h8c0.5,0,1-0.5,1-1S23.5,13,23,13z"/>
	</g>
	<g>
		<path d="M17,21H9c-0.5,0-1,0.5-1,1s0.5,1,1,1h8V21z"/>
		<path d="M23,21h-2v2h2c0.5,0,1-0.5,1-1S23.5,21,23,21z"/>
	</g>
</g>
</svg>
