<?xml version="1.0" encoding="utf-8"?>
<!-- Generator: Adobe Illustrator 22.0.1, SVG Export Plug-In . SVG Version: 6.00 Build 0)  -->
<svg version="1.1" id="图层_1" xmlns="http://www.w3.org/2000/svg" xmlns:xlink="http://www.w3.org/1999/xlink" x="0px" y="0px"
	 viewBox="0 0 32 32" style="enable-background:new 0 0 32 32;" xml:space="preserve">
<g id="图层_5">
	<g>
		<path d="M28,2H4C2.8,2,1.7,3,1.7,4.3v24c0,1.3,1,2.3,2.3,2.3h24c1.3,0,2.3-1,2.3-2.3v-24C30.3,3,29.2,2,28,2z M8.2,27H6.5
			c-0.5,0-1-0.4-1-1c0-0.5,0.5-1,1-1h1.7c0.5,0,1,0.5,1,1S8.7,27,8.2,27z M14,27h-1.7c-0.5,0-1-0.4-1-1c0-0.5,0.5-1,1-1H14
			c0.5,0,1,0.5,1,1S14.6,27,14,27z M19.9,27h-1.7c-0.5,0-1-0.4-1-1c0-0.5,0.5-1,1-1h1.7c0.5,0,1,0.5,1,1S20.4,27,19.9,27z M25.6,27
			h-1.7c-0.5,0-1-0.4-1-1c0-0.5,0.5-1,1-1h1.7c0.5,0,1,0.5,1,1S26.1,27,25.6,27z M26.6,19.9c0,1.1-0.8,2-1.9,2H7.3c-1.1,0-2-0.9-2-2
			V7.1c0-1.1,0.9-2,2-2h17.3c1.1,0,2,0.9,2,2V19.9z"/>
		<path d="M17,16.5v-6c0-0.6-0.4-1-1-1c-0.6,0-1,0.4-1,1v6c-0.6,0.3-1,1-1,1.7c0,1.1,0.9,2,2,2s2-0.9,2-2C18,17.5,17.6,16.8,17,16.5
			z"/>
		<path d="M16.1,6.6c-5.3,0-9.7,4.4-9.7,9.7c0,0.6,0.4,1,1,1s1-0.4,1-1c0-4.2,3.5-7.7,7.7-7.7c4.2,0,7.7,3.5,7.7,7.7
			c0,0.6,0.4,1,1,1s1-0.4,1-1C25.8,11,21.4,6.6,16.1,6.6z"/>
	</g>
</g>
</svg>
