<?xml version="1.0" encoding="utf-8"?>
<!-- Generator: Adobe Illustrator 22.0.1, SVG Export Plug-In . SVG Version: 6.00 Build 0)  -->
<svg version="1.1" id="图层_1" xmlns="http://www.w3.org/2000/svg" xmlns:xlink="http://www.w3.org/1999/xlink" x="0px" y="0px"
	 width="32px" height="32px" viewBox="0 0 32 32" style="enable-background:new 0 0 32 32;" xml:space="preserve">
<g id="图层_1_1_">
	<path d="M22.2,16.3l2.5-2.5c0.4-0.4,0.4-1,0-1.4s-1-0.4-1.4,0l-3,3H7.8c-0.5,0-1,0.5-1,1s0.5,1,1,1h12.7l2.7,2.7
		c0.2,0.2,0.5,0.3,0.7,0.3s0.5-0.1,0.7-0.3c0.4-0.4,0.4-1,0-1.4L22.2,16.3z"/>
	<path d="M26.2,3.5H5.8c-1.2,0-2.2,0.9-2.2,2v20.9c0,1.1,1,2,2.2,2h20.5c1.2,0,2.2-0.9,2.2-2V5.5C28.4,4.4,27.4,3.5,26.2,3.5z
		 M8.1,8.1h1.4l0.8,3.2l0.8-3.2h1.4v4.7h-0.9V9.1l-0.9,3.7H9.9L9,9.1v3.7H8.1V8.1z M25.5,18c0.4,0.4,0.6,0.9,0.6,1.4s-0.2,1-0.6,1.4
		s-0.9,0.6-1.4,0.6s-1-0.2-1.4-0.6l-2.4-2.4H7.9c-1.1,0-2-0.9-2-2s0.9-2,2-2h12l2.7-2.7c0.4-0.4,0.9-0.6,1.4-0.6s1,0.2,1.4,0.6
		s0.6,0.9,0.6,1.4s-0.2,1-0.6,1.4l-1.7,1.7L25.5,18z"/>
</g>
<g id="图层_2_1_">
</g>
</svg>
