<?xml version="1.0" encoding="utf-8"?>
<!-- Generator: Adobe Illustrator 22.0.1, SVG Export Plug-In . SVG Version: 6.00 Build 0)  -->
<svg version="1.1" id="图层_1" xmlns="http://www.w3.org/2000/svg" xmlns:xlink="http://www.w3.org/1999/xlink" x="0px" y="0px"
	 width="32px" height="32px" viewBox="0 0 32 32" style="enable-background:new 0 0 32 32;" xml:space="preserve">
<g id="图层_1_1_">
	<path d="M22,1.4H10c-1.1,0-2,0.9-2,2v24.9c0,1.1,0.9,2,2,2h12c1.1,0,2-0.9,2-2V3.4C24,2.3,23.1,1.4,22,1.4z M12.3,28.4
		c-0.6,0-1-0.4-1-1s0.4-1,1-1s1,0.4,1,1C13.3,27.9,12.9,28.4,12.3,28.4z M16,28.4c-0.6,0-1-0.4-1-1s0.4-1,1-1s1,0.4,1,1
		C17,27.9,16.6,28.4,16,28.4z M19.7,28.4c-0.6,0-1-0.4-1-1s0.4-1,1-1s1,0.4,1,1C20.7,27.9,20.2,28.4,19.7,28.4z M21.5,24.6
		c0,0.6-0.4,1-1,1h-9c-0.6,0-1-0.4-1-1l0,0c0-0.6,0.4-1,1-1h9C21.1,23.6,21.5,24,21.5,24.6L21.5,24.6z M19.9,18.1l-0.5-0.9l0.9-0.5
		l0.5,0.9c0.3,0.5,0.3,1,0,1.5s-0.8,0.8-1.3,0.8h-1.1v-1h1.1c0.3,0,0.4-0.2,0.4-0.3C20,18.5,20.1,18.3,19.9,18.1z M20.1,15.6l-1.7,1
		c-0.2,0.1-0.5,0.1-0.7-0.2l0,0c-0.1-0.2-0.1-0.5,0.2-0.7l1.7-1c0.2-0.1,0.5-0.1,0.7,0.2C20.4,15.1,20.3,15.5,20.1,15.6z M19.2,14
		l-1.7,1c-0.2,0.1-0.5,0.1-0.7-0.2l0,0c-0.1-0.2-0.1-0.5,0.2-0.7l1.7-1c0.2-0.1,0.5-0.1,0.7,0.2l0,0C19.5,13.6,19.4,13.9,19.2,14z
		 M17.4,20.4c0,0.3-0.2,0.5-0.5,0.5l0,0c-0.3,0-0.5-0.2-0.5-0.5v-2c0-0.3,0.2-0.5,0.5-0.5l0,0c0.3,0,0.5,0.2,0.5,0.5V20.4z M17,13
		l-0.6-1c-0.1-0.2-0.3-0.2-0.4-0.2s-0.3,0-0.4,0.3l0,0L15,13l-0.9-0.5l0.5-0.9c0.3-0.5,0.8-0.8,1.3-0.8l0,0c0.5,0,1,0.3,1.3,0.7
		l0.5,0.9L17,13z M15.6,20.4c0,0.3-0.2,0.5-0.5,0.5c-0.2,0-0.5-0.2-0.5-0.5v-2c0-0.3,0.2-0.5,0.5-0.5l0,0c0.3,0,0.5,0.2,0.5,0.5
		V20.4z M15,14.1c0.2,0.1,0.3,0.4,0.2,0.7l0,0c-0.1,0.2-0.4,0.3-0.7,0.2l-1.7-1c-0.2-0.1-0.3-0.4-0.2-0.7c0.1-0.2,0.4-0.3,0.7-0.2
		L15,14.1z M14.1,15.7c0.2,0.1,0.3,0.4,0.2,0.7l0,0c-0.1,0.2-0.4,0.3-0.7,0.2l-1.7-1c-0.2-0.1-0.3-0.4-0.2-0.7l0,0
		c0.1-0.2,0.4-0.3,0.7-0.2L14.1,15.7z M11.7,16.7l0.9,0.5l-0.5,0.9c-0.1,0.2,0,0.4,0,0.5s0.2,0.2,0.4,0.2l0,0h1.1v1h-1.1l0,0
		c-0.5,0-1-0.3-1.3-0.7c-0.3-0.5-0.3-1,0-1.5L11.7,16.7z M20.5,8.7h-9c-0.6,0-1-0.4-1-1s0.4-1,1-1h9c0.6,0,1,0.4,1,1
		C21.5,8.2,21.1,8.7,20.5,8.7z M20.5,5.6h-9c-0.6,0-1-0.4-1-1s0.4-1,1-1h9c0.6,0,1,0.4,1,1S21.1,5.6,20.5,5.6z"/>
</g>
<g id="图层_2_1_">
</g>
</svg>
