<?xml version="1.0" encoding="utf-8"?>
<!-- Generator: Adobe Illustrator 22.0.1, SVG Export Plug-In . SVG Version: 6.00 Build 0)  -->
<svg version="1.1" id="图层_1" xmlns="http://www.w3.org/2000/svg" xmlns:xlink="http://www.w3.org/1999/xlink" x="0px" y="0px"
	 width="32px" height="32px" viewBox="0 0 32 32" style="enable-background:new 0 0 32 32;" xml:space="preserve">
<g id="图层_2_1_">
	<path d="M7.7,3.5v25c0,1.1,0.9,2,2,2h12.6c1.1,0,2-0.9,2-2v-25c0-1.1-0.9-2-2-2H9.7C8.6,1.5,7.7,2.4,7.7,3.5z M20.5,8.7h-9
		c-0.6,0-1-0.4-1-1s0.4-1,1-1h9c0.6,0,1,0.4,1,1S21.1,8.7,20.5,8.7z M20.5,5.6h-9c-0.6,0-1-0.4-1-1s0.4-1,1-1h9c0.6,0,1,0.4,1,1
		S21.1,5.6,20.5,5.6z"/>
	<g>
		<g>
			<path style="fill:#FFFFFF;" d="M16.7,12v3.4l1.5,1.1c0.3,0.2,0.4,0.6,0.4,0.9c0,0.4-0.3,0.7-0.6,0.8L16.4,19l2.1,1.1
				c0.3,0.2,0.6,0.5,0.6,0.9s-0.2,0.7-0.6,0.9l-1.4,0.7V24H21V12H16.7z"/>
			<path style="fill:#FFFFFF;" d="M15.1,21.9c0-0.4,0.2-0.7,0.6-0.9l0.2-0.1l-2.2-1.1c-0.3-0.2-0.6-0.5-0.6-0.9s0.2-0.7,0.6-0.9
				l2-0.9l-0.5-0.4c-0.3-0.2-0.4-0.5-0.4-0.8V12H11v12h4.1V21.9z"/>
		</g>
	</g>
</g>
</svg>
