<?xml version="1.0" encoding="utf-8"?>
<!-- Generator: Adobe Illustrator 22.0.1, SVG Export Plug-In . SVG Version: 6.00 Build 0)  -->
<svg version="1.1" id="图层_1" xmlns="http://www.w3.org/2000/svg" xmlns:xlink="http://www.w3.org/1999/xlink" x="0px" y="0px"
	 width="32px" height="32px" viewBox="0 0 32 32" style="enable-background:new 0 0 32 32;" xml:space="preserve">
<g>
	<path d="M22.3,1.5H9.7c-1.1,0-2,0.9-2,2v25c0,1.1,0.9,2,2,2h12.6c1.1,0,2-0.9,2-2v-25C24.3,2.4,23.4,1.5,22.3,1.5z M11.5,3.6h9
		c0.6,0,1,0.4,1,1c0,0.6-0.4,1-1,1h-9c-0.6,0-1-0.4-1-1C10.5,4,10.9,3.6,11.5,3.6z M11.5,6.7h9c0.6,0,1,0.4,1,1c0,0.6-0.4,1-1,1h-9
		c-0.6,0-1-0.4-1-1C10.5,7.1,10.9,6.7,11.5,6.7z M13,13v1c0,0.6-0.4,1-1,1s-1-0.4-1-1v-1c0-0.6,0.4-1,1-1S13,12.4,13,13z M13.9,21.4
		c0,1.4-0.6,2.1-1.9,2.1c-1.2,0-1.9-0.7-1.9-2v-2.7h1v2.7c0,0.8,0.3,1.2,0.9,1.2s0.9-0.4,0.9-1.1v-2.8h1V21.4z M17.7,21.3
		c-0.3,0.2-0.8,0.4-1.3,0.4h-0.5v0.1v1.6h-1v-4.7h1.6c1.2,0,1.7,0.5,1.7,1.5C18.2,20.7,18,21.1,17.7,21.3z M21.3,23
		c-0.3,0.2-0.8,0.4-1.3,0.4s-1-0.1-1.3-0.3v-0.9h0.1c0.4,0.3,0.8,0.5,1.3,0.5c0.3,0,0.5,0,0.6-0.1c0.1-0.1,0.2-0.2,0.2-0.4
		c0-0.1-0.1-0.2-0.2-0.4c-0.1-0.1-0.4-0.3-0.9-0.5c-0.7-0.3-1.1-0.8-1.1-1.3c0-0.4,0.2-0.8,0.5-1s0.8-0.4,1.3-0.4s0.8,0.1,1.1,0.2
		v0.9c-0.3-0.2-0.7-0.3-1.1-0.3c-0.2,0-0.4,0-0.6,0.1c-0.1,0.1-0.2,0.2-0.2,0.4c0,0.1,0,0.2,0.1,0.3c0.1,0.1,0.3,0.2,0.7,0.4
		c0.5,0.2,0.8,0.4,1,0.6s0.3,0.5,0.3,0.8C21.8,22.4,21.6,22.8,21.3,23z"/>
	<path d="M16.3,19.5h-0.4V21h0.4c0.6,0,0.9-0.3,0.9-0.8S16.9,19.5,16.3,19.5z"/>
</g>
</svg>
