<?xml version="1.0" encoding="utf-8"?>
<!-- Generator: Adobe Illustrator 22.0.1, SVG Export Plug-In . SVG Version: 6.00 Build 0)  -->
<svg version="1.1" id="图层_1" xmlns="http://www.w3.org/2000/svg" xmlns:xlink="http://www.w3.org/1999/xlink" x="0px" y="0px"
	 width="32px" height="32px" viewBox="0 0 32 32" style="enable-background:new 0 0 32 32;" xml:space="preserve">
<g id="图层_1_1_">
	<g>
		<path d="M14.4,14.9v0.7h1.3v0.2c0,0.4,0.1,0.7,0.4,1c0.2,0.2,0.5,0.4,0.9,0.4s0.6-0.1,0.8-0.3c0.2-0.2,0.3-0.5,0.3-0.9v-1h-3.7
			V14.9z M17.4,15.9c0,0.5-0.2,0.6-0.5,0.6c-0.2,0-0.3,0-0.4-0.1s-0.1-0.3-0.1-0.5v-0.2h1V15.9z"/>
		<path d="M14.4,12.1v0.7h1.4V13c0,0.1,0,0.1,0,0.2c0,0-0.1,0.1-0.3,0.2l-1.1,0.5v0.8l1.4-0.6c0.1,0,0.2-0.1,0.3-0.1
			c0.1,0.1,0.1,0.2,0.2,0.3c0.2,0.2,0.4,0.3,0.7,0.3c0.3,0,0.6-0.1,0.8-0.3c0.2-0.2,0.3-0.5,0.3-0.8v-1.1h-3.7V12.1z M17.4,13.2
			c0,0.2,0,0.3-0.1,0.4c0,0-0.1,0.1-0.3,0.1c-0.2,0-0.3,0-0.3-0.1c-0.1-0.1-0.1-0.2-0.1-0.4v-0.3h0.9v0.3H17.4z"/>
		<path d="M14.4,17.7v0.7h1.3v0.2c0,0.4,0.1,0.7,0.4,1c0.2,0.2,0.5,0.4,0.9,0.4s0.6-0.1,0.8-0.3c0.2-0.2,0.3-0.5,0.3-0.9v-1h-3.7
			V17.7z M17.4,18.7c0,0.5-0.2,0.6-0.5,0.6c-0.2,0-0.3,0-0.4-0.1s-0.1-0.3-0.1-0.5v-0.2h1V18.7z"/>
	</g>
	<path d="M22.3,1.7h-12c-1.1,0-2,0.9-2,2v24.9c0,1.1,0.9,2,2,2h12c1.1,0,2-0.9,2-2V3.7C24.3,2.6,23.4,1.7,22.3,1.7z M12.6,28.6
		c-0.6,0-1-0.4-1-1s0.4-1,1-1s1,0.4,1,1S13.1,28.6,12.6,28.6z M16.3,28.6c-0.6,0-1-0.4-1-1s0.4-1,1-1s1,0.4,1,1S16.8,28.6,16.3,28.6
		z M19.9,28.6c-0.6,0-1-0.4-1-1s0.4-1,1-1s1,0.4,1,1S20.5,28.6,19.9,28.6z M20.8,25.8h-9c-0.6,0-1-0.4-1-1s0.4-1,1-1h9
		c0.6,0,1,0.4,1,1S21.3,25.8,20.8,25.8z M11.8,22.1v-12h9v12H11.8z M20.8,8.9h-9c-0.6,0-1-0.4-1-1s0.4-1,1-1h9c0.6,0,1,0.4,1,1
		S21.3,8.9,20.8,8.9z M20.8,5.9h-9c-0.6,0-1-0.4-1-1s0.4-1,1-1h9c0.6,0,1,0.4,1,1C21.8,5.4,21.3,5.9,20.8,5.9z"/>
</g>
<g id="图层_2_1_">
</g>
</svg>
