<?xml version="1.0" encoding="utf-8"?>
<!-- Generator: Adobe Illustrator 22.0.0, SVG Export Plug-In . SVG Version: 6.00 Build 0)  -->
<svg version="1.1" id="图层_1" xmlns="http://www.w3.org/2000/svg" xmlns:xlink="http://www.w3.org/1999/xlink" x="0px" y="0px"
	 viewBox="0 0 117 36" enable-background="new 0 0 117 36" xml:space="preserve">
<g>
	<path fill="#666666" d="M14.5,20.9c-1.4-1.4-3.7-1.2-5.2,0.3L2,28.4c-1.5,1.5-1.7,3.9-0.3,5.2s3.7,1.2,5.2-0.3l7.2-7.2
		C15.7,24.6,15.8,22.2,14.5,20.9L14.5,20.9z"/>
	<path fill="#666666" d="M6.9,2.2C5.4,0.6,3,0.5,1.7,1.9S0.5,5.6,2,7.1l7.2,7.2c1.5,1.5,3.9,1.7,5.2,0.3v0c1.4-1.4,1.2-3.7-0.3-5.2
		L6.9,2.2z"/>
	<path fill="#666666" d="M34.2,28.4l-7.2-7.2c-1.5-1.5-3.9-1.7-5.2-0.3s-1.2,3.7,0.3,5.2l7.2,7.2c1.5,1.5,3.9,1.7,5.2,0.3
		C35.8,32.3,35.7,30,34.2,28.4z"/>
	<path fill="#666666" d="M26.9,14.3l7.2-7.2c1.5-1.5,1.7-3.9,0.3-5.2c-1.4-1.4-3.7-1.2-5.2,0.3L22,9.4c-1.5,1.5-1.7,3.9-0.3,5.2
		S25.4,15.9,26.9,14.3z"/>
</g>
<g>
	<path fill="#666666" d="M44.7,0.9h-0.2c-1.9,0-3.4,1.5-3.4,3.4v27c0,1.9,1.5,3.4,3.4,3.4h0.2c1.9,0,3.4-1.5,3.4-3.4v-27
		C48.1,2.4,46.6,0.9,44.7,0.9z"/>
	<path fill="#666666" d="M72.3,6.2C69.1,3,64.7,1,59.8,1h-6c-0.1,0-0.1,0-0.1,0c0,0-0.1,0-0.1,0c-1.1,0.1-2.1,0.8-2.5,1.8
		c-0.1,0.3-0.2,0.7-0.2,1.1S50.9,4.6,51,5c0.4,1,1.4,1.8,2.6,1.8h6.9c6.1,0,11.3,4.9,11.2,11c0,6.6-5.4,10.8-12,10.8h-6
		c-0.1,0-0.1,0-0.1,0c0,0-0.1,0-0.1,0c-1.1,0.1-2.1,0.8-2.5,1.8c-0.1,0.3-0.2,0.7-0.2,1.1c0,0.4,0.1,0.7,0.2,1.1
		c0.4,1,1.4,1.8,2.6,1.8h8.4c8.5,0,15.4-6.9,15.4-15.4C77.5,13.9,75.5,9.4,72.3,6.2z"/>
</g>
<g>
	<path fill="#666666" d="M113.6,29c0,0-0.1,0-0.1,0c-0.1,0-0.1,0-0.2,0H101c-6.2,0-11.3-3.7-12.1-9.5H83c0.2,8.5,7.2,15.3,15.7,15.3
		h14.8c1.2,0,2.2-0.7,2.7-1.8c0.1-0.3,0.2-0.7,0.2-1.1c0-0.4-0.1-0.8-0.2-1.1C115.8,29.8,114.8,29,113.6,29z"/>
	<path fill="#666666" d="M100.2,6.8h13.3c1.2,0,2.2-0.7,2.7-1.8c0.1-0.3,0.2-0.7,0.2-1.1s-0.1-0.8-0.2-1.1c-0.4-1-1.4-1.7-2.5-1.8
		c0,0-0.1,0-0.1,0c-0.1,0-0.1,0-0.2,0H101c-5,0-9.5,2-12.8,5.3c-2.7,2.7-4.5,6.1-5.1,10h5.7C89.7,10.9,94.6,6.8,100.2,6.8z"/>
</g>
</svg>
