<svg id="图层_1" data-name="图层 1" xmlns="http://www.w3.org/2000/svg" viewBox="0 0 48 48"><defs><style>.cls-1{fill:#ff3939;}</style></defs><title>补充图标</title><path class="cls-1" d="M24,0A24,24,0,1,0,48,24,24,24,0,0,0,24,0Zm0,46A22,22,0,1,1,46,24,22,22,0,0,1,24,46Z"/><path class="cls-1" d="M25.68,8.73a.94.94,0,0,0-.7-.31,1,1,0,0,0-.69.29L9.71,23.29c-.39.39-.26.71.29.71h4a1,1,0,0,1,1,1V36a1,1,0,0,0,1,1h5a1,1,0,0,0,1-1V30a1,1,0,0,1,1-1h3a1,1,0,0,1,1,1v6a1,1,0,0,0,1,1h5a1,1,0,0,0,1-1V25a1,1,0,0,1,1-1h4c.55,0,.69-.33.32-.73ZM35,22a3,3,0,0,0-3,3V35H29V30a3,3,0,0,0-3-3H23a3,3,0,0,0-3,3v5H17V25a3,3,0,0,0-3-3h-.17L25,10.87,35.38,22Z"/></svg>