<svg id="图层_1" data-name="图层 1" xmlns="http://www.w3.org/2000/svg" viewBox="0 0 48 48"><defs><style>.cls-1{fill:#1687d3;}</style></defs><title>补充图标</title><path class="cls-1" d="M22.8,20.4H7.2V18H22.8a3.6,3.6,0,0,0,0-7.2H19.2V8.4h3.6a6,6,0,1,1,0,12Z"/><path class="cls-1" d="M34.8,25.2H26.4V22.8h8.4a3.6,3.6,0,0,0,0-7.2H31.2V13.2h3.6a6,6,0,0,1,0,12Z"/><path class="cls-1" d="M34.8,27.6H14.4V30H34.8a3.6,3.6,0,0,1,0,7.2H31.2v2.4h3.6a6,6,0,0,0,0-12Z"/><rect class="cls-1" x="9.6" y="13.2" width="9.6" height="2.4"/></svg>