<svg id="图层_1" data-name="图层 1" xmlns="http://www.w3.org/2000/svg" viewBox="0 0 48 48"><defs><style>.cls-1{fill:#ff3939;}</style></defs><title>补充图标</title><path class="cls-1" d="M24,0A24,24,0,1,0,48,24,24,24,0,0,0,24,0Zm0,46A22,22,0,1,1,46,24,22,22,0,0,1,24,46Z"/><path class="cls-1" d="M25.53,24.81l.25,0a5,5,0,0,0,2.71-5.71.8.8,0,0,0-.6-.37.93.93,0,0,0-.68.43,4,4,0,0,1-2.33,4.48S24.37,24.81,25.53,24.81Z"/><path class="cls-1" d="M20.22,26.59a7.27,7.27,0,0,0,3.71,1,8.23,8.23,0,0,0,3.7-.9h0A6.6,6.6,0,0,0,30.1,24.5c1-1.39,1.82-3.8.48-7.33a22.93,22.93,0,0,0-4.94-7.59A2.29,2.29,0,0,0,24,8.77a2.08,2.08,0,0,0-1.71.93A50.52,50.52,0,0,0,17.42,17v0C16.46,19.27,15.85,24.06,20.22,26.59Zm-1.44-8.92a49.46,49.46,0,0,1,4.67-7.08.62.62,0,0,1,.5-.32.86.86,0,0,1,.57.31,21,21,0,0,1,4.64,7.09C31.33,23.35,27,25.33,27,25.33a6.9,6.9,0,0,1-3,.74A5.72,5.72,0,0,1,21,25.3C16.58,22.78,18.78,17.67,18.78,17.67Z"/><path class="cls-1" d="M31.74,30.69A4.43,4.43,0,0,1,30,30.38a6.27,6.27,0,0,0-4.3,0,4.47,4.47,0,0,1-1.72.31,4.39,4.39,0,0,1-1.72-.31A5.57,5.57,0,0,0,20.13,30a5.57,5.57,0,0,0-2.15.38,4.47,4.47,0,0,1-1.72.31,4.47,4.47,0,0,1-1.72-.31A5.57,5.57,0,0,0,12.39,30v1.31a4.47,4.47,0,0,1,1.72.31,5.57,5.57,0,0,0,2.15.38,5.57,5.57,0,0,0,2.15-.38,4.93,4.93,0,0,1,3.44,0A5.57,5.57,0,0,0,24,32a5.57,5.57,0,0,0,2.15-.38,4.93,4.93,0,0,1,3.44,0,6.27,6.27,0,0,0,4.3,0,4.47,4.47,0,0,1,1.72-.31V30a5.57,5.57,0,0,0-2.15.38A4.47,4.47,0,0,1,31.74,30.69Z"/><path class="cls-1" d="M31.74,33.69A4.43,4.43,0,0,1,30,33.38a6.27,6.27,0,0,0-4.3,0,4.47,4.47,0,0,1-1.72.31,4.39,4.39,0,0,1-1.72-.31A5.57,5.57,0,0,0,20.13,33a5.57,5.57,0,0,0-2.15.38,4.47,4.47,0,0,1-1.72.31,4.47,4.47,0,0,1-1.72-.31A5.57,5.57,0,0,0,12.39,33v1.31a4.47,4.47,0,0,1,1.72.31,5.57,5.57,0,0,0,2.15.38,5.57,5.57,0,0,0,2.15-.38,4.93,4.93,0,0,1,3.44,0A5.57,5.57,0,0,0,24,35a5.57,5.57,0,0,0,2.15-.38,4.93,4.93,0,0,1,3.44,0,6.27,6.27,0,0,0,4.3,0,4.47,4.47,0,0,1,1.72-.31V33a5.57,5.57,0,0,0-2.15.38A4.47,4.47,0,0,1,31.74,33.69Z"/></svg>