<svg id="图层_1" data-name="图层 1" xmlns="http://www.w3.org/2000/svg" viewBox="0 0 48 48"><defs><style>.cls-1{fill:#1687d3;}</style></defs><title>补充图标</title><path class="cls-1" d="M36.8,6.12H11.2a4,4,0,0,0-4,4v24.4a4,4,0,0,0,4,4h3.29a2.05,2.05,0,0,0-.09.56v.8a2,2,0,0,0,2,2H31.6a2,2,0,0,0,2-2v-.8a2.05,2.05,0,0,0-.09-.56H36.8a4,4,0,0,0,4-4V10.12A4,4,0,0,0,36.8,6.12Zm3,28.4a3,3,0,0,1-3,3h-4a2,2,0,0,0-1.24-.44H16.4a2,2,0,0,0-1.24.44h-4a3,3,0,0,1-3-3V10.12a3,3,0,0,1,3-3H36.8a3,3,0,0,1,3,3Z"/><polygon class="cls-1" points="30.22 26.24 26.16 13.03 24.23 13.08 20.26 28.95 17.75 21.4 15.9 21.27 11.86 29.37 13.65 30.26 16.61 24.33 19.45 32.84 21.37 32.76 25.3 17.05 29.04 29.21 30.89 29.37 36.14 18.87 34.35 17.98 30.22 26.24"/></svg>