<svg id="图层_1" data-name="图层 1" xmlns="http://www.w3.org/2000/svg" viewBox="0 0 24 24"><defs><style>.cls-1{fill:#c661c9;}</style></defs><title>补充图标</title><path class="cls-1" d="M14,14.26V4A2.5,2.5,0,0,0,9,4V14.26a4.5,4.5,0,1,0,5,0ZM11.5,21.5A3.49,3.49,0,0,1,10,14.85V4a1.5,1.5,0,0,1,3,0V14.85a3.49,3.49,0,0,1-1.5,6.65Z"/><path class="cls-1" d="M12,15.55V7a.5.5,0,0,0-1,0v8.55a2.5,2.5,0,1,0,1,0Z"/><rect class="cls-1" x="15" y="3.5" width="2" height="1"/><rect class="cls-1" x="15" y="6.5" width="2" height="1"/><rect class="cls-1" x="15" y="9.5" width="2" height="1"/><rect class="cls-1" x="15" y="12.5" width="2" height="1"/></svg>