<svg id="图层_1" data-name="图层 1" xmlns="http://www.w3.org/2000/svg" viewBox="0 0 32 32"><defs><style>.cls-1{fill:#c661c9;}</style></defs><title>补充图标</title><g id="_编组_" data-name="&lt;编组&gt;"><path class="cls-1" d="M18.05,6.67h0m-1.32,4c.33,3.75.95,4.37,1.36,4.77a1.79,1.79,0,0,0,.52.38,2.86,2.86,0,0,0,1.26.31,2.6,2.6,0,0,0,2.06-1A32.56,32.56,0,0,1,22.5,19c0,3-2.16,6-7,6a5.7,5.7,0,0,1-6-5.61,23.81,23.81,0,0,1,1-2.52V17a2,2,0,0,0,1.68,2,1.73,1.73,0,0,0,.32,0,2,2,0,0,0,1.9-1.37l2.33-7M17.6,5a1.53,1.53,0,0,0-1.45,1L12.5,17V10h-1s-4,8.17-4,9.25c0,5,4,7.75,8,7.75,6,0,9-4,9-8,0-2.05-2-11-2-11h-1s0,6.1-1.63,6.1a.79.79,0,0,1-.37-.1c-.79-.79-1-6-1-8.1A.92.92,0,0,0,17.6,5Z"/></g></svg>