<svg id="图层_1" data-name="图层 1" xmlns="http://www.w3.org/2000/svg" viewBox="0 0 32 32"><defs><style>.cls-1{fill:#c661c9;}</style></defs><title>补充图标</title><path class="cls-1" d="M29.28,16.74,26,13.55V8.25a.45.45,0,0,0-.45-.44h-3.1a.45.45,0,0,0-.45.44v1.4L16.68,4.47a1,1,0,0,0-1.36,0L2.72,16.74a1,1,0,0,0,1.36,1.4L15.32,7.2a1,1,0,0,1,1.36,0L27.92,18.14a1,1,0,0,0,1.36-1.4Z"/><path class="cls-1" d="M16.87,10.59a1.31,1.31,0,0,0-1.74,0l-8.7,7.83a1.33,1.33,0,0,0-.43,1V26.5a1.31,1.31,0,0,0,1.3,1.31h5.4A1.31,1.31,0,0,0,14,26.5V22.11a1.3,1.3,0,0,1,1.3-1.3h1.4a1.3,1.3,0,0,1,1.3,1.3V26.5a1.31,1.31,0,0,0,1.3,1.31h5.4A1.31,1.31,0,0,0,26,26.5V19.39a1.33,1.33,0,0,0-.43-1Z"/></svg>