<?xml version="1.0" encoding="utf-8"?>
<!-- Generator: Adobe Illustrator 15.0.0, SVG Export Plug-In . SVG Version: 6.00 Build 0)  -->
<!DOCTYPE svg PUBLIC "-//W3C//DTD SVG 1.1//EN" "http://www.w3.org/Graphics/SVG/1.1/DTD/svg11.dtd">
<svg version="1.1" id="图层_1" xmlns="http://www.w3.org/2000/svg" xmlns:xlink="http://www.w3.org/1999/xlink" x="0px" y="0px"
	 width="18px" height="18px" viewBox="0 0 18 18" enable-background="new 0 0 18 18" xml:space="preserve">
<path fill-rule="evenodd" clip-rule="evenodd" fill="#FFFFFF" d="M18.041,12.651h-1.555v0.473h0.608
	c-0.076,0.303-0.304,0.543-0.734,0.543c-0.548,0-0.89-0.321-0.89-0.799s0.342-0.799,0.89-0.799c0.314,0,0.521,0.119,0.639,0.305
	h0.969c-0.201-0.506-0.745-0.8-1.607-0.8c-0.979,0-1.546,0.378-1.67,1.015v-0.956h-0.813v1.688l-1.137-1.688h-1.143v1.018
	c-0.101-0.664-0.669-1.06-1.667-1.06c-0.554,0-0.976,0.121-1.258,0.343v-0.301H5.2v1.431c0,0.327-0.12,0.605-0.577,0.605
	c-0.458,0-0.578-0.278-0.578-0.605v-1.431H2.283l-0.65,0.89l-0.66-0.89h-1.03l1.243,1.549v0.936h0.896v-0.936l1.068-1.343v1.335
	c0,0.679,0.597,0.986,1.473,0.986c0.876,0,1.473-0.308,1.473-0.986v-1.051H6.77v1.994h0.896v-1.994h0.818
	c-0.157,0.202-0.237,0.456-0.237,0.752c0,0.791,0.587,1.285,1.685,1.285c0.991,0,1.565-0.403,1.667-1.063v1.021h0.809V12.42
	l1.171,1.697h1.112v-0.974c0.124,0.633,0.699,1.019,1.67,1.019c1.104,0,1.696-0.499,1.696-1.294
	C18.057,12.793,18.052,12.722,18.041,12.651 M10.695,12.877c0,0.435-0.344,0.786-0.765,0.786c-0.422,0-0.764-0.352-0.764-0.786
	v-0.014c0-0.435,0.342-0.785,0.764-0.785c0.421,0,0.765,0.351,0.765,0.785V12.877z"/>
<path fill="#FFFFFF" d="M9.117,5.49c2.911,0,5.318,2.152,5.72,4.952c0.037-0.27,0.059-0.544,0.059-0.825
	c0-3.191-2.586-5.778-5.778-5.778c-3.191,0-5.777,2.586-5.777,5.778c0,0.281,0.021,0.556,0.059,0.825
	C3.8,7.642,6.207,5.49,9.117,5.49"/>
<path fill="#FFFFFF" d="M9.118,7.318c1.836,0,3.353,1.358,3.607,3.123c0.023-0.17,0.037-0.344,0.037-0.521
	c0-2.013-1.632-3.644-3.644-3.644c-2.013,0-3.645,1.631-3.645,3.644c0,0.177,0.013,0.351,0.038,0.521
	C5.763,8.676,7.282,7.318,9.118,7.318"/>
<path fill="#FFFFFF" d="M9.118,8.625c1.067,0,1.952,0.79,2.098,1.816c0.013-0.099,0.022-0.198,0.022-0.303
	c0-1.17-0.95-2.119-2.121-2.119s-2.12,0.948-2.12,2.119c0,0.104,0.008,0.204,0.022,0.303C7.167,9.415,8.05,8.625,9.118,8.625"/>
</svg>
