<?xml version="1.0" encoding="utf-8"?>
<!-- Generator: Adobe Illustrator 16.0.0, SVG Export Plug-In . SVG Version: 6.00 Build 0)  -->
<!DOCTYPE svg PUBLIC "-//W3C//DTD SVG 1.1//EN" "http://www.w3.org/Graphics/SVG/1.1/DTD/svg11.dtd">
<svg version="1.1" id="图层_1" xmlns="http://www.w3.org/2000/svg" xmlns:xlink="http://www.w3.org/1999/xlink" x="0px" y="0px"
	 width="30px" height="30px" viewBox="0 0 30 30" enable-background="new 0 0 30 30" xml:space="preserve">
<g id="图层_1_1_">
	<g>
		<g>
			<path fill="#349BE3" d="M29,26.5c0,1.934-1.566,3.5-3.5,3.5h-22C1.567,30,0,28.434,0,26.5v-22C0,2.567,1.567,1,3.5,1h22
				C27.434,1,29,2.567,29,4.5V26.5z"/>
			<g>
				<path fill="#057CDD" d="M26,1c1.654,0,3,1.346,3,3v22c0,1.654-1.346,3-3,3H4c-1.654,0-3-1.346-3-3V4c0-1.654,1.346-3,3-3H26
					 M26,0H4C1.791,0,0,1.791,0,4v22c0,2.209,1.791,4,4,4h22c2.209,0,4-1.791,4-4V4C30,1.791,28.209,0,26,0L26,0z"/>
			</g>
		</g>
	</g>
	<path fill="#FFFFFF" d="M26,17c0-4.331-2.91-8-7-8H7l2.913-2.755c0.344-0.344,0.344-0.894,0-1.237
		c-0.344-0.343-0.894-0.344-1.237,0l-4.366,4.4c-0.344,0.344-0.344,0.894,0,1.238l4.366,4.365l0.034,0.034
		c0.344,0.344,0.894,0.31,1.237-0.034c0.343-0.344,0.31-0.894-0.034-1.237L7,11h12c3.094,0,5,2.666,5,6l0,0c0,3.197-1.805,5-5,5h-9
		c-0.516,0-1,0.52-1,1c0,0.516,0.519,1,1,1h9C23.159,24,26,21.159,26,17L26,17z"/>
</g>
<g id="图层_2">
</g>
</svg>
