<?xml version="1.0" encoding="utf-8"?>
<!-- Generator: Adobe Illustrator 16.0.0, SVG Export Plug-In . SVG Version: 6.00 Build 0)  -->
<!DOCTYPE svg PUBLIC "-//W3C//DTD SVG 1.1//EN" "http://www.w3.org/Graphics/SVG/1.1/DTD/svg11.dtd">
<svg version="1.1" xmlns="http://www.w3.org/2000/svg" xmlns:xlink="http://www.w3.org/1999/xlink" x="0px" y="0px" width="30px"
	 height="30px" viewBox="0 0 30 30" enable-background="new 0 0 30 30" xml:space="preserve">
<g id="图层_1">
	<g>
		<g>
			<path fill="#349BE3" d="M29,26.5c0,1.933-1.567,3.5-3.5,3.5h-22C1.567,30,0,28.433,0,26.5v-22C0,2.567,1.567,1,3.5,1h22
				C27.433,1,29,2.567,29,4.5V26.5z"/>
			<g>
				<path fill="#057CDD" d="M26,1c1.654,0,3,1.346,3,3v22c0,1.654-1.346,3-3,3H4c-1.654,0-3-1.346-3-3V4c0-1.654,1.346-3,3-3H26
					 M26,0H4C1.791,0,0,1.791,0,4v22c0,2.209,1.791,4,4,4h22c2.209,0,4-1.791,4-4V4C30,1.791,28.209,0,26,0L26,0z"/>
			</g>
		</g>
	</g>
	<g>
		<rect x="-47" y="-29" opacity="0" width="268" height="30"/>
	</g>
	<g>
		<path fill="#FFFFFF" d="M20.719,7.661l2.6,1.733L11.151,23.183L6.09,18.755l1.409-1.761l1.42,1.42l1.548,1.549l1.402-1.683
			L20.719,7.661 M20.333,5l-10,12l-3-3l-4,5l8,7l15-17L20.333,5L20.333,5z"/>
	</g>
	<line fill="none" stroke="#FFFFFF" stroke-width="2" stroke-miterlimit="10" x1="11.333" y1="8" x2="24.333" y2="21"/>
</g>
<g id="图层_2">
</g>
</svg>
