<?xml version="1.0" encoding="utf-8"?>
<!-- Generator: Adobe Illustrator 16.0.0, SVG Export Plug-In . SVG Version: 6.00 Build 0)  -->
<!DOCTYPE svg PUBLIC "-//W3C//DTD SVG 1.1//EN" "http://www.w3.org/Graphics/SVG/1.1/DTD/svg11.dtd">
<svg version="1.1" xmlns="http://www.w3.org/2000/svg" xmlns:xlink="http://www.w3.org/1999/xlink" x="0px" y="0px" width="30px"
	 height="30px" viewBox="0 0 30 30" enable-background="new 0 0 30 30" xml:space="preserve">
<g id="图层_1">
	<g>
		<path fill="#349BE3" d="M29,26.5c0,1.933-1.567,3.5-3.5,3.5h-22C1.567,30,0,28.433,0,26.5v-22C0,2.567,1.567,1,3.5,1h22
			C27.433,1,29,2.567,29,4.5V26.5z"/>
		<g>
			<path fill="#057CDD" d="M26,1c1.654,0,3,1.346,3,3v22c0,1.654-1.346,3-3,3H4c-1.654,0-3-1.346-3-3V4c0-1.654,1.346-3,3-3H26
				 M26,0H4C1.791,0,0,1.791,0,4v22c0,2.209,1.791,4,4,4h22c2.209,0,4-1.791,4-4V4C30,1.791,28.209,0,26,0L26,0z"/>
		</g>
	</g>
	<g>
		<g>
			<g>
				<rect x="16" y="12" fill="#FFFFFF" width="10" height="2"/>
			</g>
		</g>
		<g>
			<g>
				<rect x="4" y="12" fill="#FFFFFF" width="10" height="2"/>
			</g>
			<g>
				<rect x="4" y="17" fill="#FFFFFF" width="10" height="2"/>
			</g>
			<g>
				<rect x="16" y="17" fill="#FFFFFF" width="10" height="2"/>
			</g>
		</g>
	</g>
</g>
<g id="图层_2">
</g>
</svg>
