<?xml version="1.0" encoding="utf-8"?>
<!-- Generator: Adobe Illustrator 16.0.0, SVG Export Plug-In . SVG Version: 6.00 Build 0)  -->
<!DOCTYPE svg PUBLIC "-//W3C//DTD SVG 1.1//EN" "http://www.w3.org/Graphics/SVG/1.1/DTD/svg11.dtd">
<svg version="1.1" xmlns="http://www.w3.org/2000/svg" xmlns:xlink="http://www.w3.org/1999/xlink" x="0px" y="0px" width="30px"
	 height="30px" viewBox="0 0 30 30" enable-background="new 0 0 30 30" xml:space="preserve">
<g id="图层_1">
	<g>
		<g>
			<g>
				<g>
					<path fill="#349BE3" d="M29,26.5c0,1.933-1.567,3.5-3.5,3.5h-22C1.567,30,0,28.433,0,26.5v-22C0,2.567,1.567,1,3.5,1h22
						C27.433,1,29,2.567,29,4.5V26.5z"/>
					<g>
						<path fill="#057CDD" d="M26,1c1.654,0,3,1.346,3,3v22c0,1.654-1.346,3-3,3H4c-1.654,0-3-1.346-3-3V4c0-1.654,1.346-3,3-3H26
							 M26,0H4C1.791,0,0,1.791,0,4v22c0,2.209,1.791,4,4,4h22c2.209,0,4-1.791,4-4V4C30,1.791,28.209,0,26,0L26,0z"/>
					</g>
				</g>
			</g>
		</g>
		<path fill="#FFFFFF" d="M16,14c0,0.553-0.448,1-1,1l0,0c-0.552,0-1-0.447-1-1V9c0-0.553,0.448-1,1-1l0,0c0.552,0,1,0.447,1,1V14z"
			/>
		<path fill="#FFFFFF" d="M16,15c0,0.553-0.448,1-1,1H9c-0.552,0-1-0.447-1-1l0,0c0-0.553,0.448-1,1-1h6C15.552,14,16,14.447,16,15
			L16,15z"/>
		<path fill="#FFFFFF" d="M18,23.652c-0.941,0.328-1.948,0.515-3,0.515c-5.055,0-9.167-4.112-9.167-9.167S9.945,5.833,15,5.833
			S24.167,9.945,24.167,15c0,0.338-0.021,0.671-0.057,1h1.84c0.03-0.33,0.05-0.662,0.05-1c0-6.076-4.925-11-11-11
			C8.924,4,4,8.924,4,15s4.924,11,11,11c1.042,0,2.045-0.154,3-0.425V23.652z"/>
		<path fill="#FFFFFF" d="M23,17c-2.209,0-4,1.791-4,4s1.791,4,4,4c2.209,0,4-1.791,4-4S25.209,17,23,17z M24,24h-2v-1h2V24z M24,22
			h-2v-4h2V22z"/>
	</g>
</g>
<g id="图层_2">
</g>
</svg>
