<?xml version="1.0" encoding="utf-8"?>
<!-- Generator: Adobe Illustrator 16.0.0, SVG Export Plug-In . SVG Version: 6.00 Build 0)  -->
<!DOCTYPE svg PUBLIC "-//W3C//DTD SVG 1.1//EN" "http://www.w3.org/Graphics/SVG/1.1/DTD/svg11.dtd">
<svg version="1.1" xmlns="http://www.w3.org/2000/svg" xmlns:xlink="http://www.w3.org/1999/xlink" x="0px" y="0px" width="50px"
	 height="30px" viewBox="0 0 50 30" enable-background="new 0 0 50 30" xml:space="preserve">
<g id="图层_1">
	<g>
		<path fill="#349BE3" d="M49,26.5c0,1.933-1.567,3.5-3.5,3.5h-42C1.567,30,0,28.433,0,26.5v-22C0,2.567,1.567,1,3.5,1h42
			C47.433,1,49,2.567,49,4.5V26.5z"/>
		<g>
			<path fill="#057CDD" d="M46,1c1.654,0,3,1.346,3,3v22c0,1.654-1.346,3-3,3H4c-1.654,0-3-1.346-3-3V4c0-1.654,1.346-3,3-3H46
				 M46,0H4C1.791,0,0,1.791,0,4v22c0,2.209,1.791,4,4,4h42c2.209,0,4-1.791,4-4V4C50,1.791,48.209,0,46,0L46,0z"/>
		</g>
	</g>
	<path fill="#FCFCFC" d="M15,23v-5h25v-2H7L15,23z M35,6v5H10v2h33L35,6z"/>
</g>
<g id="图层_2">
</g>
</svg>
