<?xml version="1.0" encoding="utf-8"?>
<!-- Generator: Adobe Illustrator 16.0.0, SVG Export Plug-In . SVG Version: 6.00 Build 0)  -->
<!DOCTYPE svg PUBLIC "-//W3C//DTD SVG 1.1//EN" "http://www.w3.org/Graphics/SVG/1.1/DTD/svg11.dtd">
<svg version="1.1" xmlns="http://www.w3.org/2000/svg" xmlns:xlink="http://www.w3.org/1999/xlink" x="0px" y="0px" width="30px"
	 height="30px" viewBox="0 0 30 30" enable-background="new 0 0 30 30" xml:space="preserve">
<g id="图层_1">
	<g>
		<g>
			<path fill="#349BE3" d="M29,26.5c0,1.933-1.567,3.5-3.5,3.5h-22C1.567,30,0,28.433,0,26.5v-22C0,2.567,1.567,1,3.5,1h22
				C27.433,1,29,2.567,29,4.5V26.5z"/>
			<g>
				<path fill="#057CDD" d="M26,1c1.654,0,3,1.346,3,3v22c0,1.654-1.346,3-3,3H4c-1.654,0-3-1.346-3-3V4c0-1.654,1.346-3,3-3H26
					 M26,0H4C1.791,0,0,1.791,0,4v22c0,2.209,1.791,4,4,4h22c2.209,0,4-1.791,4-4V4C30,1.791,28.209,0,26,0L26,0z"/>
			</g>
		</g>
		<path fill="#FFFFFF" d="M15.333,13.2c0.993,0,1.8,0.807,1.8,1.8s-0.807,1.8-1.8,1.8s-1.8-0.807-1.8-1.8S14.34,13.2,15.333,13.2
			 M15.333,12c-1.657,0-3,1.343-3,3s1.343,3,3,3s3-1.343,3-3S16.99,12,15.333,12L15.333,12z"/>
		<path fill="#FFFFFF" d="M12.159,7.579c0.167,0.188,0.351,0.366,0.552,0.533c0.709,0.591,1.589,0.903,2.544,0.903
			c0.918,0,1.785-0.277,2.507-0.802c0.182-0.132,0.351-0.275,0.506-0.427c-0.001,0.233,0.018,0.466,0.056,0.699
			c0.133,0.878,0.528,1.655,1.184,2.32c0.685,0.685,1.563,1.083,2.539,1.151c0.124,0.009,0.246,0.013,0.367,0.013
			c0.049,0,0.099-0.001,0.148-0.002c-0.135,0.132-0.264,0.275-0.386,0.427c-0.594,0.743-0.908,1.64-0.908,2.594
			c0,0.908,0.269,1.757,0.776,2.455c0.168,0.232,0.356,0.444,0.561,0.633c-0.07-0.003-0.139-0.005-0.208-0.005
			c-0.158,0-0.316,0.008-0.432,0.022c-0.351,0.032-0.717,0.108-1.088,0.226c-0.541,0.171-1.018,0.473-1.41,0.888
			c-0.651,0.68-1.035,1.478-1.141,2.37c-0.024,0.2-0.035,0.399-0.034,0.595c-0.109-0.112-0.225-0.22-0.347-0.324
			c-0.742-0.626-1.644-0.957-2.61-0.957c-0.947,0-1.843,0.326-2.578,0.93c-0.265,0.214-0.5,0.448-0.706,0.699
			c0.037-0.301,0.04-0.609,0.011-0.92c-0.072-0.859-0.439-1.672-1.075-2.367c-0.47-0.504-1.074-0.852-1.75-1.007
			c-0.375-0.085-0.75-0.129-1.112-0.129c-0.063,0-0.126,0.001-0.182,0.003c0.18-0.158,0.352-0.331,0.516-0.519
			c0.66-0.755,1.009-1.667,1.009-2.637c0-1.011-0.364-1.936-1.053-2.674c-0.12-0.129-0.244-0.251-0.372-0.366
			c0.205-0.001,0.413-0.017,0.614-0.045c0.879-0.122,1.664-0.504,2.334-1.137l0.021-0.02l0.02-0.021
			c0.396-0.396,0.688-0.882,0.865-1.436c0.126-0.391,0.207-0.791,0.24-1.188C12.151,7.894,12.158,7.734,12.159,7.579 M18.046,4.989
			c-0.13,0-0.255,0.065-0.375,0.185c-0.125,0.12-0.215,0.24-0.27,0.355c-0.155,0.431-0.43,0.786-0.815,1.065
			c-0.385,0.28-0.831,0.42-1.331,0.42c-0.485,0-0.91-0.145-1.265-0.44c-0.355-0.295-0.615-0.635-0.771-1.02
			c-0.045-0.13-0.12-0.255-0.225-0.375c-0.11-0.125-0.255-0.186-0.44-0.186c-0.145,0-0.335,0.025-0.58,0.076
			c-0.24,0.049-0.495,0.125-0.75,0.225c-0.26,0.1-0.5,0.225-0.72,0.375c-0.22,0.15-0.375,0.325-0.46,0.525
			c-0.04,0.085-0.05,0.185-0.03,0.3c0.02,0.115,0.045,0.215,0.075,0.3c0.015,0.085,0.035,0.23,0.055,0.43
			c0.02,0.2,0.02,0.425,0,0.665s-0.07,0.49-0.15,0.74C9.915,8.88,9.79,9.095,9.619,9.266c-0.36,0.34-0.77,0.545-1.235,0.61
			C8.257,9.894,8.131,9.902,8.007,9.902c-0.33,0-0.651-0.063-0.964-0.187c-0.13-0.04-0.25-0.07-0.355-0.084
			C6.67,9.628,6.653,9.627,6.634,9.627c-0.088,0-0.18,0.03-0.276,0.088c-0.14,0.085-0.275,0.215-0.395,0.396s-0.225,0.375-0.32,0.59
			c-0.095,0.215-0.17,0.435-0.225,0.665c-0.055,0.23-0.085,0.44-0.085,0.625c0,0.17,0.045,0.34,0.13,0.505
			c0.085,0.165,0.19,0.265,0.32,0.31c0.43,0.17,0.825,0.455,1.17,0.825s0.515,0.81,0.515,1.31c0,0.485-0.17,0.926-0.515,1.321
			s-0.73,0.68-1.16,0.85c-0.245,0.085-0.385,0.285-0.43,0.601c-0.025,0.169-0.01,0.39,0.045,0.655
			c0.055,0.265,0.14,0.525,0.245,0.775c0.11,0.25,0.23,0.475,0.365,0.685c0.135,0.206,0.285,0.34,0.44,0.396
			c0.119,0.054,0.239,0.079,0.358,0.079c0.081,0,0.162-0.011,0.242-0.033c0.31-0.101,0.62-0.156,0.92-0.17
			c0.048-0.003,0.097-0.004,0.146-0.004c0.212,0,0.437,0.026,0.668,0.079c0.285,0.065,0.53,0.206,0.73,0.42
			c0.325,0.355,0.51,0.75,0.545,1.17c0.04,0.425-0.025,0.8-0.18,1.13c-0.115,0.245-0.166,0.435-0.16,0.57
			c0.01,0.135,0.05,0.255,0.12,0.355c0.101,0.145,0.25,0.285,0.45,0.43c0.2,0.14,0.425,0.27,0.675,0.375
			c0.25,0.11,0.5,0.2,0.75,0.27C11.975,24.965,12.2,25,12.4,25c0.17,0,0.325-0.04,0.47-0.12c0.14-0.081,0.25-0.206,0.32-0.375
			c0.155-0.43,0.43-0.811,0.825-1.13c0.395-0.325,0.835-0.485,1.32-0.485c0.5,0,0.94,0.165,1.32,0.485
			c0.38,0.325,0.651,0.705,0.806,1.15h0.02c0.04,0.11,0.12,0.22,0.235,0.32c0.115,0.1,0.235,0.15,0.365,0.15
			c0.185,0,0.405-0.03,0.646-0.085c0.24-0.055,0.475-0.135,0.695-0.235s0.425-0.215,0.61-0.335c0.19-0.12,0.325-0.24,0.41-0.355
			c0.185-0.286,0.21-0.576,0.065-0.861c-0.19-0.415-0.25-0.85-0.195-1.31c0.055-0.46,0.255-0.865,0.6-1.225
			c0.161-0.17,0.35-0.295,0.57-0.365s0.445-0.12,0.665-0.14c0.083-0.009,0.167-0.014,0.25-0.014c0.137,0,0.272,0.012,0.406,0.034
			c0.215,0.04,0.39,0.075,0.535,0.12c0.16,0.055,0.3,0.085,0.431,0.085c0.13,0,0.28-0.045,0.45-0.13
			c0.17-0.084,0.325-0.229,0.47-0.43c0.145-0.201,0.265-0.425,0.365-0.675c0.1-0.25,0.175-0.495,0.215-0.74s0.05-0.455,0.02-0.625
			c-0.06-0.205-0.165-0.37-0.331-0.485c-0.07-0.056-0.155-0.115-0.255-0.17c-0.43-0.16-0.775-0.42-1.04-0.785
			c-0.265-0.365-0.395-0.795-0.395-1.281c0-0.505,0.155-0.95,0.47-1.345c0.315-0.39,0.69-0.666,1.135-0.826
			c0.11-0.045,0.22-0.135,0.33-0.27c0.11-0.135,0.15-0.325,0.12-0.57c-0.055-0.416-0.165-0.826-0.33-1.236
			c-0.165-0.41-0.355-0.715-0.57-0.915c-0.115-0.115-0.255-0.18-0.419-0.195c-0.028-0.002-0.055-0.004-0.082-0.004
			c-0.13,0-0.243,0.03-0.338,0.088c-0.365,0.17-0.754,0.253-1.169,0.253c-0.075,0-0.15-0.003-0.227-0.008
			c-0.5-0.035-0.92-0.225-1.265-0.57c-0.34-0.345-0.55-0.745-0.62-1.206c-0.075-0.46-0.015-0.895,0.17-1.31
			c0.03-0.055,0.055-0.155,0.085-0.29s0.005-0.26-0.065-0.375c-0.115-0.186-0.265-0.36-0.46-0.515
			C19.837,5.54,19.627,5.41,19.397,5.31c-0.225-0.1-0.46-0.18-0.695-0.235C18.467,5.02,18.247,4.989,18.046,4.989L18.046,4.989z"/>
	</g>
</g>
<g id="图层_2">
</g>
</svg>
