<?xml version="1.0" encoding="utf-8"?>
<!-- Generator: Adobe Illustrator 16.0.0, SVG Export Plug-In . SVG Version: 6.00 Build 0)  -->
<!DOCTYPE svg PUBLIC "-//W3C//DTD SVG 1.1//EN" "http://www.w3.org/Graphics/SVG/1.1/DTD/svg11.dtd">
<svg version="1.1" xmlns="http://www.w3.org/2000/svg" xmlns:xlink="http://www.w3.org/1999/xlink" x="0px" y="0px" width="30px"
	 height="30px" viewBox="0 0 30 30" enable-background="new 0 0 30 30" xml:space="preserve">
<g id="图层_1">
	<g>
		<g>
			<path fill="#349BE3" d="M29,26.5c0,1.933-1.567,3.5-3.5,3.5h-22C1.567,30,0,28.433,0,26.5v-22C0,2.567,1.567,1,3.5,1h22
				C27.433,1,29,2.567,29,4.5V26.5z"/>
			<g>
				<path fill="#057CDD" d="M26,1c1.654,0,3,1.346,3,3v22c0,1.654-1.346,3-3,3H4c-1.654,0-3-1.346-3-3V4c0-1.654,1.346-3,3-3H26
					 M26,0H4C1.791,0,0,1.791,0,4v22c0,2.209,1.791,4,4,4h22c2.209,0,4-1.791,4-4V4C30,1.791,28.209,0,26,0L26,0z"/>
			</g>
		</g>
		<path fill="#FFFFFF" d="M15.333,6.667c4.595,0,8.333,3.738,8.333,8.333s-3.738,8.333-8.333,8.333S7,19.595,7,15
			S10.738,6.667,15.333,6.667 M15.333,5c-5.523,0-10,4.477-10,10s4.477,10,10,10c5.522,0,10-4.477,10-10S20.855,5,15.333,5L15.333,5
			z"/>
		<rect x="14" y="4" fill="#FFFFFF" width="2" height="5"/>
		<rect x="14" y="21" fill="#FFFFFF" width="2" height="5"/>
		<rect x="21" y="14" fill="#FFFFFF" width="5" height="2"/>
		<rect x="4" y="14" fill="#FFFFFF" width="5" height="2"/>
		<path fill="#FFFFFF" d="M15.333,12.6c1.323,0,2.4,1.077,2.4,2.4s-1.077,2.4-2.4,2.4s-2.4-1.077-2.4-2.4S14.01,12.6,15.333,12.6
			 M15.333,11c-2.209,0-4,1.791-4,4s1.791,4,4,4s4-1.791,4-4S17.542,11,15.333,11L15.333,11z"/>
	</g>
</g>
<g id="图层_2">
</g>
</svg>
