<?xml version="1.0" encoding="utf-8"?>
<!-- Generator: Adobe Illustrator 16.0.0, SVG Export Plug-In . SVG Version: 6.00 Build 0)  -->
<!DOCTYPE svg PUBLIC "-//W3C//DTD SVG 1.1//EN" "http://www.w3.org/Graphics/SVG/1.1/DTD/svg11.dtd">
<svg version="1.1" xmlns="http://www.w3.org/2000/svg" xmlns:xlink="http://www.w3.org/1999/xlink" x="0px" y="0px" width="80px"
	 height="30px" viewBox="0 0 80 30" enable-background="new 0 0 80 30" xml:space="preserve">
<g id="图层_1">
	<g>
		<g>
			<path fill="#349BE3" d="M79,26.5c0,1.933-1.567,3.5-3.5,3.5h-72C1.567,30,0,28.433,0,26.5v-22C0,2.567,1.567,1,3.5,1h72
				C77.433,1,79,2.567,79,4.5V26.5z"/>
			<g>
				<path fill="#057CDD" d="M76,1c1.654,0,3,1.346,3,3v22c0,1.654-1.346,3-3,3H4c-1.654,0-3-1.346-3-3V4c0-1.654,1.346-3,3-3H76
					 M76,0H4C1.791,0,0,1.791,0,4v22c0,2.209,1.791,4,4,4h72c2.209,0,4-1.791,4-4V4C80,1.791,78.209,0,76,0L76,0z"/>
			</g>
		</g>
	</g>
	<g>
		<g>
			<path fill="#FFFFFF" d="M20.865,23V8.684h1.895V23H20.865z"/>
			<path fill="#FFFFFF" d="M25.875,23V12.629h1.582v1.475c0.762-1.139,1.862-1.709,3.301-1.709c0.625,0,1.2,0.112,1.724,0.337
				s0.917,0.519,1.177,0.884s0.443,0.797,0.547,1.299c0.065,0.326,0.098,0.895,0.098,1.709V23h-1.758v-6.309
				c0-0.716-0.068-1.251-0.205-1.606s-0.379-0.638-0.728-0.85s-0.757-0.317-1.226-0.317c-0.749,0-1.395,0.238-1.938,0.713
				s-0.815,1.377-0.815,2.705V23H25.875z"/>
			<path fill="#FFFFFF" d="M40.836,21.428l0.254,1.553c-0.495,0.104-0.938,0.156-1.328,0.156c-0.638,0-1.133-0.101-1.484-0.303
				s-0.599-0.467-0.742-0.796s-0.215-1.021-0.215-2.075v-5.967h-1.289v-1.367h1.289v-2.568l1.748-1.055v3.623h1.768v1.367h-1.768
				v6.064c0,0.501,0.031,0.824,0.093,0.967s0.163,0.257,0.303,0.342s0.34,0.127,0.601,0.127
				C40.26,21.496,40.517,21.473,40.836,21.428z"/>
		</g>
		<rect x="45" y="15" fill="#FFFFFF" width="14" height="2"/>
		<g>
			<rect x="51" y="11" fill="#FFFFFF" width="2" height="2"/>
			<rect x="51" y="19" fill="#FFFFFF" width="2" height="2"/>
		</g>
	</g>
	<g>
		<rect x="45" y="15" fill="#FFFFFF" width="14" height="2"/>
		<g>
			<rect x="51" y="11" fill="#FFFFFF" width="2" height="2"/>
			<rect x="51" y="19" fill="#FFFFFF" width="2" height="2"/>
		</g>
	</g>
</g>
<g id="图层_2">
</g>
</svg>
