<?xml version="1.0" encoding="utf-8"?>
<!-- Generator: Adobe Illustrator 16.0.0, SVG Export Plug-In . SVG Version: 6.00 Build 0)  -->
<!DOCTYPE svg PUBLIC "-//W3C//DTD SVG 1.1//EN" "http://www.w3.org/Graphics/SVG/1.1/DTD/svg11.dtd">
<svg version="1.1" xmlns="http://www.w3.org/2000/svg" xmlns:xlink="http://www.w3.org/1999/xlink" x="0px" y="0px" width="100px"
	 height="30px" viewBox="0 0 100 30" enable-background="new 0 0 100 30" xml:space="preserve">
<g id="图层_1">
	<g>
		<g>
			<path fill="#349BE3" d="M99,26.5c0,1.933-1.567,3.5-3.5,3.5h-92C1.567,30,0,28.433,0,26.5v-22C0,2.567,1.567,1,3.5,1h92
				C97.433,1,99,2.567,99,4.5V26.5z"/>
			<g>
				<path fill="#057CDD" d="M96,1c1.654,0,3,1.346,3,3v22c0,1.654-1.346,3-3,3H4c-1.654,0-3-1.346-3-3V4c0-1.654,1.346-3,3-3H96
					 M96,0H4C1.791,0,0,1.791,0,4v22c0,2.209,1.791,4,4,4h92c2.209,0,4-1.791,4-4V4C100,1.791,98.209,0,96,0L96,0z"/>
			</g>
		</g>
	</g>
	<g>
		<g>
			<path fill="#FFFFFF" d="M20.641,23V8.684h9.658v1.689h-7.764v4.434h6.719v1.689h-6.719V23H20.641z"/>
			<path fill="#FFFFFF" d="M32.496,23V8.684h1.758V23H32.496z"/>
			<path fill="#FFFFFF" d="M36.324,17.814c0-1.92,0.533-3.343,1.602-4.268c0.893-0.768,1.979-1.152,3.262-1.152
				c1.426,0,2.592,0.467,3.496,1.401s1.357,2.225,1.357,3.872c0,1.334-0.2,2.384-0.601,3.149s-0.983,1.359-1.748,1.782
				s-1.601,0.635-2.505,0.635c-1.451,0-2.625-0.465-3.521-1.396S36.324,19.566,36.324,17.814z M38.131,17.814
				c0,1.328,0.289,2.323,0.869,2.983s1.309,0.991,2.188,0.991c0.873,0,1.598-0.332,2.178-0.996s0.869-1.676,0.869-3.037
				c0-1.283-0.291-2.254-0.874-2.915s-1.308-0.991-2.173-0.991c-0.879,0-1.607,0.329-2.188,0.986S38.131,16.486,38.131,17.814z"/>
			<path fill="#FFFFFF" d="M54.869,21.721c-0.65,0.553-1.277,0.944-1.88,1.172s-1.249,0.342-1.938,0.342
				c-1.139,0-2.016-0.278-2.627-0.835s-0.918-1.268-0.918-2.134c0-0.508,0.115-0.972,0.347-1.392s0.534-0.757,0.908-1.011
				s0.796-0.446,1.265-0.576c0.346-0.091,0.865-0.179,1.563-0.264c1.42-0.169,2.465-0.371,3.135-0.605
				c0.006-0.241,0.01-0.394,0.01-0.459c0-0.716-0.166-1.221-0.498-1.514c-0.449-0.397-1.117-0.596-2.002-0.596
				c-0.826,0-1.438,0.145-1.831,0.435s-0.685,0.802-0.874,1.538l-1.719-0.234c0.156-0.736,0.414-1.33,0.771-1.782
				s0.875-0.801,1.553-1.045s1.461-0.366,2.354-0.366c0.885,0,1.605,0.104,2.158,0.313s0.961,0.47,1.221,0.786
				s0.443,0.714,0.547,1.196c0.059,0.299,0.088,0.84,0.088,1.621v2.344c0,1.634,0.037,2.667,0.112,3.101s0.224,0.848,0.444,1.245
				h-1.836C55.039,22.635,54.922,22.209,54.869,21.721z M54.723,17.795c-0.639,0.26-1.596,0.482-2.871,0.664
				c-0.723,0.104-1.234,0.221-1.533,0.352s-0.531,0.321-0.693,0.571s-0.244,0.529-0.244,0.835c0,0.469,0.178,0.859,0.532,1.172
				s0.874,0.469,1.558,0.469c0.678,0,1.279-0.148,1.807-0.444s0.914-0.702,1.162-1.216c0.189-0.397,0.283-0.983,0.283-1.758V17.795z
				"/>
			<path fill="#FFFFFF" d="M63.063,21.428l0.254,1.553c-0.494,0.104-0.938,0.156-1.328,0.156c-0.639,0-1.133-0.101-1.484-0.303
				s-0.6-0.467-0.742-0.796s-0.215-1.021-0.215-2.075v-5.967h-1.289v-1.367h1.289v-2.568l1.748-1.055v3.623h1.768v1.367h-1.768
				v6.064c0,0.501,0.031,0.824,0.093,0.967s0.163,0.257,0.303,0.342s0.341,0.127,0.601,0.127
				C62.486,21.496,62.744,21.473,63.063,21.428z"/>
		</g>
		
			<rect x="68" y="15" transform="matrix(0.7071 0.7071 -0.7071 0.7071 33.2839 -48.3488)" fill="#FFFFFF" width="13.999" height="2"/>
		
			<rect x="68" y="15" transform="matrix(-0.7071 0.7071 -0.7071 -0.7071 139.3447 -25.7225)" fill="#FFFFFF" width="13.999" height="2"/>
	</g>
</g>
<g id="图层_2">
</g>
</svg>
