<?xml version="1.0" encoding="utf-8"?>
<!-- Generator: Adobe Illustrator 16.0.0, SVG Export Plug-In . SVG Version: 6.00 Build 0)  -->
<!DOCTYPE svg PUBLIC "-//W3C//DTD SVG 1.1//EN" "http://www.w3.org/Graphics/SVG/1.1/DTD/svg11.dtd">
<svg version="1.1" xmlns="http://www.w3.org/2000/svg" xmlns:xlink="http://www.w3.org/1999/xlink" x="0px" y="0px" width="30px"
	 height="30px" viewBox="0 0 30 30" enable-background="new 0 0 30 30" xml:space="preserve">
<g id="图层_1">
	<g>
		<g>
			<g>
				<path fill="#349BE3" d="M29,26.5c0,1.933-1.567,3.5-3.5,3.5h-22C1.567,30,0,28.433,0,26.5v-22C0,2.567,1.567,1,3.5,1h22
					C27.433,1,29,2.567,29,4.5V26.5z"/>
				<g>
					<path fill="#057CDD" d="M26,1c1.654,0,3,1.346,3,3v22c0,1.654-1.346,3-3,3H4c-1.654,0-3-1.346-3-3V4c0-1.654,1.346-3,3-3H26
						 M26,0H4C1.791,0,0,1.791,0,4v22c0,2.209,1.791,4,4,4h22c2.209,0,4-1.791,4-4V4C30,1.791,28.209,0,26,0L26,0z"/>
				</g>
			</g>
		</g>
	</g>
	<g>
		<g>
			<path fill="#FDFEFF" d="M15.568,18.792l-4.505,4.838c-0.38,0.408-0.9,0.633-1.466,0.633c-0.509,0-0.993-0.188-1.36-0.531
				l-1.464-1.363c-0.388-0.36-0.611-0.855-0.631-1.393c-0.019-0.537,0.169-1.046,0.531-1.434l7.379-7.925l-0.505-2.393l-8.338,8.954
				c-1.5,1.61-1.409,4.154,0.201,5.653l1.464,1.363c0.768,0.714,1.747,1.067,2.724,1.067c1.074,0,2.145-0.427,2.93-1.27l3.547-3.809
				L15.568,18.792z"/>
			<path fill="#FDFEFF" d="M24.591,6.168l-1.464-1.363c-0.768-0.714-1.747-1.067-2.724-1.067c-1.074,0-2.145,0.427-2.93,1.27
				l-2.261,2.429l0.505,2.393l3.22-3.458c0.379-0.408,0.9-0.633,1.467-0.633c0.509,0,0.992,0.188,1.36,0.531l1.464,1.363
				c0.388,0.36,0.611,0.855,0.631,1.393c0.019,0.537-0.169,1.046-0.531,1.434l-6.094,6.545l0.506,2.392l7.052-7.573
				C26.292,10.211,26.201,7.667,24.591,6.168z"/>
		</g>
		
			<rect x="14.293" y="10.05" transform="matrix(-0.7071 -0.7071 0.7071 -0.7071 15 36.2132)" fill="#FDFEFF" width="1.414" height="9.899"/>
	</g>
</g>
<g id="图层_2">
</g>
</svg>
