<?xml version="1.0" encoding="utf-8"?>
<!-- Generator: Adobe Illustrator 16.0.0, SVG Export Plug-In . SVG Version: 6.00 Build 0)  -->
<!DOCTYPE svg PUBLIC "-//W3C//DTD SVG 1.1//EN" "http://www.w3.org/Graphics/SVG/1.1/DTD/svg11.dtd">
<svg version="1.1" xmlns="http://www.w3.org/2000/svg" xmlns:xlink="http://www.w3.org/1999/xlink" x="0px" y="0px" width="30px"
	 height="30px" viewBox="0 0 30 30" enable-background="new 0 0 30 30" xml:space="preserve">
<g id="图层_1">
	<g>
		<g>
			<g>
				<path fill="#349BE3" d="M29,26.5c0,1.933-1.567,3.5-3.5,3.5h-22C1.567,30,0,28.433,0,26.5v-22C0,2.567,1.567,1,3.5,1h22
					C27.433,1,29,2.567,29,4.5V26.5z"/>
				<g>
					<path fill="#057CDD" d="M26,1c1.654,0,3,1.346,3,3v22c0,1.654-1.346,3-3,3H4c-1.654,0-3-1.346-3-3V4c0-1.654,1.346-3,3-3H26
						 M26,0H4C1.791,0,0,1.791,0,4v22c0,2.209,1.791,4,4,4h22c2.209,0,4-1.791,4-4V4C30,1.791,28.209,0,26,0L26,0z"/>
				</g>
			</g>
		</g>
	</g>
	<g>
		<g>
			<path fill="#FFFFFF" d="M24,12v10H6V12H24 M26,10H4v14h22V10L26,10z"/>
		</g>
		<g>
			<path fill="#FFFFFF" d="M19,16c0.551,0,1,0.448,1,1s-0.449,1-1,1s-1-0.448-1-1S18.449,16,19,16 M19,14c-1.657,0-3,1.343-3,3
				s1.343,3,3,3s3-1.343,3-3S20.657,14,19,14L19,14z"/>
		</g>
		<path fill="#FFFFFF" d="M24,7c0,0.553-0.403,1-0.9,1H6.9C6.403,8,6,7.553,6,7l0,0c0-0.553,0.403-1,0.9-1H23.1
			C23.597,6,24,6.447,24,7L24,7z"/>
		<path fill="#FFFFFF" d="M10,19c0,0.553-0.448,1-1,1l0,0c-0.552,0-1-0.447-1-1v-4c0-0.553,0.448-1,1-1l0,0c0.552,0,1,0.447,1,1V19z
			"/>
		<path fill="#FFFFFF" d="M14,19c0,0.553-0.448,1-1,1l0,0c-0.552,0-1-0.447-1-1v-4c0-0.553,0.448-1,1-1l0,0c0.552,0,1,0.447,1,1V19z
			"/>
	</g>
</g>
<g id="图层_2">
</g>
</svg>
