<?xml version="1.0" encoding="utf-8"?>
<!-- Generator: Adobe Illustrator 16.0.0, SVG Export Plug-In . SVG Version: 6.00 Build 0)  -->
<!DOCTYPE svg PUBLIC "-//W3C//DTD SVG 1.1//EN" "http://www.w3.org/Graphics/SVG/1.1/DTD/svg11.dtd">
<svg version="1.1" xmlns="http://www.w3.org/2000/svg" xmlns:xlink="http://www.w3.org/1999/xlink" x="0px" y="0px" width="50px"
	 height="30px" viewBox="0 0 50 30" enable-background="new 0 0 50 30" xml:space="preserve">
<g id="图层_1">
	<g>
		<g>
			<path fill="#349BE3" d="M49,26.5c0,1.933-1.567,3.5-3.5,3.5h-42C1.567,30,0,28.433,0,26.5v-22C0,2.567,1.567,1,3.5,1h42
				C47.433,1,49,2.567,49,4.5V26.5z"/>
			<g>
				<path fill="#057CDD" d="M46,1c1.654,0,3,1.346,3,3v22c0,1.654-1.346,3-3,3H4c-1.654,0-3-1.346-3-3V4c0-1.654,1.346-3,3-3H46
					 M46,0H4C1.791,0,0,1.791,0,4v22c0,2.209,1.791,4,4,4h42c2.209,0,4-1.791,4-4V4C50,1.791,48.209,0,46,0L46,0z"/>
			</g>
		</g>
		<g>
			<g>
				<path fill="#FFFFFF" d="M12.018,20.418v-9.334h1.415v1.311c0.293-0.457,0.683-0.825,1.169-1.104s1.04-0.418,1.661-0.418
					c0.691,0,1.258,0.145,1.701,0.432s0.754,0.688,0.936,1.203c0.738-1.09,1.699-1.635,2.883-1.635c0.926,0,1.638,0.257,2.136,0.77
					s0.747,1.303,0.747,2.369v6.406h-1.573v-5.879c0-0.633-0.051-1.089-0.154-1.367S22.649,12.67,22.38,12.5
					s-0.586-0.256-0.949-0.256c-0.656,0-1.201,0.219-1.635,0.655s-0.65,1.136-0.65,2.097v5.422h-1.582v-6.064
					c0-0.703-0.129-1.23-0.387-1.582s-0.68-0.527-1.266-0.527c-0.445,0-0.857,0.117-1.235,0.352s-0.652,0.578-0.822,1.029
					S13.6,14.727,13.6,15.576v4.842H12.018z"/>
				<path fill="#FFFFFF" d="M27.021,9.354v-1.82h1.582v1.82H27.021z M27.021,20.418v-9.334h1.582v9.334H27.021z"/>
				<path fill="#FFFFFF" d="M31.011,20.418v-9.334h1.424v1.328c0.686-1.025,1.676-1.539,2.971-1.539c0.563,0,1.08,0.102,1.551,0.304
					s0.825,0.468,1.059,0.796s0.398,0.717,0.492,1.168c0.059,0.293,0.088,0.807,0.088,1.539v5.738h-1.582V14.74
					c0-0.645-0.062-1.126-0.185-1.445s-0.341-0.574-0.655-0.765s-0.681-0.286-1.103-0.286c-0.674,0-1.255,0.215-1.745,0.643
					s-0.734,1.238-0.734,2.434v5.098H31.011z"/>
			</g>
		</g>
	</g>
</g>
<g id="图层_2">
</g>
</svg>
