<?xml version="1.0" encoding="utf-8"?>
<!-- Generator: Adobe Illustrator 16.0.0, SVG Export Plug-In . SVG Version: 6.00 Build 0)  -->
<!DOCTYPE svg PUBLIC "-//W3C//DTD SVG 1.1//EN" "http://www.w3.org/Graphics/SVG/1.1/DTD/svg11.dtd">
<svg version="1.1" xmlns="http://www.w3.org/2000/svg" xmlns:xlink="http://www.w3.org/1999/xlink" x="0px" y="0px" width="30px"
	 height="30px" viewBox="0 0 30 30" enable-background="new 0 0 30 30" xml:space="preserve">
<g id="图层_1">
	<g>
		<g>
			<g>
				<path fill="#349BE3" d="M29,26.5c0,1.933-1.567,3.5-3.5,3.5h-22C1.567,30,0,28.433,0,26.5v-22C0,2.567,1.567,1,3.5,1h22
					C27.433,1,29,2.567,29,4.5V26.5z"/>
				<g>
					<path fill="#057CDD" d="M26,1c1.654,0,3,1.346,3,3v22c0,1.654-1.346,3-3,3H4c-1.654,0-3-1.346-3-3V4c0-1.654,1.346-3,3-3H26
						 M26,0H4C1.791,0,0,1.791,0,4v22c0,2.209,1.791,4,4,4h22c2.209,0,4-1.791,4-4V4C30,1.791,28.209,0,26,0L26,0z"/>
				</g>
			</g>
		</g>
	</g>
	<path fill="#FFFFFF" d="M26,14c-0.317-3.093-2.234-5.531-4.965-7.016c-0.487-0.266-1.117-0.016-1.289,0.513
		c-0.239,0.726,0.405,1.038,0.907,1.359c1.09,0.696,2,1.673,2.614,2.809c1.289,2.377,1.219,5.339-0.183,7.647
		C21.699,21.589,18.665,23,16,23h-3c-0.787,0-1.227,0.998-0.67,1.554l2.489,2.49c0.825,0.825,2.099-0.457,1.276-1.277l-0.947-0.947
		h1.365C22.058,24.817,26.561,19.51,26,14C25.968,13.683,26.032,14.318,26,14z"/>
	<path fill="#FFFFFF" d="M4,17c0.317,3.093,2.234,5.779,4.965,7.264c0.487,0.266,1.117,0.016,1.289-0.513
		c0.239-0.726-0.405-1.038-0.907-1.358c-1.09-0.697-2-1.675-2.615-2.812C5.443,17.205,5.598,14.31,7,12c1.385-2.276,4.335-4,7-4h3
		c0.787,0,1.227-0.75,0.67-1.306l-2.49-2.49c-0.825-0.825-2.099,0.457-1.276,1.277l0.947,0.947h-1.365C7.942,6.431,3.439,11.49,4,17
		C4.032,17.316,3.968,16.682,4,17z"/>
	<circle fill="#FDFEFF" cx="10.5" cy="15.5" r="1.5"/>
	<circle fill="#FDFEFF" cx="15.5" cy="15.5" r="1.5"/>
	<circle fill="#FDFEFF" cx="20.5" cy="15.5" r="1.5"/>
</g>
<g id="图层_2">
</g>
</svg>
