<?xml version="1.0" encoding="utf-8"?>
<!-- Generator: Adobe Illustrator 16.0.0, SVG Export Plug-In . SVG Version: 6.00 Build 0)  -->
<!DOCTYPE svg PUBLIC "-//W3C//DTD SVG 1.1//EN" "http://www.w3.org/Graphics/SVG/1.1/DTD/svg11.dtd">
<svg version="1.1" xmlns="http://www.w3.org/2000/svg" xmlns:xlink="http://www.w3.org/1999/xlink" x="0px" y="0px" width="50px"
	 height="30px" viewBox="0 0 50 30" enable-background="new 0 0 50 30" xml:space="preserve">
<g id="图层_1">
	<g>
		<g>
			<path fill="#349BE3" d="M49,26.5c0,1.933-1.567,3.5-3.5,3.5h-42C1.567,30,0,28.433,0,26.5v-22C0,2.567,1.567,1,3.5,1h42
				C47.433,1,49,2.567,49,4.5V26.5z"/>
			<g>
				<path fill="#057CDD" d="M46,1c1.654,0,3,1.346,3,3v22c0,1.654-1.346,3-3,3H4c-1.654,0-3-1.346-3-3V4c0-1.654,1.346-3,3-3H46
					 M46,0H4C1.791,0,0,1.791,0,4v22c0,2.209,1.791,4,4,4h42c2.209,0,4-1.791,4-4V4C50,1.791,48.209,0,46,0L46,0z"/>
			</g>
		</g>
		<g>
			<g>
				<path fill="#FFFFFF" d="M9.517,20.418v-9.334h1.415v1.311c0.293-0.457,0.683-0.825,1.169-1.104s1.04-0.418,1.661-0.418
					c0.691,0,1.258,0.145,1.701,0.432s0.754,0.688,0.936,1.203c0.738-1.09,1.699-1.635,2.883-1.635c0.926,0,1.638,0.257,2.136,0.77
					s0.747,1.303,0.747,2.369v6.406h-1.573v-5.879c0-0.633-0.051-1.089-0.154-1.367s-0.289-0.502-0.558-0.672
					s-0.586-0.256-0.949-0.256c-0.656,0-1.201,0.219-1.635,0.655s-0.65,1.136-0.65,2.097v5.422h-1.582v-6.064
					c0-0.703-0.129-1.23-0.387-1.582s-0.68-0.527-1.266-0.527c-0.445,0-0.857,0.117-1.235,0.352s-0.652,0.578-0.822,1.029
					s-0.255,1.102-0.255,1.951v4.842H9.517z"/>
				<path fill="#FFFFFF" d="M30.602,19.268c-0.586,0.498-1.15,0.85-1.692,1.055s-1.124,0.307-1.745,0.307
					c-1.025,0-1.813-0.25-2.364-0.751s-0.826-1.142-0.826-1.921c0-0.457,0.104-0.874,0.312-1.252s0.48-0.682,0.817-0.91
					s0.716-0.4,1.138-0.518c0.311-0.082,0.779-0.162,1.406-0.238c1.277-0.152,2.218-0.334,2.821-0.545
					c0.006-0.217,0.009-0.354,0.009-0.412c0-0.645-0.149-1.1-0.448-1.363c-0.404-0.357-1.005-0.535-1.802-0.535
					c-0.744,0-1.293,0.13-1.648,0.391s-0.617,0.723-0.787,1.385l-1.547-0.211c0.141-0.662,0.372-1.197,0.694-1.604
					s0.788-0.721,1.397-0.94s1.315-0.33,2.118-0.33c0.797,0,1.444,0.094,1.942,0.281s0.864,0.424,1.099,0.708
					s0.398,0.644,0.492,1.077c0.053,0.27,0.079,0.756,0.079,1.459v2.109c0,1.471,0.034,2.4,0.101,2.79s0.201,0.763,0.4,1.12h-1.652
					C30.754,20.09,30.649,19.707,30.602,19.268z M30.47,15.734c-0.574,0.234-1.436,0.434-2.584,0.598
					c-0.65,0.094-1.11,0.199-1.38,0.316s-0.478,0.288-0.624,0.514s-0.22,0.477-0.22,0.752c0,0.422,0.16,0.773,0.479,1.055
					s0.787,0.422,1.402,0.422c0.609,0,1.151-0.134,1.626-0.4s0.823-0.631,1.046-1.094c0.17-0.357,0.255-0.885,0.255-1.582V15.734z"
					/>
				<path fill="#FFFFFF" d="M33.467,20.418l3.41-4.852l-3.155-4.482H35.7l1.433,2.189c0.27,0.416,0.486,0.764,0.65,1.045
					c0.258-0.387,0.495-0.729,0.712-1.027l1.573-2.207h1.89l-3.226,4.395l3.472,4.939h-1.942l-1.916-2.9l-0.51-0.781l-2.452,3.682
					H33.467z"/>
			</g>
		</g>
	</g>
</g>
<g id="图层_2">
</g>
</svg>
