<?xml version="1.0" encoding="utf-8"?>
<!-- Generator: Adobe Illustrator 16.0.0, SVG Export Plug-In . SVG Version: 6.00 Build 0)  -->
<!DOCTYPE svg PUBLIC "-//W3C//DTD SVG 1.1//EN" "http://www.w3.org/Graphics/SVG/1.1/DTD/svg11.dtd">
<svg version="1.1" xmlns="http://www.w3.org/2000/svg" xmlns:xlink="http://www.w3.org/1999/xlink" x="0px" y="0px" width="50px"
	 height="30px" viewBox="0 0 50 30" enable-background="new 0 0 50 30" xml:space="preserve">
<g id="图层_1">
	<g>
		<path fill="#349BE3" d="M49,26.5c0,1.933-1.567,3.5-3.5,3.5h-42C1.567,30,0,28.433,0,26.5v-22C0,2.567,1.567,1,3.5,1h42
			C47.433,1,49,2.567,49,4.5V26.5z"/>
		<g>
			<path fill="#057CDD" d="M46,1c1.654,0,3,1.346,3,3v22c0,1.654-1.346,3-3,3H4c-1.654,0-3-1.346-3-3V4c0-1.654,1.346-3,3-3H46
				 M46,0H4C1.791,0,0,1.791,0,4v22c0,2.209,1.791,4,4,4h42c2.209,0,4-1.791,4-4V4C50,1.791,48.209,0,46,0L46,0z"/>
		</g>
	</g>
	<g>
		<g>
			<path fill="#FFFFFF" d="M17.023,9.935V8.115h1.582v1.819H17.023z M17.023,21v-9.334h1.582V21H17.023z"/>
			<path fill="#FFFFFF" d="M21.013,21v-9.334h1.424v1.327c0.686-1.025,1.676-1.538,2.971-1.538c0.563,0,1.08,0.102,1.551,0.303
				c0.472,0.203,0.825,0.468,1.059,0.796s0.398,0.718,0.492,1.169c0.059,0.293,0.088,0.806,0.088,1.538V21h-1.582v-5.678
				c0-0.645-0.062-1.127-0.185-1.445c-0.123-0.32-0.341-0.574-0.655-0.766c-0.313-0.189-0.681-0.285-1.103-0.285
				c-0.674,0-1.255,0.214-1.745,0.642s-0.734,1.239-0.734,2.435V21H21.013z"/>
			<path fill="#FFFFFF" d="M34.478,19.585l0.229,1.397c-0.445,0.094-0.844,0.141-1.195,0.141c-0.574,0-1.02-0.091-1.336-0.272
				s-0.539-0.421-0.668-0.716c-0.129-0.297-0.193-0.919-0.193-1.868v-5.37h-1.16v-1.23h1.16V9.354l1.573-0.949v3.261h1.591v1.23
				h-1.591v5.458c0,0.451,0.028,0.741,0.083,0.87s0.146,0.231,0.272,0.308s0.306,0.114,0.541,0.114
				C33.959,19.646,34.191,19.626,34.478,19.585z"/>
		</g>
	</g>
</g>
<g id="图层_2">
</g>
</svg>
