<?xml version="1.0" encoding="utf-8"?>
<!-- Generator: Adobe Illustrator 16.0.0, SVG Export Plug-In . SVG Version: 6.00 Build 0)  -->
<!DOCTYPE svg PUBLIC "-//W3C//DTD SVG 1.1//EN" "http://www.w3.org/Graphics/SVG/1.1/DTD/svg11.dtd">
<svg version="1.1" xmlns="http://www.w3.org/2000/svg" xmlns:xlink="http://www.w3.org/1999/xlink" x="0px" y="0px" width="50px"
	 height="30px" viewBox="0 0 50 30" enable-background="new 0 0 50 30" xml:space="preserve">
<g id="图层_1">
	<g>
		<path fill="#349BE3" d="M49,26.5c0,1.933-1.567,3.5-3.5,3.5h-42C1.567,30,0,28.433,0,26.5v-22C0,2.567,1.567,1,3.5,1h42
			C47.433,1,49,2.567,49,4.5V26.5z"/>
		<g>
			<path fill="#057CDD" d="M46,1c1.654,0,3,1.346,3,3v22c0,1.654-1.346,3-3,3H4c-1.654,0-3-1.346-3-3V4c0-1.654,1.346-3,3-3H46
				 M46,0H4C1.791,0,0,1.791,0,4v22c0,2.209,1.791,4,4,4h42c2.209,0,4-1.791,4-4V4C50,1.791,48.209,0,46,0L46,0z"/>
		</g>
	</g>
	<g>
		<g>
			<path fill="#FFFFFF" d="M9.553,21v-8.104H8.156v-1.23h1.397v-0.993c0-0.627,0.056-1.093,0.167-1.397
				c0.152-0.41,0.42-0.742,0.804-0.998c0.384-0.254,0.921-0.382,1.613-0.382c0.445,0,0.938,0.053,1.477,0.158l-0.237,1.38
				c-0.328-0.059-0.639-0.088-0.932-0.088c-0.48,0-0.82,0.103-1.02,0.308s-0.299,0.589-0.299,1.151v0.861h1.819v1.23h-1.819V21
				H9.553z"/>
			<path fill="#FFFFFF" d="M14.141,21V8.115h1.582V21H14.141z"/>
			<path fill="#FFFFFF" d="M17.586,16.333c0-1.729,0.48-3.009,1.441-3.841c0.803-0.691,1.781-1.037,2.936-1.037
				c1.283,0,2.332,0.42,3.146,1.262c0.814,0.84,1.222,2.002,1.222,3.484c0,1.201-0.18,2.146-0.541,2.834
				c-0.36,0.689-0.885,1.224-1.573,1.604s-1.44,0.571-2.254,0.571c-1.307,0-2.363-0.419-3.168-1.257S17.586,17.909,17.586,16.333z
				 M19.212,16.333c0,1.195,0.261,2.091,0.782,2.685c0.521,0.596,1.178,0.893,1.969,0.893c0.785,0,1.438-0.299,1.96-0.896
				s0.782-1.509,0.782-2.733c0-1.154-0.262-2.028-0.787-2.624c-0.524-0.594-1.176-0.892-1.956-0.892
				c-0.791,0-1.447,0.296-1.969,0.888S19.212,15.138,19.212,16.333z"/>
			<path fill="#FFFFFF" d="M34.277,19.849c-0.586,0.498-1.15,0.85-1.692,1.055s-1.124,0.308-1.745,0.308
				c-1.025,0-1.813-0.25-2.364-0.752c-0.551-0.5-0.826-1.141-0.826-1.92c0-0.457,0.104-0.875,0.312-1.252
				c0.208-0.379,0.48-0.682,0.817-0.91s0.716-0.401,1.138-0.519c0.311-0.082,0.779-0.161,1.406-0.237
				c1.277-0.152,2.218-0.334,2.821-0.545c0.006-0.217,0.009-0.354,0.009-0.413c0-0.645-0.149-1.099-0.448-1.362
				c-0.404-0.357-1.005-0.536-1.802-0.536c-0.744,0-1.293,0.13-1.648,0.392c-0.354,0.26-0.617,0.722-0.787,1.384l-1.547-0.211
				c0.141-0.662,0.372-1.196,0.694-1.604c0.322-0.406,0.788-0.721,1.397-0.939c0.609-0.221,1.315-0.33,2.118-0.33
				c0.797,0,1.444,0.094,1.942,0.281s0.864,0.424,1.099,0.707c0.234,0.285,0.398,0.644,0.492,1.077
				c0.053,0.27,0.079,0.756,0.079,1.459v2.109c0,1.471,0.034,2.401,0.101,2.79c0.067,0.391,0.201,0.764,0.4,1.121h-1.652
				C34.429,20.672,34.324,20.288,34.277,19.849z M34.145,16.315c-0.574,0.234-1.436,0.434-2.584,0.598
				c-0.65,0.094-1.11,0.199-1.38,0.316s-0.478,0.288-0.624,0.515c-0.146,0.225-0.22,0.476-0.22,0.751
				c0,0.422,0.16,0.773,0.479,1.055s0.787,0.422,1.402,0.422c0.609,0,1.151-0.134,1.626-0.399c0.475-0.268,0.823-0.632,1.046-1.095
				c0.17-0.357,0.255-0.885,0.255-1.582V16.315z"/>
			<path fill="#FFFFFF" d="M41.651,19.585l0.229,1.397c-0.445,0.094-0.844,0.141-1.195,0.141c-0.574,0-1.02-0.091-1.336-0.272
				s-0.539-0.421-0.668-0.716c-0.129-0.297-0.193-0.919-0.193-1.868v-5.37h-1.16v-1.23h1.16V9.354l1.573-0.949v3.261h1.591v1.23
				H40.06v5.458c0,0.451,0.028,0.741,0.083,0.87s0.146,0.231,0.272,0.308s0.306,0.114,0.541,0.114
				C41.132,19.646,41.364,19.626,41.651,19.585z"/>
		</g>
	</g>
</g>
<g id="图层_2">
</g>
</svg>
