<?xml version="1.0" encoding="utf-8"?>
<!-- Generator: Adobe Illustrator 16.0.0, SVG Export Plug-In . SVG Version: 6.00 Build 0)  -->
<!DOCTYPE svg PUBLIC "-//W3C//DTD SVG 1.1//EN" "http://www.w3.org/Graphics/SVG/1.1/DTD/svg11.dtd">
<svg version="1.1" xmlns="http://www.w3.org/2000/svg" xmlns:xlink="http://www.w3.org/1999/xlink" x="0px" y="0px" width="30px"
	 height="30px" viewBox="0 0 30 30" enable-background="new 0 0 30 30" xml:space="preserve">
<g id="图层_1">
	<g>
		<g>
			<path fill="#349BE3" d="M29,26.5c0,1.933-1.567,3.5-3.5,3.5h-22C1.567,30,0,28.433,0,26.5v-22C0,2.567,1.567,1,3.5,1h22
				C27.433,1,29,2.567,29,4.5V26.5z"/>
			<g>
				<path fill="#057CDD" d="M26,1c1.654,0,3,1.346,3,3v22c0,1.654-1.346,3-3,3H4c-1.654,0-3-1.346-3-3V4c0-1.654,1.346-3,3-3H26
					 M26,0H4C1.791,0,0,1.791,0,4v22c0,2.209,1.791,4,4,4h22c2.209,0,4-1.791,4-4V4C30,1.791,28.209,0,26,0L26,0z"/>
			</g>
		</g>
	</g>
	<g>
		<g>
			<g>
				<path fill="#FFFFFF" d="M11.421,19.235c-0.525,0.563-1.099,0.985-1.719,1.267c-0.619,0.281-1.289,0.422-2.01,0.422
					c-1.328,0-2.383-0.433-3.162-1.297c-0.631-0.704-0.947-1.491-0.947-2.361c0-0.772,0.258-1.47,0.775-2.092
					c0.516-0.623,1.288-1.17,2.315-1.642c-0.585-0.647-0.974-1.173-1.169-1.577c-0.195-0.403-0.292-0.793-0.292-1.168
					c0-0.75,0.306-1.402,0.917-1.956C6.74,8.277,7.509,8,8.437,8c0.885,0,1.61,0.262,2.174,0.784
					c0.564,0.522,0.846,1.151,0.846,1.884c0,1.188-0.817,2.203-2.453,3.043l2.33,2.856c0.265-0.501,0.472-1.08,0.619-1.739
					l1.656,0.341c-0.283,1.091-0.667,1.989-1.15,2.694c0.596,0.762,1.271,1.4,2.027,1.918L13.413,21
					C12.771,20.602,12.105,20.014,11.421,19.235z M10.42,18.025l-2.923-3.486c-0.861,0.494-1.443,0.953-1.744,1.377
					c-0.301,0.422-0.451,0.842-0.451,1.256c0,0.506,0.209,1.032,0.628,1.578c0.419,0.545,1.013,0.818,1.78,0.818
					c0.479,0,0.973-0.145,1.483-0.432C9.704,18.851,10.113,18.479,10.42,18.025z M8.18,12.723c0.69-0.393,1.138-0.736,1.342-1.031
					c0.204-0.296,0.306-0.623,0.306-0.98c0-0.426-0.141-0.774-0.421-1.045c-0.28-0.27-0.63-0.404-1.05-0.404
					c-0.431,0-0.789,0.134-1.076,0.4c-0.286,0.268-0.43,0.594-0.43,0.98c0,0.193,0.053,0.396,0.155,0.609
					c0.104,0.213,0.259,0.439,0.465,0.678L8.18,12.723z"/>
			</g>
			<g>
				<path fill="#FFFFFF" d="M23.519,19.235c-0.525,0.563-1.098,0.985-1.718,1.267s-1.29,0.422-2.011,0.422
					c-1.328,0-2.383-0.433-3.162-1.297c-0.631-0.704-0.947-1.491-0.947-2.361c0-0.772,0.259-1.47,0.775-2.092
					c0.517-0.623,1.288-1.17,2.315-1.642c-0.584-0.647-0.974-1.173-1.169-1.577c-0.195-0.403-0.292-0.793-0.292-1.168
					c0-0.75,0.306-1.402,0.917-1.956C18.838,8.277,19.607,8,20.534,8c0.886,0,1.61,0.262,2.174,0.784
					c0.564,0.522,0.846,1.151,0.846,1.884c0,1.188-0.817,2.203-2.453,3.043l2.33,2.856c0.266-0.501,0.472-1.08,0.619-1.739
					l1.656,0.341c-0.283,1.091-0.667,1.989-1.151,2.694c0.597,0.762,1.272,1.4,2.028,1.918L25.511,21
					C24.868,20.602,24.204,20.014,23.519,19.235z M22.519,18.025l-2.924-3.486c-0.861,0.494-1.443,0.953-1.744,1.377
					c-0.301,0.422-0.451,0.842-0.451,1.256c0,0.506,0.209,1.032,0.629,1.578c0.419,0.545,1.012,0.818,1.779,0.818
					c0.479,0,0.973-0.145,1.484-0.432C21.802,18.851,22.211,18.479,22.519,18.025z M20.277,12.723
					c0.69-0.393,1.138-0.736,1.342-1.031c0.203-0.296,0.306-0.623,0.306-0.98c0-0.426-0.141-0.774-0.421-1.045
					c-0.28-0.27-0.63-0.404-1.05-0.404c-0.431,0-0.79,0.134-1.076,0.4c-0.286,0.268-0.43,0.594-0.43,0.98
					c0,0.193,0.053,0.396,0.156,0.609s0.258,0.439,0.464,0.678L20.277,12.723z"/>
			</g>
		</g>
	</g>
</g>
<g id="图层_2">
</g>
</svg>
