<?xml version="1.0" standalone="no"?><!DOCTYPE svg PUBLIC "-//W3C//DTD SVG 1.1//EN" "http://www.w3.org/Graphics/SVG/1.1/DTD/svg11.dtd"><svg t="1660299105566" class="icon" viewBox="0 0 1024 1024" version="1.1" xmlns="http://www.w3.org/2000/svg" p-id="1735" xmlns:xlink="http://www.w3.org/1999/xlink" width="200" height="200"><defs><style type="text/css">@font-face { font-family: feedback-iconfont; src: url("//at.alicdn.com/t/font_1031158_u69w8yhxdu.woff2?t=1630033759944") format("woff2"), url("//at.alicdn.com/t/font_1031158_u69w8yhxdu.woff?t=1630033759944") format("woff"), url("//at.alicdn.com/t/font_1031158_u69w8yhxdu.ttf?t=1630033759944") format("truetype"); }
</style></defs><path d="M461.16 219.2h297.79s87.77 7.32 86.2 74.72c-1.57 67.4 0 576.78 0 576.78s-5.57 62.69-60.77 64.26c-55.21 1.57-588.1 0-588.1 0v-76.8s1.57-37.62 65.83-37.62 284.47-1.57 284.47-1.57l-2.35-264.1s7.05-47.02 83.07-53.29c76.02-6.27 49.37-116.82-12.54-110.91H462.73l-1.57-171.47z" fill="#64ABDA" p-id="1736"></path><path d="M606.77 948.45c-168.98 0-396.18-0.66-410.53-0.7-7.05-0.02-12.75-5.74-12.75-12.79v-76.8c0-0.18 0-0.36 0.01-0.53 0.06-1.43 0.91-14.35 12.07-26.81 13.71-15.3 36.1-23.06 66.54-23.06 54.53 0 223.57-1.14 271.57-1.48L531.44 555c-0.01-0.67 0.04-1.35 0.14-2.01 0.35-2.33 9.53-57.12 94.67-64.14 15.49-1.28 25.99-7.6 31.22-18.79 6.54-14.01 3.76-34.23-6.78-49.16-5.14-7.28-16.48-19.23-34.71-17.49-0.4 0.04-0.81 0.06-1.21 0.06H462.73c-7.02 0-12.72-5.65-12.79-12.67l-1.57-171.47c-0.03-3.41 1.3-6.69 3.7-9.12s5.67-3.79 9.08-3.79h297.79c0.35 0 0.71 0.01 1.06 0.04 0.99 0.08 24.52 2.15 48.08 13.26 33.38 15.74 50.61 41.5 49.84 74.5-1.55 66.46-0.01 571.35 0 576.44 0 0.39-0.02 0.78-0.05 1.17-0.07 0.74-1.72 18.42-11.09 36.33-13.12 25.11-34.58 38.8-62.06 39.58-18.66 0.54-90.51 0.71-177.95 0.71z m-397.7-26.24c81.42 0.23 525.33 1.38 574.95-0.03 41.15-1.17 47.68-46.41 48.35-52.13-0.06-21.48-1.52-510.77 0.01-576.43 0.52-22.57-10.8-39.09-34.63-50.51-17.79-8.52-36.28-10.79-39.41-11.13H474.07l1.33 145.9h138.78c22.47-1.92 43.36 8.36 57.4 28.27 15.82 22.43 19.46 52.46 9.06 74.73-9.13 19.54-27.7 31.42-52.29 33.45-59.42 4.9-69.91 36.15-71.32 41.8l2.34 262.72c0.03 3.4-1.29 6.66-3.67 9.08a12.814 12.814 0 0 1-9.02 3.82c-2.2 0.02-220.99 1.57-284.56 1.57-48.06 0-52.66 22.65-53.04 25.42v63.47z m-0.01-63.52z" p-id="1737"></path><path d="M396.64 181.07h-51.72c-18.35 0-33.22-14.87-33.22-33.22v-35.48c0-18.35 14.87-33.22 33.22-33.22h51.72c18.35 0 33.22 14.87 33.22 33.22v35.48c0.01 18.35-14.87 33.22-33.22 33.22z" fill="#F0CB74" p-id="1738"></path><path d="M396.64 193.86h-51.72c-25.37 0-46.01-20.64-46.01-46.01v-35.48c0-25.37 20.64-46.01 46.01-46.01h51.72c25.37 0 46.01 20.64 46.01 46.01v35.48c0.01 25.37-20.63 46.01-46.01 46.01zM344.92 91.93c-11.27 0-20.43 9.17-20.43 20.43v35.48c0 11.27 9.17 20.44 20.43 20.44h51.72c11.27 0 20.44-9.17 20.44-20.44v-35.48c0-11.27-9.17-20.43-20.44-20.43h-51.72z" p-id="1739"></path><path d="M418.84 413.56h-98.22c-23.66 0-42.84-19.18-42.84-42.84V236.97c0-23.66 19.18-42.84 42.84-42.84h98.22c23.66 0 42.84 19.18 42.84 42.84v133.75c0 23.66-19.18 42.84-42.84 42.84z" fill="#64ABDA" p-id="1740"></path><path d="M418.84 426.35h-98.22c-30.67 0-55.63-24.96-55.63-55.63V236.97c0-30.67 24.96-55.63 55.63-55.63h98.22c30.67 0 55.63 24.96 55.63 55.63v133.75c0 30.67-24.96 55.63-55.63 55.63z m-98.22-219.43c-16.57 0-30.05 13.48-30.05 30.05v133.75c0 16.57 13.48 30.05 30.05 30.05h98.22c16.57 0 30.05-13.48 30.05-30.05V236.97c0-16.57-13.48-30.05-30.05-30.05h-98.22z" p-id="1741"></path><path d="M402.64 528.5h-59.08c-17.6 0-31.87-14.27-31.87-31.87v-42.84c0-17.6 14.27-31.87 31.87-31.87h59.08c17.6 0 31.87 14.27 31.87 31.87v42.84c0 17.6-14.26 31.87-31.87 31.87z" fill="#B9CE4F" p-id="1742"></path><path d="M402.64 541.29h-59.08c-24.62 0-44.66-20.03-44.66-44.66v-42.84c0-24.62 20.03-44.66 44.66-44.66h59.08c24.62 0 44.66 20.03 44.66 44.66v42.84c0 24.62-20.03 44.66-44.66 44.66z m-59.07-106.58c-10.52 0-19.08 8.56-19.08 19.08v42.84c0 10.52 8.56 19.08 19.08 19.08h59.08c10.52 0 19.08-8.56 19.08-19.08v-42.84c0-10.52-8.56-19.08-19.08-19.08h-59.08z" p-id="1743"></path><path d="M545.06 660.68H254.17c-7.06 0-12.79-5.73-12.79-12.79s5.73-12.79 12.79-12.79h290.88c7.06 0 12.79 5.73 12.79 12.79s-5.72 12.79-12.78 12.79zM456.88 746.42H311.7c-7.06 0-12.79-5.73-12.79-12.79s5.73-12.79 12.79-12.79h145.18c7.06 0 12.79 5.73 12.79 12.79s-5.73 12.79-12.79 12.79z" p-id="1744"></path></svg>