<?xml version="1.0" standalone="no"?><!DOCTYPE svg PUBLIC "-//W3C//DTD SVG 1.1//EN" "http://www.w3.org/Graphics/SVG/1.1/DTD/svg11.dtd"><svg t="1660299138844" class="icon" viewBox="0 0 1024 1024" version="1.1" xmlns="http://www.w3.org/2000/svg" p-id="2676" xmlns:xlink="http://www.w3.org/1999/xlink" width="200" height="200"><defs><style type="text/css">@font-face { font-family: feedback-iconfont; src: url("//at.alicdn.com/t/font_1031158_u69w8yhxdu.woff2?t=1630033759944") format("woff2"), url("//at.alicdn.com/t/font_1031158_u69w8yhxdu.woff?t=1630033759944") format("woff"), url("//at.alicdn.com/t/font_1031158_u69w8yhxdu.ttf?t=1630033759944") format("truetype"); }
</style></defs><path d="M337.11 680.78l-42.35 250.31h65.79l44.62-250.31" fill="#FDBC2D" p-id="2677"></path><path d="M360.55 943.43h-65.79c-3.63 0-7.08-1.6-9.43-4.38a12.306 12.306 0 0 1-2.74-10.02l42.35-250.32c1.14-6.72 7.51-11.25 14.23-10.11 6.72 1.14 11.25 7.51 10.11 14.23l-39.91 235.92h40.85l42.8-240.14c1.2-6.71 7.6-11.18 14.32-9.98 6.71 1.2 11.18 7.61 9.98 14.32L372.7 933.26c-1.04 5.89-6.16 10.17-12.15 10.17z" fill="#070707" p-id="2678"></path><path d="M699.34 680.78l42.35 250.31h-65.8l-44.61-250.31" fill="#FDBC2D" p-id="2679"></path><path d="M741.69 943.43H675.9c-5.98 0-11.1-4.29-12.15-10.18l-44.62-250.32c-1.2-6.71 3.27-13.12 9.98-14.32 6.71-1.19 13.12 3.28 14.32 9.98l42.8 240.14h40.85l-39.91-235.92c-1.14-6.72 3.39-13.09 10.11-14.23 6.72-1.13 13.09 3.39 14.23 10.11l42.35 250.32c0.61 3.58-0.4 7.25-2.74 10.02-2.35 2.8-5.8 4.4-9.43 4.4z" fill="#070707" p-id="2680"></path><path d="M893.46 680.78H129.2c-23.94 0-43.35-19.41-43.35-43.35v-437.2c0-23.94 19.41-43.35 43.35-43.35h764.26c23.94 0 43.35 19.41 43.35 43.35v437.2c0 23.94-19.41 43.35-43.35 43.35z" fill="#33ABDF" p-id="2681"></path><path d="M910.82 674.15H114.3c-14.35 0-25.99-11.64-25.99-25.99v-36.58h848.5v36.58c0 14.35-11.64 25.99-25.99 25.99z" fill="#B9CE4F" p-id="2682"></path><path d="M438.7 158.97l19-73.1h108.87l23.38 73.1" fill="#494B5A" p-id="2683"></path><path d="M589.95 171.31c-5.22 0-10.08-3.34-11.75-8.58l-20.64-64.52h-90.31l-16.6 63.87c-1.72 6.6-8.45 10.55-15.05 8.84-6.6-1.71-10.55-8.45-8.84-15.05l19-73.1c1.41-5.44 6.32-9.24 11.94-9.24h108.87c5.37 0 10.12 3.47 11.75 8.58l23.38 73.1c2.08 6.49-1.5 13.44-8 15.51-1.24 0.4-2.51 0.59-3.75 0.59z" fill="#070707" p-id="2684"></path><path d="M899 693.12H126.12c-27.65 0-50.15-22.5-50.15-50.15V196.78c0-27.65 22.5-50.15 50.15-50.15H899c27.65 0 50.15 22.5 50.15 50.15v446.18c0 27.66-22.5 50.16-50.15 50.16zM126.12 171.31c-14.04 0-25.47 11.43-25.47 25.47v446.18c0 14.04 11.43 25.47 25.47 25.47H899c14.04 0 25.47-11.43 25.47-25.47V196.78c0-14.04-11.43-25.47-25.47-25.47H126.12z" fill="#070707" p-id="2685"></path><path d="M936.81 623.92H88.31c-6.82 0-12.34-5.53-12.34-12.34s5.53-12.34 12.34-12.34h848.5c6.82 0 12.34 5.53 12.34 12.34s-5.52 12.34-12.34 12.34zM342.91 541.87c-6.82 0-12.34-5.53-12.34-12.34V420.87H220.9c-6.82 0-12.34-5.53-12.34-12.34V300.64c0-6.82 5.53-12.34 12.34-12.34s12.34 5.53 12.34 12.34v95.55h97.32v-101.6c0-6.82 5.53-12.34 12.34-12.34s12.34 5.53 12.34 12.34v234.94c0.01 6.82-5.52 12.34-12.33 12.34zM443.74 426.23c-6.74 0-12.25-5.42-12.34-12.19-0.09-6.82 5.37-12.41 12.19-12.5l146.21-1.83h0.16c6.74 0 12.25 5.42 12.34 12.19 0.09 6.82-5.37 12.41-12.19 12.5l-146.21 1.83h-0.16z" fill="#070707" p-id="2686"></path><path d="M516.84 495.49c-6.82 0-12.34-5.53-12.34-12.34V340.97c0-6.82 5.53-12.34 12.34-12.34 6.82 0 12.34 5.53 12.34 12.34v142.17c0.01 6.82-5.52 12.35-12.34 12.35z" fill="#070707" p-id="2687"></path><path d="M750.76 426.93c-6.82 0-12.34-5.53-12.34-12.34s5.53-12.34 12.34-12.34c26.87 0 48.73-21.86 48.73-48.73s-21.86-48.73-48.73-48.73-48.73 21.86-48.73 48.73c0 6.82-5.53 12.34-12.34 12.34s-12.34-5.53-12.34-12.34c0-40.48 32.93-73.41 73.41-73.41s73.41 32.93 73.41 73.41-32.93 73.41-73.41 73.41z" fill="#070707" p-id="2688"></path><path d="M811.83 541.87H700.05c-9.62 0-17.54-7.82-17.66-17.43-0.13-10.31-0.29-31.82 0.08-60.11 0.63-48.25 63.2-61.31 65.87-61.84 6.68-1.35 13.19 3 14.52 9.68s-2.99 13.17-9.66 14.52c-0.81 0.17-45.68 9.77-46.04 37.96-0.29 22.71-0.25 41-0.15 52.54h104.82c6.82 0 12.34 5.53 12.34 12.34s-5.53 12.34-12.34 12.34z" fill="#070707" p-id="2689"></path></svg>