<?xml version="1.0" standalone="no"?><!DOCTYPE svg PUBLIC "-//W3C//DTD SVG 1.1//EN" "http://www.w3.org/Graphics/SVG/1.1/DTD/svg11.dtd"><svg t="1660299128097" class="icon" viewBox="0 0 1024 1024" version="1.1" xmlns="http://www.w3.org/2000/svg" p-id="2360" xmlns:xlink="http://www.w3.org/1999/xlink" width="200" height="200"><defs><style type="text/css">@font-face { font-family: feedback-iconfont; src: url("//at.alicdn.com/t/font_1031158_u69w8yhxdu.woff2?t=1630033759944") format("woff2"), url("//at.alicdn.com/t/font_1031158_u69w8yhxdu.woff?t=1630033759944") format("woff"), url("//at.alicdn.com/t/font_1031158_u69w8yhxdu.ttf?t=1630033759944") format("truetype"); }
</style></defs><path d="M359.69 535.71L172.2 234.14l84.48-146.51 239.08 384.59z" fill="#B0C34C" p-id="2361"></path><path d="M359.49 536.36l-0.24-0.38-187.63-301.83 85.04-147.5 0.44 0.71 239.39 385.07-0.51 0.24-136.49 63.69z m-186.7-302.23l187.09 300.94L495.04 472 256.69 88.61l-83.9 145.52zM705.72 229.87l-355.08 3.49-81.29-148.3 472.45 2.57z" fill="#B0C34C" p-id="2362"></path><path d="M350.34 233.86l-0.14-0.26-81.7-149.05h0.85l473.09 2.58-36.33 143.23h-0.39l-355.38 3.5zM270.2 85.57l80.73 147.28 354.39-3.48 35.82-141.24-470.94-2.56z" fill="#B0C34C" p-id="2363"></path><path d="M347.44 545.1L160.49 235.72c-2.45-4.05-2.41-9.13 0.09-13.14L250.47 78.1c2.32-3.73 6.43-6 10.83-5.93 4.4 0.05 8.45 2.4 10.68 6.19L506.6 477.05l-21.67 12.75-224.09-380.78-74.85 120.3L368.96 532.1l-21.52 13z" fill="#070A0C" p-id="2364"></path><path d="M203.903 165.438l21.83-12.472 197.313 345.349-21.829 12.472z" fill="#070A0C" p-id="2365"></path><path d="M181.92 235.86l-21.35-13.28 89.9-144.48c2.29-3.69 6.33-5.93 10.67-5.93h491.08v25.14h-484.1l-86.2 138.55z" fill="#070A0C" p-id="2366"></path><path d="M517.6 483.43L752.22 84.74l89.89 144.48L655.17 538.6" fill="#B0C34C" p-id="2367"></path><path d="M665.92 545.1l-21.52-13 182.96-302.78-74.85-120.3L528.43 489.8l-21.67-12.75L741.39 78.37c2.23-3.79 6.28-6.14 10.68-6.19 4.37-0.08 8.5 2.19 10.83 5.93l89.89 144.48c2.5 4.02 2.53 9.09 0.09 13.14L665.92 545.1z" fill="#070A0C" p-id="2368"></path><path d="M798.55 159.21l-197.3 345.34" fill="#B0C34C" p-id="2369"></path><path d="M590.341 498.297l197.314-345.35 21.829 12.473L612.17 510.769z" fill="#070A0C" p-id="2370"></path><path d="M752.22 84.74l89.89 144.48" fill="#B0C34C" p-id="2371"></path><path d="M741.573 91.365l21.346-13.281 89.895 144.483-21.346 13.281z" fill="#070A0C" p-id="2372"></path><path d="M304.96 146.64h404.75v25.14H304.96zM346.17 216.65h323.81v25.14H346.17z" fill="#070A0C" p-id="2373"></path><path d="M509.24 712.87m-232.55 0a232.55 232.55 0 1 0 465.1 0 232.55 232.55 0 1 0-465.1 0Z" fill="#33ABDF" p-id="2374"></path><path d="M509.24 957.99c-65.48 0-127.03-25.5-173.33-71.79-46.3-46.3-71.8-107.85-71.8-173.33 0-65.48 25.5-127.03 71.8-173.33s107.85-71.79 173.33-71.79 127.03 25.5 173.33 71.79 71.8 107.85 71.8 173.33c0 65.47-25.5 127.03-71.8 173.33-46.29 46.3-107.85 71.79-173.33 71.79z m0-465.1c-121.3 0-219.98 98.68-219.98 219.98s98.68 219.98 219.98 219.98c121.3 0 219.98-98.68 219.98-219.98s-98.68-219.98-219.98-219.98z" fill="#070A0C" p-id="2375"></path><path d="M510.3 713.54m-169.56 0a169.56 169.56 0 1 0 339.12 0 169.56 169.56 0 1 0-339.12 0Z" fill="#F9EED8" p-id="2376"></path><path d="M510.3 895.67c-100.43 0-182.13-81.7-182.13-182.13 0-100.43 81.7-182.13 182.13-182.13s182.13 81.7 182.13 182.13c0 100.42-81.71 182.13-182.13 182.13z m0-339.12c-86.56 0-156.99 70.42-156.99 156.99 0 86.56 70.42 156.99 156.99 156.99s156.99-70.42 156.99-156.99c0-86.56-70.43-156.99-156.99-156.99z" fill="#070A0C" p-id="2377"></path><path d="M511.35 600.81l32.44 65.73 72.54 10.54-52.49 51.17 12.39 72.24-64.88-34.11-64.88 34.11 12.39-72.24-52.48-51.17 72.53-10.54z" fill="#FDBC2D" p-id="2378"></path><path d="M576.23 813.06c-2 0-4.01-0.48-5.85-1.44l-59.03-31.03-59.03 31.03c-4.24 2.23-9.37 1.86-13.24-0.96s-5.81-7.58-5-12.29l11.27-65.73-47.76-46.55a12.578 12.578 0 0 1 6.97-21.45l66-9.59 29.51-59.8c2.12-4.29 6.49-7.01 11.27-7.01 4.78 0 9.15 2.72 11.27 7.01l29.51 59.8 66 9.59c4.74 0.69 8.67 4 10.15 8.56 1.48 4.55 0.25 9.55-3.18 12.89l-47.76 46.55 11.27 65.73c0.81 4.72-1.13 9.48-5 12.29a12.46 12.46 0 0 1-7.37 2.4z m-64.88-59.25c2.01 0 4.02 0.48 5.85 1.44l42.33 22.26-8.08-47.14c-0.7-4.08 0.65-8.24 3.62-11.13l34.25-33.38-47.33-6.88c-4.09-0.6-7.63-3.17-9.46-6.88l-21.17-42.89-21.17 42.89a12.584 12.584 0 0 1-9.46 6.88l-47.33 6.88 34.25 33.38c2.96 2.89 4.31 7.05 3.62 11.13l-8.09 47.14 42.33-22.26a12.52 12.52 0 0 1 5.84-1.44z" fill="#070A0C" p-id="2379"></path></svg>