<?xml version="1.0" standalone="no"?><!DOCTYPE svg PUBLIC "-//W3C//DTD SVG 1.1//EN" "http://www.w3.org/Graphics/SVG/1.1/DTD/svg11.dtd"><svg t="1660299153488" class="icon" viewBox="0 0 1024 1024" version="1.1" xmlns="http://www.w3.org/2000/svg" p-id="3305" xmlns:xlink="http://www.w3.org/1999/xlink" width="200" height="200"><defs><style type="text/css">@font-face { font-family: feedback-iconfont; src: url("//at.alicdn.com/t/font_1031158_u69w8yhxdu.woff2?t=1630033759944") format("woff2"), url("//at.alicdn.com/t/font_1031158_u69w8yhxdu.woff?t=1630033759944") format("woff"), url("//at.alicdn.com/t/font_1031158_u69w8yhxdu.ttf?t=1630033759944") format("truetype"); }
</style></defs><path d="M860.39 835.15H158.17c-19.29 0-34.92-15.64-34.92-34.92v-32.54c0-19.29 15.64-34.92 34.92-34.92h702.22c19.29 0 34.92 15.64 34.92 34.92v32.54c0.01 19.28-15.63 34.92-34.92 34.92z" fill="#F9EED8" p-id="3306"></path><path d="M860.39 847.57H158.17c-26.11 0-47.35-21.24-47.35-47.35v-32.54c0-26.11 21.24-47.35 47.35-47.35h702.22c26.11 0 47.35 21.24 47.35 47.35v32.54c0.01 26.11-21.24 47.35-47.35 47.35zM158.17 745.18c-12.4 0-22.5 10.09-22.5 22.5v32.54c0 12.4 10.09 22.5 22.5 22.5h702.22c12.4 0 22.5-10.09 22.5-22.5v-32.54c0-12.4-10.09-22.5-22.5-22.5H158.17z" p-id="3307"></path><path d="M872.18 732.76H153.44V533.44c0-33.56 27.21-60.77 60.77-60.77H811.4c33.56 0 60.77 27.21 60.77 60.77v199.32z" fill="#FDBC2D" p-id="3308"></path><path d="M884.6 745.18H141.01V533.44c0-40.36 32.84-73.2 73.2-73.2H811.4c40.36 0 73.2 32.84 73.2 73.2v211.74z m-718.73-24.85h693.88V533.44c0-26.66-21.69-48.35-48.35-48.35H214.22c-26.66 0-48.35 21.69-48.35 48.35v186.89z" p-id="3309"></path><path d="M220.15 270.28h580.28v202.39H220.15z" fill="#33ABDF" p-id="3310"></path><path d="M812.86 485.1H207.72V257.85h605.14V485.1z m-580.29-24.86H788V282.71H232.57v177.53z" p-id="3311"></path><path d="M817.64 270.28H203.75c-5.23 0-9.48-4.24-9.48-9.48v-69.04c0-4.45 3.62-6.89 7.2-9.2 3.08-1.99 104.09-41.02 169.47-54.09 71.36-14.26 126.28-14.72 140.12-14.72 16.25-0.01 88.32 0.55 180.73 24.37a781.94 781.94 0 0 1 125.85 44.17c0.63 0 9.48 6.86 9.48 9.48v69.04c0 5.23-4.25 9.47-9.48 9.47z" fill="#FDBC2D" p-id="3312"></path><path d="M817.64 282.71H203.75c-12.08 0-21.9-9.83-21.9-21.9v-69.04c0-11.33 8.71-16.94 12.89-19.64 5.02-3.24 107.22-42.53 173.77-55.83 65.01-12.99 117.21-14.95 142.55-14.96h0.21c26.5 0 97.01 2.43 183.63 24.76 43.44 11.2 86.16 26.16 126.99 44.48 2.32 0.85 5.01 2.64 9 6.2 4.28 3.82 8.66 8.58 8.66 15v69.04c-0.01 12.06-9.83 21.89-21.91 21.89zM206.7 257.85h607.99v-62.22c-0.9-0.82-1.96-1.71-2.72-2.27-39.63-17.8-81.11-32.34-123.28-43.21-83.87-21.62-151.87-23.97-177.42-23.97h-0.2c-24.42 0.01-74.77 1.91-137.69 14.48-61.13 12.22-156.51 48.55-165.73 52.71-0.3 0.2-0.63 0.42-0.95 0.63v63.85z" p-id="3313"></path><path d="M262.74 607.52m-54.13 0a54.13 54.13 0 1 0 108.26 0 54.13 54.13 0 1 0-108.26 0Z" fill="#F5EAD4" p-id="3314"></path><path d="M262.74 674.08c-36.7 0-66.56-29.86-66.56-66.56s29.86-66.56 66.56-66.56 66.56 29.86 66.56 66.56-29.86 66.56-66.56 66.56z m0-108.26c-23 0-41.71 18.71-41.71 41.71s18.71 41.71 41.71 41.71 41.71-18.71 41.71-41.71-18.71-41.71-41.71-41.71z" p-id="3315"></path><path d="M760.05 607.52m-54.13 0a54.13 54.13 0 1 0 108.26 0 54.13 54.13 0 1 0-108.26 0Z" fill="#F5EAD4" p-id="3316"></path><path d="M760.05 674.08c-36.7 0-66.56-29.86-66.56-66.56s29.86-66.56 66.56-66.56 66.56 29.86 66.56 66.56-29.86 66.56-66.56 66.56z m0-108.26c-23 0-41.71 18.71-41.71 41.71s18.71 41.71 41.71 41.71 41.71-18.71 41.71-41.71-18.71-41.71-41.71-41.71zM382.54 686.47c-6.86 0-12.43-5.56-12.43-12.43V550.68c0-6.86 5.56-12.43 12.43-12.43s12.43 5.56 12.43 12.43v123.36c-0.01 6.87-5.57 12.43-12.43 12.43zM445.74 686.47c-6.86 0-12.43-5.56-12.43-12.43V550.68c0-6.86 5.56-12.43 12.43-12.43s12.43 5.56 12.43 12.43v123.36c0 6.87-5.56 12.43-12.43 12.43zM508.95 686.47c-6.86 0-12.43-5.56-12.43-12.43V550.68c0-6.86 5.56-12.43 12.43-12.43 6.86 0 12.43 5.56 12.43 12.43v123.36c-0.01 6.87-5.57 12.43-12.43 12.43zM572.15 686.47c-6.86 0-12.43-5.56-12.43-12.43V550.68c0-6.86 5.56-12.43 12.43-12.43s12.43 5.56 12.43 12.43v123.36c0 6.87-5.56 12.43-12.43 12.43zM635.36 686.47c-6.86 0-12.43-5.56-12.43-12.43V550.68c0-6.86 5.56-12.43 12.43-12.43s12.43 5.56 12.43 12.43v123.36c-0.01 6.87-5.57 12.43-12.43 12.43z" p-id="3317"></path><path d="M300.96 928.05h-55.81c-27.42 0-49.65-22.23-49.65-49.65v-43.26h155.1v43.26c0 27.42-22.23 49.65-49.64 49.65z" fill="#494B5A" p-id="3318"></path><path d="M300.95 940.48h-55.81c-34.23 0-62.07-27.85-62.07-62.07v-55.68h179.96v55.68c0 34.22-27.85 62.07-62.08 62.07z m-93.03-92.91v30.83c0 20.52 16.7 37.22 37.22 37.22h55.81c20.52 0 37.22-16.7 37.22-37.22v-30.83H207.92z" p-id="3319"></path><path d="M774.65 928.05h-55.81c-27.42 0-49.65-22.23-49.65-49.65v-43.26h155.1v43.26c0.01 27.42-22.22 49.65-49.64 49.65z" fill="#494B5A" p-id="3320"></path><path d="M774.65 940.48h-55.81c-34.23 0-62.07-27.85-62.07-62.07v-55.68h179.96v55.68c0 34.22-27.85 62.07-62.08 62.07z m-93.03-92.91v30.83c0 20.52 16.7 37.22 37.22 37.22h55.81c20.52 0 37.22-16.7 37.22-37.22v-30.83H681.62zM510.7 485.1h-0.15c-6.86-0.08-12.36-5.71-12.28-12.57l2.38-202.39c0.08-6.81 5.63-12.28 12.42-12.28h0.15c6.86 0.08 12.36 5.71 12.28 12.57l-2.38 202.39c-0.08 6.81-5.63 12.28-12.42 12.28zM761.34 225.68h-67c-6.86 0-12.43-5.56-12.43-12.43s5.56-12.43 12.43-12.43h67c6.86 0 12.43 5.56 12.43 12.43s-5.57 12.43-12.43 12.43zM325.76 225.68h-67c-6.86 0-12.43-5.56-12.43-12.43s5.56-12.43 12.43-12.43h67c6.86 0 12.43 5.56 12.43 12.43s-5.57 12.43-12.43 12.43zM517.35 232.53c-9.81 0-18.4-2.06-25.45-4.75-19.13-7.3-30.33-20.37-31.54-21.83-4.38-5.29-3.64-13.12 1.65-17.5 5.27-4.36 13.07-3.64 17.46 1.6 0.26 0.3 8.65 9.95 22.13 14.82 17.42 6.3 35.76 1.92 54.52-13.01 5.37-4.27 13.19-3.39 17.46 1.98 4.28 5.37 3.39 13.19-1.98 17.46-20.17 16.06-38.72 21.23-54.25 21.23z" p-id="3321"></path><path d="M419.17 178.64m-15.23 0a15.23 15.23 0 1 0 30.46 0 15.23 15.23 0 1 0-30.46 0Z" p-id="3322"></path><path d="M615.13 178.64m-15.23 0a15.23 15.23 0 1 0 30.46 0 15.23 15.23 0 1 0-30.46 0Z" p-id="3323"></path><path d="M900.39 427.99c-19.37 0-35.08-15.71-35.08-35.08v-63.36c0-19.37 15.71-35.08 35.08-35.08 19.37 0 35.08 15.71 35.08 35.08v63.36c0 19.38-15.71 35.08-35.08 35.08z" fill="#FDBC2D" p-id="3324"></path><path d="M900.39 440.42c-26.19 0-47.51-21.31-47.51-47.51v-63.36c0-26.19 21.31-47.51 47.51-47.51s47.51 21.31 47.51 47.51v63.36c0 26.2-21.32 47.51-47.51 47.51z m0-133.51c-12.49 0-22.65 10.16-22.65 22.65v63.36c0 12.49 10.16 22.65 22.65 22.65s22.65-10.16 22.65-22.65v-63.36c0-12.49-10.16-22.65-22.65-22.65z" p-id="3325"></path><path d="M800.43 317.13h64.88v24.86h-64.88zM800.43 380.49h64.88v24.86h-64.88z" p-id="3326"></path><path d="M121 427.99c19.37 0 35.08-15.71 35.08-35.08v-63.36c0-19.37-15.71-35.08-35.08-35.08-19.37 0-35.08 15.71-35.08 35.08v63.36c0 19.38 15.71 35.08 35.08 35.08z" fill="#FDBC2D" p-id="3327"></path><path d="M121 440.42c-26.19 0-47.51-21.31-47.51-47.51v-63.36c0-26.19 21.31-47.51 47.51-47.51s47.51 21.31 47.51 47.51v63.36c0 26.2-21.31 47.51-47.51 47.51z m0-133.51c-12.49 0-22.65 10.16-22.65 22.65v63.36c0 12.49 10.16 22.65 22.65 22.65s22.65-10.16 22.65-22.65v-63.36c0-12.49-10.16-22.65-22.65-22.65z" p-id="3328"></path><path d="M156.08 317.13h64.88v24.86h-64.88zM156.08 380.49h64.88v24.86h-64.88z" p-id="3329"></path></svg>