<?xml version="1.0" standalone="no"?><!DOCTYPE svg PUBLIC "-//W3C//DTD SVG 1.1//EN" "http://www.w3.org/Graphics/SVG/1.1/DTD/svg11.dtd"><svg t="1660299080988" class="icon" viewBox="0 0 1024 1024" version="1.1" xmlns="http://www.w3.org/2000/svg" p-id="1276" xmlns:xlink="http://www.w3.org/1999/xlink" width="200" height="200"><defs><style type="text/css">@font-face { font-family: feedback-iconfont; src: url("//at.alicdn.com/t/font_1031158_u69w8yhxdu.woff2?t=1630033759944") format("woff2"), url("//at.alicdn.com/t/font_1031158_u69w8yhxdu.woff?t=1630033759944") format("woff"), url("//at.alicdn.com/t/font_1031158_u69w8yhxdu.ttf?t=1630033759944") format("truetype"); }
</style></defs><path d="M178.88 415.61l-76.52 405.51c-1.77 9.37-0.97 19.04 2.37 27.97 7.32 19.53 24.35 50.39 58.79 50.39 36.28 0 58.53-30.26 68.15-47.2 3.58-6.3 5.78-13.29 6.51-20.5l42.05-416.17H178.88z" fill="#FDBC2D" p-id="1277"></path><path d="M163.53 911.56c-31.12 0-56.02-20.68-70.1-58.23-4.11-10.95-5.12-22.86-2.93-34.45l76.52-405.51c1.08-5.71 6.06-9.84 11.87-9.84h101.35a12.083 12.083 0 0 1 12.02 13.3L250.2 832.99c-0.91 8.97-3.6 17.47-8.02 25.25-11.3 19.91-36.55 53.32-78.65 53.32z m25.37-483.87l-74.66 395.67c-1.37 7.25-0.74 14.67 1.81 21.49 7.28 19.41 21.43 42.55 47.47 42.55 29.86 0 48.93-25.74 57.64-41.08 2.75-4.84 4.43-10.14 4.99-15.75l40.71-402.87H188.9z" p-id="1278"></path><path d="M738.86 415.61l47.29 422.24c0.66 5.93 2.34 11.7 4.95 17.08 8.06 16.6 28.35 48.33 64.47 44.55 29.85-3.12 47.22-25.14 56.2-41.69a52.31 52.31 0 0 0 5.63-33.25l-65.93-408.92H738.86z" fill="#FDBC2D" p-id="1279"></path><path d="M849.85 911.86c-28.42 0-53.51-18.48-69.62-51.66a64.151 64.151 0 0 1-6.08-21.01l-47.29-422.24c-0.38-3.42 0.71-6.84 3-9.4s5.57-4.03 9.01-4.03h112.61c5.93 0 10.98 4.3 11.93 10.16l65.93 408.92c2.25 13.98-0.21 28.52-6.94 40.93-15.23 28.1-38.52 45.13-65.57 47.96-2.35 0.25-4.68 0.37-6.98 0.37z m-97.48-484.17l45.79 408.81a40.23 40.23 0 0 0 3.81 13.15c7.47 15.38 24.2 40.77 52.34 37.81 24.2-2.53 38.83-20.67 46.83-35.44 4.2-7.75 5.74-16.83 4.33-25.57l-64.29-398.76h-88.81z" p-id="1280"></path><path d="M774.34 732.37H248.22l11.25-111.28h502.4z" fill="#B0C34C" p-id="1281"></path><path d="M774.34 744.46H248.22a12.083 12.083 0 0 1-12.02-13.3l11.24-111.28c0.62-6.17 5.82-10.87 12.02-10.87h502.41c6.15 0 11.32 4.62 12.01 10.74l12.46 111.28c0.38 3.42-0.71 6.84-3 9.4a12.076 12.076 0 0 1-9 4.03z m-512.75-24.17h499.24l-9.76-87.11H270.39l-8.8 87.11z" p-id="1282"></path><path d="M93.66 303.24L237.3 142.38a43.214 43.214 0 0 1 32.47-14.43l490.2 2.83c13.79 0.08 26.91 5.91 36.21 16.09L939 303.24" fill="#33ABDF" p-id="1283"></path><path d="M93.65 315.33c-2.86 0-5.74-1.01-8.04-3.07-4.98-4.45-5.41-12.08-0.96-17.06L228.3 134.34c10.56-11.83 25.72-18.53 41.56-18.46l490.2 2.83c17.1 0.1 33.53 7.4 45.06 20.03l142.8 156.36c4.5 4.93 4.15 12.57-0.77 17.07s-12.57 4.15-17.07-0.77L787.26 155.03a37.43 37.43 0 0 0-27.36-12.16l-490.2-2.83h-0.18a31.12 31.12 0 0 0-23.21 10.39L102.67 311.29c-2.39 2.68-5.7 4.04-9.02 4.04z" p-id="1284"></path><path d="M93.66 303.24H939l-20.93 95.21s-6.71 24.57-33.58 19.19c-26.87-5.37-733.24-3.84-733.24-3.84s-33.02 6.91-38.39-22.27c-5.38-29.17-19.2-88.29-19.2-88.29z" fill="#33ABDF" p-id="1285"></path><path d="M891.71 430.48c-3.02 0-6.22-0.31-9.6-0.99-21.74-3.76-447.92-4.22-729.78-3.61-5.12 0.84-21.73 2.65-35.29-6.46-8.47-5.69-14.03-14.57-16.08-25.7-5.26-28.56-18.94-87.15-19.08-87.73a12.08 12.08 0 0 1 11.77-14.83H939c3.66 0 7.12 1.66 9.42 4.51s3.17 6.59 2.38 10.17l-20.93 95.21c-0.04 0.2-0.09 0.39-0.15 0.59-3.42 12.51-16.1 28.84-38.01 28.84zM370.52 401.5c211.68 0 498.23 0.68 516.34 4.3 8.76 1.75 12.86-1.14 15.18-3.46 2.75-2.76 4.04-6.11 4.35-7l17.59-80.01H108.85c4.47 19.53 12.14 53.66 15.89 74.02 1.16 6.28 3.85 8.72 5.78 10.02 6.06 4.07 15.94 3.1 18.25 2.61 0.81-0.17 1.63-0.25 2.45-0.26 24.32-0.05 112.24-0.22 219.3-0.22z" p-id="1286"></path></svg>