<?xml version="1.0" standalone="no"?><!DOCTYPE svg PUBLIC "-//W3C//DTD SVG 1.1//EN" "http://www.w3.org/Graphics/SVG/1.1/DTD/svg11.dtd"><svg t="1660299167927" class="icon" viewBox="0 0 1024 1024" version="1.1" xmlns="http://www.w3.org/2000/svg" p-id="3949" xmlns:xlink="http://www.w3.org/1999/xlink" width="200" height="200"><defs><style type="text/css">@font-face { font-family: feedback-iconfont; src: url("//at.alicdn.com/t/font_1031158_u69w8yhxdu.woff2?t=1630033759944") format("woff2"), url("//at.alicdn.com/t/font_1031158_u69w8yhxdu.woff?t=1630033759944") format("woff"), url("//at.alicdn.com/t/font_1031158_u69w8yhxdu.ttf?t=1630033759944") format("truetype"); }
</style></defs><path d="M255.53 934.34H146.1c-19.85 0-35.95-16.09-35.95-35.95V130.02c0-19.85 16.09-35.95 35.95-35.95h109.43c19.85 0 35.95 16.09 35.95 35.95V898.4c-0.01 19.85-16.1 35.94-35.95 35.94z" fill="#33ABE0" p-id="3950"></path><path d="M255.53 946.61H146.1c-26.58 0-48.21-21.63-48.21-48.21V130.02c0-26.58 21.63-48.21 48.21-48.21h109.43c26.58 0 48.21 21.63 48.21 48.21V898.4c0 26.58-21.63 48.21-48.21 48.21zM146.1 106.33c-13.06 0-23.68 10.62-23.68 23.68V898.4c0 13.06 10.62 23.68 23.68 23.68h109.43c13.06 0 23.68-10.62 23.68-23.68V130.02c0-13.06-10.62-23.68-23.68-23.68H146.1z" p-id="3951"></path><path d="M110.15 326.06h181.32v24.53H110.15z" fill="#070707" p-id="3952"></path><path d="M498.39 933.46H388.96c-19.85 0-35.95-16.09-35.95-35.95V129.13c0-19.85 16.09-35.95 35.95-35.95h109.43c19.85 0 35.95 16.09 35.95 35.95v768.38c0 19.86-16.1 35.95-35.95 35.95z" fill="#33ABE0" p-id="3953"></path><path d="M498.39 945.72H388.96c-26.58 0-48.21-21.63-48.21-48.21V129.13c0-26.58 21.63-48.21 48.21-48.21h109.43c26.58 0 48.21 21.63 48.21 48.21v768.38c0 26.59-21.63 48.21-48.21 48.21zM388.96 105.45c-13.06 0-23.68 10.62-23.68 23.68v768.38c0 13.06 10.62 23.68 23.68 23.68h109.43c13.06 0 23.68-10.62 23.68-23.68V129.13c0-13.06-10.62-23.68-23.68-23.68H388.96z" p-id="3954"></path><path d="M353.01 326.06h181.32v24.53H353.01z" p-id="3955"></path><path d="M905.71 892.07l-104.79 32.65c-19.01 5.92-39.06-5.23-44.78-24.9L542.89 166.46c-5.72-19.68 5.05-40.43 24.06-46.35l104.79-32.65c19.01-5.92 39.06 5.23 44.78 24.9l213.26 733.35c5.71 19.68-5.06 40.44-24.07 46.36z" fill="#FFBE2C" p-id="3956"></path><path d="M790.51 938.58c-7.69 0-15.31-1.9-22.3-5.66-11.62-6.24-20.09-16.79-23.84-29.68L531.11 169.89c-7.57-26.02 6.87-53.6 32.19-61.49l104.79-32.65c12.18-3.79 25.09-2.55 36.36 3.51 11.62 6.24 20.09 16.78 23.84 29.68l213.26 733.35c7.57 26.02-6.87 53.6-32.19 61.49l-104.79 32.65a47.193 47.193 0 0 1-14.06 2.15zM682.11 98.14c-2.25 0-4.52 0.34-6.73 1.03l-104.79 32.65c-12.65 3.94-19.79 17.95-15.93 31.22l213.26 733.35c1.9 6.52 6.12 11.82 11.9 14.92 5.42 2.91 11.62 3.51 17.46 1.7l104.79-32.65c12.65-3.94 19.79-17.95 15.93-31.22L704.74 115.79c-1.9-6.52-6.12-11.82-11.9-14.92a22.49 22.49 0 0 0-10.73-2.73z" fill="#020202" p-id="3957"></path><path d="M600.79 365.57l173.62-54.1" fill="#FFBE2C" p-id="3958"></path><path d="M597.13 353.842l173.621-54.104 7.298 23.42-173.622 54.103z" fill="#020202" p-id="3959"></path><path d="M577.38 116.86l55.34 191.49 33.49-53.52 53.98 28.61-59.52-192.53z" fill="#B0C34C" p-id="3960"></path><path d="M632.72 320.61c-0.56 0-1.13-0.04-1.7-0.12-4.79-0.67-8.74-4.09-10.08-8.74L565.6 120.26c-1.85-6.41 1.76-13.13 8.13-15.11l83.29-25.95c3.11-0.97 6.48-0.66 9.36 0.86a12.27 12.27 0 0 1 6 7.23l59.51 192.53c1.47 4.74-0.07 9.9-3.9 13.07a12.258 12.258 0 0 1-13.56 1.39l-43.89-23.27-27.44 43.84c-2.25 3.61-6.2 5.76-10.38 5.76zM592.5 124.99l44.38 153.59 18.93-30.26c3.41-5.45 10.46-7.34 16.14-4.33l27.75 14.71-47.12-152.43-60.08 18.72z" p-id="3961"></path></svg>