<?xml version="1.0" standalone="no"?><!DOCTYPE svg PUBLIC "-//W3C//DTD SVG 1.1//EN" "http://www.w3.org/Graphics/SVG/1.1/DTD/svg11.dtd"><svg t="1660299146648" class="icon" viewBox="0 0 1024 1024" version="1.1" xmlns="http://www.w3.org/2000/svg" p-id="2988" xmlns:xlink="http://www.w3.org/1999/xlink" width="200" height="200"><defs><style type="text/css">@font-face { font-family: feedback-iconfont; src: url("//at.alicdn.com/t/font_1031158_u69w8yhxdu.woff2?t=1630033759944") format("woff2"), url("//at.alicdn.com/t/font_1031158_u69w8yhxdu.woff?t=1630033759944") format("woff"), url("//at.alicdn.com/t/font_1031158_u69w8yhxdu.ttf?t=1630033759944") format("truetype"); }
</style></defs><path d="M511.47 270.57m-109.57 0a109.57 109.57 0 1 0 219.14 0 109.57 109.57 0 1 0-219.14 0Z" fill="#33ABDF" p-id="2989"></path><path d="M512.01 268.14m-33.32 0a33.32 33.32 0 1 0 66.64 0 33.32 33.32 0 1 0-66.64 0Z" fill="#FFFFFF" p-id="2990"></path><path d="M698.83 875.77l-187.5-484.38 85.98-33.28 161.71 417.76c14.24 36.8-4.04 78.17-40.83 92.42l-19.36 7.48zM315.62 875.77l187.5-484.38-85.98-33.28-161.71 417.75c-14.24 36.8 4.04 78.17 40.83 92.42l19.36 7.49z" fill="#B0C34C" p-id="2991"></path><path d="M866.61 673.66m-48.83 0a48.83 48.83 0 1 0 97.66 0 48.83 48.83 0 1 0-97.66 0Z" fill="#FFBE2C" p-id="2992"></path><path d="M148.59 673.66m-48.83 0a48.83 48.83 0 1 0 97.66 0 48.83 48.83 0 1 0-97.66 0Z" fill="#FFBE2C" p-id="2993"></path><path d="M510.82 390.39c-67.51 0-122.43-53.48-122.43-119.22s54.92-119.22 122.43-119.22 122.43 53.48 122.43 119.22-54.92 119.22-122.43 119.22z m0-213.48c-53.51 0-97.05 42.23-97.05 94.14s43.54 94.14 97.05 94.14 97.05-42.23 97.05-94.14-43.54-94.14-97.05-94.14z" fill="#2B2B2B" p-id="2994"></path><path d="M281.29 954.56c-1.57 0-3.17-0.3-4.73-0.92-3.25-1.29-5.77-3.74-7.09-6.89-1.28-3.06-1.27-6.43 0.02-9.5l229.55-564.19 0.05-0.12c2.09-4.64 6.69-7.63 11.73-7.63 5.16 0 9.88 3.27 11.76 8.13l0.04 0.1 208.03 564.14c1.15 3.07 1.01 6.44-0.39 9.46-1.41 3.03-4.04 5.42-7.23 6.58-1.86 0.7-3.51 0.7-4.3 0.7-5.34 0-10.14-3.32-11.93-8.26L510.23 412.9 292.99 946.66c-2.09 4.96-6.74 7.9-11.7 7.9z m1.78-11.73l-0.02 0.04c0.01-0.02 0.02-0.03 0.02-0.04z m433.8-0.05c0 0.01 0 0.01 0.01 0.02l-0.01-0.02z m3.71-1.7l0.01 0.02c-0.01 0-0.01-0.01-0.01-0.02zM868.4 736.29c-35.88 0-65.07-28.47-65.07-63.47s29.19-63.47 65.07-63.47 65.07 28.47 65.07 63.47-29.19 63.47-65.07 63.47z m0-101.73c-21.89 0-39.69 17.22-39.69 38.38s17.81 38.38 39.69 38.38 39.69-17.22 39.69-38.38-17.81-38.38-39.69-38.38zM148.59 736.29c-35.88 0-65.07-28.47-65.07-63.47s29.19-63.47 65.07-63.47 65.07 28.47 65.07 63.47c-0.13 35.01-29.32 63.47-65.07 63.47z m0-101.73c-21.89 0-39.69 17.22-39.69 38.38s17.81 38.38 39.69 38.38 39.69-17.22 39.69-38.38-17.8-38.38-39.69-38.38z m362.23-315.7c-26.94 0-48.85-21.4-48.85-47.69s21.91-47.69 48.85-47.69 48.85 21.39 48.85 47.69-21.91 47.69-48.85 47.69z m0-70.42c-12.94 0-23.47 10.14-23.47 22.61s10.53 22.61 23.47 22.61 23.47-10.14 23.47-22.61-10.53-22.61-23.47-22.61z m0-71.53c-7.03 0-12.75-5.65-12.75-12.6V84.47c0-6.95 5.72-12.6 12.75-12.6s12.75 5.65 12.75 12.6l-0.01 80.15c-0.29 6.89-5.89 12.29-12.74 12.29z" fill="#2B2B2B" p-id="2995"></path><path d="M713.07 887.65c-4.4 0-8.41-2.19-10.73-5.86-3.7-6-1.91-13.59 4.04-17.35l0.13-0.08c52.2-31.52 42.66-82.59 41.41-88.26L580.54 346.62c-1.17-3.13-1.03-6.66 0.39-9.7 1.44-3.08 3.99-5.39 7.19-6.52 6.56-2.32 13.85 1 16.24 7.41l167.29 429.64c0.36 0.72 0.64 1.57 0.76 2.57 1.38 6.13 4.07 22.01 0.58 41.41-3.77 21.48-16.05 51.79-53.06 74.13-1.92 1.37-4.28 2.09-6.86 2.09zM590.64 343.04c0.01 0.02 0.01 0.03 0.02 0.05l-0.02-0.05zM308.45 887.65c-2.22 0-4.35-0.56-6.33-1.66l-0.24-0.14c-37-22.42-49.44-52.78-53.35-74.29-3.54-19.63-0.74-35.64 0.62-41.62l0.01-0.04c0-0.01 0-0.02 0.01-0.04v-0.49L417.2 337.82c2.36-6.31 9.65-9.63 16.21-7.32 3.2 1.13 5.75 3.45 7.19 6.53 1.44 3.08 1.57 6.52 0.39 9.7l-0.04 0.09L273.6 776.25c-0.52 2.29-3.08 15.06-0.17 31.36 4.37 23.69 18.31 42.83 41.44 56.85 2.88 1.7 4.92 4.44 5.74 7.71 0.82 3.28 0.28 6.8-1.49 9.67-2.15 3.56-6.25 5.81-10.67 5.81z m122.47-544.58l-0.02 0.06c0-0.02 0.01-0.04 0.02-0.06z" fill="#2B2B2B" p-id="2996"></path><path d="M816.07 685.42h-94.83c-7.03 0-12.75-5.65-12.75-12.6 0-6.95 5.72-12.6 12.75-12.6h94.83c7.03 0 12.75 5.65 12.75 12.6 0.01 6.95-5.71 12.6-12.75 12.6z m-195.45 0H390.71c-7.03 0-12.75-5.65-12.75-12.6 0-6.95 5.72-12.6 12.75-12.6h229.91c7.03 0 12.75 5.65 12.75 12.6 0.01 6.95-5.72 12.6-12.75 12.6z m-320.34 0h-99.36c-7.03 0-12.75-5.65-12.75-12.6 0-6.95 5.72-12.6 12.75-12.6h99.36c7.03 0 12.75 5.65 12.75 12.6 0 6.95-5.72 12.6-12.75 12.6z" fill="#2B2B2B" p-id="2997"></path><path d="M510.82 755.85c-7.03 0-12.75-5.65-12.75-12.6v-134.5c0-6.95 5.72-12.6 12.75-12.6s12.75 5.65 12.75 12.6l-0.01 134.94c-0.3 6.82-5.89 12.16-12.74 12.16z" fill="#2B2B2B" p-id="2998"></path></svg>