<?xml version="1.0" standalone="no"?><!DOCTYPE svg PUBLIC "-//W3C//DTD SVG 1.1//EN" "http://www.w3.org/Graphics/SVG/1.1/DTD/svg11.dtd"><svg t="1660299150110" class="icon" viewBox="0 0 1024 1024" version="1.1" xmlns="http://www.w3.org/2000/svg" p-id="3142" xmlns:xlink="http://www.w3.org/1999/xlink" width="200" height="200"><defs><style type="text/css">@font-face { font-family: feedback-iconfont; src: url("//at.alicdn.com/t/font_1031158_u69w8yhxdu.woff2?t=1630033759944") format("woff2"), url("//at.alicdn.com/t/font_1031158_u69w8yhxdu.woff?t=1630033759944") format("woff"), url("//at.alicdn.com/t/font_1031158_u69w8yhxdu.ttf?t=1630033759944") format("truetype"); }
</style></defs><path d="M512.81 519.75m-432.49 0a432.49 432.49 0 1 0 864.98 0 432.49 432.49 0 1 0-864.98 0Z" fill="#33ABDF" p-id="3143"></path><path d="M512.81 966.3c-60.28 0-118.76-11.81-173.82-35.1-53.18-22.49-100.93-54.69-141.94-95.69-41.01-41.01-73.2-88.76-95.69-141.94-23.29-55.06-35.1-113.54-35.1-173.82s11.81-118.76 35.1-173.82c22.49-53.18 54.69-100.93 95.69-141.94 41.01-41.01 88.76-73.2 141.94-95.69 55.06-23.29 113.54-35.1 173.82-35.1s118.76 11.81 173.82 35.1c53.18 22.49 100.93 54.69 141.94 95.69 41.01 41.01 73.2 88.76 95.69 141.94 23.29 55.06 35.1 113.54 35.1 173.82s-11.81 118.76-35.1 173.82c-22.49 53.18-54.69 100.93-95.69 141.94-41.01 41.01-88.76 73.2-141.94 95.69-55.06 23.29-113.54 35.1-173.82 35.1z m0-864.98c-230.72 0-418.43 187.71-418.43 418.43s187.71 418.43 418.43 418.43 418.43-187.71 418.43-418.43-187.7-418.43-418.43-418.43z" fill="#020202" p-id="3144"></path><path d="M652.89 529.56H514c-7.76 0-14.06-6.29-14.06-14.06s6.29-14.06 14.06-14.06h138.9c7.76 0 14.06 6.29 14.06 14.06s-6.3 14.06-14.07 14.06z" fill="#020202" p-id="3145"></path><path d="M509.49 186.87l1.94 323.65" fill="#33ABDF" p-id="3146"></path><path d="M511.43 524.58c-7.73 0-14.01-6.24-14.06-13.97l-1.95-323.65c-0.05-7.77 6.21-14.1 13.98-14.14 7.76-0.03 14.1 6.21 14.14 13.97l1.95 323.65c0.05 7.77-6.21 14.1-13.98 14.14h-0.08z" fill="#020202" p-id="3147"></path><path d="M690.99 324.58l46.6-53.94" fill="#33ABDF" p-id="3148"></path><path d="M690.98 338.64c-3.26 0-6.53-1.13-9.19-3.42-5.88-5.08-6.52-13.96-1.45-19.83l46.6-53.94c5.08-5.88 13.95-6.52 19.83-1.45 5.88 5.08 6.52 13.96 1.45 19.83l-46.6 53.94c-2.77 3.22-6.69 4.87-10.64 4.87z" fill="#020202" p-id="3149"></path><path d="M706.24 687.26l46.6 53.94" fill="#33ABDF" p-id="3150"></path><path d="M752.85 755.26c-3.94 0-7.86-1.65-10.65-4.87l-46.6-53.94c-5.08-5.88-4.43-14.75 1.45-19.83 5.88-5.08 14.75-4.43 19.83 1.45l46.6 53.94c5.08 5.88 4.43 14.75-1.45 19.83a14.019 14.019 0 0 1-9.18 3.42z" fill="#020202" p-id="3151"></path><path d="M514.04 774.27l1.32 71.27" fill="#33ABDF" p-id="3152"></path><path d="M515.35 859.6c-7.64 0-13.91-6.13-14.05-13.8l-1.32-71.27c-0.14-7.76 6.03-14.17 13.8-14.32h0.26c7.64 0 13.91 6.13 14.05 13.8l1.32 71.27c0.14 7.76-6.03 14.17-13.8 14.32h-0.26z" fill="#020202" p-id="3153"></path><path d="M334.85 705.99l-46.6 53.94" fill="#33ABDF" p-id="3154"></path><path d="M288.24 773.99c-3.26 0-6.53-1.13-9.19-3.42-5.88-5.08-6.52-13.96-1.45-19.83l46.6-53.94c5.08-5.88 13.95-6.52 19.83-1.45 5.88 5.08 6.52 13.96 1.45 19.83l-46.6 53.94c-2.77 3.22-6.69 4.87-10.64 4.87z" fill="#020202" p-id="3155"></path><path d="M771.03 516.13l71.27-1.24" fill="#33ABDF" p-id="3156"></path><path d="M771.03 530.19c-7.65 0-13.92-6.13-14.05-13.82-0.14-7.76 6.05-14.17 13.81-14.3l71.27-1.24c7.76-0.1 14.17 6.05 14.3 13.81 0.14 7.76-6.05 14.17-13.81 14.3l-71.27 1.24c-0.09 0.01-0.17 0.01-0.25 0.01z" fill="#020202" p-id="3157"></path><path d="M250.67 516.13l-71.26-1.24" fill="#33ABDF" p-id="3158"></path><path d="M250.68 530.19h-0.25l-71.27-1.24c-7.76-0.13-13.95-6.54-13.81-14.3 0.13-7.68 6.4-13.82 14.05-13.82h0.25l71.27 1.24c7.76 0.13 13.95 6.54 13.81 14.3-0.13 7.68-6.4 13.82-14.05 13.82z" fill="#020202" p-id="3159"></path><path d="M316.14 333.78l-46.6-53.93" fill="#33ABDF" p-id="3160"></path><path d="M316.14 347.84c-3.94 0-7.86-1.65-10.65-4.87l-46.6-53.94c-5.08-5.88-4.43-14.75 1.45-19.83 5.88-5.08 14.75-4.43 19.83 1.45l46.6 53.94c5.08 5.88 4.43 14.75-1.45 19.83-2.65 2.3-5.92 3.42-9.18 3.42z" fill="#020202" p-id="3161"></path></svg>