<?xml version="1.0" standalone="no"?><!DOCTYPE svg PUBLIC "-//W3C//DTD SVG 1.1//EN" "http://www.w3.org/Graphics/SVG/1.1/DTD/svg11.dtd"><svg t="1660299156767" class="icon" viewBox="0 0 1024 1024" version="1.1" xmlns="http://www.w3.org/2000/svg" p-id="3473" xmlns:xlink="http://www.w3.org/1999/xlink" width="200" height="200"><defs><style type="text/css">@font-face { font-family: feedback-iconfont; src: url("//at.alicdn.com/t/font_1031158_u69w8yhxdu.woff2?t=1630033759944") format("woff2"), url("//at.alicdn.com/t/font_1031158_u69w8yhxdu.woff?t=1630033759944") format("woff"), url("//at.alicdn.com/t/font_1031158_u69w8yhxdu.ttf?t=1630033759944") format("truetype"); }
</style></defs><path d="M111.41 561.39s58.77-79.03 179.34-75.99c120.57 3.04 162.12 29.38 188.46 63.83 26.34 34.45 28.37 125.64 26.34 181.37-2.03 55.73-11.15 143.88-93.22 171.23s-203.66 45.59-277.62-27.36-34.45-285.73-34.45-285.73 1.12-16.09 11.15-27.35z" fill="#F0CB74" p-id="3474"></path><path d="M277.42 937.75c-2.4 0-4.8-0.03-7.21-0.08-60.03-1.37-108.44-19.78-143.86-54.72-76.32-75.28-40.65-280.67-37.9-295.79 0.39-4.09 2.6-20.55 13.75-33.33 2.52-3.26 18.11-22.63 47.17-41.56 28.57-18.6 76.34-40.44 141.68-38.78 57.65 1.45 101.35 8.31 133.61 20.96 27.31 10.71 47.05 25.37 64 47.55 29.62 38.73 30.75 135.06 28.78 189.03-1.05 28.75-3.97 66.11-17.41 100.19-16.25 41.2-44.49 68.76-83.93 81.9-34.16 11.39-85.36 24.63-138.68 24.63z m6.46-440.54c-44.57 0-85.13 11.58-120.64 34.45-27.95 18-42.15 36.67-42.29 36.85-0.2 0.26-0.43 0.54-0.65 0.79-7.01 7.87-8.15 20.14-8.16 20.26-0.03 0.45-0.09 0.91-0.17 1.35-0.1 0.52-9.73 53.18-10.32 113.79-0.75 78.05 13.57 133.82 41.42 161.29 36.83 36.33 86.57 47.7 134.39 47.71 52.55 0 102.79-13.73 131.1-23.17 71.11-23.7 82.82-98.16 85.08-160.37 3.1-85.15-5.84-150.08-23.9-173.7-25.57-33.44-65.85-56.3-179.3-59.16-2.19-0.06-4.38-0.09-6.56-0.09z m-172.47 64.18z" fill="#070707" p-id="3475"></path><path d="M352.56 115.82S376.88 91 426.27 89.48c38.1-1.17 120.97-0.54 156.87-0.18 25.31 0.25 50.1 7.89 70.74 22.53 11.47 8.14 22.76 19.12 31.52 33.88 28.88 48.63 29.64 155.78 29.64 155.78s-6.84 117.79-45.59 148.94-69.15 32.51-140.58 34.87-115.51 0-115.51 0-78.27-17.39-97.27-84.27-7.6-204.42-7.6-204.42-2.79-46.59 44.07-80.79z" fill="#B9CE4F" p-id="3476"></path><path d="M466.92 498.28c-33.57 0-53-1.01-54.21-1.08-0.65-0.04-1.3-0.12-1.94-0.27-3.48-0.77-85.44-19.77-106.14-92.63-18.86-66.39-9.03-195.95-8.07-207.94-0.18-7.59 0.7-54.49 48.32-89.66 5.02-4.7 31.93-27.6 81.02-29.11 38.53-1.19 122.88-0.53 157.35-0.19 28.29 0.28 55.09 8.83 77.51 24.73 14.44 10.24 26.17 22.87 34.87 37.51 30.17 50.82 31.27 157.27 31.3 161.78 0 0.26 0 0.52-0.02 0.77-0.07 1.24-1.83 30.65-8.47 64.39-9.25 47.07-23.23 78.41-41.55 93.14-42.3 34-77.5 35.17-147.65 37.49-24.12 0.8-45.09 1.07-62.32 1.07z m-51.85-24.8c7.18 0.33 49.46 2.05 113.39-0.06 68.9-2.28 97.41-3.23 133.52-32.25 28.25-22.71 39.24-108.31 41.15-139.95-0.09-6.88-1.89-105.51-27.96-149.42-6.99-11.77-16.47-21.94-28.17-30.25-18.43-13.08-40.55-20.11-63.97-20.34-34.33-0.34-118.29-0.99-156.39 0.18-43.46 1.34-64.75 21.96-65.63 22.84-0.46 0.47-0.9 0.84-1.43 1.23-40.66 29.67-39.28 68.89-39.2 70.55 0.03 0.56 0.02 1.06-0.02 1.62-0.11 1.35-11 136.17 7.19 200.18 15.74 55.45 79.26 73.54 87.52 75.67z m-62.51-357.66h0.01-0.01z" fill="#070707" p-id="3477"></path><path d="M484.02 164.71s12.16-18.24 32.68-19c20.52-0.76 37.24 31.16 41.8 38 4.56 6.84 34.2 51.67 45.59 115.51s8.36 69.91 8.36 69.91-12.33 28.12-39.01 8.53c-26.68-19.59-46.61-35.8-46.61-35.8s-22.97-17.56-40.87 1.69-30.06 31.41-30.06 31.41-32.09 20.26-41.88 0.34c-9.79-19.93-14.19-46.61-7.77-68.9 6.43-22.3 23.48-72.96 77.77-141.69z" fill="#FFFFFF" p-id="3478"></path><path d="M591.35 396.48c-6.76 0-15.28-2.13-24.96-9.23-25.2-18.5-44.7-34.24-46.88-36-2.57-1.88-15.1-10.07-24.83 0.4-17.84 19.19-29.86 31.22-30.36 31.72-0.62 0.62-1.31 1.18-2.06 1.65-3.96 2.5-24.57 14.71-42.03 9.78-7.51-2.12-13.35-7.05-16.89-14.26-11.99-24.39-15.25-54.06-8.52-77.44 13.4-46.55 40.2-95.5 79.65-145.5 2.48-3.49 17.34-22.88 41.79-23.79 25.03-0.94 42.73 27.97 50.28 40.31 0.78 1.27 1.45 2.37 1.86 2.98 8.32 12.48 36.34 58.03 47.41 120.02 11.83 66.23 8.98 73.9 7.39 77.12-1.31 2.84-8.56 17.1-23.84 21.2-2.26 0.61-4.96 1.04-8.01 1.04z m-85.79-73.9c11.74 0 22.44 5.18 28.51 9.82l0.28 0.22c0.2 0.16 20.03 16.27 46.14 35.44 3.55 2.6 8.63 5.48 12.71 4.38 3.58-0.96 6.45-4.83 7.71-6.92 0.08-3.8-0.39-18.61-8.54-64.22-10.26-57.45-36.1-99.48-43.78-111-0.67-1-1.41-2.22-2.36-3.76-11.91-19.48-21.69-29.18-29.09-28.94-13.98 0.52-23.17 13.64-23.26 13.77-0.18 0.27-0.32 0.46-0.52 0.71-37.64 47.65-63.1 93.95-75.67 137.6-5.08 17.66-2.33 41.35 7.01 60.35 0.68 1.38 1.28 1.64 1.99 1.85 4.93 1.41 15.39-2.62 21.79-6.36 3.25-3.28 14.11-14.34 28.76-30.09 8.88-9.54 18.94-12.85 28.32-12.85z m96.24 41.22c-0.08 0.16-0.16 0.32-0.22 0.47 0.07-0.15 0.14-0.31 0.22-0.47zM484.02 164.71h0.01-0.01z" fill="#070707" p-id="3479"></path><path d="M474.9 258.18a31.54 39.26 0 1 0 63.08 0 31.54 39.26 0 1 0-63.08 0Z" fill="#B9CE4F" p-id="3480"></path><path d="M506.44 309.35c-23.95 0-43.44-22.95-43.44-51.17 0-28.21 19.49-51.17 43.44-51.17s43.44 22.95 43.44 51.17c0 28.22-19.48 51.17-43.44 51.17z m0-78.53c-10.64 0-19.63 12.53-19.63 27.36s8.99 27.36 19.63 27.36c10.64 0 19.63-12.53 19.63-27.36s-8.99-27.36-19.63-27.36z" fill="#070707" p-id="3481"></path><path d="M182 607.19c3.9-26.84 23.83-48.55 50.17-55.03 27.6-6.79 84.5-16.15 127.23 7.71 58.51 32.68 56.99 64.59 59.27 70.67 2.28 6.08 6.84 31.16-6.08 47.11-12.92 15.96-28.96 25.58-28.96 32.68s-3.38 15.87 13.51 36.48 10.81 60.46 7.09 68.22-26.01 47.28-74.98 49.31c-48.97 2.03-83.08-0.68-100.65-10.47-4.88-2.72-10.3-6.87-15.7-12.12-20.21-19.66-31.25-46.91-31.25-75.11V610.02c0.01 0 0.09-1.04 0.35-2.83z" fill="#FFFFFF" p-id="3482"></path><path d="M300.98 876.88c-38.17 0-62.8-4.04-78.17-12.61-5.86-3.27-12.16-8.11-18.2-13.99-22.15-21.55-34.85-52.03-34.85-83.64V610.02c0-0.3 0.01-0.6 0.03-0.9 0.02-0.24 0.12-1.55 0.43-3.65 4.6-31.71 27.8-57.18 59.11-64.88 31.11-7.65 90.12-16.68 135.88 8.87 55.9 31.22 62.03 63.24 64.34 75.29 0.13 0.67 0.29 1.5 0.38 1.87 2.71 7.56 8.74 37.73-8.08 58.5-6.05 7.47-12.63 13.59-17.92 18.51-2.99 2.78-6.96 6.47-8.43 8.41-0.03 0.68-0.07 1.34-0.11 1.99-0.32 5.16-0.68 11 10.96 25.2 20.57 25.09 13.58 70.55 8.63 80.91-2.62 5.49-27.31 53.67-85.23 56.07-10.35 0.45-19.93 0.67-28.77 0.67zM193.57 610.59v156.05c0 25.22 10.08 49.48 27.64 66.57 5.77 5.62 10.36 8.68 13.2 10.26 14.46 8.07 45.33 11 94.36 8.97 44.01-1.82 62.74-38.39 64.73-42.55 2.36-5.32 7.45-39.66-5.56-55.54-16.22-19.79-16.95-31.49-16.31-41.78 0.06-0.89 0.1-1.66 0.1-2.25 0-9.25 7.05-15.81 15.99-24.11 4.99-4.64 10.64-9.89 15.63-16.05 8.96-11.06 5.83-31.06 4.19-35.44-0.65-1.72-0.98-3.46-1.36-5.47-1.74-9.08-6.36-33.18-52.57-58.99-40.07-22.38-96.27-12.03-118.58-6.54-21.84 5.37-38.03 23.11-41.23 45.18-0.13 0.76-0.19 1.34-0.23 1.69z m236.26 15.79c0.01 0.01 0.01 0.03 0.02 0.04-0.01-0.01-0.02-0.02-0.02-0.04z" fill="#070707" p-id="3483"></path><path d="M257.83 641.18a42.3 36.22 0 1 0 84.6 0 42.3 36.22 0 1 0-84.6 0Z" fill="#F0CB74" p-id="3484"></path><path d="M300.13 689.31c-29.89 0-54.21-21.59-54.21-48.13s24.32-48.13 54.21-48.13 54.21 21.59 54.21 48.13-24.33 48.13-54.21 48.13z m0-72.45c-16.76 0-30.4 10.91-30.4 24.32s13.64 24.32 30.4 24.32 30.4-10.91 30.4-24.32-13.64-24.32-30.4-24.32z" fill="#070707" p-id="3485"></path><path d="M279.433703 777.684231a29.13 21.28 62.424 1 0 37.72508-19.702078 29.13 21.28 62.424 1 0-37.72508 19.702078Z" fill="#F0CB74" p-id="3486"></path><path d="M304.2 807.35c-4.95 0-10.06-1.21-14.96-3.63-8.36-4.13-15.58-11.42-20.34-20.54-10.65-20.4-6.08-43.12 10.42-51.74 16.49-8.61 37.76 0.62 48.41 21.01 10.65 20.4 6.08 43.12-10.42 51.74-4.03 2.11-8.5 3.16-13.11 3.16z m-11.77-55.25c-0.8 0-1.51 0.15-2.09 0.45-3.39 1.77-5.2 10.29-0.33 19.61 2.41 4.61 5.97 8.33 9.78 10.21 1.22 0.6 4.29 1.88 6.5 0.72 3.39-1.77 5.2-10.29 0.33-19.61-4.04-7.73-10.26-11.38-14.19-11.38z" fill="#070707" p-id="3487"></path><path d="M733.53 485.31s89.16 7.18 115.51 19.34c26.34 12.16 51.67 22.29 69.91 53.7 18.24 31.41 20.26 110.44 21.28 128.68 1.01 18.24-4.05 128.68-18.24 158.06s-61.64 62.06-122.94 68.9-131.13 8.36-176.72-6.08-83.88-27.09-105.63-74.47c-21.28-46.35-8.98-199.86-8.67-233.29 0.31-33.44 44.39-79.79 61.86-85.87 17.48-6.09 47.63-35.13 163.64-28.97z" fill="#64ABDA" p-id="3488"></path><path d="M715.17 930.87c-33.61 0-68.68-2.82-96.44-11.62-45.57-14.43-88.62-28.06-112.85-80.85-17.11-37.27-14.58-127.58-10.86-209.31 0.59-12.9 1.05-23.09 1.11-29.07 0.22-23.5 17.08-48.01 27.11-60.53 11.07-13.82 28.91-31.66 42.75-36.48 2.24-0.78 5.4-2.39 9.06-4.26 20.95-10.7 59.93-30.62 159.12-25.35 0.11 0.01 0.22 0.01 0.32 0.02 9.34 0.75 92.07 7.71 119.54 20.39 1.57 0.72 3.13 1.44 4.69 2.15 25.31 11.59 51.48 23.58 70.53 56.38 16.01 27.57 20.47 82.78 22.57 127.79 0.12 2.5 0.21 4.59 0.3 6.2 0.93 16.77-3.37 130.69-19.4 163.9-8.34 17.28-25.54 34.31-48.43 47.95-24.62 14.68-53.64 24.22-83.91 27.6-21.81 2.47-52.83 5.09-85.21 5.09zM702.7 496.36c-70.61 0-100.08 15.06-116.83 23.61-4.44 2.27-8.27 4.23-12.06 5.54-4.95 1.72-18.54 12.09-31.99 28.88-13.59 16.96-21.77 34.11-21.88 45.86-0.06 6.41-0.53 16.79-1.13 29.92-2.41 52.96-7.42 163.15 8.71 198.29 19.83 43.21 54.51 54.19 98.4 68.09 37.29 11.81 98.31 13.8 171.81 5.6 57.31-6.39 101.27-36.84 113.54-62.24 12.33-25.54 18.18-132.33 17.07-152.23-0.09-1.67-0.19-3.83-0.31-6.42-1.05-22.48-4.23-90.88-19.37-116.95-15.25-26.26-35.92-35.72-59.85-46.69-1.58-0.72-3.17-1.45-4.75-2.18-19.98-9.22-86.96-16.3-111.31-18.27-10.77-0.55-20.78-0.81-30.05-0.81z" fill="#070707" p-id="3489"></path><path d="M606.88 678.92s11.15-66.87 78.52-90.18c67.38-23.3 107.4-5.07 117.03 0 9.63 5.07 43.06 27.86 42.56 59.78-0.51 31.92-47.9 16.21-75.99 8.11-26.34-7.6-80.04 7.21-80.55 48.95s14.19 52.88 17.73 53.89c3.55 1.01 16.72 12.67 85.11 0 37.86-7.01 51.19 5.69 55.55 18.44 3.57 10.45 1.32 21.99-5.38 30.77-10.21 13.35-33.14 35.33-74.48 37.43-59.78 3.04-111.45 10.64-149.45-64.85-0.01 0-21.29-38-10.65-102.34z" fill="#FAFAFA" p-id="3490"></path><path d="M724.42 859.78c-16.73 0-32.87-1.48-48.43-6.7-29.21-9.79-51.14-30.85-69.02-66.3-2.2-4.08-22.67-44.32-11.84-109.81v-0.01c0.13-0.77 3.28-19.06 15.4-40.29 16.12-28.23 40.66-48.69 70.98-59.17 68.14-23.57 111.14-7.35 126.46 0.72 17.16 9.03 49.47 35.39 48.91 70.5-0.21 13.23-6.35 20.5-11.47 24.27-17.85 13.16-49.54 3.9-75-3.54-1.63-0.48-3.21-0.94-4.73-1.38-12.57-3.63-35.56-0.53-50.79 10.78-9.53 7.08-14.43 16.12-14.56 26.87-0.39 31.96 8.77 41.36 10.32 42.71 0.79 0.3 1.49 0.63 2.13 0.93 15.78 7.44 50.21 3.24 76.32-1.59 49.09-9.1 64.29 12.57 68.98 26.29 4.8 14.04 2.11 29.68-7.19 41.85-11.25 14.71-37.02 39.73-83.33 42.09-3.41 0.17-6.79 0.36-10.15 0.55-11.23 0.62-22.23 1.23-32.99 1.23zM618.62 680.9c-9.72 58.86 9.13 94.24 9.32 94.59 0.09 0.15 0.14 0.25 0.22 0.41 32.31 64.19 72.42 61.95 127.95 58.86 3.39-0.19 6.81-0.38 10.26-0.55 36.73-1.87 56.88-21.33 65.63-32.77 4.46-5.83 5.8-13.19 3.58-19.68-3.92-11.47-18.09-15.03-42.12-10.58-64.78 12-83.69 3.08-90.81-0.28l-0.37-0.17c-10.11-3.39-26.28-20.65-25.73-65.29 0.22-18.31 8.58-34.12 24.17-45.7 22.4-16.64 52.97-19.91 71.58-14.54 1.55 0.45 3.16 0.92 4.81 1.4 10.74 3.14 22.92 6.7 33.92 8.34 14.48 2.16 19.17-0.3 20.27-1.11 0.47-0.35 1.72-1.27 1.79-5.49 0.39-24.29-26.68-44.05-36.2-49.05-9.82-5.17-46.58-20.38-107.59 0.72-24.86 8.6-44.25 24.66-57.65 47.73-10.13 17.42-12.94 32.64-13.03 33.16z m83.98 89.93c0.11 0.03 0.21 0.06 0.31 0.09-0.11-0.03-0.21-0.06-0.31-0.09z" fill="#070707" p-id="3491"></path></svg>