<?xml version="1.0" standalone="no"?><!DOCTYPE svg PUBLIC "-//W3C//DTD SVG 1.1//EN" "http://www.w3.org/Graphics/SVG/1.1/DTD/svg11.dtd"><svg t="1660299164145" class="icon" viewBox="0 0 1024 1024" version="1.1" xmlns="http://www.w3.org/2000/svg" p-id="3789" xmlns:xlink="http://www.w3.org/1999/xlink" width="200" height="200"><defs><style type="text/css">@font-face { font-family: feedback-iconfont; src: url("//at.alicdn.com/t/font_1031158_u69w8yhxdu.woff2?t=1630033759944") format("woff2"), url("//at.alicdn.com/t/font_1031158_u69w8yhxdu.woff?t=1630033759944") format("woff"), url("//at.alicdn.com/t/font_1031158_u69w8yhxdu.ttf?t=1630033759944") format("truetype"); }
</style></defs><path d="M113.97 713.8l-10.29-16.93c-0.34-0.56-0.65-1.17-0.92-1.81-19.8-43.86-32.3-90.44-37.15-138.44-1.52-15.03-2.3-30.38-2.3-45.62 0-63.39 12.96-124.63 38.54-182.05v-0.07l0.94-2.02c0.06-0.12 0.11-0.25 0.17-0.37l3.29-7.27 6.86-17.4 13.62 15.3L269.8 478.64 113.97 713.8z m6.87-365.37C99.35 399.92 88.47 454.55 88.47 511c0 14.39 0.73 28.89 2.17 43.08 3.82 37.74 12.64 74.54 26.28 109.71l121.22-182.94-117.3-132.42zM511.25 958.93c-52.27 0-103.48-8.93-152.2-26.53-47.09-17.01-90.76-41.7-129.8-73.38l-17.81-14.45 196.84-65.63L564.9 956.46l-25.65 1.61c-9.23 0.57-18.64 0.86-28 0.86zM263.65 853.7c71.69 51.79 158.73 80.08 247.61 80.08h0.07l-110.9-125.69-136.78 45.61zM455.59 226.79l-220.43-69.48 21.08-14.62c75.1-52.1 163.28-79.63 255.01-79.63 37.59 0 74.95 4.67 111.03 13.88l3.19 0.81 13.19 12.56-183.07 136.48z m-162.95-77.75l158.23 49.88L589.63 95.47a425.856 425.856 0 0 0-78.38-7.26c-77.75 0-152.79 20.96-218.61 60.83zM649.52 937.78l45.53-229.58 232.08-48.41v17.94l-0.93 2.29c-46.73 114.6-139.83 205.6-255.43 249.65l-21.25 8.11z m66.96-208.34l-33.29 167.9c91.85-40.95 166.69-113.96 209.96-204.75l-176.67 36.85zM957.04 487.02L766.38 400.6l24.36-240.54 18.4 16.4c84.25 75.06 136.75 177.97 147.84 289.77l0.06 0.62v20.17z m-163.8-101.87l135.95 61.62c-13.51-88.72-54.88-170.47-118.47-234.22l-17.48 172.6z" p-id="3790"></path><path d="M946.61 511c0 58.12-11.39 113.58-32.07 164.27v0.01C869.13 786.66 778.91 875 666.28 917.93v0.01c-40.11 15.29-83.04 24.82-127.82 27.57-9 0.56-18.07 0.85-27.2 0.85-103.87 0-199.25-36.38-274.08-97.09-52.34-42.44-94.63-96.8-122.75-158.93 0 0-0.03-0.05-0.07-0.15a0.612 0.612 0 0 0-0.05-0.12c-18.89-41.8-31.37-87.12-36.18-134.7a439.135 439.135 0 0 1-2.23-44.35c0-63.93 13.78-124.64 38.53-179.33 0.01 0 0.01-0.01 0.01-0.01l2.86-6.15 0.02-0.05c32.8-69.54 83.48-128.99 146.1-172.44h0.01c70.34-48.79 155.75-77.39 247.84-77.39 37.25 0 73.41 4.68 107.92 13.49l0.01 0.01c68.46 17.45 130.44 51.15 181.59 96.73 79.32 70.67 132.61 169.93 143.69 281.62v0.01c1.4 14.29 2.13 28.8 2.13 43.49z" fill="#FFFFFF" p-id="3791"></path><path d="M511.25 958.93c-52.27 0-103.48-8.93-152.2-26.53-47.09-17.01-90.76-41.7-129.8-73.38-53.97-43.76-97.6-100.23-126.18-163.29-0.11-0.22-0.21-0.45-0.3-0.68-19.8-43.86-32.3-90.44-37.15-138.44-1.52-15.03-2.3-30.38-2.3-45.62 0-63.39 12.96-124.63 38.54-182.05v-0.07l0.94-2.03c0.06-0.12 0.11-0.24 0.17-0.37l3.35-7.39h0.1c33.56-70.68 85.35-131.66 149.83-176.4l3.28-2.24c74.39-50.64 161.34-77.39 251.75-77.39 37.59 0 74.95 4.67 111.03 13.88l3.21 0.84c67.68 17.8 131.11 51.88 183.64 98.7C893.4 251.53 945.91 354.44 957 466.24l0.06 0.63c1.42 14.56 2.14 29.4 2.14 44.13 0 57.63-10.79 113.71-32.07 166.72v0.02l-0.93 2.29c-45.63 111.91-135.48 201.31-247.33 246.48v0.09l-8.1 3.1c-42.11 16.05-86.37 25.6-131.53 28.37-9.22 0.57-18.63 0.86-27.99 0.86zM125.91 685.19c26.98 59.59 68.19 112.94 119.19 154.3 74.94 60.8 169.46 94.28 266.16 94.28 8.83 0 17.72-0.28 26.42-0.82 41.84-2.57 82.84-11.29 121.9-25.93l2.23-0.85c108.73-41.44 196.37-126.87 240.63-234.5l0.47-1.16c20.66-50.66 31.13-104.33 31.13-159.52 0-14.11-0.7-28.33-2.08-42.27l-0.06-0.62c-10.6-105.26-60.12-202.14-139.48-272.85-50.37-44.89-111.34-77.37-176.32-93.93l-2.43-0.62c-33.31-8.29-67.74-12.49-102.39-12.49-86.58 0-169.8 25.98-240.67 75.14l-1.78 1.24c-60.27 42.27-108.65 99.62-140 165.99l-1.79 3.85v9.8h-4.39C99.95 396.96 88.47 453.01 88.47 511c0 14.39 0.73 28.89 2.17 43.08 4.58 45.32 16.38 89.28 35.08 130.68 0.06 0.14 0.13 0.29 0.19 0.43z" p-id="3792"></path><path d="M689.66 672.78l-256.54 51.98-128.71-227.92L481.4 304l238.09 108.74z" fill="#494B5A" p-id="3793"></path><path d="M426.66 738.91l-137.7-243.84 189.35-206.31 254.73 116.33-31.93 278.21-274.45 55.61z m-106.8-240.29l119.72 212 238.62-48.35 27.75-241.88-221.46-101.15-164.63 179.38z" p-id="3794"></path><path d="M948.11 471.12v0.01c-0.01 0.01-0.01 0.02-0.01 0.02l-164.65-74.63 20.96-207.02c79.33 70.68 132.62 169.94 143.7 281.62z" fill="#494B5A" p-id="3795"></path><path d="M960.68 490.67l-190.66-86.42 24.36-240.54 18.4 16.4c84.25 75.06 136.75 177.97 147.84 289.77l0.06 0.62v20.17zM796.88 388.8l135.95 61.62c-13.51-88.72-54.88-170.47-118.47-234.22l-17.48 172.6z" p-id="3796"></path><path d="M914.54 675.27v0.01C869.13 786.66 778.91 875 666.28 917.93l39.48-199.11 208.78-43.55z" fill="#494B5A" p-id="3797"></path><path d="M649.52 937.78l45.53-229.58 232.08-48.41v17.95l-0.93 2.28c-46.73 114.6-139.83 205.6-255.43 249.65l-21.25 8.11z m66.96-208.34l-33.29 167.9c91.85-40.95 166.69-113.96 209.96-204.75l-176.67 36.85z" p-id="3798"></path><path d="M538.46 945.51c-9 0.56-18.07 0.85-27.2 0.85-103.87 0-199.25-36.38-274.08-97.09l167.18-55.74 134.1 151.98z" fill="#494B5A" p-id="3799"></path><path d="M511.25 958.93c-52.27 0-103.48-8.93-152.2-26.53-47.09-17.01-90.76-41.7-129.8-73.38l-17.81-14.45 196.84-65.63L564.9 956.46l-25.65 1.61c-9.23 0.57-18.64 0.86-28 0.86zM263.65 853.7c71.69 51.79 158.73 80.08 247.61 80.08h0.07l-110.9-125.69-136.78 45.61z" p-id="3800"></path><path d="M253.96 479.74L114.43 690.33s-0.03-0.05-0.07-0.15a0.612 0.612 0 0 0-0.05-0.12c-18.89-41.8-31.37-87.12-36.18-134.7a439.135 439.135 0 0 1-2.23-44.35c0-63.93 13.78-124.64 38.53-179.33 0.01 0 0.01-0.01 0.01-0.01l2.86-6.15 0.02-0.05 136.64 154.27z" fill="#494B5A" p-id="3801"></path><path d="M113.97 713.8l-10.29-16.93c-0.34-0.56-0.65-1.17-0.92-1.81-19.8-43.86-32.3-90.44-37.15-138.44-1.52-15.03-2.3-30.38-2.3-45.62 0-63.39 12.96-124.63 38.54-182.05v-0.07l0.94-2.02c0.06-0.12 0.11-0.25 0.17-0.37l3.29-7.27 6.86-17.4 13.62 15.3L269.8 478.64 113.97 713.8z m6.87-365.37C99.35 399.92 88.47 454.55 88.47 511c0 14.39 0.73 28.89 2.17 43.08 3.82 37.74 12.64 74.54 26.28 109.71l121.22-182.94-117.3-132.42z" p-id="3802"></path><path d="M619.19 89.13L453.23 212.85l-189.82-59.83c70.34-48.79 155.75-77.39 247.84-77.39 37.25 0 73.41 4.68 107.92 13.49l0.02 0.01z" fill="#494B5A" p-id="3803"></path><path d="M455.59 226.79l-220.43-69.48 21.08-14.62c75.1-52.1 163.28-79.63 255.01-79.63 37.59 0 74.95 4.67 111.03 13.88l3.19 0.81 13.18 12.55-11.94 8.92-171.12 127.57z m-162.95-77.75l158.23 49.88L589.63 95.47a425.856 425.856 0 0 0-78.38-7.26c-77.75 0-152.79 20.96-218.61 60.83z" p-id="3804"></path><path d="M440.043 209.67l24.118-7.168 31.205 104.996-24.118 7.168zM713.528 405.374l69.468-26.1 8.849 23.553-69.468 26.1zM675.042 685.943l20.518-14.563 29.704 41.852-20.518 14.562zM392.556 792.465l26.35-76.026 23.774 8.24-26.35 76.026zM244.718 496.985l4.642-24.727 67.214 12.618-4.642 24.727z" p-id="3805"></path></svg>