<?xml version="1.0" standalone="no"?><!DOCTYPE svg PUBLIC "-//W3C//DTD SVG 1.1//EN" "http://www.w3.org/Graphics/SVG/1.1/DTD/svg11.dtd"><svg t="1660299171412" class="icon" viewBox="0 0 1024 1024" version="1.1" xmlns="http://www.w3.org/2000/svg" p-id="4105" xmlns:xlink="http://www.w3.org/1999/xlink" width="200" height="200"><defs><style type="text/css">@font-face { font-family: feedback-iconfont; src: url("//at.alicdn.com/t/font_1031158_u69w8yhxdu.woff2?t=1630033759944") format("woff2"), url("//at.alicdn.com/t/font_1031158_u69w8yhxdu.woff?t=1630033759944") format("woff"), url("//at.alicdn.com/t/font_1031158_u69w8yhxdu.ttf?t=1630033759944") format("truetype"); }
</style></defs><path d="M827.43 559.06l26 4.77c5.15 0.95 9.71 3.9 12.67 8.22l4.68 6.83c2.05 2.99 3.15 6.54 3.15 10.16v43.18c0 4.26-1.31 8.41-3.76 11.89l-3.89 5.52a23.23 23.23 0 0 1-12.86 9.02l-25.99 7.09" fill="#33ABDF" p-id="4106"></path><path d="M827.42 677.84c-5.32 0-10.19-3.54-11.66-8.91-1.76-6.44 2.04-13.09 8.48-14.84l25.99-7.09a11.14 11.14 0 0 0 6.16-4.32l3.89-5.52a8.507 8.507 0 0 0 1.56-4.92v-43.18c0-1.19-0.36-2.34-1.03-3.33l-4.68-6.83a7.621 7.621 0 0 0-4.88-3.17l-26-4.77c-6.57-1.21-10.91-7.51-9.71-14.07 1.21-6.57 7.5-10.92 14.07-9.71l26 4.77c8.26 1.51 15.71 6.35 20.46 13.28l4.68 6.83a29.933 29.933 0 0 1 5.27 17v43.18c0 6.78-2.06 13.3-5.97 18.85l-3.89 5.52a35.338 35.338 0 0 1-19.57 13.73l-25.99 7.09c-1.06 0.27-2.13 0.41-3.18 0.41z" p-id="4107"></path><path d="M502.26 614.44m-329.8 0a329.8 329.8 0 1 0 659.6 0 329.8 329.8 0 1 0-659.6 0Z" fill="#FDBC2D" p-id="4108"></path><path d="M502.26 956.33c-46.15 0-90.93-9.04-133.08-26.87-40.71-17.22-77.28-41.87-108.67-73.26-31.39-31.39-56.04-67.96-73.27-108.67-17.83-42.16-26.87-86.93-26.87-133.08s9.04-90.93 26.87-133.08c17.22-40.71 41.87-77.28 73.27-108.67s67.96-56.04 108.67-73.26c42.16-17.83 86.93-26.87 133.08-26.87s90.93 9.04 133.08 26.87c40.71 17.22 77.28 41.87 108.67 73.26 31.39 31.39 56.04 67.96 73.27 108.67 17.83 42.16 26.87 86.93 26.87 133.08s-9.04 90.93-26.87 133.08c-17.22 40.71-41.87 77.28-73.27 108.67s-67.96 56.04-108.67 73.26c-42.16 17.83-86.93 26.87-133.08 26.87z m0-659.6c-175.19 0-317.71 142.53-317.71 317.71s142.52 317.71 317.71 317.71c175.19 0 317.71-142.53 317.71-317.71S677.44 296.73 502.26 296.73z" p-id="4109"></path><path d="M502.26 897.11c-75.5 0-146.49-29.4-199.88-82.79-53.39-53.39-82.79-124.37-82.79-199.88s29.4-146.49 82.79-199.88c53.39-53.39 124.37-82.79 199.88-82.79 75.5 0 146.49 29.4 199.88 82.79 53.39 53.39 82.79 124.37 82.79 199.88 0 75.5-29.4 146.49-82.79 199.88-53.4 53.38-124.38 82.79-199.88 82.79z" fill="#FFFFFF" p-id="4110"></path><path d="M502.26 909.2c-78.73 0-152.75-30.66-208.43-86.33-55.67-55.67-86.33-129.69-86.33-208.43s30.66-152.75 86.33-208.43c55.67-55.67 129.69-86.33 208.43-86.33 78.73 0 152.75 30.66 208.43 86.33 55.67 55.67 86.33 129.69 86.33 208.43 0 78.73-30.66 152.75-86.33 208.43-55.68 55.67-129.7 86.33-208.43 86.33z m0-565.34c-72.28 0-140.22 28.15-191.33 79.25-51.11 51.11-79.25 119.06-79.25 191.33 0 72.27 28.15 140.22 79.25 191.33 51.11 51.11 119.05 79.25 191.33 79.25s140.22-28.15 191.33-79.25c51.11-51.1 79.25-119.05 79.25-191.33s-28.15-140.22-79.25-191.33c-51.11-51.11-119.06-79.25-191.33-79.25z" p-id="4111"></path><path d="M507.26 849.56c-6.68 0-12.09-5.42-12.09-12.09l0.01-37.45c0-6.67 5.42-12.08 12.09-12.08 6.68 0 12.09 5.42 12.09 12.09l-0.01 37.45c0 6.67-5.41 12.08-12.09 12.08zM737.77 623.24l-37.46-0.01c-6.68 0-12.09-5.42-12.08-12.09 0-6.67 5.42-12.08 12.09-12.08l37.45 0.01c6.68 0 12.09 5.42 12.08 12.09 0.01 6.67-5.4 12.08-12.08 12.08z" p-id="4112"></path><path d="M354.18 457.78l121.36 184.85 177.17 115.22-113.67-178.71z" fill="#B0C34C" p-id="4113"></path><path d="M652.71 769.94c-2.28 0-4.57-0.64-6.59-1.96L468.95 652.77c-1.4-0.91-2.6-2.1-3.52-3.5L344.07 464.41a12.081 12.081 0 0 1 1.56-15.18c4.05-4.05 10.39-4.7 15.18-1.56l184.86 121.36c1.43 0.94 2.65 2.17 3.57 3.62l113.68 178.71c3.05 4.8 2.35 11.08-1.69 15.08-2.34 2.31-5.42 3.5-8.52 3.5zM484.25 633.88l128.38 83.48-82.4-129.54-133.95-87.94 87.97 134zM314.3 623.24l-37.46-0.01c-6.68 0-12.09-5.42-12.09-12.09s5.42-12.08 12.09-12.08l37.45 0.01c6.68 0 12.09 5.42 12.09 12.09 0.01 6.66-5.4 12.08-12.08 12.08z" p-id="4114"></path><path d="M474.88 537.14c-35.04 9.97-43.19 38.89-43.19 38.89l-77.52-118.25 120.71 79.36z" fill="#33ABDF" p-id="4115"></path><path d="M431.73 588.23c-4.05 0-7.88-2.11-10.15-5.57l-77.52-118.25a12.083 12.083 0 0 1 1.57-15.18c4.06-4.05 10.4-4.7 15.18-1.55l120.7 79.36c3.95 2.6 6.02 7.26 5.31 11.93-0.72 4.67-4.09 8.5-8.64 9.79-27.24 7.75-34.38 29.01-34.87 30.59-1.22 4.6-5 7.95-9.7 8.72-0.62 0.11-1.25 0.16-1.88 0.16z m-35.48-88.32l34.57 52.73a74.303 74.303 0 0 1 19.05-17.48l-53.62-35.25z" p-id="4116"></path><path d="M508.82 174.35m-97.1 0a97.1 97.1 0 1 0 194.2 0 97.1 97.1 0 1 0-194.2 0Z" fill="#33ABDF" p-id="4117"></path><path d="M508.82 283.54c-60.21 0-109.19-48.98-109.19-109.19S448.61 65.16 508.82 65.16 618 114.14 618 174.35s-48.98 109.19-109.18 109.19z m0-194.2c-46.87 0-85.01 38.13-85.01 85.01s38.13 85.01 85.01 85.01 85.01-38.13 85.01-85.01-38.14-85.01-85.01-85.01z" p-id="4118"></path><path d="M477.38 220.83c-15.28-9.84-25.4-27-25.4-46.53 0-30.54 24.76-55.3 55.3-55.3s55.3 24.76 55.3 55.3c0 18.49-9.07 34.86-23.01 44.9" fill="#FFFFFF" p-id="4119"></path><path d="M470.83 230.99c-19.37-12.48-30.94-33.67-30.94-56.69 0-37.16 30.23-67.39 67.39-67.39s67.39 30.23 67.39 67.39c0 21.61-10.48 42.07-28.04 54.71l-14.13-19.62c11.27-8.12 17.99-21.23 17.99-35.09 0-23.83-19.39-43.21-43.21-43.21-23.83 0-43.21 19.38-43.21 43.21 0 14.76 7.42 28.36 19.85 36.36l-13.09 20.33z" p-id="4120"></path><path d="M474.88 265.35l2.71-47.05s0-16.73 12.63-17.41c12.63-0.68 33.11 0 33.11 0s14 6.42 14 19.94c0 13.52 5.42 44.52 5.42 44.52" fill="#FDBC2D" p-id="4121"></path><path d="M542.74 277.44c-5.76 0-10.87-4.14-11.9-10.01-0.23-1.31-5.6-32.2-5.6-46.6 0-3.71-3.21-6.51-5.3-7.94-6.02-0.15-19.76-0.42-28.93 0.07-0.64 0.98-1.27 3.49-1.32 5.39 0 0.27 0 0.35-0.02 0.65l-2.71 47.05c-0.38 6.67-6.09 11.77-12.76 11.38-6.67-0.38-11.76-6.1-11.38-12.76l2.69-46.73c0.14-13.47 7.69-28.21 24.07-29.1 13.01-0.7 33.31-0.04 34.17-0.01 1.6 0.05 3.18 0.43 4.64 1.09 7.82 3.59 21.04 14.14 21.04 30.93 0 10.21 3.78 34.1 5.24 42.44 1.15 6.58-3.25 12.84-9.83 13.99-0.71 0.1-1.41 0.16-2.1 0.16z" p-id="4122"></path><path d="M507.27 430c-6.68 0-12.09-5.42-12.09-12.09l0.01-37.45c0-6.67 5.42-12.08 12.09-12.08 6.68 0 12.09 5.42 12.09 12.09l-0.01 37.45c0 6.67-5.41 12.08-12.09 12.08z" p-id="4123"></path></svg>