<?xml version="1.0" standalone="no"?><!DOCTYPE svg PUBLIC "-//W3C//DTD SVG 1.1//EN" "http://www.w3.org/Graphics/SVG/1.1/DTD/svg11.dtd"><svg t="1660299095119" class="icon" viewBox="0 0 1024 1024" version="1.1" xmlns="http://www.w3.org/2000/svg" p-id="1430" xmlns:xlink="http://www.w3.org/1999/xlink" width="200" height="200"><defs><style type="text/css">@font-face { font-family: feedback-iconfont; src: url("//at.alicdn.com/t/font_1031158_u69w8yhxdu.woff2?t=1630033759944") format("woff2"), url("//at.alicdn.com/t/font_1031158_u69w8yhxdu.woff?t=1630033759944") format("woff"), url("//at.alicdn.com/t/font_1031158_u69w8yhxdu.ttf?t=1630033759944") format("truetype"); }
</style></defs><path d="M96.56 116.7H926.1v795.74H96.56z" fill="#64ABDA" p-id="1431"></path><path d="M939.11 925.45H83.55V103.69h855.56v821.76z m-829.54-26.02h803.52V129.71H109.57v769.72z" fill="#070707" p-id="1432"></path><path d="M507.47 628.89c-0.74 0-1.48 0-2.22-0.01-76.83-0.37-143.18-19.5-197.23-56.87-43.28-29.92-78.6-71.41-104.99-123.32C158.49 361.1 154.9 275 154.77 271.37l-0.01-0.47V116.7h26.02v153.93c0.21 4.57 4.63 86.44 45.83 167.03 55.73 109 149.52 164.59 278.77 165.21h2.14c128.39 0 221.53-55.43 276.87-164.77 40.97-80.95 45.25-162.83 45.46-167.46V116.7h26.02v154.44l-0.01 0.23c-0.13 3.65-3.73 90.5-48.25 178.48-26.4 52.15-61.73 93.7-105.02 123.5-53.56 36.86-119.2 55.54-195.12 55.54z" fill="#070707" p-id="1433"></path><path d="M352.92 901.83s14.61-144.25 154.28-145.11c139.68-0.86 153.62 145.11 153.62 145.11" fill="#B9CE4F" p-id="1434"></path><path d="M365.86 903.14l-25.89-2.62c0.16-1.59 4.19-39.31 26.47-77.48 20.97-35.92 62.39-78.85 140.68-79.33h1.3c77.58 0 118.52 42.76 139.24 78.76 22.1 38.39 25.95 76.53 26.11 78.13l-25.9 2.47c-0.03-0.32-3.63-34.8-23.17-68.35-25.13-43.13-64.25-65-116.27-65h-1.15c-53 0.33-92.83 22.67-118.36 66.42-19.46 33.36-23.02 66.67-23.06 67z" fill="#070707" p-id="1435"></path><path d="M367.97 129.66v302.22s6.16 142 143.06 137.33c136.91-4.67 146.24-137.33 146.24-137.33V129.66" fill="#B9CE4F" p-id="1436"></path><path d="M504.49 582.34c-72.78 0-109.62-39.86-127.8-73.91-19.82-37.1-21.65-74.41-21.71-75.98l-0.01-0.56V129.66h26.02v301.87c0.18 2.91 2.48 34.79 19.04 65.36C422.3 538 459.5 557.95 510.6 556.21c51.99-1.77 90.22-23.27 113.63-63.91 16.67-28.93 19.72-57.36 20.04-60.95V129.66h26.02v302.68l-0.03 0.46c-0.1 1.48-2.78 36.57-23.48 72.5-19.39 33.65-58.6 74.31-135.29 76.92-2.37 0.08-4.71 0.12-7 0.12z" fill="#070707" p-id="1437"></path><path d="M657.27 411.79h-289.3S357.8 569.22 511.03 569.22s146.24-157.43 146.24-157.43z" fill="#FFBE2C" p-id="1438"></path><path d="M511.03 582.22c-48.16 0-86.33-14.66-113.44-43.58-47.03-50.17-42.81-124.55-42.6-127.7l0.79-12.17h313.95l0.55 12.43c0.14 3.14 2.86 77.41-45.04 127.48-27.64 28.9-66.07 43.54-114.21 43.54z m-130-157.42c0.94 21.12 6.57 65.24 35.67 96.18 21.99 23.38 53.73 35.23 94.34 35.23 40.69 0 72.74-11.9 95.27-35.37 29.64-30.88 36.23-74.79 37.64-96.04H381.03z" fill="#070707" p-id="1439"></path><path d="M506.54 277.25c-39.27 0-59.27-21.08-69.12-38.76-10.27-18.42-11.49-36.86-11.54-37.64l12.99-0.78 12.98-0.84c0.01 0.14 1.05 14.01 8.69 27.29 9.57 16.63 24.62 24.72 46 24.72 51.49 0 59.93-50.92 60.26-53.09l25.74 3.8c-0.11 0.77-2.87 19.04-14.57 37.25-11.15 17.35-32.6 38.05-71.43 38.05z" fill="#070707" p-id="1440"></path></svg>