<?xml version="1.0" standalone="no"?><!DOCTYPE svg PUBLIC "-//W3C//DTD SVG 1.1//EN" "http://www.w3.org/Graphics/SVG/1.1/DTD/svg11.dtd"><svg t="1660299051114" class="icon" viewBox="0 0 1024 1024" version="1.1" xmlns="http://www.w3.org/2000/svg" p-id="1127" xmlns:xlink="http://www.w3.org/1999/xlink" width="200" height="200"><defs><style type="text/css">@font-face { font-family: feedback-iconfont; src: url("//at.alicdn.com/t/font_1031158_u69w8yhxdu.woff2?t=1630033759944") format("woff2"), url("//at.alicdn.com/t/font_1031158_u69w8yhxdu.woff?t=1630033759944") format("woff"), url("//at.alicdn.com/t/font_1031158_u69w8yhxdu.ttf?t=1630033759944") format("truetype"); }
</style></defs><path d="M445.975 90.766L937.41 582.2 804.157 715.453 312.722 224.02z" fill="#FDBC2D" p-id="1128"></path><path d="M129 283.82v628.16h640.4L129 283.82z m113.88 257.49l247.84 259.35H242.88V541.31z" fill="#33ABDF" p-id="1129"></path><path d="M514.73 815.83H237.86c-5.87 0-10.63-4.76-10.63-10.63V528.33c0-2.69 1.34-5.37 4.03-6.05 2.69-0.67 5.37-0.67 7.39 1.34L519.43 804.4c1.93 1.93 2.63 4.47 1.5 7.05-0.1 0.23-0.23 0.45-0.37 0.65-1.34 1.92-3.28 3.73-5.83 3.73z m-269.1-22.34h244.6c2.42 8.91 4.17 4.7 0.48 9.19l-244.6-244.6c-1.24-9.42-5.45-7.67 2.1-2.01v244.6c-7.55-0.03-5.8 1.73-2.58-7.18z" p-id="1130"></path><path d="M776.71 930.7H125.13c-7.39 0-13.43-6.05-13.43-13.43V265.68c0-5.37 3.36-10.08 8.06-12.09 4.7-2.02 10.75-0.67 14.78 2.69l651.58 651.58c4.03 4.03 4.7 9.4 2.69 14.78-1.36 4.7-6.73 8.06-12.1 8.06z m-638.15-26.87h605.9l-605.9-605.9v605.9zM802.9 729.85c-3.36 0-6.72-1.34-9.4-4.03L299.78 232.77c-5.37-5.37-5.37-13.43 0-18.81L432.11 81.63c5.37-5.37 14.11-5.37 18.81 0l493.72 493.72c5.37 5.37 5.37 13.43 0 18.81L812.31 725.82c-2.69 2.68-6.05 4.03-9.41 4.03zM327.99 223.36L802.23 697.6l113.52-112.85-474.24-474.91-113.52 113.52z" p-id="1131"></path><path d="M350.83 271.05c-2.02 0-3.36-0.67-4.7-2.02-2.69-2.69-2.69-6.72 0-9.4l34.93-34.93c2.69-2.69 6.72-2.69 9.4 0 2.69 2.69 2.69 6.72 0 9.4l-34.93 35.6c-1.34 0.68-2.69 1.35-4.7 1.35z m51.05 51.73c-2.02 0-3.36-0.67-4.7-2.02-2.69-2.69-2.69-6.72 0-9.4l64.49-64.49c2.69-2.69 6.72-2.69 9.4 0 2.69 2.69 2.69 6.72 0 9.4l-64.49 64.49c-1.34 1.35-2.69 2.02-4.7 2.02z m51.72 51.05c-2.02 0-3.36-0.67-4.7-2.02-2.69-2.69-2.69-6.72 0-9.4l34.93-34.93c2.69-2.69 6.72-2.69 9.4 0 2.69 2.69 2.69 6.72 0 9.4l-34.93 34.93c-1.34 1.35-3.35 2.02-4.7 2.02z m51.05 51.72c-2.02 0-3.36-0.67-4.7-2.02-2.69-2.69-2.69-6.72 0-9.4l64.49-64.49c2.69-2.69 6.72-2.69 9.4 0 2.69 2.69 2.69 6.72 0 9.4l-64.49 64.49c-1.34 1.35-2.68 2.02-4.7 2.02z m51.73 51.05c-2.02 0-3.36-0.67-4.7-2.02-2.69-2.69-2.69-6.72 0-9.4l34.93-34.93c2.69-2.69 6.72-2.69 9.4 0 2.69 2.69 2.69 6.72 0 9.4l-34.93 34.93c-1.34 1.35-3.36 2.02-4.7 2.02z m51.05 51.06c-2.02 0-3.36-0.67-4.7-2.02-2.69-2.69-2.69-6.72 0-9.4l64.49-64.49c2.69-2.69 6.72-2.69 9.4 0 2.69 2.69 2.69 6.72 0 9.4l-64.49 64.49c-1.34 1.34-3.36 2.02-4.7 2.02z m51.05 51.72c-2.02 0-3.36-0.67-4.7-2.02-2.69-2.69-2.69-6.72 0-9.4l34.93-34.93c2.69-2.69 6.72-2.69 9.4 0s2.69 6.72 0 9.4l-34.93 34.93c-1.34 1.35-2.68 2.02-4.7 2.02z m51.72 51.05c-2.02 0-3.36-0.67-4.7-2.02-2.69-2.69-2.69-6.72 0-9.4l64.49-64.49c2.69-2.69 6.72-2.69 9.4 0 2.69 2.69 2.69 6.72 0 9.4l-64.49 64.49c-1.34 1.35-3.35 2.02-4.7 2.02z m51.06 51.05c-2.02 0-3.36-0.67-4.7-2.02-2.69-2.69-2.69-6.72 0-9.4l34.93-34.93c2.69-2.69 6.72-2.69 9.4 0 2.69 2.69 2.69 6.72 0 9.4l-34.93 34.93c-1.35 2.02-2.69 2.02-4.7 2.02z m-596.5-304.96h-39.63c-4.03 0-6.72-2.69-6.72-6.72 0-4.03 2.69-6.72 6.72-6.72h38.96c4.03 0 6.72 2.69 6.72 6.72-0.01 4.03-2.69 6.72-6.05 6.72z m32.91 75.9h-72.55c-4.03 0-6.72-2.69-6.72-6.72s2.69-6.72 6.72-6.72h72.55c4.03 0 6.72 2.69 6.72 6.72s-2.69 6.72-6.72 6.72z m-32.91 75.24h-39.63c-4.03 0-6.72-2.69-6.72-6.72s2.69-6.72 6.72-6.72h38.96c4.03 0 6.72 2.69 6.72 6.72s-2.69 6.72-6.05 6.72z m32.91 75.9h-72.55c-4.03 0-6.72-2.69-6.72-6.72 0-4.03 2.69-6.72 6.72-6.72h72.55c4.03 0 6.72 2.69 6.72 6.72 0 4.04-2.69 6.72-6.72 6.72z m-32.91 75.24h-39.63c-4.03 0-6.72-2.69-6.72-6.72s2.69-6.72 6.72-6.72h38.96c4.03 0 6.72 2.69 6.72 6.72s-2.69 6.72-6.05 6.72z m32.91 75.9h-72.55c-4.03 0-6.72-2.69-6.72-6.72 0-4.03 2.69-6.72 6.72-6.72h72.55c4.03 0 6.72 2.69 6.72 6.72 0 4.04-2.69 6.72-6.72 6.72z m-32.91 75.24h-39.63c-4.03 0-6.72-2.69-6.72-6.72s2.69-6.72 6.72-6.72h38.96c4.03 0 6.72 2.69 6.72 6.72s-2.69 6.72-6.05 6.72z" p-id="1132"></path></svg>