<?xml version="1.0" standalone="no"?><!DOCTYPE svg PUBLIC "-//W3C//DTD SVG 1.1//EN" "http://www.w3.org/Graphics/SVG/1.1/DTD/svg11.dtd"><svg t="1660299142633" class="icon" viewBox="0 0 1024 1024" version="1.1" xmlns="http://www.w3.org/2000/svg" p-id="2833" xmlns:xlink="http://www.w3.org/1999/xlink" width="200" height="200"><defs><style type="text/css">@font-face { font-family: feedback-iconfont; src: url("//at.alicdn.com/t/font_1031158_u69w8yhxdu.woff2?t=1630033759944") format("woff2"), url("//at.alicdn.com/t/font_1031158_u69w8yhxdu.woff?t=1630033759944") format("woff"), url("//at.alicdn.com/t/font_1031158_u69w8yhxdu.ttf?t=1630033759944") format("truetype"); }
</style></defs><path d="M931.83 432.84H108.94l61.08-152.06 681.15 0.74z" fill="#B9CE4F" p-id="2834"></path><path d="M897.85 886.13H129.44V432.84h164.35l147.59-149.36h144.3l147.6 149.36h164.57z" fill="#64ABDA" p-id="2835"></path><path d="M513.06 203.91l-58.63 69.19 121.03 1.9z" fill="#B9CE4F" p-id="2836"></path><path d="M931.83 444.39h-189.7c-3.05 0-5.97-1.2-8.13-3.35L584.21 292.33h-143.6L287.99 441.11c-2.16 2.1-5.05 3.28-8.06 3.28H94.75c-3.99 0-7.7-2.06-9.81-5.46a11.536 11.536 0 0 1-0.54-11.21l75.28-152.06c1.95-3.93 5.96-6.42 10.35-6.42h261.2l70.38-68.6V89.58c0-4.63 2.76-8.8 7.02-10.62a11.56 11.56 0 0 1 12.52 2.29l75.09 72.06h70.08c6.38 0 11.54 5.17 11.54 11.54s-5.17 11.54-11.54 11.54h-74.73c-2.98 0-5.84-1.15-7.99-3.21l-58.9-56.53v84.04l69.04 68.54h261.32c4.36 0 8.34 2.45 10.3 6.34l76.78 152.06c1.81 3.58 1.63 7.84-0.47 11.25a11.547 11.547 0 0 1-9.84 5.51zM746.89 421.3h166.18l-65.13-128.97H616.98L746.89 421.3z m-633.55 0h161.89l132.31-128.97H177.19L113.34 421.3zM464.3 269.24h96.66l-47.89-47.54-48.77 47.54z" p-id="2837"></path><path d="M133.89 902.07c-6.38 0-11.54-5.17-11.54-11.54V432.84c0-6.38 5.17-11.54 11.54-11.54s11.54 5.17 11.54 11.54v457.69c0 6.38-5.16 11.54-11.54 11.54zM897.85 902.07c-6.38 0-11.54-5.17-11.54-11.54V432.84c0-6.38 5.17-11.54 11.54-11.54s11.54 5.17 11.54 11.54v457.69c0 6.38-5.16 11.54-11.54 11.54z" p-id="2838"></path><path d="M938.85 902.07H85.71c-6.38 0-11.54-5.17-11.54-11.54s5.17-11.54 11.54-11.54h853.14c6.38 0 11.54 5.17 11.54 11.54s-5.16 11.54-11.54 11.54z" p-id="2839"></path><path d="M588.56 890.53V774.96c0-27.29-14.87-52.69-39.13-65.18-9.77-5.03-21.7-8.38-36.14-8.38-15.37 0-28.1 3.94-38.51 9.71C450 724.86 435 751.35 435 779.68v110.85h153.56z" fill="#FFBE2C" p-id="2840"></path><path d="M588.56 902.07H435c-6.38 0-11.54-5.17-11.54-11.54V779.68c0-32.87 17.52-63.01 45.72-78.66 13.35-7.41 28.19-11.16 44.11-11.16 15.04 0 28.98 3.25 41.43 9.66 28 14.41 45.39 43.32 45.39 75.44v115.57c0 6.38-5.17 11.54-11.55 11.54z m-142.02-23.08h130.48V774.96c0-23.44-12.6-44.48-32.87-54.92-9.15-4.71-19.53-7.1-30.86-7.1-11.96 0-23.03 2.78-32.91 8.26-20.87 11.58-33.83 33.99-33.83 58.47v99.32z" p-id="2841"></path><path d="M512.38 471.2m-79.95 0a79.95 79.95 0 1 0 159.9 0 79.95 79.95 0 1 0-159.9 0Z" fill="#FFBE2C" p-id="2842"></path><path d="M512.38 562.69c-50.45 0-91.49-41.04-91.49-91.49 0-50.45 41.04-91.49 91.49-91.49 50.45 0 91.49 41.04 91.49 91.49 0 50.45-41.04 91.49-91.49 91.49z m0-159.9c-37.72 0-68.4 30.69-68.4 68.4s30.69 68.4 68.4 68.4c37.72 0 68.4-30.69 68.4-68.4s-30.68-68.4-68.4-68.4z" p-id="2843"></path><path d="M487.19 483.2c-6.28 0-11.42-5.03-11.54-11.33-0.12-6.37 4.96-11.64 11.33-11.75l14.06-0.26 0.71-40.77c0.11-6.31 5.26-11.34 11.54-11.34h0.21c6.37 0.11 11.45 5.37 11.34 11.74l-0.91 51.9c-0.11 6.21-5.12 11.23-11.33 11.34l-25.19 0.46c-0.08 0.01-0.15 0.01-0.22 0.01zM233.57 529.1h23.09v76.58h-23.09zM348.44 529.1h23.09v76.58h-23.09zM654.76 529.1h23.09v76.58h-23.09zM770.53 529.1h23.09v76.58h-23.09zM245.11 902.07c-6.38 0-11.54-5.17-11.54-11.54v-77.29c0-6.38 5.17-11.54 11.54-11.54s11.54 5.17 11.54 11.54v77.29c0 6.38-5.17 11.54-11.54 11.54zM359.98 902.07c-6.38 0-11.54-5.17-11.54-11.54v-77.29c0-6.38 5.17-11.54 11.54-11.54s11.54 5.17 11.54 11.54v77.29c0 6.38-5.17 11.54-11.54 11.54zM782.07 902.07c-6.31 0-11.47-5.08-11.54-11.41l-0.9-77.29c-0.07-6.38 5.03-11.6 11.41-11.68h0.14c6.31 0 11.47 5.08 11.54 11.41l0.9 77.29c0.07 6.38-5.03 11.6-11.41 11.68h-0.14zM666.75 902.07c-6.31 0-11.47-5.08-11.54-11.41l-0.9-77.29c-0.07-6.38 5.03-11.6 11.41-11.68h0.14c6.31 0 11.47 5.08 11.54 11.41l0.9 77.29c0.07 6.38-5.03 11.6-11.41 11.68h-0.14zM233.57 688.03h23.09v23.34h-23.09zM348.44 688.03h23.09v23.34h-23.09zM654.76 688.03h23.09v23.34h-23.09zM769.63 688.03h23.09v23.34h-23.09z" p-id="2844"></path></svg>