<?xml version="1.0" standalone="no"?><!DOCTYPE svg PUBLIC "-//W3C//DTD SVG 1.1//EN" "http://www.w3.org/Graphics/SVG/1.1/DTD/svg11.dtd"><svg t="1660299100547" class="icon" viewBox="0 0 1024 1024" version="1.1" xmlns="http://www.w3.org/2000/svg" p-id="1584" xmlns:xlink="http://www.w3.org/1999/xlink" width="200" height="200"><defs><style type="text/css">@font-face { font-family: feedback-iconfont; src: url("//at.alicdn.com/t/font_1031158_u69w8yhxdu.woff2?t=1630033759944") format("woff2"), url("//at.alicdn.com/t/font_1031158_u69w8yhxdu.woff?t=1630033759944") format("woff"), url("//at.alicdn.com/t/font_1031158_u69w8yhxdu.ttf?t=1630033759944") format("truetype"); }
</style></defs><path d="M941.64 602.53c0 103.51-37.18 193.91-95.32 221.07-31.56 14.75-68.4 18.34-109 16.94-29.19-1-57.44 9.97-78.7 29.99-36.47 34.34-88.54 55.83-146.35 55.83-57.01 0-108.44-20.89-144.83-54.4-22.68-20.89-53.2-31.1-83.9-28.21-61.29 5.76-110.64-0.05-142.12-46.09-26.07-38.13-48.8-125.82-48.8-201.36 0-258.44 194.21-504.66 418.87-504.66 224.67 0 430.15 252.44 430.15 510.89z" fill="#B9CE4F" p-id="1585"></path><path d="M512.26 938.6c-58.38 0-112.76-20.47-153.12-57.64-20.05-18.47-47.19-27.58-74.46-25.03-36.91 3.47-63.61 2.23-86.59-3.99-28.41-7.7-50.25-23.2-66.78-47.38-28.56-41.78-50.94-133.26-50.94-208.26 0-127.28 46.64-257.4 127.95-356.99 40.25-49.3 86.37-88.3 137.08-115.92 53.61-29.2 109.49-44 166.08-44 56.59 0 113.07 15.13 167.85 44.97 51.07 27.82 99.79 68.61 140.89 117.96 84.94 102.01 133.66 233.3 133.66 360.2 0 52.91-9.28 102.69-26.83 143.96-18.38 43.2-44.5 73.7-75.55 88.21-29.96 14-66.37 19.74-114.61 18.08-25.86-0.9-50.68 8.58-69.89 26.67-19.66 18.51-42.92 33.07-69.12 43.28-27.03 10.54-55.83 15.88-85.62 15.88zM293.72 831.02c30.26 0 59.64 11.33 82.01 31.93 35.83 32.99 84.31 51.16 136.53 51.16 52.24 0 102.52-19.13 137.96-52.5 24-22.6 55.07-34.45 87.52-33.31 44.22 1.52 77.08-3.5 103.4-15.8 25.49-11.91 47.4-38.05 63.38-75.61 16.28-38.26 24.88-84.73 24.88-134.37 0-121.27-46.65-246.85-127.99-344.53-81.56-97.94-187.23-154.12-289.92-154.12-212.81 0-406.63 234.71-406.63 492.42 0 69.58 20.93 156.81 46.67 194.45 28.31 41.41 72.79 46.26 130.86 40.81 3.78-0.35 7.57-0.53 11.33-0.53z" p-id="1586"></path><path d="M384.73 372.71c21.18 30.25 125.05 149.9 431.69 128.11 0 0 28.28-7.79 31.77 19.46 3.5 27.24-29.09 25.33-29.09 25.33l-46.51 0.52a6.414 6.414 0 0 0-6.33 6.21l-0.73 24.77s-6.83 170.22-197.55 274.53c0 0-19.04 11.76-50.87 14.88-31.82 3.11-97.56-36.33-97.56-36.33S305.3 743.68 271.36 623.81l-3.11-15.69c-0.53-2.68-3.47-4.12-5.91-2.89-11.5 5.79-41.45 19.62-67.26 20.65-6.76 0.27-13.34-2.36-17.94-7.32-8.34-8.99-17.36-24.71 7.69-35.06 12.17-2.52 28.44-6.72 46.88-14.01 5.3-2.1 23.27-9.27 38.75-18.86 13.33-8.26 40.48-27.99 63.02-69.8 7.39-14.15 14.77-29.53 43.98-107.22 1.18-3.11 5.36-3.63 7.27-0.9z" fill="#FFFFFF" p-id="1587"></path><path d="M513.59 878.91c-35.53 0-93.55-34.17-100.32-38.23l-0.56-0.34-0.53-0.4c-1.2-0.91-29.89-22.76-63.1-59.82-30.8-34.36-71.32-88.8-89.5-152.98l-0.23-0.95-1.08-5.45c-15.36 6.96-40.19 16.48-62.71 17.37-10.43 0.41-20.4-3.68-27.4-11.23-12.17-13.12-12.89-24.23-11.35-31.24 2.21-10.08 10.07-17.97 23.35-23.46l1.06-0.44 1.13-0.23c15.27-3.16 30.36-7.67 44.86-13.41 18.13-7.17 30.02-13.68 36.81-17.88 23.1-14.3 43.38-36.82 58.66-65.13 7.45-14.27 14.96-30.31 43.33-105.78 2.14-5.7 7.23-9.72 13.28-10.48 6.05-0.77 11.98 1.87 15.48 6.86 9.78 13.97 39.48 49.67 103.91 79.48 66.23 30.64 148.51 46.06 245.27 46.06 22.74 0 46.28-0.85 70.6-2.56 4.7-1.05 19.23-3.36 31.25 4.64 5.63 3.75 12.72 11.19 14.55 25.4 1.76 13.73-3.27 22.4-7.8 27.25-11.29 12.1-29.83 12.04-33.65 11.89l-40.55 0.45-0.57 19.29c-0.07 1.84-2.11 45.63-28.36 102.77-15.35 33.39-35.86 64.53-60.98 92.54-31.25 34.85-69.72 64.91-114.36 89.35-2.99 1.77-23.48 13.28-55.76 16.43-1.52 0.16-3.1 0.23-4.73 0.23z m-87.12-58.87c24.24 14.45 69.43 36.24 89.46 34.28 28.24-2.76 45.5-13.03 45.67-13.14l0.51-0.3c95.07-52 141.96-120.97 164.55-169.68 24.18-52.14 26.56-92.94 26.64-94.57l0.73-24.66c0.3-10.03 8.39-17.98 18.43-18.09l46.94-0.52 0.43 0.02c4.21 0.2 11.92-0.98 14.84-4.15 0.51-0.55 2.05-2.23 1.39-7.4-0.78-6.07-3.04-7.6-3.78-8.1-3.49-2.37-9.98-1.77-12.64-1.1l-1.23 0.36-1.12 0.04c-132.44 9.41-243.09-5.94-328.9-45.64-56.11-25.96-88.39-56.72-104.58-75.9-24.76 65.38-32.09 80.87-39.47 95.01l-0.08 0.14c-17.31 32.11-40.6 57.84-67.36 74.4-7.63 4.72-20.88 12-40.69 19.83a296.868 296.868 0 0 1-47.69 14.36c-5.92 2.61-7.64 4.94-7.79 5.65-0.24 1.11 1.01 4.62 5.39 9.35 2.13 2.3 5.21 3.55 8.47 3.41 24.02-0.96 53.71-15.05 62.24-19.35 4.61-2.32 9.91-2.35 14.55-0.09 4.64 2.26 7.88 6.47 8.88 11.53l3.02 15.2c16.91 59.29 54.82 110.16 83.68 142.43 29.37 32.86 55.63 53.66 59.51 56.68z" p-id="1588"></path><path d="M409.33 720.36c-1.14 0-2.29-0.02-3.45-0.06-33.21-1.15-60.33-18.02-78.45-48.81-13.15-22.34-16.85-44.26-17-45.19-0.58-3.55 0.43-7.17 2.75-9.91a12.25 12.25 0 0 1 9.33-4.32h382.95c6.63 0 12.06 5.28 12.24 11.92 0.02 0.92 0.49 22.73-9.45 45.29-9.53 21.64-30.4 48.02-75.69 50.81-35.46 2.19-65.62-12.98-87.2-43.85-9.69-13.86-15.51-27.9-18.6-36.85l-26.85 0.2c-2.38 8.78-6.88 22.07-14.74 35.31-17.68 29.8-43.85 45.46-75.84 45.46z m-70.91-83.79c2.23 6.65 5.59 14.9 10.48 23.09 13.83 23.15 33.29 35.31 57.83 36.16 24.2 0.85 43.4-10.21 57.05-32.85 5.73-9.5 9.36-19.24 11.52-26.41H338.42z m213.42 0c2.87 7.29 7.39 16.89 14.01 26.22 16.63 23.45 38.57 34.51 65.23 32.87 46.92-2.89 58.46-39.56 61.27-59.09H551.84z" fill="#141414" p-id="1589"></path><path d="M355 575.52a49.2 46.73 0 1 0 98.4 0 49.2 46.73 0 1 0-98.4 0Z" fill="#020202" p-id="1590"></path><path d="M622.5 576.06m-48.26 0a48.26 48.26 0 1 0 96.52 0 48.26 48.26 0 1 0-96.52 0Z" fill="#020202" p-id="1591"></path></svg>