<?xml version="1.0" encoding="utf-8"?>
<!-- Generator: Adobe Illustrator 22.0.1, SVG Export Plug-In . SVG Version: 6.00 Build 0)  -->
<svg version="1.1" id="图层_1" xmlns="http://www.w3.org/2000/svg" xmlns:xlink="http://www.w3.org/1999/xlink" x="0px" y="0px"
	 width="32px" height="32px" viewBox="0 0 32 32" style="enable-background:new 0 0 32 32;" xml:space="preserve">
<g id="图层_1_1_">
	<path d="M21.8,1.4h-12c-1.1,0-2,0.9-2,2v24.9c0,1.1,0.9,2,2,2h12c1.1,0,2-0.9,2-2V3.4C23.8,2.3,22.9,1.4,21.8,1.4z M17.4,15.4h0.8
		c0.3,0,0.5,0.2,0.5,0.5c0,0.3-0.2,0.5-0.5,0.5h-0.8c-0.3,0-0.5-0.2-0.5-0.5S17.2,15.4,17.4,15.4z M12,16.4h-0.8
		c-0.3,0-0.5-0.2-0.5-0.5s0.2-0.5,0.5-0.5H12c0.3,0,0.5,0.2,0.5,0.5C12.5,16.2,12.3,16.4,12,16.4z M14.1,16.4h-0.8
		c-0.3,0-0.5-0.2-0.5-0.5s0.2-0.5,0.5-0.5h0.8c0.3,0,0.5,0.2,0.5,0.5C14.6,16.2,14.3,16.4,14.1,16.4z M19.6,18.2
		c-0.4,0.4-0.8,0.6-1.3,0.6c-0.1,0-0.1,0-0.2,0c-0.4-0.1-1.1-0.3-1.7-1.4c-0.6-1-1.4-2.3-2-3.2c-0.8-1.1-2.1-0.2-2.1-0.2
		c-0.2,0.1-0.4,0.1-0.5-0.1c-0.1-0.2-0.1-0.4,0.1-0.5c0.6-0.5,2.1-1,3.1,0.4c0.6,0.9,1.4,2.3,2,3.2c0.4,0.6,0.8,1,1.2,1.1
		c0.4,0,0.7-0.2,0.9-0.4c0.1-0.1,0.4-0.1,0.5,0C19.7,17.9,19.7,18.1,19.6,18.2z M20.3,16.4h-0.8c-0.3,0-0.5-0.2-0.5-0.5
		s0.2-0.5,0.5-0.5h0.8c0.3,0,0.5,0.2,0.5,0.5C20.8,16.2,20.5,16.4,20.3,16.4z"/>
	<circle style="fill:#FFFFFF;" cx="12.3" cy="27.4" r="1"/>
	<circle style="fill:#FFFFFF;" cx="15.9" cy="27.4" r="1"/>
	<circle style="fill:#FFFFFF;" cx="19.6" cy="27.4" r="1"/>
	<path style="fill:#FFFFFF;" d="M21.4,24.6c0,0.6-0.4,1-1,1h-9c-0.6,0-1-0.4-1-1l0,0c0-0.6,0.4-1,1-1h9C21,23.6,21.4,24,21.4,24.6
		L21.4,24.6z"/>
	<path style="fill:#FFFFFF;" d="M20.4,8.7h-9c-0.6,0-1-0.4-1-1s0.4-1,1-1h9c0.6,0,1,0.4,1,1C21.4,8.2,21,8.7,20.4,8.7z"/>
	<path style="fill:#FFFFFF;" d="M20.4,5.6h-9c-0.6,0-1-0.4-1-1s0.4-1,1-1h9c0.6,0,1,0.4,1,1S21,5.6,20.4,5.6z"/>
</g>
<g id="图层_2_1_">
</g>
</svg>
