<svg id="图层_1" data-name="图层 1" xmlns="http://www.w3.org/2000/svg" viewBox="0 0 48 48"><defs><style>.cls-1{fill:#1687d3;}</style></defs><title>补充图标</title><path class="cls-1" d="M32.4,37H20.8a.4.4,0,0,1-.4-.4V35.4a.4.4,0,0,1,.4-.4H32.4a1.4,1.4,0,0,0,1.4-1.4h0a1.4,1.4,0,0,0-1.4-1.4h-18A3.4,3.4,0,0,1,11,28.8h0a3.4,3.4,0,0,1,3.4-3.4h24A1.4,1.4,0,0,0,39.8,24h0a1.4,1.4,0,0,0-1.4-1.4H9.6a3.4,3.4,0,0,1-3.4-3.4h0a3.4,3.4,0,0,1,3.4-3.4H26.4a1.4,1.4,0,0,0,1.4-1.4h0A1.4,1.4,0,0,0,26.4,13H20.8a.4.4,0,0,1-.4-.4V11.4a.4.4,0,0,1,.4-.4h5.6a3.4,3.4,0,0,1,3.4,3.4h0a3.4,3.4,0,0,1-3.4,3.4H9.6a1.4,1.4,0,0,0-1.4,1.4h0a1.4,1.4,0,0,0,1.4,1.4H38.4A3.4,3.4,0,0,1,41.8,24h0a3.4,3.4,0,0,1-3.4,3.4h-24A1.4,1.4,0,0,0,13,28.8h0a1.4,1.4,0,0,0,1.4,1.4h18a3.4,3.4,0,0,1,3.4,3.4h0A3.4,3.4,0,0,1,32.4,37Z"/></svg>