<?xml version="1.0" encoding="utf-8"?>
<!-- Generator: Adobe Illustrator 22.0.1, SVG Export Plug-In . SVG Version: 6.00 Build 0)  -->
<svg version="1.1" id="图层_1" xmlns="http://www.w3.org/2000/svg" xmlns:xlink="http://www.w3.org/1999/xlink" x="0px" y="0px"
	 viewBox="0 0 200 200" enable-background="new 0 0 200 200" xml:space="preserve">
<g id="图层_1_1_">
	<g>
		<path fill="#6883D8" d="M81.1,15.1H36.6c-7.2,0-13.4,5.7-13.4,13.4v143.1c0,7.2,5.7,13.4,13.4,13.4h44.6c7.2,0,13.4-5.7,13.4-13.4
			V28.5C94.5,21.3,88.3,15.1,81.1,15.1z M70.6,83H47.1c-5,0-9.1-4.1-9.1-9.1s4.1-9.1,9.1-9.1h23.5c5,0,9.1,4.1,9.1,9.1
			C79.7,79,75.6,83,70.6,83z M70.6,49.5H47.1c-5,0-9.1-4.1-9.1-9.1s4.1-9.1,9.1-9.1h23.5c5,0,9.1,4.1,9.1,9.1S75.6,49.5,70.6,49.5z"
			/>
		<path fill="#6883D8" d="M163.4,15.1h-44.6c-7.2,0-13.4,5.7-13.4,13.4v143.1c0,7.2,5.7,13.4,13.4,13.4h44.6
			c7.2,0,13.4-5.7,13.4-13.4V28.5C176.8,21.3,170.6,15.1,163.4,15.1z M152.9,83h-23.5c-5,0-9.1-4.1-9.1-9.1s4.1-9.1,9.1-9.1h23.5
			c5,0,9.1,4.1,9.1,9.1C161.9,79,157.9,83,152.9,83z M152.9,49.5h-23.5c-5,0-9.1-4.1-9.1-9.1s4.1-9.1,9.1-9.1h23.5
			c5,0,9.1,4.1,9.1,9.1C161.9,45.5,157.9,49.5,152.9,49.5z"/>
	</g>
</g>
</svg>
