<?xml version="1.0" encoding="utf-8"?>
<!-- Generator: Adobe Illustrator 22.0.1, SVG Export Plug-In . SVG Version: 6.00 Build 0)  -->
<svg version="1.1" id="图层_1" xmlns="http://www.w3.org/2000/svg" xmlns:xlink="http://www.w3.org/1999/xlink" x="0px" y="0px"
	 viewBox="0 0 200 200" style="enable-background:new 0 0 200 200;" xml:space="preserve">
<style type="text/css">
	.st0{fill:#6883D8;}
</style>
<g id="图层_1_1_">
	<path class="st0" d="M54.6,93H93V54.6c0-21.2-17.2-38.4-38.4-38.4S16.2,33.4,16.2,54.6C16.2,75.8,33.4,93,54.6,93z M183.8,54.6
		c0.3-21.2-16.6-38.7-37.8-39c-21.2-0.3-38.7,16.6-39,37.8c0,0.4,0,0.8,0,1.2V93h38.4C166.6,93,183.8,75.8,183.8,54.6
		C183.8,54.6,183.8,54.6,183.8,54.6z M145.4,107H107v38.4c0,21.2,17.2,38.4,38.4,38.4s38.4-17.2,38.4-38.4
		C183.8,124.2,166.6,107,145.4,107z M17.8,145.4c-0.3,21.2,16.6,38.7,37.8,39c21.2,0.3,38.7-16.6,39-37.8c0-0.4,0-0.8,0-1.2V107
		H56.2C35,107,17.8,124.2,17.8,145.4C17.8,145.4,17.8,145.4,17.8,145.4z"/>
</g>
</svg>
