<?xml version="1.0" encoding="utf-8"?>
<!-- Generator: Adobe Illustrator 22.0.1, SVG Export Plug-In . SVG Version: 6.00 Build 0)  -->
<svg version="1.1" id="图层_1" xmlns="http://www.w3.org/2000/svg" xmlns:xlink="http://www.w3.org/1999/xlink" x="0px" y="0px"
	 viewBox="0 0 200 200" enable-background="new 0 0 200 200" xml:space="preserve">
<g id="图层_1_1_">
	<g>
		<path fill="#6883D8" d="M133.6,48h32.2c1.5,0,2.2-1.8,1.2-2.8l0,0l-32.2-32.2c-1.1-1-2.8-0.3-2.8,1.2v32.2
			C131.9,47.3,132.8,48,133.6,48z"/>
		<path fill="#6883D8" d="M170.3,59h-39.2c-5,0-9-4-9-9V12.9c0-1-0.8-1.8-1.8-1.8H37c-5,0-9,4-9,9v159.9c0,5,4,9,9,9h125.9
			c5,0,9-4,9-9V60.8C171.9,59.8,171.1,59,170.3,59z M47.5,91.1c0-2.1,1.7-3.8,3.8-3.7h37.1c1.9,0,3.4,1.5,3.4,3.4v7.5
			c0,1.9-1.5,3.4-3.4,3.4H54.7c-3.9,0-7.2-3.2-7.2-7.2V91.1z M68.6,147.6c0,1.9-1.5,3.4-3.4,3.4H52.5c-3.9,0-5-3.2-5-7.2
			s1.1-7.2,5-7.2h12.8c1.9,0,3.4,1.5,3.4,3.4v7.6H68.6z M99.6,152.1c0,4.5-3.6,8.1-8.1,8.1h-7.6c-4.5,0-8.1-3.6-8.1-8.1v-17.1
			c0-4.5,3.6-8.1,8.1-8.1h7.6c4.5,0,8.1,3.6,8.1,8.1V152.1z M98.8,103.1V85.8c0-4.5,3.6-8.1,8.1-8.1h7.6c4.5,0,8.1,3.6,8.1,8.1v17.1
			c0,4.5-3.6,8.1-8.1,8.1h-7.6C102.4,111.2,98.8,107.6,98.8,103.1z M150.9,150.9h-41.3c-1.9,0-3.4-1.5-3.4-3.4v-7.6
			c0-1.9,1.5-3.4,3.4-3.4h41.3c3.9,0,7.2,3.2,7.2,7.2S154.9,150.9,150.9,150.9z M158.1,94.6c0,3.9-3.2,7.1-7.1,7.1h-18.2
			c-1.9,0-3.4-1.5-3.4-3.4v-7.6c0-1.9,1.5-3.4,3.4-3.4h18.1C154.9,87.3,158.1,90.6,158.1,94.6L158.1,94.6z"/>
	</g>
</g>
</svg>
