<?xml version="1.0" encoding="utf-8"?>
<!-- Generator: Adobe Illustrator 22.0.1, SVG Export Plug-In . SVG Version: 6.00 Build 0)  -->
<svg version="1.1" id="图层_1" xmlns="http://www.w3.org/2000/svg" xmlns:xlink="http://www.w3.org/1999/xlink" x="0px" y="0px"
	 viewBox="0 0 32 32" style="enable-background:new 0 0 32 32;" xml:space="preserve">
<g id="电动开关阀">
</g>
<g id="电动调节阀">
</g>
<g id="压差平衡阀">
</g>
<g id="电动三通阀">
</g>
<g id="水流开关">
</g>
<g id="压差旁通阀">
	<g>
		<path d="M25.3,20.3c-0.6,0-1,0.5-1,1v7.8c0,0.6,0.5,1,1,1s1-0.5,1-1v-7.8C26.4,20.7,25.9,20.3,25.3,20.3z"/>
		<path d="M6.6,20.3L6.6,20.3c-0.6,0-1,0.4-1,1v7.9c0,0.6,0.4,1,1,1l0,0c0.6,0,1-0.4,1-1v-7.9C7.6,20.7,7.1,20.3,6.6,20.3z"/>
		<path d="M21.3,21.2H10.6c-1.1,0-2,0.9-2,2v4c0,1.1,0.9,2,2,2h10.8c1.1,0,2-0.9,2-2v-4C23.3,22.1,22.4,21.2,21.3,21.2z"/>
		<path d="M14.3,15.6h-2h-0.6c-0.6,0-1,0.4-1,1s0.4,1,1,1h0.6v2.6h7v-2.6h0.6c0.6,0,1-0.4,1-1s-0.4-1-1-1h-0.6h-2
			c3.2-0.7,5.6-3.5,5.6-6.9c0-3.9-3.2-7.1-7.1-7.1S8.7,4.8,8.7,8.7C8.7,12,11.1,14.9,14.3,15.6z M12.1,4.4h2.3l1.4,5.3l1.4-5.3h2.3
			v7.7h-1.4V6l-1.5,6.1H15L13.5,6v6.1h-1.4V4.4z"/>
	</g>
</g>
<g id="电磁阀">
</g>
<g id="截止阀">
</g>
<g id="闸阀">
</g>
<g id="球阀">
</g>
<g id="快开阀">
</g>
<g id="蝶阀">
</g>
<g id="旋塞阀">
</g>
<g id="止回阀">
</g>
<g id="浮球阀">
</g>
<g id="三通阀">
</g>
<g id="自动排气阀">
</g>
</svg>
