<?xml version="1.0" encoding="utf-8"?>
<!-- Generator: Adobe Illustrator 22.0.1, SVG Export Plug-In . SVG Version: 6.00 Build 0)  -->
<svg version="1.1" id="图层_1" xmlns="http://www.w3.org/2000/svg" xmlns:xlink="http://www.w3.org/1999/xlink" x="0px" y="0px"
	 viewBox="0 0 200 200" enable-background="new 0 0 200 200" xml:space="preserve">
<g>
	<g>
		<g>
			<path fill="#6883D8" d="M173.7,54.2l-10.1,0.2c15.6,18.9,21.2,44.6,12.5,69.6c-3,8.6-7.5,16.4-13.1,23.2l10.1-0.2
				c4.4-6.3,8-13.1,10.6-20.6C192.5,100.9,187.9,74.6,173.7,54.2z M165.5,134.1c7-18.5,8.1-39.5,1.5-59.6c-0.9-2.6-1.8-5.1-2.9-7.6
				l-9.4,0.4c1.6,3.2,3,6.6,4.2,10.1c6.3,19.3,4.8,39.7-2.7,57.1L165.5,134.1z M45.5,67.3l-9.4-0.4c-1.1,2.5-2,5-2.9,7.6
				c-6.6,20.1-5.6,41.1,1.4,59.6l9.3,0.4c-7.5-17.4-9-37.8-2.6-57.1C42.4,73.9,43.9,70.5,45.5,67.3z M36.6,54.5l-10.1-0.2
				c-14.3,20.3-19,46.6-10.2,72.2c2.6,7.4,6.2,14.3,10.6,20.6l10.1,0.2c-5.6-6.9-10.1-14.6-13.1-23.3C15.3,99,21,73.2,36.6,54.5z"/>
		</g>
	</g>
	<g>
		<path fill="#6883D8" d="M54.7,148v19.8c0,6.4,5.2,11.6,11.6,11.6h69.9c6.4,0,11.6-5.2,11.6-11.6V148H54.7z"/>
	</g>
	<path fill="#6883D8" d="M136.3,20.5H66.4c-6.4,0-11.6,5.2-11.6,11.6V135H148V32.1C147.9,25.7,142.7,20.5,136.3,20.5z M91.4,90.5
		c0,2.2-1.8,4-4,4h-9.5c-2.2,0-4-1.8-4-4V81c0-2.2,1.8-4,4-4h9.5c2.2,0,4,1.8,4,4V90.5z M91.4,56.5c0,2.2-1.8,4-4,4h-9.5
		c-2.2,0-4-1.8-4-4V47c0-2.2,1.8-4,4-4h9.5c2.2,0,4,1.8,4,4V56.5z M126.1,90.5c0,2.2-1.8,4-4,4h-9.5c-2.2,0-4-1.8-4-4V81
		c0-2.2,1.8-4,4-4h9.5c2.2,0,4,1.8,4,4V90.5z M126.1,56.5c0,2.2-1.8,4-4,4h-9.5c-2.2,0-4-1.8-4-4V47c0-2.2,1.8-4,4-4h9.5
		c2.2,0,4,1.8,4,4V56.5z"/>
</g>
</svg>
