<?xml version="1.0" encoding="utf-8"?>
<!-- Generator: Adobe Illustrator 22.0.1, SVG Export Plug-In . SVG Version: 6.00 Build 0)  -->
<svg version="1.1" id="图层_1" xmlns="http://www.w3.org/2000/svg" xmlns:xlink="http://www.w3.org/1999/xlink" x="0px" y="0px"
	 viewBox="0 0 200 200" enable-background="new 0 0 200 200" xml:space="preserve">
<g id="图层_1_1_">
	<g>
		<path fill="#6883D8" d="M121.4,38.6H78.6c-5.5,0-10-4.5-10-10V28c0-5.5,4.5-10,10-10h42.7c5.5,0,10,4.5,10,10v0.6
			C131.4,34.1,126.9,38.6,121.4,38.6z"/>
		<path fill="#6883D8" d="M156.4,31.5h-16.9v5.4c0,6.9-5.6,12.5-12.5,12.5H70.6c-6.9,0-12.5-5.6-12.5-12.5v-5.4H43.6
			c-7,0-12.6,5.6-12.6,12.5v125.5c0,6.9,5.6,12.5,12.5,12.5h112.9c6.9,0,12.5-5.6,12.5-12.5V44C169,37.1,163.4,31.5,156.4,31.5z
			 M75.4,140.1c0,3.2-2.6,5.9-5.9,5.9H69c-3.2,0-5.9-2.6-5.9-5.9v-13c0-3.2,2.6-5.9,5.9-5.9h3.7c1.5,0,2.8,1.2,2.8,2.8L75.4,140.1
			L75.4,140.1z M106.5,140.1c0,3.2-2.6,5.9-5.9,5.9H100c-3.2,0-5.9-2.6-5.9-5.9v-19.2c0-3.2,2.6-5.9,5.9-5.9h0.6
			c3.2,0,5.9,2.6,5.9,5.9V140.1z M105.7,107c-0.7,0.6-1.8,0.6-2.4-0.2l-9.5-12.2c-0.5-0.7-1.5-0.8-2.2-0.3L69.3,111
			c-0.7,0.5-1.6,0.4-2.2-0.2l-3-3.3c-0.6-0.7-0.5-1.8,0.2-2.4L93,83.6c0.7-0.5,1.7-0.4,2.2,0.3l9,11.4c0.6,0.7,1.7,0.8,2.4,0.2
			L118.9,84c0.7-0.6,0.7-1.7,0-2.3l-3.4-3.2c-0.9-0.9-0.5-2.5,0.8-2.7L135,72c1.2-0.2,2.2,0.8,1.9,2l-4.6,17.1
			c-0.3,1.2-1.8,1.6-2.7,0.7l-2.7-2.6c-0.6-0.6-1.6-0.6-2.2,0L105.7,107z M137.6,140.1c0,3.2-2.6,5.9-5.9,5.9H131
			c-3.2,0-5.9-2.6-5.9-5.9v-31.6c0-3.2,2.6-5.9,5.9-5.9h0.7c3.2,0,5.9,2.6,5.9,5.9L137.6,140.1L137.6,140.1z"/>
	</g>
</g>
</svg>
