<?xml version="1.0" encoding="utf-8"?>
<!-- Generator: Adobe Illustrator 22.0.1, SVG Export Plug-In . SVG Version: 6.00 Build 0)  -->
<svg version="1.1" xmlns="http://www.w3.org/2000/svg" xmlns:xlink="http://www.w3.org/1999/xlink" x="0px" y="0px"
	 viewBox="0 0 24 24" enable-background="new 0 0 24 24" xml:space="preserve">
<g id="图层_1" display="none">
	<g display="inline">
		<path fill="#CFD1D1" d="M23.9,0.1v23.8H0.1V0.1H23.9 M24,0H0v24h24V0L24,0z"/>
		<path fill="#CFD1D1" d="M19.9,2.7c0.8,0,1.4,0.6,1.4,1.4v15.8c0,0.8-0.6,1.4-1.4,1.4H4.1c-0.8,0-1.4-0.6-1.4-1.4V4.1
			c0-0.8,0.6-1.4,1.4-1.4H19.9 M19.9,2.6H4.1c-0.8,0-1.5,0.7-1.5,1.5v15.8c0,0.8,0.7,1.5,1.5,1.5h15.8c0.8,0,1.5-0.7,1.5-1.5V4.1
			C21.4,3.3,20.7,2.6,19.9,2.6L19.9,2.6z"/>
		<path fill="#CFD1D1" d="M18.4,1.2c0.8,0,1.4,0.6,1.4,1.4v18.8c0,0.8-0.6,1.4-1.4,1.4H5.6c-0.8,0-1.4-0.6-1.4-1.4V2.6
			c0-0.8,0.6-1.4,1.4-1.4H18.4 M18.4,1.1H5.6c-0.8,0-1.5,0.7-1.5,1.5v18.8c0,0.8,0.7,1.5,1.5,1.5h12.8c0.8,0,1.5-0.7,1.5-1.5V2.6
			C19.9,1.8,19.2,1.1,18.4,1.1L18.4,1.1z"/>
		<path fill="#CFD1D1" d="M21.4,4.2c0.8,0,1.4,0.6,1.4,1.4v12.8c0,0.8-0.6,1.4-1.4,1.4H2.6c-0.8,0-1.4-0.6-1.4-1.4V5.6
			c0-0.8,0.6-1.4,1.4-1.4H21.4 M21.4,4.1H2.6c-0.8,0-1.5,0.7-1.5,1.5v12.8c0,0.8,0.7,1.5,1.5,1.5h18.8c0.8,0,1.5-0.7,1.5-1.5V5.6
			C22.9,4.8,22.2,4.1,21.4,4.1L21.4,4.1z"/>
		<g>
			<polygon fill="#CFD1D1" points="23.9,24 0,0.1 0.1,0 24,23.9 			"/>
		</g>
		<g>
			<polygon fill="#CFD1D1" points="0,23.9 23.9,0 24,0.1 0.1,24 			"/>
		</g>
		<path fill="#CFD1D1" d="M12,1.2C18,1.2,22.8,6,22.8,12S18,22.8,12,22.8S1.2,18,1.2,12S6,1.2,12,1.2 M12,1.1C6,1.1,1.1,6,1.1,12
			S6,22.9,12,22.9S22.9,18,22.9,12S18,1.1,12,1.1L12,1.1z"/>
		<path fill="#CFD1D1" d="M11.9,7.1c2.7,0,4.9,2.2,4.9,4.9S14.7,17,11.9,17S7,14.8,7,12.1S9.2,7.1,11.9,7.1 M11.9,7.1
			c-2.8,0-5,2.2-5,5s2.2,5,5,5s5-2.2,5-5S14.7,7.1,11.9,7.1L11.9,7.1z"/>
		<g>
			<rect x="8.2" fill="#CFD1D1" width="0.1" height="24"/>
		</g>
		<g>
			<rect x="15.7" fill="#CFD1D1" width="0.1" height="24"/>
		</g>
		<g>
			<rect x="12" fill="#CFD1D1" width="0.1" height="24"/>
		</g>
		<g>
			<rect y="8.2" fill="#CFD1D1" width="24" height="0.1"/>
		</g>
		<g>
			<rect y="15.7" fill="#CFD1D1" width="24" height="0.1"/>
		</g>
		<g>
			<rect y="12" fill="#CFD1D1" width="24" height="0.1"/>
		</g>
	</g>
</g>
<g id="图层_2">
	<g>
		<path d="M13.8,14.1V6.3V5.8V4.4c0-1.3-1-2.4-2.4-2.4C10,2,9,3,9,4.4v1.4v0.5v7.9c-1.2,0.8-1.9,2.1-1.9,3.6c0,2.4,1.9,4.3,4.3,4.3
			c2.3,0,4.3-1.9,4.3-4.3C15.7,16.2,15,14.9,13.8,14.1z M11.4,21.1c-1.8,0-3.3-1.5-3.3-3.3c0-1.3,0.8-2.5,1.9-3v-4.6V5.9V4.4
			C10,3.6,10.7,3,11.4,3c0.8,0,1.4,0.6,1.4,1.4v1.4v4.3v4.6c1.1,0.5,1.9,1.7,1.9,3C14.8,19.6,13.3,21.1,11.4,21.1z"/>
		<path d="M6.4,3.2c0,0-0.9,1.4-0.9,1.9c0,0.5,0.4,0.8,0.9,0.8c0.5,0,0.9-0.4,0.9-0.8S6.4,3.2,6.4,3.2z"/>
		<path d="M3,12.6c0,0.7,0.6,1.3,1.3,1.3c0.7,0,1.3-0.6,1.3-1.3S4.3,9.8,4.3,9.8S3,11.9,3,12.6z"/>
		<path d="M18.5,6.6c0,0-2.5,4.1-2.5,5.4c0,1.4,1.1,2.4,2.5,2.4s2.5-1.1,2.5-2.4C21,10.7,18.5,6.6,18.5,6.6z"/>
		<path d="M11.9,15.4V7.3c0-0.3-0.2-0.5-0.5-0.5C11.2,6.8,11,7,11,7.3v8.2c-1.1,0.2-1.9,1.2-1.9,2.3c0,1.3,1,2.4,2.4,2.4
			s2.4-1,2.4-2.4C13.8,16.6,13,15.6,11.9,15.4z"/>
	</g>
</g>
</svg>
