<?xml version="1.0" encoding="utf-8"?>
<!-- Generator: Adobe Illustrator 22.0.1, SVG Export Plug-In . SVG Version: 6.00 Build 0)  -->
<svg version="1.1" id="图层_1" xmlns="http://www.w3.org/2000/svg" xmlns:xlink="http://www.w3.org/1999/xlink" x="0px" y="0px"
	 width="32px" height="32px" viewBox="0 0 32 32" style="enable-background:new 0 0 32 32;" xml:space="preserve">
<g id="图层_1_1_">
	<g>
		<path d="M26.2,3.5H5.8c-1.2,0-2.2,0.9-2.2,2v20.9c0,1.1,1,2,2.2,2h20.5c1.2,0,2.2-0.9,2.2-2V5.5C28.4,4.4,27.4,3.5,26.2,3.5z
			 M24.1,21.1c0,1.5-1.2,2.7-2.7,2.7H10.6c-1.5,0-2.7-1.2-2.7-2.7V10.3c0-1.5,1.2-2.7,2.7-2.7h10.8c1.5,0,2.7,1.2,2.7,2.7
			C24.1,10.3,24.1,21.1,24.1,21.1z"/>
		<path d="M17.5,11.4H17V9.7h-2v1.7h-0.5c-0.5,0-1,0.5-1,1s0.5,1,1,1H15v1.3h2v-1.3h0.5c0.5,0,1-0.5,1-1S18.1,11.4,17.5,11.4z"/>
		<polygon points="9.1,17.6 9.1,19.6 11.1,19.6 12.3,20.3 12.3,17 11.1,17.6 		"/>
		<polygon points="19,17 19,20.3 20.2,19.6 22.2,19.6 22.2,17.6 20.2,17.6 		"/>
		<circle cx="16" cy="17.7" r="1"/>
		<circle cx="16" cy="19.9" r="1"/>
	</g>
</g>
<g id="图层_2_1_">
</g>
</svg>
