<?xml version="1.0" encoding="utf-8"?>
<!-- Generator: Adobe Illustrator 22.0.1, SVG Export Plug-In . SVG Version: 6.00 Build 0)  -->
<svg version="1.1" id="_x30_1" xmlns="http://www.w3.org/2000/svg" xmlns:xlink="http://www.w3.org/1999/xlink" x="0px" y="0px"
	 viewBox="0 0 24 24" enable-background="new 0 0 24 24" xml:space="preserve">
<g id="_x30_2">
	<g>
		<path fill="#0063F5" d="M20.5,22c-0.4,0-0.8-0.2-1.1-0.5l-4.1-4.1c-1.4,1-3.1,1.5-4.8,1.5c-4.7,0-8.5-3.8-8.5-8.5S5.8,2,10.5,2
			S19,5.8,19,10.5c0,1.7-0.5,3.4-1.5,4.8l4.1,4.1c0.3,0.3,0.4,0.7,0.4,1.1C22,21.3,21.3,22,20.5,22z M10.5,5.1c-3,0-5.4,2.4-5.4,5.4
			s2.4,5.4,5.4,5.4s5.4-2.4,5.4-5.4S13.4,5.1,10.5,5.1z"/>
	</g>
</g>
</svg>
