<?xml version="1.0" encoding="utf-8"?>
<!-- Generator: Adobe Illustrator 22.0.1, SVG Export Plug-In . SVG Version: 6.00 Build 0)  -->
<svg version="1.1" id="图层_1" xmlns="http://www.w3.org/2000/svg" xmlns:xlink="http://www.w3.org/1999/xlink" x="0px" y="0px"
	 width="32px" height="32px" viewBox="0 0 32 32" style="enable-background:new 0 0 32 32;" xml:space="preserve">
<g>
	<path d="M22.3,1.5H9.7c-1.1,0-2,0.9-2,2v25c0,1.1,0.9,2,2,2h12.6c1.1,0,2-0.9,2-2v-25C24.3,2.4,23.4,1.5,22.3,1.5z M21.5,24.6
		c0,0.2-0.2,0.4-0.4,0.4H10.9c-0.2,0-0.4-0.2-0.4-0.4v-6.2c0-0.2,0.2-0.4,0.4-0.4H12v-0.7c0-0.2,0.1-0.3,0.3-0.3h1.4
		c0.2,0,0.3,0.1,0.3,0.3V18h4v-0.7c0-0.2,0.1-0.3,0.3-0.3h1.4c0.2,0,0.3,0.1,0.3,0.3V18h1.1c0.2,0,0.4,0.2,0.4,0.4
		C21.5,18.4,21.5,24.6,21.5,24.6z M11,14v-2h2v2H11z M15,14v-2h2v2H15z M19,14v-2h2v2H19z M20.5,8.7h-9c-0.6,0-1-0.4-1-1s0.4-1,1-1
		h9c0.6,0,1,0.4,1,1S21.1,8.7,20.5,8.7z M20.5,5.6h-9c-0.6,0-1-0.4-1-1s0.4-1,1-1h9c0.6,0,1,0.4,1,1S21.1,5.6,20.5,5.6z"/>
	<path d="M20.5,21H20v-0.5c0-0.3-0.2-0.5-0.5-0.5S19,20.2,19,20.5V21h-0.5c-0.3,0-0.5,0.2-0.5,0.5s0.2,0.5,0.5,0.5H19v0.5
		c0,0.3,0.2,0.5,0.5,0.5s0.5-0.2,0.5-0.5V22h0.5c0.3,0,0.5-0.2,0.5-0.5S20.8,21,20.5,21z"/>
	<path d="M13.5,21h-2c-0.3,0-0.5,0.2-0.5,0.5s0.2,0.5,0.5,0.5h2c0.3,0,0.5-0.2,0.5-0.5S13.8,21,13.5,21z"/>
</g>
</svg>
