<?xml version="1.0" encoding="utf-8"?>
<!-- Generator: Adobe Illustrator 22.0.1, SVG Export Plug-In . SVG Version: 6.00 Build 0)  -->
<svg version="1.1" id="图层_1" xmlns="http://www.w3.org/2000/svg" xmlns:xlink="http://www.w3.org/1999/xlink" x="0px" y="0px"
	 viewBox="0 0 200 200" enable-background="new 0 0 200 200" xml:space="preserve">
<g>
	<path fill="#6883D8" d="M169.9,26.5h-42h-7c-5.8,0-10.5,4.7-10.5,10.5v3.5V58c0,5.8-4.7,10.5-10.5,10.5h-28h-3.5
		c-5.8,0-10.5,4.7-10.5,10.5v3.5V100c0,5.8-4.7,10.5-10.5,10.5H29.9h-3.5c-5.8,0-10.5,4.7-10.5,10.5v3.5V163
		c0,5.8,4.7,10.5,10.5,10.5h3.5h143.6c5.8,0,10.5-4.7,10.5-10.5l0,0V40.5V37c0-5.8-4.7-10.5-10.5-10.5H169.9z"/>
</g>
</svg>
