<?xml version="1.0" encoding="utf-8"?>
<!-- Generator: Adobe Illustrator 22.0.1, SVG Export Plug-In . SVG Version: 6.00 Build 0)  -->
<svg version="1.1" id="图层_1" xmlns="http://www.w3.org/2000/svg" xmlns:xlink="http://www.w3.org/1999/xlink" x="0px" y="0px"
	 viewBox="0 0 200 200" enable-background="new 0 0 200 200" xml:space="preserve">
<g id="图层_1_1_">
	<g>
		<path fill="#6883D8" d="M164.9,31.7h-50.6c-3.3,0-5.9,2.7-5.9,5.9v50.6c0,3.3,2.7,5.9,5.9,5.9h50.6c3.3,0,5.9-2.7,5.9-5.9V37.7
			C170.8,34.4,168.2,31.7,164.9,31.7z"/>
		<path fill="#6883D8" d="M173.8,119.3H86.7c-3.3,0-6-2.7-6-6V20.2H26.2c-3.3,0-6,2.7-6,6v27h23.7v11H20.2v16.5h44.7v11H20.2v16.5
			h23.7v11H20.2v15.6h43.7v11H20.2v28c0,3.3,2.7,6,6,6H68V156h11v23.8h16.5V135h11v44.8H123V156h11v23.8h15.6V136h11v43.8h13.2
			c3.3,0,6-2.7,6-6v-48.6C179.8,122,177.1,119.3,173.8,119.3z"/>
	</g>
</g>
</svg>
