<?xml version="1.0" encoding="utf-8"?>
<!-- Generator: Adobe Illustrator 22.0.1, SVG Export Plug-In . SVG Version: 6.00 Build 0)  -->
<svg version="1.1" id="图层_1" xmlns="http://www.w3.org/2000/svg" xmlns:xlink="http://www.w3.org/1999/xlink" x="0px" y="0px"
	 viewBox="0 0 200 200" enable-background="new 0 0 200 200" xml:space="preserve">
<g id="图层_1_1_">
	<g>
		<g>
			<g>
				<path fill="#7DA4EC" d="M62.6,96.5c1.6,0,3.1,0.6,4.3,1.7l33.1,31.9l33.1-31.9c2.5-2.4,6.4-2.3,8.8,0.2c2.4,2.5,2.3,6.4-0.2,8.8
					l-37.4,36.1c-2.4,2.3-6.3,2.3-8.7,0l-37.4-36.1c-2.5-2.4-2.6-6.4-0.2-8.8C59.3,97.2,60.9,96.5,62.6,96.5z"/>
			</g>
		</g>
		<g>
			<g>
				<path fill="#7DA4EC" d="M62.6,54.9c1.6,0,3.1,0.6,4.3,1.7L100,88.5l33.1-31.9c2.5-2.4,6.4-2.3,8.8,0.2c2.4,2.5,2.3,6.4-0.2,8.8
					l-37.4,36.1c-2.4,2.3-6.3,2.3-8.7,0L58.2,65.6c-2.5-2.4-2.6-6.4-0.2-8.8C59.3,55.5,60.9,54.9,62.6,54.9z"/>
			</g>
		</g>
	</g>
</g>
</svg>
