<?xml version="1.0" standalone="no"?><!DOCTYPE svg PUBLIC "-//W3C//DTD SVG 1.1//EN" "http://www.w3.org/Graphics/SVG/1.1/DTD/svg11.dtd"><svg t="1591605098665" class="icon" viewBox="0 0 1024 1024" version="1.1" xmlns="http://www.w3.org/2000/svg" p-id="6718" xmlns:xlink="http://www.w3.org/1999/xlink" width="200" height="200"><defs><style type="text/css"></style></defs><path d="M544 256h64v64h-64zM544 416h64v64h-64zM224 512h64v160H224zM288 608h192v64H288z" p-id="6719"></path><path d="M448 544h64v224h-64zM832 544h64v224h-64z" p-id="6720"></path><path d="M480 544h416v64H480zM480 704h416v64H480zM256 416h64v64H256zM352 416h64v64h-64zM448 416h64v64h-64zM256 256h64v64H256zM352 256h64v64h-64zM448 256h64v64h-64zM544 352h64v32h-64zM160 256h64v64H160zM160 416h64v64H160zM160 352h64v32H160z" p-id="6721"></path></svg>