<?xml version="1.0" encoding="utf-8"?>
<!-- Generator: Adobe Illustrator 22.0.1, SVG Export Plug-In . SVG Version: 6.00 Build 0)  -->
<svg version="1.1" id="图层_1" xmlns="http://www.w3.org/2000/svg" xmlns:xlink="http://www.w3.org/1999/xlink" x="0px" y="0px"
	 viewBox="0 0 200 200" enable-background="new 0 0 200 200" xml:space="preserve">
<path fill="#6883D8" d="M126.2,153c-2.1-5.2-9.2-14.2-21-26.6c-3.2-3.3-2.9-5.9-1.8-13.4l0.1-0.9c0.8-5.2,2-8.2,19.4-11
	c8.8-1.4,11.2,2.1,14.4,7c0.4,0.5,0.7,1.1,1.1,1.6c3.1,4.5,5.3,5.5,8.8,7.1c1.5,0.7,3.4,1.6,6,3c6.1,3.5,6.1,7.4,6.1,16v1
	c0,13.8-5.1,21.2-7,23.6c-7.5,6.5-16.3,11.6-25.9,15C131.1,166.7,127.5,156.1,126.2,153L126.2,153z M100,20
	c12.4,0,24.2,2.8,34.7,7.9c-5.8,3.7-14.1,9.4-17.5,14c-1.3,1.7-2.3,3.4-3.4,4.9c-3.3,5-4.9,7.3-8,7.6c-1.5,0.2-3.6,0.1-5.7-0.1
	c-5.8-0.4-13.7-0.9-16.3,6c-1.6,4.4-1.9,16.2,3.3,22.4c0.8,1,1,2.8,0.4,4.9c-0.7,2.7-2.3,4.3-2.7,4.7c-0.9-0.5-2.7-2.6-3.9-4
	c-2.9-3.4-6.6-7.6-11.3-9c-1.7-0.5-3.6-0.9-5.4-1.3c-5.1-1-10.9-2.3-12.2-5.1c-1-2.1-1-5-1-8.1c0-3.9,0-8.3-1.9-12.6
	c-1.7-3.7-4.6-5.7-7.6-6.7C56.1,29.8,76.9,20,100,20L100,20z M9.7,100c0,49.9,40.4,90.3,90.3,90.3s90.3-40.4,90.3-90.3
	S149.9,9.7,100,9.7S9.7,50.1,9.7,100z"/>
</svg>
