<?xml version="1.0" encoding="utf-8"?>
<!-- Generator: Adobe Illustrator 22.0.1, SVG Export Plug-In . SVG Version: 6.00 Build 0)  -->
<svg version="1.1" id="图层_1" xmlns="http://www.w3.org/2000/svg" xmlns:xlink="http://www.w3.org/1999/xlink" x="0px" y="0px"
	 viewBox="0 0 200 200" enable-background="new 0 0 200 200" xml:space="preserve">
<g id="图层_1_1_">
	<g>
		<path fill="#6883D8" d="M176.1,88l-71.7-71.1c-2.4-2.4-6.6-2.4-9,0L23.6,88c-3,4.2-0.6,10.8,4.8,10.8h35.9v41.8
			c0,6.6,5.4,12,12,12h47.8c6.6,0,12-5.4,12-12V98.7H172C177.3,98.7,179.6,92.2,176.1,88L176.1,88z M157.4,165.9H42.9
			c-5.1,0-9.5,4.4-9.5,9.5s4.4,9.5,9.5,9.5h114.6c5.1,0,9.5-4.4,9.5-9.5C166.9,170.4,162.5,165.9,157.4,165.9z"/>
	</g>
</g>
</svg>
