<?xml version="1.0" encoding="utf-8"?>
<!-- Generator: Adobe Illustrator 22.0.1, SVG Export Plug-In . SVG Version: 6.00 Build 0)  -->
<svg version="1.1" id="图层_1" xmlns="http://www.w3.org/2000/svg" xmlns:xlink="http://www.w3.org/1999/xlink" x="0px" y="0px"
	 viewBox="0 0 32 32" style="enable-background:new 0 0 32 32;" xml:space="preserve">
<style type="text/css">
	.st0{fill:#C661C9;}
</style>
<title>补充图标</title>
<path class="st0" d="M15,8c-0.6,0-1,0.4-1,1v5.6l-2.7,2.7c-0.4,0.4-0.4,1,0,1.4c0,0,0,0,0,0c0.4,0.4,1,0.4,1.4,0c0,0,0,0,0,0
	l3.3-3.3V9C16,8.4,15.6,8,15,8z"/>
<path class="st0" d="M24.4,18.4L24.4,18.4c0.4-1.1,0.6-2.3,0.6-3.4c0-5.5-4.5-10-10-10S5,9.5,5,15s4.5,10,10,10
	c1.2,0,2.3-0.2,3.4-0.6c1,2.3,3.7,3.2,5.9,2.2c2.3-1,3.2-3.7,2.2-5.9C26.1,19.7,25.4,18.9,24.4,18.4z M18,22.4
	c-4.1,1.7-8.8-0.3-10.4-4.4S7.9,9.3,12,7.6s8.8,0.3,10.4,4.4c0.8,1.9,0.8,4.1,0,6C20,18.1,18,20,18,22.4z M23,25h-1v-1h1V25z M23,23
	h-1v-3h1V23z"/>
</svg>
