<?xml version="1.0" encoding="utf-8"?>
<!-- Generator: Adobe Illustrator 22.0.1, SVG Export Plug-In . SVG Version: 6.00 Build 0)  -->
<svg version="1.1" id="图层_1" xmlns="http://www.w3.org/2000/svg" xmlns:xlink="http://www.w3.org/1999/xlink" x="0px" y="0px"
	 viewBox="0 0 200 200" enable-background="new 0 0 200 200" xml:space="preserve">
<g id="图层_1_1_">
	<path fill="#6883D8" d="M144.1,68.6c10.8,0,19.4,2.8,26.1,7.8V33.5c0-2.7-1.1-5.3-3-7.2c-1.9-1.9-4.5-3-7.2-3H97.2H81H18.1
		C12.5,23.3,8,27.8,8,33.4v45.4c0,5.6,4.5,10.1,10.1,10.1H99C110,76.5,126.1,68.6,144.1,68.6z M35.9,67.2c-4.5,0-8.5-2.7-10.2-6.8
		c-1.7-4.1-0.8-8.9,2.4-12c3.2-3.2,7.9-4.1,12-2.4c4.1,1.7,6.8,5.7,6.8,10.2C47,62.3,42,67.2,35.9,67.2z M71.4,67.2
		c-4.5,0-8.5-2.7-10.2-6.8c-1.7-4.1-0.8-8.9,2.4-12c3.2-3.2,7.9-4.1,12-2.4c4.1,1.7,6.8,5.7,6.8,10.2C82.4,62.3,77.5,67.2,71.4,67.2
		z"/>
	<path fill="#6883D8" d="M84.1,128.6c0-8.7,1.9-17,5.2-24.4h-8.3H18.1c-5.6,0-10.1,4.5-10.1,10.1v45.4c0,5.6,4.5,10.1,10.1,10.1
		h82.4C90.4,159.1,84.1,144.6,84.1,128.6z M35.9,148c-4.5,0-8.5-2.7-10.2-6.8s-0.8-8.9,2.4-12c3.2-3.2,7.9-4.1,12-2.4
		c4.1,1.7,6.8,5.7,6.8,10.2C47,143.1,42,148,35.9,148z M71.4,148c-4.5,0-8.5-2.7-10.2-6.8c-1.7-4.1-0.8-8.9,2.4-12
		c3.2-3.2,7.9-4.1,12-2.4c4.1,1.7,6.8,5.7,6.8,10.2C82.4,143.1,77.5,148,71.4,148z"/>
	<g>
		<g>
			<g>
				<path fill="#6883D8" d="M177.9,94.7C159.3,76,128.8,76,110,94.7c-18.7,18.7-18.7,49.1,0,67.9c18.7,18.7,49.1,18.7,67.9,0
					C196.8,143.8,196.8,113.4,177.9,94.7z M173.9,117.7L173.9,117.7l-32,32.7c-1.4,1.4-3.4,2.3-5.4,2.3c-2.1,0-4.1-0.9-5.5-2.4
					l-16.8-17.7c-2.9-3.1-2.8-7.9,0.1-10.9c1.4-1.4,3.4-2.2,5.4-2.3c2.1,0,4.1,0.9,5.5,2.4l11.3,12l26.5-27.1
					c1.4-1.4,3.4-2.3,5.4-2.3c2.1,0,4.1,0.9,5.5,2.4C176.8,109.9,176.8,114.7,173.9,117.7z"/>
			</g>
		</g>
	</g>
</g>
</svg>
