<svg id="图层_1" data-name="图层 1" xmlns="http://www.w3.org/2000/svg" viewBox="0 0 48 48"><defs><style>.cls-1{fill:#ff3939;}</style></defs><title>补充图标</title><path class="cls-1" d="M31.27,36.41H19.15a1.3,1.3,0,0,1-.89-.34l-4-3.6H12.73a1.32,1.32,0,0,1-1.32-1.32V28.71h-.34a.22.22,0,0,0-.22.22v2.41a1.32,1.32,0,0,1-1.32,1.31H8a1.34,1.34,0,0,1-.93-.38,1.3,1.3,0,0,1-.38-.93V20.82A1.32,1.32,0,0,1,8,19.5h1.5a1.32,1.32,0,0,1,1.32,1.32v2.4a.22.22,0,0,0,.22.23h.34V21.38a1.32,1.32,0,0,1,1.32-1.31h.78l3.18-3.68a1.31,1.31,0,0,1,1-.46h3.69v-.34l-2.83-.06a1.3,1.3,0,0,1-1.3-1.3V12.89a1.3,1.3,0,0,1,1.3-1.3H29.46a1.3,1.3,0,0,1,1.3,1.3v1.34a1.3,1.3,0,0,1-1.3,1.3H26.69l0,.4h3.57a1.31,1.31,0,0,1,.87.33c2.21,2.21,4.67,4.6,5.33,5.12h1.29v-.56A1.32,1.32,0,0,1,39,19.5H40a1.31,1.31,0,0,1,1.31,1.32v10.9A1.31,1.31,0,0,1,40,33h-.83a1.3,1.3,0,0,1-1.22-1.13H36L32.24,36A1.34,1.34,0,0,1,31.27,36.41Zm-12-1.5h12l3.75-4.08a1.32,1.32,0,0,1,1-.43h2.2a1.32,1.32,0,0,1,.94.4,1.24,1.24,0,0,1,.36.73h.39V21h-.56v.57a1.32,1.32,0,0,1-1.32,1.31H36.21c-.37,0-.62,0-6.05-5.45H17.77l-3.18,3.68a1.31,1.31,0,0,1-1,.46h-.69v2A1.41,1.41,0,0,1,11.51,25h-.44a1.72,1.72,0,0,1-1.72-1.73V21H8.22V31.15H9.35V28.93a1.72,1.72,0,0,1,1.72-1.72h.44a1.4,1.4,0,0,1,1.4,1.4V31h1.48a1.29,1.29,0,0,1,.88.34Zm16.68-3ZM40,21h0v0ZM13.6,20.07Zm9.27-4.14h2.26v-.34A1.56,1.56,0,0,1,26.69,14h2.57v-.94H18.74V14h2.57a1.56,1.56,0,0,1,1.56,1.56Zm.83,17.35h0A.87.87,0,0,1,23,33a.94.94,0,0,1-.24-.77c.29-1.7.07-2.56-.15-2.7A3.67,3.67,0,0,1,21,26.37l.13-4.26a1.9,1.9,0,0,1,1.91-1.85h4.52a1.52,1.52,0,0,1,1.53,1.53,1.51,1.51,0,0,1-.18.72L27,26.08a.14.14,0,0,0,.06.17l1.37,0a1.21,1.21,0,0,1,.83,2.09l-5,4.68A.89.89,0,0,1,23.7,33.28Zm-.64-11.52a.41.41,0,0,0-.41.4l-.13,4.25a2.13,2.13,0,0,0,.93,1.84,2.89,2.89,0,0,1,1,2.63l3.31-3.11h-.58a1.72,1.72,0,0,1-.77-.19,1.67,1.67,0,0,1-.79-1,1.65,1.65,0,0,1,.11-1.25l1.9-3.56Z"/><path class="cls-1" d="M24,2A22,22,0,1,1,2,24,22,22,0,0,1,24,2m0-2A24,24,0,1,0,48,24,24,24,0,0,0,24,0Z"/></svg>