<?xml version="1.0" encoding="utf-8"?>
<!-- Generator: Adobe Illustrator 22.0.1, SVG Export Plug-In . SVG Version: 6.00 Build 0)  -->
<svg version="1.1" id="图层_1" xmlns="http://www.w3.org/2000/svg" xmlns:xlink="http://www.w3.org/1999/xlink" x="0px" y="0px"
	 viewBox="0 0 200 200" enable-background="new 0 0 200 200" xml:space="preserve">
<g id="图层_1_1_">
	<path fill="#6883D8" d="M159.4,35.9h-22c0,7.6-3.9,16.1-11.5,16.1h-52c-7.6,0-11.5-8.5-11.5-16.1H40.9c-5.9,0-9.9,3.9-9.9,9.9
		v128.4c0,5.9,3.9,9.9,9.9,9.9h118.5c5.9,0,9.9-3.9,9.9-9.9V45.8C169.2,39.9,165.3,35.9,159.4,35.9z M142.6,158.6h-85
		c-3.8,0-6.9-3.1-6.9-6.9c0-3.8,3.1-6.9,6.9-6.9h85c3.8,0,6.9,3.1,6.9,6.9S146.4,158.6,142.6,158.6z M142.6,128.9h-85
		c-3.8,0-6.9-3.1-6.9-6.9s3.1-6.9,6.9-6.9h85c3.8,0,6.9,3.1,6.9,6.9S146.4,128.9,142.6,128.9z M142.6,99.3h-85
		c-3.8,0-6.9-3.1-6.9-6.9s3.1-6.9,6.9-6.9h85c3.8,0,6.9,3.1,6.9,6.9C149.5,96.2,146.4,99.3,142.6,99.3z"/>
	<g>
		<path fill="#6883D8" d="M120.2,42.7H79.8c-5.2,0-9.5-4.3-9.5-9.5l0,0c0-5.2,4.3-9.5,9.5-9.5h40.3c5.2,0,9.5,4.3,9.5,9.5l0,0
			C129.6,38.4,125.4,42.7,120.2,42.7z"/>
		<path fill="#6883D8" d="M118.1,27.4c0,10-36.2,10-36.2,0S90,9.3,100,9.3S118.1,17.4,118.1,27.4z"/>
	</g>
</g>
</svg>
