<?xml version="1.0" encoding="utf-8"?>
<!-- Generator: Adobe Illustrator 22.0.1, SVG Export Plug-In . SVG Version: 6.00 Build 0)  -->
<svg version="1.1" id="图层_1" xmlns="http://www.w3.org/2000/svg" xmlns:xlink="http://www.w3.org/1999/xlink" x="0px" y="0px"
	 viewBox="0 0 200 200" enable-background="new 0 0 200 200" xml:space="preserve">
<g id="图层_1_1_">
	<path fill="#6883D8" d="M167.2,168.8V22.3c0-5.5-5.4-10.8-10.9-10.8H43.7c-5.5,0-10.9,5.2-10.9,10.8v146.5c-4.6,0.9-8,5-8,9.8
		c0,5.5,4.5,10,10,10h17.8v-17.6c0-1.1,0-2.4,0-4.1v-23.4v-16.8c0-5.1,4.1-9.2,9.2-9.2h18.5c5.1,0,9.2,4.1,9.2,9.2v16.8v23.4v21.7
		h75.6c5.5,0,10-4.5,10-10C175.2,173.8,171.8,169.7,167.2,168.8z M90.2,89.7c0,3.6-2.9,6.6-6.6,6.6H59.2c-3.6,0-6.6-2.9-6.6-6.6
		v-6.5c0-3.6,2.9-6.6,6.6-6.6h24.5c3.6,0,6.6,2.9,6.6,6.6L90.2,89.7L90.2,89.7z M90.2,49.1c0,3.6-2.9,6.6-6.6,6.6H59.2
		c-3.6,0-6.6-2.9-6.6-6.6v-6.5c0-3.6,2.9-6.6,6.6-6.6h24.5c3.6,0,6.6,2.9,6.6,6.6L90.2,49.1L90.2,49.1z M147.1,130.2
		c0,3.6-2.9,6.6-6.6,6.6H116c-3.6,0-6.6-2.9-6.6-6.6v-6.5c0-3.6,2.9-6.6,6.6-6.6h24.5c3.6,0,6.6,2.9,6.6,6.6V130.2z M147.1,89.7
		c0,3.6-2.9,6.6-6.6,6.6H116c-3.6,0-6.6-2.9-6.6-6.6v-6.5c0-3.6,2.9-6.6,6.6-6.6h24.5c3.6,0,6.6,2.9,6.6,6.6V89.7z M147.1,49.1
		c0,3.6-2.9,6.6-6.6,6.6H116c-3.6,0-6.6-2.9-6.6-6.6v-6.5c0-3.6,2.9-6.6,6.6-6.6h24.5c3.6,0,6.6,2.9,6.6,6.6V49.1z"/>
</g>
</svg>
