<?xml version="1.0" encoding="utf-8"?>
<!-- Generator: Adobe Illustrator 22.0.1, SVG Export Plug-In . SVG Version: 6.00 Build 0)  -->
<svg version="1.1" id="图层_1" xmlns="http://www.w3.org/2000/svg" xmlns:xlink="http://www.w3.org/1999/xlink" x="0px" y="0px"
	 width="32px" height="32px" viewBox="0 0 32 32" style="enable-background:new 0 0 32 32;" xml:space="preserve">
<g id="图层_2_1_">
	<path d="M7.7,3.5v25c0,1.1,0.9,2,2,2h12.6c1.1,0,2-0.9,2-2v-25c0-1.1-0.9-2-2-2H9.7C8.6,1.5,7.7,2.4,7.7,3.5z M20.5,8.7h-9
		c-0.6,0-1-0.4-1-1s0.4-1,1-1h9c0.6,0,1,0.4,1,1S21.1,8.7,20.5,8.7z M20.5,5.6h-9c-0.6,0-1-0.4-1-1s0.4-1,1-1h9c0.6,0,1,0.4,1,1
		S21.1,5.6,20.5,5.6z"/>
	<rect x="11" y="24" style="fill:#FFFFFF;" width="2" height="2"/>
	<rect x="15" y="24" style="fill:#FFFFFF;" width="2" height="2"/>
	<rect x="19" y="24" style="fill:#FFFFFF;" width="2" height="2"/>
	<path style="fill:#FFFFFF;" d="M20,15v-2h-8v2h-2v2h2v2h8v-2h2v-2H20z M18,17h-4v-2h4V17z"/>
</g>
</svg>
