<?xml version="1.0" encoding="utf-8"?>
<!-- Generator: Adobe Illustrator 22.0.1, SVG Export Plug-In . SVG Version: 6.00 Build 0)  -->
<svg version="1.1" id="图层_1" xmlns="http://www.w3.org/2000/svg" xmlns:xlink="http://www.w3.org/1999/xlink" x="0px" y="0px"
	 viewBox="0 0 200 200" enable-background="new 0 0 200 200" xml:space="preserve">
<path fill="#6883D8" d="M181.7,83.4l-69.2-64.5c-3.5-4-8.6-6.3-13.9-6.3s-10.3,2.3-13.7,6L18.3,83.3C15,86.7,14,91.6,15.9,96
	c1.8,4.4,6.1,7.1,10.9,7.1h6v65.8c0,10.2,8.2,18.5,18.4,18.5h28.6c3.7,0,7-3,7-6.7V137c0-1.9,1.2-3.5,3.1-3.5H110
	c1.9,0,3.3,1.7,3.3,3.5v43.8c0,3.7,3.1,6.7,6.8,6.7h28.6c10.2,0,18.6-8.3,18.6-18.5v-65.8h6c4.7,0,9-2.7,10.8-7.1
	C186,91.7,185,86.8,181.7,83.4z"/>
</svg>
