<svg id="图层_1" data-name="图层 1" xmlns="http://www.w3.org/2000/svg" viewBox="0 0 48 48"><defs><style>.cls-1{fill:#1687d3;}</style></defs><title>补充图标</title><rect class="cls-1" x="14.6" y="17.8" width="2.4" height="2.4"/><rect class="cls-1" x="19.4" y="17.8" width="2.4" height="2.4"/><rect class="cls-1" x="17" y="20.2" width="2.4" height="2.4"/><rect class="cls-1" x="17" y="15.4" width="2.4" height="2.4"/><rect class="cls-1" x="24.2" y="29.8" width="2.4" height="2.4"/><rect class="cls-1" x="29" y="29.8" width="2.4" height="2.4"/><rect class="cls-1" x="26.6" y="32.2" width="2.4" height="2.4"/><rect class="cls-1" x="26.6" y="27.4" width="2.4" height="2.4"/><rect class="cls-1" x="12.68" y="24" width="20.65" height="2" transform="translate(-10.71 29.18) rotate(-54.46)"/><path class="cls-1" d="M23,7A18,18,0,1,0,41,25,18,18,0,0,0,23,7Zm0,35A17,17,0,1,1,40,25,17,17,0,0,1,23,42Z"/></svg>