<?xml version="1.0" encoding="utf-8"?>
<!-- Generator: Adobe Illustrator 22.0.1, SVG Export Plug-In . SVG Version: 6.00 Build 0)  -->
<svg version="1.1" id="图层_1" xmlns="http://www.w3.org/2000/svg" xmlns:xlink="http://www.w3.org/1999/xlink" x="0px" y="0px"
	 viewBox="0 0 200 200" enable-background="new 0 0 200 200" xml:space="preserve">
<g id="图层_1_1_">
	<g>
		<g>
			<path fill="#7DA4EC" d="M172.9,16.7H68.8c-5.8,0-10.4,4.7-10.4,10.4l0,0h83.3c5.8,0,10.4,4.7,10.4,10.4v114.6h20.8
				c5.8,0,10.4-4.7,10.4-10.4V27.1C183.3,21.3,178.7,16.7,172.9,16.7z M131.3,37.5H27.1c-5.8,0-10.4,4.7-10.4,10.4v125
				c0,5.8,4.7,10.4,10.4,10.4h104.2c5.8,0,10.4-4.7,10.4-10.4v-125C141.7,42.2,137,37.5,131.3,37.5z M110.4,141.7H47.9v-10.4h62.5
				V141.7z M110.4,110.4H47.9V100h62.5V110.4z M110.4,79.2H47.9V68.8h62.5V79.2z"/>
		</g>
	</g>
</g>
</svg>
