<?xml version="1.0" encoding="utf-8"?>
<!-- Generator: Adobe Illustrator 22.0.1, SVG Export Plug-In . SVG Version: 6.00 Build 0)  -->
<svg version="1.1" id="图层_1" xmlns="http://www.w3.org/2000/svg" xmlns:xlink="http://www.w3.org/1999/xlink" x="0px" y="0px"
	 viewBox="0 0 200 200" enable-background="new 0 0 200 200" xml:space="preserve">
<g id="图层_1_1_">
	<path fill="#6883D8" d="M182.1,44.8L150,12.7H54.9c-3.8,0-7.4,1.5-10.1,4.2L16.9,44.7c-2.7,2.7-4.2,6.3-4.2,10.1v49.8
		c0,4.1,1.7,7.9,4.7,10.7l72.5,65.2c2.7,2.5,6.2,3.7,9.6,3.7s6.9-1.2,9.6-3.7l72.5-65.2c3-2.7,4.7-6.6,4.7-10.7V54.9
		C186.3,51.1,184.8,47.5,182.1,44.8z M107.2,136.2H91.3L58.4,53.4h16.9l24.1,57.8l24.4-57.8h16.9L107.2,136.2z"/>
</g>
</svg>
