<?xml version="1.0" standalone="no"?><!DOCTYPE svg PUBLIC "-//W3C//DTD SVG 1.1//EN" "http://www.w3.org/Graphics/SVG/1.1/DTD/svg11.dtd"><svg t="1591605007563" class="icon" viewBox="0 0 1024 1024" version="1.1" xmlns="http://www.w3.org/2000/svg" p-id="5769" xmlns:xlink="http://www.w3.org/1999/xlink" width="200" height="200"><defs><style type="text/css"></style></defs><path d="M608 832H160l-32-32V224l32-32h448l32 32v128a32 32 0 0 1-64 0V256H192v512h384v-96a32 32 0 0 1 64 0v128l-32 32z" p-id="5770"></path><path d="M800 544H416a32 32 0 0 1 0-64h384a32 32 0 0 1 0 64z" p-id="5771"></path><path d="M767.968 672a32 32 0 0 1-27.424-48.48L826.688 480l-86.112-143.52a32 32 0 0 1 10.976-43.904c15.168-9.088 37.088-4.192 46.176 10.976l98.272 160v32.928l-98.272 160c-6.016 9.984-18.88 15.52-29.76 15.52z" p-id="5772"></path></svg>