<?xml version="1.0" encoding="utf-8"?>
<!-- Generator: Adobe Illustrator 22.0.1, SVG Export Plug-In . SVG Version: 6.00 Build 0)  -->
<svg version="1.1" id="图层_1" xmlns="http://www.w3.org/2000/svg" xmlns:xlink="http://www.w3.org/1999/xlink" x="0px" y="0px"
	 width="32px" height="32px" viewBox="0 0 32 32" style="enable-background:new 0 0 32 32;" xml:space="preserve">
<g id="电动三通阀">
	<g>
		<path d="M14.2,15.7h-2h-0.6c-0.6,0-1,0.4-1,1s0.4,1,1,1h0.6v2.6h7v-2.6h0.6c0.6,0,1-0.4,1-1s-0.4-1-1-1h-0.6h-2
			c3.2-0.7,5.6-3.5,5.6-6.9c0-3.9-3.2-7.1-7.1-7.1s-7,3.2-7,7.1C8.7,12.2,11.1,15,14.2,15.7z M17.7,3.8l-1.2,4.1l2.8,0.6l-5.4,5.3
			l1.2-4.1l-2.8-0.6L17.7,3.8z"/>
		<path d="M25.3,20.4c-0.6,0-1,0.5-1,1v7.8c0,0.6,0.4,1,1,1s1-0.5,1-1v-7.8C26.3,20.9,25.9,20.4,25.3,20.4z"/>
		<path d="M6.5,20.4L6.5,20.4c-0.6,0-1,0.4-1,1v7.9c0,0.6,0.4,1,1,1l0,0c0.6,0,1-0.4,1-1v-7.9C7.5,20.9,7.1,20.4,6.5,20.4z"/>
		<path d="M21.3,21.1H10.6c-1.1,0-2,0.9-2,2v2.5c0,0.9,0.6,1.7,1.5,1.9c0.1-1.5,1.4-2.8,3-2.8H19c1.6,0,2.9,1.2,3,2.8
			c0.8-0.2,1.5-1,1.5-1.9v-2.5C23.3,22,22.4,21.1,21.3,21.1z"/>
		<path d="M18.9,25.8H13c-1.1,0-2,0.9-2,2s0.9,2,2,2h5.9c1.1,0,2-0.9,2-2C20.9,26.7,20,25.8,18.9,25.8z"/>
	</g>
</g>
</svg>
