<?xml version="1.0" encoding="utf-8"?>
<!-- Generator: Adobe Illustrator 22.0.1, SVG Export Plug-In . SVG Version: 6.00 Build 0)  -->
<svg version="1.1" id="图层_1" xmlns="http://www.w3.org/2000/svg" xmlns:xlink="http://www.w3.org/1999/xlink" x="0px" y="0px"
	 width="32px" height="32px" viewBox="0 0 32 32" style="enable-background:new 0 0 32 32;" xml:space="preserve">
<g id="图层_1_1_">
	<g>
		<path d="M28,8.5V7c0-1.1-0.9-2-2-2h-2V4c0-0.6-0.4-1-1-1s-1,0.4-1,1v1h-2.7V4c0-0.6-0.4-1-1-1s-1,0.4-1,1v1h-2.7V4
			c0-0.6-0.4-1-1-1s-1,0.4-1,1v1H10V4c0-0.6-0.4-1-1-1S8,3.4,8,4v1H6C4.9,5,4,5.9,4,7v1.5c-1.1,0-2,0.9-2,2v11c0,1.1,0.9,2,2,2V25
			c0,1.1,0.9,2,2,2h20c1.1,0,2-0.9,2-2v-1.5c1.1,0,2-0.9,2-2v-11C30,9.4,29.1,8.5,28,8.5z M11,21c0,0.6-0.4,1-1,1s-1-0.4-1-1V11
			c0-0.6,0.4-1,1-1s1,0.4,1,1V21z M17,21c0,0.6-0.4,1-1,1s-1-0.4-1-1V11c0-0.6,0.4-1,1-1s1,0.4,1,1V21z M23,21c0,0.6-0.4,1-1,1
			s-1-0.4-1-1V11c0-0.6,0.4-1,1-1s1,0.4,1,1V21z"/>
		<path d="M7,29c0,0.6,0.4,1,1,1h4c0.6,0,1-0.4,1-1v-1H7V29z"/>
		<path d="M19,29c0,0.6,0.4,1,1,1h4c0.6,0,1-0.4,1-1v-1h-6V29z"/>
	</g>
</g>
<g id="图层_2_1_">
</g>
</svg>
