<svg id="图层_1" data-name="图层 1" xmlns="http://www.w3.org/2000/svg" viewBox="0 0 48 48"><defs><style>.cls-1{fill:#ff3939;}</style></defs><title>补充图标</title><path class="cls-1" d="M37.36,10.85a4.91,4.91,0,0,1-1.46.2C31.27,11.05,24.5,6,24.5,6s-6.77,5.05-11.4,5.05a4.91,4.91,0,0,1-1.46-.2.64.64,0,0,0-.64.69V27.46S15.5,40.62,24.5,42C33.5,40.62,38,27.46,38,27.46V11.54A.64.64,0,0,0,37.36,10.85ZM36,27.12C34.73,30.61,30.55,38.79,24.5,40c-6.82-1.31-10.81-11-11.5-12.86V13.05h.1c4.06,0,9.09-3.05,11.4-4.6,2.31,1.55,7.34,4.6,11.4,4.6H36Z"/><path class="cls-1" d="M23.21,26.68l-4.4-4.75a1,1,0,0,0-1.47,1.37l4.5,4.84a2,2,0,0,0,1.4.63,1.81,1.81,0,0,0,1.35-.63l7.72-8.31-1.47-1.36Z"/><path class="cls-1" d="M24,0A24,24,0,1,0,48,24,24,24,0,0,0,24,0Zm0,46A22,22,0,1,1,46,24,22,22,0,0,1,24,46Z"/></svg>