<?xml version="1.0" encoding="utf-8"?>
<!-- Generator: Adobe Illustrator 22.0.1, SVG Export Plug-In . SVG Version: 6.00 Build 0)  -->
<svg version="1.1" id="图层_1" xmlns="http://www.w3.org/2000/svg" xmlns:xlink="http://www.w3.org/1999/xlink" x="0px" y="0px"
	 viewBox="0 0 200 200" enable-background="new 0 0 200 200" xml:space="preserve">
<g>
	<path d="M137.5,37.5h-75c-13.8,0-25,11.3-25,25v6.3H50v-6.3C50,55.6,55.6,50,62.5,50h75c6.9,0,12.5,5.6,12.5,12.5v75
		c0,6.9-5.6,12.5-12.5,12.5v12.5c13.8,0,25-11.3,25-25v-75C162.5,48.8,151.3,37.5,137.5,37.5z"/>
</g>
<g>
	<path d="M38.1,139.6l10.9-1.8c0.3,3.8,1.3,6.7,2.8,8.7c1.5,2,3.4,3,5.5,3c2.3,0,4.3-1.2,5.9-3.6c1.6-2.4,2.4-5.7,2.4-9.8
		c0-3.9-0.8-7-2.3-9.2c-1.5-2.3-3.4-3.4-5.6-3.4c-1.4,0-3.2,0.4-5.2,1.2l1.2-12.6c3.1,0.1,5.4-0.8,7-2.7c1.6-1.9,2.4-4.5,2.4-7.7
		c0-2.7-0.6-4.9-1.8-6.5c-1.2-1.6-2.7-2.4-4.7-2.4c-1.9,0-3.6,0.9-4.9,2.7c-1.4,1.8-2.2,4.5-2.5,8l-10.4-2.4
		c0.7-4.9,1.8-8.8,3.3-11.7c1.5-2.9,3.5-5.2,6.1-6.9c2.6-1.7,5.5-2.5,8.8-2.5c5.5,0,10,2.4,13.3,7.2c2.8,4,4.1,8.4,4.1,13.4
		c0,7.1-2.8,12.7-8.5,16.9c3.4,1,6.1,3.2,8.1,6.6c2,3.4,3,7.6,3,12.5c0,7.1-1.9,13.1-5.7,18.1c-3.8,5-8.5,7.5-14.1,7.5
		c-5.3,0-9.8-2.1-13.3-6.3C40.7,151.8,38.7,146.3,38.1,139.6z"/>
	<path d="M86.7,81.5h21.8c4.9,0,8.6,0.5,11.2,1.5c3.5,1.4,6.4,3.9,8.9,7.4c2.5,3.5,4.3,7.9,5.6,13c1.3,5.1,1.9,11.5,1.9,19
		c0,6.6-0.6,12.3-1.8,17.1c-1.5,5.9-3.6,10.6-6.3,14.2c-2.1,2.7-4.9,4.9-8.4,6.4c-2.6,1.1-6.1,1.7-10.5,1.7H86.7V81.5z M98.6,95.1
		v53.3h8.9c3.3,0,5.7-0.3,7.2-0.8c1.9-0.7,3.5-1.8,4.8-3.3c1.3-1.6,2.3-4.2,3.1-7.8c0.8-3.6,1.2-8.5,1.2-14.7c0-6.2-0.4-11-1.2-14.3
		c-0.8-3.3-1.9-5.9-3.4-7.8c-1.4-1.9-3.3-3.1-5.5-3.8c-1.7-0.5-4.9-0.8-9.8-0.8H98.6z"/>
</g>
</svg>
