<?xml version="1.0" encoding="utf-8"?>
<!-- Generator: Adobe Illustrator 22.0.1, SVG Export Plug-In . SVG Version: 6.00 Build 0)  -->
<svg version="1.1" id="图层_1" xmlns="http://www.w3.org/2000/svg" xmlns:xlink="http://www.w3.org/1999/xlink" x="0px" y="0px"
	 width="32px" height="32px" viewBox="0 0 32 32" style="enable-background:new 0 0 32 32;" xml:space="preserve">
<g id="图层_2_1_">
	<g>
		<path d="M25.3,21.3c-0.6,0-1,0.5-1,1v7.8c0,0.6,0.5,1,1,1s1-0.5,1-1v-7.8C26.4,21.7,25.9,21.3,25.3,21.3z"/>
		<path d="M6.6,21.3L6.6,21.3c-0.6,0-1,0.4-1,1v7.9c0,0.6,0.4,1,1,1l0,0c0.6,0,1-0.4,1-1v-7.9C7.6,21.7,7.1,21.3,6.6,21.3z"/>
		<path d="M21.3,22.2H10.6c-1.1,0-2,0.9-2,2v4c0,1.1,0.9,2,2,2h10.8c1.1,0,2-0.9,2-2v-4C23.3,23.1,22.4,22.2,21.3,22.2z"/>
		<path d="M18.4,6.4l-2.1,3c-0.1,0.1-0.3,0.2-0.4,0.2c-0.2,0-0.3-0.1-0.4-0.2l-2.1-3V13h5V6.4z"/>
		<path d="M14.3,16.6h-2h-0.6c-0.6,0-1,0.4-1,1s0.4,1,1,1h0.6v2.6h7v-2.6h0.6c0.6,0,1-0.4,1-1s-0.4-1-1-1h-0.6h-2
			c3.2-0.7,5.6-3.5,5.6-6.9c0-3.9-3.2-7.1-7.1-7.1S8.7,5.8,8.7,9.7C8.7,13,11.1,15.9,14.3,16.6z M12.5,5.5c0-0.3,0.1-0.5,0.4-0.5
			h0.5h5.1H19c0.3,0,0.5,0.2,0.5,0.5v8c0,0.3-0.2,0.5-0.5,0.5h-6c-0.3,0-0.5-0.2-0.5-0.5V5.5L12.5,5.5z"/>
		<polygon points="17.5,6 14.3,6 15.9,8.3 		"/>
	</g>
</g>
</svg>
