<?xml version="1.0" encoding="utf-8"?>
<!-- Generator: Adobe Illustrator 22.0.1, SVG Export Plug-In . SVG Version: 6.00 Build 0)  -->
<svg version="1.1" id="图层_1" xmlns="http://www.w3.org/2000/svg" xmlns:xlink="http://www.w3.org/1999/xlink" x="0px" y="0px"
	 viewBox="0 0 32 32" style="enable-background:new 0 0 32 32;" xml:space="preserve">
<g id="三通阀">
	<g>
		<path d="M6.6,18.3c-0.6,0-1,0.4-1,1v8c0,0.6,0.4,1,1,1s1-0.4,1-1v-8C7.6,18.7,7.1,18.3,6.6,18.3z"/>
		<path d="M25.3,18.4c-0.6,0-1,0.4-1,1v8c0,0.6,0.4,1,1,1s1-0.4,1-1v-8C26.3,18.8,25.9,18.4,25.3,18.4z"/>
		<path d="M12,9.3h8c0.6,0,1-0.4,1-1s-0.4-1-1-1h-8c-0.6,0-1,0.4-1,1S11.4,9.3,12,9.3z"/>
		<polygon points="20,10.4 12,10.4 12,19.3 8.6,19.3 8.6,27.3 23.3,27.3 23.3,19.3 20,19.3 		"/>
	</g>
</g>
</svg>
