<?xml version="1.0" encoding="utf-8"?>
<!-- Generator: Adobe Illustrator 22.0.1, SVG Export Plug-In . SVG Version: 6.00 Build 0)  -->
<svg version="1.1" id="图层_1" xmlns="http://www.w3.org/2000/svg" xmlns:xlink="http://www.w3.org/1999/xlink" x="0px" y="0px"
	 viewBox="0 0 200 200" enable-background="new 0 0 200 200" xml:space="preserve">
<g id="图层_1_1_">
	<path fill="#6883D8" d="M152,34.6V23.5c0-6.1-4.9-11-11-11s-11,4.9-11,11v11.1H152z"/>
	<path fill="#6883D8" d="M111,34.6V23.5c0-6.1-4.9-11-11-11s-11,4.9-11,11v11.1H111z"/>
	<path fill="#6883D8" d="M70,34.6V23.5c0-6.1-4.9-11-11-11s-11,4.9-11,11v11.1H70z"/>
	<path fill="#6883D8" d="M166,70h10.5c6.1,0,11-4.9,11-11s-4.9-11-11-11H166V70z"/>
	<path fill="#6883D8" d="M89,166.6v9.9c0,6.1,4.9,11,11,11s11-4.9,11-11v-9.9H89z"/>
	<path fill="#6883D8" d="M176.5,130H166v22h10.5c6.1,0,11-4.9,11-11S182.6,130,176.5,130z"/>
	<path fill="#6883D8" d="M130,166.6v9.9c0,6.1,4.9,11,11,11s11-4.9,11-11v-9.9H130z"/>
	<path fill="#6883D8" d="M23.5,70H34V48H23.5c-6.1,0-11,4.9-11,11S17.4,70,23.5,70z"/>
	<path fill="#6883D8" d="M176.5,89H166v22h10.5c6.1,0,11-4.9,11-11S182.6,89,176.5,89z"/>
	<path fill="#6883D8" d="M23.5,111H34V89H23.5c-6.1,0-11,4.9-11,11S17.4,111,23.5,111z"/>
	<path fill="#6883D8" d="M48,166.6v9.9c0,6.1,4.9,11,11,11s11-4.9,11-11v-9.9H48z"/>
	<path fill="#6883D8" d="M34,130H23.5c-6.1,0-11,4.9-11,11s4.9,11,11,11H34V130z"/>
	<path fill="#6883D8" d="M46,46.6v108h108v-108C154,46.6,46,46.6,46,46.6z M124,132.5h-22c-6.6,0-12-5.4-12-12s5.4-12,12-12h22
		c6.6,0,12,5.4,12,12S130.6,132.5,124,132.5z"/>
</g>
</svg>
