<svg id="图层_1" data-name="图层 1" xmlns="http://www.w3.org/2000/svg" viewBox="0 0 48 48"><defs><style>.cls-1{fill:#1687d3;}</style></defs><title>补充图标</title><path class="cls-1" d="M7.67,28a.47.47,0,0,0,0-.16.6.6,0,1,0-1.12.42A17.82,17.82,0,0,0,12,37.39a.59.59,0,0,0,.4.15v0a.6.6,0,0,0,.4-1A16.77,16.77,0,0,1,7.67,28Z"/><path class="cls-1" d="M24,6A18,18,0,0,0,6,24H6a.6.6,0,1,0,1.2,0,16.8,16.8,0,1,1,8.62,14.68h0a.59.59,0,0,0-.8.24h0a.6.6,0,0,0,.23.82A18,18,0,1,0,24,6Z"/><polygon class="cls-1" points="32.4 19.2 26.4 19.2 30 13.2 22.8 13.2 18 22.8 22.8 22.8 18 34.8 32.4 19.2"/></svg>