<?xml version="1.0" encoding="utf-8"?>
<!-- Generator: Adobe Illustrator 22.0.1, SVG Export Plug-In . SVG Version: 6.00 Build 0)  -->
<svg version="1.1" id="图层_1" xmlns="http://www.w3.org/2000/svg" xmlns:xlink="http://www.w3.org/1999/xlink" x="0px" y="0px"
	 viewBox="0 0 200 200" enable-background="new 0 0 200 200" xml:space="preserve">
<g id="图层_1_1_">
	<path fill="#6883D8" d="M176.5,37.3l-74.9-25.5c-1.1-0.4-2.3-0.4-3.4,0L23.4,37.3c-2.1,0.7-3.5,2.7-3.5,4.9v65.2
		c0,28.1,16,52.9,42.4,64.9l33.8,15.8c1.4,0.6,3,0.7,4.4,0l36.3-16.7c26.4-11.2,43.3-36.9,43.3-65.8V42.3
		C180,40,178.6,38.1,176.5,37.3z M152,78.4l-56.5,57.7c-1.8,1.9-4.4,3-7,3h-0.1c-2.7,0-5.2-1.2-7-3.1l-29.6-31.3
		c-3.8-4.1-3.7-10.4,0.1-14.3c1.8-1.9,4.5-2.9,7.1-3c2.7,0,5.2,1.2,7,3.1l22.6,23.9L137.9,64c1.8-1.9,4.4-3,7-3h0.1
		c2.7,0,5.2,1.1,7,3.1C155.9,68.2,155.8,74.4,152,78.4z"/>
</g>
</svg>
