<?xml version="1.0" encoding="utf-8"?>
<!-- Generator: Adobe Illustrator 22.0.1, SVG Export Plug-In . SVG Version: 6.00 Build 0)  -->
<svg version="1.1" id="图层_1" xmlns="http://www.w3.org/2000/svg" xmlns:xlink="http://www.w3.org/1999/xlink" x="0px" y="0px"
	 viewBox="0 0 200 200" enable-background="new 0 0 200 200" xml:space="preserve">
<g id="图层_1_1_">
	<g>
		<path fill="#6883D8" d="M140.1,39.1c3.9,0,7-3.1,7-7V22c0-3.9-3.1-7-7-7s-7,3.1-7,7v10.1C133.1,35.9,136.3,39.1,140.1,39.1z"/>
		<path fill="#6883D8" d="M59.8,39.1c3.9,0,7-3.1,7-7V22c0-3.9-3.1-7-7-7s-7,3.1-7,7v10.1C52.8,35.9,55.9,39.1,59.8,39.1z"/>
	</g>
	<path fill="#6883D8" d="M164.1,30.4H161h-4.5v1.8c0,9.1-7.4,16.5-16.5,16.5s-16.5-7.4-16.5-16.5v-1.8H76.3v1.8
		c0,9.1-7.4,16.5-16.5,16.5s-16.5-7.4-16.5-16.5v-1.8h-7.6c-8.8,0-16.1,7.2-16.1,16.1v122.4c0,8.8,7.2,16.1,16.1,16.1h128.5
		c8.8,0,16.1-7.2,16.1-16.1V46.5C180.3,37.6,173.1,30.4,164.1,30.4z M76.8,155.5c0,4-3.2,7.2-7.2,7.2H59.3c-4,0-7.2-3.2-7.2-7.2l0,0
		c0-4,3.2-7.2,7.2-7.2h10.1C73.6,148.3,76.8,151.5,76.8,155.5L76.8,155.5z M76.8,116.5c0,4-3.2,7.2-7.2,7.2H59.3
		c-4,0-7.2-3.2-7.2-7.2l0,0c0-4,3.2-7.2,7.2-7.2h10.1C73.6,109.3,76.8,112.5,76.8,116.5L76.8,116.5z M76.8,76.5c0,4-3.2,7.2-7.2,7.2
		H59.3c-4,0-7.2-3.2-7.2-7.2l0,0c0-4,3.2-7.2,7.2-7.2h10.1C73.6,69.3,76.8,72.5,76.8,76.5L76.8,76.5z M147.8,155.5
		c0,4-3.2,7.2-7.2,7.2H91.3c-4,0-7.2-3.2-7.2-7.2l0,0c0-4,3.2-7.2,7.2-7.2h49.1C144.6,148.3,147.8,151.5,147.8,155.5L147.8,155.5z
		 M147.8,116.5c0,4-3.2,7.2-7.2,7.2H91.3c-4,0-7.2-3.2-7.2-7.2l0,0c0-4,3.2-7.2,7.2-7.2h49.1C144.6,109.3,147.8,112.5,147.8,116.5
		L147.8,116.5z M147.8,76.5c0,4-3.2,7.2-7.2,7.2H91.3c-4,0-7.2-3.2-7.2-7.2l0,0c0-4,3.2-7.2,7.2-7.2h49.1
		C144.6,69.3,147.8,72.5,147.8,76.5L147.8,76.5z"/>
</g>
</svg>
