<?xml version="1.0" standalone="no"?><!DOCTYPE svg PUBLIC "-//W3C//DTD SVG 1.1//EN" "http://www.w3.org/Graphics/SVG/1.1/DTD/svg11.dtd"><svg t="1591604822613" class="icon" viewBox="0 0 1024 1024" version="1.1" xmlns="http://www.w3.org/2000/svg" p-id="3189" xmlns:xlink="http://www.w3.org/1999/xlink" width="200" height="200"><defs><style type="text/css"></style></defs><path d="M639.296 552.192A223.648 223.648 0 0 0 736 368c0-123.68-100.32-224-224-224s-224 100.32-224 224a223.648 223.648 0 0 0 96.704 184.192C253.408 603.36 160 730.816 160 880a32 32 0 0 0 64 0c0-158.784 129.216-288 288-288s288 129.216 288 288a32 32 0 0 0 64 0c0-149.184-93.408-276.64-224.704-327.808zM352 368c0-88.224 71.776-160 160-160s160 71.776 160 160-71.776 160-160 160-160-71.776-160-160z" p-id="3190"></path></svg>