<?xml version="1.0" encoding="utf-8"?>
<!-- Generator: Adobe Illustrator 22.0.1, SVG Export Plug-In . SVG Version: 6.00 Build 0)  -->
<svg version="1.1" id="图层_1" xmlns="http://www.w3.org/2000/svg" xmlns:xlink="http://www.w3.org/1999/xlink" x="0px" y="0px"
	 width="32px" height="32px" viewBox="0 0 32 32" style="enable-background:new 0 0 32 32;" xml:space="preserve">
<g id="图层_6">
	<g>
		<polygon points="16.8,25.8 16.1,26.7 15.8,26.7 15.8,26.2 16.5,25.1 15.9,25.1 15.6,24.9 15.4,25.1 14.5,25.1 14.5,26.7 
			14.3,26.9 14.5,27.1 14.5,28 15.1,27.1 15.5,27.1 15.5,27.6 14.7,28.7 15.4,28.7 15.6,28.9 15.9,28.7 16.8,28.7 16.8,27.1 
			17,26.9 16.8,26.7 		"/>
		<path d="M22.7,1.5H9.3c-0.9,0-1.6,0.9-1.6,2v25c0,1.1,0.7,2,1.6,2h13.4c0.9,0,1.6-0.9,1.6-2v-25C24.3,2.4,23.6,1.5,22.7,1.5z
			 M16,5.8c0.7,0,1.3,0.6,1.3,1.3S16.7,8.3,16,8.3S14.7,7.7,14.7,7S15.3,5.8,16,5.8z M10.6,5.8c0.7,0,1.3,0.6,1.3,1.3
			s-0.6,1.3-1.3,1.3S9.3,7.8,9.3,7.1S9.9,5.8,10.6,5.8z M13.3,26.7L13.1,27l0.2,0.2v1.6L13,29.1l0,0l-0.2,0.2h-1l-0.2-0.2l-0.2,0.2
			h-1L10.1,29l0,0l-0.2-0.2v-1.6l0.2-0.3l-0.2-0.2V25l0.3-0.3l0,0l0.2-0.2h1l0.2,0.2l0.2-0.2h1l0.3,0.3l0,0l0.2,0.2V26.7z
			 M17.3,26.7L17.1,27l0.2,0.2v1.6L17,29.1l0,0l-0.2,0.2h-1l-0.2-0.2l-0.2,0.2h-1L14.1,29l0,0l-0.2-0.2v-1.6l0.2-0.3l-0.2-0.2V25
			l0.3-0.3l0,0l0.2-0.2h1l0.2,0.2l0.2-0.2h1l0.3,0.3l0,0l0.2,0.2V26.7z M22.4,23.3H10.1c-0.2,0-0.4-0.2-0.4-0.5s0.2-0.5,0.4-0.5
			h12.3c0.2,0,0.4,0.2,0.4,0.5S22.6,23.3,22.4,23.3z M15.5,18.9V14c0-0.3,0.2-0.5,0.5-0.5c0.3,0,0.5,0.2,0.5,0.5v4.9l0,0
			c0.3,0.2,0.5,0.5,0.5,0.9c0,0.6-0.4,1-1,1s-1-0.4-1-1C15,19.4,15.3,19.1,15.5,18.9C15.6,18.9,15.5,18.9,15.5,18.9z M22.3,18
			c-0.3,0-0.5-0.2-0.5-0.5c0-3.2-2.6-5.7-5.7-5.7s-5.7,2.6-5.7,5.7c0,0.3-0.2,0.5-0.5,0.5s-0.5-0.2-0.5-0.5c0-3.7,3-6.7,6.7-6.7
			s6.7,3,6.7,6.7C22.7,17.8,22.5,18,22.3,18z M21.8,8.3c-0.7,0-1.3-0.6-1.3-1.3s0.6-1.3,1.3-1.3s1.3,0.6,1.3,1.3S22.5,8.3,21.8,8.3z
			"/>
		<polygon points="12.8,25.8 12.1,26.7 11.8,26.7 11.8,26.2 12.5,25.1 11.9,25.1 11.6,24.9 11.4,25.1 10.5,25.1 10.5,26.7 
			10.3,26.9 10.5,27.1 10.5,28 11.1,27.1 11.5,27.1 11.5,27.6 10.7,28.7 11.4,28.7 11.6,28.9 11.9,28.7 12.8,28.7 12.8,27.1 
			13,26.9 12.8,26.7 		"/>
	</g>
</g>
</svg>
