<svg id="图层_1" data-name="图层 1" xmlns="http://www.w3.org/2000/svg" viewBox="0 0 48 48"><defs><style>.cls-1{fill:#ff3939;}</style></defs><title>补充图标</title><path class="cls-1" d="M24,2A22,22,0,1,1,2,24,22,22,0,0,1,24,2m0-2A24,24,0,1,0,48,24,24,24,0,0,0,24,0Z"/><path class="cls-1" d="M34.87,29l-1.74-1,1.5-.87a1.11,1.11,0,1,0-1.11-1.93L30.9,26.74,26.19,24,31,21.26l2.55,1.48a1.11,1.11,0,0,0,.56.14,1.09,1.09,0,0,0,1-.55,1.11,1.11,0,0,0-.41-1.52L33.19,20,34.83,19a1.11,1.11,0,1,0-1.11-1.93l-1.64.94V16.39A1.11,1.11,0,0,0,31,15.28h0a1.11,1.11,0,0,0-1.11,1.11v2.95l-4.72,2.72V16.62l2.56-1.48a1.11,1.11,0,0,0-1.11-1.92l-1.45.83V12.11a1.11,1.11,0,0,0-2.22,0v1.94l-1.43-.83a1.11,1.11,0,0,0-1.12,1.92l2.55,1.48v5.51l-4.71-2.72v-3a1.12,1.12,0,0,0-2.23,0v1.74l-1.7-1a1.12,1.12,0,0,0-1.52.41,1.11,1.11,0,0,0,.41,1.52l1.64.95-1.37.79A1.11,1.11,0,0,0,14,22.88a1,1,0,0,0,.56-.15L17,21.3,21.74,24,17.1,26.71l-2.55-1.48a1.11,1.11,0,1,0-1.11,1.93l1.44.83-1.75,1a1.12,1.12,0,0,0-.41,1.52,1.11,1.11,0,0,0,1,.55,1.21,1.21,0,0,0,.55-.14l1.74-1v1.66a1.12,1.12,0,0,0,2.23,0V28.63l4.71-2.72v5.44l-2.55,1.47a1.11,1.11,0,0,0-.4,1.52,1.1,1.1,0,0,0,1.51.41l1.44-.83v2a1.11,1.11,0,0,0,2.22,0v-2l1.44.83a1.12,1.12,0,0,0,1.12-1.93l-2.56-1.47V26l4.72,2.72v2.87A1.11,1.11,0,0,0,31,32.69h0a1.11,1.11,0,0,0,1.11-1.11V30l1.68,1a1.11,1.11,0,0,0,1.52-.41A1.12,1.12,0,0,0,34.87,29Zm0,0"/></svg>