<?xml version="1.0" encoding="utf-8"?>
<!-- Generator: Adobe Illustrator 22.0.1, SVG Export Plug-In . SVG Version: 6.00 Build 0)  -->
<svg version="1.1" id="图层_1" xmlns="http://www.w3.org/2000/svg" xmlns:xlink="http://www.w3.org/1999/xlink" x="0px" y="0px"
	 width="32px" height="32px" viewBox="0 0 32 32" style="enable-background:new 0 0 32 32;" xml:space="preserve">
<g id="图层_2_1_">
	<path d="M22,18H10c-1.1,0-2,0.9-2,2v8c0,1.1,0.9,2,2,2h12c1.1,0,2-0.9,2-2v-8C24,18.9,23.1,18,22,18z"/>
	<path d="M22,12H10c-0.6,0-1,0.4-1,1s0.4,1,1,1h5v1h-1c-0.6,0-1,0.4-1,1s0.4,1,1,1h4c0.6,0,1-0.4,1-1s-0.4-1-1-1h-1v-1h5
		c0.6,0,1-0.4,1-1S22.6,12,22,12z"/>
	<path d="M7,22H5v-1c0-0.6-0.4-1-1-1s-1,0.4-1,1v6c0,0.6,0.4,1,1,1s1-0.4,1-1v-1h2V22z"/>
	<g>
		<path d="M28,20c-0.6,0-1,0.4-1,1v1h-2v4h2v1c0,0.6,0.4,1,1,1s1-0.4,1-1v-6C29,20.4,28.6,20,28,20z"/>
	</g>
	<g>
		<path style="fill:#040000;" d="M11.2,11.5c-0.3,0-0.6-0.1-0.8-0.4c-0.3-0.4-0.2-1.1,0.2-1.4c0.5-0.3,0.6-0.5,0.6-0.7
			c0-0.3-0.1-0.4-0.6-0.7S9.5,7.5,9.5,6.5s0.6-1.4,1.1-1.8c0.5-0.3,0.6-0.5,0.6-0.7c0-0.6,0.4-1,1-1s1,0.4,1,1c0,1.3-0.9,2-1.4,2.4
			c0,0-0.1,0.1-0.2,0.1c0.1,0,0.1,0.1,0.2,0.1c0.5,0.4,1.4,1,1.4,2.4c0,1.3-0.9,2-1.4,2.4C11.6,11.5,11.4,11.5,11.2,11.5z"/>
	</g>
	<g>
		<path style="fill:#040000;" d="M15.7,11.5c-0.3,0-0.6-0.1-0.8-0.4c-0.3-0.4-0.2-1.1,0.2-1.4c0.5-0.3,0.6-0.5,0.6-0.7
			c0-0.3-0.1-0.4-0.6-0.7C14.6,7.9,14,7.4,14,6.5s0.6-1.4,1.1-1.8c0.5-0.3,0.6-0.5,0.6-0.7c0-0.6,0.4-1,1-1s1,0.4,1,1
			c0,1.3-0.9,2-1.4,2.4c0,0-0.1,0.1-0.2,0.1c0.1,0,0.1,0.1,0.2,0.1c0.5,0.4,1.4,1,1.4,2.4c0,1.3-0.9,2-1.4,2.4
			C16.1,11.5,15.9,11.5,15.7,11.5z"/>
	</g>
	<g>
		<path style="fill:#040000;" d="M20.2,11.5c-0.3,0-0.6-0.1-0.8-0.4c-0.3-0.4-0.2-1.1,0.2-1.4c0.5-0.3,0.6-0.5,0.6-0.7
			c0-0.3-0.1-0.4-0.6-0.7s-1.1-0.8-1.1-1.8s0.6-1.4,1.1-1.8c0.5-0.3,0.6-0.5,0.6-0.7c0-0.6,0.4-1,1-1s1,0.4,1,1c0,1.3-0.9,2-1.4,2.4
			c0,0-0.1,0.1-0.2,0.1c0.1,0,0.1,0.1,0.2,0.1c0.5,0.4,1.4,1,1.4,2.4c0,1.3-0.9,2-1.4,2.4C20.6,11.5,20.4,11.5,20.2,11.5z"/>
	</g>
</g>
</svg>
