<?xml version="1.0" encoding="utf-8"?>
<!-- Generator: Adobe Illustrator 22.0.1, SVG Export Plug-In . SVG Version: 6.00 Build 0)  -->
<svg version="1.1" xmlns="http://www.w3.org/2000/svg" xmlns:xlink="http://www.w3.org/1999/xlink" x="0px" y="0px"
	 viewBox="0 0 24 24" enable-background="new 0 0 24 24" xml:space="preserve">
<g id="图层_1" display="none">
	<g display="inline">
		<path fill="#CFD1D1" d="M23.9,0.1v23.8H0.1V0.1H23.9 M24,0H0v24h24V0L24,0z"/>
		<path fill="#CFD1D1" d="M19.9,2.7c0.8,0,1.4,0.6,1.4,1.4v15.8c0,0.8-0.6,1.4-1.4,1.4H4.1c-0.8,0-1.4-0.6-1.4-1.4V4.1
			c0-0.8,0.6-1.4,1.4-1.4H19.9 M19.9,2.6H4.1c-0.8,0-1.5,0.7-1.5,1.5v15.8c0,0.8,0.7,1.5,1.5,1.5h15.8c0.8,0,1.5-0.7,1.5-1.5V4.1
			C21.4,3.3,20.7,2.6,19.9,2.6L19.9,2.6z"/>
		<path fill="#CFD1D1" d="M18.4,1.2c0.8,0,1.4,0.6,1.4,1.4v18.8c0,0.8-0.6,1.4-1.4,1.4H5.6c-0.8,0-1.4-0.6-1.4-1.4V2.6
			c0-0.8,0.6-1.4,1.4-1.4H18.4 M18.4,1.1H5.6c-0.8,0-1.5,0.7-1.5,1.5v18.8c0,0.8,0.7,1.5,1.5,1.5h12.8c0.8,0,1.5-0.7,1.5-1.5V2.6
			C19.9,1.8,19.2,1.1,18.4,1.1L18.4,1.1z"/>
		<path fill="#CFD1D1" d="M21.4,4.2c0.8,0,1.4,0.6,1.4,1.4v12.8c0,0.8-0.6,1.4-1.4,1.4H2.6c-0.8,0-1.4-0.6-1.4-1.4V5.6
			c0-0.8,0.6-1.4,1.4-1.4H21.4 M21.4,4.1H2.6c-0.8,0-1.5,0.7-1.5,1.5v12.8c0,0.8,0.7,1.5,1.5,1.5h18.8c0.8,0,1.5-0.7,1.5-1.5V5.6
			C22.9,4.8,22.2,4.1,21.4,4.1L21.4,4.1z"/>
		<g>
			<polygon fill="#CFD1D1" points="23.9,24 0,0.1 0.1,0 24,23.9 			"/>
		</g>
		<g>
			<polygon fill="#CFD1D1" points="0,23.9 23.9,0 24,0.1 0.1,24 			"/>
		</g>
		<path fill="#CFD1D1" d="M12,1.2C18,1.2,22.8,6,22.8,12S18,22.8,12,22.8S1.2,18,1.2,12S6,1.2,12,1.2 M12,1.1C6,1.1,1.1,6,1.1,12
			S6,22.9,12,22.9S22.9,18,22.9,12S18,1.1,12,1.1L12,1.1z"/>
		<path fill="#CFD1D1" d="M11.9,7.1c2.7,0,4.9,2.2,4.9,4.9S14.7,17,11.9,17S7,14.8,7,12.1S9.2,7.1,11.9,7.1 M11.9,7.1
			c-2.8,0-5,2.2-5,5s2.2,5,5,5s5-2.2,5-5S14.7,7.1,11.9,7.1L11.9,7.1z"/>
		<g>
			<rect x="8.2" fill="#CFD1D1" width="0.1" height="24"/>
		</g>
		<g>
			<rect x="15.7" fill="#CFD1D1" width="0.1" height="24"/>
		</g>
		<g>
			<rect x="12" fill="#CFD1D1" width="0.1" height="24"/>
		</g>
		<g>
			<rect y="8.2" fill="#CFD1D1" width="24" height="0.1"/>
		</g>
		<g>
			<rect y="15.7" fill="#CFD1D1" width="24" height="0.1"/>
		</g>
		<g>
			<rect y="12" fill="#CFD1D1" width="24" height="0.1"/>
		</g>
	</g>
</g>
<g id="图层_2">
	<g>
		<path d="M12,16c2.2,0,4-1.7,4-3.8V5.8C16,3.7,14.2,2,12,2S8,3.7,8,5.8v6.3C8.1,14.3,9.8,16,12,16L12,16z"/>
		<path d="M18.2,9.4c-0.4,0-0.8,0.4-0.8,0.8v2.1c0,2.9-2.4,5.2-5.4,5.2s-5.4-2.3-5.4-5.2V10c0-0.4-0.4-0.8-0.8-0.8
			C5.4,9.2,5,9.6,5,10v2.3c0,3.4,2.7,6.3,6.2,6.6v1.6H8.6c-0.4,0-0.8,0.4-0.8,0.8S8.2,22,8.6,22h6.8c0.4,0,0.8-0.4,0.8-0.8
			s-0.4-0.8-0.8-0.8h-2.6v-1.6c3.5-0.4,6.2-3.2,6.2-6.6v-2.1C19,9.7,18.6,9.4,18.2,9.4z"/>
	</g>
</g>
</svg>
