<?xml version="1.0" encoding="utf-8"?>
<!-- Generator: Adobe Illustrator 22.0.1, SVG Export Plug-In . SVG Version: 6.00 Build 0)  -->
<svg version="1.1" id="图层_1" xmlns="http://www.w3.org/2000/svg" xmlns:xlink="http://www.w3.org/1999/xlink" x="0px" y="0px"
	 viewBox="0 0 200 200" enable-background="new 0 0 200 200" xml:space="preserve">
<g id="图层_1_1_">
	<g>
		<path fill="#6883D8" d="M28.8,128.5l34.8-27.2c1-0.8,1-2.3,0-3.1L28.8,70.9c-1.3-1-3.2-0.1-3.2,1.5v54.5
			C25.6,128.6,27.5,129.5,28.8,128.5z"/>
		<path fill="#6883D8" d="M29.2,161.6h142.1c4,0,7.3,3.6,7.3,8l0,0c0,4.4-3.3,8-7.3,8H29.2c-4,0-7.3-3.6-7.3-8l0,0
			C21.9,165.2,25.2,161.6,29.2,161.6z"/>
		<path fill="#6883D8" d="M29.3,22.2h142.1c4,0,7.3,3.6,7.3,8l0,0c0,4.4-3.3,8-7.3,8H29.3c-4,0-7.3-3.6-7.3-8l0,0
			C22,25.8,25.3,22.2,29.3,22.2z"/>
		<path fill="#6883D8" d="M85.5,68.6h82.1c4,0,7.3,3.6,7.3,8l0,0c0,4.4-3.3,8-7.3,8H85.5c-4,0-7.3-3.6-7.3-8l0,0
			C78.2,72.2,81.5,68.6,85.5,68.6z"/>
		<path fill="#6883D8" d="M85.5,115.1h82.1c4,0,7.3,3.6,7.3,8l0,0c0,4.4-3.3,8-7.3,8H85.5c-4,0-7.3-3.6-7.3-8l0,0
			C78.2,118.7,81.5,115.1,85.5,115.1z"/>
	</g>
</g>
</svg>
