<svg id="图层_1" data-name="图层 1" xmlns="http://www.w3.org/2000/svg" viewBox="0 0 48 48"><defs><style>.cls-1{fill:#ff3939;}</style></defs><title>补充图标</title><path class="cls-1" d="M34.11,21.89c1.81,7.71-2.63,9-2.63,9a25.32,25.32,0,0,0,1.27-7.14C32.75,11,19.51,6,19.51,6c8.27,7.92,1,16.31,1,16.31,2.12-6.19-1.39-8.5-1.39-8.5a5.64,5.64,0,0,1-1.54,6.7C15,23.39,12,25,12,31.83s4.77,8.24,4.77,8.24c-2.42-9.08,5.4-10.55,5.4-10.55a9.15,9.15,0,0,0-4,7.55C18.2,42.2,24,42,24,42c8.23,0,12-8.48,12-13.32s-1.89-6.79-1.89-6.79ZM24,40.7s-4.49.36-4.49-3.81,4-7.18,6.74-8.94c0,0-10.4-1.54-11.37,8.57,0,0-1.54-1.25-1.54-5.42s1.85-6.3,6.09-10.62a16.44,16.44,0,0,1-2.2,7.25s10.26-7.17,7-17.11c0,0,11.5,6.6,4.8,23.19a13.27,13.27,0,0,0,5.51-3.74S32.43,40.7,24,40.7Zm0,0"/><path class="cls-1" d="M24,2A22,22,0,1,1,2,24,22,22,0,0,1,24,2m0-2A24,24,0,1,0,48,24,24,24,0,0,0,24,0Z"/></svg>