<?xml version="1.0" encoding="utf-8"?>
<!-- Generator: Adobe Illustrator 22.0.1, SVG Export Plug-In . SVG Version: 6.00 Build 0)  -->
<svg version="1.1" id="图层_1" xmlns="http://www.w3.org/2000/svg" xmlns:xlink="http://www.w3.org/1999/xlink" x="0px" y="0px"
	 width="32px" height="32px" viewBox="0 0 32 32" style="enable-background:new 0 0 32 32;" xml:space="preserve">
<g id="图层_2_1_">
	<path d="M22.3,1.5H9.7c-1.1,0-2,0.9-2,2v25c0,1.1,0.9,2,2,2h12.6c1.1,0,2-0.9,2-2v-25C24.3,2.4,23.4,1.5,22.3,1.5z M20,26
		c0,0.6-0.4,1-1,1h-6c-0.6,0-1-0.4-1-1V15c0-0.6,0.4-1,1-1h6c0.6,0,1,0.4,1,1V26z M14,13c0-0.5,0.5-1,1-1h2c0.5,0,1,0.5,1,1H14z
		 M20.5,8.7h-9c-0.6,0-1-0.4-1-1s0.4-1,1-1h9c0.6,0,1,0.4,1,1S21.1,8.7,20.5,8.7z M20.5,5.6h-9c-0.6,0-1-0.4-1-1s0.4-1,1-1h9
		c0.6,0,1,0.4,1,1S21.1,5.6,20.5,5.6z"/>
	<path d="M17,24h-2c-0.3,0-0.5,0.2-0.5,0.5S14.7,25,15,25h2c0.3,0,0.5-0.2,0.5-0.5S17.3,24,17,24z"/>
	<path d="M17,17h-0.5v-0.5c0-0.3-0.2-0.5-0.5-0.5s-0.5,0.2-0.5,0.5V17H15c-0.3,0-0.5,0.2-0.5,0.5S14.7,18,15,18h0.5v0.5
		c0,0.3,0.2,0.5,0.5,0.5c0.3,0,0.5-0.2,0.5-0.5V18H17c0.3,0,0.5-0.2,0.5-0.5S17.3,17,17,17z"/>
</g>
</svg>
