<?xml version="1.0" encoding="utf-8"?>
<!-- Generator: Adobe Illustrator 22.0.1, SVG Export Plug-In . SVG Version: 6.00 Build 0)  -->
<svg version="1.1" id="图层_1" xmlns="http://www.w3.org/2000/svg" xmlns:xlink="http://www.w3.org/1999/xlink" x="0px" y="0px"
	 viewBox="0 0 200 200" enable-background="new 0 0 200 200" xml:space="preserve">
<g id="图层_1_1_">
	<g>
		<path d="M175.6,35.1c2,2,3,4.4,3,7.2v118.3c0,2.8-1,5.2-3,7.2s-4.4,3-7.2,3H29c-2.9,0-5.3-1-7.3-3s-3-4.4-3-7.2V42.3
			c0-2.8,1-5.2,3-7.2s4.4-3,7.3-3h33.2v-7.7c0-1.7,1.3-3,3-3h15.3c1.7,0,3,1.3,3,3v7.7h32v-7.7c0-1.7,1.3-3,3-3h15.3
			c1.7,0,3,1.3,3,3v7.7h31.7C171.2,32.1,173.6,33.1,175.6,35.1z M165.9,42.8H31.3c-1.1,0-2,0.9-2,2v113.3c0,1.1,0.9,2,2,2h134.6
			c1.1,0,2-0.9,2-2V44.8C167.9,43.7,167,42.8,165.9,42.8z M88.8,138.8H57.5c-3.3,0-6-2.7-6-6v-30.6c0-3.3,2.7-6,6-6h24
			c1.1,0,2-0.9,2-2V76.8c0-1.1-0.9-2-2-2H56.1c-2.6,0-4.7-2.1-4.7-4.7l0,0c0-3.3,2.7-6,6-6H86c4.4,0,8,3.6,8,8v26.6c0,4.4-3.6,8-8,8
			H64c-1.1,0-2,0.9-2,2V126c0,1.1,0.9,2,2,2h24.7c2.9,0,5.3,2.4,5.3,5.3l0,0C94.1,136.4,91.7,138.8,88.8,138.8z M141.2,138.8H111
			c-3.5,0-6.2-2.8-6.2-6.2V72.3c0-4.5,3.6-8.1,8.1-8.1h26.4c4.5,0,8.1,3.6,8.1,8.1v2.5v53.3v4.4C147.4,136,144.6,138.8,141.2,138.8z
			 M136.7,126.1V76.8c0-1.1-0.9-2-2-2h-17.3c-1.1,0-2,0.9-2,2v49.3c0,1.1,0.9,2,2,2h17.3C135.9,128.1,136.7,127.2,136.7,126.1z"/>
	</g>
</g>
</svg>
