<?xml version="1.0" encoding="utf-8"?>
<!-- Generator: Adobe Illustrator 22.0.1, SVG Export Plug-In . SVG Version: 6.00 Build 0)  -->
<svg version="1.1" xmlns="http://www.w3.org/2000/svg" xmlns:xlink="http://www.w3.org/1999/xlink" x="0px" y="0px"
	 viewBox="0 0 24 24" enable-background="new 0 0 24 24" xml:space="preserve">
<g id="图层_1" display="none">
	<g display="inline">
		<path fill="#CFD1D1" d="M23.9,0.1v23.8H0.1V0.1H23.9 M24,0H0v24h24V0L24,0z"/>
		<path fill="#CFD1D1" d="M19.9,2.7c0.8,0,1.4,0.6,1.4,1.4v15.8c0,0.8-0.6,1.4-1.4,1.4H4.1c-0.8,0-1.4-0.6-1.4-1.4V4.1
			c0-0.8,0.6-1.4,1.4-1.4H19.9 M19.9,2.6H4.1c-0.8,0-1.5,0.7-1.5,1.5v15.8c0,0.8,0.7,1.5,1.5,1.5h15.8c0.8,0,1.5-0.7,1.5-1.5V4.1
			C21.4,3.3,20.7,2.6,19.9,2.6L19.9,2.6z"/>
		<path fill="#CFD1D1" d="M18.4,1.2c0.8,0,1.4,0.6,1.4,1.4v18.8c0,0.8-0.6,1.4-1.4,1.4H5.6c-0.8,0-1.4-0.6-1.4-1.4V2.6
			c0-0.8,0.6-1.4,1.4-1.4H18.4 M18.4,1.1H5.6c-0.8,0-1.5,0.7-1.5,1.5v18.8c0,0.8,0.7,1.5,1.5,1.5h12.8c0.8,0,1.5-0.7,1.5-1.5V2.6
			C19.9,1.8,19.2,1.1,18.4,1.1L18.4,1.1z"/>
		<path fill="#CFD1D1" d="M21.4,4.2c0.8,0,1.4,0.6,1.4,1.4v12.8c0,0.8-0.6,1.4-1.4,1.4H2.6c-0.8,0-1.4-0.6-1.4-1.4V5.6
			c0-0.8,0.6-1.4,1.4-1.4H21.4 M21.4,4.1H2.6c-0.8,0-1.5,0.7-1.5,1.5v12.8c0,0.8,0.7,1.5,1.5,1.5h18.8c0.8,0,1.5-0.7,1.5-1.5V5.6
			C22.9,4.8,22.2,4.1,21.4,4.1L21.4,4.1z"/>
		<g>
			<polygon fill="#CFD1D1" points="23.9,24 0,0.1 0.1,0 24,23.9 			"/>
		</g>
		<g>
			<polygon fill="#CFD1D1" points="0,23.9 23.9,0 24,0.1 0.1,24 			"/>
		</g>
		<path fill="#CFD1D1" d="M12,1.2C18,1.2,22.8,6,22.8,12S18,22.8,12,22.8S1.2,18,1.2,12S6,1.2,12,1.2 M12,1.1C6,1.1,1.1,6,1.1,12
			S6,22.9,12,22.9S22.9,18,22.9,12S18,1.1,12,1.1L12,1.1z"/>
		<path fill="#CFD1D1" d="M11.9,7.1c2.7,0,4.9,2.2,4.9,4.9S14.7,17,11.9,17S7,14.8,7,12.1S9.2,7.1,11.9,7.1 M11.9,7.1
			c-2.8,0-5,2.2-5,5s2.2,5,5,5s5-2.2,5-5S14.7,7.1,11.9,7.1L11.9,7.1z"/>
		<g>
			<rect x="8.2" fill="#CFD1D1" width="0.1" height="24"/>
		</g>
		<g>
			<rect x="15.7" fill="#CFD1D1" width="0.1" height="24"/>
		</g>
		<g>
			<rect x="12" fill="#CFD1D1" width="0.1" height="24"/>
		</g>
		<g>
			<rect y="8.2" fill="#CFD1D1" width="24" height="0.1"/>
		</g>
		<g>
			<rect y="15.7" fill="#CFD1D1" width="24" height="0.1"/>
		</g>
		<g>
			<rect y="12" fill="#CFD1D1" width="24" height="0.1"/>
		</g>
	</g>
</g>
<g id="图层_2">
	<path d="M12,2.8C6.2,2.8,1.5,7.6,1.5,13.4c0,2.1,0.6,4,1.7,5.8h17.7c1.1-1.8,1.7-3.7,1.7-5.8C22.5,7.6,17.9,2.8,12,2.8z M11.1,5.1
		c0-0.4,0.3-0.7,0.7-0.7s0.7,0.3,0.7,0.7v1.8c0,0.4-0.3,0.7-0.7,0.7s-0.7-0.3-0.7-0.7V5.1z M5.6,13.9H3.8c-0.4,0-0.7-0.3-0.7-0.7
		s0.3-0.7,0.7-0.7h1.8c0.4,0,0.7,0.3,0.7,0.7S5.9,13.9,5.6,13.9z M7,10.4c-0.2,0.3-0.6,0.4-0.9,0.2L4.6,9.7C4.3,9.6,4.2,9.2,4.4,8.9
		C4.6,8.5,5,8.4,5.3,8.6l1.5,0.9C7.1,9.7,7.2,10.1,7,10.4z M9.1,8.3C8.8,8.5,8.4,8.4,8.3,8.1L7.4,6.5C7.2,6.2,7.3,5.8,7.6,5.7
		s0.7-0.1,0.9,0.2l0.9,1.5C9.6,7.7,9.4,8.1,9.1,8.3z M14,10.6l-2.6,5.9c-0.2,0.4-0.6,0.5-1,0.4c-0.4-0.2-0.5-0.6-0.4-1l2.6-5.9
		c0.2-0.4,0.6-0.5,1-0.4C14,9.8,14.2,10.3,14,10.6L14,10.6z M16.7,6.5l-0.9,1.5c-0.2,0.3-0.6,0.4-0.9,0.2c-0.3-0.2-0.4-0.6-0.2-0.9
		l0.9-1.5c0.2-0.3,0.6-0.4,0.9-0.2C16.8,5.8,16.9,6.2,16.7,6.5z M17,10.4c-0.2-0.3-0.1-0.7,0.2-0.9l1.5-0.9c0.3-0.2,0.7-0.1,0.9,0.2
		c0.2,0.3,0.1,0.7-0.2,0.9l-1.5,0.9C17.6,10.8,17.2,10.7,17,10.4z M20.2,13.9h-1.8c-0.4,0-0.7-0.3-0.7-0.7s0.3-0.7,0.7-0.7h1.8
		c0.4,0,0.7,0.3,0.7,0.7S20.6,13.9,20.2,13.9z"/>
</g>
</svg>
