<?xml version="1.0" encoding="utf-8"?>
<!-- Generator: Adobe Illustrator 22.0.1, SVG Export Plug-In . SVG Version: 6.00 Build 0)  -->
<svg version="1.1" id="图层_1" xmlns="http://www.w3.org/2000/svg" xmlns:xlink="http://www.w3.org/1999/xlink" x="0px" y="0px"
	 viewBox="0 0 200 200" enable-background="new 0 0 200 200" xml:space="preserve">
<g id="图层_1_1_">
	<g>
		<g>
			<path fill="#7DA4EC" d="M100,12.5c-48.2,0-87.5,39.2-87.5,87.5s39.2,87.5,87.5,87.5s87.5-39.2,87.5-87.5S148.3,12.5,100,12.5z
				 M134.6,126c2.4,2.4,2.4,6.3,0,8.7s-6.3,2.4-8.7,0l-26-26l-26,26c-2.4,2.4-6.3,2.4-8.7,0c-2.4-2.4-2.4-6.3,0-8.7l26-26l-26-26
				c-2.4-2.4-2.4-6.3,0-8.7c2.4-2.4,6.3-2.4,8.7,0l26,26l26-26c2.4-2.4,6.3-2.4,8.7,0s2.4,6.3,0,8.7l-26,26L134.6,126z"/>
		</g>
	</g>
</g>
</svg>
