<?xml version="1.0" encoding="utf-8"?>
<!-- Generator: Adobe Illustrator 22.0.1, SVG Export Plug-In . SVG Version: 6.00 Build 0)  -->
<svg version="1.1" id="图层_1" xmlns="http://www.w3.org/2000/svg" xmlns:xlink="http://www.w3.org/1999/xlink" x="0px" y="0px"
	 viewBox="0 0 32 32" style="enable-background:new 0 0 32 32;" xml:space="preserve">
<g id="闸阀">
	<g>
		<circle cx="15.9" cy="18.8" r="1.8"/>
		<path d="M18.6,13.9H8.4v11.2h10.2L20,24l0,0h3.3v-9H20L18.6,13.9z M17.3,22.4L15.9,24l-1.4-1.6c-1.5-0.6-2.5-2-2.5-3.6
			c0-2.1,1.7-3.8,3.8-3.8s3.8,1.7,3.8,3.8C19.7,20.4,18.7,21.8,17.3,22.4z"/>
		<path d="M6.4,12.5c-0.6,0-1,0.4-1,1v12c0,0.6,0.4,1,1,1s1-0.4,1-1v-12C7.4,12.9,7,12.5,6.4,12.5z"/>
		<path d="M25.3,12.5c-0.6,0-1,0.4-1,1v12c0,0.6,0.4,1,1,1s1-0.4,1-1v-12C26.3,12.9,25.9,12.5,25.3,12.5z"/>
		<path d="M13,12.8h5.8c0.6,0,1-0.4,1-1s-0.4-1-1-1h-1.9V6.3h5.9c0.3,0,0.5-0.2,0.5-0.5s-0.2-0.5-0.5-0.5h-5.9h-1.1h-0.9v5.6H13
			c-0.6,0-1,0.4-1,1S12.4,12.8,13,12.8z"/>
	</g>
</g>
</svg>
