<?xml version="1.0" encoding="utf-8"?>
<!-- Generator: Adobe Illustrator 22.0.1, SVG Export Plug-In . SVG Version: 6.00 Build 0)  -->
<svg version="1.1" id="图层_1" xmlns="http://www.w3.org/2000/svg" xmlns:xlink="http://www.w3.org/1999/xlink" x="0px" y="0px"
	 viewBox="0 0 200 200" enable-background="new 0 0 200 200" xml:space="preserve">
<g id="图层_1_1_">
	<path fill="#6883D8" d="M161.9,21.9h-3.8v51.5c0,0.9-1.1,1.3-1.7,0.7l-13.6-13.6l-8.2-8.2l-8.2,8.2l-13.6,13.6
		c-0.6,0.6-1.7,0.2-1.7-0.7V21.9h-4H60v156.3H45.6V21.9h-0.9h-7.8c-8.6,0-15.6,7-15.6,15.6v125c0,8.6,7,15.6,15.6,15.6h7.8h7.8
		h109.4c8.6,0,15.6-7,15.6-15.6v-125C177.5,28.9,170.5,21.9,161.9,21.9z M86.2,109h40.5c4,0,7.2,3.2,7.2,7.2s-3.2,7.2-7.2,7.2H86.2
		c-4,0-7.2-3.2-7.2-7.2S82.2,109,86.2,109z M156.5,149.1c0,4-3.2,7.2-7.2,7.2H86.2c-4,0-7.2-3.2-7.2-7.2l0,0c0-4,3.2-7.2,7.2-7.2
		h63.1C153.3,141.9,156.5,145.1,156.5,149.1L156.5,149.1z"/>
</g>
</svg>
