<?xml version="1.0" encoding="utf-8"?>
<!-- Generator: Adobe Illustrator 22.0.1, SVG Export Plug-In . SVG Version: 6.00 Build 0)  -->
<svg version="1.1" id="图层_1" xmlns="http://www.w3.org/2000/svg" xmlns:xlink="http://www.w3.org/1999/xlink" x="0px" y="0px"
	 viewBox="0 0 32 32" style="enable-background:new 0 0 32 32;" xml:space="preserve">
<g id="图层_13">
	<g>
		<rect x="6.5" y="10.6" width="14" height="0.8"/>
		<rect x="6.5" y="19.8" width="14" height="0.8"/>
		<rect x="6.5" y="15.2" width="14" height="0.8"/>
		<path d="M28.8,28H27c-0.1,0-0.1-0.1-0.1-0.2V8.5c0-0.5-0.2-0.8-0.4-0.9c-0.4-0.4-0.9-0.3-0.9-0.3h-3V6.9c0-1-0.9-1.4-0.9-1.4
			L18,4.3V3.6c0-0.5-0.4-1-1-1h-7c-0.5,0-1,0.5-1,1v0.7L8.3,4.5L8.1,4C7.9,3.5,7.3,3.2,6.8,3.4L5.7,3.9C5.2,4.1,4.9,4.7,5.1,5.2
			l0.1,0.3C5,5.6,4.4,6,4.4,6.8v17.4H3.8c-0.5,0-1,0.5-1,1v0.9v0.3V28c0,0.5,0.5,1,1,1h1.9c0.5,0,1-0.5,1-1v-1.6h5V28
			c0,0.5,0.5,1,1,1h1.9c0.6,0,1-0.5,1-1v-1.6h4.8V28c0,0.5,0.5,1,1,1h1.9c0.5,0,1-0.5,1-1v-1.6v-0.3v-0.9c0-0.5-0.5-1-1-1h-0.6v-16
			h3.1c0,0,0.2,0,0.2,0.1c0,0,0.1,0.1,0.1,0.2v19.2c0,0.5,0.2,1.2,1,1.3H29c0.3,0,0.5-0.2,0.5-0.5S29,28,28.8,28z M8.1,6H19
			c0.3,0,0.5,0.2,0.5,0.5S19.3,7,19,7H8.1C7.8,7,7.6,6.7,7.6,6.5S7.8,6,8.1,6z M7.1,4.4l0.2,0.4L6.2,5.2L6,4.8L7.1,4.4z M5.5,10.6
			c0-0.5,0.5-1,1-1h14c0.5,0,1,0.5,1,1v0.8c0,0.5-0.5,1-1,1h-14c-0.5,0-1-0.5-1-1V10.6z M5.5,15.2c0-0.5,0.5-1,1-1h14
			c0.5,0,1,0.5,1,1V16c0,0.5-0.5,1-1,1h-14c-0.5,0-1-0.5-1-1V15.2z M5.5,19.8c0-0.5,0.5-1,1-1h14c0.5,0,1,0.5,1,1v0.8
			c0,0.5-0.5,1-1,1h-14c-0.5,0-1-0.5-1-1V19.8z M21,23.5H6c-0.3,0-0.5-0.2-0.5-0.5s0.2-0.5,0.5-0.5h15c0.3,0,0.5,0.2,0.5,0.5
			S21.3,23.5,21,23.5z M21,8.8H6c-0.3,0-0.5-0.2-0.5-0.5S5.8,7.8,6,7.8h15c0.3,0,0.5,0.2,0.5,0.5S21.3,8.8,21,8.8z"/>
	</g>
</g>
</svg>
