<?xml version="1.0" encoding="utf-8"?>
<!-- Generator: Adobe Illustrator 22.0.1, SVG Export Plug-In . SVG Version: 6.00 Build 0)  -->
<svg version="1.1" id="图层_1" xmlns="http://www.w3.org/2000/svg" xmlns:xlink="http://www.w3.org/1999/xlink" x="0px" y="0px"
	 width="32px" height="32px" viewBox="0 0 32 32" style="enable-background:new 0 0 32 32;" xml:space="preserve">
<g id="图层_10">
	<g>
		<path d="M4.2,4.8c-1.1,0-2,0.9-2,2v0.8c0,1.1,0.9,2,2,2H5v12.9H4.2c-1.1,0-2,0.9-2,2v0.8c0,1.1,0.9,2,2,2h3.1V4.8H4.2z"/>
		<rect x="11.3" y="4.8" width="2.5" height="22.6"/>
		<rect x="14.9" y="4.8" width="2" height="22.6"/>
		<rect x="8.3" y="4.8" width="2" height="22.6"/>
		<rect x="21.4" y="4.8" width="2" height="22.6"/>
		<rect x="17.9" y="4.8" width="2.5" height="22.6"/>
		<path d="M27.8,9.6c1.1,0,2-0.9,2-2V6.8c0-1.1-0.9-2-2-2h-3.4v22.6h3.4c1.1,0,2-0.9,2-2v-0.8c0-1.1-0.9-2-2-2h-1.2v-13H27.8z"/>
		<path d="M8.3,3.7c0-0.4,0.3-0.8,0.8-0.8h0.5c0.4,0,0.8,0.3,0.8,0.8v1.1h1V3.7c0-1-0.8-1.8-1.8-1.8H9.1c-1,0-1.8,0.8-1.8,1.8v1.1h1
			V3.7z"/>
		<path d="M10.3,28.3c0,0.4-0.3,0.8-0.8,0.8H9.1c-0.4,0-0.8-0.3-0.8-0.8v-0.9h-1v0.9c0,1,0.8,1.8,1.8,1.8h0.5c1,0,1.8-0.8,1.8-1.8
			v-0.9h-1v0.9H10.3z"/>
		<path d="M14.9,3.7c0-0.4,0.3-0.8,0.8-0.8h0.5c0.4,0,0.8,0.3,0.8,0.8v1.1h1V3.7c0-1-0.8-1.8-1.8-1.8h-0.5c-1,0-1.8,0.8-1.8,1.8v1.1
			h1C14.9,4.8,14.9,3.7,14.9,3.7z"/>
		<path d="M16.9,28.3c0,0.4-0.3,0.8-0.8,0.8h-0.5c-0.4,0-0.8-0.3-0.8-0.8v-0.9h-1v0.9c0,1,0.8,1.8,1.8,1.8h0.5c1,0,1.8-0.8,1.8-1.8
			v-0.9h-1V28.3z"/>
		<path d="M23.4,28.3c0,0.4-0.3,0.8-0.8,0.8h-0.5c-0.4,0-0.8-0.3-0.8-0.8v-0.9h-1v0.9c0,1,0.8,1.8,1.8,1.8h0.5c1,0,1.8-0.8,1.8-1.8
			v-0.9h-1V28.3z"/>
		<path d="M21.4,3.7c0-0.4,0.3-0.8,0.8-0.8h0.5c0.4,0,0.8,0.3,0.8,0.8v1.1h1V3.7c0-1-0.8-1.8-1.8-1.8h-0.5c-1,0-1.8,0.8-1.8,1.8v1.1
			h1V3.7z"/>
	</g>
</g>
</svg>
