<?xml version="1.0" encoding="utf-8"?>
<!-- Generator: Adobe Illustrator 22.0.1, SVG Export Plug-In . SVG Version: 6.00 Build 0)  -->
<svg version="1.1" id="图层_1" xmlns="http://www.w3.org/2000/svg" xmlns:xlink="http://www.w3.org/1999/xlink" x="0px" y="0px"
	 viewBox="0 0 200 200" enable-background="new 0 0 200 200" xml:space="preserve">
<g id="图层_1_1_">
	<g>
		<g>
			<path fill="#6883D8" d="M172.6,48.7h14.1V13.3h-33.6v14.3h19.5V48.7z M186.8,48.7L186.8,48.7L186.8,48.7L186.8,48.7z M27.4,27.5
				h19.5V13.3H13.3v35.4h14.1V27.5z M27.4,151.4H13.3v35.4h33.6v-14.3H27.4V151.4z M172.6,172.4h-19.5v14.3h33.6v-35.4h-14.1V172.4z
				 M174.1,101.2c0-40.3-32.6-72.9-72.9-72.9s-72.9,32.6-72.9,72.9s32.6,72.9,72.9,72.9C141.4,173.9,173.9,141.4,174.1,101.2
				L174.1,101.2z M116.9,83.4c0-4.1,3.3-7.3,7.3-7.3c4.1,0,7.3,3.3,7.3,7.3v10c0,4-3.3,7.3-7.3,7.3l0,0c-4,0-7.3-3.3-7.3-7.3V83.4z
				 M70.6,83.4c0-4.1,3.3-7.3,7.3-7.3c4.1,0,7.3,3.3,7.3,7.3v10c0,4-3.3,7.3-7.3,7.3s-7.3-3.3-7.3-7.3V83.4z M139.1,126.4
				c-0.2,0.2-0.4,0.5-0.6,0.7c-9.3,11-23,17.3-37.4,17.3l0,0c-14.4,0-28-6.3-37.3-17.2c-1.6-1.9-1.4-4.8,0.5-6.5
				c1.9-1.6,4.8-1.4,6.5,0.5c14.3,16.8,39.4,18.9,56.2,4.6c1.7-1.4,3.2-3,4.6-4.6c1.4-2,4.2-2.5,6.3-1.1
				C139.9,121.6,140.4,124.3,139.1,126.4z"/>
		</g>
	</g>
</g>
</svg>
