<svg id="图层_1" data-name="图层 1" xmlns="http://www.w3.org/2000/svg" viewBox="0 0 48 48"><defs><style>.cls-1{fill:#ff3939;}</style></defs><title>补充图标</title><path class="cls-1" d="M24,0A24,24,0,1,0,48,24,24,24,0,0,0,24,0Zm0,46A22,22,0,1,1,46,24,22,22,0,0,1,24,46Z"/><path class="cls-1" d="M31.77,22.2a13,13,0,0,0-5,1.15A2.77,2.77,0,0,0,26,22c.14-.85.67-3.07,4.45-3.07L31,19h.45c4.4,0,3.32-3.9,2.2-5.67A8.47,8.47,0,0,0,27.43,10a4.64,4.64,0,0,0-3.25,1.28c-3.13,2.93-1.88,7.69-.79,10.08a2.71,2.71,0,0,0-1.24.69c-.76-.12-3.43-.51-3.18-5.05.15-2.79-1.1-3.64-2.55-3.64a6.32,6.32,0,0,0-3.11,1c-1.83,1.16-5.14,6.13-2,9.47a6.53,6.53,0,0,0,5,2,13,13,0,0,0,5.18-1.21,2.75,2.75,0,0,0,.64,1.26c-.11.71-.47,3.2-4.47,3.2L17,29h-.46c-4.39,0-3.31,3.9-2.19,5.67A8.47,8.47,0,0,0,20.57,38a4.64,4.64,0,0,0,3.25-1.28c3.11-2.91,1.89-7.64.81-10A2.77,2.77,0,0,0,26,26c.88.14,3.3.71,3.06,5-.15,2.79,1.1,3.64,2.55,3.64a6.32,6.32,0,0,0,3.11-1c1.83-1.16,5.14-6.13,2-9.47A6.53,6.53,0,0,0,31.77,22.2Zm-6.56-9.82a3.12,3.12,0,0,1,2.22-.88,7.05,7.05,0,0,1,5,2.62c.65,1,.95,2.33.65,2.87s-1.18.49-1.58.49h-.36l-.67,0c-2.9,0-4.87,1.16-5.66,3.3C24.19,19.44,22.49,14.92,25.21,12.38Zm-9,11.92a5,5,0,0,1-3.85-1.51A3.17,3.17,0,0,1,11.54,20a7.16,7.16,0,0,1,2.58-4.41,4.76,4.76,0,0,1,2.3-.76c.5,0,.66.16.71.22s.41.58.34,1.83c-.18,3.28,1,5.48,3.29,6.33A11.66,11.66,0,0,1,16.23,24.3Zm6.56,11.32a3.12,3.12,0,0,1-2.22.88,7.05,7.05,0,0,1-5-2.62c-.65-1-.95-2.33-.65-2.87s1.18-.49,1.57-.49h.38l.66,0c2.9,0,4.87-1.16,5.66-3.3C23.81,28.56,25.51,33.08,22.79,35.62ZM24,25.46h0a1.46,1.46,0,0,1,0-2.92h0a1.46,1.46,0,0,1,0,2.92ZM36.46,28a7.13,7.13,0,0,1-2.58,4.41,4.8,4.8,0,0,1-2.3.76c-.5,0-.66-.16-.71-.21s-.41-.58-.34-1.84c.18-3.28-1-5.48-3.29-6.33a11.66,11.66,0,0,1,4.53-1.06,5,5,0,0,1,3.85,1.51A3.17,3.17,0,0,1,36.46,28Z"/></svg>