<?xml version="1.0" encoding="utf-8"?>
<!-- Generator: Adobe Illustrator 22.0.1, SVG Export Plug-In . SVG Version: 6.00 Build 0)  -->
<svg version="1.1" id="图层_1" xmlns="http://www.w3.org/2000/svg" xmlns:xlink="http://www.w3.org/1999/xlink" x="0px" y="0px"
	 viewBox="0 0 200 200" enable-background="new 0 0 200 200" xml:space="preserve">
<g id="图层_1_1_">
	<g>
		<polygon fill="#6883D8" points="141.8,10.4 141.8,46.2 177.6,46.2 		"/>
		<path fill="#6883D8" d="M125.8,56.2V10.4H46.3c-13.2,0-23.9,10.7-23.9,23.9v131.3c0,13.2,10.7,23.9,23.9,23.9h107.4
			c13.2,0,23.9-10.7,23.9-23.9V62.1h-45.8C128.5,62.1,125.8,59.5,125.8,56.2z M139,160.3H61c-5.5,0-10-4.5-10-10s4.5-10,10-10h78
			c5.5,0,10,4.5,10,10S144.5,160.3,139,160.3z M149,104c0,5.5-4.5,10-10,10H61c-5.5,0-10-4.5-10-10s4.5-10,10-10h78
			C144.5,94,149,98.5,149,104z"/>
	</g>
</g>
</svg>
