<?xml version="1.0" encoding="utf-8"?>
<!-- Generator: Adobe Illustrator 22.0.1, SVG Export Plug-In . SVG Version: 6.00 Build 0)  -->
<svg version="1.1" id="图层_1" xmlns="http://www.w3.org/2000/svg" xmlns:xlink="http://www.w3.org/1999/xlink" x="0px" y="0px"
	 viewBox="0 0 32 32" style="enable-background:new 0 0 32 32;" xml:space="preserve">
<g id="图层_2_1_">
	<g>
		<path d="M28.5,6H26V5c0-0.6-0.4-1-1-1s-1,0.4-1,1v1H8V5c0-0.6-0.4-1-1-1S6,4.4,6,5v1H3.5c-0.6,0-1,0.4-1,1s0.4,1,1,1h25
			c0.6,0,1-0.4,1-1S29.1,6,28.5,6z"/>
		<path d="M29.5,24H29V11c0-1.1-0.9-2-2-2H5c-1.1,0-2,0.9-2,2v13H2.5c-0.5,0-1,0.5-1,1s0.5,1,1,1h27c0.5,0,1-0.5,1-1S30,24,29.5,24z
			 M9.5,16H8v1.5C8,17.8,7.8,18,7.5,18S7,17.8,7,17.5V16H5.5C5.2,16,5,15.8,5,15.5S5.2,15,5.5,15H7v-1.5C7,13.2,7.2,13,7.5,13
			S8,13.2,8,13.5V15h1.5c0.3,0,0.5,0.2,0.5,0.5S9.8,16,9.5,16z M26.5,16h-4c-0.3,0-0.5-0.2-0.5-0.5s0.2-0.5,0.5-0.5h4
			c0.3,0,0.5,0.2,0.5,0.5S26.8,16,26.5,16z"/>
	</g>
</g>
</svg>
