<?xml version="1.0" encoding="utf-8"?>
<!-- Generator: Adobe Illustrator 22.0.1, SVG Export Plug-In . SVG Version: 6.00 Build 0)  -->
<svg version="1.1" id="图层_1" xmlns="http://www.w3.org/2000/svg" xmlns:xlink="http://www.w3.org/1999/xlink" x="0px" y="0px"
	 viewBox="0 0 200 200" enable-background="new 0 0 200 200" xml:space="preserve">
<g id="图层_1_1_">
	<path fill="#6883D8" d="M188.4,72l-84.1,55.7c-2.4,1.4-6.2,1.4-8.6,0L11.6,72.2c-2.4-1.4-2.4-4.1,0-5.8l84.1-55.5
		c2.4-1.4,6.2-1.4,8.6,0l84.3,55.5C190.8,67.9,190.8,70.6,188.4,72L188.4,72z M104.3,148.2l53.3-35.3c2.4-1.4,6.2-1.4,8.6,0
		l22.3,14.7c2.4,1.4,2.4,4.1,0,5.8l-84.3,55.7c-2.4,1.4-6.2,1.4-8.6,0l-84.1-55.5c-2.4-1.4-2.4-4.1,0-5.8l22.3-14.7
		c2.4-1.4,6.2-1.4,8.6,0l53.3,35.1C98.1,149.6,101.9,149.6,104.3,148.2z"/>
</g>
</svg>
