<?xml version="1.0" encoding="utf-8"?>
<!-- Generator: Adobe Illustrator 22.0.1, SVG Export Plug-In . SVG Version: 6.00 Build 0)  -->
<svg version="1.1" id="图层_1" xmlns="http://www.w3.org/2000/svg" xmlns:xlink="http://www.w3.org/1999/xlink" x="0px" y="0px"
	 width="32px" height="32px" viewBox="0 0 32 32" style="enable-background:new 0 0 32 32;" xml:space="preserve">
<g id="蝶阀">
	<path d="M23.6,1.7H17h-1.5H15v2.1h-3c-0.6,0-1,0.4-1,1s0.4,1,1,1h2.7l-1.2,1.9l1.2,1.9h-1.2v2.2h-0.1c-1.1,0-2,0.9-2,2v1.5
		c-1.7,1.4-2.8,3.5-2.8,5.8s1.1,4.4,2.8,5.8v1.5c0,1.1,0.9,2,2,2h5.2c1.1,0,2-0.9,2-2v-1.5c1.7-1.4,2.8-3.5,2.8-5.8
		s-1.1-4.4-2.8-5.8v-1.5c0-1.1-0.9-2-2-2h-0.1V9.6h-1.3l1.2-1.9l-1.2-1.9H20c0.6,0,1-0.4,1-1s-0.4-1-1-1h-3V2.7h6.5
		c0.3,0,0.5-0.2,0.5-0.5C24.1,1.9,23.8,1.7,23.6,1.7z M12.8,12.8c0.3,0,0.5,0.2,0.5,0.5s-0.2,0.5-0.5,0.5s-0.5-0.2-0.5-0.5
		S12.5,12.8,12.8,12.8z M12.8,29.4c-0.3,0-0.5-0.2-0.5-0.5s0.2-0.5,0.5-0.5s0.5,0.2,0.5,0.5C13.3,29.2,13,29.4,12.8,29.4z
		 M19.2,29.4c-0.3,0-0.5-0.2-0.5-0.5s0.2-0.5,0.5-0.5s0.5,0.2,0.5,0.5C19.7,29.2,19.5,29.4,19.2,29.4z M19.2,12.8
		c0.3,0,0.5,0.2,0.5,0.5s-0.2,0.5-0.5,0.5s-0.5-0.2-0.5-0.5S18.9,12.8,19.2,12.8z M21.5,21.1c0,2.7-2,4.9-4.5,5.4l-1,1.7l-1-1.7
		c-2.6-0.5-4.5-2.7-4.5-5.4c0-2.8,2.2-5.2,4.9-5.5c-1.5,0.5-2.6,2.7-2.6,5.4c0,2.8,1.2,5.1,2.8,5.5l0.4,0.6l0.4-0.6
		c1.6-0.3,2.8-2.6,2.8-5.5c0-2.7-1.1-5-2.6-5.4C19.3,15.9,21.5,18.3,21.5,21.1z"/>
</g>
</svg>
