<?xml version="1.0" encoding="utf-8"?>
<!-- Generator: Adobe Illustrator 22.0.1, SVG Export Plug-In . SVG Version: 6.00 Build 0)  -->
<svg version="1.1" id="图层_1" xmlns="http://www.w3.org/2000/svg" xmlns:xlink="http://www.w3.org/1999/xlink" x="0px" y="0px"
	 viewBox="0 0 200 200" enable-background="new 0 0 200 200" xml:space="preserve">
<g id="图层_1_1_">
	<path fill="#6883D8" d="M121.4,38.7H78.6c-5.5,0-10-4.5-10-10v-0.6c0-5.5,4.5-10,10-10h42.7c5.5,0,10,4.5,10,10v0.6
		C131.3,34.2,126.9,38.7,121.4,38.7z"/>
	<path fill="#6883D8" d="M156.3,31.5h-16.9v5.4c0,6.9-5.6,12.5-12.5,12.5H70.6c-6.9,0-12.5-5.6-12.5-12.5v-5.4H43.5
		C36.6,31.5,31,37.1,31,44v125.5c0,6.9,5.6,12.5,12.5,12.5h112.9c6.9,0,12.5-5.6,12.5-12.5V44.1C168.9,37.2,163.3,31.5,156.3,31.5z
		 M95.9,167.3c-25.9,0-47-21-47-47c0-25,17.8-45.4,42.3-46.9v50.8h51.7C141.8,149.2,121.3,167.3,95.9,167.3z M103.9,111.8V65.5
		c24.5,0,47.2,21.8,47.2,46.3H103.9z"/>
</g>
</svg>
