<?xml version="1.0" encoding="utf-8"?>
<!-- Generator: Adobe Illustrator 22.0.1, SVG Export Plug-In . SVG Version: 6.00 Build 0)  -->
<svg version="1.1" id="图层_1" xmlns="http://www.w3.org/2000/svg" xmlns:xlink="http://www.w3.org/1999/xlink" x="0px" y="0px"
	 viewBox="0 0 200 200" enable-background="new 0 0 200 200" xml:space="preserve">
<g id="图层_1_1_">
	<g>
		<path fill="#6883D8" d="M182.9,37.6h-17.1v-7.5c0-4.4-3.6-8-8-8h-17.7c-4.4,0-8,3.6-8,8v7.5H65.4v-7.5c0-4.4-3.6-8-8-8H39.6
			c-4.4,0-8,3.6-8,8v7.5H17.1c-3.9,0-7.1,3.2-7.1,7.1v7.8c0,3.9,3.2,7.1,7.1,7.1h165.8c3.9,0,7.1-3.2,7.1-7.1v-7.8
			C190,40.8,186.8,37.6,182.9,37.6z"/>
		<path fill="#6883D8" d="M175.5,71.3h-151c-6.2,0-11.3,5.1-11.3,11.3v83.9c0,6.2,5.1,11.3,11.3,11.3h150.9
			c6.2,0,11.3-5.1,11.3-11.3V82.6C186.8,76.4,181.7,71.3,175.5,71.3z M71.8,126.6h-8.9v8.9c0,3.8-3.1,6.9-6.9,6.9
			c-3.8,0-6.9-3.1-6.9-6.9v-8.9h-8.9c-3.8,0-6.9-3.1-6.9-6.9s3.1-6.9,6.9-6.9H49v-8.9c0-3.8,3.1-6.9,6.9-6.9c3.8,0,6.9,3.1,6.9,6.9
			v8.9h8.9c3.8,0,6.9,3.1,6.9,6.9C78.7,123.5,75.6,126.6,71.8,126.6z M159.3,126.6h-31.7c-3.8,0-6.9-3.1-6.9-6.9s3.1-6.9,6.9-6.9
			h31.7c3.8,0,6.9,3.1,6.9,6.9C166.3,123.5,163.2,126.6,159.3,126.6z"/>
	</g>
</g>
</svg>
