<?xml version="1.0" encoding="utf-8"?>
<!-- Generator: Adobe Illustrator 22.0.1, SVG Export Plug-In . SVG Version: 6.00 Build 0)  -->
<svg version="1.1" id="图层_1" xmlns="http://www.w3.org/2000/svg" xmlns:xlink="http://www.w3.org/1999/xlink" x="0px" y="0px"
	 viewBox="0 0 200 200" enable-background="new 0 0 200 200" xml:space="preserve">
<g id="图层_1_1_">
	<path fill="#6883D8" d="M173.3,43.6l-63.7-31.7c-2.8-1.5-6.2-2.2-9.6-2.2s-6.8,0.7-9.6,2.2L26.7,43.4c-11,5.8-11,10.5-11,15.5v79.2
		c0,6.6,3.5,12.5,9.3,15.5l61.8,31.9l0,0l7.9,3.6c3.7,1.8,8,1.7,11.6-0.1c0,0,5.7-2.9,6.1-3.1l62.6-32.4c5.6-3,9.3-8.9,9.3-15.5
		V59.1C184.3,57.8,183.8,48.3,173.3,43.6z M106.5,166.9c0,3.6-2.9,6.5-6.5,6.5s-6.5-2.9-6.5-6.5V96c0-3.6,2.9-6.5,6.5-6.5
		s6.5,2.9,6.5,6.5V166.9z M102.3,74.7l-0.2,0.1l-0.2,0.1c-0.2,0.1-0.8,0.3-2,0.3s-1.8-0.2-2-0.3l-0.2-0.1l-0.2-0.1L47.8,50
		l49.9-24.8l0.2-0.1L98,25c0.2-0.1,0.8-0.3,2-0.3s1.8,0.2,2,0.3l0.1,0.1l0.2,0.1L152.1,50L102.3,74.7z"/>
</g>
</svg>
