<?xml version="1.0" encoding="utf-8"?>
<!-- Generator: Adobe Illustrator 22.0.1, SVG Export Plug-In . SVG Version: 6.00 Build 0)  -->
<svg version="1.1" id="图层_1" xmlns="http://www.w3.org/2000/svg" xmlns:xlink="http://www.w3.org/1999/xlink" x="0px" y="0px"
	 viewBox="0 0 200 200" enable-background="new 0 0 200 200" xml:space="preserve">
<g id="图层_1_1_">
	<g>
		<path fill="#6883D8" d="M83,148.6c-22-4.1-38.7-22.9-38.7-45.8c0-25.7,21.4-46.6,47.6-46.6c13.5,0,25.6,5.5,34.2,14.2
			c4.4-1,8.9-1.6,13.6-1.6c13.6,0,23.7,4.5,31,12.1v-15c0-5.7-2.1-10.8-6.2-15.1c-4.3-4.3-9.8-5.8-15.2-5.8h-3.9
			c-2.1,0-3.9-1.2-5.7-2.4c-1.9-1-3.1-2.9-3.9-4.8l-4.8-9.9c-0.9-1.9-2.2-2.6-3.9-3.8c-1.9-1-3.8-0.9-5.7-0.9H61.8
			c-1.9,0-3.9-0.3-5.7,0.9c-1.7,1-3.1,2.2-3.9,3.9l-4.8,9.9c-0.9,1.7-2.2,3.8-3.9,5c-1.7,1-3.8,2.2-5.7,2.2h-4.1
			c-5.5,0-11,1.5-15.1,5.8c-4.3,4.3-6.3,9.4-6.3,15.1v84.1c0,11.6,5.8,17.5,18,17.5h63.6C89.2,162,85.5,155.6,83,148.6z"/>
		<path fill="#6883D8" d="M54.2,102.9c0,16.4,11,30.4,26.2,35.2c-0.5-3-0.7-6.1-0.7-9.2c0-24.5,14.7-45.6,35.8-54.9
			c-6.5-5-14.6-8-23.5-8C71.2,66,54.2,82.5,54.2,102.9z"/>
	</g>
	<g>
		<path fill="#6883D8" d="M173.6,95c-18.7-18.7-49.1-18.7-67.9,0c-18.7,18.7-18.7,49.1,0,67.9c18.7,18.7,49.1,18.7,67.9,0
			C192.4,144.1,192.4,113.7,173.6,95z M165.2,150.9c-1.5,2-3.7,3-6,3c-1.6,0-3.1-0.5-4.5-1.5l-19.5-14.5c-1.9-1.4-3-3.6-3-6v-29
			c0-4.1,3.4-7.5,7.5-7.5s7.5,3.4,7.5,7.5v25.2l16.5,12.3C167,142.9,167.7,147.6,165.2,150.9z"/>
	</g>
</g>
</svg>
