<svg id="图层_1" data-name="图层 1" xmlns="http://www.w3.org/2000/svg" viewBox="0 0 48 48"><defs><style>.cls-1{fill:#1687d3;}</style></defs><title>补充图标</title><path class="cls-1" d="M36.8,6H11.2a4,4,0,0,0-4,4V34.4a4,4,0,0,0,4,4h3.48a2,2,0,0,0-.28,1v.8a2,2,0,0,0,2,2H31.6a2,2,0,0,0,2-2v-.8a2,2,0,0,0-.28-1H36.8a4,4,0,0,0,4-4V10A4,4,0,0,0,36.8,6Zm3,28.4a3,3,0,0,1-3,3H11.2a3,3,0,0,1-3-3V10a3,3,0,0,1,3-3H36.8a3,3,0,0,1,3,3Z"/><path class="cls-1" d="M12.77,15.18l1,1.73a20.68,20.68,0,0,1,20.46,0l1-1.73A22.63,22.63,0,0,0,12.77,15.18Z"/><polygon class="cls-1" points="24 31.74 16.44 19.86 14.76 20.94 24 35.46 33.24 20.94 31.56 19.86 24 31.74"/></svg>