<?xml version="1.0" encoding="utf-8"?>
<!-- Generator: Adobe Illustrator 22.0.1, SVG Export Plug-In . SVG Version: 6.00 Build 0)  -->
<svg version="1.1" id="图层_1" xmlns="http://www.w3.org/2000/svg" xmlns:xlink="http://www.w3.org/1999/xlink" x="0px" y="0px"
	 viewBox="0 0 24 24" style="enable-background:new 0 0 24 24;" xml:space="preserve">
<g id="图层_2_1_">
	<g>
		<g>
			<path d="M20,2H4C2.9,2,2,2.9,2,4v16c0,1.1,0.9,2,2,2h16c1.1,0,2-0.9,2-2V4C22,2.9,21.1,2,20,2z M20,20h-8v-8.1l-4.3,4.7
				C7.5,16.9,7.3,17,7,17c-0.2,0-0.5-0.1-0.7-0.3c-0.4-0.4-0.4-1-0.1-1.4L12,8.9V4h8V20z"/>
		</g>
		<g>
			<path d="M14,17c-0.2,0-0.4-0.1-0.6-0.2c-0.4-0.3-0.5-1-0.2-1.4l4-5c0.3-0.4,1-0.5,1.4-0.2s0.5,1,0.2,1.4l-4,5
				C14.6,16.9,14.3,17,14,17z"/>
		</g>
		<path d="M16.7,5.3c-0.4-0.4-1-0.3-1.4,0.1L12,8.9v3l4.7-5.3C17.1,6.3,17.1,5.6,16.7,5.3z"/>
	</g>
</g>
</svg>
