<?xml version="1.0" encoding="utf-8"?>
<!-- Generator: Adobe Illustrator 22.0.1, SVG Export Plug-In . SVG Version: 6.00 Build 0)  -->
<svg version="1.1" id="图层_1" xmlns="http://www.w3.org/2000/svg" xmlns:xlink="http://www.w3.org/1999/xlink" x="0px" y="0px"
	 viewBox="0 0 200 200" enable-background="new 0 0 200 200" xml:space="preserve">
<g id="图层_1_1_">
	<g>
		<g>
			<path fill="#0E1219" d="M100,19.7c44.3,0,80.3,36,80.3,80.3s-36,80.3-80.3,80.3s-80.3-36-80.3-80.3S55.7,19.7,100,19.7 M100,10.7
				c-49.3,0-89.3,40-89.3,89.3s40,89.3,89.3,89.3s89.3-40,89.3-89.3S149.3,10.7,100,10.7L100,10.7z"/>
		</g>
	</g>
	<g>
		<g>
			<path fill="#0E1219" d="M101.8,130.3c-2.5,0-4.5-2-4.5-4.5v-19.7c0-6,2.9-10.2,9.2-13.2c5.4-2.5,16.4-10.4,16.4-18.8
				c0-10.9-12.3-19.4-22.9-19.4c-10.4,0-18.1,4.2-23.6,13c-1.3,2.1-4.1,2.7-6.2,1.4c-2.1-1.3-2.7-4.1-1.4-6.2
				C76,51.5,86.5,45.7,100,45.7c15.1,0,31.9,11.7,31.9,28.4c0,13.4-14.1,23.5-21.6,27c-4,1.9-4,3.4-4,5v19.7
				C106.3,128.3,104.3,130.3,101.8,130.3z"/>
		</g>
		<g>
			<g>
				<path fill="#0E1219" d="M105.6,139.3h-7.1c-0.8,0-1.4,0.6-1.4,1.4v7.1c0,0.8,0.6,1.4,1.4,1.4h7.1c0.8,0,1.4-0.6,1.4-1.4v-7.1
					C107,140,106.4,139.3,105.6,139.3L105.6,139.3z"/>
			</g>
		</g>
	</g>
</g>
</svg>
