<?xml version="1.0" encoding="utf-8"?>
<!-- Generator: Adobe Illustrator 22.0.1, SVG Export Plug-In . SVG Version: 6.00 Build 0)  -->
<svg version="1.1" id="图层_1" xmlns="http://www.w3.org/2000/svg" xmlns:xlink="http://www.w3.org/1999/xlink" x="0px" y="0px"
	 viewBox="0 0 200 200" enable-background="new 0 0 200 200" xml:space="preserve">
<g>
	<path fill="#6883D8" d="M120.4,38.7H77.6c-5.5,0-10-4.5-10-10v-0.6c0-5.5,4.5-10,10-10h42.7c5.5,0,10,4.5,10,10v0.6
		C130.4,34.2,125.9,38.7,120.4,38.7z"/>
	<g>
		<path fill="#6883D8" d="M113.1,88.3c-5.5,0-11,2.1-15.2,6.3c-4.1,4.1-6.3,9.5-6.3,15.2c0,5.8,2.2,11.2,6.3,15.2
			c8.4,8.4,22.1,8.4,30.4,0c8.4-8.4,8.4-22.1,0-30.4C124.1,90.4,118.6,88.3,113.1,88.3z"/>
		<path fill="#6883D8" d="M156.3,31.5h-16.9v5.4c0,6.9-5.6,12.5-12.5,12.5H70.6c-6.9,0-12.5-5.6-12.5-12.5v-5.4H43.5
			C36.6,31.5,31,37.1,31,44v125.5c0,6.9,5.6,12.5,12.5,12.5h112.9c6.9,0,12.5-5.6,12.5-12.5V44.1C168.9,37.2,163.3,31.5,156.3,31.5z
			 M67.6,140.8c0,3.2-2.6,5.9-5.9,5.9H61c-3.2,0-5.9-2.6-5.9-5.9V88.2c0-3.2,2.6-5.9,5.9-5.9h0.7c3.2,0,5.9,2.6,5.9,5.9V140.8z
			 M151.6,148.2c-1,1.1-2.4,1.6-3.9,1.6s-2.9-0.6-3.9-1.6l-11.8-11.7c-12.9,9.1-30.7,7.7-41.9-3.6c-6.2-6.2-9.6-14.4-9.6-23.1
			s3.4-16.9,9.6-23.1s14.4-9.6,23.1-9.6s16.9,3.4,23.1,9.6c11.2,11.2,12.7,29,3.6,41.9l11.7,11.7
			C153.8,142.4,153.8,146.1,151.6,148.2z"/>
	</g>
</g>
<g>
	<g>
		<path fill="#FFFFFF" d="M178.9,188.9c0,0.4-0.3,0.8-0.8,0.8H178c-0.4,0-0.8-0.3-0.8-0.8v-7.4c0-0.4,0.3-0.8,0.8-0.8h0.1
			c0.4,0,0.8,0.3,0.8,0.8V188.9z"/>
	</g>
</g>
</svg>
