<?xml version="1.0" encoding="utf-8"?>
<!-- Generator: Adobe Illustrator 22.0.1, SVG Export Plug-In . SVG Version: 6.00 Build 0)  -->
<svg version="1.1" id="图层_1" xmlns="http://www.w3.org/2000/svg" xmlns:xlink="http://www.w3.org/1999/xlink" x="0px" y="0px"
	 viewBox="0 0 32 32" style="enable-background:new 0 0 32 32;" xml:space="preserve">
<g id="图层_2_1_">
	<g>
		<path d="M18.7,19.1V7.7V7.1V5c0-1.9-1.5-3.5-3.5-3.5S11.8,3,11.8,5v2.1v0.7v11.4c-1.7,1.1-2.7,3-2.7,5.2c0,3.5,2.8,6.2,6.2,6.2
			s6.2-2.8,6.2-6.2C21.6,22.1,20.4,20.2,18.7,19.1z M15.3,29.2c-2.6,0-4.8-2.2-4.8-4.8c0-1.9,1.1-3.6,2.7-4.3v-6.7V7.1V5
			c0-1.1,0.9-2.1,2.1-2.1c1.1,0,2.1,0.9,2.1,2.1v2.1v6.2V20c1.6,0.8,2.7,2.4,2.7,4.3C20.1,27,18,29.2,15.3,29.2z"/>
		<path d="M16,20.9V9.1c0-0.4-0.3-0.7-0.7-0.7s-0.7,0.3-0.7,0.7V21c-1.6,0.3-2.7,1.7-2.7,3.4c0,1.9,1.5,3.5,3.5,3.5s3.5-1.5,3.5-3.5
			C18.7,22.7,17.6,21.3,16,20.9z"/>
		<rect x="20.1" y="4.2" width="2.7" height="1.4"/>
		<rect x="20.1" y="8.4" width="2.7" height="1.4"/>
		<rect x="20.1" y="12.5" width="2.7" height="1.4"/>
		<rect x="20.1" y="16.8" width="2.7" height="1.4"/>
	</g>
</g>
</svg>
