<?xml version="1.0" encoding="utf-8"?>
<!-- Generator: Adobe Illustrator 22.0.1, SVG Export Plug-In . SVG Version: 6.00 Build 0)  -->
<svg version="1.1" id="图层_1" xmlns="http://www.w3.org/2000/svg" xmlns:xlink="http://www.w3.org/1999/xlink" x="0px" y="0px"
	 viewBox="0 0 200 200" enable-background="new 0 0 200 200" xml:space="preserve">
<g id="图层_1_1_">
	<path fill="#6883D8" d="M162.9,11.4H37.1c-4.4,0-8,3.6-8,8v161.2c0,4.4,3.6,8,8,8h125.8c4.4,0,8-3.6,8-8V19.4
		C170.9,15,167.3,11.4,162.9,11.4z M84,108.5c-1.1,0-2,0.9-2,2v13.6c0,1.6-1.9,2.6-3.2,1.6L45,100.3c-1.1-0.8-1.1-2.4,0-3.2
		l33.8-25.4c1.3-1,3.2,0,3.2,1.6v13.6c0,1.1,0.9,2,2,2h15.8v19.6H84z M162,161.5c0,4.7-3.8,8-8.1,8L104.5,150
		c-2.8-1.3-4.6-4.1-4.6-7.2v-31.6v-0.1v-2.6l0,0h15.6c1.1,0,2,0.9,2,2v13.6c0,1.6,1.9,2.6,3.2,1.6l33.8-25.4c1.1-0.8,1.1-2.4,0-3.2
		l-33.8-25.4c-1.3-1-3.2,0-3.2,1.6v13.6c0,1.1-0.9,2-2,2H99.9v-0.1V57.2c0-3.1,1.8-5.9,4.6-7.2L154,30.5c4.2,0,8.1,3.3,8.1,8v123
		H162z"/>
</g>
</svg>
