<?xml version="1.0" encoding="utf-8"?>
<!-- Generator: Adobe Illustrator 22.0.1, SVG Export Plug-In . SVG Version: 6.00 Build 0)  -->
<svg version="1.1" id="图层_1" xmlns="http://www.w3.org/2000/svg" xmlns:xlink="http://www.w3.org/1999/xlink" x="0px" y="0px"
	 viewBox="0 0 200 200" enable-background="new 0 0 200 200" xml:space="preserve">
<g id="图层_1_1_">
	<path fill="#6883D8" d="M99.4,9.3C49.3,9.3,8.7,49.9,8.7,100s40.6,90.7,90.7,90.7s90.7-40.6,90.7-90.7
		C190.1,49.9,149.5,9.3,99.4,9.3z M141.7,144.6c-3.3,2.5-7.5,4.2-11.6,4.2c-5,0-11.6-2.5-15.8-6.7l-20-20c-3.3,0-7.5,0.8-12.5,0.8
		c-8.3,0-17.5-1.7-24.1-8.3c-12.5-12.5-14.1-33.3-8.3-47.4l24.9,24.9l15-15L64.4,52.3c6.7-4.2,13.3-5.8,19.1-5.8
		c10.8,0,20,5,28.3,13.3c10.8,10.8,12.5,23.3,7.5,37.4l20,20C147.5,125.4,148.3,137.9,141.7,144.6z"/>
	<circle fill="#6883D8" cx="129.4" cy="132.3" r="9.8"/>
	<path fill="#FFFFFF" d="M188.7,186.3c0.7-1.9,0.4-3.5-1-5c-1.1-1.1-2.3-1.8-3.7-1.8c-0.8,0-1.7,0.2-2.5,0.8l3.3,3.3l-2,2l-3.3-3.3
		c-0.8,1.9-0.6,4.6,1.1,6.3c0.9,0.9,2.1,1.1,3.2,1.1c0.7,0,1.2-0.1,1.7-0.1l2.6,2.6c0.6,0.6,1.4,0.9,2.1,0.9c0.6,0,1.1-0.2,1.5-0.6
		c0.9-0.9,0.8-2.5-0.3-3.6L188.7,186.3z"/>
</g>
</svg>
