<?xml version="1.0" encoding="utf-8"?>
<!-- Generator: Adobe Illustrator 22.0.1, SVG Export Plug-In . SVG Version: 6.00 Build 0)  -->
<svg version="1.1" id="图层_1" xmlns="http://www.w3.org/2000/svg" xmlns:xlink="http://www.w3.org/1999/xlink" x="0px" y="0px"
	 viewBox="0 0 200 200" enable-background="new 0 0 200 200" xml:space="preserve">
<g>
	<path d="M137.5,37.5h-75c-13.8,0-25,11.3-25,25v6.3H50v-6.3C50,55.6,55.6,50,62.5,50h75c6.9,0,12.5,5.6,12.5,12.5v75
		c0,6.9-5.6,12.5-12.5,12.5v12.5c13.8,0,25-11.3,25-25v-75C162.5,48.8,151.3,37.5,137.5,37.5z"/>
</g>
<g>
	<path d="M76.6,147.6v14.3H37c0.4-5.4,1.7-10.5,3.9-15.4c2.1-4.8,6.4-11.3,12.7-19.3c5.1-6.5,8.2-10.9,9.4-13.2
		c1.6-3.2,2.3-6.3,2.3-9.4c0-3.4-0.7-6.1-2-7.9c-1.4-1.8-3.2-2.8-5.6-2.8c-2.4,0-4.2,1-5.6,2.9c-1.4,1.9-2.2,5.2-2.4,9.7L38.4,105
		c0.7-8.5,2.8-14.6,6.3-18.3c3.5-3.7,8-5.5,13.3-5.5c5.8,0,10.4,2.1,13.7,6.4c3.3,4.3,5,9.6,5,16c0,3.6-0.5,7.1-1.4,10.3
		c-1,3.3-2.5,6.7-4.5,10.3c-1.4,2.4-3.8,5.8-7.4,10.3c-3.6,4.5-5.8,7.4-6.8,8.9c-1,1.5-1.7,2.9-2.3,4.3H76.6z"/>
	<path d="M86.7,81.5h21.8c4.9,0,8.6,0.5,11.2,1.5c3.5,1.4,6.4,3.9,8.9,7.4c2.5,3.5,4.3,7.9,5.6,13c1.3,5.1,1.9,11.5,1.9,19
		c0,6.6-0.6,12.3-1.8,17.1c-1.5,5.9-3.6,10.6-6.3,14.2c-2.1,2.7-4.9,4.9-8.4,6.4c-2.6,1.1-6.1,1.7-10.5,1.7H86.7V81.5z M98.6,95.1
		v53.3h8.9c3.3,0,5.7-0.3,7.2-0.8c1.9-0.7,3.5-1.8,4.8-3.3c1.3-1.6,2.3-4.2,3.1-7.8c0.8-3.6,1.2-8.5,1.2-14.7c0-6.2-0.4-11-1.2-14.3
		c-0.8-3.3-1.9-5.9-3.4-7.8c-1.4-1.9-3.3-3.1-5.5-3.8c-1.7-0.5-4.9-0.8-9.8-0.8H98.6z"/>
</g>
</svg>
