<svg id="图层_1" data-name="图层 1" xmlns="http://www.w3.org/2000/svg" viewBox="0 0 48 48"><defs><style>.cls-1{fill:#1687d3;}</style></defs><title>补充图标</title><path class="cls-1" d="M40.8,27.6H37V15.2a3,3,0,0,0-3-3h-.8a3,3,0,0,0-3,3V27.6H27.4V9.2a3,3,0,0,0-3-3h-.8a3,3,0,0,0-3,3V27.6H17.8V21.2a3,3,0,0,0-3-3H14a3,3,0,0,0-3,3v6.4H7.2v1.2h8.6v10a3,3,0,0,0,3,3h.8a3,3,0,0,0,3-3v-10h2.8V34a3,3,0,0,0,3,3h.8a3,3,0,0,0,3-3V28.8h8.6ZM13,27.6V21.2a1,1,0,0,1,1-1h.8a1,1,0,0,1,1,1v6.4Zm7.6,11.2a1,1,0,0,1-1,1h-.8a1,1,0,0,1-1-1v-10h2.8Zm2-11.2V9.2a1,1,0,0,1,1-1h.8a1,1,0,0,1,1,1V27.6ZM30.2,34a1,1,0,0,1-1,1h-.8a1,1,0,0,1-1-1V28.8h2.8Zm2-6.4V15.2a1,1,0,0,1,1-1H34a1,1,0,0,1,1,1V27.6Z"/></svg>