<?xml version="1.0" encoding="utf-8"?>
<!-- Generator: Adobe Illustrator 22.0.1, SVG Export Plug-In . SVG Version: 6.00 Build 0)  -->
<svg version="1.1" id="图层_1" xmlns="http://www.w3.org/2000/svg" xmlns:xlink="http://www.w3.org/1999/xlink" x="0px" y="0px"
	 width="32px" height="32px" viewBox="0 0 32 32" style="enable-background:new 0 0 32 32;" xml:space="preserve">
<g id="图层_1_1_">
	<path d="M26.2,3.5H5.8c-1.2,0-2.2,0.9-2.2,2v20.9c0,1.1,1,2,2.2,2h20.5c1.2,0,2.2-0.9,2.2-2V5.5C28.4,4.4,27.4,3.5,26.2,3.5z
		 M13.5,5.3h5c0.5,0,1,0.5,1,1s-0.5,1-1,1h-5c-0.5,0-1-0.5-1-1S13,5.3,13.5,5.3z M12.6,25.8c-0.5,0-1-0.4-1-1s0.4-1,1-1s1,0.5,1,1
		S13.1,25.8,12.6,25.8z M16,25.8c-0.5,0-1-0.4-1-1s0.5-1,1-1s1,0.5,1,1S16.6,25.8,16,25.8z M19.4,25.8c-0.5,0-1-0.4-1-1s0.5-1,1-1
		s1,0.5,1,1S20,25.8,19.4,25.8z M22,19.7c0,1.1-0.9,2-2,2h-8c-1.1,0-2-0.9-2-2v-8c0-1.1,0.9-2,2-2h8c1.1,0,2,0.9,2,2V19.7z"/>
	<polygon points="14.3,19.9 15.4,16.2 12.8,15.7 17.7,10.9 16.6,14.6 19.2,15.1 	"/>
</g>
</svg>
