<?xml version="1.0" encoding="utf-8"?>
<!-- Generator: Adobe Illustrator 22.0.1, SVG Export Plug-In . SVG Version: 6.00 Build 0)  -->
<svg version="1.1" id="图层_1" xmlns="http://www.w3.org/2000/svg" xmlns:xlink="http://www.w3.org/1999/xlink" x="0px" y="0px"
	 viewBox="0 0 32 32" style="enable-background:new 0 0 32 32;" xml:space="preserve">
<style type="text/css">
	.st0{fill:#CFD1D1;}
	.st1{fill:#FFFFFF;}
	.st2{fill:none;stroke:#000000;stroke-width:2;stroke-miterlimit:10;}
	.st3{fill:none;}
</style>
<path d="M22.3,1.7h-12c-1.1,0-2,0.9-2,2v24.9c0,1.1,0.9,2,2,2h12c1.1,0,2-0.9,2-2V3.7C24.3,2.6,23.4,1.7,22.3,1.7z M12.8,28.7
	c-0.6,0-1-0.4-1-1c0-0.6,0.4-1,1-1s1,0.4,1,1C13.8,28.2,13.3,28.7,12.8,28.7z M16.4,28.7c-0.6,0-1-0.4-1-1c0-0.6,0.4-1,1-1
	s1,0.4,1,1C17.4,28.2,17,28.7,16.4,28.7z M20.1,28.7c-0.6,0-1-0.4-1-1c0-0.6,0.4-1,1-1s1,0.4,1,1C21.1,28.2,20.6,28.7,20.1,28.7z
	 M21.9,24.9c0,0.6-0.4,1-1,1h-9c-0.6,0-1-0.4-1-1v0c0-0.6,0.4-1,1-1h9C21.5,23.9,21.9,24.3,21.9,24.9L21.9,24.9z M15.2,12.3
	c-0.1,0.1-0.3,0.1-0.4,0.1v-0.6c0.4-0.1,0.7-0.3,1-0.5h0.4v3.4h-0.7v-2.6C15.5,12.1,15.3,12.2,15.2,12.3z M20.2,10.1
	c0.2-0.2,0.5-0.3,0.7-0.1c0.2,0.2,0.3,0.5,0.1,0.7l-8.7,11.5c-0.1,0.1-0.2,0.2-0.4,0.2c-0.1,0-0.2,0-0.3-0.1
	c-0.2-0.2-0.3-0.5-0.1-0.7L20.2,10.1z M21.8,22.1v0.6h-2.2v-0.2c0-0.2,0-0.3,0.1-0.5c0.1-0.1,0.2-0.3,0.3-0.4
	c0.1-0.1,0.3-0.3,0.5-0.4c0.2-0.2,0.4-0.3,0.5-0.4c0.1-0.1,0.1-0.3,0.1-0.4c0-0.3-0.2-0.5-0.5-0.5c-0.3,0-0.6,0.1-0.8,0.3v-0.6
	c0.3-0.2,0.6-0.3,1-0.3c0.3,0,0.6,0.1,0.8,0.3c0.2,0.2,0.3,0.4,0.3,0.7c0,0.2,0,0.3-0.1,0.5c-0.1,0.1-0.1,0.3-0.2,0.4
	c-0.1,0.1-0.3,0.3-0.5,0.4c-0.2,0.2-0.4,0.3-0.5,0.4c-0.1,0.1-0.1,0.2-0.1,0.2H21.8z M19,19.8v0.9h-1.6v2h-1.1v-5h2.8v0.9h-1.8v1.3
	H19z M14.1,10.5h-1.8v1.3H14v0.9h-1.6v2h-1.1v-5h2.9V10.5z M20.9,8.9h-9c-0.6,0-1-0.4-1-1c0-0.6,0.4-1,1-1h9c0.6,0,1,0.4,1,1
	C21.9,8.5,21.5,8.9,20.9,8.9z M20.9,5.9h-9c-0.6,0-1-0.4-1-1c0-0.6,0.4-1,1-1h9c0.6,0,1,0.4,1,1C21.9,5.5,21.5,5.9,20.9,5.9z"/>
</svg>
