<?xml version="1.0" encoding="utf-8"?>
<!-- Generator: Adobe Illustrator 22.0.1, SVG Export Plug-In . SVG Version: 6.00 Build 0)  -->
<svg version="1.1" id="图层_1" xmlns="http://www.w3.org/2000/svg" xmlns:xlink="http://www.w3.org/1999/xlink" x="0px" y="0px"
	 viewBox="0 0 200 200" enable-background="new 0 0 200 200" xml:space="preserve">
<g id="图层_1_1_">
	<g>
		<g>
			<path d="M123.5,184.9h-2.7c-7.7,0-13.8-4.1-18-12.3c-0.6-0.8-1.3-1.6-2.2-2.3l-0.3-0.2c-0.7,0.7-1.2,1.4-1.5,2
				c-1.7,4.5-4.7,7.9-9.1,10.1c-4.3,2.2-9,2.8-14,1.9c-8.6-1.8-15.4-4.8-20.2-8.9c-2.3-1.8-4.1-3.8-5.3-5.7l-0.1-0.2
				c-1.1-1.9-1.9-4.2-2.5-6.9c-0.4-2-0.5-3.9-0.3-5.7l0.1-0.4c0.2-0.8,0.5-1.9,1.1-3.6c0-0.7,0.2-1.4,0.3-2.2
				c-1.8,0.1-3.2,0.2-4,0.5l-0.4,0.1c-7.9,1.7-14.9-0.3-20.6-6l-0.3-0.3l-0.2-0.3c-4.3-6.1-6.9-13.1-7.8-21l0-0.4c0-4.6,1-8.5,3-12
				c2-3.6,5-6.2,8.8-7.8c1.7-1.2,2.6-2.1,2.9-2.7c-0.2-0.2-0.5-0.5-0.8-0.7L29,99.6c-5.2-2-9-5.6-11.3-10.7l0-0.1
				c-1.9-4.6-2.3-9.3-1.2-14.5c0.9-6.6,3.7-12.6,8.1-17.8c2.4-3.2,5.4-5.4,9-6.6c3.3-1.1,6.7-1,10.2,0.2c0.5,0,1.1,0.1,1.9,0.1
				l1.4,0.2c0.4,0.1,1.7,0.4,2.4,0.4c0.3,0,0.5,0,0.7,0v-1.1l-0.2-1.2c-0.3-1.5-0.5-2.5-0.5-3.3c-1.9-7.9,0.3-14.7,6.3-19.7l0.2-0.2
				c6.3-4.5,13.5-7.2,21.9-8c8.3-1,15.1,3,19.3,11.1c0.3,0.6,1,1.8,1.5,2.6c0.3,0,0.8,0,1.3-0.1c0.9-0.2,1-0.5,1.1-0.6
				c1.1-2.9,2.4-5.1,4.1-6.7c4.3-5.2,9.9-7.9,16.6-7.9l0.6,0c8.2,1.2,14.8,4,19.7,8.2l0.2,0.2c2.5,2.5,4,4.1,4.9,5.3
				c1.9,2.4,3.1,5.2,3.6,8.1c0.7,3.1,0.5,6.7-0.8,10.7l-0.1,0.4l-0.2,0.3c-0.3,0.5-0.4,1.1-0.4,1.9c0,0,0.1,0.1,0.1,0.2
				c2.2,0,2.9-0.3,3.1-0.3l0.3-0.1l1.3-0.5c2.4-1,4.6-1.5,6.3-1.5c6.5,0,11.9,3,16.2,8.9c4.4,5.5,7,12.6,7.9,21.2
				c0.6,4-0.3,7.9-2.6,11.4c-2.1,3.1-5,5.7-8.8,7.7c-0.2,0.1-0.3,0.2-0.5,0.4c-0.2,0.1-0.5,0.3-0.8,0.6l-0.2,0.1
				c-0.1,0.1-0.2,0.1-0.2,0.2l-0.1,0.3l-0.9,0.6l0,0.2l-0.1,0.3c0,0.1,0,0.2,0,0.3c0.6,1.1,1,1.4,1,1.4l0.5,0.3l0.5,0.4
				c3.6,2.2,6.3,4.7,8.1,7.3c2.6,2.8,5.2,7.9,3.9,16.1c-1.2,7.6-3.9,13.9-8.1,18.8c-4.5,5.2-9.8,7.9-15.8,7.9
				c-0.4,0-0.8-0.1-1.1-0.1c-0.2,0-0.4-0.1-0.8-0.1l-0.6-0.1l-0.6-0.3c-0.7-0.3-1-0.3-1-0.3h-0.6l-0.5-0.2c-0.6-0.2-2.1-0.7-2.8-0.7
				c-0.5-0.1-1-0.1-1.3-0.1c-0.2,0.2-0.3,0.3-0.4,0.4c0,0.5,0.1,0.8,0.1,1l0,0l0.2,0.5c2,4.3,2.2,8.9,0.7,13.6
				c-1.6,4.6-4.4,8.4-8.2,11.3l-0.4,0.3c-6.7,3.8-13.1,6.1-19.2,6.9L123.5,184.9z M100.2,162c1.3,0,2.6,0.3,3.9,1l0.3,0.2l1.3,1
				c1.5,1.2,2.7,2.6,3.8,4l0.2,0.3l0.1,0.3c3.7,7.4,8.1,8.2,11,8.2h2.1c4.9-0.7,10.2-2.6,15.7-5.7c2.5-1.9,4.2-4.3,5.2-7.3
				c0.8-2.6,0.8-5-0.2-7.4c-0.8-1.3-1.2-3.1-1.2-6c0-2.1,1.4-3.9,3.6-6.1l0.8-0.8l1-0.3c1.7-0.5,3.6-0.6,5.4-0.3
				c1,0.1,2.2,0.4,3.7,0.9c0.9,0.1,1.9,0.4,3,0.8c0.2,0,0.4,0.1,0.5,0.1l0,0c3.5-0.1,6.7-1.7,9.5-5.1c3.2-3.7,5.3-8.7,6.3-14.8
				c0.7-4.3,0-7.5-2-9.6l-0.3-0.3l-0.2-0.3c-0.8-1.2-2.4-3.1-5.8-5.1l-0.5-0.3c-1.8-1-3.4-2.8-4.9-5.7l-0.4-0.8v-0.9
				c0-1.1,0-2.2,0.3-3.2c0.3-1.6,1.1-3.1,2.3-4.3c0.6-0.7,1.4-1.3,2.2-1.9c0.4-0.3,0.7-0.5,0.9-0.7c0.1-0.1,0.1-0.1,0.2-0.1l0.3-0.3
				l0.6-0.3c2.7-1.4,4.8-3.2,6.2-5.3c1.3-1.9,1.7-3.8,1.4-5.8l0-0.2c-0.7-7.1-2.8-12.9-6.3-17.2l-0.1-0.2c-2.7-3.8-5.8-5.6-9.7-5.6
				c-0.2,0-1.2,0-3.4,0.9l-0.1,0.1l-1.3,0.5c-1.6,0.7-3.6,1-6.4,1c-2.3,0-4.3-0.9-5.8-2.6c-1.5-1.7-2.2-3.5-2.2-5.4
				c0-2.1,0.4-3.9,1.2-5.5c0.8-2.5,0.9-4.6,0.5-6.2l-0.1-0.4c-0.2-1.6-0.9-3.1-2-4.4l-0.1-0.1c-0.8-1.1-2.6-2.9-4-4.3
				c-3.7-3.2-8.7-5.2-15.3-6.2c-4.3,0.1-7.6,1.7-10.3,5.1l-0.4,0.4c-0.6,0.5-1.4,1.6-2.3,3.9c-0.7,2-2.5,4.5-6.7,5.6l-0.1,0
				c-3,0.6-5.6,0.3-7.7-1l-0.6-0.3l-0.4-0.5c-0.7-0.9-1.5-2.2-2.8-4.6L90,32.1c-2.6-5.3-6.2-7.4-11.2-6.8c-7,0.7-12.9,2.9-18,6.5
				c-3.7,3.1-4.8,6.7-3.5,11.8l0.1,0.5v0.5c0,0.3,0.3,1.7,0.4,2.6l0,0.2l0.2,2.1v1.4c0,3.9-2.3,8-8.7,8c-1.3,0-2.7-0.3-3.9-0.5
				l-0.6-0.1c-0.4,0-0.9-0.1-1.1-0.1h-1.5l-0.7-0.3c-2-0.8-3.8-0.9-5.5-0.3c-2,0.7-3.7,1.9-5.1,3.9l-0.2,0.2
				c-3.6,4.1-5.6,8.6-6.3,13.9L24.3,76c-0.8,3.5-0.6,6.7,0.7,9.7c1.5,3.2,3.7,5.3,7.1,6.5l0.3,0.1l1.8,1.1l0.3,0.2
				c0.8,0.7,1.8,1.6,2.7,2.7c0.9,1.1,2.5,3.8,0.3,7.9c-1.1,2.1-3.1,4.1-6,6l-0.4,0.3l-0.4,0.2c-2.3,0.9-3.9,2.3-5.1,4.4l-0.1,0.1
				c-1.3,2.2-1.9,4.7-1.9,7.8c0.7,6.2,2.8,11.9,6.2,16.7c3.7,3.5,7.9,4.7,13,3.6c1.9-0.6,4.5-0.8,8.3-0.8c1.7,0,3,0.9,4,1.7
				c1.9,1.6,2.3,3.4,2.3,4.6c0,0.8-0.2,1.6-0.4,2.4l-0.2,0.8c-0.2,0.7-0.2,1.1-0.2,1.5v0.8l-0.3,0.7c-0.5,1.4-0.8,2.4-1,3.1
				c-0.1,0.8,0,1.7,0.2,2.6c0.4,1.8,1,3.4,1.6,4.6c0.8,1.2,2,2.4,3.6,3.7c3.9,3.3,9.5,5.7,16.7,7.2c3.2,0.6,6,0.2,8.7-1.1
				c2.6-1.3,4.3-3.3,5.3-5.9l0.1-0.3c0.7-1.5,1.8-3,3.2-4.5C96.3,162.8,98.2,162,100.2,162z M100.5,169.9
				C100.5,169.9,100.5,169.9,100.5,169.9S100.5,169.9,100.5,169.9z M167.9,91.7C167.9,91.7,167.9,91.7,167.9,91.7L167.9,91.7z
				 M50.1,51.2L50.1,51.2L50.1,51.2z M50.5,50.8L50.5,50.8L50.5,50.8z M99.9,136.8c-6.5,0-12.6-1.7-18.1-5
				c-5.6-3.3-10.1-7.8-13.2-13.2c-3.3-5.5-4.9-11.6-4.9-18.1c0-6.7,1.7-12.8,5-18.2c3.3-5.6,7.7-10,13.2-13.2
				c5.5-3.3,11.6-4.9,18.1-4.9c6.4,0,12.5,1.7,18.1,4.9l0,0c5.6,3.3,10.1,7.8,13.2,13.2c3.3,5.5,4.9,11.6,4.9,18.1
				c0,6.5-1.7,12.6-5,18.1c-3.3,5.6-7.8,10.1-13.2,13.2C112.5,135.1,106.4,136.8,99.9,136.8z M99.9,72.2c-5,0-9.8,1.3-14.1,3.8
				c-4.3,2.5-7.8,6-10.4,10.4c-2.6,4.2-3.8,8.9-3.8,14.1c0,5,1.3,9.8,3.8,14.1c2.5,4.3,6,7.8,10.4,10.4c4.3,2.5,9,3.8,14.1,3.8
				s9.8-1.3,14.1-3.8c4.3-2.5,7.8-6,10.4-10.4c2.5-4.3,3.8-9,3.8-14.1c0-5-1.3-9.8-3.8-14.1c-2.5-4.3-6-7.8-10.4-10.4
				C109.6,73.5,104.8,72.2,99.9,72.2z"/>
		</g>
	</g>
</g>
</svg>
