<?xml version="1.0" encoding="utf-8"?>
<!-- Generator: Adobe Illustrator 22.0.1, SVG Export Plug-In . SVG Version: 6.00 Build 0)  -->
<svg version="1.1" id="图层_1" xmlns="http://www.w3.org/2000/svg" xmlns:xlink="http://www.w3.org/1999/xlink" x="0px" y="0px"
	 viewBox="0 0 200 200" enable-background="new 0 0 200 200" xml:space="preserve">
<g>
	<polygon fill="#6883D8" points="141.8,189.4 141.8,153.6 177.6,153.6 	"/>
	<path fill="#6883D8" d="M153.7,10.4H46.3c-13.2,0-23.9,10.7-23.9,23.9v131.3c0,13.2,10.7,23.9,23.9,23.9h79.5v-45.8
		c0-3.3,2.7-6,6-6h45.8V34.3C177.6,21.1,166.9,10.4,153.7,10.4z M77.7,104.4L65.1,118c-0.1,0.1-0.3,0.2-0.5,0.2s-0.4-0.1-0.6-0.3
		l-12.5-13.5c-1.5-1.7-2.4-3.8-2.4-6.2s0.9-4.6,2.5-6.3s3.6-2.7,5.9-2.7c1.8,0,3.6,0.6,5,1.8c0.9,0.7,1.6,1.6,2.1,2.6
		c0.5-1,1.3-1.9,2.1-2.6c1.5-1.2,3.2-1.8,5-1.8c2.2,0,4.3,1,5.9,2.7s2.5,4,2.5,6.3S79.2,102.8,77.7,104.4z M77.7,57.8L65.1,71.3
		c-0.1,0.1-0.3,0.2-0.5,0.2s-0.4-0.1-0.6-0.3L51.4,57.8C49.9,56.1,49,54,49,51.6s0.9-4.6,2.5-6.3s3.6-2.7,5.9-2.7
		c1.8,0,3.6,0.6,5,1.8c0.9,0.7,1.6,1.6,2.1,2.6c0.5-1,1.3-1.9,2.1-2.6c1.5-1.2,3.2-1.8,5-1.8c2.2,0,4.3,1,5.9,2.7s2.5,4,2.5,6.3
		C80.1,53.9,79.2,56.1,77.7,57.8z M158.9,103.5c0,3.9-3.1,7-7,7H102c-3.9,0-7-3.1-7-7v-1c0-3.9,3.1-7,7-7h49.9c3.9,0,7,3.1,7,7
		V103.5z M158.9,56.8c0,3.9-3.1,7-7,7H102c-3.9,0-7-3.1-7-7v-1c0-3.9,3.1-7,7-7h49.9c3.9,0,7,3.1,7,7V56.8z"/>
</g>
<g id="图层_1_1_">
</g>
</svg>
