<?xml version="1.0" encoding="utf-8"?>
<!-- Generator: Adobe Illustrator 22.0.1, SVG Export Plug-In . SVG Version: 6.00 Build 0)  -->
<svg version="1.1" id="图层_1" xmlns="http://www.w3.org/2000/svg" xmlns:xlink="http://www.w3.org/1999/xlink" x="0px" y="0px"
	 viewBox="0 0 200 200" enable-background="new 0 0 200 200" xml:space="preserve">
<g>
	<g>
		<path fill="#6883D8" d="M91.5,154.9H62.8c-3.8,0-6.9,3.1-6.9,6.9s3.1,6.9,6.9,6.9h38.9C97.5,164.6,94.1,159.9,91.5,154.9
			L91.5,154.9z"/>
	</g>
	<g>
		<g>
			<path fill="#6883D8" d="M84.5,126.8c0-13.9,4.8-26.8,12.8-37V67.5c0-3.1,2.5-5.6,5.6-5.6s5.6,2.5,5.6,5.6v11.3
				c10-7.5,22.5-12,36-12c13.7,0,26.2,4.6,36.3,12.3V79V37.1c0-5.5-4.5-10-10-10H24.2c-5.5,0-10,4.5-10,10v41.8v54.9
				c0,5.5,4.5,10,10,10h52.7h10H87C85.4,138.4,84.5,132.7,84.5,126.8z M47.2,119C47.2,119.1,47.1,119.1,47.2,119L36,119.1
				c0,0-0.1,0-0.1-0.1V82.5c0-3.1,2.5-5.6,5.6-5.6s5.6,2.5,5.6,5.6L47.2,119L47.2,119z M77.8,119C77.8,119.1,77.8,119.1,77.8,119
				l-11.2,0.1c0,0-0.1,0-0.1-0.1V47.9c0-3.1,2.5-5.6,5.6-5.6s5.6,2.5,5.6,5.6L77.8,119L77.8,119z"/>
		</g>
	</g>
	<g>
		<path fill="#6883D8" d="M185.4,134c-1.6-2.2-2.4-4.6-2.4-7.2c0-2.7,0.7-5.2,2.2-7.3c1.5-2.2,3.5-3.7,6.1-4.6
			c-0.9-4.2-2.6-8.4-5.1-12.4c-2.2,0.9-4.3,1.2-6.5,1s-4.2-1-6-2.3s-3.2-3-4.1-5.1c-0.6-1.6-1-3.2-1-5s0.3-3.5,1-5.1
			c-3.8-2.4-7.9-4.1-12.4-5.1c-0.9,2.6-2.5,4.6-4.6,6.1c-2.2,1.5-4.6,2.2-7.3,2.2s-5.1-0.8-7.3-2.4s-3.8-3.6-4.7-5.9
			c-4.2,0.9-8.4,2.5-12.4,5.1c1.1,2.3,1.4,4.7,0.9,7.3c-0.5,2.5-1.7,4.9-3.7,7.1c-1.8,1.8-4,2.9-6.5,3.4c-2.6,0.5-5.1,0.2-7.7-0.7
			c-2.3,4.7-3.8,8.7-4.6,12c2.6,0.9,4.6,2.5,6.1,4.6c1.5,2.2,2.2,4.6,2.2,7.3s-0.7,5.2-2.2,7.3c-1.5,2.2-3.5,3.7-6.1,4.6
			c0.9,4.2,2.5,8.4,5.1,12.4c2.2-0.9,4.3-1.2,6.5-1s4.2,1,6,2.3s3.2,3,4.1,5.1c0.6,1.6,1,3.3,1,5c0,1.8-0.3,3.5-1,5.1
			c3.8,2.4,7.9,4.1,12.4,5.1c0.9-2.6,2.5-4.6,4.6-6.1c2.2-1.5,4.6-2.2,7.3-2.2s5.2,0.7,7.3,2.2c2.2,1.5,3.7,3.5,4.6,6.1
			c4.2-0.9,8.4-2.5,12.4-5.1c-1.1-2.3-1.4-4.7-0.9-7.3c0.5-2.5,1.7-4.9,3.7-7.1c1.8-1.8,4-2.9,6.5-3.4s5.1-0.2,7.7,0.7
			c2.4-3.8,4.1-7.9,5.1-12.4C189.1,137.6,186.9,136.2,185.4,134z M145.5,144.8c-9.9,0-18-8.1-18-18s8.1-18,18-18s18,8.1,18,18
			S155.4,144.8,145.5,144.8z"/>
	</g>
</g>
</svg>
