<?xml version="1.0" encoding="utf-8"?>
<!-- Generator: Adobe Illustrator 22.0.1, SVG Export Plug-In . SVG Version: 6.00 Build 0)  -->
<svg version="1.1" id="图层_1" xmlns="http://www.w3.org/2000/svg" xmlns:xlink="http://www.w3.org/1999/xlink" x="0px" y="0px"
	 viewBox="0 0 200 200" enable-background="new 0 0 200 200" xml:space="preserve">
<g id="图层_1_1_">
	<g>
		<path fill="#6883D8" d="M143.1,77.8c-26.5,0-48,21.5-48,48s21.5,48,48,48s48-21.5,48-48S169.6,77.8,143.1,77.8z M144.3,146.3
			c-17.6,0-23.8-9.8-36.1-20.1c6.3-5.1,13.4-21.1,36.1-20.6c20.6,0.5,27.3,16.6,33.9,20.6C168.8,135.6,158.5,146.3,144.3,146.3z"/>
	</g>
	<g>
		<path fill="#6883D8" d="M90.2,154H61.5c-3.8,0-6.9,3.1-6.9,6.9s3.1,6.9,6.9,6.9h38.9C96.2,163.7,92.8,159,90.2,154L90.2,154z"/>
	</g>
	<path fill="#6883D8" d="M143.1,112c-7.7,0-13.9,6.2-13.9,13.9s6.2,13.9,13.9,13.9s13.9-6.2,13.9-13.9
		C157,118.3,150.8,112,143.1,112z"/>
	<g>
		<g>
			<path fill="#6883D8" d="M83.2,125.8c0-13.9,4.8-26.8,12.8-37V66.5c0-3.1,2.5-5.6,5.6-5.6s5.6,2.5,5.6,5.6v11.3
				c10-7.5,22.5-12,36-12c13.7,0,26.2,4.6,36.3,12.3v-0.1V36.2c0-5.5-4.5-10-10-10H22.9c-5.5,0-10,4.5-10,10v41.8v54.9
				c0,5.5,4.5,10,10,10h52.7h10h0.1C84.1,137.5,83.2,131.8,83.2,125.8z M45.8,118C45.8,118.2,45.8,118.2,45.8,118l-11.2,0.1
				c0,0-0.1,0-0.1-0.1V81.5c0-3.1,2.5-5.6,5.6-5.6s5.6,2.5,5.6,5.6L45.8,118L45.8,118z M76.5,118C76.5,118.2,76.5,118.2,76.5,118
				l-11.2,0.1c0,0-0.1,0-0.1-0.1V46.9c0-3.1,2.5-5.6,5.6-5.6s5.6,2.5,5.6,5.6L76.5,118L76.5,118z"/>
		</g>
	</g>
</g>
</svg>
