<?xml version="1.0" encoding="utf-8"?>
<!-- Generator: Adobe Illustrator 22.0.1, SVG Export Plug-In . SVG Version: 6.00 Build 0)  -->
<svg version="1.1" id="图层_1" xmlns="http://www.w3.org/2000/svg" xmlns:xlink="http://www.w3.org/1999/xlink" x="0px" y="0px"
	 viewBox="0 0 200 200" enable-background="new 0 0 200 200" xml:space="preserve">
<g id="图层_1_1_">
	<path fill="#6883D8" d="M140.1,44.1c3.9,0,7-3.1,7-7V27c0-3.9-3.1-7-7-7s-7,3.1-7,7v10.1C133.1,41,136.1,44.1,140.1,44.1z"/>
	<path fill="#6883D8" d="M59.8,44.1c3.9,0,7-3.1,7-7V27c0-3.9-3.1-7-7-7s-7,3.1-7,7v10.1C52.8,41,55.9,44.1,59.8,44.1z"/>
	<g>
		<path fill="#6883D8" d="M123.9,126.9l-16.5-12.3V89.4c0-4.1-3.4-7.5-7.5-7.5s-7.5,3.4-7.5,7.5v29c0,2.4,1.1,4.6,3,6l19.5,14.6
			c1.3,1,2.9,1.5,4.5,1.5c2.3,0,4.6-1,6-3C127.9,134.1,127.3,129.4,123.9,126.9z"/>
		<path fill="#6883D8" d="M164.1,35.4H161h-4.5v1.8c0,9.1-7.4,16.5-16.5,16.5s-16.5-7.4-16.5-16.5v-1.8H76.3v1.8
			c0,9.1-7.4,16.5-16.5,16.5s-16.5-7.4-16.5-16.5v-1.8h-7.6c-8.8,0-16.1,7.2-16.1,16.1v112.4c0,8.8,7.2,16.1,16.1,16.1h128.5
			c8.8,0,16.1-7.2,16.1-16.1V51.5C180.3,42.7,173.1,35.4,164.1,35.4z M134.8,149.4c-18.7,18.7-49.1,18.7-67.9,0
			c-18.7-18.7-18.7-49.1,0-67.9c18.7-18.7,49.1-18.7,67.9,0S153.6,130.6,134.8,149.4z"/>
	</g>
</g>
</svg>
