<?xml version="1.0" encoding="utf-8"?>
<!-- Generator: Adobe Illustrator 22.0.1, SVG Export Plug-In . SVG Version: 6.00 Build 0)  -->
<svg version="1.1" id="图层_1" xmlns="http://www.w3.org/2000/svg" xmlns:xlink="http://www.w3.org/1999/xlink" x="0px" y="0px"
	 viewBox="0 0 200 200" enable-background="new 0 0 200 200" xml:space="preserve">
<g id="图层_2_1_">
	<g>
		<path d="M100,21.3c43.4,0,78.8,35.3,78.8,78.7s-35.3,78.8-78.8,78.8S21.3,143.4,21.3,100S56.6,21.3,100,21.3 M100,10
			c-49.7,0-90,40.3-90,90s40.3,90,90,90s90-40.3,90-90S149.7,10,100,10L100,10z"/>
		<path d="M137.1,100c0-5.3,3.3-9.7,7.9-11.5c-1.1-4.3-2.8-8.4-5-12.2c-6.2,2.8-13.5,0-16.3-6.2c-1.4-3.2-1.4-6.9,0-10.1
			c-3.8-2.3-7.9-4-12.2-5c-1.8,4.8-6.4,7.9-11.5,7.9c-5.3,0-9.7-3.3-11.5-7.9c-4.3,1.1-8.4,2.8-12.2,5c2.1,4.7,1.1,10.1-2.5,13.7
			s-9.1,4.6-13.7,2.5c-2.3,3.8-4,7.9-5.1,12.2c4.8,1.8,7.9,6.4,7.9,11.5c0,5.3-3.3,9.7-7.9,11.5c1.1,4.3,2.8,8.4,5,12.2
			c6.2-2.8,13.5,0,16.3,6.2c1.4,3.2,1.4,6.9,0,10.1c3.8,2.3,7.9,4,12.2,5c1.8-4.8,6.4-7.9,11.5-7.9c5.3,0,9.7,3.3,11.5,7.9
			c4.3-1.1,8.4-2.8,12.2-5c-2.1-4.7-1.1-10.1,2.5-13.7c3.6-3.6,9.1-4.6,13.7-2.5c2.3-3.8,4-7.9,5.1-12.2
			C140.2,109.7,137.1,105.1,137.1,100z M100,112.4c-6.8,0-12.4-5.5-12.4-12.4c0-6.8,5.5-12.4,12.4-12.4c6.8,0,12.4,5.5,12.4,12.4
			C112.4,106.8,106.8,112.4,100,112.4L100,112.4z"/>
	</g>
</g>
</svg>
