<?xml version="1.0" encoding="utf-8"?>
<!-- Generator: Adobe Illustrator 22.0.1, SVG Export Plug-In . SVG Version: 6.00 Build 0)  -->
<svg version="1.1" id="图层_1" xmlns="http://www.w3.org/2000/svg" xmlns:xlink="http://www.w3.org/1999/xlink" x="0px" y="0px"
	 viewBox="0 0 200 200" enable-background="new 0 0 200 200" xml:space="preserve">
<g>
	<path fill="#6883D8" d="M100,10c-49.7,0-90,40.3-90,90s40.3,90,90,90s90-40.3,90-90S149.7,10,100,10z M137.3,103.1l-20.9-20.9
		l5.4-5.4l-9.9-9.9c-4.7-4.9-12.5-5.1-17.5-0.5s-5.1,12.5-0.5,17.5c0.1,0.2,0.3,0.3,0.5,0.5l20.9,20.9c10.6,10.6,10.6,27.8,0,38.4
		s-27.8,10.6-38.4,0l-4.3-4.1l-5.5,5.5L46.2,124l21-21l20.9,20.9l-4.9,4.9l4.3,4.3c4.9,4.7,12.8,4.5,17.5-0.5c4.5-4.8,4.5-12.2,0-17
		L84.1,94.8c-10.6-10.6-10.6-27.8,0-38.4s27.8-10.6,38.4,0l9.9,9.9l5-5l21,20.9L137.3,103.1z"/>
</g>
<g id="图层_1_1_">
	<g>
		<path fill="#FFFFFF" d="M14.5,177L14.5,177c0.6,0,1.2,0,1.7,0h3.5h2.7h2l-1.9-2.5c-0.3-0.4-0.1-1,0.3-1.2c0.4-0.3,1-0.1,1.2,0.3
			c0.1,0.2,0.2,0.3,0.3,0.5l2.5,3.3c0.4,0.6-0.1,1.4-0.8,1.4l0,0c-0.6,0-1.1,0-1.7,0h-2.5h-2.7h-3.3h-1.4c-0.5,0-0.9-0.4-0.9-0.9
			C13.6,177.5,14,177,14.5,177z"/>
		<path fill="#FFFFFF" d="M26.1,182.7L26.1,182.7c-0.6,0-1.2,0-1.7,0h-2.5h-2.7h-3.1l1.9,2.5c0.3,0.4,0.1,1-0.3,1.2
			c-0.4,0.3-1,0.1-1.2-0.3c-0.1-0.2-0.2-0.3-0.3-0.5l-2.5-3.3c-0.4-0.6,0.1-1.4,0.8-1.4l0,0c0.6,0,1.1,0,1.7,0h3.5h1.7h3.3h1.4
			c0.5,0,0.9,0.4,0.9,0.9C27.1,182.3,26.6,182.7,26.1,182.7z"/>
	</g>
</g>
</svg>
