<?xml version="1.0" encoding="utf-8"?>
<!-- Generator: Adobe Illustrator 22.0.1, SVG Export Plug-In . SVG Version: 6.00 Build 0)  -->
<svg version="1.1" id="图层_1" xmlns="http://www.w3.org/2000/svg" xmlns:xlink="http://www.w3.org/1999/xlink" x="0px" y="0px"
	 viewBox="0 0 200 200" style="enable-background:new 0 0 200 200;" xml:space="preserve">
<style type="text/css">
	.st0{fill:#0067FF;}
</style>
<g>
	<path class="st0" d="M100,10c-49.7,0-90,40.3-90,90s40.3,90,90,90s90-40.3,90-90S149.7,10,100,10z M100,178.8
		c-43.5,0-78.7-35.4-78.7-78.8c0-43.4,35.3-78.7,78.7-78.7s78.8,35.3,78.8,78.7C178.8,143.4,143.5,178.8,100,178.8z"/>
	<path class="st0" d="M128.1,139.4H71.9c-3.1,0-5.6,2.5-5.6,5.6c0,3.1,2.5,5.6,5.6,5.6h56.3c3.1,0,5.6-2.5,5.6-5.6
		C133.7,141.9,131.2,139.4,128.1,139.4z"/>
	<circle class="st0" cx="100" cy="88.8" r="9.3"/>
	<path class="st0" d="M139.4,49.4H60.6c-6.2,0-11.3,5-11.3,11.2v56.3c0,6.2,5,11.3,11.3,11.3h78.8c6.2,0,11.2-5,11.2-11.3V60.6
		C150.6,54.4,145.6,49.4,139.4,49.4z M133.7,97.4c-0.8,3.2-2.1,6.3-3.8,9.1c-3.5-1.6-7.6-0.8-10.3,1.9c-2.7,2.7-3.5,6.8-1.9,10.3
		c-2.9,1.7-5.9,3-9.1,3.8c-1.3-3.5-4.7-6-8.6-6c-3.8,0-7.3,2.4-8.6,6c-3.2-0.8-6.3-2.1-9.1-3.8c1.1-2.4,1.1-5.1,0-7.5
		c-2.1-4.7-7.5-6.7-12.2-4.7c-1.7-2.8-2.9-5.9-3.8-9.1c3.5-1.3,6-4.7,6-8.6c0-3.8-2.4-7.3-6-8.6c0.8-3.2,2.1-6.3,3.8-9.1
		c3.5,1.6,7.6,0.8,10.3-1.9c2.7-2.7,3.5-6.8,1.9-10.3c2.8-1.7,5.9-3,9.1-3.8c1.3,3.5,4.7,6,8.6,6c3.8,0,7.3-2.4,8.6-6
		c3.2,0.8,6.3,2.1,9.1,3.8c-1.1,2.4-1.1,5.1,0,7.5c2.1,4.7,7.5,6.7,12.2,4.7c1.7,2.8,3,5.9,3.8,9.1c-3.5,1.3-6,4.7-6,8.6
		C127.8,92.6,130.2,96,133.7,97.4z"/>
</g>
</svg>
