<?xml version="1.0" encoding="utf-8"?>
<!-- Generator: Adobe Illustrator 22.0.1, SVG Export Plug-In . SVG Version: 6.00 Build 0)  -->
<svg version="1.1" id="图层_1" xmlns="http://www.w3.org/2000/svg" xmlns:xlink="http://www.w3.org/1999/xlink" x="0px" y="0px"
	 viewBox="0 0 200 200" enable-background="new 0 0 200 200" xml:space="preserve">
<g id="图层_2_1_">
	<g>
		<path d="M68.2,161.7L68.2,161.7c-9.3,0-16.9-7.6-16.9-16.9V55.2c0-9.3,7.6-16.9,16.9-16.9l0,0c9.3,0,16.9,7.6,16.9,16.9v89.6
			C85.1,154.1,77.6,161.7,68.2,161.7z"/>
		<path d="M131.8,161.7L131.8,161.7c-9.3,0-16.9-7.6-16.9-16.9V55.2c0-9.3,7.6-16.9,16.9-16.9l0,0c9.3,0,16.9,7.6,16.9,16.9v89.6
			C148.7,154.1,141.1,161.7,131.8,161.7z"/>
	</g>
</g>
</svg>
