<?xml version="1.0" encoding="utf-8"?>
<!-- Generator: Adobe Illustrator 22.0.1, SVG Export Plug-In . SVG Version: 6.00 Build 0)  -->
<svg version="1.1" id="图层_1" xmlns="http://www.w3.org/2000/svg" xmlns:xlink="http://www.w3.org/1999/xlink" x="0px" y="0px"
	 viewBox="0 0 200 200" enable-background="new 0 0 200 200" xml:space="preserve">
<g>
	<g>
		<g>
			<path fill="#6883D8" d="M134.6,157H65.2c-3.8,0-6.9,3.1-6.9,6.9s3.1,6.9,6.9,6.9h69.4c3.8,0,6.9-3.1,6.9-6.9S138.5,157,134.6,157
				L134.6,157z"/>
		</g>
	</g>
	<g>
		<rect x="93.4" y="83.6" fill="#6883D8" width="10.2" height="7.9"/>
		<rect x="54" y="83.6" fill="#6883D8" width="10.2" height="7.9"/>
		<rect x="73.7" y="83.6" fill="#6883D8" width="10.2" height="7.9"/>
		<path fill="#6883D8" d="M177.2,29.2H22.6c-3.3,0-6,2.7-6,6v104.7c0,3.3,2.7,6,6,6h154.7c3.3,0,6-2.7,6-6V35.2
			C183.2,31.9,180.6,29.2,177.2,29.2z M160.4,101.2c0,3.4-2.7,6.1-6.1,6.1H45.5c-3.4,0-6.1-2.7-6.1-6.1V74c0-3.4,2.7-6.1,6.1-6.1
			h108.8c3.4,0,6.1,2.7,6.1,6.1V101.2z"/>
		<path fill="#6883D8" d="M145.4,81.6h-20.6c-1.8,0-3.2,1.5-3.2,3.2v5.5c0,1.8,1.5,3.2,3.2,3.2h20.6c1.8,0,3.2-1.5,3.2-3.2v-5.5
			C148.6,83,147.1,81.6,145.4,81.6z"/>
	</g>
</g>
</svg>
