<?xml version="1.0" encoding="utf-8"?>
<!-- Generator: Adobe Illustrator 22.0.1, SVG Export Plug-In . SVG Version: 6.00 Build 0)  -->
<svg version="1.1" id="图层_1" xmlns="http://www.w3.org/2000/svg" xmlns:xlink="http://www.w3.org/1999/xlink" x="0px" y="0px"
	 viewBox="0 0 200 200" enable-background="new 0 0 200 200" xml:space="preserve">
<g>
	<g>
		<path fill="#6883D8" d="M140.1,39.1c3.9,0,7-3.1,7-7V22c0-3.9-3.1-7-7-7s-7,3.1-7,7v10.1C133.1,35.9,136.3,39.1,140.1,39.1z"/>
		<path fill="#6883D8" d="M59.8,39.1c3.9,0,7-3.1,7-7V22c0-3.9-3.1-7-7-7s-7,3.1-7,7v10.1C52.8,35.9,55.9,39.1,59.8,39.1z"/>
	</g>
	<path fill="#6883D8" d="M164.1,30.4H161h-4.5v1.8c0,9.1-7.4,16.5-16.5,16.5s-16.5-7.4-16.5-16.5v-1.8H76.3v1.8
		c0,9.1-7.4,16.5-16.5,16.5s-16.5-7.4-16.5-16.5v-1.8h-7.6c-8.8,0-16.1,7.2-16.1,16.1v122.4c0,8.8,7.2,16.1,16.1,16.1h128.5
		c8.8,0,16.1-7.2,16.1-16.1V46.5C180.3,37.6,173.1,30.4,164.1,30.4z M143.6,155.5c0,4-3.2,7.2-7.2,7.2H59.3c-4,0-7.2-3.2-7.2-7.2
		l0,0c0-4,3.2-7.2,7.2-7.2h77.1C140.4,148.3,143.6,151.5,143.6,155.5L143.6,155.5z M113.3,116.5c0,4-3.2,7.2-7.2,7.2H59.3
		c-4,0-7.2-3.2-7.2-7.2l0,0c0-4,3.2-7.2,7.2-7.2h46.8C110.2,109.3,113.3,112.5,113.3,116.5L113.3,116.5z M141.6,76.5
		c0,4-3.2,7.2-7.2,7.2h-75c-4,0-7.2-3.2-7.2-7.2l0,0c0-4,3.2-7.2,7.2-7.2h75C138.4,69.3,141.6,72.5,141.6,76.5L141.6,76.5z"/>
</g>
<g id="图层_1_1_">
</g>
</svg>
