<?xml version="1.0" encoding="utf-8"?>
<!-- Generator: Adobe Illustrator 22.0.1, SVG Export Plug-In . SVG Version: 6.00 Build 0)  -->
<svg version="1.1" id="图层_1" xmlns="http://www.w3.org/2000/svg" xmlns:xlink="http://www.w3.org/1999/xlink" x="0px" y="0px"
	 viewBox="0 0 200 200" enable-background="new 0 0 200 200" xml:space="preserve">
<g id="图层_2_1_">
	<path d="M161.6,86.2h-12.7V61.8c0-0.2,0-1.6,0-1.9c-0.5-12.4-5.5-23.9-14.3-32.8c-9.3-9.3-21.6-14.4-34.7-14.4s-25.4,5.1-34.7,14.4
		C56,36.3,50.9,48.5,50.8,61.4v24.8H38.3c-5.3,0-9.6,4.3-9.6,9.6v81.8c0,5.3,4.3,9.6,9.6,9.6h123.4c5.3,0,9.6-4.3,9.6-9.6V95.8
		C171.2,90.5,166.9,86.2,161.6,86.2z M67.4,61.4c0.3-17.7,14.7-31.9,32.4-31.9c17.5,0,31.8,14,32.4,31.3c0,0.2,0,0.6,0,0.8v24.5
		H67.4V61.4L67.4,61.4z M108.2,140.3v14c0,4.6-3.7,8.3-8.3,8.3s-8.3-3.7-8.3-8.3v-13.5c0-0.2,0-0.4,0-0.5c-5.1-2.9-8.6-8.4-8.6-14.7
		c0-9.3,7.6-16.9,16.9-16.9s16.9,7.6,16.9,16.9C116.8,131.9,113.3,137.4,108.2,140.3z"/>
</g>
</svg>
