<?xml version="1.0" encoding="utf-8"?>
<!-- Generator: Adobe Illustrator 22.0.1, SVG Export Plug-In . SVG Version: 6.00 Build 0)  -->
<svg version="1.1" id="图层_1" xmlns="http://www.w3.org/2000/svg" xmlns:xlink="http://www.w3.org/1999/xlink" x="0px" y="0px"
	 viewBox="0 0 200 200" enable-background="new 0 0 200 200" xml:space="preserve">
<g id="图层_1_1_">
	<path fill="#6883D8" d="M108.4,55.6c-2.5-1.1-5.2-1.7-7.9-1.7c-2.8-0.1-5.6,0.4-8.2,1.5c-2.5,1-4.7,2.4-6.6,4.3
		c-1.9,1.8-3.4,4-4.5,6.4v0.1c-1.1,2.5-1.7,5.2-1.7,7.9c0,2.7,0.5,5.4,1.5,7.9c0.9,2.5,2.4,4.8,4.3,6.6c1.9,1.8,4,3.4,6.4,4.5
		c2.5,1.1,5.2,1.7,7.9,1.7c2.8,0.1,5.6-0.4,8.2-1.5c2.5-0.9,4.8-2.4,6.6-4.3l0,0c1.8-1.8,3.3-3.9,4.4-6.3
		C123.4,72.5,118.7,60.3,108.4,55.6z"/>
	<path fill="#6883D8" d="M177.1,29.5c-0.2-1.2-0.6-2.3-1-3.4c-0.3-0.7-0.6-1.4-0.9-2.1c-3.2-6.6-9.3-11.5-16.7-13
		c-0.4-0.1-0.8-0.1-1.2-0.2c-0.8-0.1-1.6-0.2-2.4-0.2c-0.4,0-0.8,0-1.2,0H46.3c-0.4,0-0.8,0-1.2,0c-0.8,0-1.6,0.1-2.4,0.2
		c-0.4,0.1-0.8,0.1-1.2,0.2c-7.4,1.5-13.5,6.4-16.7,13c-0.3,0.7-0.6,1.4-0.9,2.1c-0.4,1.1-0.7,2.2-1,3.4c-0.3,1.6-0.5,3.2-0.5,4.8
		v103.4v27.9c0,13.2,10.7,23.9,23.9,23.9h27.9h51.7h27.9c13.2,0,23.9-10.7,23.9-23.9v-27.9V34.3C177.6,32.6,177.4,31,177.1,29.5z
		 M63.4,67.6c-1.4-1.7-3.2-2.9-5.2-3.6c-0.7-0.3-1.2-0.8-1.5-1.5c-0.4-0.6-0.6-1.4-0.7-2.2c0-1,0.1-1.9,0.4-2.8
		c0.3-1,0.6-1.9,1.1-2.8c0.4-0.9,1.1-1.7,1.5-2.6c0.5-0.7,1.1-1.2,1.7-1.7c0.6-0.2,1.1-0.4,1.5-0.2c0.5,0,1,0.2,1.4,0.4
		c1.9,0.7,4,1,6,0.9c2.1-0.2,4.1-1.1,5.6-2.6c0.7-0.8,1.3-1.8,1.7-2.8c0.3-1,0.5-2.1,0.6-3.2c0.2-0.9,0.2-1.9,0-2.8
		c-0.1-0.6-0.2-1.3-0.2-1.9c0-0.4-0.2-0.9-0.2-1.3c0-0.6,0-1.1-0.2-1.3c0.4-1,1.1-1.8,1.9-2.4c1.1-0.4,2.1-1.1,3.2-1.5
		c1-0.4,2.1-0.7,3.2-0.9c1.1,0,1.9-0.2,2.6-0.2c0.8-0.1,1.5,0.2,1.9,0.9c0.4,0.5,0.8,1.1,1.1,1.7c0.6,1.8,1.7,3.5,3.2,4.7
		c1.6,1.2,3.6,1.9,5.6,1.9c2.1,0,4.2-0.6,6-1.7c1.7-1.2,2.9-2.8,3.6-4.7c0.3-0.4,0.7-0.8,1.1-1.5c0.8-0.9,1.3-1.1,1.9-1.1
		c0.9,0,1.9,0.2,2.8,0.4c1.1,0.2,2.1,0.5,3,1.1c1.9,0.9,3.6,2.3,4.7,4.1c0.3,0.4,0.4,1,0.2,1.5c0,0.5-0.2,0.9-0.4,1.3
		c-1.8,3.7-1.1,8.1,1.7,11.2c1.5,1.6,3.5,2.5,5.6,2.6c2.1,0.2,4.3-0.2,6.2-1.1c0.6-0.3,1.3-0.4,1.9-0.2c0.7,0.2,1.3,0.4,1.9,0.8
		c1,1.2,1.9,2.6,2.4,4.1c0.7,1.8,1.2,3.7,1.5,5.6c0.3,1.5-0.5,3-1.9,3.6c-2,0.8-3.8,2-5.1,3.7c-1.4,1.7-2.2,3.8-2.1,6
		c0,2,0.5,3.9,1.5,5.6c1.1,1.5,2.7,2.7,4.5,3.4c0.4,0.2,0.8,0.4,1.1,0.6c0.7,0.5,1.3,1.3,1.5,2.1c0,0.9,0,1.9-0.2,2.8
		c-0.3,1.1-0.6,2.2-1.1,3.2c-0.4,1-0.9,1.9-1.5,2.8c-0.5,0.9-1.2,1.5-2.1,1.9c-0.5,0.4-1.2,0.7-1.9,0.6c-0.7,0-1.3-0.2-1.9-0.4
		c-0.7-0.2-1.5-0.4-2.4-0.6s-1.8-0.3-2.8-0.2c-0.8,0.2-1.9,0.4-2.8,0.6c-1,0.2-1.9,0.8-2.6,1.5c-1.5,1.4-2.5,3.3-2.8,5.3
		c-0.3,1.9-0.1,3.9,0.6,5.8c0.6,1.2,0.5,2.5-0.2,3.6c-0.6,0.5-1.3,1-1.9,1.5c-0.9,0.6-1.8,1.1-2.8,1.5c-1,0.5-2,0.8-3,1.1
		c-0.9,0.2-1.8,0.2-2.8,0.2c-0.6,0-1.1-0.3-1.5-0.7c-0.5-0.4-0.9-0.9-1.1-1.5h-0.2c-0.7-2-1.9-3.7-3.4-5.1c-1.6-1.5-3.6-2.2-5.8-2.1
		c-2.1-0.1-4.2,0.6-5.8,1.9c-1.6,1.3-2.9,3-3.6,4.9c-0.4,0.6-0.9,1.1-1.4,1.5c-0.6,0.2-1.3,0.4-1.9,0.4c-1,0-2-0.2-3-0.6
		c-1.1-0.2-2.2-0.7-3.2-1.3c-1-0.4-1.9-1-2.8-1.7c-0.7-0.5-1.4-1.2-1.9-1.9c-0.3-0.5-0.4-1-0.4-1.5c0-0.9,0.3-1.7,0.9-2.4
		c0.7-1.5,1-3.2,0.9-4.9c-0.2-1.9-1-3.7-2.4-5.1c-0.8-1-1.9-1.7-3.2-1.9c-1.2-0.2-2.4-0.4-3.6-0.4c-1.4,0-2.8,0.2-4.1,0.6
		c-0.8,0.4-1.8,0.3-2.6-0.2c-0.8-0.2-1.3-0.8-1.9-1.7c-0.4-0.9-1.1-1.9-1.5-3l0,0c-0.5-1.3-0.7-2.3-1.1-3.6
		c-0.4-0.9-0.5-1.9-0.2-2.8c0.2-1.5,0.9-2.3,1.9-2.6c2-0.7,3.8-1.9,5.1-3.6c1.6-1.5,2.4-3.6,2.4-5.8C65.6,71.3,64.9,69.2,63.4,67.6z
		 M143.8,149.2H72l3.1,4.3c2.3,3.1,1.6,7.5-1.5,9.8c-1.2,0.9-2.7,1.3-4.1,1.3c-2.2,0-4.3-1-5.7-2.9l-11.2-15.4
		c-1.5-2.1-1.8-4.9-0.6-7.3c1.2-2.3,3.6-3.8,6.2-3.8h85.5c3.9,0,7,3.1,7,7S147.6,149.2,143.8,149.2z"/>
</g>
</svg>
