<?xml version="1.0" encoding="utf-8"?>
<!-- Generator: Adobe Illustrator 22.0.1, SVG Export Plug-In . SVG Version: 6.00 Build 0)  -->
<svg version="1.1" id="图层_1" xmlns="http://www.w3.org/2000/svg" xmlns:xlink="http://www.w3.org/1999/xlink" x="0px" y="0px"
	 viewBox="0 0 200 200" enable-background="new 0 0 200 200" xml:space="preserve">
<g id="图层_1_1_">
	<path fill="#6883D8" d="M46.7,170.9c-2.8,0-5.1-2.3-5.1-5.1"/>
	<g>
		<g>
			<path fill="#6883D8" d="M126.7,122.9c-0.8,0-1.6-0.3-2.2-0.9c-0.8-0.8-1.1-2-0.8-3.1l1.6-6.5c0.1-0.3,0.3-0.8,0.8-1.3l43.8-43.8
				c1.2-1.2,2.8-1.9,4.6-1.9l0,0c1.7,0,3.4,0.7,4.6,1.9c1.2,1.2,1.9,2.8,1.9,4.6c0,1.8-0.7,3.4-1.9,4.7l-43.8,43.8
				c-0.4,0.4-0.9,0.7-1.5,0.8l-6.3,1.6C127.2,122.8,126.9,122.9,126.7,122.9z M128.7,120.2L128.7,120.2L128.7,120.2z M126.2,117.6
				L126.2,117.6L126.2,117.6z M129.8,114.9L129.8,114.9C129.7,114.9,129.8,114.9,129.8,114.9z"/>
		</g>
		<path fill="#6883D8" d="M118.2,110.1c0.5-1.6,1.4-3,2.6-4.2l43.6-43.6V27.7c0-5.7-4.6-10.4-10.4-10.4H99.6v52
			c0,2.1-2.4,3.3-4.1,2.1L79.1,59.8c-0.9-0.6-2.1-0.6-3,0L59.7,71.4c-1.7,1.2-4.1,0-4.1-2.1v-52H45.4C39.6,17.3,35,22,35,27.7v144.6
			c0,5.7,4.6,10.4,10.4,10.4h108.7c5.7,0,10.4-4.6,10.4-10.4v-57.7v-12.9l-24,24c-1.3,1.3-3,2.3-4.9,2.8l-6.3,1.6
			c-0.9,0.2-1.7,0.3-2.6,0.3c-2.7,0-5.4-1.1-7.4-3c-2.7-2.6-3.8-6.5-2.8-10.2L118.2,110.1z M62.3,95.7h40.2c4.1,0,7.4,3.3,7.4,7.4
			s-3.3,7.4-7.4,7.4H62.3c-4.1,0-7.4-3.3-7.4-7.4C54.9,99,58.2,95.7,62.3,95.7z M124.2,139.8c4.1,0,7.4,3.3,7.4,7.4
			s-3.3,7.4-7.4,7.4h-62c-4.1,0-7.4-3.3-7.4-7.4s3.3-7.4,7.4-7.4H124.2z"/>
	</g>
</g>
</svg>
