<?xml version="1.0" encoding="utf-8"?>
<!-- Generator: Adobe Illustrator 22.0.1, SVG Export Plug-In . SVG Version: 6.00 Build 0)  -->
<svg version="1.1" id="图层_1" xmlns="http://www.w3.org/2000/svg" xmlns:xlink="http://www.w3.org/1999/xlink" x="0px" y="0px"
	 viewBox="0 0 200 200" enable-background="new 0 0 200 200" xml:space="preserve">
<path fill="#6883D8" d="M117.9,67.2h50.1c5.5,0,10-4.5,10-10v-23c0-5.5-4.5-10-10-10h-50.1c-5.5,0-10,4.5-10,10v6.7H86.4v-7.6
	c0-5.1-4.1-9.2-9.2-9.2H31.1c-5.1,0-9.2,4.1-9.2,9.2V58c0,5.1,4.1,9.2,9.2,9.2h5.2v90.3c0,5.5,4.5,10,10,10h61.6
	c0,7.9,6.4,14.3,14.3,14.3h45.8c5.5,0,10-4.5,10-10V149c0-5.5-4.5-10-10-10h-50.1c-5.5,0-10,4.5-10,10v9.2H48.6
	c-1.6,0-2.9-1.3-2.9-2.9v-88h15.6v30.5c0,5.5,4.5,10,10,10h36.6v6.7c0,5.5,4.5,10,10,10h50.1c5.5,0,10-4.5,10-10V91.5
	c0-5.5-4.5-10-10-10h-50.1c-5.5,0-10,4.5-10,10v6.7H73.8c-1.6,0-2.9-1.3-2.9-2.9v-28l-0.4-0.2h6.9c5.1,0,9.2-4.1,9.2-9.2v-7.6H108
	V57C107.9,62.8,112.4,67.2,117.9,67.2z"/>
</svg>
