<?xml version="1.0" encoding="utf-8"?>
<!-- Generator: Adobe Illustrator 22.0.1, SVG Export Plug-In . SVG Version: 6.00 Build 0)  -->
<svg version="1.1" id="图层_1" xmlns="http://www.w3.org/2000/svg" xmlns:xlink="http://www.w3.org/1999/xlink" x="0px" y="0px"
	 viewBox="0 0 200 200" enable-background="new 0 0 200 200" xml:space="preserve">
<g>
	<polygon fill="#6883D8" points="141.8,189.4 141.8,153.6 177.6,153.6 	"/>
	<path fill="#6883D8" d="M153.7,10.4H46.3c-13.2,0-23.9,10.7-23.9,23.9v131.3c0,13.2,10.7,23.9,23.9,23.9h79.5v-45.8
		c0-3.3,2.7-6,6-6h45.8V34.3C177.6,21.1,166.9,10.4,153.7,10.4z M86.7,100.9l-18.1,23.5c-1.4,1.5-3.2,2.3-5.1,2.3
		c-1.5,0-3-0.5-4.3-1.5l-13-10.2c-2.9-2.4-3.4-6.6-1.1-9.6c2.3-2.9,6.6-3.4,9.6-1.1l7.9,6.2L76.3,92c2.5-2.8,6.8-3.1,9.6-0.6
		C89,93.8,89.2,98,86.7,100.9z M86.7,52.9l-18,23.5c-1.4,1.5-3.2,2.3-5.1,2.3c-1.5,0-3-0.5-4.3-1.5l-13-10.3
		c-2.9-2.4-3.4-6.6-1.1-9.6c2.3-2.9,6.6-3.4,9.6-1.1l7.9,6.2l13.7-18.6c2.5-2.8,6.8-3.1,9.6-0.6C89,45.8,89.2,50.1,86.7,52.9z
		 M149.7,116.8h-45.4c-3.6,0-6.6-2.9-6.6-6.6s2.9-6.6,6.6-6.6h45.4c3.6,0,6.6,2.9,6.6,6.6S153.3,116.8,149.7,116.8z M149.7,68.8
		h-45.4c-3.6,0-6.6-2.9-6.6-6.6c0-3.6,2.9-6.6,6.6-6.6h45.4c3.6,0,6.6,2.9,6.6,6.6C156.2,65.8,153.3,68.8,149.7,68.8z"/>
</g>
</svg>
