<?xml version="1.0" encoding="utf-8"?>
<!-- Generator: Adobe Illustrator 22.0.1, SVG Export Plug-In . SVG Version: 6.00 Build 0)  -->
<svg version="1.1" id="图层_1" xmlns="http://www.w3.org/2000/svg" xmlns:xlink="http://www.w3.org/1999/xlink" x="0px" y="0px"
	 viewBox="0 0 200 200" enable-background="new 0 0 200 200" xml:space="preserve">
<g id="图层_1_1_">
	<path fill="#6883D8" d="M140.1,44.1c3.9,0,7-3.1,7-7V27c0-3.9-3.1-7-7-7s-7,3.1-7,7v10.1C133.1,41,136.1,44.1,140.1,44.1z"/>
	<path fill="#6883D8" d="M59.8,44.1c3.9,0,7-3.1,7-7V27c0-3.9-3.1-7-7-7s-7,3.1-7,7v10.1C52.8,41,55.9,44.1,59.8,44.1z"/>
	<path fill="#6883D8" d="M164.1,35.4H161h-4.5v1.8c0,9.1-7.4,16.5-16.5,16.5s-16.5-7.4-16.5-16.5v-1.8H76.3v1.8
		c0,9.1-7.4,16.5-16.5,16.5s-16.5-7.4-16.5-16.5v-1.8h-7.6c-8.8,0-16.1,7.2-16.1,16.1v112.4c0,8.8,7.2,16.1,16.1,16.1h128.5
		c8.8,0,16.1-7.2,16.1-16.1V51.5C180.3,42.7,173.1,35.4,164.1,35.4z M142.4,133.5h-0.2c-4.1,0.1-8.3,0-12.4,0h-18.2l-19.5,0.1H69.9
		l13.8,18c2,3.1,0.5,7.2-2.4,9c-3.1,2-7.1,0.5-9-2.4c-0.8-1.3-1.7-2.5-2.5-3.8l-17.9-24.1c-2.8-4.2,0.9-9.9,5.7-9.9h0.2
		c4.1-0.1,8.3,0,12.4,0h25.5l12.1-0.1h24.4h10.2c3.7,0,6.4,3,6.6,6.6C149.1,130.5,145.8,133.5,142.4,133.5z M142.3,105.1h-0.2
		c-4.1,0.1-8.3,0-12.4,0h-18.2l-19.5,0.1H67.7H57.4c-3.7,0-6.4-3-6.6-6.6C50.6,95,53.9,92,57.4,92h0.2c4.1-0.1,8.3,0,12.4,0h25.5
		l19.5-0.1h15l-13.8-18c-2-3.1-0.5-7.2,2.4-9c3.1-2,7.1-0.5,9,2.4c0.8,1.3,1.7,2.5,2.5,3.8l17.9,24.1
		C150.8,99.5,147.1,105.1,142.3,105.1z"/>
</g>
</svg>
