<?xml version="1.0" encoding="utf-8"?>
<!-- Generator: Adobe Illustrator 22.0.1, SVG Export Plug-In . SVG Version: 6.00 Build 0)  -->
<svg version="1.1" id="图层_1" xmlns="http://www.w3.org/2000/svg" xmlns:xlink="http://www.w3.org/1999/xlink" x="0px" y="0px"
	 viewBox="0 0 200 200" enable-background="new 0 0 200 200" xml:space="preserve">
<g>
	<path fill="#6883D8" d="M110.6,103.1c-3.2-6.8-8.3-11.7-15-14.8c-6.9-3.1-13.2-6.5-18.9-10.1c-0.2-0.1-0.4-0.3-0.5-0.4
		C69.8,73.5,60.1,65,59.3,64.2c-1.2-1.2-2.2-2.4-3.1-3.5c0,0,0,0,0,0.1c0,0.2,0,0.3,0.1,0.5v0.1c0,0.2,0.1,0.4,0.1,0.5v0.2
		c0,0.1,0,0.3,0.1,0.4v0.2c0,0.2,0.1,0.3,0.1,0.5c0,0,0,0,0,0.1c0,0.2,0.1,0.4,0.1,0.6c0,0.1,0,0.1,0,0.2l0.1,0.4v0.2
		c0,0.2,0.1,0.4,0.1,0.6l0,0c0,0.2,0.1,0.4,0.1,0.6c0,0.1,0,0.1,0,0.2c0,0.2,0.1,0.3,0.1,0.5c0,0.1,0,0.1,0,0.2
		c0,0.2,0.1,0.4,0.1,0.6l0,0c0,0.2,0.1,0.4,0.1,0.6c0,0.1,0,0.1,0,0.2c0,0.2,0.1,0.3,0.1,0.5c0,0.1,0,0.1,0,0.2
		c0.1,0.4,0.2,0.9,0.3,1.3v0.2c0,0.2,0.1,0.3,0.1,0.5c0,0.1,0,0.1,0,0.2c0.1,0.2,0.1,0.4,0.2,0.7c0.5,1.7,1,3.4,1.5,5
		c0.1,0.4,0.3,0.8,0.4,1.2c1.2,3.2,2.5,6.3,4.1,9.2c0.6,1.1,1.2,2.1,1.8,3.2c1.3,2.1,2.7,4.2,4.2,6.1c3.3,4.2,7.1,7.8,11.3,10.9
		c7.5,5.4,13.5,10.8,18.1,15.7c1.1,1.2,2.2,2.4,3.2,3.6c0.2,0.3,0.5,0.6,0.7,0.9l0.4,0.4c0.4,0.4,0.7,0.9,1,1.3
		c2,2.5,3.6,4.8,4.9,6.8c0.6,0.9,1.2,1.9,1.7,2.7c0,0,0,0.1,0.1,0.1c0.1,0.2,0.2,0.4,0.3,0.6l0.1,0.1c0.1,0.2,0.2,0.4,0.3,0.5
		c0,0,0,0.1,0.1,0.1c0.1,0.2,0.2,0.3,0.3,0.5c0,0,0,0.1,0.1,0.1c0.1,0.2,0.2,0.3,0.3,0.5l0.1,0.1c0.9-4.7,1.7-11.1,1.5-17.8
		C114.7,115.5,113.3,108.7,110.6,103.1z"/>
	<path fill="#6883D8" d="M144.5,95.3c-4.5,6.8-6.4,12.5-7.1,16.2c-0.1,0.5-0.2,1.1-0.3,1.5c5.8-3.3,15.9-10.4,17.9-20.7
		c1.2-6.1-0.7-12.6-5.5-19.3C150.3,81.4,148.6,89.2,144.5,95.3z"/>
	<path fill="#6883D8" d="M100,9.5C50,9.5,9.5,50,9.5,100S50,190.5,100,190.5s90.5-40.5,90.5-90.5S150,9.5,100,9.5z M116.8,150.7
		L116.8,150.7c0,0.1,0,0.1-0.1,0.2l0,0c0,0.1-0.1,0.1-0.1,0.2c0,0,0,0,0,0.1c0,0,0,0.1-0.1,0.1c0,0,0,0,0,0.1l0,0
		c0,0.1-0.1,0.1-0.1,0.2l0,0c0,0,0,0.1-0.1,0.1l0,0l0,0l-0.1,0.1l0,0c-0.1,0.1-0.1,0.1-0.2,0.2l-0.1,0.1l0,0c-0.1,0-0.1,0.1-0.2,0.1
		l0,0c-0.1,0-0.1,0.1-0.2,0.1c0,0,0,0-0.1,0c0,0-0.1,0-0.1,0.1l0,0c-0.1,0-0.2,0.1-0.2,0.1H115c0,0,0,0-0.1,0s-0.1,0-0.2,0l0,0
		c-0.1,0-0.1,0-0.2,0s-0.2,0-0.3,0h-0.1c-0.5,0-12.2-0.4-26.4-4.5c-8.4-2.4-15.8-5.6-22.2-9.5c-8.1-5-14.4-11.1-18.8-18.1
		c-11.2-18-10-42,3.5-71.4c0.4-0.8,1.1-1.5,2.1-1.6c1.3-0.2,2.5,0.5,2.9,1.6l0,0c0,0,0,0.1,0.1,0.1c0.1,0.2,1.9,4.8,8,11.2
		c0.8,0.8,9.3,9.3,16.4,13.2c5.4,3.5,11.5,6.7,18.1,9.7c8,3.6,14,9.5,17.8,17.5c3,6.3,4.5,13.8,4.7,22.4
		C120.6,137.7,116.9,150.2,116.8,150.7z M160.4,93.4c-0.8,4.1-2.6,8.1-5.5,11.8c-2.2,2.9-5.1,5.7-8.5,8.3
		c-5.5,4.2-10.7,6.4-11.2,6.6l0,0l0,0c0,0,0,0-0.1,0s-0.1,0.1-0.2,0.1h-0.1h-0.1c-0.1,0-0.1,0-0.2,0h-0.1l0,0l0,0
		c-0.1,0-0.2,0-0.2,0l0,0c-0.1,0-0.1,0-0.2,0c0,0,0,0-0.1,0s-0.1,0-0.2,0h-0.1c-0.1,0-0.1,0-0.2,0h-0.1c-0.1,0-0.1,0-0.2-0.1
		c0,0,0,0-0.1,0s-0.1-0.1-0.2-0.1l0,0c-0.1,0-0.1-0.1-0.2-0.1l0,0c-0.1,0-0.1-0.1-0.2-0.1l0,0c-0.1,0-0.1-0.1-0.2-0.1l0,0
		c-0.1,0-0.1-0.1-0.2-0.2l0,0l-0.1-0.1l0,0c-0.2-0.3-4.1-5.3-6.4-11.9c-3.4-9.4-2.1-17.3,3.5-23c3.6-3.6,8.5-9.3,11.1-15.5
		c1.5-3.5,1.6-5.6,1.6-5.8c-0.1-1.1,0.6-2.1,1.6-2.6c0.9-0.4,2-0.2,2.8,0.4l0,0c0.1,0.1,0.1,0.1,0.2,0.2l0,0
		C157.6,72.1,162.4,83,160.4,93.4z"/>
</g>
<g id="图层_1_1_">
</g>
</svg>
