<?xml version="1.0" encoding="utf-8"?>
<!-- Generator: Adobe Illustrator 22.0.1, SVG Export Plug-In . SVG Version: 6.00 Build 0)  -->
<svg version="1.1" id="图层_1" xmlns="http://www.w3.org/2000/svg" xmlns:xlink="http://www.w3.org/1999/xlink" x="0px" y="0px"
	 viewBox="0 0 200 200" enable-background="new 0 0 200 200" xml:space="preserve">
<g id="图层_1_1_">
	<path d="M100,21.3c43.4,0,78.8,35.3,78.8,78.7s-35.3,78.8-78.8,78.8S21.3,143.4,21.3,100S56.6,21.3,100,21.3 M100,10
		c-49.7,0-90,40.3-90,90s40.3,90,90,90s90-40.3,90-90S149.7,10,100,10L100,10z"/>
	<g>
		<path d="M97,43.8L97,43.8L97,43.8z"/>
		<path d="M100,55.3h-3V43.8L77.4,61.3L97,78.8V66.1h3c21.6,0,39.2,17.8,39.2,39.7s-17.5,39.7-39.2,39.7
			c-21.6,0-39.2-17.8-39.2-39.7c0-4.1,0.6-8.1,1.8-11.9l-10-3.7c-1.6,5-2.4,10.2-2.4,15.6c0,27.9,22.3,50.5,49.8,50.5
			s49.8-22.6,49.8-50.5S127.5,55.3,100,55.3z"/>
		<circle cx="100" cy="105.6" r="11.3"/>
	</g>
</g>
</svg>
