<?xml version="1.0" encoding="utf-8"?>
<!-- Generator: Adobe Illustrator 22.0.1, SVG Export Plug-In . SVG Version: 6.00 Build 0)  -->
<svg version="1.1" id="图层_1" xmlns="http://www.w3.org/2000/svg" xmlns:xlink="http://www.w3.org/1999/xlink" x="0px" y="0px"
	 viewBox="0 0 200 200" enable-background="new 0 0 200 200" xml:space="preserve">
<g id="图层_1_1_">
	<path fill="#6883D8" d="M140.1,44.1c3.9,0,7-3.1,7-7V27c0-3.9-3.1-7-7-7s-7,3.1-7,7v10.1C133.1,41,136.1,44.1,140.1,44.1z"/>
	<path fill="#6883D8" d="M59.8,44.1c3.9,0,7-3.1,7-7V27c0-3.9-3.1-7-7-7s-7,3.1-7,7v10.1C52.8,41,55.9,44.1,59.8,44.1z"/>
	<path fill="#6883D8" d="M164.1,35.4H161h-4.5v1.8c0,9.1-7.4,16.5-16.5,16.5s-16.5-7.4-16.5-16.5v-1.8H76.3v1.8
		c0,9.1-7.4,16.5-16.5,16.5s-16.5-7.4-16.5-16.5v-1.8h-7.6c-8.8,0-16.1,7.2-16.1,16.1v112.4c0,8.8,7.2,16.1,16.1,16.1h128.5
		c8.8,0,16.1-7.2,16.1-16.1V51.5C180.3,42.7,173.1,35.4,164.1,35.4z M142.8,113.2c0,3.8-3.1,6.8-6.8,6.8h-28.6v28.6
		c0,3.8-3.1,6.8-6.8,6.8h-1.4c-3.8,0-6.8-3.1-6.8-6.8V120H63.8c-3.8,0-6.8-3.1-6.8-6.8v-1.4c0-3.8,3.1-6.8,6.8-6.8h28.6V76.4
		c0-3.8,3.1-6.8,6.8-6.8h1.4c3.8,0,6.8,3.1,6.8,6.8V105h28.6c3.8,0,6.8,3.1,6.8,6.8L142.8,113.2L142.8,113.2z"/>
</g>
</svg>
