<?xml version="1.0" encoding="utf-8"?>
<!-- Generator: Adobe Illustrator 22.0.1, SVG Export Plug-In . SVG Version: 6.00 Build 0)  -->
<svg version="1.1" id="图层_1" xmlns="http://www.w3.org/2000/svg" xmlns:xlink="http://www.w3.org/1999/xlink" x="0px" y="0px"
	 viewBox="0 0 200 200" enable-background="new 0 0 200 200" xml:space="preserve">
<g id="图层_2_1_">
	<g>
		<path d="M100,21.3c43.4,0,78.8,35.3,78.8,78.7s-35.3,78.8-78.8,78.8S21.3,143.4,21.3,100S56.6,21.3,100,21.3 M100,10
			c-49.7,0-90,40.3-90,90s40.3,90,90,90s90-40.3,90-90S149.7,10,100,10L100,10z"/>
		<path d="M141.1,50.7l-24,25.1v-24h-11.3v43l0.1,0.1H149V83.6h-23.7L149,58.7L141.1,50.7 M94.6,106.2H51.4v11.3h23.8l-24.3,23.8
			l8,8l24.5-24v24h11.3L94.6,106.2L94.6,106.2L94.6,106.2"/>
	</g>
</g>
</svg>
