<?xml version="1.0" encoding="utf-8"?>
<!-- Generator: Adobe Illustrator 22.0.1, SVG Export Plug-In . SVG Version: 6.00 Build 0)  -->
<svg version="1.1" id="图层_1" xmlns="http://www.w3.org/2000/svg" xmlns:xlink="http://www.w3.org/1999/xlink" x="0px" y="0px"
	 viewBox="0 0 200 200" enable-background="new 0 0 200 200" xml:space="preserve">
<g>
	<g>
		<path fill="#6883D8" d="M71.2,141.4c-4.1,0-7.5-3.4-7.5-7.5s3.4-7.5,7.5-7.5h4.7c0.4-7.8,2.3-15.5,5.7-22.6H71.2
			c-4.1,0-7.5-3.4-7.5-7.5s3.4-7.5,7.5-7.5h20.6c0.5-0.6,1.1-1.2,1.6-1.7c17.5-17.5,43.1-22,64.7-13.4V40.2
			c0-9.7-7.9-17.6-17.6-17.6h-103c-9.7,0-17.6,7.9-17.6,17.6v112.9c0,9.7,7.9,17.6,17.6,17.6H92c-7.9-8.5-12.9-18.7-15-29.3H71.2z
			 M63.7,58.6c0-4.1,3.4-7.5,7.5-7.5h61.9c4.1,0,7.5,3.4,7.5,7.5l0,0c0,4.1-3.4,7.5-7.5,7.5H71.2C67,66.1,63.7,62.8,63.7,58.6
			L63.7,58.6z M52.5,134.4c0,3.8-3.1,6.9-6.9,6.9h-1.2c-3.8,0-6.9-3.1-6.9-6.9v-1.2c0-3.8,3.1-6.9,6.9-6.9h1.2
			c3.8,0,6.9,3.1,6.9,6.9V134.4z M52.5,96.9c0,3.8-3.1,6.9-6.9,6.9h-1.2c-3.8,0-6.9-3.1-6.9-6.9v-1.2c0-3.8,3.1-6.9,6.9-6.9h1.2
			c3.8,0,6.9,3.1,6.9,6.9V96.9z M52.5,59.2c0,3.8-3.1,6.9-6.9,6.9h-1.2c-3.8,0-6.9-3.1-6.9-6.9V58c0-3.8,3.1-6.9,6.9-6.9h1.2
			c3.8,0,6.9,3.1,6.9,6.9V59.2z"/>
	</g>
	<path fill="#6883D8" d="M136.1,81.5c-26.5,0-48,21.5-48,48s21.5,48,48,48s48-21.5,48-48S162.6,81.5,136.1,81.5z M160.2,154.9
		c-1.2,1.1-2.7,1.7-4.2,1.7c-1.6,0-3.1-0.6-4.3-1.8l-20.5-21.1c-1.1-1.1-1.7-2.6-1.7-4.2v-28.9c0-3.3,2.7-6,6-6s6,2.7,6,6v26.5
		l18.8,19.4C162.6,148.9,162.6,152.7,160.2,154.9z"/>
</g>
<g id="图层_1_1_">
</g>
</svg>
