<?xml version="1.0" encoding="utf-8"?>
<!-- Generator: Adobe Illustrator 22.0.1, SVG Export Plug-In . SVG Version: 6.00 Build 0)  -->
<svg version="1.1" id="layer1" xmlns="http://www.w3.org/2000/svg" xmlns:xlink="http://www.w3.org/1999/xlink" x="0px" y="0px"
	 viewBox="0 0 200 200" style="enable-background:new 0 0 200 200;" xml:space="preserve">
<style type="text/css">
	.st0{fill:#6883D8;}
</style>
<g id="图层_1_1_">
	<path class="st0" d="M172.7,52.5l-67.8-38.8c-1.9-1-2.9-1-4.8-1s-2.9,0-4.8,1l-68,38.8c-2.9,1.9-4.8,4.8-4.8,8.7v77.5
		c0,3.9,1.9,6.8,4.8,8.7l67.8,38.8c1.9,0,2.9,1,4.8,1s2.9,0,4.8-1l67.8-38.8c2.9-1.9,4.8-4.8,4.8-8.7V61.2
		C177.5,57.4,175.6,54.5,172.7,52.5z M140.2,111.9l-37.7,46.6c-2.7,3.3-8,1.1-7.5-3.1l4.9-50.5H63.1c-3.4,0-5.4-3.8-3.5-6.6
		l38.3-56.5c2.5-3.6,8.2-1.6,7.8,2.8l-5.9,60.3h37C140.5,104.9,142.4,109.1,140.2,111.9z"/>
</g>
</svg>
