<?xml version="1.0" encoding="utf-8"?>
<!-- Generator: Adobe Illustrator 22.0.1, SVG Export Plug-In . SVG Version: 6.00 Build 0)  -->
<svg version="1.1" id="layer1" xmlns="http://www.w3.org/2000/svg" xmlns:xlink="http://www.w3.org/1999/xlink" x="0px" y="0px"
	 viewBox="0 0 200 200" enable-background="new 0 0 200 200" xml:space="preserve">
<g id="图层_2_1_">
	<path d="M172.2,55.2l-28.3-28.3C141,24,136.1,22,130.3,22H41.5C30.8,22,22,30.8,22,41.5v117c0,10.7,8.8,19.5,19.5,19.5h117
		c10.7,0,19.5-8.8,19.5-19.5V69.8C178,63.9,176.1,59,172.2,55.2z M61,51.2h68.3c5.8,0,9.8,3.9,9.8,9.8v15.5c0,5.8-3.9,9.7-9.8,9.7
		H61c-5.8,0-9.7-3.9-9.7-9.7V61C51.3,55.2,55.2,51.3,61,51.2z M51.3,151.5c-5.9,0-9.8-3.9-9.8-9.8v-22.3c0-5.8,3.9-9.8,9.8-9.8h97.5
		c5.8,0,9.8,3.9,9.8,9.8v22.3c0,5.8-3.9,9.8-9.8,9.8H51.3z"/>
	<path d="M104.9,78.5h9.8c2.9,0,4.9-2,4.9-4.9v-9.7c0-2.9-1.9-4.9-4.9-4.9h-9.8c-2.9,0-4.9,1.9-4.9,4.9v9.7
		C100,76.5,102,78.5,104.9,78.5z"/>
</g>
</svg>
