<?xml version="1.0" encoding="utf-8"?>
<!-- Generator: Adobe Illustrator 22.0.1, SVG Export Plug-In . SVG Version: 6.00 Build 0)  -->
<svg version="1.1" id="layer1" xmlns="http://www.w3.org/2000/svg" xmlns:xlink="http://www.w3.org/1999/xlink" x="0px" y="0px"
	 viewBox="0 0 200 200" style="enable-background:new 0 0 200 200;" xml:space="preserve">
<style type="text/css">
	.st0{fill:#0063F5;}
</style>
<g>
	<path class="st0" d="M67,83c-10.4,1.7-18.1,5.8-25,9.9L36.6,84H23.8l8.7,15.5c-6.5,5.1-12.7,11.1-20,17.6h12.1
		c11.6-13.3,24.1-24.9,42.5-33.7C68.5,82.7,68.7,82.7,67,83L67,83z M39.5,111.6l-2.9-5c1-0.9,2-1.8,3-2.7c2-1.7,4-3.4,6.1-5l9.1,15
		h-14L39.5,111.6z"/>
	<polygon class="st0" points="148.7,113.8 144.5,113.8 144.5,104.9 134.3,104.9 134.3,113.8 130,113.8 130,92.6 134.3,92.6 
		134.3,101.3 144.5,101.3 144.5,92.6 148.7,92.6 	"/>
	<path class="st0" d="M176.6,105.7c1.5,2.7,3,5.4,4.5,8.1s2.8,3.3,6.4,3.2c-1.5-2.8-2.9-5.4-4.5-8.1
		C181.5,106.2,180.2,105.6,176.6,105.7L176.6,105.7z"/>
	<path class="st0" d="M178.5,92.7h-7h-1.1c-1.5,0-1.8,1.4-1.8,1.8v15.2H157c-2.3,0-2-1.2-2-2v-2.6h11.3v-3.6H155v-3.6
		c0-1.5,1-1.3,2.1-1.3h9.2v-4h-11c-1.2,0-2.3,0.5-3.1,1.3l0,0l0,0l0,0c-0.8,0.8-1.3,1.9-1.3,3.1v12.4c0,1.2,0.5,2.3,1.3,3.1
		c0.8,0.8,1.9,1.3,3.1,1.3c5.6,0,11.2,0,16.8,0c0.4,0,0.6,0,0.6-0.4v-0.2v-8.3h4.6c1.6-0.1,2.9-0.2,4.2-1.2s2.6-2.7,2.6-4.8
		C184.1,95.6,181.7,92.9,178.5,92.7z M180.2,99c-0.1,1.4-1.1,2.3-2.7,2.4h-4.8v-5.2h3.7h0.5C179.2,96.3,180.3,97.6,180.2,99z"/>
	<path class="st0" d="M117,105.7c3.6-0.1,4.9,0.5,6.4,3.2c1.6,2.7,3,5.3,4.5,8.1c-3.6,0.1-4.9-0.5-6.4-3.2S118.5,108.4,117,105.7
		L117,105.7z"/>
	<polygon class="st0" points="112,101.4 128.2,101.4 128.2,105 112,105 	"/>
	<path class="st0" d="M81.4,105.7c1.5,2.7,3,5.4,4.5,8.1s2.8,3.3,6.4,3.2c-1.5-2.8-2.9-5.4-4.5-8.1C86.3,106.2,85,105.6,81.4,105.7
		L81.4,105.7z"/>
	<path class="st0" d="M83.4,92.7H75c-1.5,0-1.8,1.4-1.8,1.8v19.2h3.2h0.3c0.7,0,0.6-0.4,0.6-0.7v-8.1h4.9c1.6-0.1,2.9-0.2,4.2-1.2
		c1.3-1,2.6-2.7,2.6-4.8C88.9,95.6,86.6,92.9,83.4,92.7z M85,99c-0.1,1.4-1.1,2.3-2.7,2.4h-5.1v-5.2h4h0.6
		C84.1,96.3,85.1,97.6,85,99z"/>
	<path class="st0" d="M100.2,113.3c-5.7,0-10.3-4.6-10.3-10.3c0-5.7,4.6-10.3,10.3-10.3v3.6c-3.7,0-6.7,3-6.7,6.7s3,6.7,6.7,6.7
		V113.3L100.2,113.3z"/>
	<path class="st0" d="M100.2,92.7v3.6c3.7,0,6.7,3,6.7,6.7s-3,6.7-6.7,6.7v3.6c5.7,0,10.3-4.6,10.3-10.3
		C110.5,97.3,105.8,92.7,100.2,92.7L100.2,92.7z"/>
	<path class="st0" d="M68.5,102.7c1.4-0.5,2.8-1.9,2.7-4.5c-0.1-2.6-2.4-5.3-5.2-5.5H54.8c-0.7,0-1.2,0.4-1.2,1.2v13.4l4,6.4h8
		c1.7-0.2,2.7-0.5,4.2-2c0.4-0.4,0.7-0.8,1-1.2c0.6-0.9,0.8-1.9,0.8-3.1C71.7,105.3,70.8,104.1,68.5,102.7z M57.6,96.2H64
		c1.6,0,3.1,1.7,3,3.2c-0.1,1.3-1.1,2.1-3,2.1h-6.3v-5.3C57.7,96.2,57.6,96.2,57.6,96.2z M64.5,110.1h-6.8v-5.2h6.8
		c2.1,0,3.3,0.6,3.4,2.1C68,108.8,66.9,110.1,64.5,110.1z"/>
</g>
</svg>
