<?xml version="1.0" encoding="utf-8"?>
<svg version="1.1" xmlns:xlink="http://www.w3.org/1999/xlink" width="56px" height="56px" xmlns="http://www.w3.org/2000/svg">
  <g transform="matrix(1 0 0 1 -8 -696 )">
    <path d="M 10 724  A 26 26 0 0 1 36 698 A 26 26 0 0 1 62 724 A 26 26 0 0 1 36 750 A 26 26 0 0 1 10 724 Z " fill-rule="nonzero" fill="#24282b" stroke="none" />
    <path d="M 9 724  A 27 27 0 0 1 36 697 A 27 27 0 0 1 63 724 A 27 27 0 0 1 36 751 A 27 27 0 0 1 9 724 Z " stroke-width="2" stroke="#888888" fill="none" stroke-opacity="0.996078431372549" />
  </g>
</svg>