<?xml version="1.0" encoding="utf-8"?>
<svg version="1.1" xmlns:xlink="http://www.w3.org/1999/xlink" width="56px" height="56px" xmlns="http://www.w3.org/2000/svg">
  <g transform="matrix(1 0 0 1 -8 -696 )">
    <path d="M 9.5 724  A 26.5 26.5 0 0 1 36 697.5 A 26.5 26.5 0 0 1 62.5 724 A 26.5 26.5 0 0 1 36 750.5 A 26.5 26.5 0 0 1 9.5 724 Z " fill-rule="nonzero" fill="#007aff" stroke="none" />
    <path d="M 9 724  A 27 27 0 0 1 36 697 A 27 27 0 0 1 63 724 A 27 27 0 0 1 36 751 A 27 27 0 0 1 9 724 Z " stroke-width="2" stroke="#ffffff" fill="none" />
  </g>
</svg>