<?xml version="1.0" encoding="utf-8"?>
<svg version="1.1" xmlns:xlink="http://www.w3.org/1999/xlink" width="56px" height="56px" xmlns="http://www.w3.org/2000/svg">
  <g transform="matrix(1 0 0 1 -8 -656 )">
    <path d="M 9.5 684  A 26.5 26.5 0 0 1 36 657.5 A 26.5 26.5 0 0 1 62.5 684 A 26.5 26.5 0 0 1 36 710.5 A 26.5 26.5 0 0 1 9.5 684 Z " fill-rule="nonzero" fill="#007aff" stroke="none" />
    <path d="M 9 684  A 27 27 0 0 1 36 657 A 27 27 0 0 1 63 684 A 27 27 0 0 1 36 711 A 27 27 0 0 1 9 684 Z " stroke-width="2" stroke="#ffffff" fill="none" />
  </g>
</svg>