<?xml version="1.0" encoding="utf-8"?>
<!-- Generator: Adobe Illustrator 24.2.1, SVG Export Plug-In . SVG Version: 6.00 Build 0)  -->
<svg version="1.1" id="图层_2" xmlns="http://www.w3.org/2000/svg" xmlns:xlink="http://www.w3.org/1999/xlink" x="0px" y="0px"
	 viewBox="0 0 200 200" enable-background="new 0 0 200 200" xml:space="preserve">
<g>
	<path fill="#333333" d="M124.4,32.6H75.6c-5.5,0-10-4.5-10-10V20c0-5.5,4.5-10,10-10h48.8c5.5,0,10,4.5,10,10v2.6
		C134.4,28.1,129.9,32.6,124.4,32.6z"/>
	<path fill="#333333" d="M162,24.8h-18.5v5.9c0,7.6-6.2,13.8-13.8,13.8h-62c-7.6,0-13.8-6.2-13.8-13.8v-5.9H38
		c-7.6,0-13.8,6.2-13.8,13.8v137.7c0,7.6,6.2,13.8,13.8,13.8H162c7.6,0,13.8-6.2,13.8-13.8V38.5C175.7,30.9,169.6,24.8,162,24.8z
		 M61.6,67.1h63.9c3.8,0,7.6,2.5,7.6,7.6c0,3.8-2.5,7.6-7.6,7.6H60.3c-3.8,0-6.3-3.8-6.3-7.6S56.5,67.1,61.6,67.1z M123,165.3H60.3
		c-3.8,0-7.6-2.5-7.6-7.6c0-3.8,2.5-7.6,7.6-7.6H123c3.8,0,7.6,2.5,7.6,7.6C130.5,161.5,128,165.3,123,165.3z M144.1,123.7H60.3
		c-3.8,0-7.6-2.5-7.6-7.6c0-3.8,2.5-7.6,7.6-7.6h85c3.8,1.3,6.3,3.8,6.3,7.6C151.6,119.9,149.1,123.7,144.1,123.7z"/>
</g>
</svg>
