<?xml version="1.0" encoding="utf-8"?>
<!-- Generator: Adobe Illustrator 24.2.1, SVG Export Plug-In . SVG Version: 6.00 Build 0)  -->
<svg version="1.1" id="图层_2" xmlns="http://www.w3.org/2000/svg" xmlns:xlink="http://www.w3.org/1999/xlink" x="0px" y="0px"
	 viewBox="0 0 200 200" enable-background="new 0 0 200 200" xml:space="preserve">
<path fill="#333333" d="M160.6,140.8c-0.2,0-0.5,0-0.7,0l-27.3-39l26.2-28.1c0.6,0.1,1.2,0.1,1.8,0.1c10.7,0,19.4-8.7,19.4-19.3
	s-8.7-19.1-19.4-19.1c-10.7,0-19.4,8.7-19.4,19.3c0,5.6,2.5,10.6,6.4,14.1l-21.8,23.4l-8.7-12.4c1-2.4,1.6-5,1.6-7.7
	c0-10.7-8.7-19.1-19.4-19.1c-10.7,0-19.4,8.7-19.4,19.3c0,2.8,0.6,5.4,1.6,7.7l-5.8,7.5L51.7,54.7c4.3-3.6,7-8.9,7-14.9
	c0-10.7-9-19.3-19.4-19.3C28.7,20.5,20,29.2,20,39.8c0,10.7,8.7,19.3,19.4,19.3c0.4,0,0.9,0,1.3-0.1L68.5,97l-23,29.4
	c-1.9-0.7-4-1.1-6.2-1.1c-10.7,0-19.4,8.7-19.4,19.3c0,10.7,8.7,19.3,19.4,19.3s19.4-8.7,19.4-19.3c-0.1-4.3-1.6-8.2-4-11.4
	l20.8-26.7l7.9,10.8c-2.2,3.1-3.5,6.9-3.5,11c0,10.7,8.7,19.3,19.4,19.3c10.7,0,19.4-8.7,19.4-19.3c0-3.4-0.9-6.5-2.4-9.3l8.1-8.7
	l24.2,34.5c-4.5,3.5-7.5,9.1-7.5,15.2c0,10.7,8.7,19.3,19.4,19.3c10.7,0,19.4-8.7,19.4-19.3C180,149.5,171.3,140.8,160.6,140.8z
	 M108.1,111.2c-2.6-1.3-5.6-2.1-8.7-2.1c-2.4,0-4.7,0.4-6.8,1.2L83,97.2l6.6-8.4c2.9,1.7,6.3,2.7,9.9,2.7c3.6,0,7-1,9.9-2.7
	l8.5,12.1L108.1,111.2z"/>
</svg>
