<?xml version="1.0" encoding="utf-8"?>
<!-- Generator: Adobe Illustrator 22.0.1, SVG Export Plug-In . SVG Version: 6.00 Build 0)  -->
<svg version="1.1" id="图层_1" xmlns="http://www.w3.org/2000/svg" xmlns:xlink="http://www.w3.org/1999/xlink" x="0px" y="0px"
	 viewBox="0 0 200 200" enable-background="new 0 0 200 200" xml:space="preserve">
<g id="图层_2_1_">
	<g>
		<path d="M108,77.3V39c0-4.4-3.6-8-8-8s-8,3.6-8,8v38.3C82.1,80.7,75,90,75,101s7.1,20.3,17,23.7V161c0,4.4,3.6,8,8,8s8-3.6,8-8
			v-36.3c9.9-3.3,17-12.7,17-23.7S117.9,80.7,108,77.3z"/>
		<path d="M50.5,54.3V39c0-4.4-3.6-8-8-8s-8,3.6-8,8v15.3c-9.9,3.3-17,12.7-17,23.7s7.1,20.3,17,23.7V161c0,4.4,3.6,8,8,8s8-3.6,8-8
			v-59.3c9.9-3.3,17-12.7,17-23.7S60.4,57.7,50.5,54.3z"/>
		<path d="M182.5,124c0-11-7.1-20.3-17-23.7V39c0-4.4-3.6-8-8-8s-8,3.6-8,8v61.3c-9.9,3.3-17,12.7-17,23.7s7.1,20.3,17,23.7V161
			c0,4.4,3.6,8,8,8s8-3.6,8-8v-13.3C175.4,144.3,182.5,135,182.5,124z"/>
	</g>
</g>
</svg>
