<?xml version="1.0" encoding="utf-8"?>
<!-- Generator: Adobe Illustrator 22.0.1, SVG Export Plug-In . SVG Version: 6.00 Build 0)  -->
<svg version="1.1" id="图层_2_1_" xmlns="http://www.w3.org/2000/svg" xmlns:xlink="http://www.w3.org/1999/xlink" x="0px"
	 y="0px" viewBox="0 0 200 200" style="enable-background:new 0 0 200 200;" xml:space="preserve">
<style type="text/css">
	.st0{fill:#333333;}
</style>
<g>
	<path class="st0" d="M125.4,30c-0.1-3.2,2.4-5.9,5.6-6c3.2,0.1,5.6,2.8,5.5,6l0,0v5.9h21.2c6.5,0.3,11.5,5.8,11.1,12.3
		c0,0.1,0,0.3,0,0.4v40.9c0.1,3.2-2.3,5.9-5.5,6.1c-3.2-0.1-5.7-2.8-5.6-6l0,0v-6.9H42.9c-0.5,0.1-1.1,0.1-1.7,0v81.1h43.7
		c3.2,0.1,5.7,2.8,5.6,6c0.1,3.2-2.4,5.9-5.6,6.1H41.2c-6.4-0.3-11.4-5.7-11.1-12.1l0,0V48.9c-0.8-6.4,3.8-12.2,10.1-12.9
		c0.3,0,0.7-0.1,1-0.1h22.2V30c-0.1-3.2,2.3-5.9,5.5-6l0,0c3.2,0.1,5.7,2.8,5.6,6v5.9h51.1L125.4,30z M64.7,130.7h20.2
		c3.1,0.3,5.4,3,5.4,6.1c0.1,3.2-2.3,5.9-5.5,6l0,0h-20c-3.2-0.1-5.6-2.8-5.5-6l0,0C59,133.6,61.5,130.9,64.7,130.7z M90.2,114.5
		H64.7c-3.5,0-6.4-2.9-6.4-6.4s2.9-6.4,6.4-6.4h25.5c3.2,0.1,5.7,3.2,5.6,6.4c0.1,3.2-2.2,6.1-5.4,6.4H90.2z M63.4,53.9V48H41.2
		v22.9h1.7h114.9V48h-21.2v5.9c0.1,3.2-2.3,5.9-5.5,6.1c-3.2-0.2-5.7-2.9-5.6-6.1V48H74.4v5.9c0.1,3.2-2.4,5.9-5.6,6.1
		C65.6,59.7,63.3,57,63.4,53.9z"/>
	<path class="st0" d="M93.4,137.7c0-21.2,17.1-38.3,38.3-38.3s38.3,17.1,38.3,38.3S152.9,176,131.7,176S93.4,158.9,93.4,137.7z
		 M158.6,137.7c0-15.2-12.3-27.6-27.6-27.6c-15.2,0-27.6,12.3-27.6,27.6c0,15.2,12.3,27.6,27.6,27.6h0.1
		C146.4,165.2,158.6,152.9,158.6,137.7z M125.4,121.6c0-2.8,2.3-5.1,5.1-5.1c2.7-0.1,5,2.1,5.1,4.8v0.1l0,0v12.8h5.6
		c2.8,0,5,2.2,5.1,5l0,0c0.1,2.7-2.1,5-4.8,5.1h-0.1h-10.7c-1.4,0-2.7-0.5-3.7-1.5c-0.9-0.9-1.4-2.2-1.5-3.4l0,0v-17.8H125.4z"/>
</g>
</svg>
