<?xml version="1.0" encoding="utf-8"?>
<!-- Generator: Adobe Illustrator 24.2.1, SVG Export Plug-In . SVG Version: 6.00 Build 0)  -->
<svg version="1.1" id="图层_2" xmlns="http://www.w3.org/2000/svg" xmlns:xlink="http://www.w3.org/1999/xlink" x="0px" y="0px"
	 viewBox="0 0 200 200" enable-background="new 0 0 200 200" xml:space="preserve">
<g>
	<path fill="#333333" d="M155.7,129.8h-31.8c-2.2,0-4,1.8-4,4v1.9c0,2.2,1.8,4,4,4h31.8c2.2,0,4-1.8,4-4v-1.9
		C159.7,131.6,157.9,129.8,155.7,129.8z"/>
	<path fill="#333333" d="M135.8,149.7h-11.9c-2.2,0-4,1.8-4,4v1.9c0,2.2,1.8,4,4,4h11.9c2.2,0,4-1.8,4-4v-1.9
		C139.8,151.5,138,149.7,135.8,149.7z"/>
	<path fill="#333333" d="M100,94.1v81.5c0,2.2,1.8,4,4,4h71.6c2.2,0,4-1.8,4-4V94.1c0-2.2-1.8-4-4-4H104
		C101.8,90.1,100,91.8,100,94.1z M165.6,169.6h-51.7c-2.2,0-4-1.8-4-4V104c0-2.2,1.8-4,4-4h51.7c2.2,0,4,1.8,4,4v61.6
		C169.6,167.8,167.8,169.6,165.6,169.6z"/>
	<path fill="#333333" d="M155.7,109.9h-31.8c-2.2,0-4,1.8-4,4v1.9c0,2.2,1.8,4,4,4h31.8c2.2,0,4-1.8,4-4v-1.9
		C159.7,111.7,157.9,109.9,155.7,109.9z"/>
	<path fill="#333333" d="M136.9,80.1c1.7-4.7,2.7-9.7,2.7-14.9c0-25.4-21.1-45.8-46.7-44.7c-22.8,0.9-41.5,19.3-42.8,42.1
		c-0.9,14.8,5.6,28.1,16.2,36.7c2.4,1.9,1.9,5.6-0.9,6.8c-23.8,10.2-41.2,32.4-44.6,59.1c-0.3,2.4,1.6,4.5,4,4.5l0.8,0l4.8,0l0,0
		h55.7c2.2,0,4-1.8,4-4V84.1c0-2.2,1.8-4,4-4H136.9z"/>
</g>
</svg>
