<?xml version="1.0" encoding="utf-8"?>
<!-- Generator: Adobe Illustrator 24.2.1, SVG Export Plug-In . SVG Version: 6.00 Build 0)  -->
<svg version="1.1" id="图层_2" xmlns="http://www.w3.org/2000/svg" xmlns:xlink="http://www.w3.org/1999/xlink" x="0px" y="0px"
	 viewBox="0 0 200 200" enable-background="new 0 0 200 200" xml:space="preserve">
<g>
	<path fill="#333333" d="M100,43.1c-49.2,0-88.8,44.7-89,56.9c-0.2,11.8,39.8,56.9,89,56.9s88.8-45.1,89-56.9
		C189.2,87.7,149.2,43.1,100,43.1z M169.9,108.5c-3.3,3.9-8.9,9.9-17.3,16.2c-7.8,5.9-16,10.5-24.4,13.8c-9.5,3.8-19,5.7-28.3,5.7
		c-9.2,0-18.7-1.9-28.2-5.6c-8.4-3.3-16.6-7.9-24.4-13.8c-8.4-6.3-14-12.2-17.3-16.1c-3.4-4.1-5.2-7.1-6-8.7
		c0.8-1.6,2.5-4.6,5.9-8.7c5.9-7.1,12.6-12.7,17.2-16.1c7.8-5.8,16-10.5,24.4-13.8c9.6-3.8,19.1-5.7,28.4-5.7
		c9.3,0,18.8,1.9,28.3,5.6c8.4,3.3,16.6,7.9,24.4,13.7c8.4,6.2,14,12.2,17.2,16.1c3.4,4.1,5.2,7.1,5.9,8.7
		C175.2,101.4,173.4,104.4,169.9,108.5z"/>
	<path fill="#333333" d="M100.2,62C79.1,62,62,79.1,62,100.1c0,0,0,0,0,0c0,21.1,17.1,38.2,38.2,38.2c21.1,0,38.2-17.1,38.2-38.2
		C138.3,79.1,121.3,62,100.2,62z"/>
</g>
</svg>
