<?xml version="1.0" encoding="utf-8"?>
<!-- Generator: Adobe Illustrator 24.2.1, SVG Export Plug-In . SVG Version: 6.00 Build 0)  -->
<svg version="1.1" id="图层_2" xmlns="http://www.w3.org/2000/svg" xmlns:xlink="http://www.w3.org/1999/xlink" x="0px" y="0px"
	 viewBox="0 0 200 200" enable-background="new 0 0 200 200" xml:space="preserve">
<g>
	<path fill="#333333" d="M100,21.2c43.4,0,78.8,35.3,78.8,78.7c0,43.4-35.3,78.8-78.8,78.8S21.2,143.4,21.2,100
		C21.2,56.6,56.6,21.2,100,21.2 M100,10c-49.7,0-90,40.3-90,90c0,49.7,40.3,90,90,90s90-40.3,90-90C190,50.3,149.7,10,100,10L100,10
		z"/>
	<path fill="#333333" d="M137.5,104.3c-2.6,2.2-45.9,37.5-49,40c-2.3,1.8-5.3-0.2-5.3-4.3c0-4.2,0-77.1,0-80c0-3.7,2.7-6.5,5.4-4.3
		c2.2,1.7,45.2,36.9,48.9,39.9C139.9,97.6,139.9,102.4,137.5,104.3z"/>
</g>
</svg>
