<svg xmlns="http://www.w3.org/2000/svg" viewBox="0 0 200 200"><defs><style>.cls-1{fill:#333;}</style></defs><g id="图层_1" data-name="图层 1"><path class="cls-1" d="M178.27,168.84H134.48a2.71,2.71,0,0,0-2.73,2.7v6.76a2.71,2.71,0,0,0,2.73,2.7h43.79a2.71,2.71,0,0,0,2.73-2.7v-6.76A2.71,2.71,0,0,0,178.27,168.84Z"/><path class="cls-1" d="M163.29,57.51c-1.19-3-3.49-4-7.84-3.92H139.38V29.86q0-8-8.15-8H115.34a9,9,0,0,0-8.14,8V53.59H89.86a8.34,8.34,0,0,0-3.87.93,6.62,6.62,0,0,0-2.82,3,7,7,0,0,0-.84,4,6.34,6.34,0,0,0,2.09,3.82l33.43,34.46a16.17,16.17,0,0,0,2.56,2.22,8.09,8.09,0,0,0,6,.68,8.71,8.71,0,0,0,2.29-1.65l33.43-35.69q2.94-3.33,1.16-7.87Z"/><path class="cls-1" d="M21.73,31.16H65.52a2.71,2.71,0,0,0,2.73-2.7V21.7A2.71,2.71,0,0,0,65.52,19H21.73A2.71,2.71,0,0,0,19,21.7v6.76A2.71,2.71,0,0,0,21.73,31.16Z"/><path class="cls-1" d="M175.66,138.48a29.24,29.24,0,0,0-29.39-28.22H79.84A16.6,16.6,0,0,1,63.18,93.81V39.28H24.07v79.87l.09,3a29.23,29.23,0,0,0,29.38,28.22h75.24a8.17,8.17,0,0,1,8.22,8.12v2.18h38.74V141.48Z"/></g></svg>