<?xml version="1.0" encoding="utf-8"?>
<!-- Generator: Adobe Illustrator 24.2.1, SVG Export Plug-In . SVG Version: 6.00 Build 0)  -->
<svg version="1.1" id="图层_2" xmlns="http://www.w3.org/2000/svg" xmlns:xlink="http://www.w3.org/1999/xlink" x="0px" y="0px"
	 viewBox="0 0 200 200" enable-background="new 0 0 200 200" xml:space="preserve">
<g>
	<path fill="#333333" d="M53.1,53.9c-11.7,0-21.5,4-29.1,11.8l0,0c-7.6,7.8-11.5,18.1-11.5,30.7c0,11.7,3.4,21.3,10.3,28.6
		c6.8,7.3,16,11,27.3,11c8.6,0,15.9-1.6,21.8-4.7l0.2-0.1c0.7-0.3,1.1-1,1.1-1.8v-9.5c0-1.6-1.7-2.5-3-1.7l-0.7,0.4
		c-5.1,3.1-11.2,4.7-18.2,4.7c-7.5,0-13.3-2.4-17.8-7.3c-4.5-4.9-6.8-11.7-6.8-20.1c0-8.9,2.5-16.1,7.4-21.3
		c4.9-5.3,11.2-7.8,19.1-7.8c6,0,11.6,1.4,16.5,4.2l0.6,0.4c1.3,0.7,3-0.2,3-1.7V59.1c0-0.8-0.5-1.5-1.2-1.8l-0.3-0.1
		C66.7,55,60.5,53.9,53.1,53.9z"/>
	<path fill="#333333" d="M97.1,100.7h27V87.9h-27v-20h27.2c1.1,0,2-0.9,2-2v-8.8c0-1.1-0.9-2-2-2H85.5c-1.1,0-2,0.9-2,2v75.7
		c0,1.1,0.9,2,2,2H126c1.1,0,2-0.9,2-2V124c0-1.1-0.9-2-2-2H97.1V100.7z"/>
	<path fill="#333333" d="M180.7,61.6L180.7,61.6c-4.8-4.3-11.6-6.5-20.2-6.5h-21c-1.1,0-2,0.9-2,2v75.7c0,1.1,0.9,2,2,2h9.6
		c1.1,0,2-0.9,2-2v-26.3h7.4c8.9,0,16.1-2.5,21.4-7.4c5.4-5,8.1-11.4,8.1-19.2C188.2,72.1,185.7,65.9,180.7,61.6z M151.2,67.9h7.8
		c13.5,0,15.1,7.1,15.1,12.4c0,4.3-1.3,7.6-3.9,9.9c-2.7,2.4-6.8,3.5-12.3,3.5h-6.7V67.9z"/>
</g>
</svg>
