<?xml version="1.0" encoding="utf-8"?>
<!-- Generator: Adobe Illustrator 24.2.1, SVG Export Plug-In . SVG Version: 6.00 Build 0)  -->
<svg version="1.1" id="图层_2" xmlns="http://www.w3.org/2000/svg" xmlns:xlink="http://www.w3.org/1999/xlink" x="0px" y="0px"
	 viewBox="0 0 200 200" enable-background="new 0 0 200 200" xml:space="preserve">
<g>
	<path fill="#333333" d="M36.5,177V168h4.1c3.7,0,7.1-0.2,10.3-0.5c3.2-0.4,4.7-0.8,7-2.1c2.7-1.5,3.9-2.5,5.3-4.5
		c1.4-2,2.8-4.5,3.8-8.3L96.3,47.5c0-3.4-0.7-6.1-2-8.1c-1.4-2-3.2-3.6-5.6-4.7c-2.4-1.1-5.2-1.8-8.4-2.2C77.1,32.2,73.7,32,70,32
		h-4.1V23h93.4V32h-4.2c-3.5,0-7,0.1-10.2,0.5c-7.6,0.9-13.6,8.7-16.1,15L99.3,152.5c0,3.4,0.7,6.1,2.1,8.1c1.4,2,3.3,3.6,5.6,4.7
		c2.3,1.1,5.1,1.8,8.4,2.2c3.2,0.3,6.6,0.5,10.2,0.5h4.2v9.1H36.5z"/>
</g>
</svg>
