<svg id="图层_2" data-name="图层 2" xmlns="http://www.w3.org/2000/svg" viewBox="0 0 200 200"><defs><style>.cls-1{fill:#007aff;}</style></defs><g id="图层_1" data-name="图层 1"><path class="cls-1" d="M27.76,85.31l-13.47,50.2V38.78a8.37,8.37,0,0,1,8.57-8.58H65.71a9.41,9.41,0,0,1,6.13,2.45L90.2,51h66.13a8.37,8.37,0,0,1,8.57,8.57V71.84H42.45A20.17,20.17,0,0,0,27.76,85.31Zm155.51,2.45c-1.23-2.45-4.9-3.68-7.35-3.68H45.82a9.21,9.21,0,0,0-8.57,6.12L18.88,158.78c-1.22,4.89,1.23,9.79,6.12,11H158.78a9.21,9.21,0,0,0,8.57-6.13L185.71,95.1C185.71,92.65,185.71,90.2,183.27,87.76Z"/></g></svg>