<?xml version="1.0" encoding="utf-8"?>
<!-- Generator: Adobe Illustrator 24.2.1, SVG Export Plug-In . SVG Version: 6.00 Build 0)  -->
<svg version="1.1" id="图层_2" xmlns="http://www.w3.org/2000/svg" xmlns:xlink="http://www.w3.org/1999/xlink" x="0px" y="0px"
	 viewBox="0 0 200 200" enable-background="new 0 0 200 200" xml:space="preserve">
<path fill="#333333" d="M189.2,103c-5.8-34.9-30.8-34.9-48.3-34c-1.6-4.6-7.4-40.5-50.5-34.9C59.7,36,54,64.9,54,78.9
	c-10.4,0-40.8,0-43.4,31.1c-2.4,32.4,20.2,42.2,40.7,44.4h93.3C153,153.6,193.8,148,189.2,103L189.2,103L189.2,103L189.2,103z
	 M121.4,85.1c3.8,0,7,2.9,7,6.5c0,3.6-3.1,6.5-7,6.5h-48c-3.8,0-7-2.9-7-6.5c0-3.6,3.1-6.5,7-6.5L121.4,85.1z M74,133.5
	c-3.8,0-7-2.9-7-6.5c0-3.6,3.1-6.5,7-6.5h48c3.8,0,7,2.9,7,6.5c0,3.6-3.1,6.5-7,6.5L74,133.5L74,133.5z M122,115.5H74
	c-3.8,0-7-2.9-7-6.5c0-3.6,3.1-6.5,7-6.5h48c3.8,0,7,2.9,7,6.5C128.9,112.6,125.8,115.5,122,115.5L122,115.5L122,115.5z
	 M116.4,112.5c1.9,0,3.4-1.5,3.4-3.4c0-1.9-1.5-3.4-3.4-3.4s-3.4,1.5-3.4,3.4C113,111,114.5,112.5,116.4,112.5L116.4,112.5
	L116.4,112.5z M116.4,130.5c1.9,0,3.4-1.5,3.4-3.4c0-1.9-1.5-3.4-3.4-3.4s-3.4,1.5-3.4,3.4S114.5,130.5,116.4,130.5L116.4,130.5
	L116.4,130.5z M116.4,95.1c1.9,0,3.4-1.5,3.4-3.4s-1.5-3.4-3.4-3.4s-3.4,1.5-3.4,3.4C113,93.6,114.6,95.1,116.4,95.1L116.4,95.1
	L116.4,95.1z"/>
</svg>
