<?xml version="1.0" encoding="utf-8"?>
<!-- Generator: Adobe Illustrator 22.0.1, SVG Export Plug-In . SVG Version: 6.00 Build 0)  -->
<svg version="1.1" id="图层_1" xmlns="http://www.w3.org/2000/svg" xmlns:xlink="http://www.w3.org/1999/xlink" x="0px" y="0px"
	 viewBox="0 0 200 200" enable-background="new 0 0 200 200" xml:space="preserve">
<path fill="#6883D8" d="M169.6,20.6H30.4l0,0c-5.5,0-9.9,4.4-9.9,9.9v139.1l0,0c0,5.5,4.4,9.9,9.9,9.9h139.1c5.5,0,9.9-4.4,9.9-9.9
	V30.5C179.5,25.1,175,20.6,169.6,20.6z M63.9,142.1c0,5.4-4.3,9.7-9.7,9.7s-9.7-4.3-9.7-9.7v-17.7c0-5.4,4.3-9.7,9.7-9.7
	s9.7,4.3,9.7,9.7V142.1z M54.4,95.1c-5.5,0-9.9-4.4-9.9-9.9s4.4-9.9,9.9-9.9s9.9,4.4,9.9,9.9C64.4,90.7,59.9,95.1,54.4,95.1z
	 M54.4,64.1c-5.5,0-9.9-4.4-9.9-9.9s4.4-9.9,9.9-9.9s9.9,4.4,9.9,9.9C64.4,59.7,59.9,64.1,54.4,64.1z M108.7,152.9
	c0,4.8-3.9,8.7-8.7,8.7s-8.7-3.9-8.7-8.7V47.3c0-4.8,3.9-8.7,8.7-8.7s8.7,3.9,8.7,8.7V152.9z M155.5,142.1c0,5.4-4.3,9.7-9.7,9.7
	s-9.7-4.3-9.7-9.7v-17.7c0-5.4,4.3-9.7,9.7-9.7s9.7,4.3,9.7,9.7V142.1z M145.6,95.1c-5.5,0-9.9-4.4-9.9-9.9s4.4-9.9,9.9-9.9
	s9.9,4.4,9.9,9.9S151.1,95.1,145.6,95.1z M145.6,64.1c-5.5,0-9.9-4.4-9.9-9.9s4.4-9.9,9.9-9.9s9.9,4.4,9.9,9.9
	S151.1,64.1,145.6,64.1z"/>
</svg>
