<svg id="图层_1" data-name="图层 1" xmlns="http://www.w3.org/2000/svg" viewBox="0 0 200 200"><rect x="82.52" y="47.4" width="5.12" height="66.14"/><polygon points="118.08 46.65 107.48 46.65 107.48 62.62 112.85 57.25 118.08 62.48 118.08 46.65"/><path d="M166.8,13H33.2A23.27,23.27,0,0,0,10,36.16V127a23.27,23.27,0,0,0,23.2,23.2H77.47L53.88,192.08h92.24l-22.54-41.92H166.8A23.27,23.27,0,0,0,190,127V36.16A23.27,23.27,0,0,0,166.8,13ZM132,115.29a5.41,5.41,0,0,1-5.37,5.37H73.42a5.41,5.41,0,0,1-5.37-5.37V46a5.3,5.3,0,0,1,5.24-5.37h53.29A5.33,5.33,0,0,1,132,46Z"/></svg>