<?xml version="1.0" encoding="utf-8"?>
<!-- Generator: Adobe Illustrator 24.2.1, SVG Export Plug-In . SVG Version: 6.00 Build 0)  -->
<svg version="1.1" id="图层_2" xmlns="http://www.w3.org/2000/svg" xmlns:xlink="http://www.w3.org/1999/xlink" x="0px" y="0px"
	 viewBox="0 0 200 200" enable-background="new 0 0 200 200" xml:space="preserve">
<path fill="#333333" d="M178.1,54.8l-37.4-33.5c-0.9-0.8-2.1-1.3-3.2-1.3H62.6c-1.2,0-2.4,0.5-3.2,1.3L21.9,54.8
	c-1.1,0.9-1.7,2.3-1.7,3.6v116.7c0,2.8,2.2,4.9,4.9,4.9h149.7c2.7,0,4.9-2.2,4.9-4.9V58.4C179.8,57,179.2,55.6,178.1,54.8z
	 M150.4,157.2c-0.2,0-0.5,0-0.7,0h-26.3c-3.5,0.2-6.6-2.5-6.7-6.1c0-0.2,0-0.5,0-0.7v-6.7H83.3v6.7c0.2,3.5-2.5,6.6-6.1,6.7
	c-0.2,0-0.5,0-0.7,0H50.3c-3.5,0.2-6.6-2.5-6.7-6.1c0-0.2,0-0.5,0-0.7c0.3-0.3,0.3-19.9,0.3-19.9c-0.2-3.5,2.5-6.6,6.1-6.7
	c0.2,0,0.5,0,0.7,0h26.3c3.5-0.2,6.6,2.5,6.7,6.1c0,0.2,0,0.5,0,0.7v6.7h33.1v-6.7c-0.2-3.5,2.5-6.6,6.1-6.7c0.2,0,0.5,0,0.7,0h26.3
	c3.5-0.2,6.6,2.5,6.7,6.1c0,0.2,0,0.5,0,0.7v19.9C156.7,154,154,157.1,150.4,157.2z M103.9,111c-0.2,0-0.5,0-0.7,0H57
	c-3.5,0.2-6.6-2.5-6.7-6.1c0-0.2,0-0.5,0-0.7V84.4c-0.2-3.5,2.5-6.6,6.1-6.7c0.2,0,0.5,0,0.7,0h46.2c3.5-0.2,6.6,2.5,6.7,6.1
	c0,0.2,0,0.5,0,0.7v19.9C110.1,107.8,107.4,110.9,103.9,111z M119.4,97.6c-1.7,0.2-3.2-1-3.4-2.7c0-0.2,0-0.5,0-0.7
	c0-1.9,1.5-3.4,3.4-3.4h19.9c1.7-0.2,3.2,1,3.4,2.7c0,0.2,0,0.5,0,0.7v19.9c0,1.9-1.5,3.4-3.4,3.4c-1.9,0-3.4-1.5-3.4-3.4V97.6
	H119.4z M33.4,57.7l31-27.8h71.1l31,27.8H33.4z"/>
</svg>
