<?xml version="1.0" encoding="utf-8"?>
<!-- Generator: Adobe Illustrator 24.2.1, SVG Export Plug-In . SVG Version: 6.00 Build 0)  -->
<svg version="1.1" id="图层_2" xmlns="http://www.w3.org/2000/svg" xmlns:xlink="http://www.w3.org/1999/xlink" x="0px" y="0px"
	 viewBox="0 0 200 200" enable-background="new 0 0 200 200" xml:space="preserve">
<path fill="#333333" d="M28,62.9h127.2c5.3,0,9.6-4.3,9.6-9.6V30.1c0-5.3-4.3-9.6-9.6-9.6H28c-5.3,0-9.6,4.3-9.6,9.6v23.2
	C18.4,58.6,22.7,62.9,28,62.9z M48.6,47V36.4c0-2.3,1.9-4.2,4.2-4.2s4.2,1.9,4.2,4.2V47c0,2.3-1.9,4.2-4.2,4.2
	C50.5,51.3,48.6,49.4,48.6,47C48.6,47,48.6,47,48.6,47z M31.6,47V36.4c0-2.3,1.9-4.2,4.2-4.2c2.3,0,4.2,1.9,4.2,4.2V47
	c0,2.3-1.9,4.2-4.2,4.2C33.5,51.3,31.6,49.4,31.6,47C31.6,47,31.6,47,31.6,47z M28,115.9h56.2c8.1-20.9,28.3-35.7,52-35.7
	c10.4,0,20.2,2.9,28.6,7.9v-5c0-5.3-4.3-9.6-9.6-9.6H28c-5.3,0-9.6,4.3-9.6,9.6v23.2C18.4,111.6,22.7,115.9,28,115.9z M48.6,100
	V89.4c0-2.3,1.9-4.2,4.2-4.2s4.2,1.9,4.2,4.2V100c0,2.3-1.9,4.2-4.2,4.2C50.5,104.2,48.6,102.3,48.6,100C48.6,100,48.6,100,48.6,100
	z M31.6,100V89.4c0-2.3,1.9-4.2,4.2-4.2s4.2,1.9,4.2,4.2V100c0,2.3-1.9,4.2-4.2,4.2C33.5,104.2,31.6,102.3,31.6,100
	C31.6,100,31.6,100,31.6,100z M81.7,126.5H28c-5.3,0-9.6,4.3-9.6,9.6v23.2c0,5.3,4.3,9.6,9.6,9.6h63.6c-6.8-9.2-10.8-20.6-10.8-32.9
	C80.9,132.7,81.1,129.6,81.7,126.5z M40.1,153c0,2.3-1.9,4.2-4.2,4.2c-2.3,0-4.2-1.9-4.2-4.2c0,0,0,0,0,0v-10.6
	c0-2.3,1.9-4.2,4.2-4.2s4.2,1.9,4.2,4.2V153z M57.1,153c0,2.3-1.9,4.2-4.2,4.2c-2.3,0-4.2-1.9-4.2-4.2c0,0,0,0,0,0v-10.6
	c0-2.3,1.9-4.2,4.2-4.2s4.2,1.9,4.2,4.2V153z M138.1,92.5c-24,0-43.5,19.5-43.5,43.5c0,24,19.5,43.5,43.5,43.5
	c24,0,43.5-19.5,43.5-43.5C181.6,112,162.1,92.5,138.1,92.5z M138.1,162.1c-2.5,0-4.4-2-4.4-4.4c0-2.5,2-4.4,4.4-4.4
	c2.5,0,4.4,2,4.4,4.4C142.5,160.1,140.6,162.1,138.1,162.1z M142,144.1c0,1.7-1.7,3-3.7,3h-0.7c-2,0-3.7-1.3-3.7-3l-1-31.7
	c-0.1-2.5,2-4.7,4.6-4.7h0.9c2.6,0,4.7,2.1,4.6,4.7L142,144.1z"/>
</svg>
