<svg id="图层_2" data-name="图层 2" xmlns="http://www.w3.org/2000/svg" viewBox="0 0 200 200"><defs><style>.cls-1{fill:#007aff;}</style></defs><path class="cls-1" d="M164.41,35.58A90.57,90.57,0,0,0,100,9,91.11,91.11,0,0,0,35.57,164.42c16.32,16.75,39.51,26.63,64.42,26.63a90.85,90.85,0,0,0,64.42-26.63C181.16,148.1,191,125.34,191,100A87.42,87.42,0,0,0,164.41,35.58Zm-9.88,119A77.24,77.24,0,0,1,100,177.3a75.5,75.5,0,0,1-54.54-22.76A77.25,77.25,0,0,1,22.69,100,75.5,75.5,0,0,1,45.45,45.46C59.62,31.72,79,22.7,100,22.7A76.66,76.66,0,0,1,154.11,45l.42.43A77.22,77.22,0,0,1,177.3,100,75.47,75.47,0,0,1,154.53,154.54Z"/><path class="cls-1" d="M145.36,90.66h-36v-36a9.34,9.34,0,1,0-18.68,0v36h-36a9.34,9.34,0,0,0,0,18.68h36v36a9.34,9.34,0,1,0,18.68,0v-36h36a9.34,9.34,0,0,0,0-18.68Z"/></svg>