<svg id="图层_1" data-name="图层 1" xmlns="http://www.w3.org/2000/svg" viewBox="0 0 24 24"><defs><style>.cls-1{fill:#c661c9;}</style></defs><title>补充图标</title><g id="图层_3" data-name="图层 3"><path class="cls-1" d="M12,5.23a81,81,0,0,0,4.3,7h0l.05.1A5.89,5.89,0,0,1,17,15.05a5.25,5.25,0,0,1-5,5.45,5.25,5.25,0,0,1-5-5.45,5.75,5.75,0,0,1,.65-2.67l.13-.21C9.68,9.23,11.09,6.9,12,5.23M12,2.5a16.28,16.28,0,0,1-.74,2c-1.54,2.91-4.47,7.38-4.48,7.4A6.82,6.82,0,0,0,6,15.05a6.24,6.24,0,0,0,6,6.45,6.24,6.24,0,0,0,6-6.45,6.87,6.87,0,0,0-.76-3.15.4.4,0,0,0-.07-.13,79.58,79.58,0,0,1-4.43-7.29,20.59,20.59,0,0,1-.74-2Z"/><path class="cls-1" d="M11,11a8.11,8.11,0,0,0-2.64,4.61,4.6,4.6,0,0,0,0,1.05,2.24,2.24,0,0,0,.27.47c.3.38.86.77,1.69.07a1,1,0,0,0,.25-.71C10.6,16,9,14,11,11Z"/></g></svg>