<?xml version="1.0" encoding="utf-8"?>
<!-- Generator: Adobe Illustrator 22.0.1, SVG Export Plug-In . SVG Version: 6.00 Build 0)  -->
<svg version="1.1" id="图层_1" xmlns="http://www.w3.org/2000/svg" xmlns:xlink="http://www.w3.org/1999/xlink" x="0px" y="0px"
	 viewBox="0 0 200 200" enable-background="new 0 0 200 200" xml:space="preserve">
<g id="图层_1_1_">
	<g>
		<g>
			<path fill="#7DA4EC" d="M100,68.7c7.4,0,13.4-6,13.4-13.4s-6-13.4-13.4-13.4s-13.4,6-13.4,13.4S92.6,68.7,100,68.7z M100,86.6
				c-7.4,0-13.4,6-13.4,13.4s6,13.4,13.4,13.4s13.4-6,13.4-13.4S107.4,86.6,100,86.6z M100,131.3c-7.4,0-13.4,6-13.4,13.4
				s6,13.4,13.4,13.4s13.4-6,13.4-13.4S107.4,131.3,100,131.3z"/>
		</g>
	</g>
</g>
</svg>
