<svg id="图层_1" data-name="图层 1" xmlns="http://www.w3.org/2000/svg" viewBox="0 0 200 200"><path d="M154,18c1.74,0,3.47.08,5.2.25a10.56,10.56,0,0,1,9.6,10.54V147.71a10.58,10.58,0,0,1-10.2,10.57q-15.39.57-26.09,4.13c-9.33,3.12-18.43,8.79-27.22,17V46.44A56.53,56.53,0,0,1,154,18Zm25.41,132.18V41.72a10.52,10.52,0,0,1,7.48,3.11,10.66,10.66,0,0,1,3.1,7.48V160c0,8.41-5.26,22-21.17,20.64-11.21-.94-11.93-1.35-21.39-1.18-9.25.16-22.22-.17-33.81,2.56,6.49-5.43,16-9.26,22.28-10.59s14.11-1.93,23.32-2.28C170.93,168.68,179.42,159.89,179.42,150.21ZM46,18A55.8,55.8,0,0,1,67.5,22.41a55.47,55.47,0,0,1,27.22,24v133c-8.79-8.21-17.89-13.88-27.22-17-7.12-2.36-15.81-3.75-26.09-4.11a10.57,10.57,0,0,1-10.18-10.59V28.82a10.56,10.56,0,0,1,9.6-10.52A46.92,46.92,0,0,1,46,18ZM20.6,150.21c0,8.73,6.46,18.39,20.41,18.89,9.23.35,15,1.35,23.12,2.28s16,5.18,22.44,10.59c-11.59-2.73-23.59-2.56-34-2.56-8.18,0-9.62,1.18-21.39,1.18C17.3,180.59,10,168,10,160V52.29A10.59,10.59,0,0,1,20.58,41.7V150.21Z"/></svg>