<?xml version="1.0" encoding="utf-8"?>
<!-- Generator: Adobe Illustrator 24.2.1, SVG Export Plug-In . SVG Version: 6.00 Build 0)  -->
<svg version="1.1" id="图层_2" xmlns="http://www.w3.org/2000/svg" xmlns:xlink="http://www.w3.org/1999/xlink" x="0px" y="0px"
	 viewBox="0 0 200 200" enable-background="new 0 0 200 200" xml:space="preserve">
<g>
	<text transform="matrix(1 0 0 1 79.977 26.5403)" fill="#FFFFFF" font-family="'MicrosoftYaHei'" font-size="14px">灯带展示</text>
</g>
<g>
	<path fill="#333333" d="M75,141.3h-5.8c-4.1,0-7.5-3.4-7.5-7.5s3.4-7.5,7.5-7.5h4.7c0.4-7.8,2.3-15.5,5.7-22.6H69.2
		c-4.1,0-7.5-3.4-7.5-7.5s3.4-7.5,7.5-7.5h20.6c0.5-0.6,1.1-1.2,1.6-1.7c17.5-17.5,43.1-22,64.7-13.4V40.1c0-9.7-7.9-17.6-17.6-17.6
		H35.5c-9.7,0-17.6,7.9-17.6,17.6V153c0,9.7,7.9,17.6,17.6,17.6H90C82.1,162.1,77.1,151.9,75,141.3z M61.7,58.5
		c0-4.1,3.4-7.5,7.5-7.5h61.9c4.1,0,7.5,3.4,7.5,7.5v0c0,4.1-3.4,7.5-7.5,7.5H69.2C65,66,61.7,62.7,61.7,58.5L61.7,58.5z
		 M50.5,134.4c0,3.8-3.1,6.9-6.9,6.9h-1.2c-3.8,0-6.9-3.1-6.9-6.9v-1.2c0-3.8,3.1-6.9,6.9-6.9h1.2c3.8,0,6.9,3.1,6.9,6.9V134.4z
		 M50.5,96.8c0,3.8-3.1,6.9-6.9,6.9h-1.2c-3.8,0-6.9-3.1-6.9-6.9v-1.2c0-3.8,3.1-6.9,6.9-6.9h1.2c3.8,0,6.9,3.1,6.9,6.9V96.8z
		 M50.5,59.1c0,3.8-3.1,6.9-6.9,6.9h-1.2c-3.8,0-6.9-3.1-6.9-6.9v-1.2c0-3.8,3.1-6.9,6.9-6.9h1.2c3.8,0,6.9,3.1,6.9,6.9V59.1z"/>
	<g>
		<path fill="#333333" d="M134.1,81.5c-26.5,0-48,21.5-48,48s21.5,48,48,48s48-21.5,48-48S160.6,81.5,134.1,81.5z M163.4,159.4
			c-0.9,0.9-2.1,1.4-3.4,1.4c-1.3,0-2.5-0.5-3.4-1.4l-10.1-10.1c-11,7.8-26.3,6.6-35.9-3.1c-5.3-5.3-8.2-12.3-8.2-19.8
			c0-7.5,2.9-14.5,8.2-19.8c5.3-5.3,12.3-8.2,19.8-8.2s14.5,2.9,19.8,8.2c9.6,9.6,10.9,24.8,3.1,35.9l10.1,10.1
			C165.2,154.5,165.2,157.5,163.4,159.4z"/>
		<path fill="#333333" d="M130.5,108.1c-4.7,0-9.4,1.8-13,5.4c-3.5,3.5-5.4,8.1-5.4,13c0,4.9,1.9,9.6,5.4,13
			c7.2,7.2,18.9,7.2,26.1,0c7.2-7.2,7.2-18.9,0-26.1C139.9,109.9,135.2,108.1,130.5,108.1z"/>
	</g>
</g>
</svg>
