<svg id="图层_1" data-name="图层 1" xmlns="http://www.w3.org/2000/svg" viewBox="0 0 200 200"><path d="M166.4,121.51a24.88,24.88,0,0,0-34.78,0,24.89,24.89,0,0,0-34.79,0h0l-.37.38a24,24,0,0,0,.37,33.87L131.62,190l34.78-34.24.38-.38A24,24,0,0,0,166.4,121.51Z"/><path d="M33.15,54.11H154.33a6.81,6.81,0,0,0,6.8-6.81V16.81A6.71,6.71,0,0,0,154.39,10H33.2a6.81,6.81,0,0,0-6.81,6.81V47.25A6.82,6.82,0,0,0,33.15,54.11Zm87.71-28.5h23.58a6.35,6.35,0,0,1,0,12.7H120.86a6.35,6.35,0,1,1,0-12.7Zm-51.92-1A7.41,7.41,0,1,1,61.53,32,7.41,7.41,0,0,1,68.94,24.62Zm-23.8,0A7.41,7.41,0,1,1,37.73,32,7.41,7.41,0,0,1,45.14,24.62Z"/><path d="M33.2,115.26H83a33.15,33.15,0,0,1,2.37-3l.5-.49h0a32.76,32.76,0,0,1,45.79,0,32.64,32.64,0,0,1,29.51-8.62V78a6.71,6.71,0,0,0-6.74-6.82H33.2A6.81,6.81,0,0,0,26.39,78h0v30.44A6.81,6.81,0,0,0,33.2,115.26Zm87.66-28.37h23.58a6.35,6.35,0,0,1,0,12.7H120.86a6.35,6.35,0,1,1,0-12.7Zm-51.92-1a7.41,7.41,0,1,1-7.41,7.41A7.41,7.41,0,0,1,68.94,85.84Zm-23.8,0a7.41,7.41,0,1,1-7.41,7.41A7.41,7.41,0,0,1,45.14,85.84Z"/><path d="M76.54,132.38H33.2a6.81,6.81,0,0,0-6.81,6.81v30.44a6.82,6.82,0,0,0,6.81,6.8h72.49L85.83,156.88A31.35,31.35,0,0,1,76.54,132.38Zm-31.4,29.44a7.41,7.41,0,1,1,7.41-7.41A7.41,7.41,0,0,1,45.14,161.82Zm23.8,0a7.41,7.41,0,1,1,7.41-7.41A7.41,7.41,0,0,1,68.94,161.82Z"/></svg>