<?xml version="1.0" encoding="utf-8"?>
<!-- Generator: Adobe Illustrator 22.0.1, SVG Export Plug-In . SVG Version: 6.00 Build 0)  -->
<svg version="1.1" id="图层_1" xmlns="http://www.w3.org/2000/svg" xmlns:xlink="http://www.w3.org/1999/xlink" x="0px" y="0px"
	 viewBox="0 0 200 200" enable-background="new 0 0 200 200" xml:space="preserve">
<g id="图层_1_1_">
	<path fill="#6883D8" d="M100,9.3C49.9,9.3,9.3,49.9,9.3,100s40.6,90.7,90.7,90.7s90.7-40.6,90.7-90.7S150.1,9.3,100,9.3z
		 M111.1,157.3c0,2.2-1.6,4-3.7,4H88.7c-2.1,0-3.7-1.7-3.7-4v-19.8c0-2.2,1.6-4,3.7-4h18.7c2.1,0,3.7,1.7,3.7,4
		C111.1,137.5,111.1,157.3,111.1,157.3z M121,105.8c-6.1,3.7-9.8,6.1-9.8,10v4c0,2.2-1.6,4-3.7,4H88.7c-2.1,0-3.7-1.7-3.7-4v-8.4
		c0-15.2,10.3-20,18.6-24c7-3.5,11.4-5.8,11.4-11.4c0-7.2-8.5-12.5-16.3-12.5c-4.1,0-8.4,1.4-11.1,3.3c-2.6,1.9-5,4.6-9.4,10.2
		c-0.7,1-1.8,1.5-2.9,1.5c-0.8,0-1.6-0.2-2.2-0.7l-12.8-10c-1.5-1.2-1.9-3.6-0.8-5.3c9.6-15.9,23.1-23.7,40.8-23.7
		c19.2,0,40.7,16.1,40.7,37.5C141.1,93.8,129.5,100.7,121,105.8z"/>
</g>
</svg>
