<?xml version="1.0" encoding="utf-8"?>
<!-- Generator: Adobe Illustrator 24.2.1, SVG Export Plug-In . SVG Version: 6.00 Build 0)  -->
<svg version="1.1" id="图层_2" xmlns="http://www.w3.org/2000/svg" xmlns:xlink="http://www.w3.org/1999/xlink" x="0px" y="0px"
	 viewBox="0 0 200 200" enable-background="new 0 0 200 200" xml:space="preserve">
<g>
	<path fill="#333333" d="M82.8,37.4c11.4-1.7,22.9-1.7,34.2,0c8,1.6,16,2.9,23.4,4.9c5.6,1.4,10,5.6,11.8,11.1
		c3.3,9.2,6.6,18.2,10.2,27.2c0.6,1.5,2.6,3.8,3.7,3.6c6.3-1.1,12.3,3.1,13.6,9.4c0.4,1.6,0.4,3.3,0,4.9l-9.1,2.5
		c0.6,3.2,0.9,6.4,1.1,9.6v44.2c-0.1,2.7-1.1,5.2-2.7,7.3c-8.4,1.6-17.1,1.8-25.5,0.5c-5.9-3.8-2.2-10-4.1-15.2H61.8
		c-1.5,5.4-2.4,14.5-4.1,15.2c-8.6,1.5-17.5,1.5-26.2,0c-1.8-2.4-2.8-5.4-2.9-8.5c-0.5-6.4-0.5-12.4-0.5-18.7
		c0-11.6,0-23.1,0.5-34.8l-8.5-2.2c-0.3-1.3-0.3-2.6,0-3.9C22.6,88.3,25.8,83.3,34,84c1,0,2.8-1.9,3.3-3.3c3.1-7.1,5.7-14.4,8-21.8
		c3-10.9,12.6-18.8,23.9-19.7c4.4-0.8,8.9-1.4,13.3-2.1L82.8,37.4L82.8,37.4z M47.5,86.7c34.4,7.3,69.9,7.3,104.4,0
		c-3-8.9-5.9-16.7-8-24.7c-1.3-6.3-6.8-10.7-13.2-10.6c-16.5-0.7-33.1-1.3-49.6-1.4c-5.4,0.2-10.8,1-16,2.5c-2.4,0.5-4.5,1.9-5.8,4
		C54.8,66.1,51.4,76.1,47.5,86.7L47.5,86.7z M54.3,124.4c2.9,0.2,5.7,0,8.5-0.5c2.2-0.5,4.1-1.9,5.2-3.9c0.4-1.2-1.4-4.1-3-4.9
		c-6.5-3-13.1-5.7-19.9-8c-3.3-1.1-7.2-0.9-8,3.8c-1.6,6.9,0,10.8,5.2,11.9c4.1,0.8,8,1,12.4,1.4L54.3,124.4L54.3,124.4z
		 M146.3,124.4c4.2-0.3,8.4-0.8,12.5-1.6c6-1.4,4.7-6.2,4.5-10.5c-0.2-4.2-2.4-6.2-5.7-5.3c-8.2,2.4-16.2,5.5-23.9,9.1
		c-3.5,1.7-2.2,6.3,1.8,7.2C139.1,123.9,142.7,124.2,146.3,124.4L146.3,124.4L146.3,124.4z"/>
</g>
</svg>
