<?xml version="1.0" encoding="utf-8"?>
<!-- Generator: Adobe Illustrator 22.0.1, SVG Export Plug-In . SVG Version: 6.00 Build 0)  -->
<svg version="1.1" id="图层_1" xmlns="http://www.w3.org/2000/svg" xmlns:xlink="http://www.w3.org/1999/xlink" x="0px" y="0px"
	 viewBox="0 0 200 200" enable-background="new 0 0 200 200" xml:space="preserve">
<g id="图层_1_1_">
	<path fill="#6883D8" d="M74.2,82.8H39.9c-9.5,0-17.2-7.7-17.2-17.2V39.9c0-9.4,7.7-17.2,17.2-17.2h34.4c9.4,0,17.2,7.7,17.2,17.2
		v25.8C91.4,75.1,83.7,82.8,74.2,82.8z M74.2,177.4H39.9c-9.5,0-17.1-7.7-17.2-17.2v-43c0-9.4,7.7-17.2,17.2-17.2h34.4
		c9.4,0,17.2,7.7,17.2,17.2v43C91.4,169.7,83.7,177.4,74.2,177.4z M160.1,100h-34.4c-9.5,0-17.1-7.7-17.2-17.2v-43
		c0-9.4,7.7-17.2,17.2-17.2h34.4c9.4,0,17.2,7.7,17.2,17.2v43C177.3,92.3,169.6,100,160.1,100z M160.1,177.4h-34.4
		c-9.5,0-17.1-7.7-17.2-17.2v-25.8c0-9.5,7.7-17.2,17.2-17.2h34.4c9.4,0,17.2,7.7,17.2,17.2v25.8
		C177.3,169.7,169.6,177.4,160.1,177.4z"/>
</g>
</svg>
