<?xml version="1.0" standalone="no"?><!DOCTYPE svg PUBLIC "-//W3C//DTD SVG 1.1//EN" "http://www.w3.org/Graphics/SVG/1.1/DTD/svg11.dtd"><svg t="1591605000696" class="icon" viewBox="0 0 1024 1024" version="1.1" xmlns="http://www.w3.org/2000/svg" p-id="5632" xmlns:xlink="http://www.w3.org/1999/xlink" width="200" height="200"><defs><style type="text/css"></style></defs><path d="M832 220.352V352h64V220.352C896 167.552 852.8 128 800 128h-128v64h128c17.408 0 32 11.008 32 28.352zM832 672v124.352c0 17.344-14.592 35.648-32 35.648h-128v64h128c52.8 0 96-46.88 96-99.648V672h-64z" p-id="5633"></path><path d="M192 352V220.352C192 203.008 206.688 192 224 192h128V128H224C171.2 128 128 167.552 128 220.352V352h64zM192 796.352V672H128v124.352C128 849.12 171.2 896 224 896h128v-64H224c-17.312 0-32-18.304-32-35.648z" p-id="5634"></path><path d="M288 288h448v448H288z" p-id="5635"></path></svg>