<?xml version="1.0" encoding="utf-8"?>
<!-- Generator: Adobe Illustrator 24.2.1, SVG Export Plug-In . SVG Version: 6.00 Build 0)  -->
<svg version="1.1" id="图层_2" xmlns="http://www.w3.org/2000/svg" xmlns:xlink="http://www.w3.org/1999/xlink" x="0px" y="0px"
	 viewBox="0 0 200 200" enable-background="new 0 0 200 200" xml:space="preserve">
<g>
	<path fill="#333333" d="M177.7,35H22.2c-2.9,0-5.2,2.3-5.2,5.2V138c0,2.9,2.3,5.2,5.2,5.2h30.3l10.7,19.2c0.9,1.7,2.7,2.7,4.6,2.7
		h64.1c1.9,0,3.7-1.1,4.6-2.7l9.8-19h31.4c2.9,0,5.2-2.3,5.2-5.2V40.2C182.8,37.3,180.5,35,177.7,35L177.7,35z M58.7,104.7
		c0,3.3-2.6,5.9-5.9,5.9c-3.3,0-5.9-2.6-5.9-5.9V71.3c0-3.3,2.6-5.9,5.9-5.9c3.3,0,5.9,2.6,5.9,5.9V104.7z M90,104.7
		c0,3.3-2.6,5.9-5.9,5.9c-3.3,0-5.9-2.6-5.9-5.9V71.3c0-3.3,2.6-5.9,5.9-5.9c3.3,0,5.9,2.6,5.9,5.9V104.7z M121,104.7
		c0,3.3-2.6,5.9-5.9,5.9s-5.9-2.6-5.9-5.9V71.3c0-3.3,2.6-5.9,5.9-5.9s5.9,2.6,5.9,5.9V104.7z M152.4,104.7c0,3.3-2.6,5.9-5.9,5.9
		s-5.9-2.6-5.9-5.9V71.3c0-3.3,2.6-5.9,5.9-5.9s5.9,2.6,5.9,5.9V104.7z"/>
</g>
</svg>
