<svg id="图层_1" data-name="图层 1" xmlns="http://www.w3.org/2000/svg" viewBox="0 0 200 200"><polygon points="105.55 65.68 95.14 55.5 68.49 81.53 121.78 81.53 105.55 65.68 105.55 65.68"/><path d="M166.8,10.44H33.2A23.27,23.27,0,0,0,10,33.64v90.8a23.27,23.27,0,0,0,23.2,23.2H77.47L53.88,189.56h92.24l-22.54-41.92H166.8a23.27,23.27,0,0,0,23.2-23.2V33.64A23.27,23.27,0,0,0,166.8,10.44ZM98.68,117.18a4.43,4.43,0,0,1-6.21-.05L61.24,86.6a4.24,4.24,0,0,1-.89-4.89l-.19-.19h.28a4.28,4.28,0,0,1,.76-1L91,51.42l-8.33-8.15a2.82,2.82,0,0,1-.09-4l.06-.06a3,3,0,0,1,4.13,0L98.2,50.46,129.45,81a4.23,4.23,0,0,1,0,6.07Zm33.73-4.45a7.43,7.43,0,0,1-7.53-7.3q0-4,7.52-13.77,7.54,9.74,7.54,13.77A7.42,7.42,0,0,1,132.41,112.73Z"/></svg>