<?xml version="1.0" encoding="utf-8"?>
<!-- Generator: Adobe Illustrator 24.2.1, SVG Export Plug-In . SVG Version: 6.00 Build 0)  -->
<svg version="1.1" id="图层_2" xmlns="http://www.w3.org/2000/svg" xmlns:xlink="http://www.w3.org/1999/xlink" x="0px" y="0px"
	 viewBox="0 0 200 200" enable-background="new 0 0 200 200" xml:space="preserve">
<g>
	<polygon fill="#333333" points="141.8,189.5 141.8,153.7 177.6,153.7 	"/>
	<g>
		<path fill="#333333" d="M108.5,62c-2.5-1.1-5.2-1.7-7.9-1.7c-2.8-0.1-5.6,0.4-8.2,1.5c-2.5,1-4.7,2.4-6.6,4.3
			c-1.9,1.8-3.4,4-4.5,6.4v0.1c-1.1,2.5-1.7,5.2-1.7,7.9c0,2.7,0.5,5.4,1.5,7.9c0.9,2.5,2.4,4.8,4.3,6.6c1.9,1.8,4,3.4,6.4,4.5
			c2.5,1.1,5.2,1.7,7.9,1.7c2.8,0.1,5.6-0.4,8.2-1.5c2.5-0.9,4.8-2.4,6.6-4.3h0c1.8-1.8,3.3-3.9,4.4-6.3
			C123.5,78.8,118.9,66.6,108.5,62z"/>
		<path fill="#333333" d="M153.7,10.5H46.3c-13.2,0-23.9,10.7-23.9,23.9l0,131.3c0,13.2,10.7,23.9,23.9,23.9h79.5v-45.8
			c0-3.3,2.7-6,6-6h45.8l0-103.4C177.6,21.2,166.9,10.5,153.7,10.5z M136.2,87.4c1.1,1.5,2.7,2.7,4.5,3.4c0.4,0.2,0.8,0.4,1.1,0.6
			c0.7,0.5,1.3,1.3,1.5,2.1c0,0.9,0,1.9-0.2,2.8c-0.3,1.1-0.6,2.2-1.1,3.2c-0.4,1-0.9,1.9-1.5,2.8c-0.5,0.9-1.2,1.5-2.1,1.9
			c-0.5,0.4-1.2,0.7-1.9,0.6c-0.7,0-1.3-0.2-1.9-0.4c-0.7-0.2-1.5-0.4-2.4-0.6c-0.9-0.2-1.8-0.3-2.8-0.2c-0.8,0.2-1.9,0.4-2.8,0.6
			c-1,0.2-1.9,0.8-2.6,1.5c-1.5,1.4-2.5,3.3-2.8,5.3c-0.3,1.9-0.1,3.9,0.6,5.8c0.6,1.2,0.5,2.5-0.2,3.6c-0.6,0.5-1.3,1-1.9,1.5
			c-0.9,0.6-1.8,1.1-2.8,1.5c-1,0.5-2,0.8-3,1.1c-0.9,0.2-1.8,0.2-2.8,0.2c-0.6,0-1.1-0.3-1.5-0.7c-0.5-0.4-0.9-0.9-1.1-1.5h-0.2
			c-0.7-2-1.9-3.7-3.4-5.1c-1.6-1.5-3.6-2.2-5.8-2.1c-2.1-0.1-4.2,0.6-5.8,1.9c-1.6,1.3-2.9,3-3.6,4.9c-0.4,0.6-0.9,1.1-1.4,1.5
			c-0.6,0.2-1.3,0.4-1.9,0.4c-1,0-2-0.2-3-0.6c-1.1-0.2-2.2-0.7-3.2-1.3c-1-0.4-1.9-1-2.8-1.7c-0.7-0.5-1.4-1.2-1.9-1.9
			c-0.3-0.5-0.4-1-0.4-1.5c0-0.9,0.3-1.7,0.9-2.4c0.7-1.5,1-3.2,0.9-4.9c-0.2-1.9-1-3.7-2.4-5.1c-0.8-1-1.9-1.7-3.2-1.9
			c-1.2-0.2-2.4-0.4-3.6-0.4c-1.4,0-2.8,0.2-4.1,0.6c-0.8,0.4-1.8,0.3-2.6-0.2c-0.8-0.2-1.3-0.8-1.9-1.7c-0.4-0.9-1.1-1.9-1.5-3h0
			c-0.5-1.3-0.7-2.3-1.1-3.6c-0.4-0.9-0.5-1.9-0.2-2.8c0.2-1.5,0.9-2.3,1.9-2.6c2-0.7,3.8-1.9,5.1-3.6c1.6-1.5,2.4-3.6,2.4-5.8
			c0.1-2.1-0.7-4.2-2.1-5.8c-1.4-1.7-3.2-2.9-5.2-3.6c-0.7-0.3-1.2-0.8-1.5-1.5c-0.4-0.6-0.6-1.4-0.7-2.2c0-1,0.1-1.9,0.4-2.8
			c0.3-1,0.6-1.9,1.1-2.8c0.4-0.9,1.1-1.7,1.5-2.6c0.5-0.7,1.1-1.2,1.7-1.7c0.6-0.2,1.1-0.4,1.5-0.2c0.5,0,1,0.2,1.4,0.4
			c1.9,0.7,4,1,6,0.9c2.1-0.2,4.1-1.1,5.6-2.6c0.7-0.8,1.3-1.8,1.7-2.8c0.3-1,0.5-2.1,0.6-3.2c0.2-0.9,0.2-1.9,0-2.8
			c-0.1-0.6-0.2-1.3-0.2-1.9c0-0.4-0.2-0.9-0.2-1.3c0-0.6,0-1.1-0.2-1.3c0.4-1,1.1-1.8,1.9-2.4c1.1-0.4,2.1-1.1,3.2-1.5
			c1-0.4,2.1-0.7,3.2-0.9c1.1,0,1.9-0.2,2.6-0.2c0.8-0.1,1.5,0.2,1.9,0.9c0.4,0.5,0.8,1.1,1.1,1.7c0.6,1.8,1.7,3.5,3.2,4.7
			c1.6,1.2,3.6,1.9,5.6,1.9c2.1,0,4.2-0.6,6-1.7c1.7-1.2,2.9-2.8,3.6-4.7c0.3-0.4,0.7-0.8,1.1-1.5c0.8-0.9,1.3-1.1,1.9-1.1
			c0.9,0,1.9,0.2,2.8,0.4c1.1,0.2,2.1,0.5,3,1.1c1.9,0.9,3.6,2.3,4.7,4.1c0.3,0.4,0.4,1,0.2,1.5c0,0.5-0.2,0.9-0.4,1.3
			c-1.8,3.7-1.1,8.1,1.7,11.2c1.5,1.6,3.5,2.5,5.6,2.6c2.1,0.2,4.3-0.2,6.2-1.1c0.6-0.3,1.3-0.4,1.9-0.2c0.7,0.2,1.3,0.4,1.9,0.8
			c1,1.2,1.9,2.6,2.4,4.1c0.7,1.8,1.2,3.7,1.5,5.6c0.3,1.5-0.5,3-1.9,3.6c-2,0.8-3.8,2-5.1,3.7c-1.4,1.7-2.2,3.8-2.1,6
			C134.7,83.8,135.2,85.7,136.2,87.4z"/>
	</g>
</g>
</svg>
