<svg id="图层_1" data-name="图层 1" xmlns="http://www.w3.org/2000/svg" viewBox="0 0 200 200"><path d="M122.2,78l5.59-6c14.09,6.11,28.65,3.76,38.51-4.7s9.86-24.89,9.86-24.89l-7.51-2.81-15,15L132,33h0l15-15-3.29-8h0s-15,0-24.89,9.86c-9.39,9.39-12.21,24.42-5.64,38l-5.8,5.6A10.35,10.35,0,1,0,122.2,78Z"/><path d="M85.81,110.45a11.43,11.43,0,0,0-16-.2l-57.8,56.8S10.65,176,16.28,181.6c4.7,4.7,13.15,3.76,13.15,3.76l56.84-59.23a11.44,11.44,0,0,0-.46-15.68ZM32.09,173a6,6,0,0,1-9.44-1.26,5.88,5.88,0,0,1,0-5.93,6,6,0,0,1,9.44-1.26C34.43,167.41,34.43,171.16,32.09,173Z"/><path d="M132.05,97l-10.47,10.47L60,48.33,58.75,31.7,35.34,16.3l-6.16,6.77-6.77,6.78L16.25,36,31,59.41l16,1.24,61.6,59.75L95.71,134c18.47,18.48,37,37.57,56.05,56.05,19.09-4.93,30.18-18.48,36.34-36.34C169.62,134,151.14,115.47,132.05,97ZM153,175.22l-42.5-42.51,6.16-6.15,43.73,43.73Zm15.4-12.32-43.73-43.74,6.16-6.16,42.5,42.51Z"/></svg>