<?xml version="1.0" encoding="utf-8"?>
<!-- Generator: Adobe Illustrator 24.2.1, SVG Export Plug-In . SVG Version: 6.00 Build 0)  -->
<svg version="1.1" id="图层_2" xmlns="http://www.w3.org/2000/svg" xmlns:xlink="http://www.w3.org/1999/xlink" x="0px" y="0px"
	 viewBox="0 0 200 200" enable-background="new 0 0 200 200" xml:space="preserve">
<g>
	<path fill="#333333" d="M78,100v56.6H43.4V43.4H100V100H78z M151.1,48.9v45.6h-37.4V48.9H151.1 M156.6,43.4h-48.4V100h48.4
		L156.6,43.4L156.6,43.4z"/>
	<path fill="#333333" d="M86.2,108.2h70.4v48.4H86.2V108.2z M25.8,17.5c4.6,0,8.2,3.7,8.2,8.2c0,4.6-3.7,8.2-8.2,8.2
		c-4.6,0-8.2-3.7-8.2-8.2C17.5,21.2,21.2,17.5,25.8,17.5 M25.8,12C18.2,12,12,18.2,12,25.7s6.2,13.8,13.7,13.8c0,0,0,0,0,0
		c7.6,0,13.8-6.2,13.8-13.8S33.3,12,25.8,12L25.8,12z M174.2,17.5c4.6,0,8.2,3.7,8.2,8.2c0,4.6-3.7,8.2-8.2,8.2
		c-4.6,0-8.2-3.7-8.2-8.2C166,21.2,169.7,17.5,174.2,17.5 M174.2,12c-7.6,0-13.7,6.2-13.7,13.7c0,7.6,6.2,13.8,13.8,13.8
		S188,33.3,188,25.7C188,18.2,181.8,12,174.2,12z M25.8,166c4.5,0,8.2,3.7,8.2,8.2s-3.7,8.2-8.2,8.2s-8.2-3.7-8.2-8.2
		S21.2,166,25.8,166 M25.8,160.5c-7.6,0-13.8,6.2-13.8,13.7S18.2,188,25.7,188c7.6,0,13.7-6.2,13.7-13.7
		C39.5,166.7,33.3,160.5,25.8,160.5z M174.2,166c4.6,0,8.2,3.7,8.2,8.2s-3.7,8.2-8.2,8.2c-4.5,0-8.2-3.7-8.2-8.2
		S169.7,166,174.2,166 M174.2,160.5c-7.6,0-13.7,6.2-13.7,13.8s6.2,13.7,13.8,13.7c7.6,0,13.7-6.2,13.7-13.8
		S181.8,160.5,174.2,160.5L174.2,160.5z"/>
</g>
</svg>
