<?xml version="1.0" encoding="utf-8"?>
<!-- Generator: Adobe Illustrator 24.2.1, SVG Export Plug-In . SVG Version: 6.00 Build 0)  -->
<svg version="1.1" id="图层_2" xmlns="http://www.w3.org/2000/svg" xmlns:xlink="http://www.w3.org/1999/xlink" x="0px" y="0px"
	 viewBox="0 0 200 200" enable-background="new 0 0 200 200" xml:space="preserve">
<path fill="#333333" d="M112,68.8H88c-1.4,0-2.7-0.8-3.5-2l-12-20.7c-0.7-1.2-0.7-2.8,0-4l12-20.7c0.7-1.2,2-2,3.5-2h24
	c1.4,0,2.7,0.8,3.5,2l12,20.7c0.7,1.2,0.7,2.8,0,4l-12,20.7C114.7,68,113.4,68.8,112,68.8z M59,158.5H35c-1.4,0-2.7-0.8-3.5-2
	l-12-20.7c-0.7-1.2-0.7-2.8,0-4l12-20.7c0.7-1.2,2-2,3.5-2h24c1.4,0,2.7,0.8,3.5,2l12,20.7c0.7,1.2,0.7,2.8,0,4l-12,20.7
	C61.7,157.7,60.4,158.5,59,158.5z M165,158.5h-24c-1.4,0-2.7-0.8-3.5-2l-12-20.7c-0.7-1.2-0.7-2.8,0-4l12-20.7c0.7-1.2,2-2,3.5-2h24
	c1.4,0,2.7,0.8,3.5,2l12,20.7c0.7,1.2,0.7,2.8,0,4l-12,20.7C167.8,157.7,166.4,158.5,165,158.5z M23.7,104.5c-2.5,0-4.5-2-4.5-4.5
	c0-26.3,12.9-51,34.5-66c2.1-1.4,4.9-0.9,6.3,1.1s0.9,4.9-1.1,6.3l0,0c-19.1,13.4-30.6,35.2-30.6,58.6
	C28.2,102.5,26.2,104.6,23.7,104.5C23.7,104.5,23.7,104.5,23.7,104.5L23.7,104.5z M100.1,180.6c-11.8,0-23.5-2.6-34.2-7.5
	c-2.3-1.1-3.3-3.8-2.2-6c1.1-2.3,3.8-3.3,6-2.2c19.3,9,41.5,9,60.7,0c2.3-1.1,5-0.1,6,2.2c1.1,2.3,0.1,5-2.2,6
	C123.5,178,111.8,180.6,100.1,180.6L100.1,180.6z M176.4,104.5c-2.5,0-4.5-2-4.5-4.5c0-19-7.5-37.2-21-50.6c-3.3-3.3-7-6.3-10.9-8.9
	c-2.4-1.5-2.9-5-0.7-7.1c0.8-0.8,2-1.3,3.2-1.2c0.9,0,1.8,0.3,2.5,0.8c13.4,9,23.9,21.7,30,36.7c3.9,9.6,5.9,19.9,5.9,30.3
	C180.9,102.5,178.9,104.5,176.4,104.5C176.4,104.5,176.4,104.5,176.4,104.5L176.4,104.5z M43.5,104.5c-2.5,0-4.5-2-4.5-4.5
	c0-16.2,6.4-31.7,17.9-43.1c2.5-2.5,5.2-4.8,8.1-6.8c2.1-1.4,4.9-0.9,6.3,1.1c1.4,2.1,0.9,4.9-1.1,6.3l0,0c-2.5,1.7-4.8,3.7-6.9,5.8
	C53.5,73.1,48,86.3,48,100C48,102.5,46,104.5,43.5,104.5C43.5,104.5,43.5,104.5,43.5,104.5L43.5,104.5z M100.1,160.9
	c-8.9,0-17.7-1.9-25.8-5.7c-2.2-1.2-3.1-3.9-1.9-6.1c1.1-2.1,3.6-3,5.8-2.1c13.9,6.5,30,6.5,43.9,0c2.1-1,4.7-0.3,5.9,1.7
	c1.4,2.3,0.4,5.3-2,6.4C117.8,158.9,109,160.9,100.1,160.9L100.1,160.9z M156.6,104.5c-2.5,0-4.5-2-4.5-4.5
	c0-13.8-5.5-26.9-15.2-36.6c-2.2-2.1-4.5-4.1-6.9-5.8c-2.2-1.5-2.6-4.6-0.9-6.7c1.5-1.8,4.3-2,6.3-0.7c2.8,2,5.5,4.2,7.9,6.7
	c11.5,11.4,17.9,26.9,17.9,43.1C161.2,102.5,159.2,104.5,156.6,104.5C156.7,104.5,156.6,104.5,156.6,104.5L156.6,104.5z"/>
</svg>
