<?xml version="1.0" encoding="utf-8"?>
<!-- Generator: Adobe Illustrator 22.0.1, SVG Export Plug-In . SVG Version: 6.00 Build 0)  -->
<svg version="1.1" id="图层_1" xmlns="http://www.w3.org/2000/svg" xmlns:xlink="http://www.w3.org/1999/xlink" x="0px" y="0px"
	 viewBox="0 0 200 200" enable-background="new 0 0 200 200" xml:space="preserve">
<g id="图层_1_1_">
	<g>
		<g>
			<path fill="#6883D8" d="M165.7,19.7H34.3c-8,0-14.6,6.6-14.6,14.6v131.4c0,8.1,6.5,14.6,14.6,14.6h131.4
				c8.1,0,14.6-6.5,14.6-14.6V34.3C180.3,26.3,173.8,19.7,165.7,19.7z M97.8,61.3H86.5c-4.9,0-8.8,3.8-8.8,8.5v14h14.5
				c5.2,0,8.1,2.9,8.1,8s-3,8-8.1,8H77.7v47c0,4.4-3.6,8-8.1,8s-8.1-3.6-8.1-8v-47h-8.8c-5.2,0-8.1-2.9-8.1-8s3-8,8.1-8h8.8v-14
				c-0.1-13.5,11.2-24.5,25-24.5h11.3c4.5,0,8.1,3.6,8.1,8C106,57.7,102.3,61.3,97.8,61.3z M153.2,152.4c-1.5,1.5-3.5,2.3-5.7,2.3
				l0,0c-2.9,0-5.6-1.5-7-4l-9.2-15.6l-9.2,15.6c-1.5,2.5-4.1,4-7,4l0,0c-1.4,0-2.8-0.4-4-1.1c-1.9-1.1-3.3-2.8-3.8-4.9
				c-0.5-2.1-0.3-4.2,0.8-6l14-23.5l-14-23.5c-0.7-1.2-1.1-2.6-1.1-4c0-2.1,0.8-4.2,2.4-5.7c1.5-1.5,3.5-2.3,5.7-2.3l0,0
				c2.9,0,5.6,1.5,7,4l9.2,15.6l9.2-15.6c1.5-2.5,4.1-4,7-4l0,0l0,0c1.4,0,2.8,0.4,4,1.1c1.9,1.1,3.3,2.8,3.8,4.9s0.3,4.2-0.8,6
				l-14,23.5l14,23.5c0.7,1.2,1.1,2.6,1.1,4C155.6,148.8,154.7,150.8,153.2,152.4z"/>
		</g>
	</g>
</g>
</svg>
