<?xml version="1.0" encoding="utf-8"?>
<!-- Generator: Adobe Illustrator 24.2.1, SVG Export Plug-In . SVG Version: 6.00 Build 0)  -->
<svg version="1.1" id="图层_2" xmlns="http://www.w3.org/2000/svg" xmlns:xlink="http://www.w3.org/1999/xlink" x="0px" y="0px"
	 viewBox="0 0 200 200" enable-background="new 0 0 200 200" xml:space="preserve">
<g>
	<path fill="#333333" d="M12.5,20.3c0-0.3,0.1-0.5,0.3-0.7s0.4-0.3,0.7-0.3h6.2c0.3,0,0.5,0.1,0.7,0.3s0.3,0.4,0.3,0.7v152.1h165.8
		c0.3,0,0.5,0.1,0.7,0.3s0.3,0.4,0.3,0.7v6.2c0,0.3-0.1,0.5-0.3,0.7s-0.4,0.3-0.7,0.3h-174V20.3z"/>
	<path fill="#333333" d="M154.7,88.7c0-0.8,0.3-1.5,0.9-2.1c0.6-0.6,1.3-0.9,2.1-0.9h26.9c0.8,0,1.5,0.3,2.1,0.9
		c0.6,0.6,0.9,1.3,0.9,2.1v72.8h-32.8V88.7z M117.5,112.8l-44.3-39l-29.5,37l-12.1-9.6l39.7-49.7l44.5,39.3l59.9-71.5l11.7,9.9
		L117.5,112.8z M31.6,126.6c0-0.8,0.3-1.5,0.9-2.1c0.6-0.6,1.3-0.9,2.1-0.9h26.9c0.8,0,1.5,0.3,2.1,0.9c0.6,0.6,0.9,1.3,0.9,2.1
		v34.9H31.6V126.6z"/>
	<path fill="#333333" d="M72.6,114.6c0-0.8,0.3-1.5,0.9-2.1s1.3-0.9,2.1-0.9h26.9c0.8,0,1.5,0.3,2.1,0.9c0.6,0.6,0.9,1.3,0.9,2.1
		v46.9H72.6V114.6z M113.7,139.5c0-0.8,0.3-1.5,0.9-2.1s1.3-0.9,2.1-0.9h26.9c0.8,0,1.5,0.3,2.1,0.9c0.6,0.6,0.9,1.3,0.9,2.1v22
		h-32.8V139.5z"/>
</g>
</svg>
