<?xml version="1.0" encoding="utf-8"?>
<!-- Generator: Adobe Illustrator 24.2.1, SVG Export Plug-In . SVG Version: 6.00 Build 0)  -->
<svg version="1.1" id="图层_2" xmlns="http://www.w3.org/2000/svg" xmlns:xlink="http://www.w3.org/1999/xlink" x="0px" y="0px"
	 viewBox="0 0 200 200" enable-background="new 0 0 200 200" xml:space="preserve">
<path fill="#333333" d="M183.4,100.2l-34.6-28c-1.8-1.4-4.4-0.2-4.4,2.1l0,18.1h-40.5V52.7l19.5,0c2.3,0,3.5-2.6,2.1-4.4l-28-34.6
	c-1.1-1.3-3.1-1.3-4.2,0l-28,34.6c-1.4,1.8-0.2,4.4,2.1,4.4l18.5,0v39.8H45.4l0-18.2c0-2.3-2.6-3.5-4.4-2.1l-34.6,28
	c-1.3,1.1-1.3,3.1,0,4.2l34.6,28c1.8,1.4,4.4,0.2,4.4-2.1l0-19.8h40.5V152l-18.5,0c-2.3,0-3.5,2.6-2.1,4.4l28,34.6
	c1.1,1.3,3.1,1.3,4.2,0l28-34.6c1.4-1.8,0.2-4.4-2.1-4.4l-19.5,0v-41.5h40.5l0,19.9c0,2.3,2.6,3.5,4.4,2.1l34.6-28
	C184.7,103.3,184.7,101.3,183.4,100.2z"/>
</svg>
