<?xml version="1.0" encoding="utf-8"?>
<!-- Generator: Adobe Illustrator 24.2.1, SVG Export Plug-In . SVG Version: 6.00 Build 0)  -->
<svg version="1.1" id="图层_2" xmlns="http://www.w3.org/2000/svg" xmlns:xlink="http://www.w3.org/1999/xlink" x="0px" y="0px"
	 viewBox="0 0 200 200" enable-background="new 0 0 200 200" xml:space="preserve">
<path d="M66.3,185.5L66.3,185.5v-0.1V185.5z M164.9,149.9h-0.2H164.9z"/>
<g>
	<path fill="#333333" d="M162.7,118.4h-58.2l-9.7,13h67.8c2.4,0,4.5,2.1,4.5,4.5s-2.1,4.5-4.5,4.5H47.8c-0.1,0-0.1,0-0.2,0
		c-6.4,0-12.5,2.5-17.1,7.1c-4.7,4.6-7.2,10.8-7.2,17.3s2.6,12.6,7.2,17.3c4.4,4.4,10.2,6.9,16.3,7.1v0h85.6c3.6,0,6.5-2.9,6.5-6.5
		s-2.9-6.5-6.5-6.5H47.6c-3,0-5.8-1.2-8-3.3c-2.2-2.2-3.4-5-3.4-8c0-3,1.2-5.9,3.4-8c2.1-2.1,5-3.3,8-3.3h115.1
		c9.5-0.1,17.3-7.9,17.3-17.5S172.2,118.5,162.7,118.4z"/>
	<path fill="#333333" d="M71.1,11C42.9,11,20,33.9,20,62.1c0,11.2,3.6,21.6,9.8,30.1l41.3,55.5l40.4-54.3
		c6.7-8.7,10.7-19.5,10.7-31.3C122.2,33.9,99.3,11,71.1,11z M71.1,77c-7.8,0-14.2-6.4-14.2-14.2s6.4-14.2,14.2-14.2
		s14.2,6.4,14.2,14.2S78.9,77,71.1,77z"/>
</g>
</svg>
