<?xml version="1.0" encoding="utf-8"?>
<!-- Generator: Adobe Illustrator 22.0.1, SVG Export Plug-In . SVG Version: 6.00 Build 0)  -->
<svg version="1.1" id="图层_1" xmlns="http://www.w3.org/2000/svg" xmlns:xlink="http://www.w3.org/1999/xlink" x="0px" y="0px"
	 viewBox="0 0 200 200" enable-background="new 0 0 200 200" xml:space="preserve">
<g id="图层_1_1_">
	<g>
		<path fill="#6883D8" d="M45.3,21.9h-7.8c-8.6,0-15.6,7-15.6,15.6v125c0,8.6,7,15.6,15.6,15.6h7.8h0.9V21.9H45.3z"/>
		<path fill="#6883D8" d="M162.5,21.9h-3.8v51.5c0,0.9-1.1,1.3-1.7,0.7l-13.6-13.6l-8.2-8.2l-8.2,8.2l-13.6,13.6
			c-0.6,0.6-1.7,0.2-1.7-0.7V21.9h-4H60.6v156.3h101.9c8.6,0,15.6-7,15.6-15.6v-125C178.1,28.9,171.1,21.9,162.5,21.9z M76.2,102.3
			c0-1.6,1.3-3,3-2.9h29c1.5,0,2.6,1.2,2.6,2.6v5.9c0,1.5-1.2,2.6-2.6,2.6H81.8c-3.1,0-5.6-2.5-5.6-5.6V102.3z M92.7,146.3
			c0,1.5-1.2,2.6-2.6,2.6h-10c-3.1,0-3.9-2.5-3.9-5.6s0.8-5.6,3.9-5.6h10c1.5,0,2.6,1.2,2.6,2.6V146.3z M116.9,149.8
			c0,3.5-2.8,6.4-6.4,6.4h-5.9c-3.5,0-6.4-2.8-6.4-6.4v-13.4c0-3.5,2.8-6.4,6.4-6.4h5.9c3.5,0,6.4,2.8,6.4,6.4V149.8z M116.2,111.7
			V98.3c0-3.5,2.8-6.4,6.4-6.4h5.9c3.5,0,6.4,2.8,6.4,6.4v13.4c0,3.5-2.8,6.4-6.4,6.4h-5.9C119.1,118,116.2,115.2,116.2,111.7z
			 M157,149.1h-32.2c-1.5,0-2.6-1.2-2.6-2.6v-5.9c0-1.5,1.2-2.6,2.6-2.6H157c3.1,0,5.6,2.5,5.6,5.6S160.1,149.1,157,149.1z
			 M162.6,105c0,3.1-2.5,5.6-5.6,5.6h-14.2c-1.5,0-2.6-1.2-2.6-2.6v-6c0-1.5,1.2-2.6,2.6-2.6h14.1C160.1,99.4,162.6,101.9,162.6,105
			L162.6,105z"/>
	</g>
</g>
</svg>
