<?xml version="1.0" encoding="utf-8"?>
<!-- Generator: Adobe Illustrator 24.2.1, SVG Export Plug-In . SVG Version: 6.00 Build 0)  -->
<svg version="1.1" id="图层_2" xmlns="http://www.w3.org/2000/svg" xmlns:xlink="http://www.w3.org/1999/xlink" x="0px" y="0px"
	 viewBox="0 0 200 200" enable-background="new 0 0 200 200" xml:space="preserve">
<g>
	<path fill="#333333" d="M188,100c0-23.5-9.1-45.5-25.7-62.2C145.7,21.2,123.5,12,100,12c-23.5,0-45.6,9.2-62.3,25.8
		C21.1,54.4,12,76.5,12,100c0,48.5,39.5,88,88,88C148.5,188,188,148.5,188,100z M36.4,92.6H21.8c1.5-16.4,8.1-31.6,18.9-44.1l11,11
		c1.2,1.2,2.8,1.9,4.4,1.9c1.7,0,3.3-0.7,4.5-1.8c2.5-2.5,2.5-6.4,0-8.9l-11-11c12.5-10.5,27.8-16.7,44.1-18v13.5
		c0,3.5,2.8,6.3,6.3,6.3c3.5,0,6.3-2.8,6.3-6.3V21.7c16.3,1.3,31.6,7.5,44.1,18l-10.9,10.9c-1.2,1.2-1.8,2.8-1.8,4.4
		c0,3.5,2.8,6.3,6.3,6.3c1.6,0,3.2-0.6,4.5-1.9l11-11c10.8,12.4,17.4,27.7,18.9,44h-14.5c-3.5,0-6.3,2.8-6.3,6.3
		c0,3.5,2.8,6.3,6.3,6.3h14.7c-1,15-6.2,28.9-14.5,40.5c-17.5-8.5-37-13.7-57.6-14.6c0-0.1,0-0.2,0-0.4V83c0-3.5-2.8-6.3-6.3-6.3
		c-3.5,0-6.3,2.8-6.3,6.3v47.7c0,0.1,0,0.2,0,0.4c-20.6,0.9-40.1,6-57.6,14.6c-8.3-11.6-13.5-25.4-14.5-40.5h14.7
		c3.5,0,6.3-2.8,6.3-6.3C42.6,95.4,39.8,92.6,36.4,92.6z"/>
</g>
</svg>
