<svg id="图层_1" data-name="图层 1" xmlns="http://www.w3.org/2000/svg" viewBox="0 0 200 200"><path d="M170.77,12.15a7.35,7.35,0,0,0-5.2-2.15H34.5a7.36,7.36,0,0,0-7.36,7.36h0V50.29a7.36,7.36,0,0,0,7.3,7.41H165.5a7.35,7.35,0,0,0,7.36-7.36h0v-33a7.35,7.35,0,0,0-2.09-5.21ZM47.41,41.84a8,8,0,1,1,8-8h0A8,8,0,0,1,47.41,41.84Zm25.74,0a8,8,0,1,1,8-8h0A8,8,0,0,1,73.15,41.84Zm81.64-1.23H129.31a6.86,6.86,0,1,1,0-13.72h25.5a6.86,6.86,0,0,1,0,13.72Zm16,37.72a7.39,7.39,0,0,0-5.2-2.15H34.5a7.36,7.36,0,0,0-7.36,7.36v32.94a7.36,7.36,0,0,0,7.36,7.37h131a7.36,7.36,0,0,0,7.36-7.37h0V83.56a7.35,7.35,0,0,0-2.09-5.23ZM47.41,108.05a8,8,0,1,1,8-8h0A8,8,0,0,1,47.41,108.05Zm25.74,0a8,8,0,1,1,8-8h0A8,8,0,0,1,73.15,108.05Zm81.64-1.16H129.31a6.87,6.87,0,1,1,0-13.73h25.5a6.87,6.87,0,0,1,0,13.73Zm15.81,37.28a6.83,6.83,0,0,0-5.1-1.81H34.5a7.36,7.36,0,0,0-7.36,7.36h0v32.93A7.36,7.36,0,0,0,34.5,190h131a7.36,7.36,0,0,0,7.36-7.35V149.72a8.29,8.29,0,0,0-2.26-5.55Zm-123.19,30a8,8,0,1,1,8-8h0A8,8,0,0,1,47.41,174.2Zm25.74,0a8,8,0,1,1,8-8h0A8,8,0,0,1,73.15,174.2ZM154.79,173H129.31a6.87,6.87,0,1,1,0-13.73h25.5a6.87,6.87,0,0,1,0,13.73Z"/></svg>