<?xml version="1.0" encoding="utf-8"?>
<!-- Generator: Adobe Illustrator 22.0.1, SVG Export Plug-In . SVG Version: 6.00 Build 0)  -->
<svg version="1.1" id="图层_1" xmlns="http://www.w3.org/2000/svg" xmlns:xlink="http://www.w3.org/1999/xlink" x="0px" y="0px"
	 viewBox="0 0 200 200" enable-background="new 0 0 200 200" xml:space="preserve">
<g id="图层_1_1_">
	<g>
		<g>
			<g>
				<path fill="#7DA4EC" d="M100,59.6c18.6,0,33.7,15.1,33.7,33.7c0,10.2-3.6,19.9-9.5,25.8c-9.1,9.1-13.5,21.5-15.5,31.5
					c-0.4,1.9-2,3.2-3.9,3.2h-9.3c-1.9,0-3.5-1.4-3.9-3.2c-2.1-10-6.4-22.4-15.5-31.5c-4-4-9.5-9.5-9.5-25.8
					C66.3,74.7,81.4,59.6,100,59.6 M100,46.2c-26,0-47.1,21.1-47.1,47.1c0,20.2,7.1,28.9,13.5,35.3c10.3,10.3,12.7,27.5,13.3,35
					c0.2,2.1,1.9,3.7,4,3.7h32.8c2.1,0,3.8-1.6,4-3.7c0.6-7.5,3-24.7,13.3-35c8.6-8.6,13.5-21.9,13.5-35.3
					C147.1,67.2,126,46.2,100,46.2L100,46.2z"/>
				<path fill="#7DA4EC" d="M86,186.4l-4.7-9.5c-0.7-1.3,0.3-2.9,1.8-2.9H117c1.5,0,2.5,1.6,1.8,2.9l-4.7,9.5
					c-0.3,0.7-1,1.1-1.8,1.1H87.8C87,187.5,86.3,187.1,86,186.4z"/>
			</g>
			<g>
				<path fill="#7DA4EC" d="M58.5,42.2l-7.3-7.3c-2-2-5.1-2-7.1,0l-2.4,2.4c-2,2-2,5.1,0,7.1l7.3,7.3c2,2,5.2,1.9,7.2-0.1
					c0.7-0.8,1.5-1.5,2.2-2.2C60.4,47.4,60.4,44.2,58.5,42.2z"/>
				<path fill="#7DA4EC" d="M106.7,27.7V17.5c0-2.8-2.2-5-5-5h-3.5c-2.8,0-5,2.2-5,5v10.2c0,2.8,2.2,5,5,5h3.5
					C104.5,32.7,106.7,30.5,106.7,27.7z"/>
				<path fill="#7DA4EC" d="M151.1,51.7l7.3-7.3c2-2,2-5.1,0-7.1l-2.4-2.4c-2-2-5.1-2-7.1,0l-7.3,7.3c-2,2-1.9,5.2,0.1,7.2
					c0.8,0.7,1.5,1.5,2.2,2.2C145.8,53.7,149.1,53.7,151.1,51.7z"/>
				<path fill="#7DA4EC" d="M34.4,86.5H24.2c-2.8,0-5,2.2-5,5V95c0,2.8,2.2,5,5,5h10.2c2.8,0,5-2.2,5-5v-3.5
					C39.4,88.8,37.2,86.5,34.4,86.5z"/>
				<path fill="#7DA4EC" d="M160.6,91.5V95c0,2.8,2.2,5,5,5h10.2c2.8,0,5-2.2,5-5v-3.5c0-2.8-2.2-5-5-5h-10.2
					C162.8,86.5,160.6,88.8,160.6,91.5z"/>
				<path fill="#7DA4EC" d="M141.5,144.3l7.3,7.3c2,2,5.1,2,7.1,0l2.4-2.4c2-2,2-5.1,0-7.1l-7.3-7.3c-2-2-5.2-1.9-7.2,0.1
					c-0.7,0.8-1.5,1.5-2.2,2.2C139.6,139.1,139.5,142.3,141.5,144.3z"/>
				<path fill="#7DA4EC" d="M48.9,134.8l-7.3,7.3c-2,2-2,5.1,0,7.1l2.4,2.4c2,2,5.1,2,7.1,0l7.3-7.3c2-2,1.9-5.2-0.1-7.2
					c-0.8-0.7-1.5-1.5-2.2-2.2C54.2,132.9,50.9,132.8,48.9,134.8z"/>
			</g>
		</g>
	</g>
</g>
</svg>
