<?xml version="1.0" encoding="utf-8"?>
<!-- Generator: Adobe Illustrator 22.0.1, SVG Export Plug-In . SVG Version: 6.00 Build 0)  -->
<svg version="1.1" id="图层_1" xmlns="http://www.w3.org/2000/svg" xmlns:xlink="http://www.w3.org/1999/xlink" x="0px" y="0px"
	 viewBox="0 0 200 200" enable-background="new 0 0 200 200" xml:space="preserve">
<g id="图层_1_1_">
	<path fill="#6883D8" d="M165.5,20.1H34.6c-8,0-14.5,6.5-14.5,14.5v130.9c0,8,6.5,14.5,14.5,14.5h130.9c8,0,14.5-6.5,14.5-14.5V34.6
		C180,26.6,173.5,20.1,165.5,20.1z M151.8,63.7v9.5c0,28.5-23.3,51.8-51.8,51.8s-51.8-23.3-51.8-51.8v-9.5
		c-5.2-1.7-8.6-6.5-8.6-12.1c0-7.3,5.6-13,13-13c7.3,0,13,5.6,13,13c0,3.9-1.7,7.3-4.3,9.5v12.1c0,21.6,17.3,38.9,38.9,38.9
		s38.9-17.3,38.9-38.9V61.1c-2.6-2.2-4.3-5.6-4.3-9.5c0-7.3,5.6-13,13-13c7.3,0,13,5.6,13,13C160.5,57.2,157,62,151.8,63.7z"/>
</g>
</svg>
