<?xml version="1.0" encoding="utf-8"?>
<!-- Generator: Adobe Illustrator 24.2.1, SVG Export Plug-In . SVG Version: 6.00 Build 0)  -->
<svg version="1.1" id="图层_2" xmlns="http://www.w3.org/2000/svg" xmlns:xlink="http://www.w3.org/1999/xlink" x="0px" y="0px"
	 viewBox="0 0 200 200" enable-background="new 0 0 200 200" xml:space="preserve">
<path fill="#333333" d="M50.1,86.4c-9.5,5.7-21.2,20.9-26,39.3c-2.9,11-3.8,21.3-4,27.8c-0.1,2,2.6,2.9,3.7,1.1
	c1.8-2.9,3.9-6.1,5.1-7.8c2.5-3.6,13.3-16.8,29.9-24.5c14-6.5,35.9-6.5,42.5-6.4c1.1,0,1.9,0.9,1.9,2v26.2c0,1.6,1.8,2.6,3.2,1.6
	l71.3-50.5c1.1-0.8,1.1-2.5,0-3.3l-71.3-50.5c-1.3-0.9-3.2,0-3.2,1.6v26.5c0,1-0.8,1.9-1.8,2C96.6,72.2,83,73.4,75.2,75
	C59,78.4,50.1,86.4,50.1,86.4L50.1,86.4z"/>
</svg>
