<?xml version="1.0" encoding="utf-8"?>
<!-- Generator: Adobe Illustrator 24.2.1, SVG Export Plug-In . SVG Version: 6.00 Build 0)  -->
<svg version="1.1" id="图层_2" xmlns="http://www.w3.org/2000/svg" xmlns:xlink="http://www.w3.org/1999/xlink" x="0px" y="0px"
	 viewBox="0 0 200 200" enable-background="new 0 0 200 200" xml:space="preserve">
<g>
	<g>
		<path fill="#333333" d="M170.7,108.8H73.5v8.8c0,4.9-4,8.8-8.8,8.8l0,0h-8.8c-4.9,0-8.8-4-8.8-8.8l0,0v-8.8H29.3
			c-4.9,0-8.8-4-8.8-8.8s4-8.8,8.8-8.8H47v-8.8c0-4.9,4-8.8,8.8-8.8h8.8c4.9,0,8.8,4,8.8,8.8v8.8h97.2c4.9,0,8.8,4,8.8,8.8
			S175.5,108.8,170.7,108.8L170.7,108.8z M170.7,55.8h-26.5v8.8c0,4.9-4,8.8-8.8,8.8l0,0h-8.8c-4.9,0-8.8-4-8.8-8.8l0,0v-8.8H29.3
			c-4.9,0-8.8-4-8.8-8.8c0-4.9,4-8.8,8.8-8.8c0,0,0,0,0,0h88.3v-8.8c0-4.9,4-8.8,8.8-8.8h8.8c4.9,0,8.8,4,8.8,8.8v8.8h26.5
			c4.9,0,8.8,4,8.8,8.8C179.5,51.9,175.5,55.8,170.7,55.8C170.7,55.8,170.7,55.8,170.7,55.8L170.7,55.8z M29.3,144.2h88.3v-8.8
			c0-4.9,4-8.8,8.8-8.8h8.8c4.9,0,8.8,4,8.8,8.8v8.8h26.5c4.9,0,8.8,4,8.8,8.8c0,4.9-4,8.8-8.8,8.8h-26.5v8.8c0,4.9-4,8.8-8.8,8.8
			l0,0h-8.8c-4.9,0-8.8-4-8.8-8.8l0,0v-8.8H29.3c-4.9,0-8.8-4-8.8-8.8C20.5,148.1,24.5,144.2,29.3,144.2z"/>
	</g>
</g>
</svg>
