<?xml version="1.0" encoding="utf-8"?>
<!-- Generator: Adobe Illustrator 24.2.1, SVG Export Plug-In . SVG Version: 6.00 Build 0)  -->
<svg version="1.1" id="图层_2" xmlns="http://www.w3.org/2000/svg" xmlns:xlink="http://www.w3.org/1999/xlink" x="0px" y="0px"
	 viewBox="0 0 200 200" enable-background="new 0 0 200 200" xml:space="preserve">
<path fill="#333333" d="M167.4,109.5c6.4,0,11.6-5.2,11.6-11.6V32.6c0-6.4-5.2-11.6-11.6-11.6h-30.3c-6.4,0-11.6,5.2-11.6,11.6v11.3
	h-15.9V32.6c0-6.4-5.2-11.6-11.6-11.6H32.6C26.2,21,21,26.2,21,32.6v30.3c0,6.4,5.2,11.6,11.6,11.6h11.3v15.9H32.6
	c-6.4,0-11.6,5.2-11.6,11.6v65.3c0,6.4,5.2,11.6,11.6,11.6h30.3c6.4,0,11.6-5.2,11.6-11.6v-11.3h15.9v11.3c0,6.4,5.2,11.6,11.6,11.6
	h65.3c6.4,0,11.6-5.2,11.6-11.6v-30.3c0-6.4-5.2-11.6-11.6-11.6h-11.3v-15.9H167.4L167.4,109.5z M148.4,125.4h-46.3
	c-6.4,0-11.6,5.2-11.6,11.6v11.3H74.6v-46.2c0-6.4-5.2-11.6-11.6-11.6H51.6V74.6h46.2c6.4,0,11.6-5.2,11.6-11.6V51.6h15.9v46.2
	c0,6.4,5.2,11.6,11.6,11.6h11.3L148.4,125.4L148.4,125.4z"/>
</svg>
