<?xml version="1.0" encoding="utf-8"?>
<!-- Generator: Adobe Illustrator 24.2.1, SVG Export Plug-In . SVG Version: 6.00 Build 0)  -->
<svg version="1.1" id="图层_2" xmlns="http://www.w3.org/2000/svg" xmlns:xlink="http://www.w3.org/1999/xlink" x="0px" y="0px"
	 viewBox="0 0 200 200" enable-background="new 0 0 200 200" xml:space="preserve">
<g>
	<g>
		<path fill="#333333" d="M172,22H28c-3.3,0-6,2.7-6,6c0,3.3,2.7,6,6,6h144c3.3,0,6-2.7,6-6C178,24.7,175.3,22,172,22z"/>
	</g>
	<g>
		<path fill="#333333" d="M150,58h-28c-5.5,0-10,4.5-10,10v54c0,5.5,4.5,10,10,10h28c5.5,0,10-4.5,10-10V68
			C160,62.5,155.5,58,150,58z"/>
	</g>
	<g>
		<path fill="#333333" d="M76,58H48c-5.5,0-10,4.5-10,10v100c0,5.5,4.5,10,10,10h28c5.5,0,10-4.5,10-10V68C86,62.5,81.5,58,76,58z"
			/>
	</g>
</g>
</svg>
