<?xml version="1.0" encoding="utf-8"?>
<!-- Generator: Adobe Illustrator 24.2.1, SVG Export Plug-In . SVG Version: 6.00 Build 0)  -->
<svg version="1.1" id="图层_2" xmlns="http://www.w3.org/2000/svg" xmlns:xlink="http://www.w3.org/1999/xlink" x="0px" y="0px"
	 viewBox="0 0 200 200" enable-background="new 0 0 200 200" xml:space="preserve">
<path fill="#333333" d="M172.1,18.2H27.9c-8,0-14.4,6.5-14.4,14.4v106.5c0,8,6.5,14.4,14.4,14.4h61.7v13.4h-23c-5.5,0-10,4.5-10,10
	c0,5.5,4.5,10,10,10h33h0h33.9c5.5,0,10-4.5,10-10c0-5.5-4.5-10-10-10h-23.9v-13.4h62.5c8,0,14.4-6.5,14.4-14.4V32.6
	C186.5,24.6,180.1,18.2,172.1,18.2z M114.5,59.3c0-1.7,1.4-3.1,3.1-3.1h18.1c1.5-0.2,2.9,0.9,3.1,2.4c0,0.2,0,0.4,0,0.7v25.6
	c0,1.7-1.3,3.1-4,3c-2.5-0.1-4-1.3-4-3V64.2h-13.1c-1.5,0.2-2.9-0.9-3.1-2.4C114.5,61.6,114.5,59.5,114.5,59.3z M60.3,44.3
	c0.2,0,0.4,0,0.6,0h41.9c3.2-0.2,5.9,2.3,6.1,5.5c0,0.2,0,0.4,0,0.6v18.1c0.2,3.2-2.3,5.9-5.5,6.1c-0.2,0-0.4,0-0.6,0H61
	c-3.2,0.2-5.9-2.3-6.1-5.5c0-0.2,0-0.4,0-0.6V50.4C54.7,47.2,57.1,44.4,60.3,44.3z M145.8,126c-0.2,0-0.4,0-0.6,0h-23.9
	c-3.2,0.2-5.9-2.3-6.1-5.5c0-0.2,0-0.4,0-0.6v-6.1H84.8v6.1c0.2,3.2-2.3,5.9-5.5,6.1c-0.2,0-0.4,0-0.6,0H54.9
	c-3.2,0.2-5.9-2.3-6.1-5.5c0-0.2,0-0.4,0-0.6c0.3-0.3,0.3-20,0.3-20c-0.2-3.2,2.3-5.9,5.5-6.1c0.2,0,0.4,0,0.6,0H79
	c3.2-0.2,5.9,2.3,6.1,5.5c0,0.2,0,0.4,0,0.6v6.1h30v-6.1c-0.2-3.2,2.3-5.9,5.5-6.1c0.2,0,0.4,0,0.6,0h23.9c3.2-0.2,5.9,2.3,6.1,5.5
	c0,0.2,0,0.4,0,0.6v20C151.4,123.1,149,125.8,145.8,126z"/>
</svg>
