<svg id="图层_1" data-name="图层 1" xmlns="http://www.w3.org/2000/svg" viewBox="0 0 200 200"><path d="M100,64.07a16.23,16.23,0,1,0,16.22,16.22A16.22,16.22,0,0,0,100,64.07Zm0,24.33a8.11,8.11,0,1,1,8.11-8.11A8.11,8.11,0,0,1,100,88.4Z"/><path d="M166.8,10.44H33.2A23.27,23.27,0,0,0,10,33.64v90.8a23.27,23.27,0,0,0,23.2,23.2H77.47L53.88,189.56h92.24l-22.54-41.92H166.8a23.27,23.27,0,0,0,23.2-23.2V33.64A23.27,23.27,0,0,0,166.8,10.44ZM140,84.52a3.7,3.7,0,0,1-3.69,3.69h-7.78a29.53,29.53,0,0,1-2.75,6.63l5.52,5.52a3.69,3.69,0,0,1,0,5.22l-6,6a3.71,3.71,0,0,1-5.22,0l-5.52-5.53a28.37,28.37,0,0,1-6.62,2.75v7.81a3.69,3.69,0,0,1-3.69,3.68H95.77a3.69,3.69,0,0,1-3.69-3.68v-7.79a29.26,29.26,0,0,1-6.62-2.75l-5.52,5.52a3.69,3.69,0,0,1-5.22,0l-6-6a3.68,3.68,0,0,1,0-5.21l5.52-5.52a29.53,29.53,0,0,1-2.75-6.63h-7.8A3.7,3.7,0,0,1,60,84.54V76.06a3.7,3.7,0,0,1,3.69-3.68h7.78a29.53,29.53,0,0,1,2.75-6.63L68.7,60.23a3.69,3.69,0,0,1,0-5.22l6-6a3.71,3.71,0,0,1,5.22,0l5.52,5.52a28.78,28.78,0,0,1,6.62-2.74V44a3.7,3.7,0,0,1,3.69-3.69h8.48A3.7,3.7,0,0,1,107.92,44v7.8a28.78,28.78,0,0,1,6.62,2.74L120.06,49a3.71,3.71,0,0,1,5.22,0l6,6a3.69,3.69,0,0,1,0,5.22l-5.52,5.52a29.53,29.53,0,0,1,2.75,6.63h7.8A3.7,3.7,0,0,1,140,76.05Z"/></svg>