<?xml version="1.0" encoding="utf-8"?>
<!-- Generator: Adobe Illustrator 24.2.1, SVG Export Plug-In . SVG Version: 6.00 Build 0)  -->
<svg version="1.1" id="图层_2" xmlns="http://www.w3.org/2000/svg" xmlns:xlink="http://www.w3.org/1999/xlink" x="0px" y="0px"
	 viewBox="0 0 200 200" enable-background="new 0 0 200 200" xml:space="preserve">
<g>
	<path fill="#333333" d="M161.2,120.3c-16-16-42-16-58,0c-16,16-16,42,0,58c16,16,42,16,58,0C177.2,162.3,177.2,136.3,161.2,120.3z
		 M138.8,137.6c0-0.8,0.6-1.4,1.4-1.4h8.1c0.7-0.1,1.3,0.4,1.4,1.1c0,0.1,0,0.2,0,0.3v11.6c0,0.8-0.6,1.4-1.8,1.3
		c-1.1-0.1-1.8-0.6-1.8-1.3v-9.3h-5.9c-0.7,0.1-1.3-0.4-1.4-1.1C138.8,138.7,138.8,137.7,138.8,137.6z M111.9,141.8v-8.1
		c-0.1-1.4,1-2.7,2.5-2.8c0.1,0,0.2,0,0.3,0h18.9c1.4-0.1,2.7,1,2.8,2.5c0,0.1,0,0.2,0,0.3v8.1c0.1,1.4-1,2.7-2.5,2.8
		c-0.1,0-0.2,0-0.3,0h-18.9c-1.4,0.1-2.7-1-2.8-2.5C111.9,142,111.9,141.9,111.9,141.8z M155.3,156v9c0.1,1.4-1,2.7-2.5,2.8
		c-0.1,0-0.2,0-0.3,0h-10.8c-1.4,0.1-2.7-1-2.8-2.5c0-0.1,0-0.2,0-0.3v-2.8h-13.7v2.8c0.1,1.4-1,2.7-2.5,2.8c-0.1,0-0.2,0-0.3,0
		h-10.8c-1.4,0.1-2.7-1-2.8-2.5c0-0.1,0-0.2,0-0.3c0.1-0.1,0.1-9,0.1-9c-0.1-1.4,1-2.7,2.5-2.8c0.1,0,0.2,0,0.3,0h10.8
		c1.4-0.1,2.7,1,2.8,2.5c0,0.1,0,0.2,0,0.3v2.8H139V156c-0.1-1.4,1-2.7,2.5-2.8c0.1,0,0.2,0,0.3,0h10.8c1.4-0.1,2.7,1,2.8,2.5
		C155.3,155.8,155.3,155.9,155.3,156z"/>
	<g>
		<path fill="#333333" d="M76.3,149.3c0-31,25.1-56.2,56.2-56.2c7.4,0,14.4,1.4,20.9,4V23.8c0-7.6-6.6-14.3-14.3-14.3h-98
			c-7.6,0-14.3,6.1-14.3,14.3v152.3c0,7.6,6.1,14.3,14.3,14.3h53.2C83.2,180.2,76.3,165.5,76.3,149.3z M52.3,26.9h75.5
			c5.3,0,9.7,4.3,9.7,9.7c0,5.3-4.3,9.7-9.7,9.7H52.3c-5.3,0-9.7-4.3-9.7-9.7C42.6,31.3,46.9,26.9,52.3,26.9z M42.6,72.4
			c0-5.3,4.3-9.7,9.7-9.7h75.5c5.3,0,9.7,4.3,9.7,9.7c0,5.3-4.3,9.7-9.7,9.7H52.3C46.9,82.1,42.6,77.7,42.6,72.4z"/>
	</g>
</g>
</svg>
