<svg id="图层_2" data-name="图层 2" xmlns="http://www.w3.org/2000/svg" viewBox="0 0 200 200"><defs><style>.cls-1{fill:#007aff;}</style></defs><path class="cls-1" d="M100.21,189.52c-1.61,0-3.22,0-4.84-.13-43.5-2.32-82.21-41-84.52-84.52a89.61,89.61,0,0,1,89.39-94.39,88.4,88.4,0,0,1,59.12,22.43l7.21-4.69A5.47,5.47,0,0,1,175,32.51l1.91,35.29A5.47,5.47,0,0,1,169,73L137.48,57a5.48,5.48,0,0,1-.51-9.48l6.27-4.09a71.12,71.12,0,0,0-114.06,60c1.7,36.24,31.41,66,67.66,67.66a71.32,71.32,0,0,0,74.08-63,9.38,9.38,0,0,1,9.32-8.34,9.07,9.07,0,0,1,6.75,3,8.92,8.92,0,0,1,2.24,6.94A89.55,89.55,0,0,1,100.21,189.52Z"/></svg>