<?xml version="1.0" encoding="utf-8"?>
<!-- Generator: Adobe Illustrator 24.2.1, SVG Export Plug-In . SVG Version: 6.00 Build 0)  -->
<svg version="1.1" id="图层_2" xmlns="http://www.w3.org/2000/svg" xmlns:xlink="http://www.w3.org/1999/xlink" x="0px" y="0px"
	 viewBox="0 0 200 200" enable-background="new 0 0 200 200" xml:space="preserve">
<path fill="#333333" d="M100,14.9c-62.1,0-85.1,54.3-85.1,84.8s22.1,85.4,83.3,85.4c0,0,15.2,0.3,15.2-13.5c0-13.7-6.8-9.3-6.8-19.2
	c-0.8-6.6,3.6-12.8,10.1-14.3c12.4,1,24.9,0,36.9-3c18.5-7.2,30.9-24.8,31.5-44.7C181.2,46.7,143.9,13.6,100,14.9z M48.1,100
	c-8.2,0-14.9-6.6-14.9-14.8c0-8.2,6.6-14.9,14.8-14.9c8.2,0,14.9,6.6,14.9,14.8c0,0,0,0,0,0.1C62.9,93.4,56.3,100,48.1,100
	C48.1,100,48.1,100,48.1,100z M76,63.3c-8.2,0-14.8-6.6-14.9-14.8c0-8.2,6.6-14.8,14.8-14.9c8.2,0,14.8,6.6,14.9,14.8c0,0,0,0,0,0.1
	C90.8,56.7,84.2,63.3,76,63.3C76,63.4,76,63.4,76,63.3L76,63.3L76,63.3z M123.4,63.3c-8.2,0-14.9-6.6-14.9-14.8
	c0-8.2,6.6-14.9,14.8-14.9c8.2,0,14.9,6.6,14.9,14.8c0,0,0,0,0,0.1C138.2,56.7,131.6,63.3,123.4,63.3L123.4,63.3z M151.5,100
	c-8.2,0-14.9-6.6-14.9-14.8c0-8.2,6.6-14.9,14.8-14.9c8.2,0,14.9,6.6,14.9,14.8c0,0,0,0,0,0.1C166.3,93.4,159.7,100,151.5,100z"/>
</svg>
