<?xml version="1.0" encoding="utf-8"?>
<!-- Generator: Adobe Illustrator 24.2.1, SVG Export Plug-In . SVG Version: 6.00 Build 0)  -->
<svg version="1.1" id="图层_2" xmlns="http://www.w3.org/2000/svg" xmlns:xlink="http://www.w3.org/1999/xlink" x="0px" y="0px"
	 viewBox="0 0 200 200" enable-background="new 0 0 200 200" xml:space="preserve">
<path fill="#333333" d="M100,12c48.6,0,88,39.4,88,88s-39.4,88-88,88s-88-39.4-88-88S51.4,12,100,12z M100,128.2
	c-5.3-0.2-9.7,3.9-9.9,9.2c-0.2,5.3,3.9,9.7,9.2,9.9c0.2,0,0.5,0,0.7,0c5.3-0.2,9.4-4.6,9.2-9.9C109,132.4,105,128.4,100,128.2z
	 M100.8,47.1c-13.9-0.5-26.7,7.7-32,20.6l-0.6,1.6L68,69.9c-0.4,2,0.7,4,2.6,4.7l0.7,0.2L83,77.2c1.4,0.3,2.8-0.5,3.3-1.8l0.4-1
	c3.4-7.1,11.9-10.2,19.1-6.8c7.1,3.4,10.2,11.9,6.8,19.1c-2.2,4.6-6.6,7.7-11.7,8.1l-1.2,0l-1.4,0.1c-4.3,0.6-7.6,4.1-8.1,8.4
	l-0.1,1v11.4c0,1.4,1,2.5,2.3,2.8l0.6,0.1h13.4c1.4,0,2.5-1,2.8-2.3l0.1-0.6v-3.3c17.7-5.3,27.7-23.9,22.4-41.6
	C127.5,57.2,115.1,47.7,100.8,47.1L100.8,47.1z"/>
</svg>
