<?xml version="1.0" encoding="utf-8"?>
<!-- Generator: Adobe Illustrator 24.2.1, SVG Export Plug-In . SVG Version: 6.00 Build 0)  -->
<svg version="1.1" id="图层_2" xmlns="http://www.w3.org/2000/svg" xmlns:xlink="http://www.w3.org/1999/xlink" x="0px" y="0px"
	 viewBox="0 0 200 200" enable-background="new 0 0 200 200" xml:space="preserve">
<g>
	<path fill="#333333" d="M71,127.3c0,0-21.3-10.4-29.8-12.4c-1.9-0.4-3.7,0.7-4.2,2.5c-2.6,9.6-13.3,45-16.5,56.7
		c-0.6,2.2,1.1,4.5,3.4,4.5h6.2c1.4,0,2.7-0.8,3.2-2.2c3.6-8.6,14-40.1,15.6-40.1c11.9-0.1,21.9,15.3,21.5,19.9
		c-0.5,5.7-3.7,12.5-6.3,17.1c-1.3,2.3,0.4,5.2,3.1,5.2h7.1c1.2,0,2.4-0.7,3-1.7c6.4-10.8,8.6-17.5,8.6-21.5
		C86.1,145.4,76.4,129.8,71,127.3z"/>
	<path fill="#333333" d="M91,56.5c10.1,0.2,18.2-8,18-18c-0.2-9.5-7.9-17.2-17.4-17.4c-10.1-0.2-18.2,8-18,18
		C73.8,48.6,81.5,56.3,91,56.5z"/>
	<path fill="#333333" d="M178.9,171l-29.7-56.2c-4.8-8.3-14.9-2.4-19.7,5.9l-12.9,18l-6.8-6.4c0.1-0.8,0.1-1.9-0.1-3
		c-2.2-12.7-11.9-56.2-19-63.2c-0.2-0.2-0.5-0.4-0.8-0.6L68,53.9c-1.1-0.6-2.4-0.9-3.6-0.8c-7.7,0.4-25.2,2.9-30.8,3.8
		c-1.1,0.2-2.1,0.9-2.6,1.9c-1.8,3.5-6.9,12.1-9.8,18.8c-1.1,2.6-0.5,5.7,1.5,7.7l3.8,3.1l13.1,10.1c1.2,0.9,1.7,2.4,1.2,3.8
		c-1.2,3.7-0.1,1-0.6,2.7c-0.4,1.7,0.5,3.6,2.2,4.2c6,2.2,22.2,10.7,28.4,12.5c1.7,0.5,1.4-1.3,2.1-3l-0.7-0.9l38.7,29.6l-15.4,26.3
		c-1.4,2.3,0.3,5.3,3.1,5.3h75.7C178.4,178.9,180.9,174.5,178.9,171z M52.3,72.8C50.6,76,49,79.6,47,84.8c-0.9,2.3-3.9,3-5.7,1.3
		l-7-6.6c-0.4-0.3,2.6-6.7,4.5-10.1c0.6-1.2,1.9-1.9,3.2-1.9l7.4,0.2C51.9,67.7,53.5,70.5,52.3,72.8z M76.6,107l4.7-11.7
		c1.2-3.1,5.7-2.9,6.6,0.3c2.5,8.2,6.1,20.7,9.9,29L76.6,107z"/>
</g>
</svg>
