<?xml version="1.0" encoding="utf-8"?>
<!-- Generator: Adobe Illustrator 24.2.1, SVG Export Plug-In . SVG Version: 6.00 Build 0)  -->
<svg version="1.1" id="图层_2" xmlns="http://www.w3.org/2000/svg" xmlns:xlink="http://www.w3.org/1999/xlink" x="0px" y="0px"
	 viewBox="0 0 200 200" enable-background="new 0 0 200 200" xml:space="preserve">
<g>
	<path fill="#333333" d="M150.9,34.5V20h-14.5v14.5H63.6V20H49.1v14.5H35.4c-8.5,0-15.4,6.9-15.4,15.4v114.7
		c0,8.5,6.9,15.4,15.4,15.4h129.2c8.5,0,15.4-6.9,15.4-15.4V49.9c0-8.5-6.9-15.4-15.4-15.4H150.9z M165.5,165.5H34.5V78.2h130.9
		V165.5z"/>
	<rect x="131.6" y="130.1" fill="#333333" width="21.8" height="21.8"/>
	<rect x="131.6" y="93.8" fill="#333333" width="21.8" height="21.8"/>
	<rect x="91.6" y="93.8" fill="#333333" width="21.8" height="21.8"/>
	<rect x="51.6" y="93.8" fill="#333333" width="21.8" height="21.8"/>
	<rect x="51.6" y="130.1" fill="#333333" width="21.8" height="21.8"/>
	<rect x="91.6" y="130.1" fill="#333333" width="21.8" height="21.8"/>
</g>
</svg>
