<?xml version="1.0" encoding="utf-8"?>
<!-- Generator: Adobe Illustrator 24.2.1, SVG Export Plug-In . SVG Version: 6.00 Build 0)  -->
<svg version="1.1" id="图层_2" xmlns="http://www.w3.org/2000/svg" xmlns:xlink="http://www.w3.org/1999/xlink" x="0px" y="0px"
	 viewBox="0 0 200 200" enable-background="new 0 0 200 200" xml:space="preserve">
<g>
	<g>
		<g>
			<path fill="#333333" d="M119.6,76.6H65.1c-3.3,0-6-2.7-6-6s2.7-6,6-6h54.5c3.3,0,6,2.7,6,6S123,76.6,119.6,76.6z"/>
		</g>
		<g>
			<path fill="#333333" d="M119.6,106.7H65.1c-3.3,0-6-2.7-6-6s2.7-6,6-6h54.5c3.3,0,6,2.7,6,6S123,106.7,119.6,106.7z"/>
		</g>
		<g>
			<path fill="#333333" d="M97.4,136.9H65.1c-3.3,0-6-2.7-6-6s2.7-6,6-6h32.3c3.3,0,6,2.7,6,6S100.7,136.9,97.4,136.9z"/>
		</g>
		<g>
			<path fill="#333333" d="M104.1,170h-53c-11,0-20-9-20-20V43.3c0-11,9-20,20-20h65c5.3,0,10.4,2.1,14.1,5.9l31.4,31.4
				c2.6,2.6,4.1,6.2,4.1,9.9v32c0,3.3-2.7,6-6,6s-6-2.7-6-6v-32c0-0.5-0.2-1-0.6-1.4l-31.4-31.4c-1.5-1.5-3.5-2.3-5.7-2.3h-65
				c-4.4,0-8,3.6-8,8V150c0,4.4,3.6,8,8,8h53c3.3,0,6,2.7,6,6S107.4,170,104.1,170z"/>
		</g>
	</g>
	<g>
		<path fill="#333333" d="M164.8,129.1c6.4,10.4,5.3,23.2-3.4,31.9c-4.6,4.6-10.9,7.3-17.5,7.4v6.1c0,0.6-0.2,1.1-0.6,1.5
			c-0.8,0.8-2.2,0.8-3,0l-10.6-10.6c-0.8-0.8-0.8-2.2,0-3l10.6-10.6c0.8-0.8,2.2-0.8,3,0c0.4,0.4,0.6,0.9,0.6,1.5v6.5
			c4.3-0.1,8.5-1.9,11.5-5c4.2-4.2,5.9-10.3,4.5-16.1c-0.4-1.5-1-2.7-1.5-4c-0.2-0.4-0.2-0.9,0.2-1.3l4.5-4.5c0.4-0.4,1.1-0.4,1.5,0
			C164.7,129,164.8,129,164.8,129.1z M156.9,120c0.8,0.8,0.8,2.2,0,3l-10.6,10.6c-0.8,0.8-2.2,0.8-3,0c-0.4-0.4-0.6-0.9-0.6-1.5
			v-6.5c-4.3,0.2-8.5,2-11.5,5c-4.2,4.2-5.9,10.3-4.5,16.1c0.4,1.5,1,2.7,1.5,4c0.2,0.4,0.2,0.9-0.2,1.3l-4.7,4.7
			c-0.4,0.4-1.1,0.4-1.5,0c0,0-0.1-0.1-0.2-0.2c-6.4-10.4-5.2-23.2,3.5-32c4.6-4.6,11-7.3,17.5-7.5l0-6.1c0-0.6,0.2-1.1,0.6-1.5
			c0.8-0.8,2.2-0.8,3,0L156.9,120z"/>
	</g>
</g>
</svg>
