<?xml version="1.0" encoding="utf-8"?>
<!-- Generator: Adobe Illustrator 22.0.1, SVG Export Plug-In . SVG Version: 6.00 Build 0)  -->
<svg version="1.1" id="图层_1" xmlns="http://www.w3.org/2000/svg" xmlns:xlink="http://www.w3.org/1999/xlink" x="0px" y="0px"
	 viewBox="0 0 200 200" enable-background="new 0 0 200 200" xml:space="preserve">
<g id="图层_1_1_">
	<g>
		<path fill="#6883D8" d="M47.3,123H35.7c-2.9,0-5.2,2.3-5.2,5.2v53.6c-0.1,3.2,2.5,5.8,5.7,5.8h5.3c6,0,10.9-4.9,10.9-10.9v-48.5
			C52.4,125.3,50.1,123,47.3,123z"/>
		<path fill="#6883D8" d="M152.5,44.6L152.5,44.6h11.6l0,0c2.9,0,5.2-2.3,5.2-5.2v-16c0-6-4.9-10.9-10.9-10.9l0,0l0,0
			c-6,0-10.9,4.9-10.9,10.9v16C147.4,42.3,149.7,44.6,152.5,44.6z"/>
		<path fill="#6883D8" d="M94.1,100.7h11.6c2.9,0,5.2-2.3,5.2-5.2V23.4c0-6-4.9-10.9-10.9-10.9l0,0c-6,0-10.9,4.9-10.9,10.9v72.1
			C89,98.4,91.3,100.7,94.1,100.7z"/>
		<path fill="#6883D8" d="M54.5,75.9H28.4c-6.9,0-12.4,5.6-12.4,12.4v11.6c0,6.9,5.6,12.4,12.4,12.4h26.2c6.9,0,12.4-5.6,12.4-12.4
			V88.4C67,81.5,61.4,75.9,54.5,75.9z"/>
		<path fill="#6883D8" d="M35.6,65.4h11.6c2.9,0,5.2-2.3,5.2-5.2V23.3c0-6-4.9-10.9-10.9-10.9h-0.1c-6,0-10.9,4.9-10.9,10.9v36.8
			C30.5,63.1,32.8,65.4,35.6,65.4z"/>
		<path fill="#6883D8" d="M176.6,56.2L176.6,56.2h-31.3c-6.9,0-12.4,5.6-12.4,12.4v11.6c0,6.9,5.6,12.4,12.4,12.4h26.2
			c6.9,0,12.4-5.6,12.4-12.4V63.5C184,59.5,180.6,56.2,176.6,56.2z"/>
		<path fill="#6883D8" d="M164.2,103.3h-11.6c-2.9,0-5.2,2.3-5.2,5.2v68.2c0,6,4.9,10.9,10.9,10.9l0,0c6,0,10.9-4.9,10.9-10.9v-68.2
			C169.3,105.6,167,103.3,164.2,103.3z"/>
		<path fill="#6883D8" d="M118.2,111.3H86.8c-6.9,0-12.4,5.6-12.4,12.4v11.6c0,6.9,5.6,12.4,12.4,12.4h26.1
			c6.9,0,12.4-5.6,12.4-12.4v-16.7C125.5,114.6,122.2,111.3,118.2,111.3z"/>
		<path fill="#6883D8" d="M105.7,158.3H94.1c-2.9,0-5.2,2.3-5.2,5.2v16.4c0,6,4.9,7.7,10.9,7.7l0,0c6,0,10.9-1.6,10.9-7.7v-16.4
			C110.8,160.6,108.5,158.3,105.7,158.3z"/>
	</g>
</g>
</svg>
