<?xml version="1.0" encoding="utf-8"?>
<!-- Generator: Adobe Illustrator 22.0.1, SVG Export Plug-In . SVG Version: 6.00 Build 0)  -->
<svg version="1.1" id="图层_1" xmlns="http://www.w3.org/2000/svg" xmlns:xlink="http://www.w3.org/1999/xlink" x="0px" y="0px"
	 viewBox="0 0 200 200" enable-background="new 0 0 200 200" xml:space="preserve">
<g id="图层_1_1_">
	<g>
		<ellipse fill="#6883D8" cx="100" cy="100" rx="32.2" ry="32.2"/>
		<path fill="#6883D8" d="M100.3,9.7C50.4,9.7,10,50.1,10,100s40.4,90.3,90.3,90.3s90.3-40.4,90.3-90.3
			C190.7,50.1,150.2,9.7,100.3,9.7z M165.2,108.8h-17.5c-3.6,19.9-19.3,35.5-39.2,39.2v17.5c0,4.9-4,8.8-8.8,8.8s-8.8-4-8.8-8.8V148
			c-19.9-3.6-35.5-19.3-39.2-39.2H34.1c-4.9,0-8.8-4-8.8-8.8s4-8.8,8.8-8.8h17.5C55.2,71.3,70.9,55.7,90.8,52V34.4
			c0-4.9,4-8.8,8.8-8.8s8.8,4,8.8,8.8v17.5c19.9,3.6,35.5,19.3,39.2,39.2h17.5c4.9,0,8.8,4,8.8,8.8S170,108.8,165.2,108.8z"/>
	</g>
</g>
</svg>
