<?xml version="1.0" encoding="utf-8"?>
<!-- Generator: Adobe Illustrator 24.2.1, SVG Export Plug-In . SVG Version: 6.00 Build 0)  -->
<svg version="1.1" id="图层_2" xmlns="http://www.w3.org/2000/svg" xmlns:xlink="http://www.w3.org/1999/xlink" x="0px" y="0px"
	 viewBox="0 0 200 200" enable-background="new 0 0 200 200" xml:space="preserve">
<g>
	<path fill="#333333" d="M167.6,155.7c12.2-14.8,19.2-33.3,20-52.4l-40.4,1.1c-0.8,8.7-4,16.8-8.9,23.5L167.6,155.7z M146.7,92.8
		l40.4-1.1c-0.3-2.8-0.7-5.5-1.2-8.2c-3.3-17.3-11.6-33-24.1-45.4c-15.1-15-34.9-24-56.1-25.5v40.5C126.9,55.7,143.6,72,146.7,92.8
		L146.7,92.8z"/>
	<path fill="#333333" d="M52.7,100c0-24.2,18.1-44.1,41.5-47V12.5C73,13.9,53.1,22.9,38,38c-34.1,34.1-34.1,89.7,0,123.9
		c32.5,32.5,85,34.3,119.6,4c0.7-0.5,1.3-1.1,2-1.7l-29.4-27.8c-8.2,6.8-18.7,10.9-30.2,10.9C73.9,147.3,52.7,126.1,52.7,100z"/>
</g>
</svg>
