<?xml version="1.0" encoding="utf-8"?>
<!-- Generator: Adobe Illustrator 24.2.1, SVG Export Plug-In . SVG Version: 6.00 Build 0)  -->
<svg version="1.1" id="图层_2" xmlns="http://www.w3.org/2000/svg" xmlns:xlink="http://www.w3.org/1999/xlink" x="0px" y="0px"
	 viewBox="0 0 200 200" enable-background="new 0 0 200 200" xml:space="preserve">
<g>
	<path fill="#333333" d="M126.8,141H35.1c-7.7,0-14-6.3-14-14V35.4c0-7.7,6.3-14,14-14h91.7c7.7,0,14,6.3,14,14V127
		C140.8,134.8,134.5,141,126.8,141z"/>
</g>
<g>
	<path fill="#333333" d="M159.3,36.7h-4.7v16h4.7c3.3,0,6,2.7,6,6V155c0,3.3-2.7,6-6,6H62.9c-3.2,0-5.9-2.6-6-5.8h-16
		c0.1,12,9.9,21.8,22,21.8h96.4c12.1,0,22-9.9,22-22V58.7C181.3,46.5,171.4,36.7,159.3,36.7z"/>
</g>
</svg>
