<svg id="图层_2" data-name="图层 2" xmlns="http://www.w3.org/2000/svg" viewBox="0 0 200 200"><defs><style>.cls-1{fill:#007aff;}</style></defs><path class="cls-1" d="M164.41,35.58h0A90.57,90.57,0,0,0,100,9,91.62,91.62,0,0,0,35.57,35.58h0a91.26,91.26,0,0,0,0,128.84c16.32,16.75,39.51,26.63,64.42,26.63a90.85,90.85,0,0,0,64.42-26.63C181.16,148.1,191,125.34,191,100A87.42,87.42,0,0,0,164.41,35.58Zm-9.88,119A77.24,77.24,0,0,1,100,177.3a75.5,75.5,0,0,1-54.54-22.76A77.25,77.25,0,0,1,22.69,100,75.5,75.5,0,0,1,45.45,45.46C59.62,31.72,79,22.7,100,22.7A76.66,76.66,0,0,1,154.11,45l.42.43A77.22,77.22,0,0,1,177.3,100,75.47,75.47,0,0,1,154.53,154.54Z"/><path class="cls-1" d="M77.61,50.78,116,72.87,154.34,95a5.64,5.64,0,0,1,1.94,7.75L154,105l-38.37,22.09h0L77.22,149.22a5.65,5.65,0,0,1-7.75-1.94,9.29,9.29,0,0,1-.77-3.1V100h0V55.43A5.29,5.29,0,0,1,74.12,50a7.84,7.84,0,0,1,3.49.77Z"/></svg>