<?xml version="1.0" encoding="utf-8"?>
<!-- Generator: Adobe Illustrator 22.0.1, SVG Export Plug-In . SVG Version: 6.00 Build 0)  -->
<svg version="1.1" id="图层_1" xmlns="http://www.w3.org/2000/svg" xmlns:xlink="http://www.w3.org/1999/xlink" x="0px" y="0px"
	 viewBox="0 0 200 200" enable-background="new 0 0 200 200" xml:space="preserve">
<path fill="#333333" d="M100,25c-41.4,0-75,33.6-75,75s33.6,75,75,75s75-33.6,75-75S141.4,25,100,25z M100,43c12.5,0,24,4,33.4,10.9
	l-79.6,79.5C47,124,43,112.5,43,100C43,68.6,68.6,43,100,43z M100,157c-12.5,0-24-4-33.4-10.9l79.6-79.5C153,76,157,87.5,157,100
	C157,131.4,131.4,157,100,157z"/>
</svg>
