<svg id="图层_1" data-name="图层 1" xmlns="http://www.w3.org/2000/svg" viewBox="0 0 200 200"><defs><style>.cls-1{fill:#515151;}</style></defs><path class="cls-1" d="M67,113.65l25.5,25.48a10,10,0,0,0,14.14,0l25.49-25.48a10,10,0,0,0,.79-13.24l-.79-.89a10,10,0,0,0-14.13,0L109.56,108V29.38a10,10,0,0,0-20,0v78.55l-8.42-8.41a10,10,0,0,0-17,5.81,9.92,9.92,0,0,0,2,7.43Z"/><path class="cls-1" d="M170.6,105.55a10.22,10.22,0,0,0-9.34,10.32V151.8a4,4,0,0,1-4,4H40.16a4,4,0,0,1-4-4V115.87a10.22,10.22,0,0,0-9.33-10.32,10,10,0,0,0-10.67,10V165.8a10,10,0,0,0,10,10h145.1a10,10,0,0,0,10-10V115.53A10,10,0,0,0,170.6,105.55Z"/></svg>