<svg id="图层_2" data-name="图层 2" xmlns="http://www.w3.org/2000/svg" viewBox="0 0 200 200"><defs><style>.cls-1{fill:#007aff;}</style></defs><path class="cls-1" d="M17.42,43l165.16-.28a7.31,7.31,0,0,1,7.74,7.73v98.85a7.31,7.31,0,0,1-7.74,7.74l-165.16.28a7.3,7.3,0,0,1-7.74-7.73V50.72A7.31,7.31,0,0,1,17.42,43Zm6.16,10a3.65,3.65,0,0,0-3.87,3.86v86.6a3.65,3.65,0,0,0,3.87,3.86L176.45,147a3.65,3.65,0,0,0,3.87-3.86V56.56a3.65,3.65,0,0,0-3.87-3.86Z"/><path class="cls-1" d="M169.13,94.14V73.86a8.74,8.74,0,0,0-8.75-8.74h-1l-42.15-.48H39.61a8.75,8.75,0,0,0-8.74,8.74V94.14ZM108.57,75.47h39.17a5.14,5.14,0,1,1,0,10.27H108.57a5.14,5.14,0,1,1,0-10.27Zm-44.43.65a6,6,0,1,1-1.3,6.53A6,6,0,0,1,64.14,76.12Zm-18,0a6,6,0,1,1-1.3,6.53A6,6,0,0,1,46.12,76.12Z"/><path class="cls-1" d="M30.87,105.86v20.28a8.74,8.74,0,0,0,8.74,8.74l120.78.48a8.75,8.75,0,0,0,8.74-8.74V105.86Zm19.49,19.77a6,6,0,1,1,6-6A6,6,0,0,1,50.36,125.63Zm18,0a6,6,0,1,1,6-6A6,6,0,0,1,68.38,125.63Zm79.36-.61H108.57a5.14,5.14,0,1,1,0-10.27h39.17a5.14,5.14,0,1,1,0,10.27Z"/></svg>