<?xml version="1.0" encoding="utf-8"?>
<!-- Generator: Adobe Illustrator 22.0.1, SVG Export Plug-In . SVG Version: 6.00 Build 0)  -->
<svg version="1.1" id="图层_1" xmlns="http://www.w3.org/2000/svg" xmlns:xlink="http://www.w3.org/1999/xlink" x="0px" y="0px"
	 viewBox="0 0 200 200" enable-background="new 0 0 200 200" xml:space="preserve">
<g>
	<path fill="#6883D8" d="M77,141.3h-5.8c-4.1,0-7.5-3.4-7.5-7.5s3.4-7.5,7.5-7.5h4.7c0.4-7.8,2.3-15.5,5.7-22.6H71.2
		c-4.1,0-7.5-3.4-7.5-7.5s3.4-7.5,7.5-7.5h20.6c0.5-0.6,1.1-1.2,1.6-1.7c17.5-17.5,43.1-22,64.7-13.4V40c0-9.7-7.9-17.6-17.6-17.6
		H37.5C27.8,22.5,20,30.3,20,40v112.9c0,9.7,7.9,17.6,17.6,17.6h54.5C84.1,162.2,79.1,151.9,77,141.3z M63.6,58.5
		c0-4.1,3.4-7.5,7.5-7.5h61.9c4.1,0,7.5,3.4,7.5,7.5l0,0c0,4.1-3.4,7.5-7.5,7.5H71.2C67.1,66.1,63.6,62.6,63.6,58.5L63.6,58.5z
		 M52.5,134.4c0,3.8-3.1,6.9-6.9,6.9h-1.2c-3.8,0-6.9-3.1-6.9-6.9v-1.2c0-3.8,3.1-6.9,6.9-6.9h1.2c3.8,0,6.9,3.1,6.9,6.9V134.4z
		 M52.5,96.8c0,3.8-3.1,6.9-6.9,6.9h-1.2c-3.8,0-6.9-3.1-6.9-6.9v-1.2c0-3.8,3.1-6.9,6.9-6.9h1.2c3.8,0,6.9,3.1,6.9,6.9V96.8z
		 M52.5,59.1c0,3.8-3.1,6.9-6.9,6.9h-1.2c-3.8,0-6.9-3.1-6.9-6.9v-1.2c0-3.8,3.1-6.9,6.9-6.9h1.2c3.8,0,6.9,3.1,6.9,6.9V59.1z"/>
	<g>
		<path fill="#6883D8" d="M136.1,81.6c-26.5,0-48,21.5-48,48s21.5,48,48,48s48-21.5,48-48S162.6,81.6,136.1,81.6z M158.4,153.2
			c-1.8,1.3-4,2.2-6.2,2.2c-2.6,0-6.2-1.3-8.4-3.5l-10.6-10.6c-1.8,0-4,0.4-6.6,0.4c-4.4,0-9.2-0.9-12.8-4.4
			c-6.6-6.6-7.5-17.6-4.4-25.1l13.2,13.2l7.9-7.9l-13.2-13.2c3.5-2.2,7-3.1,10.1-3.1c5.7,0,10.6,2.6,15,7c5.7,5.7,6.6,12.3,4,19.8
			l10.6,10.6C161.6,143.1,161.9,149.7,158.4,153.2z"/>
		<circle fill="#6883D8" cx="151.9" cy="146.7" r="5.2"/>
	</g>
</g>
<g id="图层_1_1_">
</g>
</svg>
