<svg id="图层_2" data-name="图层 2" xmlns="http://www.w3.org/2000/svg" viewBox="0 0 200 200"><defs><style>.cls-1{fill:#007aff;}</style></defs><path class="cls-1" d="M33.74,165.38H19.45a7.14,7.14,0,1,1,0-14.28H33.74a7.14,7.14,0,1,1,0,14.28Z"/><path class="cls-1" d="M138,165.38H112a7.14,7.14,0,1,1,0-14.28H138a7.14,7.14,0,1,1,0,14.28Zm-52.16,0H59.81a7.14,7.14,0,0,1,0-14.28H85.88a7.14,7.14,0,1,1,0,14.28Z"/><path class="cls-1" d="M178.4,165.38H164.11a7.14,7.14,0,0,1,0-14.28H178.4a7.14,7.14,0,0,1,0,14.28Z"/><path class="cls-1" d="M139.76,130c-23.55,0-38.56-24.15-51.87-45.55C79.6,71.15,70.2,56,62.27,53.81c-20.11-5.31-32.43,28-32.55,28.35a9.29,9.29,0,0,1-17.48-6.27c6.59-18.47,25.62-47.7,54.89-40,15,4.22,25.47,21,36.53,38.81,11.58,18.63,23.24,38,37.09,36.76,23-3,29.08-34.7,29.13-35a9.29,9.29,0,0,1,18.29,3.27c-.33,1.85-8.47,45.34-45.44,50.2C141.73,130,140.74,130,139.76,130Z"/></svg>