<?xml version="1.0" standalone="no"?><!DOCTYPE svg PUBLIC "-//W3C//DTD SVG 1.1//EN" "http://www.w3.org/Graphics/SVG/1.1/DTD/svg11.dtd"><svg t="1591605471574" class="icon" viewBox="0 0 1024 1024" version="1.1" xmlns="http://www.w3.org/2000/svg" p-id="11448" xmlns:xlink="http://www.w3.org/1999/xlink" width="200" height="200"><defs><style type="text/css"></style></defs><path d="M569.230222 692.167111a39.992889 39.992889 0 0 0-52.110222 7.850667L343.608889 897.024a153.827556 153.827556 0 0 1-213.105778 15.985778 153.941333 153.941333 0 0 1-12.970667-218.453334l171.064889-193.763555a37.319111 37.319111 0 0 0-6.883555-55.409778 39.992889 39.992889 0 0 0-52.167111 7.850667L56.149333 650.183111a224.369778 224.369778 0 0 0 22.584889 318.407111 230.741333 230.741333 0 0 0 322.56-22.243555l174.535111-198.769778a37.319111 37.319111 0 0 0-6.599111-55.409778z m419.669334-581.006222A220.672 220.672 0 0 0 678.513778 35.384889L456.476444 179.541333c-17.635556 11.946667-22.755556 35.612444-11.719111 53.816889a36.807111 36.807111 0 0 0 51.712 12.629334L718.506667 101.831111a147.057778 147.057778 0 0 1 206.904889 50.289778 160.256 160.256 0 0 1-46.876445 215.267555l-222.72 144.156445c-17.635556 11.946667-22.755556 35.612444-11.662222 53.76a36.807111 36.807111 0 0 0 51.655111 12.686222l222.094222-144.156444a240.355556 240.355556 0 0 0 70.997334-322.673778z m-644.551112 537.6a41.870222 41.870222 0 0 0 55.466667-4.494222l283.704889-283.761778a40.391111 40.391111 0 0 0-3.072-59.904 41.870222 41.870222 0 0 0-55.523556 4.494222L341.333333 588.8a40.391111 40.391111 0 0 0 3.015111 59.904zM28.899556 430.648889a15.985778 15.985778 0 0 0 24.632888 8.988444L200.647111 361.244444a10.069333 10.069333 0 0 0-5.12-18.773333L30.890667 334.279111a15.985778 15.985778 0 0 0-15.985778 22.129778L28.956444 430.648889z m6.257777-259.754667l196.608 72.362667a10.069333 10.069333 0 0 0 11.036445-15.985778l-135.964445-157.013333a15.985778 15.985778 0 0 0-27.079111 1.137778L26.567111 145.806222a16.042667 16.042667 0 0 0 8.647111 25.144889z m290.360889 26.908445a10.069333 10.069333 0 0 0 19.228445 0L401.408 37.660444a16.042667 16.042667 0 0 0-13.880889-21.788444L318.008889 10.410667a15.985778 15.985778 0 0 0-18.090667 20.650666l25.6 166.684445z" p-id="11449"></path></svg>