<?xml version="1.0" standalone="no"?><!DOCTYPE svg PUBLIC "-//W3C//DTD SVG 1.1//EN" "http://www.w3.org/Graphics/SVG/1.1/DTD/svg11.dtd"><svg t="1591605047280" class="icon" viewBox="0 0 1024 1024" version="1.1" xmlns="http://www.w3.org/2000/svg" p-id="6447" xmlns:xlink="http://www.w3.org/1999/xlink" width="200" height="200"><defs><style type="text/css"></style></defs><path d="M799.04 530.112c0.384-5.984 0.96-12 0.96-18.112s-0.576-12.064-0.928-18.08c59.84-35.616 80.448-113.408 45.504-173.888a128.256 128.256 0 0 0-172.992-47.712 281.92 281.92 0 0 0-31.744-18.08C638.784 184.64 581.792 128 512 128s-126.816 56.64-127.808 126.208c-11.008 5.44-21.632 11.328-31.744 18.08A128.288 128.288 0 0 0 179.456 320a128.288 128.288 0 0 0 45.504 173.856c-0.48 6.016-0.96 12.032-0.96 18.144s0.512 12.128 0.928 18.144c-59.808 35.648-80.384 113.408-45.504 173.888a128.32 128.32 0 0 0 173.056 47.68c10.048 6.72 20.736 12.64 31.68 18.048C385.184 839.36 442.176 896 512 896s126.816-56.64 127.808-126.208c10.944-5.44 21.632-11.328 31.744-18.08a128.256 128.256 0 0 0 172.992-47.648 128.416 128.416 0 0 0-45.504-173.952z m-63.552-27.68c0.256 3.168 0.512 6.304 0.512 9.568 0 3.424-0.32 6.816-0.576 10.144l-2.88 42.848 33.76 20.128a64.192 64.192 0 0 1 22.816 86.912 64.224 64.224 0 0 1-86.432 23.744l-34.112-19.008-32.544 21.664a224.256 224.256 0 0 1-24.704 14.016l-34.944 17.376-0.576 39.04C575.296 803.68 546.656 832 512 832s-63.328-28.32-63.808-63.136l-0.576-39.04-34.944-17.376a229.12 229.12 0 0 1-24.672-13.984l-32.512-21.728-34.112 19.008A64.128 64.128 0 0 1 234.912 672a64.192 64.192 0 0 1 22.784-86.912l33.76-20.096-2.944-42.88A132.032 132.032 0 0 1 288 512c0-3.424 0.288-6.816 0.512-10.144l2.944-42.88-33.76-20.096A64.16 64.16 0 0 1 234.88 352a64.256 64.256 0 0 1 86.4-23.744l34.112 18.976 32.512-21.664c6.976-4.672 15.072-9.216 24.672-14.016l35.008-17.344 0.576-39.104C448.672 220.32 477.312 192 512 192s63.328 28.32 63.808 63.136l0.576 39.104 35.008 17.344c9.696 4.8 17.76 9.376 24.64 13.952l32.448 21.76 34.176-19.008a64.416 64.416 0 0 1 86.56 23.776 64.224 64.224 0 0 1-22.88 86.88l-33.568 20 2.72 43.488z" p-id="6448"></path><path d="M512 384a128 128 0 1 0 0 256 128 128 0 0 0 0-256z m0 192c-35.328 0-64-28.704-64-64s28.672-64 64-64c35.264 0 64 28.704 64 64s-28.768 64-64 64z" p-id="6449"></path></svg>