<?xml version="1.0" encoding="utf-8"?>
<!-- Generator: Adobe Illustrator 22.0.1, SVG Export Plug-In . SVG Version: 6.00 Build 0)  -->
<svg version="1.1" id="图层_1" xmlns="http://www.w3.org/2000/svg" xmlns:xlink="http://www.w3.org/1999/xlink" x="0px" y="0px"
	 viewBox="0 0 200 200" enable-background="new 0 0 200 200" xml:space="preserve">
<polygon fill="#6883D8" points="141.8,189.5 141.8,153.7 177.6,153.7 "/>
<g id="图层_1_1_">
	<g>
		<path fill="#6883D8" d="M153.7,10.4H46.3c-13.2,0-23.9,10.7-23.9,23.9v131.3c0,13.2,10.7,23.9,23.9,23.9h79.5v-45.8
			c0-3.3,2.7-6,6-6h45.8V34.3C177.6,21.1,166.9,10.4,153.7,10.4z M133.9,114.4c-18.7,18.7-49.1,18.7-67.9,0
			c-18.7-18.7-18.7-49.1,0-67.9s49.1-18.7,67.9,0S152.7,95.8,133.9,114.4z"/>
		<path fill="#6883D8" d="M123,92l-16.5-12.3V54.5c0-4.1-3.4-7.5-7.5-7.5s-7.5,3.4-7.5,7.5v29c0,2.4,1.1,4.6,3,6L114,104
			c1.3,1,2.9,1.5,4.5,1.5c2.3,0,4.6-1,6-3C127,99.3,126.3,94.5,123,92z"/>
	</g>
</g>
</svg>
