<?xml version="1.0" encoding="utf-8"?>
<!-- Generator: Adobe Illustrator 24.2.1, SVG Export Plug-In . SVG Version: 6.00 Build 0)  -->
<svg version="1.1" id="图层_2" xmlns="http://www.w3.org/2000/svg" xmlns:xlink="http://www.w3.org/1999/xlink" x="0px" y="0px"
	 viewBox="0 0 200 200" enable-background="new 0 0 200 200" xml:space="preserve">
<g>
	<path fill="#333333" d="M124.4,32.6H75.6c-5.5,0-10-4.5-10-10V20c0-5.5,4.5-10,10-10h48.8c5.5,0,10,4.5,10,10v2.6
		C134.4,28.1,129.9,32.6,124.4,32.6z"/>
	<path fill="#333333" d="M162,24.8h-18.5v5.9c0,7.6-6.2,13.8-13.8,13.8h-62c-7.6,0-13.8-6.2-13.8-13.8v-5.9H38
		c-7.6,0-13.8,6.2-13.8,13.8v137.7c0,7.6,6.2,13.8,13.8,13.8H162c7.6,0,13.8-6.2,13.8-13.8V38.5C175.7,30.9,169.6,24.8,162,24.8z
		 M95.6,173.7c-28.5,0-51.6-23.1-51.6-51.5c0-27.4,19.5-49.9,46.5-51.4v55.8h56.7C146,153.9,123.3,173.7,95.6,173.7z M104.2,112.8
		V62c26.9,0,51.8,23.9,51.8,50.8H104.2z"/>
</g>
</svg>
