<?xml version="1.0" encoding="utf-8"?>
<!-- Generator: Adobe Illustrator 22.0.1, SVG Export Plug-In . SVG Version: 6.00 Build 0)  -->
<svg version="1.1" id="图层_1" xmlns="http://www.w3.org/2000/svg" xmlns:xlink="http://www.w3.org/1999/xlink" x="0px" y="0px"
	 viewBox="0 0 200 200" enable-background="new 0 0 200 200" xml:space="preserve">
<g id="图层_1_1_">
	<g>
		<path fill="#6883D8" d="M59,98.3c21.5,0,38.9-17.4,38.9-38.9s-17.4-39-38.9-39c-5.3,0-10.3,1.1-14.9,3L65,44.3
			c3.8,3.8,3.8,9.9,0,13.7l-7.9,8c-3.8,3.8-9.9,3.8-13.7,0L22.7,45.3C21,49.7,20,54.4,20,59.4C20,80.9,37.5,98.3,59,98.3z"/>
		<path fill="#6883D8" d="M104.1,76.9l-27.6,27.6c12.8,13.8,58.9,60.9,64.2,66.2c8.2,8.2,21.5,8.3,29.7,0.1s8.1-21.4-0.1-29.7
			L104.1,76.9z M161.6,162.1c-3.3,3.3-8.6,3.3-11.9,0c-3.3-3.3-3.3-8.6,0-11.9c3.3-3.3,8.6-3.3,11.9,0
			C164.9,153.6,164.9,158.8,161.6,162.1z"/>
		<polygon fill="#6883D8" points="62.4,136.8 50.5,139.3 29.3,171.6 37.3,179.6 69.6,158.3 72.1,146.6 86.1,131.8 76.4,122.1 		"/>
		<path fill="#6883D8" d="M117.2,75.4l6.9,6.7l0,0l5.9,5.7l0,0l7.9,7.7l3.3,3.2l1.2,1.1l31.4-31.3c8.3-8.3,8.3-21.7,0-30
			s-21.8-8.3-30.1,0l-31.8,31.7l4.2,4.2L117.2,75.4z M162.4,55.5c1.6-1.6,4-1.6,5.5,0c1.5,1.5,1.5,4,0,5.5l-25.8,25.9l-5.6-5.5
			L162.4,55.5z M151.1,44c1.5-1.5,4-1.5,5.5,0c1.6,1.6,1.6,4,0,5.6l-26,26l-5.6-5.5L151.1,44z"/>
	</g>
</g>
</svg>
