<?xml version="1.0" encoding="utf-8"?>
<!-- Generator: Adobe Illustrator 24.2.1, SVG Export Plug-In . SVG Version: 6.00 Build 0)  -->
<svg version="1.1" id="图层_2" xmlns="http://www.w3.org/2000/svg" xmlns:xlink="http://www.w3.org/1999/xlink" x="0px" y="0px"
	 viewBox="0 0 200 200" enable-background="new 0 0 200 200" xml:space="preserve">
<path fill="#333333" d="M192.7,49.3c-6.4-5.9-27.6-26.3-29.8-28.2c-3.1-3.5-7.4-5.7-12-6.2c-4.8-0.2-9.5,1.7-12.8,5.3l-14.8,14.1
	c-7.2,3.7-15.2,5.5-23.2,5.3C92,39.8,84,38,76.8,34.3L62,20.3c-3.3-3.5-8-5.5-12.8-5.3c-4.6,0.4-8.9,2.6-12,6
	c-2.3,2.2-23.4,22.3-29.8,28.2c-2.9,2.5-4.7,6.1-4.8,9.9c0,4.2,1.6,8.2,4.4,11.2l19.4,18.6c4,4,9.9,5.1,15.1,2.8v71.4
	c-0.2,5.6,2,11,6,15c5.3,4.5,12,7,19,6.9h67.2c7,0.1,13.7-2.4,19.1-6.9c4-3.9,6.2-9.4,6.1-15V91.7c5.1,2.2,11.1,1.1,15-2.8
	l19.6-18.7c2.7-3,4.1-7,4.2-11C197.3,55.4,195.6,51.9,192.7,49.3L192.7,49.3z"/>
</svg>
