<?xml version="1.0" encoding="utf-8"?>
<!-- Generator: Adobe Illustrator 24.2.1, SVG Export Plug-In . SVG Version: 6.00 Build 0)  -->
<svg version="1.1" id="图层_2" xmlns="http://www.w3.org/2000/svg" xmlns:xlink="http://www.w3.org/1999/xlink" x="0px" y="0px"
	 viewBox="0 0 200 200" enable-background="new 0 0 200 200" xml:space="preserve">
<g>
	<path fill="#333333" d="M70,52v18H58V46c0-3.3,2.7-6,6-6h120c3.3,0,6,2.7,6,6v78c0,3.3-2.7,6-6,6h-84v-12h78V52H70z M16,76h72
		c3.3,0,6,2.7,6,6l0,0v54c0,3.3-2.7,6-6,6l0,0H16c-3.3,0-6-2.7-6-6c0,0,0,0,0,0V82C10,78.7,12.7,76,16,76C16,76,16,76,16,76z
		 M40,148h24c3.3,0,6,2.7,6,6s-2.7,6-6,6H40c-3.3,0-6-2.7-6-6S36.7,148,40,148z M112,136h24c3.3,0,6,2.7,6,6c0,3.3-2.7,6-6,6h-24
		c-3.3,0-6-2.7-6-6C106,138.7,108.7,136,112,136L112,136z"/>
</g>
</svg>
