<svg id="图层_2" data-name="图层 2" xmlns="http://www.w3.org/2000/svg" viewBox="0 0 200 200"><defs><style>.cls-1{fill:#007aff;}</style></defs><path class="cls-1" d="M163.13,85.85h-13V60.91c0-.18,0-1.63,0-1.93a50.27,50.27,0,0,0-100.5,1.5V85.85H36.83A9.85,9.85,0,0,0,27,95.67v83.79a9.85,9.85,0,0,0,9.82,9.83H163.17a9.85,9.85,0,0,0,9.82-9.83V95.69A9.9,9.9,0,0,0,163.13,85.85ZM66.69,60.5a33.2,33.2,0,0,1,66.38-.6c0,.26,0,.57,0,.87V85.85H66.71V60.5Zm41.75,80.83,0,14.32a8.5,8.5,0,0,1-17,0v-13.8a4.35,4.35,0,0,1,0-.52,17.3,17.3,0,1,1,17,0Z"/></svg>