<?xml version="1.0" encoding="utf-8"?>
<!-- Generator: Adobe Illustrator 22.0.1, SVG Export Plug-In . SVG Version: 6.00 Build 0)  -->
<svg version="1.1" id="图层_1" xmlns="http://www.w3.org/2000/svg" xmlns:xlink="http://www.w3.org/1999/xlink" x="0px" y="0px"
	 viewBox="0 0 200 200" enable-background="new 0 0 200 200" xml:space="preserve">
<g>
	<rect x="131.3" y="75" width="12.5" height="12.5"/>
	<rect x="131.3" y="43.8" width="12.5" height="12.5"/>
	<rect x="93.8" y="43.8" width="12.5" height="12.5"/>
	<rect x="93.8" y="75" width="12.5" height="12.5"/>
	<rect x="75" y="75" width="12.5" height="12.5"/>
	<rect x="112.5" y="43.8" width="12.5" height="12.5"/>
	<rect x="112.5" y="75" width="12.5" height="12.5"/>
	<rect x="75" y="43.8" width="12.5" height="12.5"/>
	<path d="M106.3,112.5V93.8H93.8v18.8h-25h-6.3h-6.3v43.8h6.3h6.3h62.5h12.5v-12.5V125v-12.5h-12.5H106.3z M131.3,143.8H68.8V125
		h62.5V143.8z"/>
	<rect x="56.3" y="43.8" width="12.5" height="12.5"/>
	<rect x="131.3" y="62.5" width="12.5" height="6.3"/>
	<rect x="56.3" y="62.5" width="12.5" height="6.3"/>
	<rect x="56.3" y="75" width="12.5" height="12.5"/>
</g>
</svg>
