<?xml version="1.0" encoding="utf-8"?>
<!-- Generator: Adobe Illustrator 22.0.1, SVG Export Plug-In . SVG Version: 6.00 Build 0)  -->
<svg version="1.1" id="图层_1" xmlns="http://www.w3.org/2000/svg" xmlns:xlink="http://www.w3.org/1999/xlink" x="0px" y="0px"
	 viewBox="0 0 200 200" enable-background="new 0 0 200 200" xml:space="preserve">
<g id="图层_1_1_">
	<g>
		<g>
			<path fill="#6883D8" d="M134.7,161.1H65.3c-3.8,0-6.9,3.1-6.9,6.9s3.1,6.9,6.9,6.9h69.4c3.8,0,6.9-3.1,6.9-6.9
				S138.6,161.1,134.7,161.1L134.7,161.1z"/>
		</g>
	</g>
	<g>
		<path fill="#6883D8" d="M177.3,33.3H22.7c-3.3,0-6,2.7-6,6V144c0,3.3,2.7,6,6,6h154.7c3.3,0,6-2.7,6-6V39.3
			C183.3,36,180.6,33.3,177.3,33.3z M49.5,111.7L49.5,111.7H38.2c0-10.5,2.6-20.3,7.3-29c2.6,3.8,5.1,7.5,7.4,10.9
			C50.6,99.4,49.5,105.6,49.5,111.7z M107.9,119.7L107.9,119.7c-4.4,4.4-11.5,4.4-15.9,0S55,66.8,55,66.8s48.5,32.6,52.9,37
			S112.3,115.3,107.9,119.7z M150.5,111.8L150.5,111.8c0-27.9-22.7-50.5-50.5-50.5c-6.2,0-12.3,1.2-18.1,3.4
			c-3.4-2.3-7-4.8-10.9-7.4c8.9-4.8,18.9-7.3,29-7.3c34.1,0,61.8,27.7,61.8,61.8H150.5z"/>
	</g>
</g>
</svg>
