<?xml version="1.0" encoding="utf-8"?>
<!-- Generator: Adobe Illustrator 22.0.1, SVG Export Plug-In . SVG Version: 6.00 Build 0)  -->
<svg version="1.1" id="图层_1" xmlns="http://www.w3.org/2000/svg" xmlns:xlink="http://www.w3.org/1999/xlink" x="0px" y="0px"
	 viewBox="0 0 200 200" enable-background="new 0 0 200 200" xml:space="preserve">
<g id="图层_2_1_">
	<g>
		<path d="M100,184.1c-1.5,0-3,0-4.5-0.1c-40.8-2.2-77.2-38.5-79.4-79.4C14.8,81.3,23,59.1,39,42.2c16.1-16.9,37.7-26.3,61-26.3
			c20.5-0.1,40.2,7.4,55.5,21.1l6.8-4.4c1.6-1,3.5-1.1,5.1-0.3c1.7,0.8,2.7,2.5,2.8,4.3l1.8,33.1c0.1,1.9-0.8,3.6-2.3,4.6
			c-1.6,1-3.5,1.1-5.1,0.3l-29.6-15c-1.7-0.8-2.7-2.5-2.8-4.3s0.8-3.6,2.3-4.6l5.9-3.8C128.7,38,114.7,33.2,100,33.2
			c-18.4,0-35.6,7.4-48.3,20.7s-19.3,30.8-18.4,49.3c1.6,34,29.5,61.9,63.5,63.5c35.1,1.7,65.6-24.3,69.6-59.1
			c0.5-4.5,4.3-7.8,8.8-7.8c2.4,0,4.7,1,6.3,2.8s2.4,4.2,2.1,6.5C178.9,151.9,142.7,184.1,100,184.1z"/>
	</g>
</g>
</svg>
