<?xml version="1.0" encoding="utf-8"?>
<!-- Generator: Adobe Illustrator 24.2.1, SVG Export Plug-In . SVG Version: 6.00 Build 0)  -->
<svg version="1.1" id="图层_2" xmlns="http://www.w3.org/2000/svg" xmlns:xlink="http://www.w3.org/1999/xlink" x="0px" y="0px"
	 viewBox="0 0 200 200" enable-background="new 0 0 200 200" xml:space="preserve">
<g>
	<path fill="#333333" d="M144,68.6c10.8,0,19.4,2.8,26.1,7.8V33.5c0-2.7-1.1-5.3-3-7.2c-1.9-1.9-4.5-3-7.2-3H97.2H80.9H18.1
		C12.5,23.4,8,27.9,8,33.5v45.4C8,84.5,12.5,89,18.1,89H99C110,76.5,126.1,68.6,144,68.6z M35.9,67.2c-4.5,0-8.5-2.7-10.2-6.8
		c-1.7-4.1-0.8-8.9,2.4-12c3.2-3.2,7.9-4.1,12-2.4c4.1,1.7,6.8,5.7,6.8,10.2C46.9,62.3,42,67.2,35.9,67.2z M71.3,67.2
		c-4.5,0-8.5-2.7-10.2-6.8c-1.7-4.1-0.8-8.9,2.4-12c3.2-3.2,7.9-4.1,12-2.4c4.1,1.7,6.8,5.7,6.8,10.2C82.4,62.3,77.4,67.2,71.3,67.2
		z"/>
	<path fill="#333333" d="M84,128.6c0-8.7,1.9-17,5.2-24.4h-8.3H18.1c-5.6,0-10.1,4.5-10.1,10.1v45.4c0,5.6,4.5,10.1,10.1,10.1h82.4
		C90.3,159.1,84,144.6,84,128.6z M35.9,148.1c-4.5,0-8.5-2.7-10.2-6.8c-1.7-4.1-0.8-8.9,2.4-12c3.2-3.2,7.9-4.1,12-2.4
		c4.1,1.7,6.8,5.7,6.8,10.2C46.9,143.1,42,148.1,35.9,148.1z M71.3,148.1c-4.5,0-8.5-2.7-10.2-6.8c-1.7-4.1-0.8-8.9,2.4-12
		c3.2-3.2,7.9-4.1,12-2.4c4.1,1.7,6.8,5.7,6.8,10.2C82.4,143.1,77.4,148.1,71.3,148.1z"/>
	<path fill="#333333" d="M178,94.7c-18.7-18.7-49.1-18.7-67.9,0c-18.7,18.7-18.7,49.1,0,67.9c18.7,18.7,49.1,18.7,67.9,0
		C196.7,143.8,196.7,113.4,178,94.7z M151.7,115c0-0.9,0.7-1.6,1.6-1.6h9.5c0.8-0.1,1.5,0.5,1.6,1.3c0,0.1,0,0.2,0,0.3v13.5
		c0,0.9-0.7,1.6-2.1,1.6c-1.3-0.1-2.1-0.7-2.1-1.6v-10.9h-6.9c-0.8,0.1-1.5-0.5-1.6-1.3C151.7,116.2,151.7,115.1,151.7,115z
		 M120.2,119.8v-9.5c-0.1-1.7,1.2-3.1,2.9-3.2c0.1,0,0.2,0,0.3,0h22.1c1.7-0.1,3.1,1.2,3.2,2.9c0,0.1,0,0.2,0,0.3v9.5
		c0.1,1.7-1.2,3.1-2.9,3.2c-0.1,0-0.2,0-0.3,0h-22.1c-1.7,0.1-3.1-1.2-3.2-2.9C120.2,120,120.2,119.9,120.2,119.8z M171.1,136.4
		v10.5c0.1,1.7-1.2,3.1-2.9,3.2c-0.1,0-0.2,0-0.3,0h-12.6c-1.7,0.1-3.1-1.2-3.2-2.9c0-0.1,0-0.2,0-0.3v-3.2h-16v3.2
		c0.1,1.7-1.2,3.1-2.9,3.2c-0.1,0-0.2,0-0.3,0h-12.6c-1.7,0.1-3.1-1.2-3.2-2.9c0-0.1,0-0.2,0-0.3c0.2-0.2,0.2-10.5,0.2-10.5
		c-0.1-1.7,1.2-3.1,2.9-3.2c0.1,0,0.2,0,0.3,0H133c1.7-0.1,3.1,1.2,3.2,2.9c0,0.1,0,0.2,0,0.3v3.2H152v-3.2
		c-0.1-1.7,1.2-3.1,2.9-3.2c0.1,0,0.2,0,0.3,0h12.6c1.7-0.1,3.1,1.2,3.2,2.9C171.1,136.2,171.1,136.3,171.1,136.4z"/>
</g>
</svg>
