<svg id="图层_1" data-name="图层 1" xmlns="http://www.w3.org/2000/svg" viewBox="0 0 200 200"><path d="M183.51,169.33h-167c-3.6,0-6.49,3.4-6.49,7.73s2.89,7.73,6.49,7.73h167c3.6,0,6.49-3.5,6.49-7.73S187.11,169.33,183.51,169.33Z"/><path d="M177.11,15.21H22.89A12.91,12.91,0,0,0,10,28.13V144A12.91,12.91,0,0,0,22.89,157H177.11A12.91,12.91,0,0,0,190,144V28.13A12.91,12.91,0,0,0,177.11,15.21ZM64.4,132.76H46.65a11.88,11.88,0,0,1-11.87-11.87V103.33a5.89,5.89,0,1,1,11.77,0v17.56H64.4a5.86,5.86,0,0,1,5.89,5.89A6,6,0,0,1,64.4,132.76Zm0-83H46.65V67.63a5.89,5.89,0,0,1-11.78,0V49.78A11.87,11.87,0,0,1,46.74,37.92H64.4a5.93,5.93,0,0,1,0,11.86Zm89,83H135.32a5.89,5.89,0,1,1,0-11.77h18V103.42a5.89,5.89,0,0,1,11.78,0v17.47h.09A11.86,11.86,0,0,1,153.45,132.76Zm11.77-65.13a5.89,5.89,0,1,1-11.77,0V49.78H135.6a5.85,5.85,0,0,1-5.89-5.88A5.92,5.92,0,0,1,135.6,38h17.75a11.88,11.88,0,0,1,11.87,11.87Z"/></svg>