<svg id="图层_1" data-name="图层 1" xmlns="http://www.w3.org/2000/svg" viewBox="0 0 200 200"><defs><style>.cls-1{fill:#515151;}</style></defs><path class="cls-1" d="M98.14,25a75,75,0,1,0,75,75,75,75,0,0,0-75-75Zm90,75a90,90,0,1,1-90-90A90,90,0,0,1,188.14,100Zm-90,21.4c4.7,0,8.5-3.49,8.5-7.8V51.2c0-4.3-3.8-7.8-8.5-7.8s-8.5,3.5-8.5,7.8v62.4C89.64,117.91,93.45,121.4,98.14,121.4Zm6.73,28.85a9.44,9.44,0,0,0,2.85-7.14,10,10,0,0,0-2.85-7.27,10.63,10.63,0,0,0-7.21-2.8A8.91,8.91,0,0,0,90.72,136a9.47,9.47,0,0,0-3,7.13,9.07,9.07,0,0,0,3,7.14A8.83,8.83,0,0,0,97.66,153,9.64,9.64,0,0,0,104.87,150.25Z"/></svg>