<?xml version="1.0" encoding="utf-8"?>
<!-- Generator: Adobe Illustrator 24.2.1, SVG Export Plug-In . SVG Version: 6.00 Build 0)  -->
<svg version="1.1" id="图层_2" xmlns="http://www.w3.org/2000/svg" xmlns:xlink="http://www.w3.org/1999/xlink" x="0px" y="0px"
	 viewBox="0 0 200 200" enable-background="new 0 0 200 200" xml:space="preserve">
<g>
	<path fill="#333333" d="M161.4,119.9c-16.2-16.2-42.3-16.2-58.5,0c-16.2,16.2-16.2,42.3,0,58.5c16.2,16.2,42.3,16.2,58.5,0
		C177.5,162.3,177.5,136.1,161.4,119.9z M125.4,127.6c0-3.3,2.6-5.9,5.9-5.9h1.4c3.2,0,5.9,2.6,5.9,5.9v24.3c0,3.3-2.6,5.9-5.9,5.9
		h-1.4c-3.2,0-5.9-2.6-5.9-5.9V127.6z M132.1,176.7c-3.7,0-6.8-3-6.8-6.8s3-6.8,6.8-6.8c3.7,0,6.8,3,6.8,6.8
		S135.9,176.7,132.1,176.7z"/>
	<path fill="#333333" d="M76,149.2c0-31,25.1-56.2,56.2-56.2c7.4,0,14.4,1.4,20.9,4V23.7c0-7.6-6.6-14.3-14.3-14.3h-98
		c-7.6,0-14.3,6.1-14.3,14.3v152.3c0,7.6,6.1,14.3,14.3,14.3H94C82.9,180.1,76,165.4,76,149.2z M52,26.8h75.5c5.3,0,9.7,4.3,9.7,9.7
		c0,5.3-4.3,9.7-9.7,9.7H52c-5.3,0-9.7-4.3-9.7-9.7C42.3,31.2,46.7,26.8,52,26.8z M42.3,72.3c0-5.3,4.3-9.7,9.7-9.7h75.5
		c5.3,0,9.7,4.3,9.7,9.7c0,5.3-4.3,9.7-9.7,9.7H52C46.7,81.9,42.3,77.6,42.3,72.3z"/>
</g>
</svg>
