<svg id="图层_2" data-name="图层 2" xmlns="http://www.w3.org/2000/svg" viewBox="0 0 200 200"><defs><style>.cls-1{fill:#007aff;}</style></defs><path class="cls-1" d="M114.56,20.82l-28.14.28a7.38,7.38,0,0,0-7.82,7.82V171.36a7.38,7.38,0,0,0,7.82,7.82l28.14-.28a7.38,7.38,0,0,0,7.82-7.82V28.64A7.38,7.38,0,0,0,114.56,20.82ZM110.37,86.7A4.28,4.28,0,0,1,106.09,91H94.9a4.29,4.29,0,0,1-4.29-4.29V80.84a4.29,4.29,0,0,1,4.29-4.29h11.19a4.28,4.28,0,0,1,4.28,4.29Zm0-35.34a4.28,4.28,0,0,1-4.28,4.28H94.9a4.29,4.29,0,0,1-4.29-4.28V45.49a4.28,4.28,0,0,1,4.29-4.28h11.19a4.27,4.27,0,0,1,4.28,4.28Z"/><path class="cls-1" d="M173.71,50.79l-28.14.28a7.38,7.38,0,0,0-7.82,7.82V171.36a7.38,7.38,0,0,0,7.82,7.82l28.14-.28a7.38,7.38,0,0,0,7.82-7.82V58.61A7.38,7.38,0,0,0,173.71,50.79Zm-4.19,65.88a4.29,4.29,0,0,1-4.28,4.29H154a4.29,4.29,0,0,1-4.28-4.29v-5.86a4.29,4.29,0,0,1,4.28-4.29h11.2a4.29,4.29,0,0,1,4.28,4.29Zm0-35.34a4.28,4.28,0,0,1-4.28,4.28H154a4.28,4.28,0,0,1-4.28-4.28V75.46A4.28,4.28,0,0,1,154,71.18h11.2a4.28,4.28,0,0,1,4.28,4.28Z"/><path class="cls-1" d="M54.43,50.79l-28.14.28a7.38,7.38,0,0,0-7.82,7.82V171.36a7.38,7.38,0,0,0,7.82,7.82l28.14-.28a7.38,7.38,0,0,0,7.82-7.82V58.61A7.38,7.38,0,0,0,54.43,50.79Zm-4.19,65.74A4.43,4.43,0,0,1,45.81,121H34.91a4.43,4.43,0,0,1-4.43-4.43V111a4.43,4.43,0,0,1,4.43-4.43h10.9A4.43,4.43,0,0,1,50.24,111Zm0-35.2A4.28,4.28,0,0,1,46,85.61H34.76a4.28,4.28,0,0,1-4.28-4.28V75.46a4.28,4.28,0,0,1,4.28-4.28H46a4.28,4.28,0,0,1,4.28,4.28Z"/></svg>