<?xml version="1.0" encoding="utf-8"?>
<!-- Generator: Adobe Illustrator 24.2.1, SVG Export Plug-In . SVG Version: 6.00 Build 0)  -->
<svg version="1.1" id="图层_2" xmlns="http://www.w3.org/2000/svg" xmlns:xlink="http://www.w3.org/1999/xlink" x="0px" y="0px"
	 viewBox="0 0 200 200" enable-background="new 0 0 200 200" xml:space="preserve">
<g>
	<text transform="matrix(1 0 0 1 77.3959 -3.4718)" fill="#FFFFFF" font-family="'MicrosoftYaHei'" font-size="14px">库存机柜</text>
</g>
<g>
	<path fill="#333333" d="M166.7,29.2H33.3c-4.6,0-8.3,3.7-8.3,8.3v25c0,4.6,3.7,8.3,8.3,8.3h133.3c4.6,0,8.3-3.7,8.3-8.3v-25
		C175,32.9,171.3,29.2,166.7,29.2z M51.3,54.2H40.4v-8.3h10.8V54.2z M72.1,54.2H61.2v-8.3h10.8V54.2z M92.9,54.2H82.1v-8.3h10.8
		V54.2z M162.5,52.9c0,1.8-1.5,3.3-3.3,3.3h-30.8c-1.8,0-3.3-1.5-3.3-3.3v-5.8c0-1.8,1.5-3.3,3.3-3.3h30.8c1.8,0,3.3,1.5,3.3,3.3
		V52.9z"/>
	<path fill="#333333" d="M166.7,79.1H33.3c-4.6,0-8.3,3.7-8.3,8.3v25c0,4.6,3.7,8.3,8.3,8.3h133.3c4.6,0,8.3-3.7,8.3-8.3v-25
		C175,82.9,171.3,79.1,166.7,79.1z M51.3,104.1H40.4v-8.3h10.8V104.1z M72.1,104.1H61.2v-8.3h10.8V104.1z M92.9,104.1H82.1v-8.3
		h10.8V104.1z M162.5,102.9c0,1.8-1.5,3.3-3.3,3.3h-30.8c-1.8,0-3.3-1.5-3.3-3.3v-5.8c0-1.8,1.5-3.3,3.3-3.3h30.8
		c1.8,0,3.3,1.5,3.3,3.3V102.9z"/>
	<path fill="#333333" d="M166.7,129.2H33.3c-4.6,0-8.3,3.7-8.3,8.3v25c0,4.6,3.7,8.3,8.3,8.3h133.3c4.6,0,8.3-3.7,8.3-8.3v-25
		C175,132.9,171.3,129.2,166.7,129.2z M51.3,154.2H40.4v-8.3h10.8V154.2z M72.1,154.2H61.2v-8.3h10.8V154.2z M92.9,154.2H82.1v-8.3
		h10.8V154.2z M162.5,152.9c0,1.8-1.5,3.3-3.3,3.3h-30.8c-1.8,0-3.3-1.5-3.3-3.3v-5.8c0-1.8,1.5-3.3,3.3-3.3h30.8
		c1.8,0,3.3,1.5,3.3,3.3V152.9z"/>
</g>
</svg>
