<?xml version="1.0" encoding="utf-8"?>
<!-- Generator: Adobe Illustrator 24.2.1, SVG Export Plug-In . SVG Version: 6.00 Build 0)  -->
<svg version="1.1" id="图层_2" xmlns="http://www.w3.org/2000/svg" xmlns:xlink="http://www.w3.org/1999/xlink" x="0px" y="0px"
	 viewBox="0 0 200 200" enable-background="new 0 0 200 200" xml:space="preserve">
<path fill="#333333" d="M180.6,93.6v-9.7c0-1.3-0.6-2.5-1.6-3.3L101.7,21c-1.5-1.2-3.6-1.2-5.1,0L19.4,81.3c-1,0.8-1.6,2-1.6,3.3v9
	c0,3.5,4,5.4,6.7,3.3l72.2-55c1.5-1.1,3.6-1.1,5.1,0l72.2,55C176.6,99,180.6,97.1,180.6,93.6z"/>
<path fill="#333333" d="M178.3,160.7H163V96.8c0-1.3-0.6-2.6-1.7-3.4l-59.5-44.1c-1.5-1.1-3.5-1.1-5,0.1L40,92.4
	c-1,0.8-1.7,2-1.7,3.3v65H21.9c-2.3,0-4.2,1.9-4.2,4.2v6.3c0,2.3,1.9,4.2,4.2,4.2h156.4c2.3,0,4.2-1.9,4.2-4.2v-6.3
	C182.5,162.6,180.6,160.7,178.3,160.7z M131,115l-44.5,43.6c-0.9,0.9-2.4,0.9-3.3,0c-0.6-0.6-0.8-1.5-0.6-2.3c0-0.2,0-0.4,0.1-0.5
	l7.8-31.7H67.1c0,0,0,0,0,0c-1.3,0-2.3-1-2.3-2.3l0-0.2c-0.1-0.7,0.2-1.3,0.7-1.8l44.5-43.6c0.9-0.9,2.4-0.9,3.3,0h0
	c0.4,0.4,0.7,0.9,0.7,1.5c0.1,0.3,0.1,0.6,0,1l-7.6,32.2H129c0.5,0,1,0.2,1.4,0.5c0.2,0.1,0.5,0.3,0.7,0.5
	C131.9,112.8,131.9,114.2,131,115z"/>
</svg>
