<svg id="图层_1" data-name="图层 1" xmlns="http://www.w3.org/2000/svg" viewBox="0 0 200 200"><path d="M154.28,40.4V88q-14.7,0-18.93-.48a10.65,10.65,0,0,1-4-1.19,26.52,26.52,0,0,1-2-2.16l-.5-1q-12.19-12-13.94-13.88a7.21,7.21,0,0,0-3.74-1.91l-2.49-.24H63.9q-4.23,3.58-9,8.38-9.46,9.09-12.45,13.88a17.62,17.62,0,0,0-1,6.22,4.45,4.45,0,0,0,1.75,2.4l1,1.43a9.5,9.5,0,0,0,5.48,1.92,9.09,9.09,0,0,0,4-1l1.75-1L71.12,84l3.49-.48a46.71,46.71,0,0,1,6.72,0q4,.48,4.73,2.16-5.73,5.51-10,15.08a90.75,90.75,0,0,0-5.73,17.71A131,131,0,0,0,68.13,133l-.5,6-34.35.47q-5,.72-7,3.12a10.33,10.33,0,0,0-2.23,5.74,9.56,9.56,0,0,0,2,5.15,10.88,10.88,0,0,0,4.1,3.35,5.5,5.5,0,0,0,3.86.6H49q24.65-.24,26.64,0,7.47.72,11.2-17.24l.5-1.19c.17-1,.58-4.23,1.25-9.82l1-7.9,16.19,23q16.42,23.22,16.68,24.66a6.26,6.26,0,0,0,3.48,2.39,7.61,7.61,0,0,0,3.24-.24l1.49-.24a54.85,54.85,0,0,1,5.23-4.07,2.19,2.19,0,0,0,.87-2.15,9.58,9.58,0,0,0-.87-3.11l-.5-1.44-30.87-47.87,3.74-6.94a83,83,0,0,1,6.72-10.77,61.78,61.78,0,0,0,7.72,7.18,18.47,18.47,0,0,0,5.47,2.87,8.56,8.56,0,0,0,3.24.72l1-.24h21.91v52.66L175.93,190V10ZM125.77,67.21a12.43,12.43,0,0,0,9.09-3.71,12.39,12.39,0,0,0,0-17.72,13.33,13.33,0,0,0-18.43,0,12.06,12.06,0,0,0-3.73,8.86,11.86,11.86,0,0,0,3.86,8.86A12.83,12.83,0,0,0,125.77,67.21Z"/></svg>