<?xml version="1.0" encoding="utf-8"?>
<!-- Generator: Adobe Illustrator 22.0.1, SVG Export Plug-In . SVG Version: 6.00 Build 0)  -->
<svg version="1.1" id="图层_1" xmlns="http://www.w3.org/2000/svg" xmlns:xlink="http://www.w3.org/1999/xlink" x="0px" y="0px"
	 viewBox="0 0 30 30" style="enable-background:new 0 0 30 30;" xml:space="preserve">
<style type="text/css">
	.st0{display:none;}
	.st1{display:inline;opacity:0.4;}
	.st2{fill:#333333;}
</style>
<g id="图层_1_1_" class="st0">
	
		<image style="display:inline;overflow:visible;enable-background:new    ;" width="1920" height="1080" xlink:href="9F2201FE.jpeg"  transform="matrix(1 0 0 1 -1145 -445)">
	</image>
	<g class="st1">
		
			<image style="overflow:visible;enable-background:new    ;" width="1920" height="1080" xlink:href="9F220202.jpeg"  transform="matrix(1 0 0 -1 -1145 635)">
		</image>
	</g>
</g>
<g id="图层_2_1_">
	<g>
		<path class="st2" d="M22,6H8C6.3,6,5,7.4,5,9v9c0,1.6,1.3,3,3,3h6.7c-0.9,0.1-1.8,0.4-2.5,1.1L9.3,25l0.7,0.7l2.9-2.9
			c1.2-1.2,3.1-1.2,4.3,0l2.9,2.9l0.7-0.7l-2.9-2.9c-0.7-0.7-1.6-1.1-2.5-1.1H22c1.7,0,3-1.4,3-3V9C25,7.4,23.7,6,22,6z M24,18
			c0,1.1-0.9,2-2,2H8c-1.1,0-2-0.9-2-2V9c0-1.1,0.9-2,2-2h14c1.1,0,2,0.9,2,2V18z"/>
		<path class="st2" d="M12,10.1c0,0-0.4,0-0.5,0c-0.2,0-0.5,0-0.5,0l0,0c-1.7,0.2-3,1.7-3,3.4c0,1.9,1.6,3.5,3.5,3.5
			c1.8,0,3.2-1.3,3.4-3c0,0,0-0.4,0-0.5s0-0.5,0-0.5C14.7,11.5,13.5,10.3,12,10.1z M13.9,13H12v-1.9C13,11.2,13.8,12,13.9,13z
			 M11.5,16C10.1,16,9,14.9,9,13.5c0-1.2,0.9-2.2,2-2.4V14h2.9C13.7,15.1,12.7,16,11.5,16z"/>
		<rect x="17" y="11" class="st2" width="5" height="1"/>
		<rect x="17" y="13" class="st2" width="5" height="1"/>
		<rect x="17" y="15" class="st2" width="5" height="1"/>
	</g>
</g>
</svg>
