<svg id="图层_1" data-name="图层 1" xmlns="http://www.w3.org/2000/svg" viewBox="0 0 200 200"><path d="M67.71,33.18a11.48,11.48,0,0,0,8,3H124.4a11.5,11.5,0,0,0,8-3,8.94,8.94,0,0,0,3.1-7.41v-.6A9.4,9.4,0,0,0,132.15,18a11.51,11.51,0,0,0-8-3H75.68a11.47,11.47,0,0,0-8,3,9.38,9.38,0,0,0-3.33,7.21v.6A9.58,9.58,0,0,0,67.71,33.18Z"/><path d="M124.21,78.6a13.28,13.28,0,0,0-13.27,13.27v13.27h13.27a13.27,13.27,0,0,0,0-26.54Z"/><path d="M168.7,26.23a12.35,12.35,0,0,0-9.34-4H141.49v5.92a13.35,13.35,0,0,1-3.8,9.5,12.36,12.36,0,0,1-9.35,4H69a12.44,12.44,0,0,1-9.24-4,13.13,13.13,0,0,1-3.91-9.5V22.21H40.64a12.35,12.35,0,0,0-9.34,4,13.35,13.35,0,0,0-3.8,9.5v135.8a13.35,13.35,0,0,0,3.8,9.5,12.34,12.34,0,0,0,9.34,4H159.36a12.44,12.44,0,0,0,9.24-4,13.16,13.16,0,0,0,3.9-9.5V35.73A13.35,13.35,0,0,0,168.7,26.23ZM95.31,140.41a19.65,19.65,0,1,1-19.65-19.64H95.31Zm0-28.9H75.66A19.65,19.65,0,1,1,95.31,91.87Zm28.9,48.55a19.65,19.65,0,0,1-19.65-19.65V120.77h19.65a19.65,19.65,0,0,1,0,39.29Zm0-48.55H104.56V91.87a19.65,19.65,0,1,1,19.65,19.64Z"/></svg>