<svg id="图层_1" data-name="图层 1" xmlns="http://www.w3.org/2000/svg" viewBox="0 0 200 200"><defs><style>.cls-1{fill:#515151;}</style></defs><path class="cls-1" d="M184.37,74.68h-25.3V47.46h0v-.89a5.63,5.63,0,0,0-5.63-5.62H125.31V15.63A5.63,5.63,0,0,0,119.69,10H15.63A5.63,5.63,0,0,0,10,15.63v2.28S10,18,10,18v99.82s0,0,0,.07v1.81a5.64,5.64,0,0,0,5.63,5.63H43.75v25.31a5.64,5.64,0,0,0,5.63,5.62h25.3v28.13A5.64,5.64,0,0,0,80.31,190H184.38a5.62,5.62,0,0,0,5.62-5.62V80.31A5.64,5.64,0,0,0,184.37,74.68ZM18,18H117.3v99.31H18Zm101.7,107.32a5.64,5.64,0,0,0,5.63-5.63V48.94h25.75v99.3H51.77V125.32Z"/></svg>