<?xml version="1.0" encoding="utf-8"?>
<!-- Generator: Adobe Illustrator 24.2.1, SVG Export Plug-In . SVG Version: 6.00 Build 0)  -->
<svg version="1.1" id="图层_2" xmlns="http://www.w3.org/2000/svg" xmlns:xlink="http://www.w3.org/1999/xlink" x="0px" y="0px"
	 viewBox="0 0 200 200" enable-background="new 0 0 200 200" xml:space="preserve">
<path fill="#333333" d="M122.8,21.4v40.5c0,2.3,1.9,4.2,4.2,4.2h41.3c2.3,0,4.2,1.9,4.2,4.2v6.3c0,2.3-1.9,4.2-4.2,4.2l-123.4,0
	c-2,0-3.6-1.6-3.6-3.6v-4.8c0-3.5,2.8-6.3,6.3-6.3c9.5,0,27.6,0,37.1,0c3.5,0,6.3-2.8,6.3-6.3V21.4c0-2.3,1.9-4.2,4.2-4.2h23.4
	C120.9,17.2,122.8,19.1,122.8,21.4z M19.6,182.8L19.6,182.8c5.1-7.6,10.2-14,12.7-20.4c3.8-8.9,5.1-10.2,7.6-22.7
	c0-0.1,0.1-0.3,0.1-0.4c1.1-8,1.2-21.2,1.2-39.4c0-3.5,2.8-6.3,6.3-6.3l117.4,0c3.5,0,6.3,2.8,6.3,6.3v76.6c0,3.5-2.8,6.3-6.3,6.3
	h-15.6c-1.5,0-2.8-0.8-4.1-1.6c-3.8-2.1-8.1-8.7-9.4-13c-0.2-0.5-0.4-1-0.6-1.4c-0.2-0.3-0.4-0.7-0.6-1.1c-2.1-4.5-8.3-5-11-0.8
	c-0.6,1-1.3,1.8-2,2.6c-2.3,3.4-6.7,7.9-12.2,13.4c-1.2,1.2-2.8,1.8-4.5,1.8H19.6z"/>
</svg>
