<?xml version="1.0" encoding="utf-8"?>
<!-- Generator: Adobe Illustrator 24.2.1, SVG Export Plug-In . SVG Version: 6.00 Build 0)  -->
<svg version="1.1" id="图层_2" xmlns="http://www.w3.org/2000/svg" xmlns:xlink="http://www.w3.org/1999/xlink" x="0px" y="0px"
	 viewBox="0 0 200 200" enable-background="new 0 0 200 200" xml:space="preserve">
<g>
	<path fill="#333333" d="M12.5,20.3c0-0.3,0.1-0.5,0.3-0.7s0.4-0.3,0.7-0.3h6.2c0.3,0,0.5,0.1,0.7,0.3s0.3,0.4,0.3,0.7v152.1h165.8
		c0.3,0,0.5,0.1,0.7,0.3s0.3,0.4,0.3,0.7v6.2c0,0.3-0.1,0.5-0.3,0.7s-0.4,0.3-0.7,0.3h-174V20.3z"/>
	<path fill="#333333" d="M33.2,141.7c0,10.8,8.7,19.5,19.5,19.5s19.5-8.7,19.5-19.5s-8.7-19.5-19.5-19.5S33.2,130.9,33.2,141.7z"/>
	<path fill="#333333" d="M95.9,122.2c0,10,8.1,18.1,18.1,18.1s18.1-8.1,18.1-18.1s-8.1-18.1-18.1-18.1S95.9,112.2,95.9,122.2
		L95.9,122.2z"/>
	<path fill="#333333" d="M165.2,88.6c0,5.6,4.6,10.2,10.2,10.2s10.2-4.6,10.2-10.2c0-5.6-4.6-10.2-10.2-10.2S165.2,82.9,165.2,88.6z
		"/>
	<path fill="#333333" d="M108.4,75c0,5.6,4.5,10.2,10.2,10.2s10.2-4.5,10.2-10.2c0-5.6-4.5-10.2-10.2-10.2S108.4,69.4,108.4,75z"/>
	<path fill="#333333" d="M68,72.8c1.3,5.5,6.8,8.9,12.2,7.6c5.5-1.3,8.9-6.8,7.6-12.2l0,0c-1.3-5.5-6.8-8.9-12.2-7.6
		C70.1,61.9,66.7,67.4,68,72.8z"/>
</g>
</svg>
