<?xml version="1.0" encoding="utf-8"?>
<!-- Generator: Adobe Illustrator 24.2.1, SVG Export Plug-In . SVG Version: 6.00 Build 0)  -->
<svg version="1.1" id="图层_2" xmlns="http://www.w3.org/2000/svg" xmlns:xlink="http://www.w3.org/1999/xlink" x="0px" y="0px"
	 viewBox="0 0 200 200" enable-background="new 0 0 200 200" xml:space="preserve">
<path fill="#333333" d="M179.6,156.5H159V85.8c-0.1-29.1-21.3-53.8-50.1-58.2v-3.7c0-4.9-4-8.8-8.8-8.8c-4.9,0-8.8,4-8.8,8.8v3.7
	c-28.8,4.4-50,29.1-50.1,58.2v70.7H20.4c-1.6,0-2.9,1.3-3,2.9v11.8c0,1.6,1.3,2.9,3,2.9h62.5c1.7,6.2,7.4,10.8,14.1,10.8h5.9
	c6.8,0,12.4-4.6,14.1-10.8h62.5c1.6,0,2.9-1.3,2.9-2.9c0,0,0,0,0,0v-11.8C182.5,157.8,181.2,156.5,179.6,156.5
	C179.6,156.5,179.6,156.5,179.6,156.5z"/>
</svg>
