<?xml version="1.0" encoding="utf-8"?>
<!-- Generator: Adobe Illustrator 22.0.1, SVG Export Plug-In . SVG Version: 6.00 Build 0)  -->
<svg version="1.1" id="图层_1" xmlns="http://www.w3.org/2000/svg" xmlns:xlink="http://www.w3.org/1999/xlink" x="0px" y="0px"
	 viewBox="0 0 200 200" enable-background="new 0 0 200 200" xml:space="preserve">
<g id="图层_1_1_">
	<path fill="#6883D8" d="M165.7,19.7H34.3c-8,0-14.6,6.6-14.6,14.6v131.4c0,8.1,6.5,14.6,14.6,14.6h131.4c8.1,0,14.6-6.5,14.6-14.6
		V34.3C180.3,26.3,173.8,19.7,165.7,19.7z M72.4,92.2c0,1.8-0.7,3.6-2,4.9l-13.3,13.2c-2.7,2.7-2.7,7.1,0,9.8l13.2,13.1
		c1.3,1.3,2,3.1,2,4.9c0,6.2-7.4,9.3-11.8,4.9L40,122.5c-1.3-1.3-2-3.1-2-4.9v-4.9c0-1.8,0.7-3.6,2-4.9l20.5-20.6
		c4.4-4.4,11.8-1.3,11.8,4.9L72.4,92.2L72.4,92.2z M113,82.5l-16.3,67.4c-0.7,2.7-3.1,4.6-5.9,4.6c-3.9,0-6.8-3.7-5.9-7.5L101,79.6
		c0.7-2.7,3.1-4.7,5.9-4.7h0.2C111.1,75,114,78.6,113,82.5z M159.8,118c0,1.6-0.6,3.2-1.8,4.3l-22.2,22.2
		c-3.8,3.8-10.3,1.1-10.3-4.3v-4.9l0,0l15.8-15.8c2.4-2.4,2.4-6.2,0-8.6l-14-14c-1.1-1.1-1.8-2.7-1.8-4.3V90c0-5.4,6.5-8.1,10.4-4.3
		l22.2,22.4c1.1,1.1,1.8,2.7,1.8,4.3L159.8,118L159.8,118z M156.8,54.3h-112c-4.1,0-7.5-3.4-7.5-7.5s3.4-7.5,7.5-7.5h112
		c4.1,0,7.5,3.4,7.5,7.5S160.9,54.3,156.8,54.3z"/>
</g>
</svg>
