<svg id="图层_1" data-name="图层 1" xmlns="http://www.w3.org/2000/svg" viewBox="0 0 200 200"><path d="M104.88,171.16a35.87,35.87,0,0,1-4.69-8,46,46,0,0,1-2.39-7.48,60,60,0,0,1-1.6-9.86,41.83,41.83,0,0,1,.5-10.27,49.75,49.75,0,0,1,10.07-22.32,12.3,12.3,0,0,0,2-3.59c.4-1.2.77-2.36,1.1-3.49a26.32,26.32,0,0,1,1.2-3.29,7.83,7.83,0,0,1,2.49-3,11.68,11.68,0,0,0,2.59-3.49,36.7,36.7,0,0,0,2-4.48q.8-2.59,1.6-5.78a10.07,10.07,0,0,0,3.39-2,11.77,11.77,0,0,0,2.59-3.39,16.17,16.17,0,0,0,1.59-6,15.26,15.26,0,0,0,0-5,9.64,9.64,0,0,0-3.19-5.58,86.35,86.35,0,0,0-.8-14.35,101.61,101.61,0,0,0-3.09-13.16A38,38,0,0,0,113.55,24a29.21,29.21,0,0,0-5.19-5.08,40.31,40.31,0,0,0-7.27-4.48,44.72,44.72,0,0,0-8.87-3.19,40.82,40.82,0,0,0-10-1.2,52.69,52.69,0,0,0-8.37.7,39,39,0,0,0-8.77,2.49,35.93,35.93,0,0,0-8.47,5A39.38,39.38,0,0,0,49,26.35a34.17,34.17,0,0,0-5.48,11.76A109.09,109.09,0,0,0,41,50.47,116,116,0,0,0,40.19,64,11.78,11.78,0,0,0,38,67.81a15.14,15.14,0,0,0-1.1,4.38,13,13,0,0,0,.7,5.58,16.25,16.25,0,0,0,2.19,4.79A13.25,13.25,0,0,0,42,85a9.27,9.27,0,0,0,2.59,1.2,33.84,33.84,0,0,0,1.59,5.78,44.52,44.52,0,0,0,2,4.58A9.88,9.88,0,0,0,51,100.1c1.86,1.59,3.62,3.19,5.28,4.78a10.13,10.13,0,0,1,2.89,6.58c.13,1.86.2,3.59.2,5.18a13.35,13.35,0,0,1-.8,4.59,12.5,12.5,0,0,1-2.79,4.29A31,31,0,0,1,50,130a41,41,0,0,1-11.06,4.68q-6.28,1.69-12.06,3.69a32.74,32.74,0,0,0-10.07,5.48q-4.29,3.5-5.28,10.07-1.61,11.76-.6,19c.66,4.85,1.59,7.8,2.79,8.87.66.53,2.36,1.13,5.08,1.79s6,1.3,10,1.9,8.24,1.16,13,1.69,9.5,1,14.35,1.39,9.57.74,14.15,1,8.61.4,12.06.4q10.17,0,18-.5t13.26-1.09c4.25-.54,8-1.13,11.16-1.8a65.41,65.41,0,0,1-12-7.47A46.81,46.81,0,0,1,104.88,171.16Z"/><rect x="151.99" y="133.7" width="7.65" height="10.56"/><path d="M186.3,126.51a40.1,40.1,0,0,0-21.62-21.63,41,41,0,0,0-31.7,0,42,42,0,0,0-13,8.67,40.77,40.77,0,0,0-8.77,44.66A40.84,40.84,0,0,0,133,180a39.94,39.94,0,0,0,15.85,3.19h0a40.36,40.36,0,0,0,28.8-12,41.69,41.69,0,0,0,8.67-13,41,41,0,0,0,0-31.7Zm-50.15,39.61h-6.07V143.07q-1.83,3.21-3.85,6.17a90.08,90.08,0,0,0-2-8.88q5.53-8.64,9.33-22.06l6.27,1.83q-1.68,5.43-3.7,10.41Zm7.3.49q-2-1.92-5-4.34a78.28,78.28,0,0,0,9.52-11.05l5.58,3.7A122.85,122.85,0,0,1,143.45,166.61Zm23.88-.09a109,109,0,0,0-9.62-11.5l5.08-3.6q5.13,5.07,10.27,10.8Zm5.88-15.94H138.32v-6.32h7V133.7H139.9v-6.32h5.38V118.5H152v8.88h7.65V118.5h6.71v8.88h5.47v6.32h-5.47v10.56h6.86Z"/></svg>