<?xml version="1.0" encoding="utf-8"?>
<!-- Generator: Adobe Illustrator 24.2.1, SVG Export Plug-In . SVG Version: 6.00 Build 0)  -->
<svg version="1.1" id="图层_2" xmlns="http://www.w3.org/2000/svg" xmlns:xlink="http://www.w3.org/1999/xlink" x="0px" y="0px"
	 viewBox="0 0 200 200" enable-background="new 0 0 200 200" xml:space="preserve">
<g>
	<path fill="#333333" d="M148.6,143.1l-41.4-71.4c-1-2.1-4.1-4.1-7.2-4.1c-3.1,0-5.2,2.1-7.2,4.1l-41.4,71.4
		c-0.7,1.5-0.9,3.5-0.6,5.6c0.2,1.7,1.1,3.2,2.4,4.3c1.6,1.4,3.3,2.5,5.5,2.5h82.8c3.1,0,5.2-1,7.2-4.1
		C149.7,149.3,149.7,146.2,148.6,143.1z M94.8,93.6c0-3.1,2.1-5.2,5.2-5.2c3.1,0,5.2,2.1,5.2,5.2v29c0,3.1-2.1,5.2-5.2,5.2
		c-3.1,0-5.2-2.1-5.2-5.2V93.6z M100,146.2c-3.4,0-6.1-2.7-6.1-6.1c0-3.4,2.7-6.1,6.1-6.1s6.1,2.7,6.1,6.1
		C106.1,143.5,103.4,146.2,100,146.2z"/>
	<path fill="#333333" d="M167.2,18.5H32.8c-7.8,0-14.3,6.4-14.3,14.3v134.5c0,8.1,6.6,14.3,14.3,14.3h134.5
		c8.1,0,14.3-6.6,14.3-14.3V32.8C181.5,25.1,175.4,18.5,167.2,18.5z M83.1,30.7c4.1,0,7.5,3.3,7.5,7.5s-3.3,7.5-7.5,7.5
		c-4.1,0-7.5-3.3-7.5-7.5S79,30.7,83.1,30.7z M60.6,30.7c4.1,0,7.5,3.3,7.5,7.5s-3.3,7.5-7.5,7.5c-4.1,0-7.5-3.3-7.5-7.5
		S56.5,30.7,60.6,30.7z M38.1,30.7c4.1,0,7.5,3.3,7.5,7.5s-3.3,7.5-7.5,7.5c-4.1,0-7.5-3.3-7.5-7.5S34,30.7,38.1,30.7z M170.8,167.2
		c0,2-1.5,3.6-3.6,3.6H32.8c-2,0-3.6-1.6-3.6-3.6V60c0-1.8,1.5-3.3,3.3-3.3h135.1c1.8,0,3.3,1.5,3.3,3.3V167.2z"/>
</g>
</svg>
