<?xml version="1.0" standalone="no"?><!DOCTYPE svg PUBLIC "-//W3C//DTD SVG 1.1//EN" "http://www.w3.org/Graphics/SVG/1.1/DTD/svg11.dtd"><svg t="1591605022782" class="icon" viewBox="0 0 1024 1024" version="1.1" xmlns="http://www.w3.org/2000/svg" p-id="5906" xmlns:xlink="http://www.w3.org/1999/xlink" width="200" height="200"><defs><style type="text/css"></style></defs><path d="M736 259.648V128h-64v131.648C672 312.448 715.2 352 768 352h128V288h-128c-17.376 0-32-11.008-32-28.352zM288 128v131.648C288 276.992 273.312 288 256 288H128v64h128c52.8 0 96-39.552 96-92.352V128H288zM736 764.352V896h-64v-131.648C672 711.552 715.2 672 768 672h128v64h-128c-17.376 0-32 11.008-32 28.352zM288 896v-131.648C288 747.008 273.312 736 256 736H128v-64h128c52.8 0 96 39.552 96 92.352V896H288zM352 352h320v320H352z" p-id="5907"></path></svg>