<svg id="图层_1" data-name="图层 1" xmlns="http://www.w3.org/2000/svg" viewBox="0 0 200 200"><defs><style>.cls-1{fill:#515151;}</style></defs><path class="cls-1" d="M133.32,100.94l-.78-.89L107,74.58a10,10,0,0,0-14.14,0L67.41,100.05a10,10,0,0,0-.79,13.25l.79.89a10,10,0,0,0,14.13,0L90,105.75v66.57a10,10,0,0,0,20,0V105.77l8.42,8.42a10,10,0,0,0,14.92-13.25Z"/><path class="cls-1" d="M158.46,55.68A64,64,0,0,0,36.62,72.86,37,37,0,0,0,46,145.62h9a10,10,0,0,0,0-20H46a17,17,0,0,1-4-33.5l12.72-3.08,1.65-13a44,44,0,0,1,84-12l3.54,8.11,8.49,2.51A26.1,26.1,0,0,1,171,99.7,26,26,0,0,1,145,125.63h0l-1.11.07A10,10,0,0,0,145,145.62H145a46,46,0,0,0,13.44-89.94Z"/></svg>