<?xml version="1.0" encoding="utf-8"?>
<!-- Generator: Adobe Illustrator 24.2.1, SVG Export Plug-In . SVG Version: 6.00 Build 0)  -->
<svg version="1.1" id="图层_2" xmlns="http://www.w3.org/2000/svg" xmlns:xlink="http://www.w3.org/1999/xlink" x="0px" y="0px"
	 viewBox="0 0 200 200" enable-background="new 0 0 200 200" xml:space="preserve">
<g>
	<path fill="#333333" d="M100,99.7c21.5,0,43.1-30.4,29.2-61.5c-4.8-10.5-15.2-17.3-26.8-17.7c-24.8-1-36.1,14-36.1,37.9
		S82.9,99.7,100,99.7z"/>
	<path fill="#333333" d="M161.5,118.1c-13.1-13-34.3-13-47.3,0.1c-13,13.1-13,34.3,0.1,47.3c13.1,13,34.3,13,47.3-0.1
		c6.2-6.3,9.7-14.7,9.8-23.6C171.3,133,167.8,124.4,161.5,118.1z M123.8,149.5l4.7-11.3c0.1-0.2,0.3-0.5,0.5-0.7l18.8-17.5
		c1.6-1.6,4.2-1.6,5.9,0l2.5,2.5c1.6,1.6,1.6,4.3,0,6L137.5,146c-0.4,0.4,0,0.3-0.9,0.5l-11,4.7c-0.8,0.1-1.6-0.5-1.7-1.3
		C123.8,149.8,123.8,149.6,123.8,149.5z M155.6,162.7c-0.4,0-0.7,0-1.1,0h-33.4c-2.3,0.3-4.4-1.3-4.7-3.7c-0.3-2.3,1.3-4.4,3.7-4.7
		c0.4,0,0.7,0,1.1,0h33.4c2.3-0.3,4.4,1.3,4.7,3.7C159.5,160.3,157.9,162.4,155.6,162.7z"/>
	<path fill="#333333" d="M95.8,141.8c-0.1-9.8,3.3-19.2,9.5-26.8c1.4-1.9,1-4.5-0.9-5.9c-0.6-0.5-1.3-0.7-2.1-0.8h-2.3
		c-39.3-0.1-71.2,36.4-71.2,50.2c0,13.8,31.9,21,71.3,21h6.2c2.3-0.1,4.1-2,4.1-4.3c0-1.1-0.5-2.1-1.3-2.9
		C100.5,164.4,95.8,153.4,95.8,141.8z"/>
</g>
</svg>
