<svg id="图层_1" data-name="图层 1" xmlns="http://www.w3.org/2000/svg" viewBox="0 0 200 200"><defs><style>.cls-1{fill:#515151;}</style></defs><path class="cls-1" d="M184.37,74.69H159.05V46.56s0-.05,0-.08V46.3s0,0,0-.06a5.62,5.62,0,0,0-5.61-5.3H125.31V15.63A5.64,5.64,0,0,0,119.68,10h-104A5.63,5.63,0,0,0,10,15.63V119.69a5.62,5.62,0,0,0,5.63,5.62H43.74v25.32a5.63,5.63,0,0,0,5.63,5.62H74.69v28.13A5.63,5.63,0,0,0,80.31,190H184.38a5.62,5.62,0,0,0,5.62-5.62V80.31A5.63,5.63,0,0,0,184.37,74.69Zm-59.06,45V49H151v99.27H51.72V125.31h68A5.62,5.62,0,0,0,125.31,119.69Zm56.69-37V182H82.7V156.25h70.72a5.63,5.63,0,0,0,5.63-5.62V82.69Z"/></svg>