<?xml version="1.0" encoding="utf-8"?>
<!-- Generator: Adobe Illustrator 24.2.1, SVG Export Plug-In . SVG Version: 6.00 Build 0)  -->
<svg version="1.1" id="图层_2" xmlns="http://www.w3.org/2000/svg" xmlns:xlink="http://www.w3.org/1999/xlink" x="0px" y="0px"
	 viewBox="0 0 200 200" enable-background="new 0 0 200 200" xml:space="preserve">
<g>
	<g>
		<path fill="#333333" d="M160,91.8l-57.4-30.4c2.7,17.4,29.8,37.2,29.8,37.2c-34.5,9.8-57.5-9.1-67.4-20L40,91.8h0
			c-0.5,0.3-0.9,0.7-1.2,1.2c-0.8,1.4-0.2,3.2,1.2,4l58.6,31c0.9,0.5,1.9,0.5,2.8,0L160,97c0.5-0.3,0.9-0.7,1.2-1.2
			C162,94.4,161.4,92.6,160,91.8z"/>
	</g>
	<g>
		<path fill="#333333" d="M103.1,152l58.1-30.7v-11.5L98.3,143l-59.5-31.5V123L93.5,152l0.8,0.4C97.1,153.5,100.4,153.4,103.1,152z"
			/>
	</g>
	<g>
		<polygon fill="#333333" points="38.8,137 38.8,148.5 98.3,180 161.2,146.8 161.2,135.2 98.3,168.5 		"/>
	</g>
	<g>
		<path fill="#333333" d="M121.6,96.5c-21.8-9-28.2-22.2-28.2-42.6h14.5L83.6,20L59.4,53.9H74C75.6,80,88.5,95.4,121.6,96.5z"/>
	</g>
</g>
</svg>
