<?xml version="1.0" encoding="utf-8"?>
<!-- Generator: Adobe Illustrator 24.2.1, SVG Export Plug-In . SVG Version: 6.00 Build 0)  -->
<svg version="1.1" id="图层_2" xmlns="http://www.w3.org/2000/svg" xmlns:xlink="http://www.w3.org/1999/xlink" x="0px" y="0px"
	 viewBox="0 0 200 200" enable-background="new 0 0 200 200" xml:space="preserve">
<path fill="#333333" d="M185,30.6c-0.4-8.9-8-15.9-17-15.6H32c-9-0.3-16.6,6.6-17,15.6v138.8c0.4,8.9,8,15.9,17,15.6h136
	c9,0.3,16.6-6.6,17-15.6V30.6z M117,123.9H83V89.7h34V123.9z M83,139.7h34V170H83V139.7z M83,43.6h34v30.3H83V43.6z M66,43.6v30.3
	H32V43.6L66,43.6z M32,89.7h34v34.3H32V89.7z M134,123.9V89.7h34v34.3H134z M168,73.9h-34V43.6h34V73.9z M32,170v-30.3h34V170H32z
	 M168,170h-34v-30.3h34L168,170z"/>
</svg>
