<?xml version="1.0" encoding="utf-8"?>
<!-- Generator: Adobe Illustrator 24.2.1, SVG Export Plug-In . SVG Version: 6.00 Build 0)  -->
<svg version="1.1" id="图层_2" xmlns="http://www.w3.org/2000/svg" xmlns:xlink="http://www.w3.org/1999/xlink" x="0px" y="0px"
	 viewBox="0 0 200 200" enable-background="new 0 0 200 200" xml:space="preserve">
<g>
	<circle fill="#333333" cx="125.7" cy="137.6" r="18.5"/>
	<path fill="#333333" d="M126.1,70.3c-3.4,0-6.2-2.8-6.2-6.2V21.1H46.1c-6.8,0-12.3,5.5-12.3,12.3v135.4c0,6.8,5.5,12.3,12.3,12.3
		h110.8c1.1,0,2.2-0.2,3.2-0.4l-17.4-17.4c-4.9,3.2-10.7,5.1-17,5.1c-17,0-30.8-13.8-30.8-30.8s13.8-30.8,30.8-30.8
		s30.8,13.8,30.8,30.8c0,6.3-1.9,12.1-5.1,17l17.4,17.4c0.3-1,0.4-2.1,0.4-3.2V70.3H126.1z M83,117.7c-1.1,1.1-2.7,1.8-4.3,1.8H60.2
		c-3.4,0-6.2-2.8-6.2-6.2c0-1.7,0.7-3.2,1.8-4.3c1.1-1.1,2.7-1.8,4.3-1.8h18.5c3.4,0,6.2,2.8,6.2,6.2
		C84.8,115.1,84.1,116.6,83,117.7z M138.4,93.1c-1.1,1.1-2.7,1.8-4.3,1.8H60.2c-3.4,0-6.2-2.8-6.2-6.2c0-1.7,0.7-3.2,1.8-4.3
		c1.1-1.1,2.7-1.8,4.3-1.8H134c3.4,0,6.2,2.8,6.2,6.2C140.2,90.5,139.5,92,138.4,93.1z"/>
	<path fill="#333333" d="M169.2,33.4c0-6.8-5.5-12.3-12.3-12.3h-24.6V58h36.9V33.4z"/>
</g>
</svg>
