<?xml version="1.0" encoding="utf-8"?>
<!-- Generator: Adobe Illustrator 22.0.1, SVG Export Plug-In . SVG Version: 6.00 Build 0)  -->
<svg version="1.1" id="图层_1" xmlns="http://www.w3.org/2000/svg" xmlns:xlink="http://www.w3.org/1999/xlink" x="0px" y="0px"
	 viewBox="0 0 200 200" enable-background="new 0 0 200 200" xml:space="preserve">
<g id="图层_1_1_">
	<path fill="#6883D8" d="M100,9.3C49.9,9.3,9.3,49.9,9.3,100s40.6,90.7,90.7,90.7s90.7-40.6,90.7-90.7S150.1,9.3,100,9.3z
		 M85.6,50.3c0-7,5.6-12.6,12.5-12.6h3c6.9,0,12.5,5.6,12.5,12.6v57.3c0,7-5.6,12.6-12.5,12.6h-3c-6.9,0-12.5-5.6-12.5-12.6V50.3z
		 M100,162.2c-8,0-14.4-6.5-14.4-14.4s6.5-14.4,14.4-14.4s14.4,6.5,14.4,14.4S108,162.2,100,162.2z"/>
</g>
</svg>
