<?xml version="1.0" encoding="utf-8"?>
<!-- Generator: Adobe Illustrator 24.2.1, SVG Export Plug-In . SVG Version: 6.00 Build 0)  -->
<svg version="1.1" id="图层_2" xmlns="http://www.w3.org/2000/svg" xmlns:xlink="http://www.w3.org/1999/xlink" x="0px" y="0px"
	 viewBox="0 0 200 200" enable-background="new 0 0 200 200" xml:space="preserve">
<g>
	<path fill="#333333" d="M160.6,20c-0.2,0-0.5,0-0.7,0H40.1C29.2,19.8,20.2,28.5,20,39.4c0,0.2,0,0.5,0,0.7v17.8h160V40.1
		C180.2,29.2,171.5,20.2,160.6,20z M93.2,46.9V33.6h13.3v13.3H93.2z M133.4,46.9h-13.3V33.6h13.3V46.9z M159.9,46.9h-13.3V33.6h13.3
		V46.9z"/>
	<path fill="#333333" d="M20,66.6v93.3c-0.2,10.9,8.5,19.9,19.4,20.1c0.2,0,0.5,0,0.7,0h119.8c10.9,0.2,19.9-8.5,20.1-19.4
		c0-0.2,0-0.5,0-0.7V66.6H20z M156.8,103.2c-0.8,5.4-5.8,9.1-11.2,8.3l0,0c-0.9-0.2-1.7-0.4-2.5-0.8L127,134.8
		c2.4,2.2,3.6,5.5,3,8.9c-0.9,5.4-6,9-11.4,8c-5.4-0.9-9-6-8-11.4c0.4-2,1.3-3.8,2.7-5.2l-11.7-16.8c-2.1,1.4-4.7,2.1-7.3,1.6
		c-2.2-0.4-4.2-1.5-5.6-3.1L68.4,134c0.3,1.3,0.4,2.7,0.1,4.1c-0.9,5.4-6,8.9-11.4,8c-5.4-0.9-8.9-6-8-11.4c0.9-5.4,6.1-9,11.4-8
		c2.2,0.4,4,1.5,5.5,3l20.3-17.2c-0.3-1.2-0.3-2.5-0.1-3.8c0.9-5.4,6-9,11.4-8c5.4,0.9,9,6,8,11.4c-0.2,0.9-0.4,1.7-0.8,2.5
		l12.7,18.1c1.4-0.4,3-0.5,4.5-0.3c0.2,0,0.4,0.1,0.6,0.1l16.7-24.9c-1.5-2.1-2.2-4.8-1.8-7.5c0.9-5.4,6-9,11.4-8
		C154.2,93.1,157.6,98,156.8,103.2z"/>
</g>
</svg>
