<svg id="图层_1" data-name="图层 1" xmlns="http://www.w3.org/2000/svg" viewBox="0 0 200 200"><path d="M125.07,53.44,102,40.43a4,4,0,0,0-4,0l-23.09,13A4.06,4.06,0,0,0,72.88,57v86.1a4.06,4.06,0,0,0,2.05,3.51l23.09,13a4,4,0,0,0,4,0l23.09-13a4.06,4.06,0,0,0,2.05-3.51V57A4.06,4.06,0,0,0,125.07,53.44Zm-6.71,5.43a1.48,1.48,0,0,1-.64.6l-17,8.7a1.53,1.53,0,0,1-1.41,0l-17-8.7a1.54,1.54,0,0,1-.67-2.08,1.52,1.52,0,0,1,.6-.63h0l17-9.78a1.57,1.57,0,0,1,1.54,0l17,9.78A1.55,1.55,0,0,1,118.36,58.87Z"/><path d="M188,105.22l-23.09-13a4,4,0,0,0-4,0l-23.09,13a4,4,0,0,0-2,3.51v34.32a4,4,0,0,0,2,3.51l23.09,13a4,4,0,0,0,4,0l23.09-13a4,4,0,0,0,2.05-3.51V108.73A4,4,0,0,0,188,105.22Zm-6.71,5.43a1.61,1.61,0,0,1-.64.6l-17,8.7a1.59,1.59,0,0,1-1.41,0l-17-8.7a1.54,1.54,0,0,1-.67-2.08,1.57,1.57,0,0,1,.61-.64h0l17-9.77a1.52,1.52,0,0,1,1.54,0l17,9.77A1.55,1.55,0,0,1,181.24,110.65Z"/><path d="M62.18,85.1l-23.09-13a4,4,0,0,0-4,0l-23.09,13A4,4,0,0,0,10,88.61v54.44a4,4,0,0,0,2.05,3.51l23.09,13a4,4,0,0,0,4,0l23.09-13a4,4,0,0,0,2.05-3.51V88.61A4,4,0,0,0,62.18,85.1Zm-6.71,5.43a1.61,1.61,0,0,1-.63.61l-17,8.69a1.53,1.53,0,0,1-1.41,0l-17-8.69a1.56,1.56,0,0,1-.68-2.09,1.61,1.61,0,0,1,.61-.63h0l17-9.78a1.57,1.57,0,0,1,1.54,0l17,9.78A1.54,1.54,0,0,1,55.47,90.53Z"/></svg>