<?xml version="1.0" encoding="utf-8"?>
<!-- Generator: Adobe Illustrator 24.2.1, SVG Export Plug-In . SVG Version: 6.00 Build 0)  -->
<svg version="1.1" id="图层_2" xmlns="http://www.w3.org/2000/svg" xmlns:xlink="http://www.w3.org/1999/xlink" x="0px" y="0px"
	 viewBox="0 0 200 200" enable-background="new 0 0 200 200" xml:space="preserve">
<g>
	<g transform="matrix(1 0 0 1 -195 -171 )">
		<g>
			<path fill="#333333" d="M347.7,345.3c-1.2,0-2.6,0-4-1.4l-15.6-14.4c-2.4,1.1-4.9,1.1-7.2,1.1c-5.3,0-10.2-2.7-13.8-7.5
				c-4.3-5.7-3.4-12.7-2.5-16.3l0.2-0.9l11.4,11.4l8-2.3l2.3-8l-11.3-11.3l0.6-0.3c2.5-1.3,3.9-1.3,6.3-1.3c5.3,0,9,1.5,12.5,5
				c5.1,6.3,6.1,14.9,2.7,21l14.4,14.4c2.6,2.6,2.6,5.3,0.1,9.2C350.4,345.3,349,345.3,347.7,345.3z"/>
		</g>
	</g>
	<g>
		<path fill="#333333" d="M121.2,79.2H59.7c-3.3,0-6-2.7-6-6s2.7-6,6-6h61.5c3.3,0,6,2.7,6,6S124.5,79.2,121.2,79.2z"/>
	</g>
	<g>
		<path fill="#333333" d="M121.2,109.3H59.7c-3.3,0-6-2.7-6-6s2.7-6,6-6h61.5c3.3,0,6,2.7,6,6S124.5,109.3,121.2,109.3z"/>
	</g>
	<g>
		<path fill="#333333" d="M99,139.4H59.7c-3.3,0-6-2.7-6-6s2.7-6,6-6H99c3.3,0,6,2.7,6,6S102.3,139.4,99,139.4z"/>
	</g>
	<g>
		<path fill="#333333" d="M105.7,172.5h-60c-11,0-20-9-20-20V45.9c0-11,9-20,20-20h65c5.3,0,10.4,2.1,14.1,5.9l31.4,31.4
			c2.6,2.6,4.1,6.2,4.1,9.9v47.1c0,3.3-2.7,6-6,6s-6-2.7-6-6V73.1c0-0.5-0.2-1-0.6-1.4l-31.4-31.4c-1.5-1.5-3.5-2.3-5.7-2.3h-65
			c-4.4,0-8,3.6-8,8v106.7c0,4.4,3.6,8,8,8h60c3.3,0,6,2.7,6,6S109,172.5,105.7,172.5z"/>
	</g>
</g>
</svg>
