<?xml version="1.0" encoding="utf-8"?>
<!-- Generator: Adobe Illustrator 24.2.1, SVG Export Plug-In . SVG Version: 6.00 Build 0)  -->
<svg version="1.1" id="图层_2" xmlns="http://www.w3.org/2000/svg" xmlns:xlink="http://www.w3.org/1999/xlink" x="0px" y="0px"
	 viewBox="0 0 200 200" enable-background="new 0 0 200 200" xml:space="preserve">
<g>
	<text transform="matrix(1 0 0 1 79.7712 -3.3609)" fill="#FFFFFF" font-family="'MicrosoftYaHei'" font-size="14px">故障管理</text>
</g>
<g>
	
		<ellipse transform="matrix(0.7071 -0.7071 0.7071 0.7071 -20.8214 62.3935)" fill="#333333" cx="64.9" cy="56.3" rx="8.7" ry="8.7"/>
	<path fill="#333333" d="M179.8,16.7h-150c-6.9,0-12.5,5.6-12.5,12.5v136.9c0,6.9,5.6,12.5,12.5,12.5h150c6.9,0,12.5-5.6,12.5-12.5
		V29.2C192.3,22.3,186.7,16.7,179.8,16.7z M165.8,140.5l-17.4,17.4c-1.6,1.6-4.5,1.5-5.4-0.6c-0.3-0.7-0.3-2.4-0.3-2.4v-11.2h-59
		c-14.6,0-26.5-11.9-26.5-26.5c0-14.6,11.9-26.5,26.5-26.5h53.5c7.8,0,14.2-6.4,14.2-14.2c0-7.8-6.4-14.2-14.2-14.2H84.9
		c-2.6,8.5-10.6,14.8-20,14.8C53.4,77.2,44,67.8,44,56.3c0-11.5,9.4-20.9,20.9-20.9c9.4,0,17.4,6.2,20,14.8h52.3
		c14.6,0,26.5,11.9,26.5,26.5c0,14.6-11.9,26.5-26.5,26.5h-47v0h-6.5c-7.8,0-14.2,6.4-14.2,14.2c0,7.8,6.4,14.2,14.2,14.2h59v-11.8
		c0,0,0.1-1.5,0.3-2.1c0.8-2,3.8-1.8,5.4-0.3l17.4,17.4C167.3,136.4,167.3,139,165.8,140.5z"/>
</g>
</svg>
