<svg id="图层_1" data-name="图层 1" xmlns="http://www.w3.org/2000/svg" viewBox="0 0 200 200"><defs><style>.cls-1{fill:#040000;}</style></defs><path class="cls-1" d="M106.77,20.71a6.49,6.49,0,0,0-6.47-6.47,71.24,71.24,0,0,0-50.56,21A73.77,73.77,0,0,0,41,45.8a69.94,69.94,0,0,0-6.6,12.14,69,69,0,0,0-4.18,13.43,70.4,70.4,0,0,0-1.4,12.07H15.55A3.67,3.67,0,0,0,13,89.72l20.58,20.59a3.72,3.72,0,0,0,5.21,0L59.35,89.72a3.68,3.68,0,0,0-2.62-6.28H41.8a60.11,60.11,0,0,1,1.14-9.51,56.29,56.29,0,0,1,3.4-11A60.3,60.3,0,0,1,51.74,53a59.52,59.52,0,0,1,7.16-8.68,58.85,58.85,0,0,1,8.67-7.15,57,57,0,0,1,9.94-5.41,59.29,59.29,0,0,1,11-3.4,57.53,57.53,0,0,1,11.82-1.19A6.5,6.5,0,0,0,106.77,20.71Z"/><path class="cls-1" d="M188.47,114.58,167.88,94a3.72,3.72,0,0,0-5.21,0l-20.59,20.59a3.67,3.67,0,0,0,2.59,6.28h14.09a61.91,61.91,0,0,1-1.14,9.45,56.29,56.29,0,0,1-3.4,11,60.3,60.3,0,0,1-5.4,9.93,59.52,59.52,0,0,1-7.16,8.68,58.85,58.85,0,0,1-8.67,7.15,57,57,0,0,1-9.94,5.41,59.29,59.29,0,0,1-11,3.4,58.59,58.59,0,0,1-11.82,1.19,6.48,6.48,0,0,0,0,12.95,73.94,73.94,0,0,0,14.37-1.42,72.19,72.19,0,0,0,13.44-4.18,73.19,73.19,0,0,0,12.14-6.6,75.13,75.13,0,0,0,10.58-8.74,72,72,0,0,0,15.34-22.73,69.92,69.92,0,0,0,4.18-13.43,72.46,72.46,0,0,0,1.4-12h14.17A3.67,3.67,0,0,0,188.47,114.58Z"/><rect class="cls-1" x="10.44" y="122.09" width="66.23" height="66.19" rx="12.95"/><circle class="cls-1" cx="153.07" cy="43.09" r="33.09"/></svg>