<?xml version="1.0" encoding="utf-8"?>
<!-- Generator: Adobe Illustrator 24.2.1, SVG Export Plug-In . SVG Version: 6.00 Build 0)  -->
<svg version="1.1" id="图层_2" xmlns="http://www.w3.org/2000/svg" xmlns:xlink="http://www.w3.org/1999/xlink" x="0px" y="0px"
	 viewBox="0 0 200 200" enable-background="new 0 0 200 200" xml:space="preserve">
<path fill="#333333" d="M158.4,170.5c5.4,0,9.7,4.4,9.7,9.7s-4.4,9.7-9.7,9.7H41.6c-5.4,0-9.7-4.4-9.7-9.7s4.4-9.7,9.7-9.7H158.4z
	 M100,48.9c32.2,0,58.4,26.1,58.4,58.4l0,0v55.5H41.6v-55.5C41.6,75.1,67.8,48.9,100,48.9L100,48.9z M109.7,77.1l-29.2,29.2h14.6
	l-4.9,29.2l29.2-29.2l-14.6,0L109.7,77.1z M33.8,44.4l0.8,0.4l14.6,9.7c2.2,1.5,2.8,4.5,1.4,6.7c-1.3,2-3.8,2.7-6,1.8l-0.8-0.4
	L29.2,53c-2.2-1.5-2.8-4.5-1.4-6.7C29.1,44.3,31.7,43.5,33.8,44.4L33.8,44.4z M172.2,46.2c1.3,2,1,4.6-0.7,6.2l-0.7,0.6l-14.6,9.7
	l-0.8,0.4c-2.5,1.1-5.3-0.1-6.4-2.5c-0.8-1.9-0.4-4,1.1-5.4l0.7-0.6l14.6-9.7l0.8-0.4C168.3,43.5,170.9,44.3,172.2,46.2z M64.6,21.2
	l0.5,0.7l9.7,14.6c1.5,2.2,0.9,5.3-1.4,6.7c-1.9,1.3-4.5,1-6.2-0.7l-0.6-0.7L57,27.3c-1.5-2.2-1-5.2,1.3-6.8
	C60.3,19.2,62.9,19.5,64.6,21.2L64.6,21.2z M141.6,20.5c2,1.3,2.7,3.8,1.8,6l-0.4,0.8l-9.7,14.6l-0.5,0.7c-1.9,1.9-4.9,2-6.9,0.2
	c-1.5-1.4-1.9-3.6-1.1-5.5l0.4-0.8l9.7-14.6l0.6-0.7C137.1,19.5,139.7,19.2,141.6,20.5z M100,10c2.3,0,4.4,1.7,4.8,4l0.1,0.9v19.5
	c0,2.7-2.2,4.9-4.9,4.9c-2.4,0-4.4-1.7-4.8-4l-0.1-0.9V14.9C95.1,12.2,97.3,10,100,10L100,10z"/>
</svg>
