<?xml version="1.0" encoding="utf-8"?>
<!-- Generator: Adobe Illustrator 24.2.1, SVG Export Plug-In . SVG Version: 6.00 Build 0)  -->
<svg version="1.1" id="图层_2" xmlns="http://www.w3.org/2000/svg" xmlns:xlink="http://www.w3.org/1999/xlink" x="0px" y="0px"
	 viewBox="0 0 200 200" enable-background="new 0 0 200 200" xml:space="preserve">
<path fill="#333333" d="M183.9,167v-28.1c0-3.4-2.5-6.2-5.7-6.2h-8v-13.1c0-13.7-10.3-24.9-23-24.9h-41.9V67.3l8.3,0
	c0,0,0.1,0,0.1,0c1.3,0,2.6-0.5,3.5-1.4c1-0.9,1.5-2.2,1.6-3.6V34.1c0-3.4-2.6-6.2-5.8-6.2H86.3c-2.8,0-5.1,2.5-5.1,5.5v28.1
	c0,3.3,2.5,5.8,5.8,5.8h7.7v27.4H50.8c-11.4,0-21.1,10.2-21.1,22.3v15.7h-8.6c-2.8,0-5.1,2.5-5.1,5.5v28.1c0,3.3,2.4,5.8,5.7,5.8
	h26.8c1.4,0,2.7-0.5,3.7-1.4c1-0.9,1.6-2.2,1.6-3.6l0-28.2c0-3.3-2.7-6.2-5.8-6.2h-7.8V117c0-6.2,4.9-11.5,10.7-11.5h43.8v27.2h-8.3
	c-2.8,0-5.1,2.5-5.1,5.5v28.1c0,3.2,2.5,5.8,5.8,5.8h26.8c2.8,0.1,5.1-2.2,5.2-5v-28.3c0-3.3-2.6-6.2-5.8-6.2h-7.7v-27.2h41.9
	c6.9,0,12.6,6.3,12.6,14.1v13.1h-8.5c-2.8,0-5.2,2.5-5.2,5.5v28.1c0,3.2,2.6,5.8,5.8,5.8h26.8c0,0,0.1,0,0.1,0
	c1.3,0,2.5-0.5,3.5-1.4c1-0.9,1.5-2.2,1.5-3.5C183.9,167.1,183.9,167,183.9,167z"/>
</svg>
