<?xml version="1.0" encoding="utf-8"?>
<!-- Generator: Adobe Illustrator 24.2.1, SVG Export Plug-In . SVG Version: 6.00 Build 0)  -->
<svg version="1.1" id="图层_2" xmlns="http://www.w3.org/2000/svg" xmlns:xlink="http://www.w3.org/1999/xlink" x="0px" y="0px"
	 viewBox="0 0 200 200" enable-background="new 0 0 200 200" xml:space="preserve">
<path fill="#333333" d="M132.8,163.7c0,11.8-14.4,21.3-32.1,21.3s-32.1-9.6-32.1-21.3H132.8L132.8,163.7z M99.4,28.3h0.9
	c32.8,0,59.5,22.5,59.5,50.3v69H39.9v-69C39.9,50.8,66.5,28.3,99.4,28.3L99.4,28.3z M148.2,90.8c0-26.8-21.3-48.6-47.6-48.6h-0.8
	c-2.8,0-5.1,2.4-5.1,5.2c0,2.9,2.3,5.2,5.1,5.2h0.8c20.7,0,37.4,17.1,37.4,38.2c0,1.8,1,3.5,2.5,4.5c1.6,0.9,3.5,0.9,5.1,0
	C147.3,94.3,148.2,92.6,148.2,90.8L148.2,90.8L148.2,90.8z M32.7,151.7h133c0.7,0,1.4,0.3,2,0.8l3,3.2c0.9,1,0.9,2.5-0.1,3.4
	c-0.4,0.4-1,0.6-1.6,0.6H31.4c-1.5,0-2.7-1.2-2.7-2.7c0-0.7,0.3-1.3,0.7-1.8L32.7,151.7L32.7,151.7L32.7,151.7z M120.2,34.9
	L120.2,34.9c0,1.1-42.7,1.1-42.6,0c0.8-11.8,11-20.7,22.8-19.9C110.9,15.8,119.4,24.3,120.2,34.9L120.2,34.9z"/>
</svg>
