<svg xmlns="http://www.w3.org/2000/svg" viewBox="0 0 200 200"><defs><style>.cls-1{fill:#333;}</style></defs><g id="图层_1" data-name="图层 1"><path class="cls-1" d="M190,97.71h-6.34a83.79,83.79,0,0,0-81-81.34v-6a2.65,2.65,0,0,0-5.3,0v6a83.79,83.79,0,0,0-81,81.34H10a2.65,2.65,0,1,0,0,5.3h6.36a83.79,83.79,0,0,0,81,80.65v6.7a2.65,2.65,0,1,0,5.3,0v-6.7a83.79,83.79,0,0,0,81-80.65H190a2.65,2.65,0,0,0,0-5.3Zm-12.71,0h-18a59.42,59.42,0,0,0-56.65-57v-18A77.42,77.42,0,0,1,177.29,97.71Zm-23.83,0a2.64,2.64,0,0,0-2.34,1.42H122.75a1.07,1.07,0,0,0,0,2.13H151a2.65,2.65,0,0,0,2.49,1.75h1.81a55.44,55.44,0,0,1-52.62,52.3v-1.49a2.64,2.64,0,0,0-1.59-2.43V123a1.06,1.06,0,1,0-2.12,0v28.44a2.64,2.64,0,0,0-1.59,2.43v1.49A55.44,55.44,0,0,1,44.73,103h1.81A2.65,2.65,0,0,0,49,101.26H77.25a1.07,1.07,0,0,0,0-2.13H48.88a2.64,2.64,0,0,0-2.34-1.42H44.7a55.42,55.42,0,0,1,52.65-53v2.18a2.64,2.64,0,0,0,1.59,2.42V77.44a1.06,1.06,0,0,0,2.12,0V49.33a2.64,2.64,0,0,0,1.59-2.42V44.73a55.42,55.42,0,0,1,52.65,53Zm-56.11-75v18a59.42,59.42,0,0,0-56.65,57h-18A77.42,77.42,0,0,1,97.35,22.73ZM22.73,103h18a59.43,59.43,0,0,0,56.63,56.3v18A77.41,77.41,0,0,1,22.73,103Zm79.92,74.29v-18A59.43,59.43,0,0,0,159.28,103h18A77.41,77.41,0,0,1,102.65,177.3Z"/><circle class="cls-1" cx="100" cy="100.02" r="5"/></g></svg>