<svg id="图层_1" data-name="图层 1" xmlns="http://www.w3.org/2000/svg" viewBox="0 0 200 200"><path d="M100,34h0a9,9,0,0,0,9-9V19a9,9,0,0,0-9-9h0a9,9,0,0,0-9,9v6A9,9,0,0,0,100,34ZM51.74,40.36A9,9,0,0,0,64,43.65h0a9,9,0,0,0,3.29-12.28l-3-5.21A9,9,0,0,0,52,22.87h0a9,9,0,0,0-3.29,12.29ZM20.18,70.29l5.19,3A9,9,0,0,0,37.66,70h0A9,9,0,0,0,34.38,57.7l-5.2-3A9,9,0,0,0,16.89,58h0A9,9,0,0,0,20.18,70.29ZM162.34,70a9,9,0,0,0,12.29,3.29l5.19-3A9,9,0,0,0,183.11,58h0a9,9,0,0,0-12.29-3.3l-5.2,3A9,9,0,0,0,162.33,70ZM136,43.63h0a9,9,0,0,0,12.29-3.29l3-5.2A9,9,0,0,0,148,22.85h0a9,9,0,0,0-12.29,3.3l-3,5.2A9,9,0,0,0,136,43.63ZM181,172H160V106A60,60,0,1,0,40,106v66h-21a3,3,0,0,0-3,3v12a3,3,0,0,0,3,3H181a3,3,0,0,0,3-3V175A3,3,0,0,0,181,172Zm-56.07-66.54L94.33,141.1a1.49,1.49,0,0,1-2.6-1.17L95.29,115h-19a1.48,1.48,0,0,1-.94-.35,1.49,1.49,0,0,1-.2-2.11L105.67,76.9a1.49,1.49,0,0,1,1.29-.49,1.5,1.5,0,0,1,1.32,1.66L104.71,103h19a1.48,1.48,0,0,1,.94.35A1.49,1.49,0,0,1,124.89,105.46Z"/></svg>