<?xml version="1.0" encoding="utf-8"?>
<!-- Generator: Adobe Illustrator 24.2.1, SVG Export Plug-In . SVG Version: 6.00 Build 0)  -->
<svg version="1.1" id="图层_2" xmlns="http://www.w3.org/2000/svg" xmlns:xlink="http://www.w3.org/1999/xlink" x="0px" y="0px"
	 viewBox="0 0 200 200" enable-background="new 0 0 200 200" xml:space="preserve">
<g>
	<path fill="#333333" d="M127,131.1c3.6-7.8,7.7-12.5,10.9-15.4c1.8-1.6,3.6-2.9,5.5-3.7c-1-1.4-1.8-2.6-2.6-3.8
		c-1.4-2.1-2.9-4.6-3.7-5.8c-4.9,2.7-9.5,8.2-13.2,13.1c-2.1,2.8-4,5.9-5.9,9.1L127,131.1z"/>
	<path fill="#333333" d="M89.5,143.1c1,2.5,1.6,5,2.3,6.9c0.3,1.2,0.6,2.3,0.9,3.3c3.3-1,6.6-2,9.8-3.4c5.5-2.3,12.1-5.6,16.2-9.9
		l-7.6-8.2c-1.4,1.4-3,2.5-5.2,3.9C102.4,137.9,97.2,140.8,89.5,143.1z"/>
	<path fill="#333333" d="M126.9,45.5c0-18.8-15.4-34-34.1-34c-18.9,0-34.1,15.3-34.1,34c0,3.4,0.5,6.7,1.5,9.9l0.2,0.6
		c2.9,6.6,5.5,13,8.2,18.3l4.6,8.8c8.1,15.5,17.9,32.5,19.4,34.7c0.1,0.1,0.1,0.1,0.1,0.2c0,0.1,0,0.2,0.1,0.2
		c5.5-9.3,10.3-17.7,13.9-24.4l5.8-10.8l4.5-8.8c2.7-5.2,5.5-11.8,8.4-18.6l0.1-0.2C126.4,52.2,126.9,48.9,126.9,45.5z M92.7,61.7
		c-8.8,0-16.2-7.1-16.2-16.2c0-8.8,7.4-16.2,16.2-16.2c9.1,0,16.1,7.4,16.1,16.2C108.8,54.6,101.8,61.7,92.7,61.7z"/>
	<path fill="#333333" d="M52.1,142.5c2.6,1.9,5.3,3.6,8.2,5.2c5.1,2.7,11.7,5.8,19.1,6.9c0.3-2.2,0.4-5.1,0.7-7.2l0.6-3.7
		c-2-0.4-4.3-1-6.8-1.8c-4.2-1.5-9.5-4-15.4-8.2c-1.6,2.3-3.2,4.4-4.4,6.1L52.1,142.5z"/>
	<path fill="#333333" d="M16,167.9c0,7,5.7,12.6,12.6,12.6h142.8c7,0,12.6-5.6,12.6-12.6V67c0-7-5.6-12.6-12.6-12.6h-34.7l-6.1,17
		H165c1.6,0,2.7,1,2.7,2.6v19.5c-4.9-0.1-12.4,0.4-19.8,4l0.9,2.5l2.9,7.6c4.3-1.4,8.1-2.4,11-2.9l4.9-0.7v57.5
		c0,1.6-1.1,2.6-2.7,2.6H35.7c-1.6,0-2.7-1-2.7-2.6v-35.1c0.7,0.7,1.6,1.5,2.6,2.4c1.6,1.4,4,3.6,7,6.2c1.7-1.6,3.4-3.6,4.8-5.1
		c0.8-0.8,1.6-1.7,2.2-2.5c-7.3-6.1-14.6-14.6-16.6-17V74c0-1.5,1.1-2.6,2.7-2.6h18.6l-5.6-17l-20.1,0C21.7,54.4,16,60,16,67
		L16,167.9z"/>
</g>
</svg>
