<?xml version="1.0" encoding="utf-8"?>
<!-- Generator: Adobe Illustrator 24.2.1, SVG Export Plug-In . SVG Version: 6.00 Build 0)  -->
<svg version="1.1" id="图层_2" xmlns="http://www.w3.org/2000/svg" xmlns:xlink="http://www.w3.org/1999/xlink" x="0px" y="0px"
	 viewBox="0 0 200 200" enable-background="new 0 0 200 200" xml:space="preserve">
<g>
	<polygon fill="#333333" points="141.8,189.5 141.8,153.7 177.6,153.7 	"/>
	<g>
		<circle fill="#333333" cx="100" cy="107.2" r="6"/>
		<path fill="#333333" d="M100,95c3.1,0,5.1-2,5.1-5.1V61.1c0-3.1-2-5.1-5.1-5.1s-5.1,2-5.1,5.1v28.7C94.9,92.9,96.9,95,100,95z"/>
		<path fill="#333333" d="M153.7,10.5H46.3c-13.2,0-23.9,10.7-23.9,23.9v131.3c0,13.2,10.7,23.9,23.9,23.9h79.5v-45.8
			c0-3.3,2.7-6,6-6h45.8V34.4C177.6,21.2,166.9,10.5,153.7,10.5z M148.2,118.3c-2,3.1-4.1,4.1-7.2,4.1H59c-2.2,0-3.9-1.1-5.5-2.5
			c-1.2-1.1-2.1-2.6-2.3-4.3c-0.3-2.1-0.1-4.1,0.6-5.6l41-70.7c2-2,4.1-4.1,7.2-4.1c3.1,0,6.1,2,7.2,4.1l41,70.7
			C149.2,113.2,149.2,116.3,148.2,118.3z"/>
	</g>
</g>
</svg>
