<?xml version="1.0" encoding="utf-8"?>
<!-- Generator: Adobe Illustrator 24.2.1, SVG Export Plug-In . SVG Version: 6.00 Build 0)  -->
<svg version="1.1" id="图层_2" xmlns="http://www.w3.org/2000/svg" xmlns:xlink="http://www.w3.org/1999/xlink" x="0px" y="0px"
	 viewBox="0 0 200 200" enable-background="new 0 0 200 200" xml:space="preserve">
<g>
	<path fill="#333333" d="M100.9,71.3c-1.2,0-1.9,0.5-2.1,1.5c-0.3,1-0.4,3-0.4,6.1v35.7c0,1.8,0.2,3.2,0.5,4.3c0.3,1,1,1.5,2,1.5
		c1.7,0,2.5-2.3,2.5-7V77.2c0-2.1-0.1-3.6-0.4-4.6C102.6,71.8,101.9,71.3,100.9,71.3z"/>
	<path fill="#333333" d="M165.7,19.7H34.3c-8.1,0-14.6,6.5-14.6,14.6v131.4c0,8.1,6.5,14.6,14.6,14.6h131.4
		c8.1,0,14.6-6.5,14.6-14.6V34.3C180.3,26.2,173.8,19.7,165.7,19.7z M73.9,113.4c0,4-0.3,6.8-0.8,8.5c-0.5,1.8-1.4,3.4-2.6,4.8
		c-1.2,1.5-2.9,2.5-5.1,3.2c-2.2,0.6-4.8,1-7.8,1c-3.3,0-6-0.3-8.1-1c-2.1-0.7-3.8-1.8-5.1-3.4c-1.3-1.7-2.2-3.6-2.7-5.7
		c-0.6-2.2-0.9-5.7-0.9-10.5v-2.6h13.6v6.5c0,2.4,0.1,4,0.4,4.9c0.3,0.9,1,1.3,2.1,1.3c1.9,0,2.9-1.9,2.9-5.7c0-2.4-0.1-4.2-0.4-5.5
		c-0.2-1.2-1-2.5-2.2-3.8c-5.7-4.5-9.5-7.9-11.6-10.1c-3.6-3.7-5.4-9.2-5.4-16.4c0-2.6,0.1-4.8,0.4-6.7c0.3-1.9,0.8-3.7,1.7-5.4
		c1.1-2.2,3-3.8,5.1-4.6c2.2-0.8,5.1-1.2,8.7-1.2c3.5,0,6.3,0.2,8.3,0.7c2,0.5,3.7,1.5,5.1,3.1c1.3,1.6,2.2,3.7,2.6,6.2
		c0.2,1.5,0.4,4.2,0.4,8.2v0.9H59.2v-3.1c0-1.8,0-2.9-0.1-3.3c-0.2-1.5-1-2.3-2.3-2.3c-1.8,0-2.6,1.8-2.6,5.5c0,2.8,0.4,4.9,1.2,6.1
		c0.8,1.2,3.3,3.3,7.6,6.4c4.7,3.3,7.7,6.8,9.2,10.5C73.3,102.6,73.9,107.1,73.9,113.4L73.9,113.4z M119.7,106.2
		c0,5.7-0.2,9.6-0.6,11.7c-0.9,4.6-4,7.7-9.4,9.1c0,1.7,0.3,2.7,0.8,3c0.5,0.3,1.8,0.5,3.6,0.5h5.6v8.5h-12.2c-4.2,0-6.9-0.6-8-1.9
		c-0.9-1-1.4-3.2-1.4-6.6c-1.5,0-3.1-0.2-4.6-0.6c-1.6-0.5-3-1.2-4.4-2.2c-3.2-2.3-5.3-5.3-6.2-9.1c-0.6-2.5-0.9-6.9-0.9-13.1V83.9
		c0-3,0.1-5.5,0.2-7.4c0.1-1.9,0.5-3.7,1-5.5c1.2-3.5,3.3-6.1,6.1-7.6c2.9-1.6,6.4-2.4,10.7-2.4c5,0,9.1,0.9,12.3,2.8
		c3.2,1.8,5.3,4.7,6.4,8.6c0.4,1.4,0.7,3.3,0.7,5.7c0.1,2.4,0.1,4.2,0.1,5.4V106.2z M159.6,130.5L159.6,130.5h-29c-1.1,0-2-0.9-2-2
		V63c0-1.1,0.9-2,2-2h12.3c1.1,0,2,0.9,2,2v51.7c0,1.1,0.9,2,2,2h10.7c1.1,0,2,0.9,2,2V130.5z"/>
</g>
</svg>
