<?xml version="1.0" encoding="utf-8"?>
<!-- Generator: Adobe Illustrator 22.0.1, SVG Export Plug-In . SVG Version: 6.00 Build 0)  -->
<svg version="1.1" id="图层_1" xmlns="http://www.w3.org/2000/svg" xmlns:xlink="http://www.w3.org/1999/xlink" x="0px" y="0px"
	 viewBox="0 0 200 200" enable-background="new 0 0 200 200" xml:space="preserve">
<g id="图层_1_1_">
	<g>
		<path fill="#6883D8" d="M162.3,11.5H37.7c-4.4,0-8,3.6-8,8v161c0,4.4,3.6,8,8,8h124.6c4.4,0,8-3.6,8-8v-161
			C170.3,15.1,166.7,11.5,162.3,11.5z M122.1,53.6c5.6,0,10.2,4.6,10.2,10.2S127.7,74,122.1,74s-10.2-4.6-10.2-10.2
			S116.4,53.6,122.1,53.6z M161.5,29.2v145.1l-17-26.5v-42.9h-17.2c0,0-4.2,2-13.6-8.6c-3.2,3.9-8.2,14.5-8.2,14.5l24.1,39.1
			c0,0,2.2,4.1,0.4,5.4c-1.8,1.3-4.1,3.2-4.1,3.2s-4,1.9-6.3-1.4c-0.5-1.9-25.9-39-25.9-39s-1.3,12.5-1.8,14.5s-2.4,15.8-9.1,15
			c-2.7-0.2-31.4,0.1-32.7,0c-2.2,0.7-7.5-2.4-7.7-7.3c0.5-3.8,1.6-6.5,7.3-7.3c14.6-0.2,26.8-0.4,26.8-0.4S77.8,102.2,91,89
			c-1.3-3-11.8-1.4-11.8-1.4l-12.3,12.7c0,0-4.2,3.8-8.6,0c-1.4-1.9-3.5-1.6-1.4-8.2C60.5,86,73.7,74,73.7,74h35c0,0,3.6,0.2,5,1.8
			s10.9,11.3,10.9,11.3s1.3,3.2,5,3.6c2.6,0.3,10.4,0.4,14.9,0.4V52.2l17-24.8V29.2z"/>
	</g>
</g>
</svg>
