<?xml version="1.0" encoding="utf-8"?>
<!-- Generator: Adobe Illustrator 24.2.1, SVG Export Plug-In . SVG Version: 6.00 Build 0)  -->
<svg version="1.1" id="图层_2" xmlns="http://www.w3.org/2000/svg" xmlns:xlink="http://www.w3.org/1999/xlink" x="0px" y="0px"
	 viewBox="0 0 200 200" enable-background="new 0 0 200 200" xml:space="preserve">
<g>
	<path fill="#333333" d="M138.2,100c0-5.4,3.4-10,8.2-11.9c-1.1-4.4-2.9-8.6-5.2-12.6c-6.4,2.9-13.9,0-16.8-6.4
		c-1.5-3.3-1.5-7.1,0-10.4c-3.9-2.3-8.2-4.1-12.6-5.2c-1.9,4.9-6.6,8.2-11.9,8.2c-5.4,0-10-3.4-11.9-8.2c-4.4,1.1-8.6,2.9-12.6,5.2
		c2.2,4.8,1.1,10.4-2.6,14.2c-3.7,3.7-9.4,4.8-14.2,2.6c-2.3,3.9-4.1,8.1-5.2,12.6c4.9,1.9,8.2,6.6,8.2,11.9c0,5.4-3.4,10-8.2,11.9
		c1.1,4.5,2.9,8.7,5.2,12.6c6.4-2.9,13.9,0,16.8,6.4c1.5,3.3,1.5,7.1,0,10.4c3.9,2.3,8.2,4.1,12.6,5.2c1.9-4.9,6.6-8.2,11.9-8.2
		c5.4,0,10,3.4,11.9,8.2c4.4-1.1,8.6-2.9,12.6-5.2c-2.2-4.8-1.1-10.4,2.6-14.2c3.7-3.7,9.4-4.8,14.2-2.6c2.3-3.9,4.1-8.1,5.2-12.6
		C141.5,110,138.2,105.3,138.2,100z M100,112.7c-7,0-12.7-5.7-12.7-12.8c0-7,5.7-12.7,12.7-12.7c7,0,12.7,5.7,12.7,12.8
		C112.8,107,107,112.7,100,112.7L100,112.7z"/>
	<path fill="#333333" d="M100,21.2c43.4,0,78.8,35.3,78.8,78.7c0,43.4-35.3,78.8-78.8,78.8S21.2,143.4,21.2,100
		C21.2,56.6,56.6,21.2,100,21.2 M100,10c-49.7,0-90,40.3-90,90c0,49.7,40.3,90,90,90s90-40.3,90-90C190,50.3,149.7,10,100,10L100,10
		z"/>
</g>
</svg>
