<?xml version="1.0" encoding="utf-8"?>
<!-- Generator: Adobe Illustrator 24.2.1, SVG Export Plug-In . SVG Version: 6.00 Build 0)  -->
<svg version="1.1" id="图层_2" xmlns="http://www.w3.org/2000/svg" xmlns:xlink="http://www.w3.org/1999/xlink" x="0px" y="0px"
	 viewBox="0 0 200 200" enable-background="new 0 0 200 200" xml:space="preserve">
<g>
	<g>
		<path fill="#333333" d="M170,30v140H30V30H170 M176,20H24c-2.2,0-4,1.8-4,4v152c0,2.2,1.8,4,4,4h152c2.2,0,4-1.8,4-4V24
			C180,21.8,178.2,20,176,20L176,20z"/>
	</g>
	<g>
		<path fill="#333333" d="M85,159.6c-2.8,0-5-2.2-5-5v-35H45c-2.8,0-5-2.2-5-5s2.2-5,5-5h40c2.8,0,5,2.2,5,5v40
			C90,157.4,87.8,159.6,85,159.6z"/>
	</g>
	<g>
		<path fill="#333333" d="M156.8,91.4h-40c-2.8,0-5-2.2-5-5v-40c0-2.8,2.2-5,5-5s5,2.2,5,5v35h35c2.8,0,5,2.2,5,5
			S159.6,91.4,156.8,91.4z"/>
	</g>
</g>
</svg>
