<?xml version="1.0" encoding="utf-8"?>
<!-- Generator: Adobe Illustrator 22.0.1, SVG Export Plug-In . SVG Version: 6.00 Build 0)  -->
<svg version="1.1" id="图层_1" xmlns="http://www.w3.org/2000/svg" xmlns:xlink="http://www.w3.org/1999/xlink" x="0px" y="0px"
	 viewBox="0 0 200 200" enable-background="new 0 0 200 200" xml:space="preserve">
<g id="图层_2_1_">
	<g>
		<path d="M121,113.6c-4.1,2.7-14.5,8.1-21.6,8.1s-13.9-3-22.2-8.1c-7.4-4.4-14.5-11.1-27.5-11.1c-10.2,0-17,4.3-22.8,8.3
			c-0.5,0.3-0.8,0.9-0.8,1.5v16.2c0,1.4,1.6,2.3,2.8,1.6l0,0c0,0,0.1,0,0.1-0.1c3.9-2.7,10.3-8,20.7-8c10.3,0,17.1,5.3,21,8
			c0,0,0.1,0,0.1,0.1c10,6,17.7,11.1,28.6,11.1c11,0,20.7-6.7,27.5-11.1c8.3-5.1,14.8-8.1,21.6-8.1s13.3,3,21.6,8.1
			c0.4,0.2,0.7,0.4,1.1,0.6c1.2,0.8,2.8-0.1,2.8-1.6v-15.9c0-0.6-0.3-1.2-0.8-1.5c-6.9-4.5-15.4-9.2-24.7-9.2
			C137.8,102.5,128.4,108.6,121,113.6z"/>
		<path d="M49.6,74.6c10.3,0,17.1,5.3,21,8l0.1,0.1c10,6,17.7,11,28.6,11c11,0,20.7-6.7,27.5-11.1c8.3-5.1,14.8-8.1,21.6-8.1
			s13.3,3,21.6,8.1c0.3,0.2,0.7,0.4,1,0.6c1.2,0.8,2.9-0.1,2.9-1.6c0-4.7,0-13,0-15.8c0-0.6-0.3-1.2-0.8-1.6
			c-6.9-4.5-15.4-9.2-24.7-9.2c-10.6,0-20.1,6-27.5,11.1c-4.1,2.7-14.5,8.1-21.6,8.1s-13.9-3-22.2-8.1C69.7,61.7,62.6,55,49.6,55
			c-10.2,0-17,4.3-22.8,8.3c-0.5,0.5-0.8,1-0.8,1.7v16.1c0,1.5,1.6,2.4,2.8,1.6l0,0c0,0,0.1,0,0.1-0.1
			C32.8,79.9,39.3,74.6,49.6,74.6z"/>
	</g>
</g>
</svg>
