<?xml version="1.0" encoding="utf-8"?>
<!-- Generator: Adobe Illustrator 22.0.1, SVG Export Plug-In . SVG Version: 6.00 Build 0)  -->
<svg version="1.1" id="图层_1" xmlns="http://www.w3.org/2000/svg" xmlns:xlink="http://www.w3.org/1999/xlink" x="0px" y="0px"
	 viewBox="0 0 200 200" enable-background="new 0 0 200 200" xml:space="preserve">
<g id="图层_1_1_">
	<polygon fill="#6883D8" points="141.8,189.4 141.8,153.6 177.6,153.6 	"/>
	<path fill="#6883D8" d="M153.7,10.4H46.3c-13.2,0-23.9,10.7-23.9,23.9v131.3c0,13.2,10.7,23.9,23.9,23.9h79.5v-45.8
		c0-3.3,2.7-6,6-6h45.8V34.3C177.6,21.1,166.9,10.4,153.7,10.4z M82.1,147.8c0,0.6-0.3,1.1-0.8,1.4l-6.8,3.9
		c-1.1,0.7-2.6-0.2-2.6-1.5v-13.7c0-0.3-0.1-0.5-0.4-0.6l-4.2-2.4c-1.8-1.1-4.1-1.1-5.9,0l-4.2,2.4c-0.2,0.1-0.4,0.4-0.4,0.6v13.7
		c0,1.3-1.4,2.1-2.6,1.5l-6.8-3.9c-0.5-0.3-0.8-0.8-0.8-1.4v-18.6c0-0.5,0.3-1,0.7-1.3l7.9-4.6c0.2-0.1,0.4-0.4,0.4-0.6V76.5
		c0-0.3-0.1-0.5-0.4-0.6l-8-4.6c-0.4-0.2-0.7-0.7-0.7-1.2V51.6c0-0.7,0.4-1.3,1-1.7l6.6-3.8c1.1-0.7,2.6,0.2,2.6,1.5v13.7
		c0,0.3,0.1,0.5,0.4,0.6l4.2,2.4c1.8,1.1,4.1,1.1,5.9,0l4.2-2.4c0.2-0.1,0.4-0.4,0.4-0.6V47.6c0-1.3,1.4-2.1,2.6-1.5l6.6,3.8
		c0.6,0.3,1,1,1,1.7V70c0,0.5-0.3,0.9-0.7,1.2l-8,4.6c-0.2,0.1-0.4,0.4-0.4,0.6v46.3c0,0.3,0.1,0.5,0.4,0.6l7.9,4.6
		c0.5,0.3,0.7,0.8,0.7,1.3L82.1,147.8z M147.4,110.5h-44.9c-4.1,0-7.5-3.4-7.5-7.5s3.4-7.5,7.5-7.5h44.9c4.1,0,7.5,3.4,7.5,7.5
		S151.5,110.5,147.4,110.5z M147.4,63.8h-44.9c-4.1,0-7.5-3.4-7.5-7.5s3.4-7.5,7.5-7.5h44.9c4.1,0,7.5,3.4,7.5,7.5
		S151.5,63.8,147.4,63.8z"/>
</g>
</svg>
