<?xml version="1.0" encoding="utf-8"?>
<!-- Generator: Adobe Illustrator 24.2.1, SVG Export Plug-In . SVG Version: 6.00 Build 0)  -->
<svg version="1.1" id="图层_2" xmlns="http://www.w3.org/2000/svg" xmlns:xlink="http://www.w3.org/1999/xlink" x="0px" y="0px"
	 viewBox="0 0 200 200" enable-background="new 0 0 200 200" xml:space="preserve">
<g>
	<path fill="#333333" d="M28.5,55h142.9c3.3,0,4.9-5.1,2.5-7.9l-21.6-25.8c-0.7-0.8-1.6-1.3-2.5-1.3H45.8c-1.1,0-2.1,0.6-2.8,1.6
		L25.7,47.4C23.7,50.4,25.4,55,28.5,55z M50.3,31.6h95.6l9.8,11.7H42.5L50.3,31.6z M93.4,114v40.1h14.6v-40.4l16.6,16.6l10.3-10.3
		l-28.2-28.2c-1.5-1.5-3.6-2.4-5.8-2.4h0l-3.7,0.3l-30.6,30.6l10.3,10.3L93.4,114L93.4,114z"/>
	<path fill="#333333" d="M176.3,63.8H23.7c-2,0-3.6,1.6-3.6,3.6v109c0,2,1.6,3.6,3.6,3.6h152.6c2,0,3.6-1.6,3.6-3.6v-109
		C180,65.4,178.3,63.8,176.3,63.8z M165.4,165.5H34.6V78.3h130.9V165.5z"/>
</g>
</svg>
