<?xml version="1.0" encoding="utf-8"?>
<!-- Generator: Adobe Illustrator 24.2.1, SVG Export Plug-In . SVG Version: 6.00 Build 0)  -->
<svg version="1.1" id="图层_2" xmlns="http://www.w3.org/2000/svg" xmlns:xlink="http://www.w3.org/1999/xlink" x="0px" y="0px"
	 viewBox="0 0 200 200" enable-background="new 0 0 200 200" xml:space="preserve">
<g>
	<g>
		<path fill="#333333" d="M164.9,20H35.1C26.8,20,20,26.8,20,35.1v129.9c0,8.3,6.7,15.1,15.1,15.1h129.9c8.3,0,15.1-6.8,15.1-15.1
			V35.1C180,26.8,173.2,20,164.9,20z M168.4,164.9c0,1.9-1.6,3.5-3.5,3.5H35.1c-1.9,0-3.5-1.6-3.5-3.5V35.1c0-1.9,1.6-3.5,3.5-3.5
			h129.9c1.9,0,3.5,1.6,3.5,3.5V164.9z"/>
	</g>
	<g>
		<path fill="#333333" d="M134.6,94.2h-31.3V62.9c0-3.2-2.6-5.8-5.8-5.8s-5.8,2.6-5.8,5.8v31.3H60.4c-3.2,0-5.8,2.6-5.8,5.8
			s2.6,5.8,5.8,5.8h31.3v31.3c0,3.2,2.6,5.8,5.8,5.8s5.8-2.6,5.8-5.8v-31.3h31.3c3.2,0,5.8-2.6,5.8-5.8S137.8,94.2,134.6,94.2z"/>
	</g>
</g>
</svg>
