<?xml version="1.0" encoding="utf-8"?>
<!-- Generator: Adobe Illustrator 22.0.1, SVG Export Plug-In . SVG Version: 6.00 Build 0)  -->
<svg version="1.1" id="图层_1" xmlns="http://www.w3.org/2000/svg" xmlns:xlink="http://www.w3.org/1999/xlink" x="0px" y="0px"
	 viewBox="0 0 200 200" enable-background="new 0 0 200 200" xml:space="preserve">
<g id="图层_1_1_">
	<g id="图层_2_2_">
		<g>
			<path fill="#6883D8" d="M129.3,147.8h-28.8c-4.4,0-8,3.6-8,8v10.9c0,4.4,3.6,8,8,8h66.1c4.4,0,8-3.6,8-8v-94c0-4.4-3.6-8-8-8
				h-21.3c-4.4,0-8,3.6-8,8v67.1C137.3,144.2,133.7,147.8,129.3,147.8z"/>
			<path fill="#6883D8" d="M124.7,72.7c0-4.4-3.6-8-8-8H85.1H33.3c-4.4,0-8,3.6-8,8v94c0,4.4,3.6,8,8,8H72c4.4,0,8-3.6,8-8v-22.3
				c0-4.4,3.6-8,8-8h28.6c4.4,0,8-3.6,8-8L124.7,72.7L124.7,72.7z"/>
			<path fill="#6883D8" d="M25.3,31.3v13.9c0,4.4,3.6,8,8,8h133.3c4.4,0,8-3.6,8-8V31.3c0-4.4-3.6-8-8-8H33.3
				C28.9,23.3,25.3,26.9,25.3,31.3z"/>
		</g>
	</g>
</g>
</svg>
