<?xml version="1.0" encoding="utf-8"?>
<!-- Generator: Adobe Illustrator 24.2.1, SVG Export Plug-In . SVG Version: 6.00 Build 0)  -->
<svg version="1.1" id="图层_2" xmlns="http://www.w3.org/2000/svg" xmlns:xlink="http://www.w3.org/1999/xlink" x="0px" y="0px"
	 viewBox="0 0 200 200" enable-background="new 0 0 200 200" xml:space="preserve">
<g>
	<path fill="#333333" d="M38.2,147.6c0.9,0.6,1.9,0.9,2.9,1.1c0.2,0,0.3,0.1,0.5,0.1h132.2c2,0,3.6-1.6,3.6-3.6V61.5
		c0-0.3,0-0.5-0.1-0.7c0-1.7-0.7-3.5-2.1-4.7c-2.6-2.3-6.7-2.1-9,0.5l-46.7,47.5l-8.2,7.9L74.6,93.6c-3.7-1.9-8.2-0.8-10.7,2.6
		l-27,42.4C34.8,141.4,35.3,145.4,38.2,147.6C38.1,147.5,38.2,147.6,38.2,147.6z"/>
	<path fill="#333333" d="M184.9,169.4c-0.6-3-3.3-5.2-6.4-5.1H27.3V30.1c0.1-3.1-2.1-5.9-5.1-6.5c-3.3-0.6-6.5,1.7-7.1,5
		C15,29,15,29.4,15,29.7v139c0,4.3,3.5,7.7,7.7,7.7h156.1c3.4,0,6.2-2.7,6.2-6.1C185,170.1,185,169.7,184.9,169.4z"/>
</g>
</svg>
