<?xml version="1.0" encoding="utf-8"?>
<!-- Generator: Adobe Illustrator 24.2.1, SVG Export Plug-In . SVG Version: 6.00 Build 0)  -->
<svg version="1.1" id="图层_2" xmlns="http://www.w3.org/2000/svg" xmlns:xlink="http://www.w3.org/1999/xlink" x="0px" y="0px"
	 viewBox="0 0 200 200" enable-background="new 0 0 200 200" xml:space="preserve">
<path fill="#333333" d="M145.2,91.1c9.5,5.7,21.2,20.9,26,39.3c2.9,11,3.8,21.3,4,27.8c0.1,2-2.6,2.9-3.7,1.1
	c-1.8-2.9-3.9-6.1-5.1-7.8c-2.5-3.6-13.3-16.8-29.9-24.5c-14-6.5-35.9-6.5-42.5-6.4c-1.1,0-1.9,0.9-1.9,2V149c0,1.6-1.8,2.6-3.2,1.6
	l-71.3-50.5c-1.1-0.8-1.1-2.5,0-3.3l71.3-50.5c1.3-0.9,3.2,0,3.2,1.6v26.5c0,1,0.8,1.9,1.8,2c4.9,0.4,18.4,1.6,26.2,3.2
	C136.3,83.2,145.2,91.1,145.2,91.1L145.2,91.1z"/>
</svg>
