<?xml version="1.0" encoding="utf-8"?>
<!-- Generator: Adobe Illustrator 22.0.1, SVG Export Plug-In . SVG Version: 6.00 Build 0)  -->
<svg version="1.1" id="图层_1" xmlns="http://www.w3.org/2000/svg" xmlns:xlink="http://www.w3.org/1999/xlink" x="0px" y="0px"
	 viewBox="0 0 200 200" enable-background="new 0 0 200 200" xml:space="preserve">
<g id="图层_1_1_">
	<path fill="#6883D8" d="M174,178.3H26c-5.2,0-9.5-4.3-9.5-9.5l0,0c0-5.2,4.3-9.5,9.5-9.5h148c5.2,0,9.5,4.3,9.5,9.5l0,0
		C183.5,174.1,179.3,178.3,174,178.3z"/>
	<g>
		<path fill="#6883D8" d="M56.9,151.1h-28V88.7c0-7.7,6.3-14,14-14l0,0c7.7,0,14,6.3,14,14V151.1z"/>
		<path fill="#6883D8" d="M114,151.1H86V31.8c0-7.7,6.3-14,14-14l0,0c7.7,0,14,6.3,14,14V151.1z"/>
		<path fill="#6883D8" d="M171.1,151.1h-28V65.8c0-7.7,6.3-14,14-14l0,0c7.7,0,14,6.3,14,14V151.1z"/>
	</g>
</g>
</svg>
