<?xml version="1.0" encoding="utf-8"?>
<!-- Generator: Adobe Illustrator 24.2.1, SVG Export Plug-In . SVG Version: 6.00 Build 0)  -->
<svg version="1.1" id="图层_2" xmlns="http://www.w3.org/2000/svg" xmlns:xlink="http://www.w3.org/1999/xlink" x="0px" y="0px"
	 viewBox="0 0 200 200" enable-background="new 0 0 200 200" xml:space="preserve">
<path fill="#333333" d="M150.6,6.6H49.4c-7.9,0-14.7,6.3-14.7,14.7v157.4c0,7.9,6.3,14.7,14.7,14.7h101.2c7.9,0,14.7-6.3,14.7-14.7
	V21.3C165.3,13.4,158.5,6.6,150.6,6.6z M126.5,111.2l-31,39.8c-2,2.9-5.9,2-5.4-1.5l2.9-35.9H76.4c-3.4,0-5.4-3.9-2.9-6.9L104.9,67
	c2-2.9,5.9-2,5.4,1.5l-3.4,35.9h16.7C127,104.3,129,108.3,126.5,111.2z M139,44.5H61c-5.5,0-10-4.5-10-10c0-5.5,4.5-10,10-10h78
	c5.5,0,10,4.5,10,10C149,40.1,144.5,44.5,139,44.5z"/>
</svg>
