<?xml version="1.0" encoding="utf-8"?>
<!-- Generator: Adobe Illustrator 22.0.1, SVG Export Plug-In . SVG Version: 6.00 Build 0)  -->
<svg version="1.1" id="图层_2_1_" xmlns="http://www.w3.org/2000/svg" xmlns:xlink="http://www.w3.org/1999/xlink" x="0px"
	 y="0px" viewBox="0 0 200 200" style="enable-background:new 0 0 200 200;" xml:space="preserve">
<style type="text/css">
	.st0{fill:#333333;}
</style>
<g>
	<g>
		<path class="st0" d="M141,180.2c-3,0-6-0.9-8.6-2.6L100,159.5l-32.8,18.1c-2.3,1.3-4.9,2.1-7.5,2.4c-4.7,0.4-9.2-1.8-11.8-5.7
			c-1.8-2.8-2.7-5.9-2.6-9V163l6.5-39.9L25.1,95.4c-2.8-2.7-4.5-6.1-5-10L20,84.8v-0.6c0-5.6,3.4-12.2,12.9-13.9l0.3-0.1L70,64.6
			l16.9-35.1c2.6-5.9,7.5-9.5,13.1-9.5c2.7,0,9.2,0.9,13.1,9.3l17,35.3l36.1,5.6c7.9,0.4,13.8,6.3,13.8,14.1v0.6l-0.1,0.6
			c-0.5,4.1-2.4,7.8-5.3,10.3l-26.7,27.3l6.4,39.1c0.2,1.3,0.3,2.5,0.2,3.8c0,2.7-0.8,5.5-2.2,7.9l-0.3,0.4l-0.3,0.4
			C149.1,178.2,145.1,180.2,141,180.2z M134.5,165.5C134.5,165.5,134.5,165.5,134.5,165.5L134.5,165.5z M46.2,88.5l27,27.9L66.9,155
			l33.2-18.3l32.8,18.3l-6.3-38.5l27.3-27.9l-37.1-5.8L100,48.2L83.4,82.8L46.2,88.5z M36.3,90C36.3,90,36.3,90,36.3,90L36.3,90z"/>
	</g>
</g>
</svg>
