<?xml version="1.0" encoding="utf-8"?>
<!-- Generator: Adobe Illustrator 22.0.1, SVG Export Plug-In . SVG Version: 6.00 Build 0)  -->
<svg version="1.1" id="图层_1" xmlns="http://www.w3.org/2000/svg" xmlns:xlink="http://www.w3.org/1999/xlink" x="0px" y="0px"
	 viewBox="0 0 200 200" enable-background="new 0 0 200 200" xml:space="preserve">
<g id="图层_1_1_">
	<g>
		<g>
			<path fill="#6883D8" d="M100.2,31.7c-48.6,0-87.7,39.8-87.7,88.4c0,17.5,5.1,33.6,13.9,48.2h147.2c8.8-14.6,13.9-31.1,13.9-48.6
				C187.9,71.5,148.8,31.7,100.2,31.7z M92.9,50.7c0-2.9,2.6-5.5,5.5-5.5s5.5,2.6,5.5,5.5v14.6c0,2.9-2.6,5.5-5.5,5.5
				s-5.5-2.6-5.5-5.5V50.7z M46.5,124.5H31.9c-2.9,0-5.5-2.6-5.5-5.5s2.6-5.5,5.5-5.5h14.6c2.9,0,5.5,2.6,5.5,5.5
				S49.4,124.5,46.5,124.5z M58.5,94.9c-1.5,2.6-4.7,3.7-7.3,1.8l-12.8-7.3c-2.6-1.5-3.7-4.7-1.8-7.3c1.5-2.6,4.7-3.7,7.3-1.8
				l12.8,7.3C58.9,89,60,92.3,58.5,94.9z M76.1,77.3c-2.6,1.5-5.8,0.7-7.3-1.8l-7.3-12.8c-1.5-2.6-0.7-5.8,1.8-7.3
				c2.6-1.5,5.8-0.7,7.3,1.8L77.9,70C79.7,72.2,78.6,75.9,76.1,77.3z M116.6,97.1l-21.6,49c-1.5,3.3-5.1,4.4-8,3.3
				c-3.3-1.5-4.4-5.1-3.3-8l21.6-49c1.5-3.3,5.1-4.4,8-3.3C116.6,90.1,118.1,94.2,116.6,97.1L116.6,97.1z M138.9,62.7l-7.3,12.8
				c-1.5,2.6-4.7,3.7-7.3,1.8c-2.6-1.5-3.7-4.7-1.8-7.3l7.3-12.8c1.5-2.6,4.7-3.7,7.3-1.8C139.6,56.5,140.7,59.8,138.9,62.7z
				 M141.8,94.9c-1.5-2.6-0.7-5.8,1.8-7.3l12.8-7.3c2.6-1.5,5.8-0.7,7.3,1.8c1.5,2.6,0.7,5.8-1.8,7.3l-12.8,7.3
				C146.9,98.5,143.3,97.4,141.8,94.9z M168.5,124.5h-14.6c-2.9,0-5.5-2.6-5.5-5.5s2.6-5.5,5.5-5.5h14.6c2.9,0,5.5,2.6,5.5,5.5
				S171.4,124.5,168.5,124.5z"/>
		</g>
	</g>
</g>
</svg>
