<?xml version="1.0" encoding="utf-8"?>
<!-- Generator: Adobe Illustrator 24.2.1, SVG Export Plug-In . SVG Version: 6.00 Build 0)  -->
<svg version="1.1" id="图层_2" xmlns="http://www.w3.org/2000/svg" xmlns:xlink="http://www.w3.org/1999/xlink" x="0px" y="0px"
	 viewBox="0 0 200 200" enable-background="new 0 0 200 200" xml:space="preserve">
<path fill="#333333" d="M171.7,66.1l-58.9-43c-7-5.1-16.5-5.2-23.5-0.1L28.6,66c-2.6,0.5-5,1.8-6.9,3.7c-2.7,2.6-4.2,6.1-4.2,9.8
	v89.6c0.1,3.7,1.5,7.2,4.2,9.8c2.6,2.5,6,3.9,9.6,3.9c0.1,0,0.1,0,0.2,0h137.1l0.2,0c7.6,0,13.7-6.2,13.7-13.7V79.4
	C182.4,72.9,177.8,67.5,171.7,66.1z M98.5,36c1.4-1,3.4-1,4.8,0l40.8,29.7H56.6L98.5,36z M147.7,81.5l-43.1,24
	c-2.9,1.6-6.4,1.6-9.3,0L53,81.5H147.7z M107.1,123.7l59-33v75.9H34V90.1l58.8,33.5C97.3,126.1,102.7,126.1,107.1,123.7z"/>
</svg>
