<?xml version="1.0" encoding="utf-8"?>
<!-- Generator: Adobe Illustrator 24.2.1, SVG Export Plug-In . SVG Version: 6.00 Build 0)  -->
<svg version="1.1" id="图层_2" xmlns="http://www.w3.org/2000/svg" xmlns:xlink="http://www.w3.org/1999/xlink" x="0px" y="0px"
	 viewBox="0 0 200 200" enable-background="new 0 0 200 200" xml:space="preserve">
<path fill="#333333" d="M171.4,74.9H28.6c-5.6,0-10.2,4.6-10.2,10.2v29.8c0,5.6,4.6,10.2,10.2,10.2h142.8c5.6,0,10.2-4.6,10.2-10.2
	V85.1C181.6,79.5,177,74.9,171.4,74.9z M74.6,105H43.8c-2.8,0-5-2.2-5-5c0-2.8,2.2-5,5-5h30.8c2.8,0,5,2.2,5,5
	C79.6,102.8,77.4,105,74.6,105z"/>
</svg>
