<svg id="图层_1" data-name="图层 1" xmlns="http://www.w3.org/2000/svg" viewBox="0 0 200 200"><defs><style>.cls-1{fill:#515151;}</style></defs><path class="cls-1" d="M56.74,83.18a7.52,7.52,0,0,1-10.55,0,7.32,7.32,0,0,1-.08-10.36l.08-.08L89.45,29.93a15,15,0,0,1,21.1,0l43.26,42.81a7.32,7.32,0,0,1,.08,10.36l-.08.08a7.52,7.52,0,0,1-10.55,0L100,40.37Z"/><path class="cls-1" d="M143.26,116.82a7.52,7.52,0,0,1,10.55,0,7.32,7.32,0,0,1,.08,10.36.3.3,0,0,1-.08.08l-43.26,42.81a15,15,0,0,1-21.1,0L46.19,127.26a7.32,7.32,0,0,1-.08-10.36l.08-.08a7.52,7.52,0,0,1,10.55,0L100,159.63Z"/></svg>