<?xml version="1.0" encoding="utf-8"?>
<!-- Generator: Adobe Illustrator 22.0.1, SVG Export Plug-In . SVG Version: 6.00 Build 0)  -->
<svg version="1.1" id="图层_1" xmlns="http://www.w3.org/2000/svg" xmlns:xlink="http://www.w3.org/1999/xlink" x="0px" y="0px"
	 viewBox="0 0 200 200" enable-background="new 0 0 200 200" xml:space="preserve">
<g id="图层_2_1_">
	<path d="M108.4,150c-2.2,2.3-5.2,3.6-8.4,3.6c-3.3,0-6.1-1.2-8.5-3.6c-2.3-2.3-3.6-5.4-3.6-8.6c0-3.3,1.2-6.3,3.6-8.6
		c2.3-2.5,5.2-3.7,8.5-3.7s6.1,1.2,8.4,3.7c2.4,2.4,3.6,5.3,3.6,8.6C112,144.8,110.8,147.6,108.4,150z M91.4,68.6
		c2.2-2.4,5.1-3.7,8.6-3.7s6.4,1.2,8.6,3.7c2.2,2.4,3.3,5.5,3.3,9.3c0,3.2-4.7,26.7-6.3,43.8H94.4C93.1,104.5,88,81,88,77.8
		C88,74.2,89.2,71.1,91.4,68.6L91.4,68.6z M176.7,148.6L113.9,36.9c-7.7-13.6-20.2-13.6-27.9,0L23.3,148.6
		c-7.7,13.6-1.4,24.8,14,24.8h125.6C178.1,173.3,184.4,162.2,176.7,148.6L176.7,148.6L176.7,148.6z"/>
</g>
</svg>
