<?xml version="1.0" encoding="utf-8"?>
<!-- Generator: Adobe Illustrator 24.2.1, SVG Export Plug-In . SVG Version: 6.00 Build 0)  -->
<svg version="1.1" id="图层_2" xmlns="http://www.w3.org/2000/svg" xmlns:xlink="http://www.w3.org/1999/xlink" x="0px" y="0px"
	 viewBox="0 0 200 200" enable-background="new 0 0 200 200" xml:space="preserve">
<path fill="#333333" d="M178.1,54.8l-37.4-33.5c-0.9-0.8-2.1-1.3-3.2-1.3H62.6c-1.2,0-2.4,0.5-3.2,1.3L21.9,54.8
	c-1.1,0.9-1.7,2.3-1.7,3.6v116.7c0,2.8,2.2,4.9,4.9,4.9h149.7c2.7,0,4.9-2.2,4.9-4.9V58.4C179.8,57,179.2,55.6,178.1,54.8z
	 M65.7,113.9c5.6-4.1,14.5-5.9,14.5-5.9c0.7,3.7,4.5,4.8,4.5,4.8c-0.7,10,2.6,19.3,2.6,19.3c-3,2.2-3,7.1-3,7.1
	c-7.4,0.7-14.8-0.7-14.8-0.7C62.7,126.1,65.7,113.9,65.7,113.9z M115.7,121.7c0,0-5.2,7.4-16.3,13c0,0-2.2-5.2-8.2-4.1
	c0,0-2.2-4.5-2.6-17.8c0,0,5.2,0.4,5.9-5.6c0,0,10,1.1,18.2,5.6C112.8,112.8,110.9,118.7,115.7,121.7z M115,109.8
	c-9.6-5.9-20.4-6.7-20.4-6.7c0-1.9-2.6-4.1-2.6-4.1c1.1-4.1,8.2-13.7,8.2-13.7c17.4,0.7,25.6,11.9,25.6,11.9
	c-0.4,7.8-2.6,11.9-2.6,11.9C119.1,106.4,115,109.8,115,109.8z M88.3,97.9c0,0-6.3-0.7-7.8,5.9c0,0-7,1.1-13,4.5
	c0,0,5.9-18.6,27.1-22.3C94.6,86,91.3,90.5,88.3,97.9z M73.1,142.5c5.9,1.1,13.7,0,13.7,0c2.2,4.5,8.2,3,8.2,3
	c1.5,2.2,9.3,9.7,9.3,9.7C82.4,157,73.1,142.5,73.1,142.5z M109.4,154c0,0-7.8-4.8-11.5-11.1c0,0,1.5-0.7,2.2-4.5
	c0,0,12.2-4.1,19.7-15.6c0,0,2.2,0,4.1-1.1c0,0,5.6,5.2,8.2,12.3C132.1,133.9,126.5,149.2,109.4,154z M133.9,128.7
	c0,0-4.8-7.8-7.4-9.7c0,0,2.2-4.1-0.4-7.4c0,0,2.2-4.5,3-10h0C129.1,101.6,138,111.6,133.9,128.7z M33.4,57.7l31-27.8h71.1l31,27.8
	H33.4z"/>
</svg>
