<?xml version="1.0" standalone="no"?><!DOCTYPE svg PUBLIC "-//W3C//DTD SVG 1.1//EN" "http://www.w3.org/Graphics/SVG/1.1/DTD/svg11.dtd"><svg t="1591604329301" class="icon" viewBox="0 0 1024 1024" version="1.1" xmlns="http://www.w3.org/2000/svg" p-id="3054" xmlns:xlink="http://www.w3.org/1999/xlink" width="200" height="200"><defs><style type="text/css"></style></defs><path d="M768 768v-1.28 1.28H256l-24.576-52.48c58.848-70.624 60.832-267.648 56.64-337.6L288 352c0-123.52 100.48-224 224-224s224 100.48 224 224v16c6.4 120.544 28.224 310.048 57.28 348.8L768 768zM311.776 704h406.976c-32.864-102.656-44.416-291.008-46.688-334.304L672 352c0-88.224-71.776-160-160-160s-160 71.776-160 160v24c1.408 22.592 10.848 210.016-40.224 328zM448 800h128l-32 64h-64z" p-id="3055"></path></svg>