<svg id="图层_1" data-name="图层 1" xmlns="http://www.w3.org/2000/svg" viewBox="0 0 200 200"><path d="M30.09,178.57a5.7,5.7,0,0,1-5.68-5.72V35.66a5.7,5.7,0,0,1,5.68-5.72H58v5a5.7,5.7,0,0,0,5.68,5.71h47a5.7,5.7,0,0,0,5.68-5.71v-5h27.33a5.7,5.7,0,0,1,5.68,5.72V90.93l11.36-12v-49a11.4,11.4,0,0,0-11.36-11.43H115.28V15.72A5.7,5.7,0,0,0,109.6,10H63.87a5.7,5.7,0,0,0-5.68,5.72v2.79H24.41A11.4,11.4,0,0,0,13.05,29.94V178.57A11.4,11.4,0,0,0,24.41,190H92.56L79.93,178.57Zm35.29-74.5L49.63,119.94a4.6,4.6,0,0,0,0,6.47h0l5.8,5.83a4.52,4.52,0,0,0,6.43,0h0l15.79-15.89a1.06,1.06,0,0,0,0-1.5.69.69,0,0,0-.13-.11h0a45.57,45.57,0,0,1-10.45-10.52,1.08,1.08,0,0,0-1.52-.27Zm-4,21.57a4,4,0,0,1-5.2,0,4,4,0,0,1,0-5.67,4,4,0,0,1,5.64,0h0A4,4,0,0,1,61.34,125.64Zm55-45.32a.8.8,0,0,0-1-.43.68.68,0,0,0-.26.18l-7.44,7.77a3.39,3.39,0,0,1-4.82.08.08.08,0,0,1,0,0l-7.5-7.56a3.43,3.43,0,0,1,0-4.84l7.61-7.69a.88.88,0,0,0,0-1.23,1.1,1.1,0,0,0-.31-.2,24.3,24.3,0,0,0-26.37,5.4,24.76,24.76,0,0,0,.1,34.87h0a24.38,24.38,0,0,0,34.64.11A24.68,24.68,0,0,0,116.38,80.32ZM101,162.79l-.37,16.53L117,179l48.18-48.5-16.06-16.18Zm84.32-60.63-8-8.08h0a5.65,5.65,0,0,0-8,0l-12,12.12,16.07,16.16,12-12.12A5.73,5.73,0,0,0,185.28,102.16Z"/></svg>