<?xml version="1.0" encoding="utf-8"?>
<!-- Generator: Adobe Illustrator 24.2.1, SVG Export Plug-In . SVG Version: 6.00 Build 0)  -->
<svg version="1.1" id="图层_2" xmlns="http://www.w3.org/2000/svg" xmlns:xlink="http://www.w3.org/1999/xlink" x="0px" y="0px"
	 viewBox="0 0 200 200" enable-background="new 0 0 200 200" xml:space="preserve">
<g>
	<g>
		<path fill="#333333" d="M161.2,90.1l-33.6-17.8l-30.5,38.6l-27.6-37L38.8,90.1h0c-0.5,0.3-1,0.7-1.2,1.2c-0.8,1.5-0.2,3.3,1.2,4.1
			L98.6,127c0.9,0.5,1.9,0.5,2.8,0l59.8-31.6c0.5-0.3,1-0.7,1.2-1.2C163.2,92.7,162.6,90.9,161.2,90.1z"/>
	</g>
	<g>
		<path fill="#333333" d="M103.1,151.4l59.3-31.3v-11.8l-64.1,33.9l-60.7-32.1v11.8l55.8,29.5l0.8,0.4
			C97.1,153,100.4,152.9,103.1,151.4z"/>
	</g>
	<g>
		<polygon fill="#333333" points="37.6,136.2 37.6,147.9 98.3,180 162.4,146.1 162.4,134.3 98.3,168.2 		"/>
	</g>
	<g>
		<path fill="#333333" d="M123.1,63.4h-14.7c0-20.8,6.5-34.2,28.7-43.4c-33.7,1.1-46.8,16.8-48.5,43.4H73.7L98.4,98L123.1,63.4z"/>
	</g>
</g>
</svg>
