<?xml version="1.0" encoding="utf-8"?>
<!-- Generator: Adobe Illustrator 24.2.1, SVG Export Plug-In . SVG Version: 6.00 Build 0)  -->
<svg version="1.1" id="图层_2" xmlns="http://www.w3.org/2000/svg" xmlns:xlink="http://www.w3.org/1999/xlink" x="0px" y="0px"
	 viewBox="0 0 200 200" enable-background="new 0 0 200 200" xml:space="preserve">
<path fill="#333333" d="M38.2,147.6c2.8,2.1,6.8,1.5,8.9-1.4c0,0,0,0,0,0L72,112l37.3,18.7c3.4,1.6,7.5,0.8,10-2l56.5-63.6
	c2.3-2.6,2.1-6.7-0.5-9c-2.6-2.3-6.7-2.1-9,0.5l-54.1,61.2L74.6,98.9c-3.7-1.9-8.2-0.8-10.7,2.6l-27,37.1
	C34.8,141.4,35.3,145.4,38.2,147.6C38.1,147.5,38.2,147.6,38.2,147.6z M184.9,169.4c-0.6-3-3.3-5.2-6.4-5.1H27.3V30.1
	c0.1-3.1-2.1-5.9-5.1-6.5c-3.3-0.6-6.5,1.7-7.1,5C15,29,15,29.4,15,29.7v139c0,4.3,3.5,7.7,7.7,7.7h0h156.1c3.4,0,6.2-2.7,6.2-6.1
	C185,170.1,185,169.7,184.9,169.4L184.9,169.4z"/>
</svg>
