<?xml version="1.0" encoding="utf-8"?>
<!-- Generator: Adobe Illustrator 24.2.1, SVG Export Plug-In . SVG Version: 6.00 Build 0)  -->
<svg version="1.1" id="图层_2" xmlns="http://www.w3.org/2000/svg" xmlns:xlink="http://www.w3.org/1999/xlink" x="0px" y="0px"
	 viewBox="0 0 200 200" enable-background="new 0 0 200 200" xml:space="preserve">
<g>
	<path fill="#333333" d="M100,43.4H43.4v113.2H78V100h22V43.4z M156.6,43.4h-48.4V100h48.4V43.4z M151.1,94.5h-37.4V48.9h37.4V94.5z
		"/>
	<path fill="#333333" d="M86.2,108.2h70.4v48.4H86.2V108.2z M25.7,12C18.2,12,12,18.2,12,25.7c0,0,0,0,0,0c0,6.5,4.5,12,10.6,13.4
		v1.9h5.5v-1.8c5.6-1,10-5.2,11.1-10.8h1.4V23h-1.4C37.9,16.6,32.3,12,25.7,12z M25.7,34c-4.6,0-8.2-3.7-8.2-8.2
		c0-4.6,3.7-8.2,8.2-8.2c4.6,0,8.2,3.7,8.2,8.2C34,30.3,30.3,34,25.7,34z M171.1,39.1v1.9h5.5v-1.8c6.5-1.1,11.4-6.7,11.4-13.5
		c0-7.6-6.2-13.7-13.8-13.7c-6.5,0-12.1,4.6-13.5,11h-2.2v5.5h2.2C161.9,33.8,165.9,37.9,171.1,39.1L171.1,39.1z M174.2,17.5
		c4.6,0,8.2,3.7,8.2,8.2c0,4.6-3.7,8.2-8.2,8.2c-4.6,0-8.2-3.7-8.2-8.2C166,21.2,169.7,17.5,174.2,17.5z M28.1,160.7v-1.8h-5.5v1.9
		c-6.1,1.4-10.6,6.9-10.6,13.4c0,7.6,6.2,13.7,13.7,13.7c0,0,0,0,0,0c6.5,0,12.2-4.6,13.5-11h1.4v-5.5h-1.4
		C38.1,166,33.7,161.7,28.1,160.7L28.1,160.7z M25.7,182.5c-4.5,0-8.2-3.7-8.2-8.2s3.7-8.2,8.2-8.2c4.5,0,8.2,3.7,8.2,8.2
		S30.3,182.5,25.7,182.5z M176.6,160.7V159h-5.5v1.9c-5.2,1.2-9.3,5.4-10.3,10.6h-2.2v5.5h2.2c1.5,7.4,8.8,12.2,16.2,10.7
		c6.4-1.3,11-6.9,11-13.5C188,167.5,183.1,161.8,176.6,160.7L176.6,160.7z M174.2,182.5c-4.5,0-8.2-3.7-8.2-8.2s3.7-8.2,8.2-8.2
		c4.6,0,8.2,3.7,8.2,8.2S178.8,182.5,174.2,182.5z M46.3,23h5.6v5.5h-5.6V23z M68.7,23h5.6v5.5h-5.6V23z M57.5,23h5.6v5.5h-5.6V23z
		 M80,23h5.6v5.5H80V23z M136.1,23h5.6v5.5h-5.6V23z M102.4,23h5.6v5.5h-5.6V23z M147.3,23h5.6v5.5h-5.6V23z M124.9,23h5.6v5.5h-5.6
		V23z M113.6,23h5.6v5.5h-5.6V23z M91.2,23h5.6v5.5h-5.6V23z M91.2,171.5h5.6v5.5h-5.6V171.5z M68.7,171.5h5.6v5.5h-5.6V171.5z
		 M80,171.5h5.6v5.5H80V171.5z M46.3,171.5h5.6v5.5h-5.6V171.5z M57.5,171.5h5.6v5.5h-5.6V171.5z M102.4,171.5h5.6v5.5h-5.6V171.5z
		 M136.1,171.5h5.6v5.5h-5.6V171.5z M124.9,171.5h5.6v5.5h-5.6V171.5z M113.6,171.5h5.6v5.5h-5.6V171.5z M147.3,171.5h5.6v5.5h-5.6
		V171.5z M171.1,91.6h5.5v5.6h-5.5V91.6z M171.1,46.7h5.5v5.6h-5.5V46.7z M171.1,102.8h5.5v5.6h-5.5V102.8z M171.1,114h5.5v5.6h-5.5
		V114z M171.1,69.1h5.5v5.6h-5.5V69.1z M171.1,80.4h5.5V86h-5.5V80.4z M171.1,57.9h5.5v5.6h-5.5V57.9z M171.1,125.3h5.5v5.6h-5.5
		V125.3z M171.1,136.5h5.5v5.6h-5.5V136.5z M171.1,147.7h5.5v5.6h-5.5V147.7z M22.6,80.4h5.5V86h-5.5V80.4z M22.6,69.1h5.5v5.6h-5.5
		V69.1z M22.6,147.7h5.5v5.6h-5.5V147.7z M22.6,46.7h5.5v5.6h-5.5V46.7z M22.6,136.5h5.5v5.6h-5.5V136.5z M22.6,114h5.5v5.6h-5.5
		V114z M22.6,125.3h5.5v5.6h-5.5V125.3z M22.6,102.8h5.5v5.6h-5.5V102.8z M22.6,57.9h5.5v5.6h-5.5V57.9z M22.6,91.6h5.5v5.6h-5.5
		V91.6z"/>
</g>
</svg>
