<?xml version="1.0" encoding="utf-8"?>
<!-- Generator: Adobe Illustrator 22.0.1, SVG Export Plug-In . SVG Version: 6.00 Build 0)  -->
<svg version="1.1" id="图层_1" xmlns="http://www.w3.org/2000/svg" xmlns:xlink="http://www.w3.org/1999/xlink" x="0px" y="0px"
	 viewBox="0 0 200 200" enable-background="new 0 0 200 200" xml:space="preserve">
<g id="图层_1_1_">
	<g>
		<path fill="#6883D8" d="M176.5,37.3l-74.9-25.5c-1.1-0.4-2.3-0.4-3.4,0L23.4,37.3c-2.1,0.7-3.5,2.7-3.5,4.9v65.2
			c0,28.1,16,52.9,42.4,64.9l33.8,15.8c1.4,0.6,3,0.7,4.4,0l36.3-16.7c26.4-11.2,43.3-36.9,43.3-65.8V42.3
			C180,40,178.6,38.1,176.5,37.3z M106.4,98.8l-0.1,13.8l6.6,0.1c3.6,0,6.6,3.1,6.5,6.7s-3.1,6.6-6.7,6.5l-6.6-0.1l-0.1,6.3l7.8,0.1
			l0,0c3.6,0,6.6,3.1,6.5,6.7c0,3.6-3.1,6.6-6.7,6.5l-8.1-0.1l-0.1,8.1l0,0c-0.3,3.4-3.1,6.1-6.6,6.1s-6.3-2.8-6.5-6.2l0,0l0.6-54.6
			c-11.1-2.5-20-11.3-22.3-22.4c-3.4-15.9,6.6-31.4,22.9-34.9c16.2-3.4,32,6.6,35.8,22.6C132.7,79.8,122.6,95.3,106.4,98.8z"/>
		<path fill="#6883D8" d="M100,54c-9.3-0.4-16.9,7-17,16s7.3,16.3,16.6,16.4c9.3,0.1,16.9-7,17-16S109.3,54.1,100,54z"/>
	</g>
</g>
</svg>
