<?xml version="1.0" encoding="utf-8"?>
<!-- Generator: Adobe Illustrator 24.2.1, SVG Export Plug-In . SVG Version: 6.00 Build 0)  -->
<svg version="1.1" id="图层_2" xmlns="http://www.w3.org/2000/svg" xmlns:xlink="http://www.w3.org/1999/xlink" x="0px" y="0px"
	 viewBox="0 0 200 200" enable-background="new 0 0 200 200" xml:space="preserve">
<g>
	<path fill="#333333" d="M48.9,133l50.9-51.4l51.3,50.8c2.7,2.6,7,2.6,9.7-0.1c1.3-1.4,2-3.1,2-4.8s-0.7-3.5-2.1-4.8L104.5,67
		c-2.7-2.6-7-2.6-9.7,0.1c-0.2,0.2-0.3,0.4-0.5,0.6l-55.2,55.7c-2.6,2.7-2.6,7.1,0.1,9.7C41.9,135.7,46.2,135.7,48.9,133z"/>
</g>
<g>
	<path fill="#333333" d="M168,186H32c-9.9,0-18-8.1-18-18V32c0-9.9,8.1-18,18-18h136c9.9,0,18,8.1,18,18v136
		C186,177.9,177.9,186,168,186z M32,26c-3.3,0-6,2.7-6,6v136c0,3.3,2.7,6,6,6h136c3.3,0,6-2.7,6-6V32c0-3.3-2.7-6-6-6H32z"/>
</g>
</svg>
