<svg id="图层_1" data-name="图层 1" xmlns="http://www.w3.org/2000/svg" viewBox="0 0 200 200"><path d="M89,138.81H41a8.26,8.26,0,0,1-8.17-8.21v-55A8.26,8.26,0,0,1,41,67.41h88a8.07,8.07,0,0,1,8,7.17V86.93a54,54,0,0,1,16.33.49V37.83a13.66,13.66,0,0,0-13.66-13.74H30.31A13.92,13.92,0,0,0,16.5,38V140.75a13.93,13.93,0,0,0,13.81,13.9H90.6a54.86,54.86,0,0,1-1.66-13.41Q88.94,140,89,138.81ZM57.63,44.11A3.36,3.36,0,0,1,61,40.67H80.49a3.37,3.37,0,0,1,3.42,3.44v7.31a3.37,3.37,0,0,1-3.42,3.44H61a3.36,3.36,0,0,1-3.41-3.44Zm-25.09,0A3.36,3.36,0,0,1,36,40.67h8a3.36,3.36,0,0,1,3.41,3.44v7.31A3.36,3.36,0,0,1,44,54.86H36a3.36,3.36,0,0,1-3.41-3.44Z"/><path d="M180.37,142a8.15,8.15,0,0,1-4.17-3.12,8.85,8.85,0,0,1-1.56-5.22,11,11,0,0,1,2.08-5.73,12.49,12.49,0,0,1,4.7-3.13c.52,0,1-.52,1.56-1s.52-1,.52-2.08c-.52-2.09-1-3.65-1.56-5.22a8.4,8.4,0,0,0-2.09-3.64c-.52-.52-1-1-1.56-1a1.92,1.92,0,0,0-1.57.53c-1.56,1-3.64,1-5.73,1a6.67,6.67,0,0,1-5.21-2.09c-1.56-1-2.09-2.6-2.61-4.69-.52-1.56,0-3.65.52-5.21.53,0,.53-.52.53-1a1.92,1.92,0,0,0-.53-1.57c0-.52-1-1.56-2.08-2.08s-1.56-1-2.61-1.56a3.93,3.93,0,0,0-2.6-1,4.74,4.74,0,0,0-2.61-.52,1.91,1.91,0,0,0-1.56.52c-.52.52-1,1-1,1.57a8.22,8.22,0,0,1-3.13,4.17,9.5,9.5,0,0,1-10.43,0,8.15,8.15,0,0,1-3.12-4.17c-.52-.52-.52-1.05-1-1.57,0-.52-1-.52-1.56-.52-1,0-1.56.52-2.61.52-1,.52-2.08.52-3.12,1L123,96.69A5.17,5.17,0,0,0,121,99.3v1c.52.52.52.52.52,1v4.17a6.66,6.66,0,0,1-.52,3.13,11.72,11.72,0,0,1-1.57,2.6,9.88,9.88,0,0,1-5.21,2.61c-1.56.52-3.65,0-5.21-.52a2.62,2.62,0,0,0-3.13,0c-.52,0-1,.52-1,1.56-.52,1-1,1.56-1.57,2.61a4,4,0,0,0-1,2.6,5.71,5.71,0,0,0-.52,2.61c0,.52.52,1,1,2.08a1.12,1.12,0,0,0,1.05,1,9.64,9.64,0,0,1,4.69,3.65,6.68,6.68,0,0,1,2.08,5.21,7.47,7.47,0,0,1-2.08,5.21,29.15,29.15,0,0,1-4.69,3.65,2.85,2.85,0,0,0-1.57,2.6c-.52.52,0,1.57,0,2.61.52,1,.52,2.08,1,3.13s1,1.56,1.57,2.6,1,1.57,1.56,1.57H109c1,0,2.6-.52,3.65-.52a5.61,5.61,0,0,1,3.64,1c1.57,0,2.09.52,3.13,1.56,1,1.56,2.09,3.13,2.09,4.69.52,1.57,0,3.13-.52,4.69a3.11,3.11,0,0,0-.53,2.09,1.89,1.89,0,0,0,.53,1.56,7.18,7.18,0,0,0,2.08,1.56,10.89,10.89,0,0,0,2.61,1.57c1,.52,2.08.52,3.12,1a4.74,4.74,0,0,0,2.61.52c1,0,1.56,0,2.08-.52,1-.52,1-1,1.57-1.56.52-2.09,1.56-3.13,3.13-4.69a7.54,7.54,0,0,1,10.42,0,12.27,12.27,0,0,1,3.13,4.69c0,.52.52,1,1,1.56a1.91,1.91,0,0,0,1.56.52,22.78,22.78,0,0,1,2.61-.52c.52-.52,1.56-.52,2.6-1a10.89,10.89,0,0,0,2.61-1.57l1.56-1.56c1.05-1.56,1.05-2.6.53-3.65-1.05-1.56-1.05-3.12-1.05-5.21a10,10,0,0,1,2.61-5.21,7.18,7.18,0,0,1,2.08-1.56c1,0,1.57-.53,2.61-.53h2.61c.52,0,1.56.53,2.08.53a1.91,1.91,0,0,0,1.56.52,3.14,3.14,0,0,0,2.09-.52c1,0,1.56-.53,2.08-1.57a11,11,0,0,0,1.57-2.6,7.48,7.48,0,0,0,1-3.13v-2.61c-.52-.52-.52-1-2.08-3.12C180.89,142.56,180.89,142,180.37,142Zm-19.8,0a19,19,0,0,1-4.17,6.26,43.62,43.62,0,0,1-6.26,4.17,17.84,17.84,0,0,1-14.59,0,18.81,18.81,0,0,1-6.26-4.17,43.53,43.53,0,0,1-4.16-6.26,17.73,17.73,0,0,1,0-14.59,18.65,18.65,0,0,1,4.16-6.25A23,23,0,0,1,135,117a20.75,20.75,0,0,1,7.82-1.57,13,13,0,0,1,6.77,1.57,18.66,18.66,0,0,1,6.26,4.17,44.4,44.4,0,0,1,4.17,6.25,16.7,16.7,0,0,1,1.56,7.3A30.78,30.78,0,0,1,160.57,142Z"/><path d="M60.81,81.26H55.62l-8.9,13a7,7,0,0,0-1.43,3.87,6.05,6.05,0,0,0,1.07,3.53L55.61,115h5.18L50.64,100.54a3.54,3.54,0,0,1-.69-2,3.1,3.1,0,0,1,.51-1.75Z"/><polygon points="68.51 116.2 87.64 79.58 82.08 79.58 63.04 116.2 68.51 116.2"/><path d="M104.89,98.22a7,7,0,0,0-1.42-3.87l-8.92-13H89.36L99.72,96.82a3.08,3.08,0,0,1,.51,1.76,3.55,3.55,0,0,1-.7,2L89.38,115h5.19l9.24-13.28A6.08,6.08,0,0,0,104.89,98.22Z"/></svg>