<?xml version="1.0" encoding="utf-8"?>
<!-- Generator: Adobe Illustrator 22.0.1, SVG Export Plug-In . SVG Version: 6.00 Build 0)  -->
<svg version="1.1" id="图层_1" xmlns="http://www.w3.org/2000/svg" xmlns:xlink="http://www.w3.org/1999/xlink" x="0px" y="0px"
	 viewBox="0 0 200 200" enable-background="new 0 0 200 200" xml:space="preserve">
<g>
	<path fill="#6883D8" d="M121.4,38.7H78.6c-5.5,0-10-4.5-10-10v-0.6c0-5.5,4.5-10,10-10h42.7c5.5,0,10,4.5,10,10v0.6
		C131.3,34.2,126.9,38.7,121.4,38.7z"/>
	<path fill="#6883D8" d="M156.3,31.5h-16.9v5.4c0,6.9-5.6,12.5-12.5,12.5H70.6c-6.9,0-12.5-5.6-12.5-12.5v-5.4H43.5
		C36.6,31.5,31,37.1,31,44v125.5c0,6.9,5.6,12.5,12.5,12.5h112.9c6.9,0,12.5-5.6,12.5-12.5V44.1C168.9,37.2,163.3,31.5,156.3,31.5z
		 M72.1,89.2c1.4-1.4,3.4-2.2,5.4-2.3c2.1,0,4.1,0.9,5.5,2.4l11.3,12l26.6-27.1c1.4-1.4,3.4-2.3,5.4-2.3c2.1,0,4.1,0.9,5.5,2.4
		c2.9,3,2.9,7.8-0.1,10.8l0,0l-32,32.7c-1.4,1.4-3.4,2.3-5.4,2.3c-2.1,0-4.1-0.9-5.5-2.4L72,99.9C69.1,96.9,69.3,92.2,72.1,89.2z
		 M138.8,153.3c0,4-3.2,7.2-7.2,7.2H70.3c-4,0-7.2-3.2-7.2-7.2l0,0c0-4,3.2-7.2,7.2-7.2h61.3C135.6,146.1,138.8,149.3,138.8,153.3
		L138.8,153.3z"/>
</g>
<g id="图层_1_1_">
</g>
</svg>
