<?xml version="1.0" encoding="utf-8"?>
<!-- Generator: Adobe Illustrator 24.2.1, SVG Export Plug-In . SVG Version: 6.00 Build 0)  -->
<svg version="1.1" id="图层_2" xmlns="http://www.w3.org/2000/svg" xmlns:xlink="http://www.w3.org/1999/xlink" x="0px" y="0px"
	 viewBox="0 0 200 200" enable-background="new 0 0 200 200" xml:space="preserve">
<path fill="#333333" d="M82.6,178.9h34.9c2,0,3.6-1.6,3.6-3.6v-34.8c0-2-1.6-3.6-3.6-3.6H82.6c-2,0-3.6,1.6-3.6,3.6v34.7
	C79,177.3,80.6,178.9,82.6,178.9z M24.7,121.1h34.9c2,0,3.6-1.6,3.6-3.6v-35c0-2-1.6-3.6-3.6-3.6H24.7c-2,0-3.6,1.6-3.6,3.6v35
	C21.1,119.5,22.7,121.1,24.7,121.1z M82.6,121.1h34.9c2,0,3.6-1.6,3.6-3.6v-35c0-2-1.6-3.6-3.6-3.6H82.6c-2,0-3.6,1.6-3.6,3.6v35
	C79,119.5,80.6,121.1,82.6,121.1z M59.5,136.9H24.7c-2,0-3.6,1.6-3.6,3.6v34.7c0,2,1.6,3.6,3.6,3.6h34.9c2,0,3.6-1.6,3.6-3.6v-34.7
	C63.2,138.6,61.5,136.9,59.5,136.9z M140.5,178.9h34.8c2,0,3.6-1.6,3.6-3.6v-34.8c0-2-1.6-3.6-3.6-3.6h-34.8c-2,0-3.6,1.6-3.6,3.6
	v34.7C136.9,177.3,138.5,178.9,140.5,178.9z M21.1,24.7v34.8c0,2,1.6,3.6,3.6,3.6h150.6c2,0,3.6-1.6,3.6-3.6V24.7
	c0-2-1.6-3.6-3.6-3.6H24.7C22.7,21.1,21.1,22.7,21.1,24.7z M140.5,121.1h34.8c2,0,3.6-1.6,3.6-3.6v-35c0-2-1.6-3.6-3.6-3.6h-34.8
	c-2,0-3.6,1.6-3.6,3.6v35C136.9,119.5,138.5,121.1,140.5,121.1z"/>
</svg>
