<?xml version="1.0" encoding="utf-8"?>
<!-- Generator: Adobe Illustrator 22.0.1, SVG Export Plug-In . SVG Version: 6.00 Build 0)  -->
<svg version="1.1" id="图层_1" xmlns="http://www.w3.org/2000/svg" xmlns:xlink="http://www.w3.org/1999/xlink" x="0px" y="0px"
	 viewBox="0 0 200 200" enable-background="new 0 0 200 200" xml:space="preserve">
<g id="图层_1_1_">
	<g>
		<g>
			<rect x="68.1" y="36.1" width="64" height="7.9"/>
			<rect x="140.1" y="20.2" width="7.9" height="31.8"/>
			<rect x="52.3" y="20.2" width="7.9" height="31.8"/>
			<polygon points="63.5,121.3 57.2,126.2 83.3,162 151,95.2 144.7,88.6 85,149.4 			"/>
		</g>
		<path d="M175.1,40.8c-3.1-3.1-6.9-4.7-11.2-4.7H156V44h7.9c2.3,0,4.2,0.7,5.7,2.2s2.2,3.4,2.2,5.7v15.9H28.4l0,0l0,0V52
			c0-2.3,0.7-4.2,2.2-5.7c1.5-1.5,3.4-2.2,5.7-2.2h7.9v-7.9h-7.9c-4.4,0-8.1,1.6-11.2,4.7c-3.1,3.1-4.7,6.9-4.7,11.2v111.6
			c0,4.4,1.6,8.1,4.7,11.2c3.1,3.1,6.8,4.7,11.2,4.7h127.5c4.4,0,8.1-1.6,11.2-4.7c3.1-3.1,4.7-6.8,4.7-11.2V52
			C179.8,47.6,178.2,43.9,175.1,40.8z M169.6,169.3c-1.5,1.5-3.4,2.2-5.7,2.2H36.4c-2.3,0-4.2-0.7-5.7-2.2s-2.2-3.4-2.2-5.7V76l0,0
			l0,0h143.4v87.6C171.8,165.9,171.1,167.9,169.6,169.3z"/>
	</g>
</g>
</svg>
