<?xml version="1.0" encoding="utf-8"?>
<!-- Generator: Adobe Illustrator 24.2.1, SVG Export Plug-In . SVG Version: 6.00 Build 0)  -->
<svg version="1.1" id="图层_2" xmlns="http://www.w3.org/2000/svg" xmlns:xlink="http://www.w3.org/1999/xlink" x="0px" y="0px"
	 viewBox="0 0 200 200" enable-background="new 0 0 200 200" xml:space="preserve">
<path fill="#333333" d="M174.9,37.3h-17v44.4c0,3.8-3.1,7-7,7s-7-3.1-7-7V37.3h-20v44.4c0,3.8-3.1,7-7,7c-3.8,0-7-3.1-7-7V37.3H90
	v44.4c0,3.8-3.1,7-7,7c-3.8,0-7-3.1-7-7V37.3h-20v44.4c0,3.8-3.1,7-7,7s-7-3.1-7-7V37.3H25c-2.8,0-5,2.2-5,5v94.2c0,2.8,2.2,5,5,5
	h29.3l10.3,18.5c0.9,1.6,2.6,2.6,4.4,2.6h61.8c1.8,0,3.6-1,4.5-2.6l9.4-18.3H175c2.8,0,5-2.2,5-5V42.4
	C179.8,39.6,177.6,37.3,174.9,37.3z"/>
</svg>
