<?xml version="1.0" encoding="utf-8"?>
<!-- Generator: Adobe Illustrator 24.2.1, SVG Export Plug-In . SVG Version: 6.00 Build 0)  -->
<svg version="1.1" id="图层_2" xmlns="http://www.w3.org/2000/svg" xmlns:xlink="http://www.w3.org/1999/xlink" x="0px" y="0px"
	 viewBox="0 0 200 200" enable-background="new 0 0 200 200" xml:space="preserve">
<path fill="#333333" d="M123.2,34.8c-12.4-23.2-33.1-23.2-45.5,0L18.1,141.3c-12.4,23.1-1.6,41.3,24.8,41.3h114.1
	c26.5,0,37.1-19,24.8-41.3L123.2,34.8L123.2,34.8z M90.9,68.2c-0.5-5,3.2-9.5,8.3-10c5-0.5,9.5,3.2,10,8.3c0.1,0.6,0.1,1.1,0,1.7
	v48.3c-0.5,5-5,8.7-10,8.2c-4.3-0.4-7.7-3.9-8.2-8.2V68.2L90.9,68.2z M90.9,144.2h18.2v19h-19v-18.6L90.9,144.2L90.9,144.2z"/>
</svg>
