<?xml version="1.0" encoding="utf-8"?>
<!-- Generator: Adobe Illustrator 24.2.1, SVG Export Plug-In . SVG Version: 6.00 Build 0)  -->
<svg version="1.1" id="图层_2" xmlns="http://www.w3.org/2000/svg" xmlns:xlink="http://www.w3.org/1999/xlink" x="0px" y="0px"
	 viewBox="0 0 200 200" enable-background="new 0 0 200 200" xml:space="preserve">
<g>
	<path fill="#333333" d="M28.9,91.1c-4.9,0-8.9,4-8.9,8.9c0,4.9,4,8.9,8.9,8.9c0,0,0,0,0,0l62.3,0l0,62.3c0,4.9,4,8.9,8.9,8.9
		c0,0,0,0,0,0c4.9,0,8.9-4,8.9-8.9l0-62.3l62.1-0.1c4.9,0,8.9-4,8.9-8.9c0-4.9-4-8.9-8.9-8.9c0,0,0,0,0,0L109,91l0-62.1
		c0-4.9-4-8.9-8.9-8.9c0,0,0,0,0,0c-4.9,0-8.9,4-8.9,8.9l0,62.1L28.9,91.1L28.9,91.1z"/>
</g>
</svg>
