<?xml version="1.0" encoding="utf-8"?>
<!-- Generator: Adobe Illustrator 22.0.1, SVG Export Plug-In . SVG Version: 6.00 Build 0)  -->
<svg version="1.1" id="图层_1" xmlns="http://www.w3.org/2000/svg" xmlns:xlink="http://www.w3.org/1999/xlink" x="0px" y="0px"
	 viewBox="0 0 200 200" enable-background="new 0 0 200 200" xml:space="preserve">
<g id="图层_1_1_">
	<path fill="#6883D8" d="M186.8,93.5c-3.2-42.7-37.5-77-80.2-80.2c-53-3.9-97.2,40.3-93.3,93.3c3.2,42.7,37.5,77,80.2,80.2
		C146.4,190.7,190.7,146.4,186.8,93.5z M72.9,127c0,5.5-4.5,10-10,10l0,0c-5.5,0-10-4.5-10-10v-27c0-5.5,4.5-10,10-10l0,0
		c5.5,0,10,4.5,10,10V127z M109.6,76.5v85.7c0,2.4-1.9,4.3-4.3,4.3H94.7c-2.4,0-4.3-1.9-4.3-4.3V76.5c0-1.2-1-2.2-2.2-2.2H72.6
		c-1.8,0-2.8-2-1.7-3.5l27.4-36.6c0.9-1.2,2.6-1.2,3.5,0l27.4,36.6c1.1,1.4,0.1,3.5-1.7,3.5h-15.7C110.5,74.4,109.6,75.4,109.6,76.5
		z M147.1,127c0,5.5-4.5,10-10,10l0,0c-5.5,0-10-4.5-10-10v-27c0-5.5,4.5-10,10-10l0,0c5.5,0,10,4.5,10,10V127z"/>
</g>
</svg>
