<?xml version="1.0" encoding="utf-8"?>
<!-- Generator: Adobe Illustrator 24.2.1, SVG Export Plug-In . SVG Version: 6.00 Build 0)  -->
<svg version="1.1" id="图层_2" xmlns="http://www.w3.org/2000/svg" xmlns:xlink="http://www.w3.org/1999/xlink" x="0px" y="0px"
	 viewBox="0 0 200 200" enable-background="new 0 0 200 200" xml:space="preserve">
<path fill="#333333" d="M83.5,127.7c-6.1,9.6-2,17.6,6.4,22.1c8.4,4.4,18,3.7,24-5.9c6-9.6,44.4-95.7,41.1-97.5
	C151.7,44.6,89.6,118.1,83.5,127.7z M99.9,66.5c3.8,0,7.6,0.3,11.3,0.8c3.9-4.5,8.2-9.3,12.5-13.9c-7.7-2.1-15.6-3.1-23.6-3.1
	C50.7,50.4,12,88.5,12,137.2c0,3,0.1,6,0.4,8.9c0.7,4.6,4.9,7.8,9.5,7.3c4.6-0.2,8.1-4,8-8.6c0,0,0,0,0,0c-0.2-2.5-0.3-5-0.3-7.5
	C28.9,98.9,59.6,67.2,98,66.5C98.7,66.5,99.3,66.5,99.9,66.5z M163.5,76.6c-2.5,6-5.1,12.2-7.3,17.5c9.3,12.4,14.3,27.6,14.2,43.1
	c0,2.6-0.1,5.1-0.4,7.7c-0.3,4.6,3.3,8.5,7.9,8.8c0,0,0.1,0,0.1,0h0.8c4.4,0.2,8.2-3,8.8-7.4c0.3-3,0.5-6.1,0.4-9.1
	C188.2,114.5,179.4,92.7,163.5,76.6z"/>
</svg>
