<?xml version="1.0" encoding="utf-8"?>
<!-- Generator: Adobe Illustrator 22.0.1, SVG Export Plug-In . SVG Version: 6.00 Build 0)  -->
<svg version="1.1" id="图层_1" xmlns="http://www.w3.org/2000/svg" xmlns:xlink="http://www.w3.org/1999/xlink" x="0px" y="0px"
	 viewBox="0 0 200 200" enable-background="new 0 0 200 200" xml:space="preserve">
<g>
	<path fill="#6883D8" d="M82,132.1c0-33.1,26.9-60,60-60c4.9,0,9.3,0.6,13.1,1.8c-1.6-25.4-18.7-46.5-42-53.2l-0.8-0.3
		c-4.6-6.4-11.8-9.4-17.9-9.4c-5.1,0-10.2,2-15.8,9.5l-0.4,0.1c-24.7,6.9-42.6,29.9-42.6,57.2v17.1c0,34.2-25.6,25.6-25.6,42.7
		c0,8.5,11.1,17.1,17.1,17.1c7.7,0,17,0,27.2,0h32.2C83.6,147.9,82,140.1,82,132.1z"/>
	<path fill="#6883D8" d="M91.1,163.9h-25c4,14.4,17.3,25,32.9,25c5.5,0,10.6-1.3,15.2-3.6C104.8,180.4,96.8,172.9,91.1,163.9z"/>
	<path fill="#6883D8" d="M142,84.1c-26.5,0-48,21.5-48,48s21.5,48,48,48c26.5,0,48-21.5,48-48S168.5,84.1,142,84.1z M149.6,156.4
		c0,3.7-3,6.7-6.6,6.7h-1.6c-3.6,0-6.6-3-6.6-6.7v-27.3c0-3.7,3-6.7,6.6-6.7h1.6c3.6,0,6.6,3,6.6,6.7V156.4z M142,116.4
		c-4.2,0-7.6-3.4-7.6-7.6c0-4.1,3.4-7.6,7.6-7.6s7.6,3.4,7.6,7.6C149.6,112.9,146.2,116.4,142,116.4z"/>
</g>
</svg>
