<?xml version="1.0" encoding="utf-8"?>
<!-- Generator: Adobe Illustrator 24.2.1, SVG Export Plug-In . SVG Version: 6.00 Build 0)  -->
<svg version="1.1" id="图层_2" xmlns="http://www.w3.org/2000/svg" xmlns:xlink="http://www.w3.org/1999/xlink" x="0px" y="0px"
	 viewBox="0 0 200 200" enable-background="new 0 0 200 200" xml:space="preserve">
<g>
	<path fill="#333333" d="M174,180.3H26c-5.2,0-9.5-4.3-9.5-9.5v0c0-5.2,4.3-9.5,9.5-9.5h148c5.2,0,9.5,4.3,9.5,9.5v0
		C183.5,176,179.2,180.3,174,180.3z"/>
	<g>
		<path fill="#333333" d="M56.9,153h-28V90.6c0-7.7,6.3-14,14-14h0c7.7,0,14,6.3,14,14V153z"/>
		<path fill="#333333" d="M114,153H86V33.7c0-7.7,6.3-14,14-14h0c7.7,0,14,6.3,14,14V153z"/>
		<path fill="#333333" d="M171.1,153h-28V67.8c0-7.7,6.3-14,14-14h0c7.7,0,14,6.3,14,14V153z"/>
	</g>
</g>
</svg>
