<?xml version="1.0" encoding="utf-8"?>
<!-- Generator: Adobe Illustrator 24.2.1, SVG Export Plug-In . SVG Version: 6.00 Build 0)  -->
<svg version="1.1" id="图层_2" xmlns="http://www.w3.org/2000/svg" xmlns:xlink="http://www.w3.org/1999/xlink" x="0px" y="0px"
	 viewBox="0 0 200 200" enable-background="new 0 0 200 200" xml:space="preserve">
<g>
	<text transform="matrix(1 0 0 1 48.1272 -3.5606)"><tspan x="0" y="0" fill="#FFFFFF" font-family="'MicrosoftYaHei'" font-size="14px">3D-TDC</tspan><tspan x="53" y="0" fill="#FFFFFF" font-family="'MicrosoftYaHei'" font-size="14px" letter-spacing="3">E</tspan><tspan x="64.2" y="0" fill="#FFFFFF" font-family="'MicrosoftYaHei'" font-size="14px">移动</tspan></text>
</g>
<g>
	<path fill="#333333" d="M36.6,161.4v-27.9c0-3.9-3.1-7-7-7s-7,3.1-7,7v30.3c0,6.5,5.2,11.7,11.7,11.7h30.3c3.9,0,7-3.1,7-7
		s-3.1-7-7-7H36.6z"/>
	<path fill="#333333" d="M36.6,38.6h27.9c3.9,0,7-3.1,7-7s-3.1-7-7-7H34.2c-6.5,0-11.7,5.2-11.7,11.7v30.3c0,3.9,3.1,7,7,7
		s7-3.1,7-7V38.6z"/>
	<path fill="#333333" d="M163.4,38.6v27.9c0,3.9,3.1,7,7,7s7-3.1,7-7V36.2c0-6.5-5.3-11.7-11.7-11.7h-30.3c-3.9,0-7,3.1-7,7
		s3.1,7,7,7H163.4z"/>
	<path fill="#333333" d="M163.4,161.4h-27.9c-3.9,0-7,3.1-7,7s3.1,7,7,7h30.3c6.5,0,11.7-5.3,11.7-11.7v-30.3c0-3.9-3.1-7-7-7
		s-7,3.1-7,7V161.4z"/>
	<path fill="#333333" d="M99,62.3c-37.2,0-62,37.2-62,37.2s24.8,37.2,62,37.2s62-37.2,62-37.2S136.2,62.3,99,62.3z M99,124
		c-13.6,0-24.7-11-24.7-24.7s11-24.7,24.7-24.7c13.6,0,24.7,11,24.7,24.7C123.7,112.9,112.6,124,99,124L99,124z M86.6,99.4
		c0,3.2,1.3,6.4,3.6,8.7c2.3,2.3,5.5,3.6,8.7,3.6c3.2,0,6.4-1.3,8.7-3.6c2.3-2.3,3.6-5.5,3.6-8.7c0-3.2-1.3-6.4-3.6-8.7
		c-2.3-2.3-5.5-3.6-8.7-3.6c-3.2,0-6.4,1.3-8.7,3.6C88,92.9,86.6,96.1,86.6,99.4z"/>
</g>
</svg>
