<?xml version="1.0" encoding="utf-8"?>
<!-- Generator: Adobe Illustrator 22.0.1, SVG Export Plug-In . SVG Version: 6.00 Build 0)  -->
<svg version="1.1" id="图层_1" xmlns="http://www.w3.org/2000/svg" xmlns:xlink="http://www.w3.org/1999/xlink" x="0px" y="0px"
	 viewBox="0 0 200 200" enable-background="new 0 0 200 200" xml:space="preserve">
<g id="图层_2_1_">
	<g>
		<g>
			<g>
				<g>
					<path d="M131.5,124.5c-1.5-1.1-2.6-2.7-3.1-4.4c-1.2-4.4,1.3-9,5.7-10.2l21.8-6.1c10.2-2.9,16.2-13.6,13.3-23.9l-1.2-4.2
						c-1.4-5-4.7-9.1-9.2-11.6s-9.7-3.1-14.7-1.7l-41.1,12c-8.6,2.4-14.5,10.7-14,19.7c0.3,4.5-3.2,8.5-7.8,8.7
						c-2.2,0.1-4.3-0.6-6-2.1c-1.6-1.5-2.6-3.5-2.7-5.7C72,87,74.3,79,79,72.4c4.7-6.7,11.6-11.6,19.5-13.9l41.1-12
						c19-5.4,38.9,5.6,44.3,24.6l1.2,4.2c5.4,19-5.6,38.9-24.6,44.3l-21.8,6.1C136.2,126.5,133.6,126,131.5,124.5z"/>
				</g>
			</g>
			<g>
				<g>
					<path d="M66.3,179.6c-8.1,0.5-15.8-1.7-22.5-6.3l-3.6-2.5c-7.8-5.4-13.1-13.6-14.8-23.1c-1.7-9.4,0.3-19,5.8-26.8l17.3-26.1
						c2.6-3.7,7.8-4.7,11.5-2.1s4.7,7.8,2.1,11.5l-17.3,26.1c-2.9,4.2-4,9.3-3.1,14.4c0.9,5.1,3.7,9.5,8,12.4l3.6,2.5
						c3.6,2.5,7.7,3.7,12.1,3.4c6-0.3,11.4-3.4,14.8-8.3l25.4-36.9c5.3-7.7,4.3-18.4-2.4-24.9c-3.3-3.2-3.3-8.4-0.2-11.7
						c3.2-3.3,8.4-3.3,11.7-0.2c6,5.8,9.8,13.7,10.7,22.1c0.9,8.5-1.3,17.1-6.2,24.1l-25.3,36.9C87.3,173.4,77.3,179,66.3,179.6z"/>
				</g>
			</g>
		</g>
		<g>
			<g>
				<path d="M19.5,86.7c-3.6,0-6.7-2.8-7-6.5c-0.3-3.9,2.6-7.2,6.4-7.5l28.5-2.2c3.9-0.3,7.2,2.6,7.5,6.4c0.3,3.9-2.6,7.2-6.4,7.5
					L20,86.6C19.9,86.7,19.7,86.7,19.5,86.7z"/>
			</g>
			<g>
				<path d="M55.6,65.5c-1.7,0-3.5-0.7-4.9-2l-19-18.3c-2.8-2.7-2.9-7.1-0.2-9.9s7.1-2.9,9.9-0.2l19,18.3c2.8,2.7,2.9,7.1,0.2,9.9
					C59.2,64.7,57.4,65.5,55.6,65.5z"/>
			</g>
			<g>
				<path d="M75.6,58.7c-3.6,0-6.7-2.8-7-6.4l-2.1-25.4c-0.3-3.9,2.6-7.2,6.4-7.5c3.8-0.3,7.2,2.6,7.5,6.4l2.1,25.4
					c0.3,3.9-2.6,7.2-6.4,7.5C75.9,58.7,75.7,58.7,75.6,58.7z"/>
			</g>
		</g>
	</g>
</g>
</svg>
