<svg id="图层_2" data-name="图层 2" xmlns="http://www.w3.org/2000/svg" viewBox="0 0 200 200"><defs><style>.cls-1{fill:#007aff;}</style></defs><path class="cls-1" d="M154.63,173.48,154.41,20c0-3.66-4.37-7.76-9.75-7.76H54.75a9.37,9.37,0,0,0-9.4,9.27v152H25v9.62c0,2.61,1.57,4.66,3.56,4.66H171.4c2,0,3.56-2,3.56-4.66v-9.62ZM119.41,39.08a.2.2,0,0,1,.2-.2H131.4a.2.2,0,0,1,.2.2V59.2a.2.2,0,0,1-.2.2H119.61a.2.2,0,0,1-.2-.2Zm0,33.55a.2.2,0,0,1,.2-.2H131.4a.2.2,0,0,1,.2.2V92.75a.2.2,0,0,1-.2.2H119.61a.2.2,0,0,1-.2-.2Zm0,32.65a.2.2,0,0,1,.2-.2H131.4a.2.2,0,0,1,.2.2V125.4a.2.2,0,0,1-.2.2H119.61a.2.2,0,0,1-.2-.2Zm0,33.78a.2.2,0,0,1,.2-.2H131.4a.2.2,0,0,1,.2.2v20.12a.2.2,0,0,1-.2.2H119.61a.2.2,0,0,1-.2-.2ZM94.8,39.08a.2.2,0,0,1,.2-.2h11.8a.2.2,0,0,1,.2.2V59.2a.2.2,0,0,1-.2.2H95a.2.2,0,0,1-.2-.2Zm0,33.55a.2.2,0,0,1,.2-.2h11.8a.2.2,0,0,1,.2.2V92.75a.2.2,0,0,1-.2.2H95a.2.2,0,0,1-.2-.2Zm0,32.65a.2.2,0,0,1,.2-.2h11.8a.2.2,0,0,1,.2.2V125.4a.2.2,0,0,1-.2.2H95a.2.2,0,0,1-.2-.2Zm0,33.78a.2.2,0,0,1,.2-.2h11.8a.2.2,0,0,1,.2.2v20.12a.2.2,0,0,1-.2.2H95a.2.2,0,0,1-.2-.2Zm-26.4-100a.2.2,0,0,1,.2-.2H80.39a.2.2,0,0,1,.2.2V59.2a.2.2,0,0,1-.2.2H68.6a.2.2,0,0,1-.2-.2Zm0,33.55a.2.2,0,0,1,.2-.2H80.39a.2.2,0,0,1,.2.2V92.75a.2.2,0,0,1-.2.2H68.6a.2.2,0,0,1-.2-.2Zm0,32.65a.2.2,0,0,1,.2-.2H80.39a.2.2,0,0,1,.2.2V125.4a.2.2,0,0,1-.2.2H68.6a.2.2,0,0,1-.2-.2Zm0,33.78a.2.2,0,0,1,.2-.2H80.39a.2.2,0,0,1,.2.2v20.12a.2.2,0,0,1-.2.2H68.6a.2.2,0,0,1-.2-.2Z"/></svg>