<svg id="图层_2" data-name="图层 2" xmlns="http://www.w3.org/2000/svg" viewBox="0 0 200 200"><defs><style>.cls-1{fill:#007aff;}</style></defs><path class="cls-1" d="M127,154.51c-2.2-5.38-9.47-14.56-21.6-27.31-3.24-3.41-3-6-1.87-13.79l.13-.88c.79-5.32,2.11-8.46,20-11.31,9.09-1.44,11.47,2.2,14.79,7.23.36.56.73,1.11,1.1,1.65,3.15,4.61,5.48,5.66,9,7.27a68.79,68.79,0,0,1,6.19,3.12c6.25,3.57,6.25,7.61,6.25,16.47v1c0,14.16-5.2,21.82-7.24,24.27a82.47,82.47,0,0,1-26.59,15.42c4.88-9.13,1.14-20-.15-23.14ZM83.39,59.27c-1.65,4.49-1.94,16.7,3.42,23,.85,1,1,2.89.44,5a9.77,9.77,0,0,1-2.8,4.78,26.13,26.13,0,0,1-4-4.13c-3-3.5-6.77-7.86-11.62-9.21-1.76-.49-3.7-.9-5.59-1.29C58,76.33,52,75.08,50.62,72.12c-1-2.17-1-5.16-1-8.31,0-4,0-8.52-2-12.92A12.43,12.43,0,0,0,39.83,44,82.06,82.06,0,0,1,100,17.74h0a81.68,81.68,0,0,1,35.62,8.12c-5.93,3.75-14.44,9.62-18,14.43-1.3,1.78-2.41,3.47-3.44,5-3.43,5.16-5.07,7.46-8.23,7.86a35.71,35.71,0,0,1-5.88-.08M7.14,100A92.86,92.86,0,1,0,100,7.14,92.86,92.86,0,0,0,7.14,100Z"/></svg>