<svg id="图层_2" data-name="图层 2" xmlns="http://www.w3.org/2000/svg" viewBox="0 0 200 200"><defs><style>.cls-1{fill:#007aff;}</style></defs><path class="cls-1" d="M21.43,167H43.57v5a6.75,6.75,0,0,0,7.14,7.14h25A6.75,6.75,0,0,0,82.86,172v-5h95.71a7.15,7.15,0,0,0,0-14.29H82.14v-5A6.74,6.74,0,0,0,75,140.61H50a6.74,6.74,0,0,0-7.14,7.14v5H21.43a7.15,7.15,0,0,0,0,14.29Zm0-61.92H134.29v5a6.74,6.74,0,0,0,7.14,7.14h25a6.75,6.75,0,0,0,7.14-7.14v-5h5a7.15,7.15,0,0,0,0-14.29h-5v-5a6.75,6.75,0,0,0-7.14-7.14h-25a6.74,6.74,0,0,0-7.14,7.14v5H21.43a7.15,7.15,0,0,0,0,14.29Zm0-57.87H80.71v5a6.75,6.75,0,0,0,7.15,7.14h25A6.75,6.75,0,0,0,120,52.25v-5h58.57a6.74,6.74,0,0,0,7.14-7.14A6.75,6.75,0,0,0,178.57,33H119.29V28a6.75,6.75,0,0,0-7.15-7.14h-25A6.75,6.75,0,0,0,80,28v5H21.43a6.75,6.75,0,0,0-7.14,7.15A6.74,6.74,0,0,0,21.43,47.25Z"/></svg>