<?xml version="1.0" encoding="utf-8"?>
<!-- Generator: Adobe Illustrator 24.2.1, SVG Export Plug-In . SVG Version: 6.00 Build 0)  -->
<svg version="1.1" id="图层_2" xmlns="http://www.w3.org/2000/svg" xmlns:xlink="http://www.w3.org/1999/xlink" x="0px" y="0px"
	 viewBox="0 0 200 200" enable-background="new 0 0 200 200" xml:space="preserve">
<g>
	<path fill="#333333" d="M100,20.4l-87.5,60l33.4,99.1h108.2l33.4-99.2L100,20.4z M148.3,171.6H51.7L21.9,83.5L100,30.3l78.1,53.1
		L148.3,171.6z"/>
	<path fill="#333333" d="M103.8,51.8l-3.4-8.9L89.5,56.6l-46.7,33l21.9,66.1h61l18,11.3l-7.8-12.7l21.4-64.7L103.8,51.8L103.8,51.8z
		 M70.4,147.7l-18.3-55l26.4-18.6L57.3,94.3l23.9,38.5l34.4,15L70.4,147.7L70.4,147.7z M107.7,64.4l40.1,28.2l-16.1,48.6l-2.6-40.9
		L107.7,64.4z"/>
</g>
</svg>
