<?xml version="1.0" encoding="utf-8"?>
<!-- Generator: Adobe Illustrator 24.2.1, SVG Export Plug-In . SVG Version: 6.00 Build 0)  -->
<svg version="1.1" id="图层_2" xmlns="http://www.w3.org/2000/svg" xmlns:xlink="http://www.w3.org/1999/xlink" x="0px" y="0px"
	 viewBox="0 0 200 200" enable-background="new 0 0 200 200" xml:space="preserve">
<g>
	<path fill="#333333" d="M173.2,113.2c-16.2-16.2-42.3-16.2-58.5,0c-16.2,16.2-16.2,42.3,0,58.5c16.2,16.2,42.3,16.2,58.5,0
		C189.4,155.5,189.4,129.3,173.2,113.2z M131.6,159.9c0,2.2-1.8,4-4,4h-3c-2.2,0-4-1.8-4-4v-9.7c0-2.2,1.8-4,4-4h3c2.2,0,4,1.8,4,4
		V159.9z M149.4,159.7c0,2.2-1.8,4-4,4h-3.3c-2.2,0-4-1.8-4-4V123c0-2.2,1.8-4,4-4h3.3c2.2,0,4,1.8,4,4V159.7z M167.5,159.9
		c0,2.2-1.8,4-4,4h-3c-2.2,0-4-1.8-4-4v-18.4c0-2.2,1.8-4,4-4h3c2.2,0,4,1.8,4,4V159.9z"/>
	<path fill="#333333" d="M79.6,159.1v19.2H101c-8.1-9.7-13-22.2-13-35.9c0-18.9,9.4-35.7,23.8-45.8H103c-3.2,0-5.8-2.6-5.8-5.8v-5.7
		c0-3.2,2.6-5.8,5.8-5.8h21.7c3.2,0,5.8,2.6,5.8,5.8v3c4.3-1.1,8.9-1.7,13.5-1.7c1.4,0,2.8,0.1,4.3,0.2V31.2c0-4.9-4.8-9.5-9.6-9.5
		H39c-4.9,0-9.6,4.6-9.6,9.5v129.6c-4.1,0.8-7.1,4.4-7.1,8.7c0,4.9,4,8.8,8.8,8.8h15.8v-15.6c0-1,0-2.1,0-3.7v-20.7v-14.8
		c0-4.5,3.7-8.2,8.2-8.2h16.4c4.5,0,8.2,3.7,8.2,8.2v14.8V159.1z M97.2,49.3c0-3.2,2.6-5.8,5.8-5.8h21.7c3.2,0,5.8,2.6,5.8,5.8V55
		c0,3.2-2.6,5.8-5.8,5.8H103c-3.2,0-5.8-2.6-5.8-5.8V49.3z M46.9,49.3c0-3.2,2.6-5.8,5.8-5.8h21.7c3.2,0,5.8,2.6,5.8,5.8V55
		c0,3.2-2.6,5.8-5.8,5.8H52.7c-3.2,0-5.8-2.6-5.8-5.8V49.3z M74.3,96.6H52.7c-3.2,0-5.8-2.6-5.8-5.8v-5.7c0-3.2,2.6-5.8,5.8-5.8
		h21.7c3.2,0,5.8,2.6,5.8,5.8v5.7C80.2,94,77.6,96.6,74.3,96.6z"/>
</g>
</svg>
