<?xml version="1.0" encoding="utf-8"?>
<!-- Generator: Adobe Illustrator 22.0.1, SVG Export Plug-In . SVG Version: 6.00 Build 0)  -->
<svg version="1.1" id="图层_1" xmlns="http://www.w3.org/2000/svg" xmlns:xlink="http://www.w3.org/1999/xlink" x="0px" y="0px"
	 viewBox="0 0 200 200" enable-background="new 0 0 200 200" xml:space="preserve">
<g>
	<path fill="#6883D8" d="M81.9,16.9L27.6,28.7c-6.6,0-12.1,5.4-12.1,12.1v130c0,6.6,5.4,12.1,12.1,12.1h54.3
		c6.7,0,12.1-5.4,12.1-12.1V29C94,22.3,88.6,16.9,81.9,16.9z M66.7,159.3H42.8c-4.4,0-8-3.6-8-8s3.6-8,8-8h23.9c4.4,0,8,3.6,8,8
		C74.6,155.6,71.1,159.3,66.7,159.3z M66.7,117.8H42.8c-4.4,0-8-3.6-8-8s3.6-8,8-8h23.9c4.4,0,8,3.6,8,8
		C74.6,114.3,71.1,117.8,66.7,117.8z M66.7,76.4H42.8c-4.4,0-8-3.6-8-8s3.6-8,8-8h23.9c4.4,0,8,3.6,8,8S71.1,76.4,66.7,76.4z"/>
	<path fill="#6883D8" d="M172.4,80.3l-54.3-11.9c-6.7,0-12.1,5.4-12.1,12.1v90.4c0,6.7,5.4,12.1,12.1,12.1h54.3
		c6.6,0,12.1-5.4,12.1-12.1V92.4C184.5,85.8,179.1,80.3,172.4,80.3z M157.2,159.3h-23.9c-4.4,0-8-3.6-8-8s3.6-8,8-8h23.9
		c4.4,0,8,3.6,8,8C165.1,155.6,161.6,159.3,157.2,159.3z M157.2,117.8h-23.9c-4.4,0-8-3.6-8-8s3.6-8,8-8h23.9c4.4,0,8,3.6,8,8
		C165.1,114.3,161.6,117.8,157.2,117.8z"/>
</g>
</svg>
