<?xml version="1.0" encoding="utf-8"?>
<!-- Generator: Adobe Illustrator 22.0.1, SVG Export Plug-In . SVG Version: 6.00 Build 0)  -->
<svg version="1.1" id="图层_1" xmlns="http://www.w3.org/2000/svg" xmlns:xlink="http://www.w3.org/1999/xlink" x="0px" y="0px"
	 viewBox="0 0 200 200" enable-background="new 0 0 200 200" xml:space="preserve">
<g>
	<path fill="#6883D8" d="M176.5,37.3l-74.9-25.5c-1.1-0.4-2.3-0.4-3.4,0L23.4,37.3c-2.1,0.7-3.5,2.7-3.5,4.9v65.2
		c0,28.1,16,52.9,42.4,64.9l33.8,15.8c1.4,0.6,3,0.7,4.4,0l36.3-16.7c26.4-11.2,43.3-36.9,43.3-65.8V42.3
		C180,40,178.6,38.1,176.5,37.3z M145.4,126.7c-2.9-1-5.7-1.3-8.6-0.8c-2.8,0.5-5.2,1.8-7.2,3.8c-2.2,2.4-3.5,5-4.1,7.8
		s-0.2,5.5,1,8.1c-4.5,2.8-9.1,4.7-13.8,5.6c-1-2.9-2.8-5.1-5.1-6.8c-2.4-1.6-5.1-2.5-8.1-2.5s-5.7,0.8-8.1,2.5
		c-2.4,1.6-4.1,3.9-5.1,6.8c-4.9-1.1-9.5-3-13.8-5.6c0.7-1.8,1.1-3.7,1.1-5.7s-0.4-3.8-1.1-5.6c-1-2.3-2.6-4.2-4.5-5.7
		c-2-1.5-4.2-2.3-6.6-2.6c-2.4-0.2-4.8,0.1-7.2,1.1c-2.8-4.5-4.7-9.1-5.6-13.8c2.9-1,5.1-2.8,6.8-5.1c1.6-2.4,2.5-5.1,2.5-8.1
		s-0.8-5.7-2.5-8.1c-1.6-2.4-3.9-4.1-6.8-5.1c0.9-3.7,2.6-8.1,5.1-13.3c2.9,1,5.7,1.3,8.6,0.8c2.8-0.5,5.2-1.8,7.2-3.8
		c2.2-2.4,3.5-5,4.1-7.8c0.6-2.8,0.2-5.5-1-8.1c4.5-2.8,9.1-4.7,13.8-5.6c1,2.6,2.8,4.8,5.2,6.6c2.4,1.8,5.1,2.6,8.1,2.6
		s5.7-0.8,8.1-2.5c2.4-1.6,4.1-3.9,5.1-6.8c4.9,1.1,9.5,3,13.8,5.6c-0.7,1.8-1.1,3.7-1.1,5.7s0.4,3.8,1.1,5.6c1,2.3,2.6,4.2,4.5,5.7
		c2,1.5,4.2,2.3,6.6,2.6c2.4,0.2,4.8-0.1,7.2-1.1c2.8,4.5,4.7,9.1,5.6,13.8c-2.9,1-5.1,2.8-6.8,5.1c-1.6,2.4-2.5,5.1-2.5,8.1
		s0.9,5.6,2.6,8c1.8,2.4,4.1,4,7.1,4.8C149.9,117.9,148,122.5,145.4,126.7z"/>
	<path fill="#6883D8" d="M99.6,72.1c-15.5,0-28,12.5-28,28s12.5,28,28,28s28-12.5,28-28S115.1,72.1,99.6,72.1z M99.6,112.5
		c-6.8,0-12.4-5.5-12.4-12.4c0-6.8,5.5-12.4,12.4-12.4c6.8,0,12.4,5.5,12.4,12.4C112,106.9,106.5,112.5,99.6,112.5z"/>
</g>
</svg>
