<?xml version="1.0" encoding="utf-8"?>
<!-- Generator: Adobe Illustrator 24.2.1, SVG Export Plug-In . SVG Version: 6.00 Build 0)  -->
<svg version="1.1" id="图层_2" xmlns="http://www.w3.org/2000/svg" xmlns:xlink="http://www.w3.org/1999/xlink" x="0px" y="0px"
	 viewBox="0 0 200 200" enable-background="new 0 0 200 200" xml:space="preserve">
<path fill="#333333" d="M156.6,85.3H42.3L60,113.1h78.3L156.6,85.3z M166,72.1L185.7,42c0,0,0.1-0.1,0.1-0.1
	c0.3-0.3,0.5-0.7,0.7-1.1l0.1-0.1l0.4-0.5c0.1-0.1,0.1-0.2,0.2-0.4c1.2-3.5-0.3-7.5-3.4-8.9c-0.8-0.4-1.7-0.6-2.5-0.5H18.6
	c-3.4,0.1-6.1,3.2-6.1,7c0,1,0.7,3.4,2.1,5.2c0.4,0.6,1.5,2.2,1.5,2.3l17,26.6c0.3,0.5,0.9,0.8,1.5,0.8L166,72.1L166,72.1z
	 M68.9,127.9l23.5,36.8c0.3,0.8,0.7,1.5,1.2,2.1c0.6,1,1.6,1.9,2.7,2.4c3.2,1.5,6.9-0.2,8.2-3.7l24.6-37.6H68.9z"/>
</svg>
