<?xml version="1.0" encoding="utf-8"?>
<!-- Generator: Adobe Illustrator 24.2.1, SVG Export Plug-In . SVG Version: 6.00 Build 0)  -->
<svg version="1.1" id="图层_2" xmlns="http://www.w3.org/2000/svg" xmlns:xlink="http://www.w3.org/1999/xlink" x="0px" y="0px"
	 viewBox="0 0 200 200" enable-background="new 0 0 200 200" xml:space="preserve">
<g>
	<path fill="#333333" d="M122,75.7H78.1v22.1H122V75.7z M122,47H78.1v22.1H122V47z M172.8,104.5h-43.9v22.1h43.9L172.8,104.5
		L172.8,104.5z M172.8,47h-43.9v22.1h43.9L172.8,47L172.8,47z M172.8,75.7h-43.9v22.1h43.9L172.8,75.7L172.8,75.7z M179.9,27.2
		c-26.7,0-53.4,0-80.1,0c-26.3,0-52.7,0-79,0c-8.1,0-9.8,1.6-9.8,9.8c0,33.7,0,67.4,0,101c0,7.5,2.1,9.6,9.7,9.6
		c53,0,106.1,0,159.1,0c7.1,0,9.2-2.1,9.2-9c0-34.2,0-68.4,0-102.5C189,28.8,187.3,27.2,179.9,27.2L179.9,27.2z M179.8,137.6H20.3
		V36h159.5L179.8,137.6L179.8,137.6z M71.1,104.5H27.2v22.1h43.9L71.1,104.5L71.1,104.5z M122,104.5H78.1v22.1H122V104.5z
		 M71.1,75.7H27.2v22.1h43.9L71.1,75.7L71.1,75.7z M71.1,47H27.2v22.1h43.9L71.1,47L71.1,47z"/>
	<path fill="#333333" d="M160,172.8H40.9c-3.5,0-6.3-2.8-6.3-6.3v-0.6c0-3.5,2.8-6.3,6.3-6.3H160c3.5,0,6.3,2.8,6.3,6.3v0.6
		C166.3,170,163.5,172.8,160,172.8z"/>
</g>
</svg>
