<?xml version="1.0" encoding="utf-8"?>
<!-- Generator: Adobe Illustrator 22.0.1, SVG Export Plug-In . SVG Version: 6.00 Build 0)  -->
<svg version="1.1" id="图层_1" xmlns="http://www.w3.org/2000/svg" xmlns:xlink="http://www.w3.org/1999/xlink" x="0px" y="0px"
	 viewBox="0 0 200 200" enable-background="new 0 0 200 200" xml:space="preserve">
<g id="图层_1_1_">
	<path fill="#6883D8" d="M82.9,132.1c0-33.1,26.9-60,60-60c4.8,0,9.1,0.6,13.1,1.6c-1.7-25.3-18.8-46.3-42-53l-0.8-0.3
		C108.6,14,101.4,11,95.3,11c-5.1,0-10.2,2-15.8,9.5l-0.4,0.1c-24.7,6.9-42.6,29.9-42.6,57.2v17.1c0,34.2-25.6,25.6-25.6,42.7
		c0,8.5,11.1,17.1,17.1,17.1c7.7,0,17,0,27.2,0h32.2C84.5,147.8,82.9,140.1,82.9,132.1z"/>
	<path fill="#6883D8" d="M92,163.9H67c4,14.4,17.3,25,32.9,25c5.5,0,10.6-1.3,15.2-3.6C105.7,180.4,97.7,172.9,92,163.9z"/>
	<g>
		<path fill="#6883D8" d="M182.8,139.3c-1.6-2.2-2.4-4.6-2.4-7.2c0-2.7,0.7-5.2,2.2-7.3c1.5-2.2,3.5-3.7,6.1-4.6
			c-0.9-4.2-2.6-8.4-5.1-12.4c-2.2,0.9-4.3,1.2-6.5,1s-4.2-1-6-2.3s-3.2-3-4.1-5.1c-0.6-1.6-1-3.2-1-5s0.3-3.5,1-5.1
			c-3.8-2.4-7.9-4.1-12.4-5.1c-0.9,2.6-2.5,4.6-4.6,6.1c-2.2,1.5-4.6,2.2-7.3,2.2s-5.1-0.8-7.3-2.4s-3.8-3.6-4.7-5.9
			c-4.2,0.9-8.4,2.5-12.4,5.1c1.1,2.3,1.4,4.7,0.9,7.3c-0.5,2.5-1.7,4.9-3.7,7.1c-1.8,1.8-4,2.9-6.5,3.4c-2.6,0.5-5.1,0.2-7.7-0.7
			c-2.3,4.7-3.8,8.7-4.6,12c2.6,0.9,4.6,2.5,6.1,4.6c1.5,2.2,2.2,4.6,2.2,7.3s-0.7,5.2-2.2,7.3c-1.5,2.2-3.5,3.7-6.1,4.6
			c0.9,4.2,2.5,8.4,5.1,12.4c2.2-0.9,4.3-1.2,6.5-1s4.2,1,6,2.3s3.2,3,4.1,5.1c0.6,1.6,1,3.3,1,5c0,1.8-0.3,3.5-1,5.1
			c3.8,2.4,7.9,4.1,12.4,5.1c0.9-2.6,2.5-4.6,4.6-6.1c2.2-1.5,4.6-2.2,7.3-2.2s5.2,0.7,7.3,2.2c2.2,1.5,3.7,3.5,4.6,6.1
			c4.2-0.9,8.4-2.5,12.4-5.1c-1.1-2.3-1.4-4.7-0.9-7.3c0.5-2.5,1.7-4.9,3.7-7.1c1.8-1.8,4-2.9,6.5-3.4s5.1-0.2,7.7,0.7
			c2.4-3.8,4.1-7.9,5.1-12.4C186.5,142.9,184.3,141.5,182.8,139.3z M142.9,150.1c-9.9,0-18-8.1-18-18s8.1-18,18-18s18,8.1,18,18
			S152.8,150.1,142.9,150.1z"/>
	</g>
</g>
</svg>
