<?xml version="1.0" encoding="utf-8"?>
<!-- Generator: Adobe Illustrator 24.2.1, SVG Export Plug-In . SVG Version: 6.00 Build 0)  -->
<svg version="1.1" id="图层_2" xmlns="http://www.w3.org/2000/svg" xmlns:xlink="http://www.w3.org/1999/xlink" x="0px" y="0px"
	 viewBox="0 0 200 200" enable-background="new 0 0 200 200" xml:space="preserve">
<g>
	<path fill="#333333" d="M185.4,68.6c-22.8-22.8-53.2-35.4-85.4-35.4c-32.3,0-62.6,12.6-85.4,35.4c-5,5-5,13,0,18c5,5,13,5,18,0
		c37.2-37.2,97.7-37.2,134.9,0c2.5,2.5,5.7,3.7,9,3.7c3.3,0,6.5-1.2,9-3.7C190.4,81.6,190.4,73.5,185.4,68.6z"/>
	<path fill="#333333" d="M100,75.6c-22.5,0-43.7,8.8-59.7,24.7c-4.1,4.1-4.1,10.8,0,15c2,2,4.7,3.1,7.5,3.1h0c2.8,0,5.5-1.1,7.5-3.1
		c24.7-24.7,64.8-24.7,89.4,0c4.1,4.1,10.8,4.1,15,0c4.1-4.1,4.1-10.8,0-15C143.7,84.4,122.5,75.6,100,75.6z"/>
	<path fill="#333333" d="M100,113c-10.4,0-20.1,4-27.4,11.4c-3.3,3.3-3.3,8.7,0,12s8.7,3.3,12,0c4.1-4.1,9.6-6.4,15.5-6.4
		c5.8,0,11.3,2.3,15.5,6.4c1.6,1.6,3.7,2.5,6,2.5c2.2,0,4.4-0.9,6-2.5c3.3-3.3,3.3-8.7,0-12C120.1,117.1,110.4,113,100,113z"/>
	<circle fill="#333333" cx="100" cy="156.3" r="10.5"/>
</g>
</svg>
