<?xml version="1.0" encoding="utf-8"?>
<!-- Generator: Adobe Illustrator 24.2.1, SVG Export Plug-In . SVG Version: 6.00 Build 0)  -->
<svg version="1.1" id="图层_2" xmlns="http://www.w3.org/2000/svg" xmlns:xlink="http://www.w3.org/1999/xlink" x="0px" y="0px"
	 viewBox="0 0 200 200" enable-background="new 0 0 200 200" xml:space="preserve">
<path fill="#333333" d="M164,20c8.8,0,16,7.2,16,16v128c0,8.8-7.2,16-16,16H36c-8.8,0-16-7.2-16-16V36c0-8.8,7.2-16,16-16H164z
	 M114.3,84.6c-0.9-0.8-2.3-0.8-3.1,0l-42.5,41.7c-0.5,0.4-0.7,1.1-0.6,1.7l0,0.2c0,1.2,1,2.2,2.2,2.2c0,0,0,0,0,0h22.4l-7.5,30.3
	c0,0.2-0.1,0.3-0.1,0.5c-0.3,0.8-0.1,1.6,0.5,2.2c0.9,0.8,2.3,0.8,3.1,0l42.5-41.7c0.8-0.8,0.9-2.1,0.1-3c-0.2-0.2-0.4-0.3-0.6-0.5
	c-0.4-0.3-0.9-0.5-1.4-0.5h-21.7L115,87c0.1-0.3,0.1-0.6,0-0.9C115,85.5,114.7,85,114.3,84.6L114.3,84.6z M160,33.3H40
	c-3.4,0-6.2,2.5-6.6,5.9L33.3,40v26.7c0,3.4,2.5,6.2,5.9,6.6l0.8,0h120c3.4,0,6.2-2.5,6.6-5.9l0.1-0.8V40
	C166.7,36.3,163.7,33.3,160,33.3L160,33.3z M100,40c3.7,0,6.7,3,6.7,6.7V60c0,3.7-3,6.7-6.7,6.7c-3.7,0-6.7-3-6.7-6.7V46.7
	C93.3,43,96.3,40,100,40L100,40z M133.3,40c3.7,0,6.7,3,6.7,6.7V60c-0.1,3.7-3.2,6.6-6.9,6.4c-3.5-0.1-6.3-2.9-6.4-6.4V46.7
	C126.7,43,129.7,40,133.3,40L133.3,40z M66.7,40c3.7,0,6.7,3,6.7,6.7V60c0.2,4.2-3.7,7.7-8.1,6.8c-0.9-0.2-1.7-0.5-2.4-1.1
	c-2-1.4-2.9-3.6-2.8-5.7V46.7C60,43,63,40,66.7,40L66.7,40z"/>
</svg>
