<?xml version="1.0" standalone="no"?><!DOCTYPE svg PUBLIC "-//W3C//DTD SVG 1.1//EN" "http://www.w3.org/Graphics/SVG/1.1/DTD/svg11.dtd"><svg t="1591604909918" class="icon" viewBox="0 0 1024 1024" version="1.1" xmlns="http://www.w3.org/2000/svg" p-id="4542" xmlns:xlink="http://www.w3.org/1999/xlink" width="200" height="200"><defs><style type="text/css"></style></defs><path d="M785.066667 375.466667h-170.666667l-34.133333-68.266667h-136.533334l-34.133333 68.266667H238.933333V307.2h136.533334l34.133333-68.266667h204.8l34.133333 68.266667h136.533334zM648.533333 785.066667h-273.066666c-56.456533 0-102.4-45.943467-102.4-102.4v-273.066667h68.266666v273.066667c0 18.8416 15.325867 34.133333 34.133334 34.133333h273.066666c18.807467 0 34.133333-15.291733 34.133334-34.133333v-273.066667h68.266666v273.066667c0 56.456533-45.943467 102.4-102.4 102.4z" p-id="4543"></path><path d="M409.6 409.6h68.266667v238.933333h-68.266667zM546.133333 409.6h68.266667v238.933333h-68.266667z" p-id="4544"></path></svg>