<svg id="图层_1" data-name="图层 1" xmlns="http://www.w3.org/2000/svg" viewBox="0 0 24 24"><defs><style>.cls-1{fill:#c661c9;}</style></defs><title>补充图标</title><path class="cls-1" d="M8,6.56A.56.56,0,1,0,9,6L7.53,3.45a.56.56,0,0,0-1,.56Z"/><path class="cls-1" d="M12,6.06a.56.56,0,0,0,.4-.17.55.55,0,0,0,.16-.39V2.56a.56.56,0,0,0-1.12,0V5.5A.56.56,0,0,0,12,6.06Z"/><path class="cls-1" d="M18.09,17h-.41V13A5.68,5.68,0,0,0,6.32,13v4H5.91a2.51,2.51,0,0,0,0,5H18.09a2.5,2.5,0,0,0,0-5ZM8,13a4,4,0,0,1,8,0v4.56H8Zm10.09,7.37H5.91a.83.83,0,1,1,0-1.66H18.09a.83.83,0,1,1,0,1.66Z"/><path class="cls-1" d="M15.21,6.76a.57.57,0,0,0,.76-.2l1.46-2.5a.56.56,0,0,0,0-.57.55.55,0,0,0-.48-.3.56.56,0,0,0-.5.26L15,6A.55.55,0,0,0,15.21,6.76Z"/><path class="cls-1" d="M6.15,9.28a.54.54,0,0,0,.54-.42.57.57,0,0,0-.28-.63L3.89,6.77A.57.57,0,0,0,3.12,7a.56.56,0,0,0,.21.76L5.87,9.21A.53.53,0,0,0,6.15,9.28Z"/><path class="cls-1" d="M20.87,7a.56.56,0,0,0-.76-.2L17.59,8.23a.56.56,0,0,0,.56,1l2.52-1.47a.52.52,0,0,0,.26-.34A.54.54,0,0,0,20.87,7Z"/></svg>