<?xml version="1.0" encoding="utf-8"?>
<!-- Generator: Adobe Illustrator 24.2.1, SVG Export Plug-In . SVG Version: 6.00 Build 0)  -->
<svg version="1.1" id="图层_2" xmlns="http://www.w3.org/2000/svg" xmlns:xlink="http://www.w3.org/1999/xlink" x="0px" y="0px"
	 viewBox="0 0 200 200" enable-background="new 0 0 200 200" xml:space="preserve">
<path fill="#333333" d="M156.7,24.9l-72-14.8c-1.9-0.4-3.8,0-5.3,1.1c-1.5,1.1-2.3,3-2.3,4.9v8.5h-32c-3.4,0-6.2,2.8-6.2,6.2v138
	c0,3.4,2.8,6.2,6.2,6.2h31.8v8.5c0,1.9,0.9,3.6,2.3,4.9c1.1,0.9,2.5,1.3,3.8,1.3c0.4,0,0.9,0,1.3-0.2l72-14.8
	c2.8-0.6,4.7-3.2,4.7-6.1V31C161.5,28.1,159.6,25.4,156.7,24.9L156.7,24.9z M76.9,162.7H51.4V37h25.6L76.9,162.7L76.9,162.7z
	 M98.9,106.5c-3.6,0-6.6-3-6.6-6.6s3-6.6,6.6-6.6c3.6,0,6.6,3,6.6,6.6C105.5,103.5,102.5,106.5,98.9,106.5z"/>
</svg>
