<svg id="图层_1" data-name="图层 1" xmlns="http://www.w3.org/2000/svg" viewBox="0 0 200 200"><path d="M168.73,95.91H155.64V61.55a16.79,16.79,0,0,0-17.19-17.19H104.09V31.27a21.27,21.27,0,0,0-42.54,0V44.36H27.18A16.78,16.78,0,0,0,10,61.55V94.27H23.09A22.87,22.87,0,0,1,46,117.18c0,12.27-10.64,22.91-22.91,22.91H10v32.73A16.77,16.77,0,0,0,27.18,190H59.91V176.91A22.87,22.87,0,0,1,82.82,154c12.27,0,22.91,10.64,22.91,22.91V190h32.72a16.78,16.78,0,0,0,17.19-17.18V138.45h13.09a21.27,21.27,0,1,0,0-42.54Z"/></svg>