<?xml version="1.0" encoding="utf-8"?>
<!-- Generator: Adobe Illustrator 24.2.1, SVG Export Plug-In . SVG Version: 6.00 Build 0)  -->
<svg version="1.1" id="图层_2" xmlns="http://www.w3.org/2000/svg" xmlns:xlink="http://www.w3.org/1999/xlink" x="0px" y="0px"
	 viewBox="0 0 200 200" enable-background="new 0 0 200 200" xml:space="preserve">
<g>
	<polygon fill="#333333" points="141.8,189.5 141.8,153.7 177.6,153.7 	"/>
	<path fill="#333333" d="M153.7,10.5H46.3c-13.2,0-23.9,10.7-23.9,23.9v131.3c0,13.2,10.7,23.9,23.9,23.9h79.5v-45.8
		c0-3.3,2.7-6,6-6h45.8V34.4C177.6,21.2,166.9,10.5,153.7,10.5z M105.9,109.6c0,3.9-2,5.9-5.9,5.9H64.8c-3.9,0-5.9-2-5.9-5.9v-8.8
		c0-3.9,2-5.9,5.9-5.9H100c3.9,0,5.9,2,5.9,5.9V109.6z M141,109.6c0,3.9-2,5.9-5.9,5.9h-12.5c-3.9,0-5.9-2-5.9-5.9v-8.8
		c0-3.9,2-5.9,5.9-5.9h12.5c3.9,0,5.9,2,5.9,5.9V109.6z M141,71.7c0,5.9-2.9,8.8-8.8,8.8H67.8c-5.9,0-8.8-2.9-8.8-8.8v-9.1
		c0-5.9,2.9-8.8,8.8-8.8h64.5c5.9,0,8.8,2.9,8.8,8.8V71.7z"/>
</g>
</svg>
