<?xml version="1.0" encoding="utf-8"?>
<!-- Generator: Adobe Illustrator 24.2.1, SVG Export Plug-In . SVG Version: 6.00 Build 0)  -->
<svg version="1.1" id="图层_2" xmlns="http://www.w3.org/2000/svg" xmlns:xlink="http://www.w3.org/1999/xlink" x="0px" y="0px"
	 viewBox="0 0 200 200" enable-background="new 0 0 200 200" xml:space="preserve">
<path fill="#333333" d="M28.6,34.7h142.8c5.6,0,10.2,4.6,10.2,10.2v29.8c0,5.6-4.6,10.2-10.2,10.2H28.6c-5.6,0-10.2-4.6-10.2-10.2
	V44.9C18.4,39.3,23,34.7,28.6,34.7z M43.8,54.8c-2.8,0-5,2.3-5,5c0,2.8,2.2,5,5,5h30.8c2.8,0,5-2.2,5-5c0-2.8-2.2-5-5-5H43.8z
	 M28.6,115.1h142.8c5.6,0,10.2,4.6,10.2,10.2v29.8c0,5.6-4.6,10.2-10.2,10.2H28.6c-5.6,0-10.2-4.6-10.2-10.2v-29.8
	C18.4,119.6,23,115.1,28.6,115.1L28.6,115.1z M43.8,135.2c-2.8,0-5,2.2-5,5c0,2.8,2.2,5,5,5c0,0,0,0,0,0h30.8c2.8,0,5-2.2,5-5
	c0-2.8-2.2-5-5-5c0,0,0,0,0,0H43.8z"/>
</svg>
