<?xml version="1.0" encoding="utf-8"?>
<!-- Generator: Adobe Illustrator 24.2.1, SVG Export Plug-In . SVG Version: 6.00 Build 0)  -->
<svg version="1.1" id="图层_2" xmlns="http://www.w3.org/2000/svg" xmlns:xlink="http://www.w3.org/1999/xlink" x="0px" y="0px"
	 viewBox="0 0 200 200" enable-background="new 0 0 200 200" xml:space="preserve">
<g>
	<path fill="#333333" d="M100,21.2c43.4,0,78.8,35.3,78.8,78.7c0,43.4-35.3,78.8-78.8,78.8S21.2,143.4,21.2,100
		C21.2,56.6,56.6,21.2,100,21.2 M100,10c-49.7,0-90,40.3-90,90c0,49.7,40.3,90,90,90s90-40.3,90-90C190,50.3,149.7,10,100,10L100,10
		z"/>
	<g>
		<polygon fill="#333333" points="97.1,40.4 97.1,40.4 97.1,40.4 		"/>
		<path fill="#333333" d="M100,51.5h-2.9v-11L78.3,57.2L97.1,74V61.8h2.9c20.8,0,37.6,17,37.6,38.1S120.8,138,100,138
			c-20.8,0-37.6-17-37.6-38.1c0-3.9,0.6-7.8,1.7-11.4L54.5,85c-1.5,4.8-2.3,9.8-2.3,14.9c0,26.7,21.4,48.4,47.8,48.4
			s47.8-21.7,47.8-48.4S126.4,51.5,100,51.5z"/>
		<circle fill="#333333" cx="100" cy="99.8" r="10.8"/>
	</g>
</g>
</svg>
