<?xml version="1.0" encoding="utf-8"?>
<!-- Generator: Adobe Illustrator 22.0.1, SVG Export Plug-In . SVG Version: 6.00 Build 0)  -->
<svg version="1.1" id="图层_1" xmlns="http://www.w3.org/2000/svg" xmlns:xlink="http://www.w3.org/1999/xlink" x="0px" y="0px"
	 viewBox="0 0 200 200" enable-background="new 0 0 200 200" xml:space="preserve">
<g id="图层_1_1_">
	<g>
		<path fill="#6883D8" d="M137.3,39.7c3.9,0,7-3.1,7-7V22.6c0-3.9-3.1-7-7-7s-7,3.1-7,7v10.1C130.3,36.5,133.5,39.7,137.3,39.7z"/>
		<path fill="#6883D8" d="M57.1,39.7c3.9,0,7-3.1,7-7V22.6c0-3.9-3.1-7-7-7s-7,3.1-7,7v10.1C50.1,36.5,53.2,39.7,57.1,39.7z"/>
		<path fill="#6883D8" d="M161.4,31h-3.1h-4.5v1.8c0,9.1-7.4,16.5-16.5,16.5s-16.5-7.4-16.5-16.5V31H73.6v1.8
			c0,9.1-7.4,16.5-16.5,16.5s-16.5-7.4-16.5-16.5V31H33c-8.8,0-16.1,7.2-16.1,16.1v112.4c0,8.8,7.2,16.1,16.1,16.1h128.5
			c8.8,0,16.1-7.2,16.1-16.1V47.1C177.5,38.2,170.3,31,161.4,31z M76.9,124.5l-18,23.5c-1.4,1.5-3.2,2.3-5.1,2.3
			c-1.5,0-3-0.5-4.3-1.5l-13-10.2c-2.9-2.4-3.4-6.6-1.1-9.6c2.3-2.9,6.6-3.4,9.6-1.1l7.9,6.2l13.7-18.6c2.5-2.8,6.8-3.1,9.6-0.6
			C79.2,117.4,79.4,121.7,76.9,124.5z M76.9,76.5l-18,23.5c-1.4,1.5-3.2,2.3-5.1,2.3c-1.5,0-3-0.5-4.3-1.5l-13-10.2
			c-2.9-2.4-3.4-6.6-1.1-9.6c2.3-2.9,6.6-3.4,9.6-1.1l7.9,6.2l13.7-18.6c2.5-2.8,6.8-3.1,9.6-0.6C79.2,69.4,79.4,73.7,76.9,76.5z
			 M153.9,140.4H94.4c-3.6,0-6.6-2.9-6.6-6.6c0-3.6,2.9-6.6,6.6-6.6h59.4c3.6,0,6.6,2.9,6.6,6.6
			C160.4,137.4,157.5,140.4,153.9,140.4z M153.9,92.4H94.4c-3.6,0-6.6-2.9-6.6-6.6c0-3.6,2.9-6.6,6.6-6.6h59.4
			c3.6,0,6.6,2.9,6.6,6.6C160.4,89.4,157.5,92.4,153.9,92.4z"/>
	</g>
</g>
</svg>
