<svg id="图层_2" data-name="图层 2" xmlns="http://www.w3.org/2000/svg" viewBox="0 0 200 200"><defs><style>.cls-1{fill:#007aff;}</style></defs><path class="cls-1" d="M108.22,148.82a11,11,0,0,1-8.19,3.47,11.87,11.87,0,0,1-11.76-11.91A11.44,11.44,0,0,1,91.75,132a11,11,0,0,1,8.28-3.57,10.84,10.84,0,0,1,8.19,3.57,11.93,11.93,0,0,1,0,16.86Z"/><path class="cls-1" d="M91.61,69.3A11,11,0,0,1,100,65.66a10.69,10.69,0,0,1,8.42,3.64,13.16,13.16,0,0,1,3.26,9c0,3.09-4.56,26.06-6.14,42.77h-11c-1.28-16.71-6.28-39.68-6.28-42.77a13.14,13.14,0,0,1,3.35-9Z"/><path class="cls-1" d="M161.33,180.9H38.72c-10.45,0-18.91-4.21-23.2-11.56S11.7,152.23,17,142.86L78.29,33.8C83.56,24.46,91.47,19.1,100,19.1s16.42,5.36,21.69,14.69L183,142.86c5.3,9.36,5.83,19,1.48,26.48S171.76,180.9,161.33,180.9ZM100,37.67c-1.29,0-3.49,1.62-5.54,5.24L33.16,152c-2.27,4-2.28,6.84-1.6,8,.85,1.46,3.59,2.36,7.16,2.36H161.33c3.54,0,6.26-.9,7.1-2.34.68-1.17.68-4-1.6-8h0L105.51,42.9C103.48,39.29,101.27,37.67,100,37.67Z"/></svg>