<?xml version="1.0" encoding="utf-8"?>
<!-- Generator: Adobe Illustrator 24.2.1, SVG Export Plug-In . SVG Version: 6.00 Build 0)  -->
<svg version="1.1" id="图层_2" xmlns="http://www.w3.org/2000/svg" xmlns:xlink="http://www.w3.org/1999/xlink" x="0px" y="0px"
	 viewBox="0 0 200 200" enable-background="new 0 0 200 200" xml:space="preserve">
<g>
	<path fill="#333333" d="M116.3,38.8c0-4-3.2-7.2-7.2-7.2c-1.6,0-3.1,0.5-4.4,1.5l-53,34.5c-0.1,0-0.1,0-0.2,0H30
		c-4,0-7.2,3.2-7.2,7.2v50.4c0,4,3.2,7.2,7.2,7.2h21.6c0,0,0,0,0,0v0l52.9,34.2c1.3,1.1,2.9,1.7,4.7,1.7c4,0,7.2-3.2,7.2-7.2
		c0-0.3,0-0.7-0.1-1V39.8C116.3,39.5,116.3,39.2,116.3,38.8z"/>
	<path fill="#333333" d="M142.3,70.8l-1,1c-1.6,1.6-1.5,4.1,0,5.7c5.7,5.8,9.3,13.7,9.3,22.5c0,8.8-3.6,16.7-9.3,22.5
		c-1.5,1.6-1.6,4.1,0,5.7l1,1c1.6,1.6,4.1,1.6,5.7,0c7.4-7.6,11.9-17.9,11.9-29.2c0-11.4-4.5-21.7-11.9-29.2
		C146.4,69.2,143.8,69.2,142.3,70.8z"/>
	<path fill="#333333" d="M129.5,83.5l-0.9,0.9c-1.5,1.5-1.6,4-0.1,5.5c2.5,2.6,4,6.1,4,10c0,3.9-1.5,7.4-4,10
		c-1.5,1.6-1.4,4,0.1,5.5l0.9,0.9c1.6,1.6,4.2,1.6,5.7-0.1c4.1-4.3,6.6-10,6.6-16.4c0-6.4-2.5-12.1-6.6-16.4
		C133.7,81.9,131.1,81.9,129.5,83.5z"/>
	<path fill="#333333" d="M154.5,58.5l-1,1c-1.5,1.5-1.6,4,0,5.6c8.8,9,14.3,21.3,14.3,34.9c0,13.6-5.5,25.9-14.3,34.9
		c-1.5,1.6-1.5,4.1,0,5.6l1,1c1.6,1.6,4.1,1.6,5.6,0c10.5-10.7,17.1-25.3,17.1-41.5c0-16.2-6.5-30.8-17.1-41.5
		C158.6,56.9,156.1,57,154.5,58.5z"/>
</g>
</svg>
