<?xml version="1.0" encoding="utf-8"?>
<!-- Generator: Adobe Illustrator 22.0.1, SVG Export Plug-In . SVG Version: 6.00 Build 0)  -->
<svg version="1.1" id="图层_1" xmlns="http://www.w3.org/2000/svg" xmlns:xlink="http://www.w3.org/1999/xlink" x="0px" y="0px"
	 viewBox="0 0 200 200" style="enable-background:new 0 0 200 200;" xml:space="preserve">
<style type="text/css">
	.st0{fill:#6883D8;}
</style>
<path class="st0" d="M99.4,9.3C49.3,9.3,8.7,49.9,8.7,100s40.6,90.7,90.7,90.7s90.7-40.6,90.7-90.7C190.1,49.9,149.5,9.3,99.4,9.3z
	 M141.7,144.6c-3.3,2.5-7.5,4.2-11.6,4.2c-5,0-11.6-2.5-15.8-6.7l-20-20c-3.3,0-7.5,0.8-12.5,0.8c-8.3,0-17.5-1.7-24.1-8.3
	c-12.5-12.5-14.1-33.3-8.3-47.4l24.9,24.9l15-15L64.4,52.3c6.7-4.2,13.3-5.8,19.1-5.8c10.8,0,20,5,28.3,13.3
	c10.8,10.8,12.5,23.3,7.5,37.4l20,20C147.5,125.4,148.3,137.9,141.7,144.6z"/>
<circle class="st0" cx="129.4" cy="132.3" r="9.8"/>
</svg>
