<svg id="图层_1" data-name="图层 1" xmlns="http://www.w3.org/2000/svg" viewBox="0 0 200 200"><path d="M161.36,11.69H38.64A20.26,20.26,0,0,0,18.18,32.15V171.24a20.26,20.26,0,0,0,20.46,20.45h81.81V134.42c0-4.91,3.28-8.18,8.19-8.18h53.18V32.15A20.26,20.26,0,0,0,161.36,11.69ZM65.05,88.43l-.12.12L53.3,100,41.67,88.55a8,8,0,0,1-.13-11.32,1.59,1.59,0,0,0,.13-.13h0a8.32,8.32,0,0,1,11.63,0,8.32,8.32,0,0,1,11.63,0A8,8,0,0,1,65.05,88.43Zm0-40.49-.12.12L53.3,59.51,41.67,48.06a8,8,0,0,1-.13-11.32,1.59,1.59,0,0,0,.13-.13h0a8.32,8.32,0,0,1,11.63,0,8.32,8.32,0,0,1,11.63,0A8,8,0,0,1,65.05,47.94Zm74,46.4H98.18c-4.91,0-8.18-3.27-8.18-8.18S93.27,78,98.18,78h40.91c4.91,0,8.18,3.27,8.18,8.18S144,94.34,139.09,94.34Zm0-39.28H98.18c-4.91,0-8.18-3.27-8.18-8.18s3.27-8.19,8.18-8.19h40.91c4.91,0,8.18,3.28,8.18,8.19S144,55.06,139.09,55.06Z"/><polygon points="139.89 186.78 179.98 142.6 139.89 142.6 139.89 186.78"/></svg>