<?xml version="1.0" encoding="utf-8"?>
<!-- Generator: Adobe Illustrator 24.2.1, SVG Export Plug-In . SVG Version: 6.00 Build 0)  -->
<svg version="1.1" id="图层_2" xmlns="http://www.w3.org/2000/svg" xmlns:xlink="http://www.w3.org/1999/xlink" x="0px" y="0px"
	 viewBox="0 0 200 200" enable-background="new 0 0 200 200" xml:space="preserve">
<path fill="#333333" d="M36.5,86l-13.3,48.6V41.3c0-4.8,3.9-8.7,8.7-8.7h41.4c2.3,0,4.5,0.9,6.2,2.6L97.3,53
	c0.3,0.3,0.8,0.5,1.2,0.5h62.3c4.8,0,8.7,3.9,8.7,8.7v12.2h-118C44.5,74.4,38.4,79.2,36.5,86z M187.1,88.3c-1.6-2.2-4.2-3.4-6.9-3.4
	H51.6c-3.9,0-7.4,2.6-8.4,6.4l-18.1,66.2c-1.3,4.6,1.5,9.4,6.1,10.7c0.7,0.2,1.5,0.3,2.3,0.3h128.5c3.9,0,7.4-2.6,8.4-6.4l18.1-66.2
	C189.3,93.3,188.7,90.5,187.1,88.3L187.1,88.3z"/>
</svg>
