<?xml version="1.0" encoding="utf-8"?>
<!-- Generator: Adobe Illustrator 24.2.1, SVG Export Plug-In . SVG Version: 6.00 Build 0)  -->
<svg version="1.1" id="图层_2" xmlns="http://www.w3.org/2000/svg" xmlns:xlink="http://www.w3.org/1999/xlink" x="0px" y="0px"
	 viewBox="0 0 200 200" enable-background="new 0 0 200 200" xml:space="preserve">
<g>
	<path fill="#333333" d="M12.5,20.3c0-0.3,0.1-0.5,0.3-0.7s0.4-0.3,0.7-0.3h6.2c0.3,0,0.5,0.1,0.7,0.3s0.3,0.4,0.3,0.7v152.1h165.8
		c0.3,0,0.5,0.1,0.7,0.3s0.3,0.4,0.3,0.7v6.2c0,0.3-0.1,0.5-0.3,0.7s-0.4,0.3-0.7,0.3h-174V20.3z"/>
	<path fill="#333333" d="M170.9,87.7c0.8,0,1.5,0.3,2.1,0.9c0.6,0.6,0.9,1.3,0.9,2.1v26.9c0,0.8-0.3,1.5-0.9,2.1
		c-0.6,0.6-1.3,0.9-2.1,0.9H31.6V87.7H170.9z M129.9,46.7c0.8,0,1.5,0.3,2.1,0.9c0.6,0.6,0.9,1.3,0.9,2.1v26.9
		c0,0.8-0.3,1.5-0.9,2.1c-0.6,0.6-1.3,0.9-2.1,0.9H31.6V46.7H129.9z M88.8,128.7c0.8,0,1.5,0.3,2.1,0.9c0.6,0.6,0.9,1.3,0.9,2.1
		v26.9c0,0.8-0.3,1.5-0.9,2.1c-0.6,0.6-1.3,0.9-2.1,0.9H31.6v-32.8H88.8z"/>
</g>
</svg>
