<?xml version="1.0" encoding="utf-8"?>
<!-- Generator: Adobe Illustrator 24.2.1, SVG Export Plug-In . SVG Version: 6.00 Build 0)  -->
<svg version="1.1" id="图层_2" xmlns="http://www.w3.org/2000/svg" xmlns:xlink="http://www.w3.org/1999/xlink" x="0px" y="0px"
	 viewBox="0 0 200 200" enable-background="new 0 0 200 200" xml:space="preserve">
<path fill="#333333" d="M168.6,20H31.4C25.1,20,20,25.1,20,31.4v137.1c0,6.3,5.1,11.4,11.4,11.4h137.1c6.3,0,11.4-5.1,11.4-11.4
	V31.4C180,25.1,174.9,20,168.6,20L168.6,20z M37.1,42.9c0-3.1,2.6-5.7,5.7-5.7h38c3.1,0,5.7,2.6,5.7,5.7s-2.6,5.7-5.7,5.7H48.6v32.3
	c0,3.1-2.6,5.7-5.7,5.7s-5.7-2.6-5.7-5.7V42.9z M88.3,120l-31.4,31.4h24.3c3.1,0,5.7,2.6,5.7,5.7s-2.6,5.7-5.7,5.7H42.9
	c-0.9,0-1.4-0.3-2.3-0.6c-1.4-0.6-2.6-1.7-3.1-3.1c0-0.6-0.3-1.1-0.3-2v-38c0-3.1,2.6-5.7,5.7-5.7c3.1,0,5.7,2.6,5.7,5.7v24.3
	L80,112c2.3-2.3,5.7-2.3,8,0C90.3,114,90.3,117.7,88.3,120z M162.9,157.1c0,3.1-2.6,5.7-5.7,5.7h-38c-3.1,0-5.7-2.6-5.7-5.7
	c0-3.1,2.6-5.7,5.7-5.7h32.3v-32.3c0-3.1,2.6-5.7,5.7-5.7c3.1,0,5.7,2.6,5.7,5.7L162.9,157.1L162.9,157.1z M162.9,80.9
	c0,3.1-2.6,5.7-5.7,5.7c-3.1,0-5.7-2.6-5.7-5.7V56.6L120,88c-1.1,1.1-2.6,1.7-4,1.7c-1.4,0-2.9-0.6-4-1.7c-2.3-2.3-2.3-5.7,0-8
	l31.4-31.4h-24.3c-3.1,0-5.7-2.6-5.7-5.7c0-3.1,2.6-5.7,5.7-5.7h38c0.9,0,1.4,0.3,2.3,0.6c1.4,0.6,2.6,1.7,3.1,3.1
	c0,0.6,0.3,1.1,0.3,2L162.9,80.9L162.9,80.9z"/>
</svg>
