<?xml version="1.0" encoding="utf-8"?>
<!-- Generator: Adobe Illustrator 22.0.1, SVG Export Plug-In . SVG Version: 6.00 Build 0)  -->
<svg version="1.1" id="图层_1" xmlns="http://www.w3.org/2000/svg" xmlns:xlink="http://www.w3.org/1999/xlink" x="0px" y="0px"
	 viewBox="0 0 14.6 14.4" style="enable-background:new 0 0 14.6 14.4;" xml:space="preserve">
<style type="text/css">
	.st0{fill:#C661C9;}
</style>
<title>补充图标</title>
<path class="st0" d="M14.4,13.6l-3.8-3.7c2.1-2.5,1.8-6.3-0.7-8.5S3.6-0.4,1.4,2.1s-1.8,6.3,0.7,8.5c2.2,1.9,5.5,1.9,7.7,0l3.8,3.7
	c0.1,0.1,0.2,0.2,0.3,0.1c0.1,0,0.3-0.1,0.4-0.1C14.6,14.1,14.6,13.8,14.4,13.6C14.4,13.6,14.4,13.6,14.4,13.6z M1,6
	c0-2.8,2.2-5,5-5s5,2.2,5,5s-2.2,5-5,5S1,8.8,1,6z"/>
</svg>
