<svg id="图层_1" data-name="图层 1" xmlns="http://www.w3.org/2000/svg" viewBox="0 0 200 200"><path d="M183.18,160.17c-7.31-6.18-15.74-10.12-24.74-13.49-7.87-2.81-15.74-5.63-23.05-9-7.87-3.37-9.56-10.68-5.63-18.55a17.77,17.77,0,0,1,5.06-6.19c6.19-5.06,9.56-11.25,11.81-18.55a17.73,17.73,0,0,1,7.31-10.69c6.75-4.5,7.87-11.24,7.31-18.55,0-2.81-1.12-5.06-3.93-5.63-4.5-1.12-4.5-4.49-5.06-7.31-.57-2.24-.57-3.93-1.13-6.18a42.6,42.6,0,0,0-40.48-35.42C88.72,10,70.73,24.1,66.79,44.91L65.1,55c.57,1.12,0,2.81-2.25,3.37-3.93,1.12-5.06,4.5-5.62,7.87-.56,7.87,3.37,14.62,11.25,16.87,19.11,6.18,28.11,20.24,30.36,39.92,1.69,19.12.56,37.67,1.12,56.79.57,6.75,2.82,9.56,9.56,9.56h63c7.31,0,14.62-4.5,16.3-9.56C191.61,173.1,189.37,165.23,183.18,160.17Z"/><path d="M76.91,138.81h0c-2.25,0-3.37-.57-3.37-3.38V122.5c-1.13-14.06-9-23-20.81-24.18-15.18-1.12-25.3,5.62-28.67,20.24a45.86,45.86,0,0,0-.57,15.18c.57,4.5-1.12,5.63-5.06,5.07-6.74,0-8.43,1.68-8.43,7.87V182.1c0,6.19,1.12,7.31,7.31,7.31H78c7.3,0,8.43-1.12,8.43-8.43V147.8C86.47,139.93,85.91,138.81,76.91,138.81Zm-13.49-.57c-5.06,1.69-10.69,0-14.62.57H43.74c-11.81,0-11.81,0-11.81-11.81a22.45,22.45,0,0,1,3.93-13.5c6.19-8.43,20.25-6.74,24.74,2.81C64.54,123.06,63.42,130.37,63.42,138.24Z"/></svg>