<?xml version="1.0" encoding="utf-8"?>
<!-- Generator: Adobe Illustrator 22.0.1, SVG Export Plug-In . SVG Version: 6.00 Build 0)  -->
<svg version="1.1" id="图层_1" xmlns="http://www.w3.org/2000/svg" xmlns:xlink="http://www.w3.org/1999/xlink" x="0px" y="0px"
	 viewBox="0 0 200 200" enable-background="new 0 0 200 200" xml:space="preserve">
<g id="图层_1_1_">
	<g>
		<path fill="#6883D8" d="M161.7,21.9H37.2c-8.6,0-15.6,7-15.6,15.6V162c0,8.6,7,15.6,15.6,15.6h124.5c8.6,0,15.6-7,15.6-15.6V37.4
			C177.2,28.9,170.2,21.9,161.7,21.9z M91.4,103.5L81,116.1l6,5c3.3,2.7,3.8,7.7,1.1,11c-2.7,3.3-7.7,3.8-11,1.1l-6-5l-4.7,5.8
			l7.1,5.9l0,0c3.3,2.7,3.8,7.7,1.1,11c-2.7,3.3-7.7,3.8-11,1.1l-7.4-6.1l-6.1,7.4l0,0c-2.8,3-7.4,3.3-10.6,0.7
			c-3.2-2.6-3.8-7.3-1.4-10.6l0,0l41-49.9c-8.3-10.5-10-25.2-3.9-37.2c8.7-17.2,29.4-24.1,46.9-15.2s24.6,29.9,16.2,47.3
			C129.7,105.6,108.9,112.4,91.4,103.5z M162,151.9c0,4-3.3,7.3-7.3,7.3h-23.3c-4,0-7.3-3.3-7.3-7.3l0,0c0-4,3.3-7.3,7.3-7.3h23.3
			C158.7,144.6,162,147.9,162,151.9L162,151.9z M154.7,129.3h-23.3c-4,0-7.3-3.3-7.3-7.3s3.3-7.3,7.3-7.3h23.3c4,0,7.3,3.3,7.3,7.3
			S158.7,129.3,154.7,129.3z"/>
		<path fill="#6883D8" d="M118.7,57.5c-8.3-7.3-20.8-6-27.5,2.2c-6.8,8.2-5.3,20.4,3.2,27.4s20.8,6,27.5-2.2
			C128.6,76.7,127.2,64.5,118.7,57.5z"/>
	</g>
</g>
</svg>
