<svg id="图层_1" data-name="图层 1" xmlns="http://www.w3.org/2000/svg" viewBox="0 0 200 200"><path d="M185.48,89.73c-7.19-5.68-16.11-12.74-25.32-20.06L158,68l-6.41-5.1-2.14-1.69c-22-17.5-42.64-33.93-42.64-33.93-1.52-1.5-5.74-1.66-6.66-1.68h-.36c-.92,0-5.14.18-6.66,1.68,0,0-20.62,16.43-42.64,33.93l-2.14,1.69L42,68l-2.13,1.69C30.63,77,21.71,84.05,14.52,89.73c-5.13,3.38-6.16,9.12-1.71,13.51,1.71,1.69,5.13,3.38,10.26,0l11.16-8.65v66a13.84,13.84,0,0,0,13.83,13.84H152a13.82,13.82,0,0,0,13.8-13.84v-66l11.16,8.65c5.13,3.38,8.55,1.69,10.26,0C191.64,98.85,190.61,93.11,185.48,89.73ZM129,120.56l-.31.31L100,149.09,71.32,120.86A19.75,19.75,0,0,1,71,92.94l.31-.31h0a20.52,20.52,0,0,1,28.68,0,20.51,20.51,0,0,1,28.67,0A19.75,19.75,0,0,1,129,120.56Z"/></svg>