<svg id="图层_2" data-name="图层 2" xmlns="http://www.w3.org/2000/svg" viewBox="0 0 200 200"><defs><style>.cls-1{fill:#007aff;}</style></defs><path class="cls-1" d="M178.13,140.18H127.78a9.29,9.29,0,0,1-9.28-9.29V47.32H68V95.18a9.29,9.29,0,0,1-9.29,9.28H21.88a9.29,9.29,0,1,1,0-18.57H49.47V38a9.29,9.29,0,0,1,9.28-9.28h69A9.29,9.29,0,0,1,137.07,38v83.58h41.06a9.29,9.29,0,0,1,0,18.57Z"/><path class="cls-1" d="M29.05,171.25H14.77a7.15,7.15,0,1,1,0-14.29H29.05a7.15,7.15,0,1,1,0,14.29Z"/><path class="cls-1" d="M142.56,171.25H114.19a7.15,7.15,0,0,1,0-14.29h28.37a7.15,7.15,0,1,1,0,14.29Zm-56.76,0H57.43a7.15,7.15,0,0,1,0-14.29H85.8a7.15,7.15,0,1,1,0,14.29Z"/><path class="cls-1" d="M185.23,171.25H171A7.15,7.15,0,1,1,171,157h14.28a7.15,7.15,0,1,1,0,14.29Z"/></svg>