<svg id="图层_2" data-name="图层 2" xmlns="http://www.w3.org/2000/svg" viewBox="0 0 200 200"><defs><style>.cls-1{fill:#007aff;}</style></defs><path class="cls-1" d="M134.87,122.74a8.18,8.18,0,0,1-6.45-13.24l29.71-37.94a19.17,19.17,0,0,0-3.27-26.88L151.45,42a19.18,19.18,0,0,0-26.88,3.27L94.85,83.22a19.29,19.29,0,0,0,.27,23.94,8.19,8.19,0,0,1-12.69,10.37A35.63,35.63,0,0,1,82,73.13l29.71-37.94a35.6,35.6,0,0,1,49.9-6.09L165,31.77A35.59,35.59,0,0,1,171,81.65l-29.72,37.94A8.13,8.13,0,0,1,134.87,122.74Z"/><path class="cls-1" d="M60.32,178.43a35.16,35.16,0,0,1-21.88-7.55L35,168.21A35.62,35.62,0,0,1,29,118.33L58.68,80.4a8.19,8.19,0,1,1,12.9,10.11L41.87,128.44a19.22,19.22,0,0,0,3.25,26.88L48.53,158a19.18,19.18,0,0,0,26.88-3.27l29.72-37.93a19.33,19.33,0,0,0-1-24.78,8.19,8.19,0,1,1,12-11.09,35.59,35.59,0,0,1,1.83,46l-29.68,38A35.4,35.4,0,0,1,60.32,178.43Z"/></svg>