<svg id="图层_2" data-name="图层 2" xmlns="http://www.w3.org/2000/svg" viewBox="0 0 200 200"><defs><style>.cls-1{fill:#007aff;}</style></defs><path class="cls-1" d="M60.23,131.28H51.55a4.34,4.34,0,1,0,0,8.68h8.68a4.34,4.34,0,0,0,0-8.68Z"/><path class="cls-1" d="M91.9,131.28H76.06a4.34,4.34,0,0,0,0,8.68H91.9a4.34,4.34,0,0,0,0-8.68Z"/><path class="cls-1" d="M123.57,131.28H107.73a4.34,4.34,0,0,0,0,8.68h15.84a4.34,4.34,0,0,0,0-8.68Z"/><path class="cls-1" d="M148.06,131.28H139.4a4.34,4.34,0,0,0,0,8.68h8.66a4.34,4.34,0,0,0,0-8.68Z"/><path class="cls-1" d="M149.63,78.42a6.89,6.89,0,0,0-7.87,5.5c0,.18-3.45,18.56-16.66,20.31-6.93.6-14.9-11.27-21.44-21.79-6.84-11-13.28-21.38-22.87-24.07-18.51-4.87-30.56,13.44-34.69,25A6.79,6.79,0,0,0,58.88,88c.06-.19,7.4-19.45,18.35-16.5,4.4,1.24,10.23,10.61,14.9,18.15,8.25,13.24,17.53,28.19,32.5,28.19.62,0,1.28,0,1.93-.09,23.28-3.07,28.35-30.26,28.56-31.42A6.79,6.79,0,0,0,149.63,78.42Z"/><path class="cls-1" d="M164.41,35.58A90.57,90.57,0,0,0,100,9,91.11,91.11,0,0,0,35.57,164.42c16.32,16.75,39.51,26.63,64.42,26.63a90.85,90.85,0,0,0,64.42-26.63C181.16,148.1,191,125.34,191,100A87.42,87.42,0,0,0,164.41,35.58Zm-9.88,119A77.24,77.24,0,0,1,100,177.3a75.5,75.5,0,0,1-54.54-22.76A77.25,77.25,0,0,1,22.69,100,75.5,75.5,0,0,1,45.45,45.46C59.62,31.72,79,22.7,100,22.7A76.66,76.66,0,0,1,154.11,45l.42.43A77.22,77.22,0,0,1,177.3,100,75.47,75.47,0,0,1,154.53,154.54Z"/></svg>