<?xml version="1.0" encoding="utf-8"?>
<!-- Generator: Adobe Illustrator 24.2.1, SVG Export Plug-In . SVG Version: 6.00 Build 0)  -->
<svg version="1.1" id="图层_2" xmlns="http://www.w3.org/2000/svg" xmlns:xlink="http://www.w3.org/1999/xlink" x="0px" y="0px"
	 viewBox="0 0 200 200" enable-background="new 0 0 200 200" xml:space="preserve">
<g>
	<g>
		<path fill="#333333" d="M172,57h-35v-8c0-5.5-4.5-10-10-10H73c-5.5,0-10,4.5-10,10v8H28c-3.3,0-6,2.7-6,6l0,0c0,3.3,2.7,6,6,6h35
			v8c0,5.5,4.5,10,10,10h54c5.5,0,10-4.5,10-10v-8h35c3.3,0,6-2.7,6-6l0,0C178,59.7,175.3,57,172,57z"/>
	</g>
	<g>
		<path fill="#333333" d="M172,131h-12v-8c0-5.5-4.5-10-10-10H50c-5.5,0-10,4.5-10,10v8H28c-3.3,0-6,2.7-6,6l0,0c0,3.3,2.7,6,6,6h12
			v8c0,5.5,4.5,10,10,10h100c5.5,0,10-4.5,10-10v-8h12c3.3,0,6-2.7,6-6l0,0C178,133.7,175.3,131,172,131z"/>
	</g>
</g>
</svg>
