<svg id="图层_2" data-name="图层 2" xmlns="http://www.w3.org/2000/svg" viewBox="0 0 200 200"><defs><style>.cls-1{fill:#007aff;}</style></defs><path class="cls-1" d="M178.92,33.26H162.65V26.15A7.62,7.62,0,0,0,155,18.53h-16.9a7.62,7.62,0,0,0-7.62,7.62v7.11H67V26.15a7.62,7.62,0,0,0-7.61-7.62H42.53a7.62,7.62,0,0,0-7.62,7.62v7.11H21.08a6.79,6.79,0,0,0-6.79,6.79v7.47a6.79,6.79,0,0,0,6.79,6.8H178.92a6.79,6.79,0,0,0,6.79-6.8V40.05A6.79,6.79,0,0,0,178.92,33.26Z"/><path class="cls-1" d="M171.86,69.39H28.14A10.77,10.77,0,0,0,17.37,80.16l.31,90.54a10.77,10.77,0,0,0,10.77,10.77H172.17a10.77,10.77,0,0,0,10.77-10.77l-.31-90.54A10.77,10.77,0,0,0,171.86,69.39ZM76,131.67H66.83v9.15a7.13,7.13,0,1,1-14.25,0v-9.15H43.43a7.13,7.13,0,1,1,0-14.25h9.15v-9.15a7.13,7.13,0,1,1,14.25,0v9.15H76a7.13,7.13,0,1,1,0,14.25Zm81,0H124.42a7.13,7.13,0,1,1,0-14.25H157a7.13,7.13,0,1,1,0,14.25Z"/></svg>