<?xml version="1.0" encoding="utf-8"?>
<!-- Generator: Adobe Illustrator 24.2.1, SVG Export Plug-In . SVG Version: 6.00 Build 0)  -->
<svg version="1.1" id="图层_2" xmlns="http://www.w3.org/2000/svg" xmlns:xlink="http://www.w3.org/1999/xlink" x="0px" y="0px"
	 viewBox="0 0 200 200" enable-background="new 0 0 200 200" xml:space="preserve">
<path fill="#333333" d="M70.6,127.2c-5.1-5-7.9-11.8-7.9-19V79.8c0-5.3,1.6-10.3,4.3-14.5c-1.2-0.3-2.5-0.5-3.8-0.5H43
	c-9,0-16.4,7.5-16.4,16.6v26.1c0,6.2,3.4,11.8,8.9,14.7v50.9h13.2l4.9-32.2l4.9,32.2h12.2L70.6,127.2L70.6,127.2z M119,124.2
	c5.8-3,9.7-9.1,9.7-16V79.8c0-9.9-8-18-17.8-18h-22c-9.8,0-17.8,8.1-17.8,18v28.3c0,6.9,3.9,13,9.6,16v55.4h14.4l5.3-35.1l5.3,35.1
	H119L119,124.2L119,124.2z M100.4,20.4c10.4,0,18.8,8.5,18.8,19c0,10.5-8.4,19-18.8,19s-18.8-8.5-18.8-19
	C81.6,28.9,90,20.4,100.4,20.4z M129.4,127.2v46h12.2l4.9-32.2l4.9,32.2h13.2v-50.9c5.3-2.8,8.8-8.3,8.8-14.7V81.5
	c0-9.1-7.4-16.6-16.4-16.6h-20.1c-1.3,0-2.6,0.2-3.8,0.5c2.8,4.3,4.3,9.3,4.3,14.5v28.3C137.4,115.4,134.4,122.3,129.4,127.2
	L129.4,127.2z M146.5,26.8c-9.5,0-17.3,7.8-17.3,17.4s7.7,17.4,17.3,17.4c9.5,0,17.2-7.8,17.2-17.4S156,26.8,146.5,26.8z M53.5,26.8
	c9.5,0,17.3,7.8,17.3,17.4s-7.7,17.4-17.3,17.4c-9.5,0-17.2-7.8-17.2-17.4C36.3,34.6,44,26.8,53.5,26.8z"/>
</svg>
