<svg id="图层_1" data-name="图层 1" xmlns="http://www.w3.org/2000/svg" viewBox="0 0 200 200"><path d="M166.8,10.44H33.2A23.27,23.27,0,0,0,10,33.64v90.8a23.27,23.27,0,0,0,23.2,23.2H77.47L53.88,189.56h92.24l-22.54-41.92H166.8a23.27,23.27,0,0,0,23.2-23.2V33.64A23.27,23.27,0,0,0,166.8,10.44ZM132.13,85.23C131.3,103.72,102.2,115,101,115.45a2.65,2.65,0,0,1-1.92,0c-1.24-.47-30.35-11.73-31.17-30.1V54.05a2.7,2.7,0,0,1,1.82-2.56L99.12,41.35a2.66,2.66,0,0,1,1.76,0l29.43,10.14a2.7,2.7,0,0,1,1.82,2.56Z"/><path d="M115.43,62,94.59,82.62l-10-10.21a2.9,2.9,0,1,0-4.14,4l12,12.29a2.93,2.93,0,0,0,2,.87h0a2.93,2.93,0,0,0,2-.83L119.5,66.16A2.9,2.9,0,0,0,115.43,62Z"/></svg>