<?xml version="1.0" encoding="utf-8"?>
<!-- Generator: Adobe Illustrator 24.2.1, SVG Export Plug-In . SVG Version: 6.00 Build 0)  -->
<svg version="1.1" id="图层_2" xmlns="http://www.w3.org/2000/svg" xmlns:xlink="http://www.w3.org/1999/xlink" x="0px" y="0px"
	 viewBox="0 0 200 200" enable-background="new 0 0 200 200" xml:space="preserve">
<g>
	<path fill="#333333" d="M63.5,63.6c-4,0-7.3,3.3-7.3,7.3s3.3,7.3,7.3,7.3s7.3-3.3,7.3-7.3S67.5,63.6,63.5,63.6z M63.5,121.8
		c-4,0-7.3,3.3-7.3,7.3c0,4,3.3,7.3,7.3,7.3s7.3-3.3,7.3-7.3C70.8,125.1,67.5,121.8,63.5,121.8z M63.5,92.7c-4,0-7.3,3.3-7.3,7.3
		s3.3,7.3,7.3,7.3s7.3-3.3,7.3-7.3S67.5,92.7,63.5,92.7z M136.3,121.8H89c-4,0-7.3,3.3-7.3,7.3c0,4,3.3,7.3,7.3,7.3h47.3
		c4,0,7.3-3.3,7.3-7.3C143.6,125.1,140.3,121.8,136.3,121.8z M136.3,63.6H89c-4,0-7.3,3.3-7.3,7.3s3.3,7.3,7.3,7.3h47.3
		c4,0,7.3-3.3,7.3-7.3S140.3,63.6,136.3,63.6z M165.4,20L34.6,20c-8,0-14.6,6.5-14.6,14.5v130.9c0,8,6.5,14.5,14.6,14.5l130.9,0
		c8,0,14.6-6.5,14.6-14.5V34.5C180,26.5,173.5,20,165.4,20z M165.4,158.2c0,4-3.3,7.3-7.3,7.3l-116.3,0c-4,0-7.3-3.3-7.3-7.3V41.8
		c0-4,3.3-7.3,7.3-7.3l116.3,0c4,0,7.3,3.3,7.3,7.3V158.2z M136.3,92.7H89c-4,0-7.3,3.3-7.3,7.3s3.3,7.3,7.3,7.3h47.3
		c4,0,7.3-3.3,7.3-7.3S140.3,92.7,136.3,92.7z"/>
</g>
</svg>
