<?xml version="1.0" encoding="utf-8"?>
<!-- Generator: Adobe Illustrator 24.2.1, SVG Export Plug-In . SVG Version: 6.00 Build 0)  -->
<svg version="1.1" id="图层_2" xmlns="http://www.w3.org/2000/svg" xmlns:xlink="http://www.w3.org/1999/xlink" x="0px" y="0px"
	 viewBox="0 0 200 200" enable-background="new 0 0 200 200" xml:space="preserve">
<g>
	<path fill="#333333" d="M96.6,114.5L17.3,72.8c-5.8-3-5.8-11.3,0-14.3L96,17.3c2.4-1.2,5.2-1.2,7.6,0l78.1,41.7
		c5.7,3.1,5.7,11.2,0,14.3l-77.5,41.1C101.8,115.7,99,115.7,96.6,114.5z"/>
	<g>
		<path fill="#333333" d="M99.8,183.6c-2.3,0-4.7-0.5-6.8-1.6l-78.8-40.5c-3.4-1.7-4.7-5.8-3-9.2c1.7-3.4,5.8-4.7,9.2-3l78.8,40.5
			c0.3,0.2,0.7,0.2,1,0l79.6-39.6c3.4-1.7,7.5-0.3,9.2,3.1s0.3,7.5-3.1,9.2L106.4,182C104.3,183.1,102,183.6,99.8,183.6z"/>
	</g>
	<g>
		<path fill="#333333" d="M99.7,148.8c-2.3,0-4.7-0.6-6.8-1.7l-79-41c-3.4-1.7-4.7-5.9-2.9-9.2c1.7-3.4,5.9-4.7,9.2-2.9l79,41
			c0.3,0.2,0.7,0.2,1.1,0l79.5-40.6c3.4-1.7,7.5-0.4,9.2,3c1.7,3.4,0.4,7.5-3,9.2l-79.5,40.6C104.4,148.3,102.1,148.8,99.7,148.8z"
			/>
	</g>
</g>
</svg>
