<svg id="图层_1" data-name="图层 1" xmlns="http://www.w3.org/2000/svg" viewBox="0 0 200 200"><path d="M175.67,62.17H24.32A6.31,6.31,0,0,0,18,68.48V175.7a6.32,6.32,0,0,0,6.32,6.3H175.68a6.32,6.32,0,0,0,6.32-6.3V68.48a6.34,6.34,0,0,0-6.32-6.31ZM49.54,30.63H150.47a3.16,3.16,0,0,0,3.14-3.19h0V21.19A3.15,3.15,0,0,0,150.52,18h-101a3.17,3.17,0,0,0-3.14,3.19v6.24a3.14,3.14,0,0,0,3.09,3.19h0ZM33.8,52.7a3.16,3.16,0,0,1-3.16-3.17V43.28a3.18,3.18,0,0,1,3.16-3.19H166.23a3.16,3.16,0,0,1,3.17,3.13v6.3a3.19,3.19,0,0,1-3.17,3.19H33.8ZM136.44,123a45.45,45.45,0,0,1-3.66,11q-8.18,16.58-28,17.38A49.21,49.21,0,0,1,87.09,149v-.08l-2.46,5.74a3.82,3.82,0,0,1-1.44,1.58,4.06,4.06,0,0,1-1.66.54,3.46,3.46,0,0,1-1.53-.18,2.4,2.4,0,0,1-.92-.52,7.68,7.68,0,0,1-.7-.7L65.94,135.78a4.09,4.09,0,0,1-.55-1.55,2.93,2.93,0,0,1,.08-1.25,2.59,2.59,0,0,1,.56-1,5.55,5.55,0,0,1,.8-.73,4.77,4.77,0,0,1,.87-.52,3.9,3.9,0,0,1,.63-.25.6.6,0,0,0,.24-.11L90.35,125a8.43,8.43,0,0,1,3-.2,6.58,6.58,0,0,1,1.29.33,2.43,2.43,0,0,1,1.18,1,3.59,3.59,0,0,1,.37,1.07,3,3,0,0,1,0,1A4.51,4.51,0,0,1,96,129a.71.71,0,0,0-.09.26L93.37,135a55.2,55.2,0,0,0,12.75,2.83,37.32,37.32,0,0,0,10.21-.25,31.34,31.34,0,0,0,13.56-6.3,26.26,26.26,0,0,0,3.77-4,36.08,36.08,0,0,0,2.11-3C136.06,123.83,136.29,123.38,136.44,123ZM63.56,119.7A46.88,46.88,0,0,1,68.48,107q9.15-15.24,29-14.88A47.2,47.2,0,0,1,113.54,95l2.62-5.67A4.74,4.74,0,0,1,117.32,88a2.86,2.86,0,0,1,1.22-.52,3.46,3.46,0,0,1,1.16-.06,4.82,4.82,0,0,1,.92.19,2.84,2.84,0,0,1,.65.28,4,4,0,0,1,.83.63l.49.58,11.77,19.49a5.09,5.09,0,0,1,.47,1.63,2.93,2.93,0,0,1-.08,1.25,2.38,2.38,0,0,1-.6,1,4.47,4.47,0,0,1-.83.7,6.78,6.78,0,0,1-.88.48l-.63.3a.6.6,0,0,1-.24.07l-21.93,4.87a9.18,9.18,0,0,1-3.58-.08,3,3,0,0,1-1.76-1.25,2.36,2.36,0,0,1-.43-1.28,2.52,2.52,0,0,1,.06-1,3.12,3.12,0,0,1,.31-.82l2.71-5.67a55,55,0,0,0-12.72-3.09,39.32,39.32,0,0,0-10.21,0,30.77,30.77,0,0,0-13.71,6,28.67,28.67,0,0,0-3.89,3.9,31.94,31.94,0,0,0-2.23,2.94A8.48,8.48,0,0,0,63.56,119.7Z"/></svg>