<?xml version="1.0" encoding="utf-8"?>
<!-- Generator: Adobe Illustrator 22.0.1, SVG Export Plug-In . SVG Version: 6.00 Build 0)  -->
<svg version="1.1" id="图层_1" xmlns="http://www.w3.org/2000/svg" xmlns:xlink="http://www.w3.org/1999/xlink" x="0px" y="0px"
	 viewBox="0 0 200 200" enable-background="new 0 0 200 200" xml:space="preserve">
<g id="图层_1_1_">
	<g>
		<path fill="#6883D8" d="M158.7,24.1H25.3c-4.6,0-8.3,3.7-8.3,8.3v25c0,4.6,3.7,8.3,8.3,8.3h133.3c4.6,0,8.3-3.7,8.3-8.3v-25
			C167,27.8,163.3,24.1,158.7,24.1z M43.3,49.1H32.4v-8.3h10.8L43.3,49.1L43.3,49.1z M64.1,49.1H53.2v-8.3H64L64.1,49.1L64.1,49.1z
			 M84.9,49.1H74.1v-8.3h10.8V49.1z M154.5,47.8c0,1.8-1.5,3.3-3.3,3.3h-30.8c-1.8,0-3.3-1.5-3.3-3.3V42c0-1.8,1.5-3.3,3.3-3.3h30.8
			c1.8,0,3.3,1.5,3.3,3.3V47.8z"/>
	</g>
	<g>
		<path fill="#6883D8" d="M96.6,85.5c4.8-4.8,10.2-8.6,15.9-11.4H25.3c-4.6,0-8.3,3.7-8.3,8.3v25c0,4.6,3.7,8.3,8.3,8.3h54.9
			C82.5,104.6,88,94.1,96.6,85.5z M74.1,90.7h10.8V99H74.1V90.7z M43.3,99.1H32.4v-8.3h10.8L43.3,99.1L43.3,99.1z M64.1,99.1H53.2
			v-8.3H64L64.1,99.1L64.1,99.1z"/>
	</g>
	<g>
		<path fill="#6883D8" d="M82.9,149.1h-8.8v-8.3h6.3c-1.2-5.5-1.6-11.1-1.3-16.7H25.3c-4.6,0-8.3,3.7-8.3,8.3v25
			c0,4.6,3.7,8.3,8.3,8.3h67.1C88.3,160.6,85.1,155,82.9,149.1z M43.3,149.1H32.4v-8.3h10.8L43.3,149.1L43.3,149.1z M64.1,149.1
			H53.2v-8.3H64L64.1,149.1L64.1,149.1z"/>
	</g>
	<g>
		<path fill="#6883D8" d="M135.8,106.4c-4.7,0-9.4,1.8-13,5.4c-3.5,3.4-5.4,8.1-5.4,13c0,4.9,1.9,9.5,5.4,13
			c7.2,7.2,18.9,7.2,26.1,0c7.2-7.2,7.2-18.9-0.1-26C145.2,108.2,140.5,106.4,135.8,106.4z"/>
		<path fill="#6883D8" d="M139,79.9c-26.5,0-48,21.5-48,48s21.5,48,48,48c26.5,0,48-21.5,48-48S165.5,79.9,139,79.9z M168.7,157.7
			c-0.9,0.9-2.1,1.4-3.4,1.4s-2.5-0.5-3.4-1.4l-10.1-10.1c-11.1,7.8-26.3,6.5-35.9-3.1c-5.3-5.3-8.2-12.3-8.2-19.8
			c0-7.5,2.9-14.5,8.2-19.8c5.3-5.3,12.3-8.2,19.8-8.2s14.5,2.9,19.8,8.2c9.7,9.6,10.9,24.9,3.1,35.9l10.1,10.1
			C170.6,152.8,170.6,155.8,168.7,157.7z"/>
	</g>
</g>
</svg>
