<?xml version="1.0" encoding="utf-8"?>
<!-- Generator: Adobe Illustrator 22.0.1, SVG Export Plug-In . SVG Version: 6.00 Build 0)  -->
<svg version="1.1" id="图层_1" xmlns="http://www.w3.org/2000/svg" xmlns:xlink="http://www.w3.org/1999/xlink" x="0px" y="0px"
	 viewBox="0 0 200 200" enable-background="new 0 0 200 200" xml:space="preserve">
<polygon points="162.5,68.8 162.5,56.3 100,37.5 37.5,56.3 37.5,68.8 93.8,81.3 93.8,106.3 50,93.8 50,106.3 93.8,118.8 93.8,150 
	50,137.5 50,125 37.5,118.8 37.5,143.8 100,162.5 106.3,156.3 106.3,121.4 100,118.8 100,108.8 106.3,110.8 106.3,75 100,68.8 
	57.6,60.9 100,50 148.7,62.2 118.8,75 118.8,156.3 125,162.5 162.5,137.5 162.5,87.5 150,93.8 150,131.3 131.3,143.8 131.3,81.3 "/>
</svg>
