<?xml version="1.0" encoding="utf-8"?>
<!-- Generator: Adobe Illustrator 24.2.1, SVG Export Plug-In . SVG Version: 6.00 Build 0)  -->
<svg version="1.1" id="图层_2" xmlns="http://www.w3.org/2000/svg" xmlns:xlink="http://www.w3.org/1999/xlink" x="0px" y="0px"
	 viewBox="0 0 200 200" enable-background="new 0 0 200 200" xml:space="preserve">
<path fill="#333333" d="M100,12c-48.6,0-88,39.4-88,88s39.4,88,88,88s88-39.4,88-88S148.6,12,100,12z M100,152.8c-5,0-9-4-9-9
	c0-5,4-9,9-9c5,0,9,4,9,9C109,148.8,105,152.8,100,152.8z M109.8,52.4l-1.8,64.1c-0.1,3.3-3.5,6-7.6,6h-1.4c-4,0-7.5-2.6-7.6-6
	l-1.9-64.1c-0.2-5.1,4-9.4,9.2-9.4h1.8C105.8,43,109.9,47.3,109.8,52.4z"/>
</svg>
