<?xml version="1.0" encoding="utf-8"?>
<!-- Generator: Adobe Illustrator 22.0.1, SVG Export Plug-In . SVG Version: 6.00 Build 0)  -->
<svg version="1.1" id="layer1" xmlns="http://www.w3.org/2000/svg" xmlns:xlink="http://www.w3.org/1999/xlink" x="0px" y="0px"
	 viewBox="0 0 200 200" style="enable-background:new 0 0 200 200;" xml:space="preserve">
<style type="text/css">
	.st0{fill:#6883D8;}
</style>
<g id="图层_1_1_">
	<path class="st0" d="M79,141.3h-5.8c-4.1,0-7.5-3.4-7.5-7.5s3.4-7.5,7.5-7.5h4.7c0.4-7.8,2.3-15.5,5.7-22.6H73.2
		c-4.1,0-7.5-3.4-7.5-7.5s3.4-7.5,7.5-7.5h20.6c0.5-0.6,1.1-1.2,1.6-1.7c17.5-17.5,43.1-22,64.7-13.4V40c0-9.7-7.9-17.6-17.6-17.6
		h-103C29.8,22.5,22,30.3,22,40v112.9c0,9.7,7.9,17.6,17.6,17.6h54.5C86.1,162.2,81.1,151.9,79,141.3z M65.7,58.5
		c0-4.1,3.4-7.5,7.5-7.5h61.9c4.1,0,7.5,3.4,7.5,7.5l0,0c0,4.1-3.4,7.5-7.5,7.5H73.2C69.1,66.1,65.7,62.6,65.7,58.5L65.7,58.5z
		 M54.5,134.4c0,3.8-3.1,6.9-6.9,6.9h-1.2c-3.8,0-6.9-3.1-6.9-6.9v-1.2c0-3.8,3.1-6.9,6.9-6.9h1.2c3.8,0,6.9,3.1,6.9,6.9V134.4z
		 M54.5,96.8c0,3.8-3.1,6.9-6.9,6.9h-1.2c-3.8,0-6.9-3.1-6.9-6.9v-1.2c0-3.8,3.1-6.9,6.9-6.9h1.2c3.8,0,6.9,3.1,6.9,6.9V96.8z
		 M54.5,59.1c0,3.8-3.1,6.9-6.9,6.9h-1.2c-3.8,0-6.9-3.1-6.9-6.9v-1.2c0-3.8,3.1-6.9,6.9-6.9h1.2c3.8,0,6.9,3.1,6.9,6.9V59.1z"/>
	<path class="st0" d="M138.1,81.6c-26.5,0-48,21.5-48,48s21.5,48,48,48s48-21.5,48-48S164.6,81.6,138.1,81.6z M143.9,159.9
		c0,1.2-0.9,2.1-2,2.1H132c-1.1,0-2-0.9-2-2.1v-10.5c0-1.2,0.9-2.1,2-2.1h9.9c1.1,0,2,0.9,2,2.1V159.9z M149.2,132.7
		c-3.2,2-5.2,3.2-5.2,5.3v2.1c0,1.2-0.9,2.1-2,2.1h-9.9c-1.1,0-2-0.9-2-2.1v-4.5c0-8,5.5-10.6,9.8-12.7c3.7-1.8,6-3.1,6-6
		c0-3.8-4.5-6.6-8.6-6.6c-2.2,0-4.5,0.7-5.9,1.8c-1.4,1-2.7,2.4-5,5.4c-0.4,0.5-0.9,0.8-1.5,0.8c-0.4,0-0.9-0.1-1.2-0.4l-6.7-5.4
		c-0.8-0.7-1-1.9-0.4-2.8c5.1-8.4,12.2-12.6,21.6-12.6c10.2,0,21.6,8.5,21.6,19.9C159.9,126.3,153.7,129.9,149.2,132.7z"/>
</g>
</svg>
