<svg id="图层_1" data-name="图层 1" xmlns="http://www.w3.org/2000/svg" viewBox="0 0 200 200"><path d="M89.72,137H47.29a3.48,3.48,0,0,0-3.59,3.51v26.78a3.58,3.58,0,0,0,1,2.52,3.52,3.52,0,0,0,2.54,1H89.72a3.5,3.5,0,0,0,3.59-3.51v-26.8A3.59,3.59,0,0,0,92.25,138,3.42,3.42,0,0,0,89.72,137Z"/><path d="M89.72,94.24H47.29a3.5,3.5,0,0,0-3.49,3.49v26.79A3.58,3.58,0,0,0,44.85,127a3.52,3.52,0,0,0,2.54,1H89.72a3.5,3.5,0,0,0,3.59-3.5V97.73a3.47,3.47,0,0,0-3.59-3.49Z"/><path d="M186.06,66.45h-47.5l-7.2-4.4v-4.6h20.92a6.61,6.61,0,0,0,6.52-6.75V22.22A6.72,6.72,0,0,0,157,17.5a6.63,6.63,0,0,0-4.67-2H100.07a6.62,6.62,0,0,0-6.52,6.74V50.7a6.62,6.62,0,0,0,6.52,6.75h21.16v4.72L114,66.57H58.54v-.68l-.91-3a14.85,14.85,0,0,1,0-8l1.57-4.4a21,21,0,0,0,1-8.11V38.09A4.76,4.76,0,0,0,55,34.15H43.78a4.74,4.74,0,0,0-4.5,4.17v4.27a21,21,0,0,0,1,8.11l1.57,4.4a15,15,0,0,1,0,8l-.91,3v.68H14a4.15,4.15,0,0,0-4,3.94V82a4.17,4.17,0,0,0,4,4.16h4.05a4.16,4.16,0,0,1,4,4.17v90a4.17,4.17,0,0,0,4.05,4.16h4a4.15,4.15,0,0,0,4.05-4.16V90.3a4.17,4.17,0,0,1,4-4.17H161.55a4.15,4.15,0,0,1,4,4.17v90a4.18,4.18,0,0,0,4,4.17h4a4.16,4.16,0,0,0,4-4.17v-90a4.17,4.17,0,0,1,4-4.17h4a4.17,4.17,0,0,0,3.07-1.34A4.12,4.12,0,0,0,190,81.63V70.39A4,4,0,0,0,186.06,66.45Z"/><path d="M155,94.22H112.68a3.54,3.54,0,0,0-2.54,1,3.5,3.5,0,0,0-1,2.52v69.56a3.58,3.58,0,0,0,1,2.52,3.54,3.54,0,0,0,2.54,1H155a3.54,3.54,0,0,0,2.54-1,3.5,3.5,0,0,0,1-2.52V97.73a3.58,3.58,0,0,0-1-2.52A3.54,3.54,0,0,0,155,94.22Z"/></svg>