<svg id="图层_2" data-name="图层 2" xmlns="http://www.w3.org/2000/svg" viewBox="0 0 200 200"><defs><style>.cls-1{fill:#007aff;}</style></defs><path class="cls-1" d="M33,13.36,167,13.08a7.31,7.31,0,0,1,7.74,7.73v158.1a7.3,7.3,0,0,1-7.74,7.73L33,186.92a7.3,7.3,0,0,1-7.74-7.73V21.09A7.3,7.3,0,0,1,33,13.36Zm6.15,10a3.64,3.64,0,0,0-3.86,3.86V173.06a3.64,3.64,0,0,0,3.86,3.86l121.64-.28a3.65,3.65,0,0,0,3.87-3.86V26.94a3.65,3.65,0,0,0-3.87-3.86Z"/><path class="cls-1" d="M153,35.52a5.41,5.41,0,0,0-3.82-1.58H52.85a5.41,5.41,0,0,0-5.41,5.41v24.2A5.41,5.41,0,0,0,52.85,69h96.28a5.41,5.41,0,0,0,5.41-5.41V39.35A5.4,5.4,0,0,0,153,35.52ZM62.34,57.34a5.89,5.89,0,1,1,5.89-5.89A5.89,5.89,0,0,1,62.34,57.34Zm18.92,0a5.89,5.89,0,1,1,5.89-5.89A5.89,5.89,0,0,1,81.26,57.34Zm60-.9H122.53a5,5,0,1,1,0-10.09h18.74a5,5,0,1,1,0,10.09Z"/><path class="cls-1" d="M153,84.16a5.41,5.41,0,0,0-3.82-1.58H52.85A5.41,5.41,0,0,0,47.44,88v24.2a5.41,5.41,0,0,0,5.41,5.41h96.28a5.41,5.41,0,0,0,5.41-5.41V88A5.4,5.4,0,0,0,153,84.16ZM62.34,106a5.89,5.89,0,1,1,5.89-5.89A5.89,5.89,0,0,1,62.34,106Zm18.92,0a5.89,5.89,0,1,1,5.89-5.89A5.89,5.89,0,0,1,81.26,106Zm60-.85H122.53a5,5,0,1,1,0-10.09h18.74a5,5,0,1,1,0,10.09Z"/><path class="cls-1" d="M152.88,132.55a5,5,0,0,0-3.75-1.33H52.85a5.41,5.41,0,0,0-5.41,5.41v24.2a5.41,5.41,0,0,0,5.41,5.4h96.28a5.41,5.41,0,0,0,5.41-5.4v-24.2A6.1,6.1,0,0,0,152.88,132.55ZM62.34,154.62a5.89,5.89,0,1,1,5.89-5.89A5.89,5.89,0,0,1,62.34,154.62Zm18.92,0a5.89,5.89,0,1,1,5.89-5.89A5.89,5.89,0,0,1,81.26,154.62Zm60-.9H122.53a5,5,0,1,1,0-10.09h18.74a5,5,0,1,1,0,10.09Z"/></svg>