<?xml version="1.0" encoding="utf-8"?>
<!-- Generator: Adobe Illustrator 24.2.1, SVG Export Plug-In . SVG Version: 6.00 Build 0)  -->
<svg version="1.1" id="图层_2" xmlns="http://www.w3.org/2000/svg" xmlns:xlink="http://www.w3.org/1999/xlink" x="0px" y="0px"
	 viewBox="0 0 200 200" enable-background="new 0 0 200 200" xml:space="preserve">
<path fill="#333333" d="M50,118.8c0-3.4-1.2-6.4-3.7-8.8c-2.4-2.4-5.4-3.7-8.8-3.7c-3.5,0-6.4,1.2-8.8,3.7c-2.4,2.4-3.7,5.4-3.7,8.8
	c0,3.4,1.2,6.4,3.7,8.8s5.4,3.7,8.8,3.7s6.4-1.2,8.8-3.7C48.8,125.2,50,122.2,50,118.8z M68.8,75c0-3.4-1.2-6.4-3.7-8.8
	c-2.4-2.4-5.4-3.7-8.8-3.7c-3.4,0-6.4,1.2-8.8,3.7c-2.4,2.4-3.7,5.4-3.7,8.8c0,3.4,1.2,6.4,3.7,8.8s5.4,3.7,8.8,3.7
	c3.4,0,6.4-1.2,8.8-3.7S68.8,78.5,68.8,75z M110.5,122l9.9-37.3c0.4-1.7,0.1-3.3-0.7-4.7s-2.1-2.4-3.8-2.9c-1.6-0.4-3.2-0.2-4.7,0.6
	c-1.5,0.9-2.5,2.2-2.9,3.9l-9.9,37.3c-3.9,0.3-7.4,1.7-10.4,4.3c-3.1,2.5-5.1,5.7-6.2,9.6c-1.3,5-0.6,9.8,2,14.3s6.4,7.4,11.4,8.7
	s9.8,0.6,14.3-2s7.4-6.4,8.7-11.4c1-3.9,0.8-7.7-0.6-11.4C116.1,127.2,113.8,124.2,110.5,122L110.5,122z M175,118.8
	c0-3.4-1.2-6.4-3.7-8.8c-2.4-2.4-5.4-3.7-8.8-3.7c-3.4,0-6.4,1.2-8.8,3.7c-2.4,2.4-3.7,5.4-3.7,8.8s1.2,6.4,3.7,8.8s5.4,3.7,8.8,3.7
	c3.4,0,6.4-1.2,8.8-3.7C173.8,125.2,175,122.2,175,118.8z M112.5,56.3c0-3.4-1.2-6.4-3.7-8.8s-5.4-3.7-8.8-3.7s-6.4,1.2-8.8,3.7
	c-2.4,2.4-3.7,5.4-3.7,8.8c0,3.5,1.2,6.4,3.7,8.8c2.4,2.4,5.4,3.7,8.8,3.7c3.5,0,6.4-1.2,8.8-3.7C111.3,62.7,112.5,59.7,112.5,56.3
	L112.5,56.3z M156.3,75c0-3.4-1.2-6.4-3.7-8.8c-2.4-2.4-5.4-3.7-8.8-3.7c-3.4,0-6.4,1.2-8.8,3.7s-3.7,5.4-3.7,8.8
	c0,3.4,1.2,6.4,3.7,8.8s5.4,3.7,8.8,3.7c3.4,0,6.4-1.2,8.8-3.7S156.3,78.5,156.3,75z M187.5,118.8c0,17-4.6,32.7-13.8,47.2
	c-1.2,1.9-3,2.8-5.3,2.8H31.5c-2.3,0-4-0.9-5.3-2.8c-9.2-14.4-13.8-30.1-13.8-47.2c0-11.9,2.3-23.2,6.9-34s10.8-20.1,18.7-27.9
	s17.1-14,27.9-18.7s22.1-7,34-7s23.2,2.3,34,6.9c10.8,4.6,20.1,10.9,27.9,18.7s14,17.1,18.7,27.9S187.5,106.9,187.5,118.8
	L187.5,118.8z"/>
</svg>
