<?xml version="1.0" encoding="utf-8"?>
<!-- Generator: Adobe Illustrator 22.0.1, SVG Export Plug-In . SVG Version: 6.00 Build 0)  -->
<svg version="1.1" id="_x30_1" xmlns="http://www.w3.org/2000/svg" xmlns:xlink="http://www.w3.org/1999/xlink" x="0px" y="0px"
	 viewBox="0 0 24 24" enable-background="new 0 0 24 24" xml:space="preserve">
<g id="_x30_2">
	<path fill="#0063F5" d="M12,2C9.2,2,7,4.1,7,6.8s2.2,4.7,5,4.7s5-2.1,5-4.8S14.8,2,12,2z"/>
	<path fill="#0063F5" d="M21,20.2c-0.4-3.8-3.3-6.9-7.2-7.6l-1.1,1c0.3,1.5,0.8,3.9,0.8,4.5c0,0.5-1.1,1.9-1.5,1.9s-1.5-1.4-1.5-1.9
		c0-0.7,0.5-3,0.8-4.5l-1.1-1c-3.9,0.8-6.8,3.8-7.2,7.6C3,20.8,3.1,21,3.1,21c0.2,0.6,0.8,1,1.4,1h15.1c0.7,0,1.2-0.4,1.4-1
		C21.1,20.7,21,20.7,21,20.2z"/>
</g>
</svg>
