<?xml version="1.0" encoding="utf-8"?>
<!-- Generator: Adobe Illustrator 24.2.1, SVG Export Plug-In . SVG Version: 6.00 Build 0)  -->
<svg version="1.1" id="图层_2" xmlns="http://www.w3.org/2000/svg" xmlns:xlink="http://www.w3.org/1999/xlink" x="0px" y="0px"
	 viewBox="0 0 200 200" enable-background="new 0 0 200 200" xml:space="preserve">
<g>
	<path fill="#333333" d="M66.7,180H43.3c-13.8,0-24.9-11-24.9-24.6V130c0-4,3.3-7.3,7.3-7.3c4,0,7.3,3.3,7.3,7.3v25.4
		c0,5.5,4.7,10,10.4,10h23.3c4,0,7.3,3.3,7.3,7.3C73.9,176.7,70.7,180,66.7,180L66.7,180z M156.7,180h-25.2c-4,0-7.3-3.3-7.3-7.3
		s3.3-7.3,7.3-7.3h25.2c5.7,0,10.4-4.5,10.4-10V130c0-4,3.3-7.3,7.3-7.3c4,0,7.3,3.3,7.3,7.3v25.4C181.6,169,170.4,180,156.7,180
		L156.7,180z M174.3,73.3c-4,0-7.3-3.3-7.3-7.3V44.6c0-5.5-4.7-10-10.4-10h-25.4c-4,0-7.3-3.3-7.3-7.3s3.3-7.3,7.3-7.3h25.4
		c13.8,0,24.9,11,24.9,24.6v21.5C181.6,70.1,178.3,73.3,174.3,73.3L174.3,73.3z M25.7,73.6c-4,0-7.3-3.3-7.3-7.3V44.6
		C18.4,31,29.6,20,43.4,20h23.3c4,0,7.3,3.3,7.3,7.3s-3.3,7.3-7.3,7.3H43.3c-5.7,0-10.4,4.5-10.4,10v21.8
		C33,70.3,29.7,73.6,25.7,73.6L25.7,73.6z M108.7,157.1c-4,0-7.3-3.2-7.3-7.3c0-1.6,0.5-3.2,1.5-4.5c13.9-17.8,13.3-47.4,13.3-47.7
		v-0.2c0-8.1-8.3-15.7-17-15.7c-8.6,0-15.6,6.8-15.6,15.1V97c0,1.2-1.1,30.5-18.2,44.7c-3.1,2.6-7.7,2.1-10.2-1c0,0,0,0,0,0
		c-2.6-3.1-2.1-7.7,1-10.2c0,0,0,0,0,0c9.9-8.2,12.7-27.1,12.9-33.8c0.1-16.3,13.6-29.5,30.1-29.5c16.8,0,31.5,14.1,31.6,30.2
		c0.1,2.5,0.5,35.3-16.4,57C113,156,110.9,157.1,108.7,157.1z"/>
	<path fill="#333333" d="M82.7,157.1c-1.7,0-3.5-0.6-4.9-1.9c-3-2.7-3.2-7.3-0.5-10.3c0,0,0,0,0,0c18.2-20.3,16.3-41.4,16.2-42.3
		c-0.4-4,2.5-7.6,6.4-8c4-0.4,7.6,2.4,8,6.4c0.1,1.1,3,28.4-19.8,53.7C86.7,156.2,84.7,157.1,82.7,157.1z"/>
	<path fill="#333333" d="M145.2,128.1c-4,0-7.3-3.2-7.3-7.2c0-0.5,0-0.9,0.1-1.4c1.7-9,1.6-18.9,1.6-19v-1.4
		c0-21.7-18.1-39.4-40.4-39.4S58.8,77.4,58.8,99.2c0,4-3.3,7.3-7.3,7.3s-7.3-3.3-7.3-7.3c0-29.7,24.6-53.9,54.9-53.9
		s54.9,24.2,54.9,53.9v1.2c0,1.1,0.1,11.7-1.8,21.9C151.7,125.7,148.6,128.1,145.2,128.1z"/>
</g>
</svg>
