<?xml version="1.0" encoding="utf-8"?>
<!-- Generator: Adobe Illustrator 24.2.1, SVG Export Plug-In . SVG Version: 6.00 Build 0)  -->
<svg version="1.1" id="图层_2" xmlns="http://www.w3.org/2000/svg" xmlns:xlink="http://www.w3.org/1999/xlink" x="0px" y="0px"
	 viewBox="0 0 200 200" enable-background="new 0 0 200 200" xml:space="preserve">
<path fill="#333333" d="M111.1,100l66.6-66.6c3.1-3.1,3.1-8,0-11.1c-3.1-3.1-8-3.1-11.1,0L100,88.9L33.4,22.3c-3.1-3.1-8-3.1-11.1,0
	c-3.1,3.1-3.1,8,0,11.1L88.9,100l-66.6,66.6c-3.1,3.1-3.1,8,0,11.1c1.5,1.5,3.5,2.3,5.5,2.3s4-0.8,5.5-2.3l66.6-66.6l66.6,66.6
	c1.5,1.5,3.5,2.3,5.5,2.3s4-0.8,5.5-2.3c3.1-3.1,3.1-8,0-11.1L111.1,100z"/>
</svg>
