<?xml version="1.0" encoding="utf-8"?>
<!-- Generator: Adobe Illustrator 24.2.1, SVG Export Plug-In . SVG Version: 6.00 Build 0)  -->
<svg version="1.1" id="图层_2" xmlns="http://www.w3.org/2000/svg" xmlns:xlink="http://www.w3.org/1999/xlink" x="0px" y="0px"
	 viewBox="0 0 200 200" enable-background="new 0 0 200 200" xml:space="preserve">
<g>
	<path fill="#333333" d="M172,94h-12V73c0-5.5-4.5-10-10-10h-28c-5.5,0-10,4.5-10,10v21H86V50c0-5.5-4.5-10-10-10H48
		c-5.5,0-10,4.5-10,10v44H28c-3.3,0-6,2.7-6,6s2.7,6,6,6h10v44c0,5.5,4.5,10,10,10h28c5.5,0,10-4.5,10-10v-44h26v21
		c0,5.5,4.5,10,10,10h28c5.5,0,10-4.5,10-10v-21h12c3.3,0,6-2.7,6-6S175.3,94,172,94z"/>
</g>
</svg>
