<?xml version="1.0" encoding="utf-8"?>
<!-- Generator: Adobe Illustrator 24.2.1, SVG Export Plug-In . SVG Version: 6.00 Build 0)  -->
<svg version="1.1" id="图层_2" xmlns="http://www.w3.org/2000/svg" xmlns:xlink="http://www.w3.org/1999/xlink" x="0px" y="0px"
	 viewBox="0 0 200 200" enable-background="new 0 0 200 200" xml:space="preserve">
<path fill="#333333" d="M36.5,21.9h39.1c8.1,0,14.6,6.6,14.6,14.6v39.1c0,8.1-6.6,14.6-14.6,14.6H36.5c-8.1,0-14.6-6.6-14.6-14.6
	V36.5C21.9,28.4,28.4,21.9,36.5,21.9z M129.3,21.9h29.3c10.8,0,19.5,8.7,19.5,19.5v29.3c0,10.8-8.7,19.5-19.5,19.5h-29.3
	c-10.8,0-19.5-8.7-19.5-19.5V41.4C109.8,30.6,118.5,21.9,129.3,21.9z M129.3,109.8h29.3c10.8,0,19.5,8.7,19.5,19.5v29.3
	c0,10.8-8.7,19.5-19.5,19.5h-29.3c-10.8,0-19.5-8.7-19.5-19.5v-29.3C109.8,118.5,118.5,109.8,129.3,109.8z M41.4,109.8h29.3
	c10.8,0,19.5,8.7,19.5,19.5v29.3c0,10.8-8.7,19.5-19.5,19.5H41.4c-10.8,0-19.5-8.7-19.5-19.5v-29.3
	C21.9,118.5,30.6,109.8,41.4,109.8z"/>
</svg>
