<?xml version="1.0" encoding="utf-8"?>
<!-- Generator: Adobe Illustrator 22.0.1, SVG Export Plug-In . SVG Version: 6.00 Build 0)  -->
<svg version="1.1" id="图层_1" xmlns="http://www.w3.org/2000/svg" xmlns:xlink="http://www.w3.org/1999/xlink" x="0px" y="0px"
	 viewBox="0 0 200 200" enable-background="new 0 0 200 200" xml:space="preserve">
<g id="图层_1_1_">
	<g>
		<g>
			<g>
				<path fill="#6883D8" d="M182.5,117.1c0,0,0-16.4-15.9-18.2c-6,13.3-17.2,27.6-33.4,42.9L133,142l-19,17.2l-1.5,0.8
					c-2.3,1.1-6.9,3-12.4,3c-3.5,0-10,0-15.3-5.1L67,141.8c-16.2-15.3-27.4-29.7-33.4-42.9c-16.1,1.7-16.1,18.2-16.1,18.2
					s0,0-9.2,55c0,9.2,9.2,18.3,18.3,18.3c36.7,0,110,0,146.7,0c9.2,0,18.3-9.2,18.3-18.3C182.5,117.1,182.5,117.1,182.5,117.1z"/>
			</g>
		</g>
		<path fill="#6883D8" d="M100,9.5c-33,0-59.3,26.3-59.3,59.3c0,19.5,19.5,41.5,34.7,55.9l17.8,16.1c1.7,1.7,4.2,1.7,6.8,1.7
			s5.1-0.8,6.8-1.7l17.8-16.1c15.2-14.4,34.7-36.4,34.7-55.9C159.3,35.8,133,9.5,100,9.5z M99.9,90.9c-12.5,0-22-9.5-22-22
			s9.5-22,22-22s22,9.5,22,22C121.9,81.3,112.4,90.9,99.9,90.9z"/>
	</g>
</g>
</svg>
