<?xml version="1.0" encoding="utf-8"?>
<!-- Generator: Adobe Illustrator 24.2.1, SVG Export Plug-In . SVG Version: 6.00 Build 0)  -->
<svg version="1.1" id="图层_2" xmlns="http://www.w3.org/2000/svg" xmlns:xlink="http://www.w3.org/1999/xlink" x="0px" y="0px"
	 viewBox="0 0 200 200" enable-background="new 0 0 200 200" xml:space="preserve">
<g>
	<path fill="#333333" d="M28.2,51.7h143.6c4.5,0,8.2-3.6,8.2-8c0-4.4-3.7-8-8.2-8H28.2c-4.5,0-8.2,3.6-8.2,8S23.7,51.7,28.2,51.7z
		 M171.8,91.7H28.2c-4.5,0-8.2,3.6-8.2,8c0,4.4,3.7,8,8.2,8h143.6c4.5,0,8.2-3.6,8.2-8C180,95.3,176.3,91.7,171.8,91.7L171.8,91.7z
		 M171.8,148.3H28.2c-4.5,0-8.2,3.6-8.2,8c0,4.4,3.7,8,8.2,8h143.6c4.5,0,8.2-3.6,8.2-8C180,151.9,176.3,148.3,171.8,148.3
		L171.8,148.3z"/>
</g>
</svg>
