<svg id="图层_2" data-name="图层 2" xmlns="http://www.w3.org/2000/svg" viewBox="0 0 200 200"><defs><style>.cls-1{fill:#007aff;}</style></defs><path class="cls-1" d="M60.23,140H51.55a4.34,4.34,0,0,1,0-8.67h8.68a4.34,4.34,0,1,1,0,8.67Z"/><path class="cls-1" d="M123.57,140H107.73a4.34,4.34,0,0,1,0-8.67h15.84a4.34,4.34,0,1,1,0,8.67ZM91.9,140H76.07a4.34,4.34,0,1,1,0-8.67H91.9a4.34,4.34,0,1,1,0,8.67Z"/><path class="cls-1" d="M148.07,140h-8.68a4.34,4.34,0,1,1,0-8.67h8.68a4.34,4.34,0,1,1,0,8.67Z"/><path class="cls-1" d="M124.61,117.79c-15,0-24.23-14.93-32.47-28.18-4.68-7.53-10.51-16.91-14.9-18.13C66.33,68.54,58.92,87.78,58.85,88a6.78,6.78,0,0,1-12.76-4.59c4.15-11.57,16.15-29.85,34.71-25,9.57,2.68,16,13.07,22.86,24.06,6.54,10.51,14.5,22.3,21.44,21.79,13.08-1.73,16.63-20.15,16.66-20.33a6.69,6.69,0,0,1,7.9-5.46,6.78,6.78,0,0,1,5.47,7.85c-.21,1.16-5.31,28.36-28.58,31.42C125.9,117.76,125.26,117.79,124.61,117.79Z"/><path class="cls-1" d="M92.63,186.85l-67.1-37a15,15,0,0,1-7.78-13.1V63.26a15,15,0,0,1,7.78-13.1l67.1-37a15.31,15.31,0,0,1,14.74,0l67.1,37a15,15,0,0,1,7.78,13.1v73.48a15,15,0,0,1-7.78,13.1l-67.1,37a15.31,15.31,0,0,1-14.74,0ZM99,175.48a2.13,2.13,0,0,0,2.1,0l67.1-36.93a2.15,2.15,0,0,0,1.11-1.87V63.32a2.15,2.15,0,0,0-1.11-1.87l-67.1-36.93a2.13,2.13,0,0,0-2.1,0L31.85,61.45a2.15,2.15,0,0,0-1.11,1.87v73.36a2.15,2.15,0,0,0,1.11,1.87L99,175.48Z"/></svg>