<?xml version="1.0" encoding="utf-8"?>
<!-- Generator: Adobe Illustrator 22.0.1, SVG Export Plug-In . SVG Version: 6.00 Build 0)  -->
<svg version="1.1" id="图层_1" xmlns="http://www.w3.org/2000/svg" xmlns:xlink="http://www.w3.org/1999/xlink" x="0px" y="0px"
	 viewBox="0 0 200 200" enable-background="new 0 0 200 200" xml:space="preserve">
<g>
	<path fill="#161616" d="M81.3,116c2.2,0.2,4.4-0.4,6.1-1.8c3.6-2.9,4.1-8.1,1.2-11.6c-5.7-7-5.8-17.2-0.3-24.2l30-38.3
		c3.2-4.1,7.8-6.7,12.9-7.3c5.1-0.6,10.1,0.8,14.2,4l3.4,2.7c8.4,6.5,9.9,18.7,3.3,27.1l-30,38.3c-2.8,3.6-2.2,8.8,1.4,11.6
		c1.4,1.2,3.3,1.8,5.1,1.8c2.6,0,4.9-1.2,6.4-3.2l30-38.3c12.2-15.5,9.4-38.1-6.1-50.3l-3.4-2.7c-15.5-12.2-38.1-9.5-50.3,6.1
		l-30,38.3c-5.1,6.4-7.7,14.5-7.6,22.7c0.2,8.1,3,15.9,8.1,22.1C77.1,114.7,79.1,115.8,81.3,116z"/>
	<path fill="#161616" d="M119.1,98.7c-0.4-8.5-3.7-16.5-9.4-22.7c-3.1-3.4-8.3-3.6-11.7-0.5s-3.6,8.3-0.5,11.7
		c6.3,6.9,6.8,17.6,1,25l-30,38.3c-3.7,4.7-9.2,7.4-15.2,7.4c-4.4,0-8.5-1.4-11.9-4.1l-3.4-2.7c-4-3.2-6.6-7.8-7.2-12.9
		c-0.7-5.1,0.7-10.2,3.9-14.2l30-38.3c2.8-3.6,2.2-8.8-1.4-11.6c-3.6-2.8-8.8-2.2-11.6,1.4l-30,38.3c-5.9,7.5-8.5,16.9-7.3,26.4
		c1.2,9.5,6,18,13.5,23.9l3.4,2.7c6.4,5,14,7.6,22.1,7.6c11.1,0,21.4-5,28.2-13.7l29.9-38.3C116.8,115.7,119.5,107.3,119.1,98.7z"/>
	<path fill="#161616" d="M145.5,124.8c-18.1,0-32.8,14.7-32.8,32.8s14.7,32.8,32.8,32.8s32.8-14.7,32.8-32.8
		S163.6,124.8,145.5,124.8z M165.3,157.6c0,3.5-0.9,6.7-2.5,9.5L136,140.2c2.8-1.5,6.1-2.4,9.5-2.4
		C156.4,137.8,165.3,146.7,165.3,157.6z M125.7,157.6c0-2.7,0.6-5.3,1.6-7.7l25.9,26c-2.4,1-5,1.5-7.7,1.5
		C134.6,177.4,125.7,168.5,125.7,157.6z"/>
</g>
</svg>
