<?xml version="1.0" encoding="utf-8"?>
<!-- Generator: Adobe Illustrator 24.2.1, SVG Export Plug-In . SVG Version: 6.00 Build 0)  -->
<svg version="1.1" id="图层_2" xmlns="http://www.w3.org/2000/svg" xmlns:xlink="http://www.w3.org/1999/xlink" x="0px" y="0px"
	 viewBox="0 0 200 200" enable-background="new 0 0 200 200" xml:space="preserve">
<g>
	<path fill="#333333" d="M172.1,17.5H27.9c-8,0-14.4,6.5-14.4,14.4v101.5c0,8,6.5,14.4,14.4,14.4h61.7v13.4h-23c-5.5,0-10,4.5-10,10
		c0,5.5,4.5,10,10,10h33h0h33.9c5.5,0,10-4.5,10-10c0-5.5-4.5-10-10-10h-23.9v-13.4h62.5c8,0,14.4-6.5,14.4-14.4V31.9
		C186.5,24,180.1,17.5,172.1,17.5z M162.3,83.2c0,4.5-3.7,8.2-8.2,8.2H45.9c-4.5,0-8.2-3.7-8.2-8.2V59.2c0-4.5,3.7-8.2,8.2-8.2
		h108.1c4.5,0,8.2,3.7,8.2,8.2V83.2z"/>
	<rect x="51.3" y="67.2" fill="#333333" width="10.5" height="8.1"/>
	<rect x="71.6" y="67.2" fill="#333333" width="10.5" height="8.1"/>
	<rect x="91.8" y="67.2" fill="#333333" width="10.5" height="8.1"/>
	<path fill="#333333" d="M145.5,65.1h-21.2c-1.8,0-3.2,1.5-3.2,3.2V74c0,1.8,1.5,3.2,3.2,3.2h21.2c1.8,0,3.2-1.5,3.2-3.2v-5.7
		C148.7,66.6,147.3,65.1,145.5,65.1z"/>
</g>
</svg>
