<?xml version="1.0" encoding="utf-8"?>
<!-- Generator: Adobe Illustrator 24.2.1, SVG Export Plug-In . SVG Version: 6.00 Build 0)  -->
<svg version="1.1" id="图层_2" xmlns="http://www.w3.org/2000/svg" xmlns:xlink="http://www.w3.org/1999/xlink" x="0px" y="0px"
	 viewBox="0 0 200 200" enable-background="new 0 0 200 200" xml:space="preserve">
<g>
	<g>
		<path fill="#333333" d="M171.5,178L171.5,178c-3.3,0-6-2.7-6-6V28c0-3.3,2.7-6,6-6l0,0c3.3,0,6,2.7,6,6v144
			C177.5,175.3,174.8,178,171.5,178z"/>
	</g>
	<g>
		<path fill="#333333" d="M132.5,88h-54c-5.5,0-10-4.5-10-10V50c0-5.5,4.5-10,10-10h54c5.5,0,10,4.5,10,10v28
			C142.5,83.5,138,88,132.5,88z"/>
	</g>
	<g>
		<path fill="#333333" d="M132.5,162h-100c-5.5,0-10-4.5-10-10v-28c0-5.5,4.5-10,10-10h100c5.5,0,10,4.5,10,10v28
			C142.5,157.5,138,162,132.5,162z"/>
	</g>
</g>
</svg>
