<?xml version="1.0" encoding="utf-8"?>
<!-- Generator: Adobe Illustrator 24.2.1, SVG Export Plug-In . SVG Version: 6.00 Build 0)  -->
<svg version="1.1" id="图层_2" xmlns="http://www.w3.org/2000/svg" xmlns:xlink="http://www.w3.org/1999/xlink" x="0px" y="0px"
	 viewBox="0 0 200 200" enable-background="new 0 0 200 200" xml:space="preserve">
<g>
	<path fill="#333333" d="M124.4,32.6H75.6c-5.5,0-10-4.5-10-10V20c0-5.5,4.5-10,10-10h48.8c5.5,0,10,4.5,10,10v2.6
		C134.4,28.1,129.9,32.6,124.4,32.6z"/>
	<path fill="#333333" d="M162,24.8h-18.5v5.9c0,7.6-6.2,13.8-13.8,13.8h-62c-7.6,0-13.8-6.2-13.8-13.8v-5.9H38
		c-7.6,0-13.8,6.2-13.8,13.8v137.7c0,7.6,6.2,13.8,13.8,13.8H162c7.6,0,13.8-6.2,13.8-13.8V38.5C175.7,30.9,169.6,24.8,162,24.8z
		 M69.5,88c1.5-1.5,3.7-2.5,6-2.5c2.3,0,4.5,1,6,2.6l12.5,13.2L123,71.6c1.5-1.6,3.7-2.5,5.9-2.5c2.3,0,4.5,1,6,2.6
		c3.2,3.3,3.1,8.6-0.1,11.9l0,0l-35.1,35.9c-1.5,1.6-3.7,2.5-5.9,2.5c-2.3,0-4.5-1-6-2.6L69.4,99.9C66.2,96.5,66.3,91.3,69.5,88z
		 M142.6,158.4c0,4.4-3.5,7.9-7.9,7.9H67.4c-4.4,0-7.9-3.5-7.9-7.9v0c0-4.4,3.5-7.9,7.9-7.9h67.3C139.1,150.5,142.6,154,142.6,158.4
		L142.6,158.4z"/>
</g>
</svg>
