<?xml version="1.0" encoding="utf-8"?>
<!-- Generator: Adobe Illustrator 24.2.1, SVG Export Plug-In . SVG Version: 6.00 Build 0)  -->
<svg version="1.1" id="图层_2" xmlns="http://www.w3.org/2000/svg" xmlns:xlink="http://www.w3.org/1999/xlink" x="0px" y="0px"
	 viewBox="0 0 200 200" enable-background="new 0 0 200 200" xml:space="preserve">
<g>
	<rect x="70.9" y="69.5" fill="#333333" width="18.2" height="14.5"/>
	<path fill="#333333" d="M125.5,78.2c-4.4,0-7.3-2.9-7.3-7.3V20H45.5c-10.2,0-18.2,8-18.2,18.2v123.6c0,10.2,8,18.2,18.2,18.2h109.1
		c10.2,0,18.2-8,18.2-18.2V78.2H125.5z M56.4,62.2c0-4.4,2.9-7.3,7.3-7.3h32.7c4.4,0,7.3,2.9,7.3,7.3v29.1c0,4.4-2.9,7.3-7.3,7.3
		H63.6c-4.4,0-7.3-2.9-7.3-7.3V62.2z M100,149.5H63.6c-4.4,0-7.3-2.9-7.3-7.3s2.9-7.3,7.3-7.3H100c4.4,0,7.3,2.9,7.3,7.3
		S104.4,149.5,100,149.5z M136.4,124H63.6c-4.4,0-7.3-2.9-7.3-7.3c0-4.4,2.9-7.3,7.3-7.3h72.7c4.4,0,7.3,3.6,7.3,7.3
		C143.6,121.1,140.7,124,136.4,124z"/>
	<polygon fill="#333333" points="132.7,24.4 132.7,63.6 168.4,63.6 	"/>
</g>
</svg>
