<svg id="图层_1" data-name="图层 1" xmlns="http://www.w3.org/2000/svg" viewBox="0 0 200 200"><defs><style>.cls-1,.cls-2{fill:#515151;}.cls-2{stroke:#515151;stroke-miterlimit:10;stroke-width:1.4px;}</style></defs><path class="cls-1" d="M99.49,176a75,75,0,1,0-75-75,75,75,0,0,0,75,75Zm0,15a90,90,0,1,1,90-90A90,90,0,0,1,99.49,191Z"/><path class="cls-2" d="M99.49,91.77,67.13,59.4a6.51,6.51,0,0,0-9.21,0h0a6.49,6.49,0,0,0-.06,9.18l0,0L90.25,101,57.88,133.36a6.52,6.52,0,0,0,0,9.21h0a6.49,6.49,0,0,0,9.18.06l0,0,32.37-32.36,32.36,32.36a6.51,6.51,0,0,0,9.21,0h0a6.5,6.5,0,0,0,.06-9.18l0,0L108.72,101l32.37-32.35a6.52,6.52,0,0,0,0-9.21h0a6.49,6.49,0,0,0-9.19-.06l0,0Z"/></svg>