<?xml version="1.0" encoding="utf-8"?>
<!-- Generator: Adobe Illustrator 24.2.1, SVG Export Plug-In . SVG Version: 6.00 Build 0)  -->
<svg version="1.1" id="图层_2" xmlns="http://www.w3.org/2000/svg" xmlns:xlink="http://www.w3.org/1999/xlink" x="0px" y="0px"
	 viewBox="0 0 200 200" enable-background="new 0 0 200 200" xml:space="preserve">
<g>
	<path fill="#333333" d="M59,128.1c-24.6-5.8-43.1-30.7-43.1-60.6c0-34.1,24.2-61.8,54.1-61.8S124,33.4,124,67.5
		c0,29.9-18.5,54.8-43.1,60.6l4.5,9h-14c-2.3,8.1-1.7,13.5,1.3,16.6c7.3,7.3,3.8,16.2-8.1,25.1c-1.7,1.3-4.1,0.9-5.4-0.8
		c-1.3-1.7-0.9-4.1,0.8-5.4c8.7-6.5,10.3-10.5,7.3-13.5c-5-5-6.2-12.4-3.8-22.1h-8.9L59,128.1L59,128.1z M113.1,128.2
		c16.1-14.2,26.4-36,26.4-60.6c0-10.8-2-21.2-5.6-30.5c1.9-0.2,3.8-0.4,5.6-0.4c25.6,0,46.4,22.5,46.4,50.2
		c0,23.7-15.1,43.5-35.5,48.8l4.6,9.1h-13.5c0,2,0.5,4,1.5,6c3.6,7.3,0.1,14.3-9,20.4c-1.7,1.2-4.2,0.8-5.4-0.9
		c-1.2-1.7-0.8-4.2,0.9-5.4c0.1,0,0.1-0.1,0.2-0.1c6.3-4.2,7.9-7.5,6.4-10.5c-1.5-2.9-2.3-6.2-2.3-9.5H124l4.6-9.1
		C123,134.2,117.7,131.7,113.1,128.2L113.1,128.2z"/>
</g>
</svg>
