<?xml version="1.0" encoding="utf-8"?>
<!-- Generator: Adobe Illustrator 24.2.1, SVG Export Plug-In . SVG Version: 6.00 Build 0)  -->
<svg version="1.1" id="图层_2" xmlns="http://www.w3.org/2000/svg" xmlns:xlink="http://www.w3.org/1999/xlink" x="0px" y="0px"
	 viewBox="0 0 200 200" enable-background="new 0 0 200 200" xml:space="preserve">
<path fill="#333333" d="M110.6,160.8v16.7H94v-16.7H110.6z M35.6,37.3c2.7,0,5.3,1.3,6.8,3.6l39.8,56.9c2,2.9,2,6.7,0,9.5
	l-39.8,56.9c-2.6,3.8-7.8,4.7-11.6,2c-2.2-1.6-3.5-4.1-3.6-6.8V45.6C27.3,41,31,37.3,35.6,37.3L35.6,37.3z M169,37.3
	c4.2,0,7.8,3.2,8.3,7.4l0.1,1v113.8c0,4.6-3.7,8.3-8.3,8.3c-2.3,0-4.6-1-6.2-2.7l-0.7-0.8l-39.8-56.9c-1.8-2.5-2-5.8-0.6-8.6l0.6-1
	l39.8-56.9C163.7,38.6,166.3,37.3,169,37.3L169,37.3z M110.6,127.5v16.7H94v-16.7H110.6z M40.6,64.8v77.7l27.3-40L40.6,64.8
	L40.6,64.8z M110.6,94.2v16.7H94V94.2H110.6z M110.6,60.8v16.7H94V60.8C94,60.8,110.6,60.8,110.6,60.8z M110.6,27.5v16.7H94V27.5
	L110.6,27.5z"/>
</svg>
