<?xml version="1.0" encoding="utf-8"?>
<!-- Generator: Adobe Illustrator 24.2.1, SVG Export Plug-In . SVG Version: 6.00 Build 0)  -->
<svg version="1.1" id="图层_2" xmlns="http://www.w3.org/2000/svg" xmlns:xlink="http://www.w3.org/1999/xlink" x="0px" y="0px"
	 viewBox="0 0 200 200" enable-background="new 0 0 200 200" xml:space="preserve">
<g>
	<path fill="#333333" d="M54.7,172.6c1.4-23,26.3-23.3,26.3-23.3c0.4-20.4,18.6-34,37.9-34c15.3,0,28.5,9.2,34.3,22.4v-114
		c0-7.7-6.6-14.3-14.3-14.3H40.8c-7.7,0-14.3,6.1-14.3,14.3v152.6c0,7.7,6.1,14.3,14.3,14.3l24.6,0
		C58.3,187.1,54.7,180.4,54.7,172.6z M52,26.8h75.6c5.4,0,9.7,4.3,9.7,9.7c0,5.4-4.3,9.7-9.7,9.7H52c-5.4,0-9.7-4.3-9.7-9.7
		C42.3,31.2,46.7,26.8,52,26.8z M42.3,72.3c0-5.4,4.3-9.7,9.7-9.7h75.6c5.4,0,9.7,4.3,9.7,9.7c0,5.4-4.3,9.7-9.7,9.7H52
		C46.7,82,42.3,77.7,42.3,72.3z"/>
	<path fill="#333333" d="M173.5,174.1c0-8.9-8.1-16.2-18.2-16.5v0h-5.9c-0.4-16.3-13.8-29.5-30.3-29.5s-30,13.1-30.3,29.5h-3.4v0
		c-10.1,0.3-18.2,7.5-18.2,16.5s8.1,16.2,18.2,16.5v0h70v0C165.4,190.3,173.5,183,173.5,174.1z"/>
</g>
</svg>
