<?xml version="1.0" encoding="utf-8"?>
<!-- Generator: Adobe Illustrator 22.0.1, SVG Export Plug-In . SVG Version: 6.00 Build 0)  -->
<svg version="1.1" id="图层_1" xmlns="http://www.w3.org/2000/svg" xmlns:xlink="http://www.w3.org/1999/xlink" x="0px" y="0px"
	 viewBox="0 0 200 200" enable-background="new 0 0 200 200" xml:space="preserve">
<g id="图层_1_1_">
	<g>
		<path fill="#6883D8" d="M165.2,17H34.8c-3.9,0-7.4,2.7-8.3,6.5c-2.3,9.8-6.4,27.7-6.4,33.4c0,8,8,16,24,16
			c9.9,0,16.7-9.1,20.4-16.1c1.5-2.8,5.6-3,7.3-0.2C76.2,63.6,85,73,99.9,73s23.7-9.3,28.1-16.4c1.7-2.7,5.8-2.6,7.3,0.2
			c3.8,7,10.6,16.1,20.4,16.1c16,0,23.9-8,23.9-16c0-5.7-4.1-23.6-6.4-33.4C172.5,19.7,169.1,17,165.2,17z"/>
		<path fill="#6883D8" d="M170.4,85.1c-4,1.5-8.8,2.4-14.5,2.4c-9.4,0-16.3-6.1-21.1-12.5c-1.6-2.2-4.8-2.4-6.6-0.4
			c-6.2,6.9-15.5,12.9-28.2,12.9s-22-6-28.2-12.9c-1.8-2-5-1.8-6.6,0.4c-4.7,6.5-11.7,12.5-21.1,12.5c-5.7,0-10.6-0.9-14.5-2.4
			c-0.7-0.3-1.4,0.3-1.4,1V170c0,8.8,7.2,16,16,16H156c8.8,0,16-7.2,16-16V86.1C171.8,85.4,171.1,84.9,170.4,85.1z M145.1,156.1
			H54.9c-4,0-7.3-3.3-7.3-7.3s3.3-7.3,7.3-7.3h90.3c4,0,7.3,3.3,7.3,7.3C152.4,152.9,149.2,156.1,145.1,156.1z M145.1,122.7H54.9
			c-4,0-7.3-3.3-7.3-7.3s3.3-7.3,7.3-7.3h90.3c4,0,7.3,3.3,7.3,7.3C152.4,119.4,149.2,122.7,145.1,122.7z"/>
	</g>
</g>
</svg>
