<?xml version="1.0" encoding="utf-8"?>
<!-- Generator: Adobe Illustrator 22.0.1, SVG Export Plug-In . SVG Version: 6.00 Build 0)  -->
<svg version="1.1" id="图层_1" xmlns="http://www.w3.org/2000/svg" xmlns:xlink="http://www.w3.org/1999/xlink" x="0px" y="0px"
	 viewBox="0 0 200 200" enable-background="new 0 0 200 200" xml:space="preserve">
<g>
	<path fill="#6883D8" d="M121.4,38.7H78.6c-5.5,0-10-4.5-10-10v-0.6c0-5.5,4.5-10,10-10h42.7c5.5,0,10,4.5,10,10v0.6
		C131.3,34.2,126.9,38.7,121.4,38.7z"/>
	<path fill="#6883D8" d="M156.3,31.5h-16.9v5.4c0,6.9-5.6,12.5-12.5,12.5H70.6c-6.9,0-12.5-5.6-12.5-12.5v-5.4H43.5
		C36.6,31.5,31,37.1,31,44v125.5c0,6.9,5.6,12.5,12.5,12.5h112.9c6.9,0,12.5-5.6,12.5-12.5V44.1C168.9,37.2,163.3,31.5,156.3,31.5z
		 M59.7,157.4c-4.4,0-8-3.6-8-8s3.6-8,8-8s8,3.6,8,8S64.1,157.4,59.7,157.4z M59.7,121.3c-4.4,0-8-3.6-8-8s3.6-8,8-8s8,3.6,8,8
		S64.1,121.3,59.7,121.3z M59.7,85.2c-4.4,0-8-3.6-8-8s3.6-8,8-8s8,3.6,8,8S64.1,85.2,59.7,85.2z M146.3,148.8c0,3.9-3.1,7-7,7H88.6
		c-3.9,0-7-3.1-7-7v-1c0-3.9,3.1-7,7-7h50.6c3.9,0,7,3.1,7,7L146.3,148.8L146.3,148.8z M146.3,113.8c0,3.9-3.1,7-7,7H88.6
		c-3.9,0-7-3.1-7-7v-1c0-3.9,3.1-7,7-7h50.6c3.9,0,7,3.1,7,7L146.3,113.8L146.3,113.8z M146.3,77.7c0,3.9-3.1,7-7,7H88.6
		c-3.9,0-7-3.1-7-7v-1c0-3.9,3.1-7,7-7h50.6c3.9,0,7,3.1,7,7L146.3,77.7L146.3,77.7z"/>
</g>
<g id="图层_1_1_">
</g>
</svg>
