<?xml version="1.0" encoding="utf-8"?>
<!-- Generator: Adobe Illustrator 24.2.1, SVG Export Plug-In . SVG Version: 6.00 Build 0)  -->
<svg version="1.1" id="图层_2" xmlns="http://www.w3.org/2000/svg" xmlns:xlink="http://www.w3.org/1999/xlink" x="0px" y="0px"
	 viewBox="0 0 200 200" enable-background="new 0 0 200 200" xml:space="preserve">
<g>
	<g>
		<path fill="#333333" d="M151,63h-8V28c0-3.3-2.7-6-6-6s-6,2.7-6,6v35h-8c-5.5,0-10,4.5-10,10v54c0,5.5,4.5,10,10,10h8v35
			c0,3.3,2.7,6,6,6s6-2.7,6-6v-35h8c5.5,0,10-4.5,10-10V73C161,67.5,156.5,63,151,63z"/>
	</g>
	<g>
		<path fill="#333333" d="M77,40h-8V28c0-3.3-2.7-6-6-6s-6,2.7-6,6v12h-8c-5.5,0-10,4.5-10,10v100c0,5.5,4.5,10,10,10h8v12
			c0,3.3,2.7,6,6,6s6-2.7,6-6v-12h8c5.5,0,10-4.5,10-10V50C87,44.5,82.5,40,77,40z"/>
	</g>
</g>
</svg>
