<?xml version="1.0" encoding="utf-8"?>
<!-- Generator: Adobe Illustrator 24.2.1, SVG Export Plug-In . SVG Version: 6.00 Build 0)  -->
<svg version="1.1" id="图层_2" xmlns="http://www.w3.org/2000/svg" xmlns:xlink="http://www.w3.org/1999/xlink" x="0px" y="0px"
	 viewBox="0 0 200 200" enable-background="new 0 0 200 200" xml:space="preserve">
<g>
	<path fill="#333333" d="M156.9,18.1c-16,0-29.2,12.8-29.2,28.5c0,27,29.2,51.1,29.2,51.1s29.2-25.1,29.2-51.1
		C185.9,30.9,172.9,18.1,156.9,18.1z M156.9,63.3c-8.8,0-16-7.4-16-16c0-8.8,7.1-16,16-16c8.8,0,16,7.1,16,16S165.8,63.3,156.9,63.3
		z"/>
	<path fill="#333333" d="M54.6,67.9c-22.3,0-40.8,17.8-40.8,39.8c0,37.7,40.8,71.3,40.8,71.3s40.8-35,40.8-71.3
		C95.1,85.7,76.9,67.9,54.6,67.9z M54.6,130.9c-12.3,0-22.3-10.3-22.3-22.3c0-12.3,9.9-22.3,22.3-22.3s22.3,9.9,22.3,22.3
		S67,130.9,54.6,130.9z"/>
	<path fill="#333333" d="M148.4,103.7c-12.6,1.9-35.8,12-34,36.2c0.1,1.7,0.8,3.4,1.8,4.8c0,0,2.8,4,1.4,7.2
		c-0.9,2.2-6.2,9.5-35.2,12.4c-4.9,0.5-8.4,4.8-7.9,9.6c0.4,4.6,4.3,8,8.8,8c0.3,0,0.6,0,0.9,0c28-2.8,44.3-10.3,49.7-23
		c3.7-8.5,1.1-17.1-1.9-22.3c0.8-12.3,18.3-15.3,19.1-15.5c4.8-0.8,8.1-5.3,7.4-10.1C157.7,106.3,153.1,102.9,148.4,103.7z"/>
</g>
</svg>
