<?xml version="1.0" encoding="utf-8"?>
<!-- Generator: Adobe Illustrator 22.0.1, SVG Export Plug-In . SVG Version: 6.00 Build 0)  -->
<svg version="1.1" id="图层_1" xmlns="http://www.w3.org/2000/svg" xmlns:xlink="http://www.w3.org/1999/xlink" x="0px" y="0px"
	 viewBox="0 0 24 24" style="enable-background:new 0 0 24 24;" xml:space="preserve">
<style type="text/css">
	.st0{fill:#0063F5;}
</style>
<g id="图层_2_1_">
	<path class="st0" d="M21.2,3.3L12.4,1c-0.1,0-0.2,0-0.3,0L5.7,4.4c0,0-0.3,0.1-0.3,0.5v6l1,0.2V5.6l7.7,2.1v13.9l-7.7-2.7v-1.2
		l-1-0.2v1.9c0,0.3,0.1,0.5,0.4,0.6l8.8,3.1C14.8,23.2,15,23,15,23l6.4-4.8c0.1-0.1,0.2-0.3,0.2-0.5V3.9C21.6,3.4,21.2,3.3,21.2,3.3
		z M7.5,4.7l4.9-2.5l7.2,1.9l-4.9,2.6L7.5,4.7z"/>
	<path class="st0" d="M13,14.7l-3.5-3.4v2.3c-0.4,0-0.8,0-1.3,0c-0.9-0.1-1.9-0.2-2.7-0.6c-0.9-0.3-1.7-0.8-2.4-1.4
		c-0.3-0.3-0.5-0.7-0.4-1.1C2.8,10,3.2,9.6,3.6,9.3c-0.5,0.2-1,0.4-1.3,0.9C2.2,10.5,2,11.1,2.5,12c0.6,1,1.4,1.7,2.3,2.3
		s1.9,1.1,3,1.4c0.6,0.2,1.1,0.3,1.7,0.5v2L13,14.7z"/>
</g>
</svg>
