<?xml version="1.0" encoding="utf-8"?>
<!-- Generator: Adobe Illustrator 24.2.1, SVG Export Plug-In . SVG Version: 6.00 Build 0)  -->
<svg version="1.1" id="图层_2" xmlns="http://www.w3.org/2000/svg" xmlns:xlink="http://www.w3.org/1999/xlink" x="0px" y="0px"
	 viewBox="0 0 200 200" enable-background="new 0 0 200 200" xml:space="preserve">
<g>
	<g>
		<path fill="#333333" d="M90.6,15c-10.8-0.4-21.9,1.5-32.5,5.9C47.4,25.4,38.3,32,31.1,40.1c10.8-0.2,21.6-2.4,32.1-6.8
			S82.9,22.6,90.6,15z M77.1,66.2c20.9-8.8,38.1-22.7,50.7-39.7c-6.1-3.8-12.8-6.7-19.7-8.7c-1.8,2.2-3.7,4.3-5.6,6.3
			C93,33.9,81.7,41.6,69,46.9S42.9,55,29.3,55c-2.8,0-5.6-0.1-8.4-0.4c-3.4,6.3-6,13.1-7.5,20.2C34.3,77.6,56.3,75,77.1,66.2z"/>
		<path fill="#333333" d="M102,107.9c28.6-12.1,52.4-30.6,70.5-53.3c-4.1-7.1-9.3-13.5-15.2-19.1c-4,5.4-8.4,10.5-13.1,15.3
			c-14.6,15.1-32,26.9-51.5,35.1c-19.5,8.2-40,12.4-61,12.4c-6.7,0-13.4-0.4-20.1-1.3c-0.1,8.2,0.9,16.3,3,24.2
			C43.5,124.1,73.4,120,102,107.9z"/>
	</g>
	<g>
		<path fill="#333333" d="M184.3,91.9c-0.5-6.7-1.8-13.5-4-20.1c-2.2,2.6-4.5,5.1-6.9,7.5c-1.2,1.2-2.4,2.4-3.6,3.6
			C174.9,85.1,179.8,88.1,184.3,91.9z"/>
		<path fill="#333333" d="M103.3,180.3c-2.9-2.9-5.4-6-7.6-9.3c-10.7,3-21.6,5.2-32.5,6.7c13.9,6.1,29.3,8.6,44.8,6.8
			C106.3,183.2,104.8,181.8,103.3,180.3z"/>
		<path fill="#333333" d="M86.1,131.4c-17.7,5.1-35.9,7.7-54.4,7.6c-3.4,0-6.8-0.1-10.2-0.3C26.3,148,32.6,156,40,162.7
			c16.1-0.6,32.3-3,48.4-7.2C86,147.7,85.2,139.5,86.1,131.4z"/>
	</g>
	<path fill="#333333" d="M175.9,107.7c-16.7-16.7-43.7-16.7-60.4,0c-16.7,16.7-16.7,43.7,0,60.4c16.7,16.7,43.7,16.7,60.4,0
		C192.6,151.4,192.6,124.3,175.9,107.7z M138.7,115.6c0-3.4,2.7-6.1,6.1-6.1h1.4c3.3,0,6.1,2.7,6.1,6.1v25.1c0,3.4-2.7,6.1-6.1,6.1
		h-1.4c-3.3,0-6.1-2.7-6.1-6.1V115.6z M145.7,166.2c-3.9,0-7-3.1-7-7s3.1-7,7-7c3.9,0,7,3.1,7,7S149.6,166.2,145.7,166.2z"/>
</g>
</svg>
