<svg id="图层_2" data-name="图层 2" xmlns="http://www.w3.org/2000/svg" viewBox="0 0 200 200"><defs><style>.cls-1{fill:#007aff;}</style></defs><path class="cls-1" d="M175.3,17.86H135.6a6.84,6.84,0,0,0-6.85,6.84V48a6.84,6.84,0,0,1-6.85,6.84H98.63a6.85,6.85,0,0,0-6.84,6.85V84.94a6.85,6.85,0,0,1-6.85,6.85H61.67a6.85,6.85,0,0,0-6.85,6.84V121.9A6.84,6.84,0,0,1,48,128.75H24.7a6.84,6.84,0,0,0-6.84,6.85v39.7a6.84,6.84,0,0,0,6.84,6.84H175.3a6.84,6.84,0,0,0,6.84-6.84V24.7A6.84,6.84,0,0,0,175.3,17.86Z"/><path class="cls-1" d="M26.07,86.86c4.93,0,8.22-3.29,8.22-8.22V60.57H54.82c4.93,0,8.22-3.28,8.22-8.21s-3.29-8.22-8.22-8.22H34.29V34.29H54.82C59.75,34.29,63,31,63,26.07s-3.29-8.21-8.22-8.21H24.7a6.84,6.84,0,0,0-6.84,6.84V78.64A8.23,8.23,0,0,0,26.07,86.86Z"/></svg>