<?xml version="1.0" encoding="utf-8"?>
<!-- Generator: Adobe Illustrator 22.0.1, SVG Export Plug-In . SVG Version: 6.00 Build 0)  -->
<svg version="1.1" id="图层_1" xmlns="http://www.w3.org/2000/svg" xmlns:xlink="http://www.w3.org/1999/xlink" x="0px" y="0px"
	 viewBox="0 0 200 200" enable-background="new 0 0 200 200" xml:space="preserve">
<g id="图层_1_1_">
	<g>
		<g>
			<path fill="#7DA4EC" d="M47.9,162.5V68.8c0-5.8,4.7-10.4,10.4-10.4H152V27.1c0-5.8-4.7-10.4-10.4-10.4H27.1
				c-5.8,0-10.4,4.7-10.4,10.4v135.4c0,5.8,4.7,10.4,10.4,10.4h31.2C52.6,172.9,47.9,168.3,47.9,162.5z M58.3,16.7h52.1
				c5.8,0,10.4,4.7,10.4,10.4c0,5.8-4.7,10.4-10.4,10.4H58.3c-5.8,0-10.4-4.7-10.4-10.4C47.9,21.3,52.6,16.7,58.3,16.7z M172.9,68.8
				H68.8c-5.8,0-10.4,4.7-10.4,10.4v93.7c0,5.8,4.7,10.4,10.4,10.4H173c5.8,0,10.4-4.7,10.4-10.4V79.2
				C183.3,73.4,178.7,68.8,172.9,68.8z M152.1,162.5H89.6v-10.4h62.5V162.5z M152.1,131.2H89.6v-10.4h62.5V131.2z M152.1,100H89.6
				V89.6h62.5V100z"/>
		</g>
	</g>
</g>
</svg>
