<svg id="图层_1" data-name="图层 1" xmlns="http://www.w3.org/2000/svg" viewBox="0 0 200 200"><defs><style>.cls-1{fill:#040000;}</style></defs><path class="cls-1" d="M170.68,28.44A18.44,18.44,0,0,0,152.22,10H47.76A18.44,18.44,0,0,0,29.3,28.44L14.61,171.54A18.47,18.47,0,0,0,33.07,190H166.93a18.47,18.47,0,0,0,18.46-18.46Zm-8.37,147.7H37.67a9.24,9.24,0,0,1-9.24-9.22V145.74a9.24,9.24,0,0,1,9.24-9.24H162.29a9.23,9.23,0,0,1,9.22,9.24l0,21.18A9.22,9.22,0,0,1,162.31,176.14Z"/><circle class="cls-1" cx="149.94" cy="156.32" r="10"/></svg>