<?xml version="1.0" encoding="utf-8"?>
<!-- Generator: Adobe Illustrator 24.2.1, SVG Export Plug-In . SVG Version: 6.00 Build 0)  -->
<svg version="1.1" id="图层_2" xmlns="http://www.w3.org/2000/svg" xmlns:xlink="http://www.w3.org/1999/xlink" x="0px" y="0px"
	 viewBox="0 0 200 200" enable-background="new 0 0 200 200" xml:space="preserve">
<path fill="#333333" d="M182.7,55.7c0.2-7.9-5.8-14.5-13.7-15l-137.4,0l-0.2,0c-7.9,0.5-13.9,7.1-13.7,15l0,102.6
	c-0.2,7.9,5.8,14.5,13.7,15l137.5,0l0.1,0c8-0.5,14.1-7.4,13.7-15.3L182.7,55.7z M149,58.1l-43.7,27.4c-3.1,1.9-7.1,1.9-10.2,0
	l-43-27.3H149z M166.4,68.2v88.5H34.1V67.7l58.3,37.8c4.8,3.1,10.9,3.1,15.7,0L166.4,68.2z"/>
</svg>
