<?xml version="1.0" encoding="utf-8"?>
<!-- Generator: Adobe Illustrator 24.2.1, SVG Export Plug-In . SVG Version: 6.00 Build 0)  -->
<svg version="1.1" id="图层_2" xmlns="http://www.w3.org/2000/svg" xmlns:xlink="http://www.w3.org/1999/xlink" x="0px" y="0px"
	 viewBox="0 0 200 200" enable-background="new 0 0 200 200" xml:space="preserve">
<path fill="#333333" d="M22.4,43.3v113.3c0,5.7,4.7,10.4,10.4,10.4h134.3c5.7,0,10.4-4.7,10.4-10.4V43.3c0-5.7-4.7-10.4-10.4-10.4
	H32.9C27.1,32.9,22.4,37.6,22.4,43.3z M81.7,51.3c9.4,0,17,7.6,17,17s-7.6,17-17,17s-17-7.6-17-17S72.3,51.3,81.7,51.3z M158.3,146
	H41.7c-2.7,0-4.3-2.9-3-5.2l13.8-33c5.3-9.3,18.7-9.3,24.1,0l6.4,11.1c2.8,4.8,9.9,4.6,12.3-0.5l20.9-43.5c3.8-7.9,15-7.9,18.8,0
	l26.4,66.1C162.5,143.3,160.8,146,158.3,146L158.3,146z"/>
</svg>
