<svg id="图层_1" data-name="图层 1" xmlns="http://www.w3.org/2000/svg" viewBox="0 0 200 200"><path d="M100.15,13.61C50.21,13.61,10,48.79,10,92.15c0,26.71,15.39,50.27,38.64,64.72v24.18a5,5,0,0,0,5,5.34,5.94,5.94,0,0,0,2.51-.63l24.49-16.34A97.08,97.08,0,0,0,99.83,171c50,0,90.17-35.17,90.17-78.54C190.3,48.79,149.79,13.61,100.15,13.61ZM59.62,105A10.69,10.69,0,1,1,70.31,94.35C70.61,100,65.6,105,59.62,105Zm41.15,0a10.69,10.69,0,1,1,10.69-10.68A11,11,0,0,1,100.77,105Zm39.59,0A10.69,10.69,0,1,1,151,94.35,10.8,10.8,0,0,1,140.36,105Z"/></svg>