<?xml version="1.0" encoding="utf-8"?>
<!-- Generator: Adobe Illustrator 24.2.1, SVG Export Plug-In . SVG Version: 6.00 Build 0)  -->
<svg version="1.1" id="图层_2" xmlns="http://www.w3.org/2000/svg" xmlns:xlink="http://www.w3.org/1999/xlink" x="0px" y="0px"
	 viewBox="0 0 200 200" enable-background="new 0 0 200 200" xml:space="preserve">
<path fill="#333333" d="M20,159.9c-0.2,10.9,8.5,19.9,19.4,20.1c0.2,0,0.5,0,0.7,0h119.8c10.9,0.2,19.9-8.5,20.1-19.4
	c0-0.2,0-0.5,0-0.7V66.6H20V159.9z M123.1,93.2h20.1c1.7-0.2,3.2,1,3.4,2.7c0,0.2,0,0.5,0,0.7v20.1c0,1.9-1.5,3.4-3.4,3.4
	c-1.9,0-3.4-1.5-3.4-3.4V100h-16.7c-1.7,0.2-3.2-1-3.4-2.7c0-0.2,0-0.5,0-0.7C119.7,94.7,121.3,93.2,123.1,93.2L123.1,93.2
	L123.1,93.2z M53.4,86.7c-0.2-3.6,2.5-6.6,6.1-6.8c0.2,0,0.5,0,0.7,0h46.6c3.6-0.2,6.6,2.5,6.8,6.1c0,0.2,0,0.5,0,0.7v20.1
	c0.2,3.6-2.5,6.6-6.1,6.8c-0.2,0-0.5,0-0.7,0H60.2c-3.6,0.2-6.6-2.5-6.8-6.1c0-0.2,0-0.5,0-0.7L53.4,86.7z M46.9,133.4
	c-0.2-3.6,2.5-6.6,6.1-6.8c0.2,0,0.5,0,0.7,0h26.6c3.6-0.2,6.6,2.5,6.8,6.1c0,0.2,0,0.5,0,0.7v6.8h33.4v-6.8
	c-0.2-3.6,2.5-6.6,6.1-6.8c0.2,0,0.5,0,0.7,0h26.6c3.6-0.2,6.6,2.5,6.8,6.1c0,0.2,0,0.5,0,0.7v20.1c0.2,3.6-2.5,6.6-6.1,6.8
	c-0.2,0-0.5,0-0.7,0h-26.6c-3.6,0.2-6.6-2.5-6.8-6.1c0-0.2,0-0.5,0-0.7v-6.8H86.7v6.8c0.2,3.6-2.5,6.6-6.1,6.8c-0.2,0-0.5,0-0.7,0
	H53.4c-3.6,0.2-6.6-2.5-6.8-6.1c0-0.2,0-0.5,0-0.7C46.9,153.1,46.9,133.4,46.9,133.4z M159.9,20H40.1C29.2,19.8,20.2,28.5,20,39.4
	c0,0.2,0,0.5,0,0.7v17.8h160V40.1c0.2-10.9-8.5-19.9-19.4-20.1C160.4,20,160.1,20,159.9,20z M106.8,46.9H93.2V33.6h13.3v13.3H106.8z
	 M133.4,46.9h-13.3V33.6h13.3V46.9z M159.9,46.9h-13.3V33.6h13.3V46.9z"/>
</svg>
