<svg id="图层_1" data-name="图层 1" xmlns="http://www.w3.org/2000/svg" viewBox="0 0 200 200"><path d="M63.62,82.73l6.79-11.32a25.94,25.94,0,1,1,26.12.29l6.54,11.48a39.16,39.16,0,1,0-39.45-.45Z"/><path d="M145.3,99.4a10.13,10.13,0,0,0-10.13,10.13v-5.94a10.12,10.12,0,1,0-20.24,0,10.13,10.13,0,1,0-20.25,0V54.07a10.12,10.12,0,0,0-20.24,0V126L61.61,114A10.12,10.12,0,0,0,47.8,128.8L71,150.4s32.58,63.25,71.46,29.88c0,0,12.77-10,12.61-36.37a9.81,9.81,0,0,0,.37-2.69V109.53A10.13,10.13,0,0,0,145.3,99.4Z"/></svg>