<svg id="图层_2" data-name="图层 2" xmlns="http://www.w3.org/2000/svg" viewBox="0 0 200 200"><defs><style>.cls-1{fill:#007aff;}</style></defs><path class="cls-1" d="M163.13,85.85H66.71V60.5h0a33.2,33.2,0,0,1,66.38-.6,8.56,8.56,0,0,0,17.12,0c0-.3,0-.62,0-.92a50.27,50.27,0,0,0-100.5,1.5V85.85H36.83A9.85,9.85,0,0,0,27,95.67v83.79a9.85,9.85,0,0,0,9.82,9.83H163.17a9.85,9.85,0,0,0,9.82-9.83V95.69a9.9,9.9,0,0,0-9.86-9.84Zm-54.67,69.8a8.5,8.5,0,0,1-17,0v-13.8a4.35,4.35,0,0,1,0-.52,17.3,17.3,0,1,1,17,0Z"/></svg>