<?xml version="1.0" encoding="utf-8"?>
<!-- Generator: Adobe Illustrator 24.2.1, SVG Export Plug-In . SVG Version: 6.00 Build 0)  -->
<svg version="1.1" id="图层_2" xmlns="http://www.w3.org/2000/svg" xmlns:xlink="http://www.w3.org/1999/xlink" x="0px" y="0px"
	 viewBox="0 0 200 200" enable-background="new 0 0 200 200" xml:space="preserve">
<path fill="#333333" d="M105.3,13H94.7c-2.4,0-4.4,2-4.4,4.4v87.9c0,2.4,2,4.4,4.4,4.4h10.5c2.4,0,4.4-2,4.4-4.4V17.4
	C109.7,15,107.7,13,105.3,13z M153.5,36.8l-7.4,7.5c-1.7,1.7-1.7,4.6,0.1,6.3c22.6,21.1,30.9,57.2,7.9,92.8
	c-1.2,1.8-8.5,9.2-10.3,10.4C89.6,189.4,32.3,151.3,32.3,100c0-19.5,8.3-37.1,21.5-49.4c1.8-1.7,1.8-4.5,0.1-6.3l-7.4-7.4
	c-1.7-1.7-4.4-1.7-6.1-0.1c-29.7,27.9-40,76.3-7.1,122.9c0.9,1.2,5.4,5.9,6.3,6.6C110.4,216.8,187,167.3,187,100
	c0-25.5-10.1-47.5-27.6-63.4C156.1,34,153.5,36.8,153.5,36.8z"/>
</svg>
