<?xml version="1.0" encoding="utf-8"?>
<!-- Generator: Adobe Illustrator 22.0.1, SVG Export Plug-In . SVG Version: 6.00 Build 0)  -->
<svg version="1.1" id="图层_1" xmlns="http://www.w3.org/2000/svg" xmlns:xlink="http://www.w3.org/1999/xlink" x="0px" y="0px"
	 viewBox="0 0 200 200" enable-background="new 0 0 200 200" xml:space="preserve">
<g id="图层_1_1_">
	<g>
		<g>
			<path fill="#6883D8" d="M134.7,161.1H65.3c-3.8,0-6.9,3.1-6.9,6.9s3.1,6.9,6.9,6.9h69.4c3.8,0,6.9-3.1,6.9-6.9
				S138.6,161.1,134.7,161.1L134.7,161.1z"/>
		</g>
	</g>
	<g>
		<path fill="#6883D8" d="M177.3,33.3H22.7c-3.3,0-6,2.7-6,6V144c0,3.3,2.7,6,6,6h154.7c3.3,0,6-2.7,6-6V39.3
			C183.3,36,180.6,33.3,177.3,33.3z M52.1,66.3c1.5-2.4,3.5-4.3,6-5.8c2.6-1.4,5.4-2.1,8.4-2.1c3.1,0,5.9,0.7,8.4,2.1
			c2.6,1.4,4.6,3.3,6,5.6c1.5,2.4,2.2,5,2.2,8s-0.7,5.7-2.2,8.1s-3.5,4.3-6,5.8c-2.6,1.4-5.4,2.1-8.4,2.1c-3.1,0-5.9-0.7-8.4-2.1
			c-2.6-1.4-4.6-3.3-6-5.6c-1.5-2.4-2.2-5-2.2-8S50.7,68.7,52.1,66.3z M96.6,121.6c-0.4,1-0.9,1.9-1.8,2.5c-0.8,0.6-1.8,0.9-2.9,0.9
			H41.6c-1,0-2-0.3-2.8-0.9s-1.5-1.4-1.8-2.4l-0.2-0.5c-0.1-0.6-0.2-1.3-0.2-2.1c0.4-4.2,1.7-8,3.9-11.6c2.2-3.5,5-6.5,8.5-8.9
			s7.4-4,11.6-4.9l3.7,3.3l-0.5,2.8c-1.4,6.9-2.1,10.9-2.1,12.2c0,0.5,0.3,1.3,1,2.3s1.4,2,2.2,2.8c0.8,0.8,1.4,1.2,1.8,1.2
			s1-0.4,1.8-1.2c0.8-0.8,1.5-1.7,2.2-2.8c0.7-1,1-1.8,1-2.3c0-1.1-0.8-5.5-2.3-13L69,97l3.7-3.3c4.3,0.7,8.1,2.3,11.6,4.7
			c3.5,2.4,6.3,5.4,8.5,9s3.4,7.5,3.9,11.6c0,0.5,0,0.9,0.1,1.4C96.8,120.8,96.7,121.2,96.6,121.6z M143.5,126.3h-31.9
			c-3.3,0-5.9-2.7-5.9-5.9s2.7-5.9,5.9-5.9h31.9c3.3,0,5.9,2.7,5.9,5.9S146.7,126.3,143.5,126.3z M149.4,92.9c0,3.3-2.7,5.9-5.9,5.9
			h-31.9c-3.3,0-5.9-2.7-5.9-5.9l0,0c0-3.3,2.7-5.9,5.9-5.9h31.9C146.7,87,149.4,89.6,149.4,92.9L149.4,92.9z M154.4,71.5h-42.9
			c-3.3,0-5.9-2.7-5.9-5.9s2.7-5.9,5.9-5.9h42.9c3.3,0,5.9,2.7,5.9,5.9C160.3,68.8,157.7,71.5,154.4,71.5z"/>
	</g>
</g>
</svg>
