<?xml version="1.0" encoding="utf-8"?>
<!-- Generator: Adobe Illustrator 24.2.1, SVG Export Plug-In . SVG Version: 6.00 Build 0)  -->
<svg version="1.1" id="图层_2" xmlns="http://www.w3.org/2000/svg" xmlns:xlink="http://www.w3.org/1999/xlink" x="0px" y="0px"
	 viewBox="0 0 200 200" enable-background="new 0 0 200 200" xml:space="preserve">
<g>
	<path fill="#333333" d="M145,64.7l19.8-20c2.9-2.9,2.9-7.7,0-10.6c-2.9-2.9-7.7-2.9-10.6,0l-22.9,23.1c-9.4-4.1-19.9-6.8-31.3-6.8
		c-48,0-80,48-80,48s13.5,20.3,36.2,34.5l-22.1,22.3c-2.9,2.9-2.9,7.7,0,10.6c1.5,1.5,3.4,2.2,5.3,2.2c1.9,0,3.9-0.7,5.3-2.2
		l25.4-25.6c9,3.8,19,6.2,29.8,6.2c48,0,80-48,80-48S166.9,78.9,145,64.7z M68.2,98.2c0-17.6,14.3-31.8,31.8-31.8
		c6.3,0,12.2,1.9,17.2,5.1l-11.8,11.9c-1.7-0.6-3.6-1-5.4-1c-4.2,0-8.3,1.7-11.3,4.7c-2.9,3-4.7,7.1-4.7,11.3c0,1.9,0.4,3.8,1,5.6
		l-11.7,11.8C70.1,110.7,68.2,104.7,68.2,98.2z M100,130.1c-5.7,0-11.1-1.5-15.7-4.1l12-12.1c1.2,0.3,2.4,0.4,3.6,0.4
		c4.2,0,8.3-1.7,11.3-4.7c2.9-2.9,4.7-7.1,4.7-11.3c0-1.3-0.2-2.5-0.5-3.7l12.2-12.3c2.7,4.7,4.3,10.1,4.3,15.9
		C131.8,115.8,117.6,130.1,100,130.1z"/>
</g>
</svg>
