<?xml version="1.0" encoding="utf-8"?>
<!-- Generator: Adobe Illustrator 24.2.1, SVG Export Plug-In . SVG Version: 6.00 Build 0)  -->
<svg version="1.1" id="图层_2" xmlns="http://www.w3.org/2000/svg" xmlns:xlink="http://www.w3.org/1999/xlink" x="0px" y="0px"
	 viewBox="0 0 200 200" enable-background="new 0 0 200 200" xml:space="preserve">
<g>
	<path fill="#333333" d="M112.6,134.3L112.6,134.3c-0.5,0-4.2-3.7-1.6-10.5c5.8-5.8,10.5-15.3,10.5-24.7c0-14.2-10-21.6-20.5-21.6
		C90,77.4,80.5,84.8,80.5,99c0,9.5,4.2,19,10,24.7c2.1,5.8-1.6,10-2.6,10.5c-11.6,4.2-24.7,11.6-24.7,19.5v2.6
		c0,10,19.5,12.6,37.9,12.6c17.9,0,37.4-2.1,37.4-12.6v-2.6C137.9,145.8,124.2,137.9,112.6,134.3z"/>
	<path fill="#333333" d="M70.5,99c0-10.5,4.2-18.4,10.5-23.7c-2.6-7.4-9.5-11.1-16.8-11.1c-10,0-18.4,7.4-19,20.5
		c0,9,3.7,17.9,9,23.2c2.1,6.3-1.1,7.4-1.6,7.4c-11.1,3.7-23.7,10.5-23.7,18.4v2.6c0,7.9,12.6,11.1,26.3,11.6
		c3.7-10.5,17.4-17.4,26.3-20.5C75.8,120.6,70.5,110,70.5,99z"/>
	<path fill="#333333" d="M147.4,115.3c-0.5,0-3.7-1.1-1.6-7.4c5.3-5.3,9-14.2,9-23.2c0-13.2-8.4-20.5-19-20.5
		c-7.4,0-14.2,3.7-16.8,11.1c6.3,5.3,10.5,13.2,10.5,23.7c0,11.1-5.3,21.6-11.1,28.4c9,3.2,22.6,10,26.3,20.5
		c13.7-0.5,26.3-3.7,26.3-11.6v-2.6C171.6,125.8,159,119,147.4,115.3z"/>
	<path fill="#333333" d="M174.7,31H25.3c-3.7,0-6.7,3-6.7,6.7v53.5c0,3.7,3,6.7,6.7,6.7s6.7-3,6.7-6.7V44.4h136v46.8
		c0,3.7,3,6.7,6.7,6.7s6.7-3,6.7-6.7V37.7C181.4,34,178.4,31,174.7,31z"/>
</g>
</svg>
