<?xml version="1.0" encoding="utf-8"?>
<!-- Generator: Adobe Illustrator 24.2.1, SVG Export Plug-In . SVG Version: 6.00 Build 0)  -->
<svg version="1.1" id="图层_2" xmlns="http://www.w3.org/2000/svg" xmlns:xlink="http://www.w3.org/1999/xlink" x="0px" y="0px"
	 viewBox="0 0 200 200" enable-background="new 0 0 200 200" xml:space="preserve">
<g>
	<polygon fill="#333333" points="141.8,189.5 141.8,153.7 177.6,153.7 	"/>
	<path fill="#333333" d="M153.7,10.5H46.3c-13.2,0-23.9,10.7-23.9,23.9l0,131.3c0,13.2,10.7,23.9,23.9,23.9h79.5v-45.8
		c0-3.3,2.7-6,6-6h45.8V34.4C177.6,21.2,166.9,10.5,153.7,10.5z M77.7,104.5l-12.6,13.6c-0.1,0.1-0.3,0.2-0.5,0.2
		c-0.2,0-0.4-0.1-0.6-0.3l-12.5-13.5c-1.5-1.7-2.4-3.8-2.4-6.2s0.9-4.6,2.5-6.3s3.6-2.7,5.9-2.7c1.8,0,3.6,0.6,5,1.8
		c0.9,0.7,1.6,1.6,2.1,2.6c0.5-1,1.3-1.9,2.1-2.6c1.5-1.2,3.2-1.8,5-1.8c2.2,0,4.3,1,5.9,2.7c1.6,1.7,2.5,4,2.5,6.3
		S79.2,102.8,77.7,104.5z M77.7,57.9L65.1,71.4c-0.1,0.1-0.3,0.2-0.5,0.2c-0.2,0-0.4-0.1-0.6-0.3L51.4,57.9
		c-1.5-1.7-2.4-3.8-2.4-6.2c0-2.4,0.9-4.6,2.5-6.3c1.6-1.7,3.6-2.7,5.9-2.7c1.8,0,3.6,0.6,5,1.8c0.9,0.7,1.6,1.6,2.1,2.6
		c0.5-1,1.3-1.9,2.1-2.6c1.5-1.2,3.2-1.8,5-1.8c2.2,0,4.3,1,5.9,2.7c1.6,1.7,2.5,4,2.5,6.3C80.1,54,79.2,56.2,77.7,57.9z
		 M158.9,103.6c0,3.9-3.1,7-7,7H102c-3.9,0-7-3.1-7-7v-1c0-3.9,3.1-7,7-7h49.9c3.9,0,7,3.1,7,7V103.6z M158.9,56.9c0,3.9-3.1,7-7,7
		H102c-3.9,0-7-3.1-7-7v-1c0-3.9,3.1-7,7-7h49.9c3.9,0,7,3.1,7,7V56.9z"/>
</g>
</svg>
