<?xml version="1.0" encoding="utf-8"?>
<!-- Generator: Adobe Illustrator 22.0.1, SVG Export Plug-In . SVG Version: 6.00 Build 0)  -->
<svg version="1.1" id="图层_1" xmlns="http://www.w3.org/2000/svg" xmlns:xlink="http://www.w3.org/1999/xlink" x="0px" y="0px"
	 viewBox="0 0 200 200" enable-background="new 0 0 200 200" xml:space="preserve">
<g id="图层_2_1_">
	<path d="M182.7,141.5h-3.4c-2.7,0-5.3-1.1-7.3-3.1c-1.8-1.8-2.9-4.1-3-6.7l0,0l-0.1-62.9c0-15.3-12.5-27.8-27.8-27.8h-2
		c-15.3,0-27.8,12.5-27.8,27.8l0.1,62.3c0,2.7-1.1,5.3-3.1,7.3s-4.6,3.1-7.3,3.1h-2.4c-2.7,0-5.3-1.1-7.3-3.1s-3.1-4.6-3.1-7.3
		l0.1-62.3C88.3,53.5,75.8,41,60.5,41h-2.6c-15.3,0-27.8,12.5-27.8,27.8v62.3h-0.3c0,2.7-1.1,5.3-3.1,7.3s-4.6,3.1-7.3,3.1H17V159
		h2.4c15.1,0,27.5-12.2,27.7-27.2h0.3V68.9c0-2.7,1.1-5.3,3.1-7.3s4.6-3.1,7.3-3.1h2.6c2.7,0,5.3,1.1,7.3,3.1s3.1,4.5,3.1,7.3
		l-0.1,62.3c0,15.3,12.5,27.8,27.8,27.8h2.4c15.3,0,27.8-12.5,27.8-27.8l-0.1-62.3c0-2.7,1.1-5.3,3.1-7.3s4.6-3.1,7.3-3.1h2
		c2.7,0,5.3,1.1,7.3,3.1s3.1,4.6,3.1,7.3l0.1,62.3l0,0l0,0v0.6l0,0c0.3,15,12.6,27.1,27.7,27.1h3.4L182.7,141.5z"/>
</g>
</svg>
