<?xml version="1.0" encoding="utf-8"?>
<!-- Generator: Adobe Illustrator 22.0.1, SVG Export Plug-In . SVG Version: 6.00 Build 0)  -->
<svg version="1.1" id="图层_1" xmlns="http://www.w3.org/2000/svg" xmlns:xlink="http://www.w3.org/1999/xlink" x="0px" y="0px"
	 viewBox="0 0 200 200" enable-background="new 0 0 200 200" xml:space="preserve">
<g id="图层_1_1_">
	<g>
		<path fill="#6883D8" d="M101,24.3h25.3v32.2H101V24.3z"/>
		<path fill="#6883D8" d="M178.3,24.3h-34.8v47.1h-87V24.3H21.7c-4.8,0-8.7,3.9-8.7,8.7v134.1c0,4.8,3.9,8.7,8.7,8.7h156.6
			c4.8,0,8.7-3.9,8.7-8.7V33C187,28.2,183.1,24.3,178.3,24.3z M148,137.8c0,5.2-4.3,9.5-9.5,9.5h-74c-5.2,0-9.5-4.3-9.5-9.5v-12
			c0-5.2,4.3-9.5,9.5-9.5h74c5.2,0,9.5,4.3,9.5,9.5V137.8z"/>
	</g>
</g>
</svg>
