<?xml version="1.0" encoding="utf-8"?>
<!-- Generator: Adobe Illustrator 24.2.1, SVG Export Plug-In . SVG Version: 6.00 Build 0)  -->
<svg version="1.1" id="图层_2" xmlns="http://www.w3.org/2000/svg" xmlns:xlink="http://www.w3.org/1999/xlink" x="0px" y="0px"
	 viewBox="0 0 200 200" enable-background="new 0 0 200 200" xml:space="preserve">
<g>
	<path fill="#333333" d="M100,21.2c43.4,0,78.8,35.3,78.8,78.7c0,43.4-35.3,78.8-78.8,78.8S21.2,143.4,21.2,100
		C21.2,56.6,56.6,21.2,100,21.2 M100,10c-49.7,0-90,40.3-90,90c0,49.7,40.3,90,90,90s90-40.3,90-90C190,50.3,149.7,10,100,10L100,10
		z"/>
	<path fill="#333333" d="M137.7,54.8l-22,23v-22h-10.3v39.4l0.1,0.1H145V85h-21.8L145,62.2L137.7,54.8 M95,105.7H55.5V116h21.8
		L55,137.8l7.3,7.3l22.5-22v22h10.3L95,105.7L95,105.7L95,105.7"/>
</g>
</svg>
