<?xml version="1.0" encoding="utf-8"?>
<!-- Generator: Adobe Illustrator 22.0.1, SVG Export Plug-In . SVG Version: 6.00 Build 0)  -->
<svg version="1.1" id="图层_1" xmlns="http://www.w3.org/2000/svg" xmlns:xlink="http://www.w3.org/1999/xlink" x="0px" y="0px"
	 viewBox="0 0 200 200" enable-background="new 0 0 200 200" xml:space="preserve">
<g id="图层_2_1_">
	<path d="M114.3,36.9V19.8c0-5.6-4.4-7.9-7.5-5.6L59.7,46.9c-2.2,1.5-2.8,4.4-1.3,6.6c0.3,0.5,0.8,1,1.3,1.3l47.1,32.9
		c2.2,1.5,5.3,0.9,6.7-1.4c0.5-0.8,0.8-1.7,0.8-2.6V72.4c0-2.6,2.1-4.8,4.8-4.8c0.1,0,0.3,0,0.4,0c26.2,2.5,47.8,21.5,53.6,47.1
		c1-4.3,1.4-8.6,1.4-13c-0.2-31.4-24.3-57.6-55.7-60.2C116.3,41.5,114.3,39.4,114.3,36.9L114.3,36.9z M85.7,162.9V182
		c0,2.6,2.2,4.8,4.8,4.7c0.9,0,1.9-0.3,2.6-0.8l47.3-33c2.1-1.5,2.6-4.5,1.1-6.7c-0.3-0.4-0.7-0.8-1.1-1.1l-47.3-33
		c-2.1-1.5-5-1.1-6.5,1c-0.6,0.8-0.9,1.8-0.9,2.8v11.5c0.1,2.6-2,4.7-4.6,4.8c-0.2,0-0.3,0-0.5,0c-26.2-2.4-47.8-21.4-53.7-47.1
		c-1,4.3-1.4,8.6-1.4,13c0.4,31.3,24.5,57.1,55.7,59.6C83.8,158,85.8,160.3,85.7,162.9z"/>
</g>
</svg>
