<?xml version="1.0" encoding="utf-8"?>
<!-- Generator: Adobe Illustrator 24.2.1, SVG Export Plug-In . SVG Version: 6.00 Build 0)  -->
<svg version="1.1" id="图层_2" xmlns="http://www.w3.org/2000/svg" xmlns:xlink="http://www.w3.org/1999/xlink" x="0px" y="0px"
	 viewBox="0 0 200 200" enable-background="new 0 0 200 200" xml:space="preserve">
<path fill="#333333" d="M175.1,156.2c-1.4-6.5-6.8-10.9-13.5-10.9c-1.8,0-3.7,0-5.5,0c7.6-3.2,12.5-10.7,12.5-18.9
	c0-11.4-9.1-20.6-20.5-20.6c-11.3,0-20.5,9.2-20.5,20.6c0,8.3,4.9,15.7,12.5,19c-2,0-4,0-5.9,0c-6.4,0.1-11.7,4.4-13,10.6
	c-0.4,2-0.3,3.8-0.4,5.8c-0.1,1.3,0,3.6,0,3.6h-1.2c0-2.8,0-4.1,0-6.2c-0.1-8.1-6-13.9-14-13.9c-1.7,0-3.4,0-5.1,0
	c7.5-3.3,12.3-10.7,12.3-18.8c0-11.3-9.2-20.6-20.5-20.6c-11.3,0-20.5,9.2-20.5,20.6c0,8.2,4.9,15.7,12.4,18.9c-1.8,0-3.5,0-5.3,0
	c-1.6,0-3.3,0.3-4.8,0.8c-5.6,1.9-9.1,7-9.2,13c0,2.2,0,4.4,0,6.6l0.1,2c-16.4-2.5-29-16.6-29-33.7v-5.7c0-18.6,15-33.8,33.5-34.1
	c36.4,0,67.9,0,104.7,0h1.2c0,0,0-0.4,0-0.6c0-6.6,0-13.3,0-19.9c0-0.9-0.1-1.9-0.3-2.8c-1.4-6.5-6.8-10.9-13.5-10.9
	c-1.8,0-3.7,0-5.5,0c7.6-3.2,12.5-10.7,12.5-18.9c0-11.4-9.1-20.6-20.5-20.6c-11.3,0-20.5,9.2-20.5,20.6c0,8.3,4.9,15.7,12.5,19
	c-2,0-4,0-5.9,0c-6.4,0.1-11.7,4.4-13,10.6c-0.4,2-0.3,3.8-0.4,5.8c-0.1,1.3,0,3.6,0,3.6h-1.2c0-2.8,0-4.1,0-6.2
	c-0.1-8.1-6-13.9-14-13.9c-1.7,0-3.4,0-5.1,0c7.5-3.3,12.3-10.7,12.3-18.8c0-11.3-9.2-20.6-20.5-20.6c-11.3,0-20.5,9.2-20.5,20.6
	c0,8.2,4.9,15.7,12.4,18.9c-1.8,0-3.5,0-5.3,0c-1.6,0-3.3,0.3-4.8,0.8c-5.6,1.9-9.1,7-9.2,13c0,2.2,0,4.4,0,6.6l0.2,2.7
	c-22.7,2.5-40.4,21.8-40.4,45.2v5.7c0,23.2,17.4,42.3,39.8,45.1l0,0.4v0c39.8,0,71.8,0,109.8,0h1.2c0,0,0-0.4,0-0.6
	c0-6.6,0-13.3,0-19.9C175.4,158.1,175.3,157.2,175.1,156.2L175.1,156.2z"/>
</svg>
