<?xml version="1.0" encoding="utf-8"?>
<!-- Generator: Adobe Illustrator 22.0.1, SVG Export Plug-In . SVG Version: 6.00 Build 0)  -->
<svg version="1.1" id="图层_1" xmlns="http://www.w3.org/2000/svg" xmlns:xlink="http://www.w3.org/1999/xlink" x="0px" y="0px"
	 viewBox="0 0 200 200" enable-background="new 0 0 200 200" xml:space="preserve">
<g id="图层_1_1_">
	<g>
		<g>
			<path fill="#7DA4EC" d="M160.1,59.1H39.9c-2.2,0-4,1.8-4,4v112.6c0,0,1.1,11.2,11.7,11.7h104.9c0,0,8.8,2.4,11.7-11.7V63.1
				C164.1,60.9,162.3,59.1,160.1,59.1z M70.9,152.4H59.2v-70h11.7V152.4z M105.8,152.4H94.2v-70h11.7L105.8,152.4L105.8,152.4z
				 M140.8,152.4h-11.7v-70h11.7V152.4z M175.8,37.8c0-1.1-0.9-2-2-2c-6.1,0-24.4,0-30.8,0c-1.2,0-2.1-1-2-2.2
				c1.6-19.2-10.5-21-11.8-21.1c-0.1,0-0.1,0-0.2,0H71.1c-0.2,0-0.3,0-0.5,0.1c-11.3,2.9-11.8,16-11.6,21.2c0.1,1.2-0.8,2.1-2,2.1
				H26.2c-1.1,0-2,0.9-2,2v5.7c0,2.2,1.8,4,4,4h143.5c2.2,0,4-1.8,4-4L175.8,37.8z"/>
		</g>
	</g>
</g>
</svg>
