<?xml version="1.0" encoding="utf-8"?>
<!-- Generator: Adobe Illustrator 24.2.1, SVG Export Plug-In . SVG Version: 6.00 Build 0)  -->
<svg version="1.1" id="图层_2" xmlns="http://www.w3.org/2000/svg" xmlns:xlink="http://www.w3.org/1999/xlink" x="0px" y="0px"
	 viewBox="0 0 200 200" enable-background="new 0 0 200 200" xml:space="preserve">
<path fill="#333333" d="M156.3,21.5c-1.2-1.1-3-1.1-4.2,0l-114,136.2c-1.1,1.2-1.1,3,0,4.2l20.1,16.6c1.1,1.1,2.9,1.1,4,0.1
	c0,0,0,0,0.1-0.1l114-136c1.1-1.1,1.1-2.9,0.1-4c0,0,0,0-0.1-0.1L156.3,21.5z M155.4,29l13.7,11.5l-33.6,39.8l-13.9-11L155.4,29z
	 M62.8,53.5l4.7-15.1l4.7,15.1l15.1,4.7l-15.1,4.7l-4.9,15.6l-4.7-15.1l-15.1-4.7L62.8,53.5z M105.1,35.9l2.2-6.9l2.1,6.9l6.9,2.1
	l-6.9,2.2l-2.1,6.9l-2.2-6.9l-6.9-2.2L105.1,35.9z M27.9,33.3l2.1-7l2.1,7l7,2.1l-7,2.2l-2.1,7.2l-2.1-7.2l-7.4-2.2L27.9,33.3z
	 M168.3,80.1l2.1-6.9l2.1,6.9l7,2.2l-7,2.1l-2.1,7l-2.1-7l-7-2.1L168.3,80.1z"/>
</svg>
