<?xml version="1.0" encoding="utf-8"?>
<!-- Generator: Adobe Illustrator 24.2.1, SVG Export Plug-In . SVG Version: 6.00 Build 0)  -->
<svg version="1.1" id="图层_2" xmlns="http://www.w3.org/2000/svg" xmlns:xlink="http://www.w3.org/1999/xlink" x="0px" y="0px"
	 viewBox="0 0 200 200" enable-background="new 0 0 200 200" xml:space="preserve">
<path fill="#333333" d="M28.1,62.7h128c5.3,0,9.7-4.4,9.7-9.7V29.7c0-5.3-4.4-9.7-9.7-9.7h-128c-5.3,0-9.7,4.4-9.7,9.7V53
	C18.4,58.3,22.8,62.7,28.1,62.7z M48.8,46.7V36c0-2.4,1.9-4.3,4.3-4.3c2.4,0,4.3,1.9,4.3,4.3v10.7c0,2.4-1.9,4.3-4.3,4.3
	C50.7,50.9,48.8,49,48.8,46.7C48.8,46.7,48.8,46.7,48.8,46.7z M31.7,46.7V36c0-2.4,1.9-4.3,4.3-4.3c2.4,0,4.3,1.9,4.3,4.3v10.7
	c0,2.4-1.9,4.3-4.3,4.3C33.6,50.9,31.7,49,31.7,46.7C31.7,46.7,31.7,46.7,31.7,46.7z M28.1,116h56.6c8.1-21,28.5-35.9,52.4-35.9
	c10.5,0,20.4,2.9,28.8,7.9v-5c0-5.3-4.4-9.7-9.7-9.7h-128c-5.3,0-9.7,4.4-9.7,9.7v23.3C18.4,111.6,22.8,116,28.1,116z M48.8,100
	V89.3c0-2.4,1.9-4.3,4.3-4.3c2.4,0,4.3,1.9,4.3,4.3V100c0,2.4-1.9,4.3-4.3,4.3C50.7,104.3,48.8,102.4,48.8,100
	C48.8,100,48.8,100,48.8,100z M31.7,100V89.3c0-2.4,1.9-4.3,4.3-4.3c2.4,0,4.3,1.9,4.3,4.3V100c0,2.4-1.9,4.3-4.3,4.3
	C33.6,104.3,31.7,102.4,31.7,100C31.7,100,31.7,100,31.7,100z M82.1,126.7h-54c-5.3,0-9.7,4.4-9.7,9.7v23.3c0,5.3,4.4,9.7,9.7,9.7
	h64c-6.8-9.3-10.8-20.7-10.8-33.1C81.3,133,81.6,129.8,82.1,126.7z M40.3,153.3c0,2.4-1.9,4.3-4.3,4.3c-2.4,0-4.3-1.9-4.3-4.3
	c0,0,0,0,0,0v-10.7c0-2.4,1.9-4.3,4.3-4.3c2.4,0,4.3,1.9,4.3,4.3V153.3z M57.3,153.3c0,2.4-1.9,4.3-4.3,4.3c-2.4,0-4.3-1.9-4.3-4.3
	c0,0,0,0,0,0v-10.7c0-2.4,1.9-4.3,4.3-4.3c2.4,0,4.3,1.9,4.3,4.3V153.3z M137.8,92.4C113.6,92.4,94,112,94,136.2
	s19.6,43.8,43.8,43.8c24.2,0,43.8-19.6,43.8-43.8S162,92.4,137.8,92.4z M165.1,141h-26.5c-2.3,0-4.3-1.9-4.3-4.3v-31.9
	c0-2.3,1.9-4.3,4.3-4.3c2.3,0,4.3,1.9,4.3,4.3v27.7h22.2c2.3,0,4.3,1.9,4.3,4.3C169.4,139.1,167.4,141,165.1,141z"/>
</svg>
