<?xml version="1.0" encoding="utf-8"?>
<!-- Generator: Adobe Illustrator 24.2.1, SVG Export Plug-In . SVG Version: 6.00 Build 0)  -->
<svg version="1.1" id="图层_2" xmlns="http://www.w3.org/2000/svg" xmlns:xlink="http://www.w3.org/1999/xlink" x="0px" y="0px"
	 viewBox="0 0 200 200" enable-background="new 0 0 200 200" xml:space="preserve">
<path fill="#333333" d="M100,20.5c-43.9,0-79.4,35.6-79.4,79.4c0,43.9,35.6,79.4,79.4,79.4c43.9,0,79.4-35.6,79.4-79.4
	C179.4,56.1,143.9,20.5,100,20.5z M145.6,79.4l-51.4,51.4c0,0,0,0,0,0c-2.4,2.4-6,2.7-8.7,1.1c-0.5-0.3-1-0.7-1.4-1.1c0,0,0,0,0,0
	l-29.6-29.6c-2.8-2.8-2.8-7.4,0-10.2c2.8-2.8,7.4-2.8,10.2,0l24.5,24.5l46.3-46.3c2.8-2.8,7.4-2.8,10.2,0
	C148.4,72,148.4,76.6,145.6,79.4z"/>
</svg>
