<?xml version="1.0" encoding="utf-8"?>
<!-- Generator: Adobe Illustrator 24.2.1, SVG Export Plug-In . SVG Version: 6.00 Build 0)  -->
<svg version="1.1" id="图层_2" xmlns="http://www.w3.org/2000/svg" xmlns:xlink="http://www.w3.org/1999/xlink" x="0px" y="0px"
	 viewBox="0 0 200 200" enable-background="new 0 0 200 200" xml:space="preserve">
<path fill="#333333" d="M178.1,54.8l-37.4-33.5c-0.9-0.8-2.1-1.3-3.2-1.3H62.6c-1.2,0-2.4,0.5-3.2,1.3L21.9,54.8
	c-1.1,0.9-1.7,2.3-1.7,3.6v116.7c0,2.8,2.2,4.9,4.9,4.9h149.7c2.7,0,4.9-2.2,4.9-4.9V58.4C179.8,57,179.2,55.6,178.1,54.8z
	 M153.7,112.2c-0.1,0.8-0.4,1.5-0.9,2c-1.3,1.4-3.4,1.4-4.8,0.2l-3.3-3.1l-24.9,28l-0.4,0.4l-0.4,0.4l-0.5,0.4
	c-4.2,3.3-10.2,2.7-13.8-1.2l-23.1-25.9l-36.9,37.4v-19.2l29.8-30.2l0.5-0.5c4-3.5,10-3.4,13.8,0.4l0.2,0.2l23.1,26l22.6-25.4
	l-3.8-3.5c-0.6-0.5-0.9-1.2-1-2c-0.3-1.8,1-3.6,2.8-3.9l18.6-2.9c0.3,0,0.5-0.1,0.8,0c1.9,0.2,3.2,1.8,3.1,3.6L153.7,112.2z
	 M33.4,57.7l31-27.8h71.1l31,27.8H33.4z"/>
</svg>
