<?xml version="1.0" encoding="utf-8"?>
<!-- Generator: Adobe Illustrator 22.0.1, SVG Export Plug-In . SVG Version: 6.00 Build 0)  -->
<svg version="1.1" id="图层_1" xmlns="http://www.w3.org/2000/svg" xmlns:xlink="http://www.w3.org/1999/xlink" x="0px" y="0px"
	 viewBox="0 0 200 200" enable-background="new 0 0 200 200" xml:space="preserve">
<path fill="#6883D8" d="M100,9.5C50,9.5,9.5,50,9.5,100S50,190.5,100,190.5s90.5-40.5,90.5-90.5S150,9.5,100,9.5z M90.8,140.9
	l-0.7,1.3c-0.1,0.1-0.4,0.4-0.5,0.6c-1.8,2.5-5.3,2.8-7.7,1l-0.2-0.1c-1.1-0.8-1.9-2.1-2.1-3.4v-0.1c0-0.1-0.3-0.2-0.4-0.1
	c-2,1.1-4.2,0.8-5.9-0.5l-0.4-0.2c-1.5-1.2-2.3-3.1-2.1-4.9v-0.1c0-0.1-0.3-0.2-0.4-0.1c-2,0.9-4.2,0.7-5.9-0.6l-0.5-0.4
	c-1.6-1.2-2.4-3.2-2-5.2v-0.2c-0.2-0.1-0.3-0.2-0.4-0.1c-1.9,1-4.3,0.8-6-0.5l-0.6-0.5h-0.2c-2.3-1.9-2.5-5.3-0.7-7.6l4.3-5.2
	c1.7-2.2,4.7-2.8,7.1-1.5c2.6,1.4,3.4,4.7,2.2,6.9c0,0-0.1,0.6,0.5,0.5c1.3-0.7,3.1-0.8,4.6-0.2c2.8,1.2,4,4.3,2.9,7.1
	c0,0-0.3,0.7,0.6,0.6c0.7-0.3,1.5-0.4,2.2-0.4c2.9,0.2,5.2,2.8,5.1,5.7v0.1c0.1,0.1,0.1,0.1,0.2,0.1c2.1-0.8,4.4-0.5,6,1
	C91.8,135.8,92.1,138.6,90.8,140.9z M136.4,129.7c-2.4,1.4-5.7,1.1-7.8-1l-0.5-0.5H128v0.1c0.5,2.5-0.6,5-2.7,6.5
	c-2.7,1.7-6.1,1.3-8.3-0.9l-0.5-0.5h-0.1v0.1c0.5,2.5-0.5,5-2.6,6.5c-2.6,1.7-6.1,1.3-8.3-0.9l-0.5-0.5h-0.1v0.1
	c0.3,1.7,0,3.4-1,4.9c-2.1,2.9-6,3.6-8.9,1.6v-0.1l0.6-1.1c2.7-4.5,1.9-10.1-1.6-13.9c-1.7-1.7-3.9-2.8-6.2-3.2
	c-1.4-2.5-3.8-4.2-6.5-5.1c-1.1-3.8-4-6.7-7.8-7.7c-0.6-2.2-2-4.1-3.7-5.6c-4.7-3.9-11.8-3.3-15.7,1.5l-4.4,5.4h-6.2
	c-1.6,0-2.9-1.2-3.5-2.7V72c0-1.6,1.3-2.8,2.9-2.8h20.7c0.2,0,0.5,0,0.7,0.1c0.7,0.4,1,1.3,0.6,2c-1.6,2.6-2,5.8-1.1,8.7
	c1.1,2.8,3.3,5.1,6.2,6.1c5.2,2,11,1.5,16-1.3l15.1-8.4c0.4-0.3,0.9-0.2,1.3,0.2l31.6,38.5l3.9,4.8c0.2,0.3,0.5,0.6,0.7,1
	C140.4,124,139.5,127.9,136.4,129.7z M160,112.6c0,1.6-1.3,2.9-2.9,2.9h-7.2c-1,0-2.1,0.4-2.8,1l-1.6,1.3c-0.4,0.4-1,0.2-1.3-0.1
	l-38.7-47.1c-1-1.2-2.7-1.5-4-0.7l-17.7,9.9c-3.5,2-7.8,2.2-11.6,0.6c-2-0.9-2.9-3.2-2.1-5.2c-0.1-0.6,0.3-1.1,0.8-1.4l20.9-15.9
	c5.7-4.3,13.3-5.4,19.9-2.8l33.2,12.7c2.2,0.9,4.5,1.2,6.7,1.2h5.5c1.6,0,2.9,1.2,2.9,2.8V112.6z"/>
</svg>
