<?xml version="1.0" encoding="utf-8"?>
<!-- Generator: Adobe Illustrator 24.2.1, SVG Export Plug-In . SVG Version: 6.00 Build 0)  -->
<svg version="1.1" id="图层_2" xmlns="http://www.w3.org/2000/svg" xmlns:xlink="http://www.w3.org/1999/xlink" x="0px" y="0px"
	 viewBox="0 0 200 200" enable-background="new 0 0 200 200" xml:space="preserve">
<g>
	<path fill="#333333" d="M100,43.7c2.7,0,4.8-2.1,4.8-4.8v-19c0-2.6-2.2-4.8-4.8-4.8c-2.6,0-4.8,2.1-4.8,4.8v19
		C95.2,41.5,97.3,43.7,100,43.7z"/>
	<path fill="#333333" d="M139.8,54.4c1.8,0,3.4-0.9,4.3-2.4l9.5-16.5c1.4-2.3,0.5-5.3-1.8-6.6c-2.3-1.4-5.3-0.5-6.6,1.8l-9.5,16.5
		c-0.4,0.7-0.7,1.5-0.7,2.4C135,52.2,137.1,54.4,139.8,54.4z"/>
	<path fill="#333333" d="M54.3,52c0.9,1.5,2.5,2.5,4.3,2.5c0.8,0,1.7-0.3,2.5-0.7c2.3-1.4,3.1-4.3,1.8-6.6l-9.5-16.5
		c0-0.1-0.1-0.3-0.2-0.3c-1.4-2.3-4.4-3-6.7-1.5c-2.3,1.4-3,4.4-1.5,6.7L54.3,52z"/>
	<path fill="#333333" d="M173.5,172.9h-16.8v-66c0.1-30.1-24.1-54.3-54.1-54.4h-5c-29.9,0-54.2,24.3-54.3,54.3v66H26.5
		c-3.3,0-6,2.7-6,6c0,3.3,2.7,6,6,6h147c3.3,0,6-2.7,6-6C179.5,175.6,176.8,172.9,173.5,172.9z M74.1,117.2c0-2.7,2.2-4.8,4.8-4.8
		c2.7,0,4.8,2.2,4.8,4.8v25.6c0,2.7-2.2,4.8-4.8,4.8c-2.7,0-4.8-2.2-4.8-4.8V117.2z"/>
</g>
</svg>
