<?xml version="1.0" encoding="utf-8"?>
<!-- Generator: Adobe Illustrator 24.2.1, SVG Export Plug-In . SVG Version: 6.00 Build 0)  -->
<svg version="1.1" id="图层_2" xmlns="http://www.w3.org/2000/svg" xmlns:xlink="http://www.w3.org/1999/xlink" x="0px" y="0px"
	 viewBox="0 0 200 200" enable-background="new 0 0 200 200" xml:space="preserve">
<g>
	<g>
		<path fill="#333333" d="M185.2,33.3c-1.4-1.2-3.4-1.7-5.2-1.4l-46.3,8.2l-11.8-3.9c-3.4-1.1-7,0.7-8.1,4c-1.1,3.3,0.7,7,4,8.1
			l13.4,4.4c0.3,0.1,0.6,0.2,0.9,0.2v51.9l-26.4-8.1c-2.3-0.7-4.6,0.6-5.3,2.8s0.6,4.6,2.8,5.3l28.9,8.9v53.5l-55.4-15.6v-24.1
			c0-2.4-1.9-4.3-4.3-4.3s-4.3,1.9-4.3,4.3v24.2l-42.6,6.7V38.1c0-3.5-2.9-6.4-6.4-6.4s-6.4,2.9-6.4,6.4v127.8
			c0,1.9,0.8,3.6,2.2,4.9c1.4,1.2,3.3,1.8,5.1,1.5l52.9-8.3l59.4,16.7c0.6,0.2,1.1,0.2,1.7,0.2c0.4,0,0.8,0,1.1-0.1l46.9-8.5
			c3-0.6,5.2-3.2,5.2-6.3V38.2C187.5,36.3,186.6,34.5,185.2,33.3z"/>
	</g>
	<g>
		<path fill="#333333" d="M68.5,110.9c1.2,1.7,3.1,2.7,5.2,2.7c2.1,0,4-1,5.2-2.7c5.8-8.3,24.9-35.5,26.9-39.3c2.6-5,4-10.7,4-16.3
			c0-20-16.2-36.2-36.2-36.2S37.3,35.3,37.3,55.3c0,5.5,1.3,10.9,4,16.2C43.5,75.6,62.7,102.7,68.5,110.9z M73.6,44.6
			c5.9,0,10.7,4.8,10.7,10.7S79.5,66,73.6,66s-10.7-4.8-10.7-10.7S67.6,44.6,73.6,44.6z"/>
	</g>
</g>
</svg>
