<?xml version="1.0" encoding="utf-8"?>
<!-- Generator: Adobe Illustrator 22.0.1, SVG Export Plug-In . SVG Version: 6.00 Build 0)  -->
<svg version="1.1" id="layer1" xmlns="http://www.w3.org/2000/svg" xmlns:xlink="http://www.w3.org/1999/xlink" x="0px" y="0px"
	 viewBox="0 0 200 200" enable-background="new 0 0 200 200" xml:space="preserve">
<g id="图层_2_1_">
	<path d="M189.6,98.2L159.8,74c-1.5-1.2-3.8-0.2-3.8,1.8v16.7h-48.5V44.1h16.7c2,0,3.1-2.3,1.8-3.8l-24.2-29.9
		c-0.9-1.2-2.7-1.2-3.6,0L74,40.3c-1.2,1.5-0.2,3.8,1.8,3.8h16.7v48.4H44.1V75.8c0-2-2.3-3.1-3.8-1.8L10.4,98.2
		c-1.2,0.9-1.2,2.7,0,3.6L40.3,126c1.5,1.2,3.8,0.2,3.8-1.8v-16.7h48.4v48.4H75.8c-2,0-3.1,2.3-1.8,3.8l24.2,29.9
		c0.9,1.2,2.7,1.2,3.6,0l24.2-29.9c1.2-1.5,0.1-3.8-1.8-3.8h-16.7v-48.5h48.4v16.7c0,2,2.3,3.1,3.8,1.8l29.9-24.2
		C190.8,100.9,190.8,99.1,189.6,98.2L189.6,98.2z"/>
</g>
</svg>
