<?xml version="1.0" encoding="utf-8"?>
<!-- Generator: Adobe Illustrator 24.2.1, SVG Export Plug-In . SVG Version: 6.00 Build 0)  -->
<svg version="1.1" id="图层_2" xmlns="http://www.w3.org/2000/svg" xmlns:xlink="http://www.w3.org/1999/xlink" x="0px" y="0px"
	 viewBox="0 0 200 200" enable-background="new 0 0 200 200" xml:space="preserve">
<g>
	<path fill="#333333" d="M121.4,38.6H78.6c-5.5,0-10-4.5-10-10V28c0-5.5,4.5-10,10-10h42.7c5.5,0,10,4.5,10,10v0.6
		C131.4,34.1,126.9,38.6,121.4,38.6z"/>
	<path fill="#333333" d="M68.7,134.1c-1.1-1.1-2.8-1.1-3.8,0l-2.4,2.4c-0.5,0.5-0.8,1.2-0.8,1.9v4.9l0.2,4.6
		c0.1,1.4,1.2,2.5,2.6,2.6l4.4,0.1h4.9c0.7,0,1.4-0.3,1.9-0.8l2.4-2.4c1.1-1.1,1.1-2.8,0-3.8L68.7,134.1z"/>
	<path fill="#333333" d="M156.4,31.5h-16.9v5.4c0,6.9-5.6,12.5-12.5,12.5H70.6c-6.9,0-12.5-5.6-12.5-12.5v-5.4H43.6
		C36.6,31.5,31,37.1,31,44v125.5c0,6.9,5.6,12.5,12.5,12.5h112.9c6.9,0,12.5-5.6,12.5-12.5V44C169,37.1,163.4,31.5,156.4,31.5z
		 M108,80.9l6.5-6.4c1.3-1.4,3.2-2.1,5.1-2.1s3.8,0.8,5.1,2.1l13.3,13.2c1.3,1.4,2.1,3.2,2.1,5.1s-0.8,3.8-2.1,5.1l-6.5,6.5
		c-1.1,1.1-2.8,1.1-3.8,0L108,84.7C106.9,83.6,106.9,81.9,108,80.9z M76.8,157.8H57.1c-1.5,0-2.7-1.2-2.7-2.7v-19.7
		c0-0.7,0.3-1.4,0.8-1.9l42.3-42.3c1.1-1.1,2.8-1.1,3.8,0L121,111c1.1,1.1,1.1,2.8,0,3.8l-42.3,42.3
		C78.2,157.6,77.5,157.8,76.8,157.8z M147.5,150.6c0,4-3.2,7.2-7.2,7.2h-23.1c-4,0-7.2-3.2-7.2-7.2v0c0-4,3.2-7.2,7.2-7.2h23.1
		C144.3,143.4,147.5,146.6,147.5,150.6L147.5,150.6z"/>
</g>
</svg>
