<?xml version="1.0" encoding="utf-8"?>
<!-- Generator: Adobe Illustrator 22.0.1, SVG Export Plug-In . SVG Version: 6.00 Build 0)  -->
<svg version="1.1" id="图层_1" xmlns="http://www.w3.org/2000/svg" xmlns:xlink="http://www.w3.org/1999/xlink" x="0px" y="0px"
	 viewBox="0 0 200 200" enable-background="new 0 0 200 200" xml:space="preserve">
<g id="图层_1_1_">
	<g>
		<path fill="#6883D8" d="M175,126.9V72.5c0-1.6-1.9-2.5-3.2-1.5L137,98.2c-1,0.8-1,2.3,0,3.1l34.8,27.2
			C173.1,129.5,175,128.6,175,126.9z"/>
		<path fill="#6883D8" d="M178.8,169.6L178.8,169.6c0,4.4-3.3,8-7.3,8H29.3c-4,0-7.3-3.6-7.3-8l0,0c0-4.4,3.3-8,7.3-8h142.1
			C175.5,161.6,178.8,165.2,178.8,169.6z"/>
		<path fill="#6883D8" d="M178.7,30.2L178.7,30.2c0,4.4-3.3,8-7.3,8H29.2c-4,0-7.3-3.6-7.3-8l0,0c0-4.4,3.3-8,7.3-8h142.1
			C175.4,22.2,178.7,25.8,178.7,30.2z"/>
		<path fill="#6883D8" d="M122.5,76.6L122.5,76.6c0,4.4-3.3,8-7.3,8H33c-4,0-7.3-3.6-7.3-8l0,0c0-4.4,3.3-8,7.3-8h82.1
			C119.2,68.6,122.5,72.2,122.5,76.6z"/>
		<path fill="#6883D8" d="M122.5,123.1L122.5,123.1c0,4.4-3.3,8-7.3,8H33c-4,0-7.3-3.6-7.3-8l0,0c0-4.4,3.3-8,7.3-8h82.1
			C119.2,115.1,122.5,118.7,122.5,123.1z"/>
	</g>
</g>
</svg>
