<svg id="图层_2" data-name="图层 2" xmlns="http://www.w3.org/2000/svg" viewBox="0 0 200 200"><defs><style>.cls-1{fill:#007aff;}</style></defs><path class="cls-1" d="M175,14.29H25A10.7,10.7,0,0,0,14.29,25V175h0A10.7,10.7,0,0,0,25,185.71H175A10.7,10.7,0,0,0,185.71,175V25A10.7,10.7,0,0,0,175,14.29ZM61.08,145.34a10.47,10.47,0,0,1-20.94,0V126.26a10.47,10.47,0,0,1,20.94,0ZM50.86,94.64A10.72,10.72,0,1,1,61.57,83.93,10.71,10.71,0,0,1,50.86,94.64Zm0-33.43A10.72,10.72,0,1,1,61.57,50.49,10.72,10.72,0,0,1,50.86,61.21ZM109.38,157a9.38,9.38,0,1,1-18.76,0V43a9.38,9.38,0,1,1,18.76,0Zm50.48-11.62a10.47,10.47,0,0,1-20.94,0V126.26a10.47,10.47,0,0,1,20.94,0Zm-10.72-50.7a10.72,10.72,0,1,1,10.72-10.71A10.71,10.71,0,0,1,149.14,94.64Zm0-33.43a10.72,10.72,0,1,1,10.72-10.72A10.72,10.72,0,0,1,149.14,61.21Z"/></svg>