<?xml version="1.0" encoding="utf-8"?>
<!-- Generator: Adobe Illustrator 24.2.1, SVG Export Plug-In . SVG Version: 6.00 Build 0)  -->
<svg version="1.1" id="图层_2" xmlns="http://www.w3.org/2000/svg" xmlns:xlink="http://www.w3.org/1999/xlink" x="0px" y="0px"
	 viewBox="0 0 200 200" enable-background="new 0 0 200 200" xml:space="preserve">
<g>
	<path fill="#333333" d="M80.1,50c1.2-2.1,2.4-3.8,3.8-4.9c1.4-1.2,2.9-1.9,4.6-2.3c1.6-0.4,3.7-0.5,6.3-0.5h10.2v62.4
		c0,2.4-0.1,4.3-0.4,5.5c-0.3,1.3-0.7,2.3-1.2,3c-0.5,0.7-1.2,1.3-1.9,1.8c-0.8,0.5-1.8,0.9-3,1.2c-1.2,0.3-2.7,0.6-4.3,0.9v3h36.9
		v-3c-2.6-0.4-4.6-0.9-5.8-1.4c-1.2-0.5-2.2-1.1-2.9-1.9c-0.7-0.8-1.3-2-1.6-3.4c-0.4-1.4-0.5-3.3-0.5-5.7V42.3h10.2
		c3,0,5.2,0.2,6.7,0.7c1.5,0.4,2.9,1.2,4.2,2.3c1.3,1.1,2.5,2.6,3.7,4.6c1.2,2,2.3,4.8,3.5,8.3h7.9V36.9H68.9v21.2h8
		C77.9,54.9,79,52.2,80.1,50z"/>
	<polygon fill="#333333" points="45.9,36.9 37.5,36.9 37.5,120.7 19.6,120.7 41.7,143.2 63.5,120.7 45.9,120.7 	"/>
	<polygon fill="#333333" points="175.2,153.8 152.6,132 152.6,149.6 68.9,149.6 68.9,158 152.6,158 152.6,175.9 	"/>
</g>
</svg>
