<?xml version="1.0" encoding="utf-8"?>
<!-- Generator: Adobe Illustrator 24.2.1, SVG Export Plug-In . SVG Version: 6.00 Build 0)  -->
<svg version="1.1" id="图层_2" xmlns="http://www.w3.org/2000/svg" xmlns:xlink="http://www.w3.org/1999/xlink" x="0px" y="0px"
	 viewBox="0 0 200 200" enable-background="new 0 0 200 200" xml:space="preserve">
<g>
	<g transform="matrix(1 0 0 1 -188 -126 )">
		<path fill="#333333" d="M312.9,236c0,0,3.5-4.7,7.1-4.7c4.7,0,7.1,4.7,7.1,4.7l31.4,48.4c0,0,1.2,1.2,1.2,3.5
			c0,4.7-5.8,8.3-9.3,8.3h-59.9c-3.5,0-7.1-3.5-7.1-8.3c0-2.4,1.2-3.5,1.2-3.5L312.9,236z M321.2,241.9c0,0,0-1.2-1.2-1.2
			c-1.2,0-1.2,1.2-1.2,1.2l0,0l-23.6,42.5c0,0,0,0,0,1.2c0,1.2,1.2,2.4,2.4,2.4H346c1.2,0,2.4-1.2,2.4-2.4v-1.2L321.2,241.9
			L321.2,241.9C321.2,243.1,321.2,241.9,321.2,241.9z M315.2,282.1c0-2.4,2.4-4.7,4.7-4.7c2.4,0,4.7,2.4,4.7,4.7s-2.4,4.7-4.7,4.7
			C317.6,286.8,315.2,284.5,315.2,282.1z M320,252.5c2.4,0,4.7,1.2,4.7,3.5l-2.4,15.4c0,1.2-1.2,2.4-2.4,2.4c-1.2,0-2.4-1.2-2.4-2.4
			l-2.4-15.4C315.2,254.9,317.6,252.5,320,252.5L320,252.5z"/>
	</g>
	<g>
		<path fill="#333333" d="M124.3,73.9H56.8c-2.8,0-5-2.2-5-5s2.2-5,5-5h67.5c2.8,0,5,2.2,5,5S127.1,73.9,124.3,73.9z"/>
	</g>
	<g>
		<path fill="#333333" d="M107.2,102.5H56.8c-2.8,0-5-2.2-5-5s2.2-5,5-5h50.4c2.8,0,5,2.2,5,5S109.9,102.5,107.2,102.5z"/>
	</g>
	<g>
		<path fill="#333333" d="M96.3,131.2H56.8c-2.8,0-5-2.2-5-5c0-2.8,2.2-5,5-5h39.5c2.8,0,5,2.2,5,5C101.3,128.9,99,131.2,96.3,131.2
			z"/>
	</g>
	<path fill="#333333" d="M72.6,155.4H48.4c-4.4,0-8-3.6-8-8V49.7c0-4.4,3.6-8,8-8h7.9v-12h-7.9c-11,0-20,9-20,20v97.6
		c0,11,9,20,20,20h24.2c3.3,0,6-2.7,6-6S75.9,155.4,72.6,155.4z"/>
	<g>
		<path fill="#333333" d="M109.8,29.7H75.3c-3.3,0-6,2.7-6,6v0c0,3.3,2.7,6,6,6h34.6c3.3,0,6-2.7,6-6v0
			C115.8,32.4,113.1,29.7,109.8,29.7z"/>
		<path fill="#333333" d="M136.9,29.7h-8v12h8c4.4,0,8,3.6,8,8v44.7c0,3.3,2.7,6,6,6s6-2.7,6-6V49.7
			C156.9,38.7,147.9,29.7,136.9,29.7z"/>
	</g>
</g>
</svg>
