<?xml version="1.0" encoding="utf-8"?>
<!-- Generator: Adobe Illustrator 24.2.1, SVG Export Plug-In . SVG Version: 6.00 Build 0)  -->
<svg version="1.1" id="图层_2" xmlns="http://www.w3.org/2000/svg" xmlns:xlink="http://www.w3.org/1999/xlink" x="0px" y="0px"
	 viewBox="0 0 200 200" enable-background="new 0 0 200 200" xml:space="preserve">
<g>
	<path fill="#333333" d="M12.5,20.3c0-0.3,0.1-0.5,0.3-0.7s0.4-0.3,0.7-0.3h6.2c0.3,0,0.5,0.1,0.7,0.3s0.3,0.4,0.3,0.7v152.1h165.8
		c0.3,0,0.5,0.1,0.7,0.3s0.3,0.4,0.3,0.7v6.2c0,0.3-0.1,0.5-0.3,0.7s-0.4,0.3-0.7,0.3h-174V20.3z"/>
	<path fill="#333333" d="M111.4,113h48.8v48.8h-48.8V113z M160.2,101.4h-48.8V38.8c0-1.9,1.5-3.4,3.4-3.4h42.7
		c1.5,0,2.7,1.2,2.7,2.7L160.2,101.4L160.2,101.4z M45.3,132.2h48.8v29.7H45.3L45.3,132.2z M94.2,120.5H45.3V74.8
		c0-1.9,1.5-3.4,3.4-3.4h42.7c1.5,0,2.7,1.2,2.7,2.7L94.2,120.5L94.2,120.5z"/>
</g>
</svg>
