<svg id="图层_1" data-name="图层 1" xmlns="http://www.w3.org/2000/svg" viewBox="0 0 200 200"><path d="M79.15,121.53A6.27,6.27,0,0,0,80,122.6a109.12,109.12,0,0,0,15.71,15.61l5.34,4.27,5.33-4.27A123.19,123.19,0,0,0,122,122.5a5.56,5.56,0,0,0,.88-1.17c10.86-14.15,24.44-34.71,27.54-52.56A49.84,49.84,0,0,0,151,62a48.22,48.22,0,0,0-14.93-35.2A50.6,50.6,0,0,0,101,12.71,49.92,49.92,0,0,0,66,26.78a48.57,48.57,0,0,0-15,35.49,45.31,45.31,0,0,0,.58,6.5C54.81,87.88,70.13,109.89,79.15,121.53Zm21.92-77c12.51,0,22.59,9.8,22.59,21.92s-10.18,21.92-22.59,21.92-22.6-9.79-22.6-21.92S88.56,44.52,101.07,44.52Z"/><path d="M170.6,150.82H29.4c-4,0-7.08-2.81-7.08-6s3-6,7.08-6H51.51a6.11,6.11,0,1,0,0-12.22H29.4c-10.67,0-19.4,8.05-19.4,18.23S18.83,163,29.4,163H170.6c4,0,7.08,2.81,7.08,6s-3,6-7.08,6H47.05a6.17,6.17,0,0,0-6.21,6.11,6.1,6.1,0,0,0,6.21,6.11H170.6c10.67,0,19.4-8.05,19.4-18.23S181.27,150.82,170.6,150.82Z"/></svg>