<?xml version="1.0" encoding="utf-8"?>
<!-- Generator: Adobe Illustrator 24.2.1, SVG Export Plug-In . SVG Version: 6.00 Build 0)  -->
<svg version="1.1" id="图层_2" xmlns="http://www.w3.org/2000/svg" xmlns:xlink="http://www.w3.org/1999/xlink" x="0px" y="0px"
	 viewBox="0 0 200 200" enable-background="new 0 0 200 200" xml:space="preserve">
<path fill="#333333" d="M90.6,109.4c2.6,2.6,2.8,6.7,0.6,9.6l-0.6,0.7l-45.8,45.8l33.2,0c3.7,0,6.8,2.8,7.2,6.4l0.1,0.9
	c0,3.7-2.8,6.8-6.4,7.2L78,180H27.3l-0.5,0l-0.9-0.1l-0.8-0.2l-0.8-0.3l-0.7-0.4l-0.7-0.5l-0.7-0.6c-0.3-0.3-0.5-0.5-0.7-0.8
	l-0.5-0.8l-0.4-0.8l-0.3-0.8l-0.2-1.1l0-0.9v-50.9c0-4,3.3-7.3,7.3-7.3c3.7,0,6.8,2.8,7.2,6.4l0.1,0.8l0,33.4l45.8-45.8
	C83.2,106.6,87.8,106.6,90.6,109.4L90.6,109.4z M122,20h50.7l0.5,0l0.9,0.1l0.8,0.2l0.8,0.3l0.7,0.4l0.7,0.5l0.7,0.6
	c0.3,0.3,0.5,0.5,0.7,0.8l0.5,0.8l0.4,0.8l0.3,0.8l0.2,1.1l0,0.8v50.9c0,4-3.3,7.3-7.3,7.3c-3.7,0-6.8-2.8-7.2-6.4l-0.1-0.8V44.8
	l-45.8,45.8c-2.8,2.8-7.4,2.8-10.3,0c-2.6-2.6-2.8-6.7-0.6-9.6l0.6-0.7l45.8-45.8H122c-3.7,0-6.8-2.8-7.2-6.4l-0.1-0.9
	c0-3.7,2.8-6.8,6.4-7.2L122,20z"/>
</svg>
