<?xml version="1.0" encoding="utf-8"?>
<!-- Generator: Adobe Illustrator 24.2.1, SVG Export Plug-In . SVG Version: 6.00 Build 0)  -->
<svg version="1.1" id="图层_2" xmlns="http://www.w3.org/2000/svg" xmlns:xlink="http://www.w3.org/1999/xlink" x="0px" y="0px"
	 viewBox="0 0 200 200" enable-background="new 0 0 200 200" xml:space="preserve">
<path fill="#333333" d="M100,12c-48.6,0-88,39.4-88,88s39.4,88,88,88s88-39.4,88-88S148.6,12,100,12z M100,158
	c-9.5,0-18.8-3-26.8-8.6c-6-4.2-9.7-8.8-10.6-10.1c-1.8-2.4-1.3-5.9,1.1-7.7c2.4-1.8,5.9-1.3,7.7,1.1c1.1,1.5,11.2,14.3,28.6,14.3
	c1.8,0,18.2-0.4,28.6-14.3c1.8-2.4,5.3-2.9,7.7-1.1c2.4,1.8,2.9,5.3,1.1,7.7c-5.7,7.6-13.7,13.2-23,16.3
	C107.4,157.8,101.6,158,100,158z M57.3,72.6c6.8,0,12.4,5.5,12.4,12.4s-5.5,12.4-12.4,12.4S44.9,91.9,44.9,85
	C44.9,78.2,50.5,72.6,57.3,72.6z M142.7,97.4c-6.8,0-12.4-5.5-12.4-12.4c0-6.8,5.5-12.4,12.4-12.4c6.8,0,12.4,5.5,12.4,12.4
	C155.1,91.9,149.5,97.4,142.7,97.4z"/>
</svg>
