<?xml version="1.0" encoding="utf-8"?>
<!-- Generator: Adobe Illustrator 24.2.1, SVG Export Plug-In . SVG Version: 6.00 Build 0)  -->
<svg version="1.1" id="图层_2" xmlns="http://www.w3.org/2000/svg" xmlns:xlink="http://www.w3.org/1999/xlink" x="0px" y="0px"
	 viewBox="0 0 200 200" enable-background="new 0 0 200 200" xml:space="preserve">
<g>
	<path fill="#333333" d="M98.2,57.2c11,1.1,20.2-8.1,19.1-19.1c-0.8-8.1-7.4-14.7-15.5-15.5c-11-1.1-20.2,8.1-19.1,19.1
		C83.5,49.8,90.1,56.4,98.2,57.2z M101.8,82.8c-11-1.1-20.2,8.1-19.1,19.1c0.8,8.1,7.4,14.7,15.5,15.5c11,1.1,20.2-8.1,19.1-19.1
		C116.5,90.2,109.9,83.6,101.8,82.8z M101.8,142.8c-11-1.1-20.2,8.1-19.1,19.1c0.8,8.2,7.4,14.8,15.5,15.6
		c11,1.1,20.2-8.1,19.1-19.1C116.5,150.2,109.9,143.6,101.8,142.8z"/>
</g>
</svg>
