<svg id="图层_2" data-name="图层 2" xmlns="http://www.w3.org/2000/svg" viewBox="0 0 200 200"><defs><style>.cls-1{fill:#007aff;}</style></defs><path class="cls-1" d="M179.34,13.08l-158.68.28a7.3,7.3,0,0,0-7.74,7.73v158.1a7.3,7.3,0,0,0,7.74,7.73l158.68-.28a7.31,7.31,0,0,0,7.74-7.74V20.81A7.31,7.31,0,0,0,179.34,13.08Zm-15,33.25V71.49a5.71,5.71,0,0,1-5.71,5.71h-5.72a5.71,5.71,0,0,1-5.71-5.71V46.33a5.71,5.71,0,0,1,5.71-5.71h5.72A5.71,5.71,0,0,1,164.3,46.33Zm-37.15,0V71.49a5.71,5.71,0,0,1-5.72,5.71h-5.71A5.7,5.7,0,0,1,110,71.49V46.33a5.71,5.71,0,0,1,5.71-5.71h5.71A5.72,5.72,0,0,1,127.15,46.33ZM90,46.33V71.49a5.7,5.7,0,0,1-5.71,5.71H78.57a5.71,5.71,0,0,1-5.72-5.71V46.33a5.72,5.72,0,0,1,5.72-5.71h5.71A5.71,5.71,0,0,1,90,46.33Zm-37.15,0V71.49a5.71,5.71,0,0,1-5.71,5.71H41.41a5.71,5.71,0,0,1-5.71-5.71V46.33a5.71,5.71,0,0,1,5.71-5.71h5.72A5.71,5.71,0,0,1,52.84,46.33ZM168.93,172.47l-137.86.28a3.65,3.65,0,0,1-3.86-3.87v-59.5H45.57a5.71,5.71,0,0,1,5.72,5.71v23.27a7.49,7.49,0,0,0,7.49,7.49h82.47a7.5,7.5,0,0,0,7.49-7.49V115.09a5.7,5.7,0,0,1,5.71-5.71h18.34V168.6A3.65,3.65,0,0,1,168.93,172.47Z"/></svg>