<?xml version="1.0" encoding="utf-8"?>
<!-- Generator: Adobe Illustrator 24.2.1, SVG Export Plug-In . SVG Version: 6.00 Build 0)  -->
<svg version="1.1" id="图层_2" xmlns="http://www.w3.org/2000/svg" xmlns:xlink="http://www.w3.org/1999/xlink" x="0px" y="0px"
	 viewBox="0 0 200 200" enable-background="new 0 0 200 200" xml:space="preserve">
<path fill="#333333" d="M173.4,134c2.5-6.9,3.8-14.5,3.8-22.1c0-30.3-18.3-56.7-44.8-67.5c-0.6-0.6-0.6-1.3-0.6-1.3
	c0-15.8-13.2-29-29-29s-29,13.2-29,29c0,0.6,0,0.6,0,1.3C47.3,55.9,29,81.7,29,112c0,6.9,1.3,13.2,2.5,18.9
	c-9.5,5-15.8,14.5-15.8,25.9c0,15.8,13.2,29,29,29c8.8,0,16.4-3.8,21.4-10.1c10.7,6.3,23.3,9.5,36.6,9.5c12,0,22.7-3.2,32.8-8.2
	c5,5,12,8.2,19.5,8.2c15.8,0,29-13.2,29-29C184.8,147.3,180.4,139.1,173.4,134z M84.5,42.6c1.3-1.3,3.2-1.3,4.4,0l8.2,8.8l20.2-19.5
	c1.3-1.3,3.2-1.3,4.4,0c1.3,1.3,1.3,3.2,0,4.4L99.7,58.4C99,59,98.4,59,97.8,59l0,0c-0.6,0-1.9-0.6-2.5-1.3L84.5,47
	C83.3,45.8,83.3,43.9,84.5,42.6z M41.6,171.9c-0.6,0.6-1.3,0.6-1.9,0.6l0,0c-0.6,0-1.9-0.6-2.5-1.3l-10.7-10.7
	c-1.3-1.3-1.3-3.2,0-4.4c1.3-1.3,3.2-1.3,4.4,0l8.2,8.8l20.2-19.5c1.3-1.3,3.2-1.3,4.4,0s1.3,3.2,0,4.4L41.6,171.9z M72.5,164.9
	c0.6-2.5,1.3-5,1.3-8.2c0-15.8-13.2-29-29-29c-0.6,0-0.6,0-1.3,0c-1.3-5-1.9-10.7-1.9-15.8c0-24.6,14.5-46,35.3-55.5
	c5,9.5,14.5,15.8,25.9,15.8s20.8-6.3,25.9-15.8C149.5,66,164,87.4,164,112c0,5.7-0.6,11.3-2.5,16.4c-1.9-0.6-3.8-0.6-6.3-0.6
	c-15.8,0-29,13.2-29,29c0,3.8,0.6,7.6,1.9,10.7c-7.6,3.8-16.4,5.7-25.9,5.7C92.1,173.1,81.4,170,72.5,164.9z M138.1,162.4
	c-3.2,0-5.7-2.5-5.7-5.7c0-3.2,2.5-5.7,5.7-5.7c3.2,0,5.7,2.5,5.7,5.7C143.8,159.9,141.3,162.4,138.1,162.4z M155.8,162.4
	c-3.2,0-5.7-2.5-5.7-5.7c0-3.2,2.5-5.7,5.7-5.7c3.2,0,5.7,2.5,5.7,5.7C161.4,159.9,158.9,162.4,155.8,162.4z M172.8,162.4
	c-3.2,0-5.7-2.5-5.7-5.7c0-3.2,2.5-5.7,5.7-5.7c3.2,0,5.7,2.5,5.7,5.7C178.5,159.9,175.9,162.4,172.8,162.4z"/>
</svg>
