<?xml version="1.0" encoding="utf-8"?>
<!-- Generator: Adobe Illustrator 24.2.1, SVG Export Plug-In . SVG Version: 6.00 Build 0)  -->
<svg version="1.1" id="图层_2" xmlns="http://www.w3.org/2000/svg" xmlns:xlink="http://www.w3.org/1999/xlink" x="0px" y="0px"
	 viewBox="0 0 200 200" enable-background="new 0 0 200 200" xml:space="preserve">
<path fill="#333333" d="M178.9,158.8c3.4,0,6.1,2.7,6.1,6.1v0.8c0,3.4-2.7,6.1-6.1,6.1H21.1c-3.4,0-6.1-2.7-6.1-6.1V165
	c0-3.4,2.7-6.1,6.1-6.1H178.9L178.9,158.8z M61.2,67.3c3.4,0,6.1,2.7,6.1,6.1v72.7c0,3.4-2.7,6.1-6.1,6.1h-27
	c-3.4,0-6.1-2.7-6.1-6.1V73.4c0-3.4,2.7-6.1,6.1-6.1H61.2z M165.8,86.9c3.4,0,6.1,2.7,6.1,6.1v53.1c0,3.4-2.7,6.1-6.1,6.1h-27
	c-3.4,0-6.1-2.7-6.1-6.1V93.1c0-3.4,2.7-6.1,6.1-6.1H165.8z M113.5,28.1c3.4,0,6.1,2.7,6.1,6.1v112c0,3.4-2.7,6.1-6.1,6.1h-27
	c-3.4,0-6.1-2.7-6.1-6.1v-112c0-3.4,2.7-6.1,6.1-6.1L113.5,28.1z"/>
</svg>
