<?xml version="1.0" encoding="utf-8"?>
<!-- Generator: Adobe Illustrator 24.2.1, SVG Export Plug-In . SVG Version: 6.00 Build 0)  -->
<svg version="1.1" id="图层_2" xmlns="http://www.w3.org/2000/svg" xmlns:xlink="http://www.w3.org/1999/xlink" x="0px" y="0px"
	 viewBox="0 0 200 200" enable-background="new 0 0 200 200" xml:space="preserve">
<g>
	<g>
		<path fill="#333333" d="M172,165.5H28c-3.3,0-6,2.7-6,6s2.7,6,6,6h144c3.3,0,6-2.7,6-6S175.3,165.5,172,165.5z"/>
	</g>
	<g>
		<path fill="#333333" d="M122,142.5h28c5.5,0,10-4.5,10-10v-54c0-5.5-4.5-10-10-10h-28c-5.5,0-10,4.5-10,10v54
			C112,138,116.5,142.5,122,142.5z"/>
	</g>
	<g>
		<path fill="#333333" d="M48,142.5h28c5.5,0,10-4.5,10-10v-100c0-5.5-4.5-10-10-10H48c-5.5,0-10,4.5-10,10v100
			C38,138,42.5,142.5,48,142.5z"/>
	</g>
</g>
</svg>
