<svg id="图层_1" data-name="图层 1" xmlns="http://www.w3.org/2000/svg" viewBox="0 0 200 200"><path d="M128.83,77.15c-4.91,0-8.18-3.27-8.18-8.18V11.69H38.83A20.26,20.26,0,0,0,18.37,32.15V171.24a20.26,20.26,0,0,0,20.46,20.45H161.56A20.25,20.25,0,0,0,182,171.24V77.15ZM91.58,145H50.67c-4.91,0-8.18-3.27-8.18-8.18s3.27-8.18,8.18-8.18H91.58c4.91,0,8.18,3.27,8.18,8.18S96.49,145,91.58,145Zm40.91-28.64H50.67c-4.91,0-8.18-3.27-8.18-8.18S45.76,100,50.67,100h81.82a8.2,8.2,0,0,1,8.18,8.18C140.67,113.09,137.4,116.36,132.49,116.36Z"/><polygon points="137.01 16.6 137.01 60.78 177.1 60.78 137.01 16.6"/></svg>