<?xml version="1.0" encoding="utf-8"?>
<!-- Generator: Adobe Illustrator 22.0.1, SVG Export Plug-In . SVG Version: 6.00 Build 0)  -->
<svg version="1.1" id="图层_1" xmlns="http://www.w3.org/2000/svg" xmlns:xlink="http://www.w3.org/1999/xlink" x="0px" y="0px"
	 viewBox="0 0 200 200" enable-background="new 0 0 200 200" xml:space="preserve">
<g>
	<path d="M140,140H60V60h40V46.7H60c-7.4,0-13.3,6-13.3,13.3v80c0,7.4,6,13.3,13.3,13.3h80c7.4,0,13.3-6,13.3-13.3V93.3H140V140z"/>
	<polygon points="140,46.7 133.3,53.3 133.3,53.3 133.3,53.3 113.3,73.3 113.3,73.3 113.3,73.3 93.3,93.3 93.3,93.3 93.3,93.3 
		80,106.7 80,120 93.3,120 106.7,106.7 106.7,106.7 106.7,106.7 126.7,86.7 126.7,86.7 126.7,86.7 146.7,66.7 146.7,66.7 
		146.7,66.7 153.3,60 153.3,46.7 	"/>
</g>
</svg>
