<?xml version="1.0" encoding="utf-8"?>
<!-- Generator: Adobe Illustrator 24.2.1, SVG Export Plug-In . SVG Version: 6.00 Build 0)  -->
<svg version="1.1" id="图层_2" xmlns="http://www.w3.org/2000/svg" xmlns:xlink="http://www.w3.org/1999/xlink" x="0px" y="0px"
	 viewBox="0 0 200 200" enable-background="new 0 0 200 200" xml:space="preserve">
<g>
	<path fill="#333333" d="M100,21.2c43.4,0,78.8,35.3,78.8,78.7c0,43.4-35.3,78.8-78.8,78.8S21.2,143.4,21.2,100
		C21.2,56.6,56.6,21.2,100,21.2 M100,10c-49.7,0-90,40.3-90,90c0,49.7,40.3,90,90,90s90-40.3,90-90C190,50.3,149.7,10,100,10L100,10
		z"/>
	<path fill="#333333" d="M87.7,132.9c0,5.1-4.2,9.2-9.2,9.2c-5.1,0-9.2-4.2-9.2-9.2V67.1c0-5.1,4.2-9.2,9.2-9.2
		c5.1,0,9.2,4.2,9.2,9.2V132.9z M130.8,132.9c0,5.1-4.2,9.2-9.2,9.2c-5.1,0-9.2-4.2-9.2-9.2V67.1c0-5.1,4.2-9.2,9.2-9.2
		c5.1,0,9.2,4.2,9.2,9.2V132.9z"/>
</g>
</svg>
