<?xml version="1.0" encoding="utf-8"?>
<!-- Generator: Adobe Illustrator 24.2.1, SVG Export Plug-In . SVG Version: 6.00 Build 0)  -->
<svg version="1.1" id="图层_2" xmlns="http://www.w3.org/2000/svg" xmlns:xlink="http://www.w3.org/1999/xlink" x="0px" y="0px"
	 viewBox="0 0 200 200" enable-background="new 0 0 200 200" xml:space="preserve">
<path fill="#333333" d="M57.3,109.9c-0.5,1.4-0.7,3-0.7,4.5v14.5c0,8,6.5,14.5,14.5,14.5h0h14.5c8,0,14.5-6.5,14.5-14.5v0v-14.5
	c0-1.6-0.3-3.1-0.7-4.5c21.6,5.8,36.9,20.2,36.9,37.1v10.9c0,8-6.5,14.5-14.5,14.5h0H34.9c-8,0-14.5-6.5-14.5-14.5V147
	C20.4,130.1,35.7,115.7,57.3,109.9L57.3,109.9z M155.9,158c1.3-2.2,2-4.7,2-7.3v-10.9c0-14.4-11.9-27.1-29.7-34.1
	c-2.5-1-3.4-4.1-1.7-6.2c6.1-7.6,9.7-17.6,9.7-28.5c0-7.9-1.9-15.3-5.3-21.6c15.1,1.1,27,15.2,27,32.5c0,11.3-5.1,21.2-12.8,27
	c20,4.3,34.5,16.5,34.5,30.9v11c0,4-3.2,7.2-7.2,7.2h0H155.9L155.9,158z M77.9,114.5c4.2-0.3,7.7,3,7.7,7.2v7.2
	c0,4.8-4.6,8.5-9.6,6.9c-2.9-0.9-4.9-3.7-4.9-6.8v-0.1v-7.2C71.1,118,74.1,114.7,77.9,114.5L77.9,114.5z M78.3,107.2
	c-20,0-36.2-17.8-36.2-39.8c0-22,16.2-39.8,36.2-39.8s36.2,17.8,36.2,39.8C114.5,89.4,98.3,107.2,78.3,107.2L78.3,107.2z"/>
</svg>
