<?xml version="1.0" encoding="utf-8"?>
<!-- Generator: Adobe Illustrator 22.0.1, SVG Export Plug-In . SVG Version: 6.00 Build 0)  -->
<svg version="1.1" id="图层_1" xmlns="http://www.w3.org/2000/svg" xmlns:xlink="http://www.w3.org/1999/xlink" x="0px" y="0px"
	 viewBox="0 0 200 200" enable-background="new 0 0 200 200" xml:space="preserve">
<path fill="#6883D8" d="M177.4,148l-27.9-43.1l-4.6-7.3l0-0.1c-7.4-11.5-13.7-31.3-13.7-43.2V36.8h2.1c4.6,0,8.4-3.7,8.4-8.3
	s-3.7-8.3-8.3-8.3H66.7c-4.6,0-8.3,3.7-8.3,8.3s3.7,8.3,8.3,8.3h2.2v17.5c0,8.1-3,20.4-7.7,31.4l-1,2.3l-4.9,10.8l-32.6,49.1
	l-0.1,0.1c-5.6,8.8-6.7,17.9-2.8,25c3.9,7.1,12.1,11.2,22.6,11.2h115.1c10.4,0,18.6-4.1,22.5-11.2C184,166,183,156.8,177.4,148z
	 M79.7,83.9c3.6-10.6,5.8-21.4,5.8-29.6V37.6h29v16.7c0,13.7,5.9,33.9,13.9,48.2c-8.6,0.3-19.1-0.7-26.3-6.1c0,0-0.1-0.1-0.1-0.1
	c-0.4-0.3-0.9-0.7-1.3-1.1c0,0-0.1-0.1-0.1-0.1c0,0-0.1-0.1-0.1-0.1C93.3,88.4,85.8,85.2,79.7,83.9z"/>
</svg>
