<svg id="图层_2" data-name="图层 2" xmlns="http://www.w3.org/2000/svg" viewBox="0 0 200 200"><defs><style>.cls-1{fill:#007aff;}</style></defs><path class="cls-1" d="M176,18.76,130.78,12a9.41,9.41,0,0,0-9.41,9.4V47.65h22.1c10.42,0,21.58,8.48,21.58,18.9V178.83H153.23v-109a9.54,9.54,0,0,0-9.76-9.49h-52A9.36,9.36,0,0,0,82,69.56V178.83H70.21V50.89a14.72,14.72,0,0,0-6-11.83h-.14a.14.14,0,0,0-.15-.14L34.73,20.68h-.14a.14.14,0,0,0-.14-.14c-6-3.28-11-3.85-14.68-1.57-3.42,2-5.13,6.13-5.13,12.25V184.45A3.53,3.53,0,0,0,18.21,188H181.79a3.53,3.53,0,0,0,3.57-3.56V28.17A9.41,9.41,0,0,0,176,18.76Zm-123.34,141a.2.2,0,0,1-.2.2H32.72a.2.2,0,0,1-.2-.2V148a.2.2,0,0,1,.2-.2H52.41a.2.2,0,0,1,.2.2Zm0-26.3a.2.2,0,0,1-.2.2H32.72a.2.2,0,0,1-.2-.2V121.67a.19.19,0,0,1,.2-.2H52.41a.19.19,0,0,1,.2.2Zm0-26.3a.2.2,0,0,1-.2.2H32.72a.2.2,0,0,1-.2-.2V95.37a.2.2,0,0,1,.2-.2H52.41a.2.2,0,0,1,.2.2Zm0-26.29a.2.2,0,0,1-.2.2H32.72a.2.2,0,0,1-.2-.2V69.07a.2.2,0,0,1,.2-.2H52.41a.2.2,0,0,1,.2.2ZM124.74,82a.2.2,0,0,1,.2-.2h11.79a.2.2,0,0,1,.2.2V102.1a.2.2,0,0,1-.2.2H124.94a.2.2,0,0,1-.2-.2Zm0,32.66a.2.2,0,0,1,.2-.2h11.79a.2.2,0,0,1,.2.2v20.11a.2.2,0,0,1-.2.2H124.94a.2.2,0,0,1-.2-.2Zm0,33.77a.2.2,0,0,1,.2-.2h11.79a.2.2,0,0,1,.2.2v20.12a.2.2,0,0,1-.2.2H124.94a.2.2,0,0,1-.2-.2ZM98.33,82a.2.2,0,0,1,.2-.2h11.8a.2.2,0,0,1,.2.2V102.1a.2.2,0,0,1-.2.2H98.53a.2.2,0,0,1-.2-.2Zm0,32.66a.2.2,0,0,1,.2-.2h11.8a.2.2,0,0,1,.2.2v20.11a.2.2,0,0,1-.2.2H98.53a.2.2,0,0,1-.2-.2Zm0,33.77a.2.2,0,0,1,.2-.2h11.8a.2.2,0,0,1,.2.2v20.12a.2.2,0,0,1-.2.2H98.53a.2.2,0,0,1-.2-.2Z"/></svg>