<?xml version="1.0" encoding="utf-8"?>
<!-- Generator: Adobe Illustrator 22.0.1, SVG Export Plug-In . SVG Version: 6.00 Build 0)  -->
<svg version="1.1" id="图层_1" xmlns="http://www.w3.org/2000/svg" xmlns:xlink="http://www.w3.org/1999/xlink" x="0px" y="0px"
	 viewBox="0 0 200 200" enable-background="new 0 0 200 200" xml:space="preserve">
<g id="图层_1_1_">
	<path fill="#6883D8" d="M166.3,31.6c0-5.4-4.4-9.8-9.8-9.8H95V56c0,2-2.3,3.2-3.9,2L75.6,47c-0.8-0.6-2-0.6-2.8,0L57.2,57.9
		c-1.6,1.1-3.9,0-3.9-2V21.8h-9.7c-5.4,0-9.8,4.4-9.8,9.8v136.8c0,5.4,4.4,9.8,9.8,9.8h112.9c5.4,0,9.8-4.4,9.8-9.8V31.6z
		 M83.4,95.9h54.4c3.9,0,7,3.1,7,7s-3.1,7-7,7H83.4c-3.9,0-7-3.1-7-7C76.5,99,79.6,95.9,83.4,95.9z M137.4,137.7
		c4,0,7.3,3.3,7.3,7.3s-3.3,7.3-7.3,7.3H83.8c-4,0-7.3-3.3-7.3-7.3s3.3-7.3,7.3-7.3H137.4z M68.6,102.9c0,3.9-3.1,7-7,7s-7-3.1-7-7
		s3.1-7,7-7S68.6,99,68.6,102.9z M68.6,144.7c0,3.9-3.1,7-7,7s-7-3.1-7-7s3.1-7,7-7S68.6,140.8,68.6,144.7z"/>
</g>
</svg>
