<?xml version="1.0" encoding="utf-8"?>
<!-- Generator: Adobe Illustrator 22.0.1, SVG Export Plug-In . SVG Version: 6.00 Build 0)  -->
<svg version="1.1" id="图层_1" xmlns="http://www.w3.org/2000/svg" xmlns:xlink="http://www.w3.org/1999/xlink" x="0px" y="0px"
	 viewBox="0 0 200 200" enable-background="new 0 0 200 200" xml:space="preserve">
<g id="图层_1_1_">
	<path fill="#6883D8" d="M100,14.9c-46.6,0-84.5,33.7-84.5,75.2c0,35.1,27.2,64.7,63.9,72.9l10.3,16.5c1,1.5,2.3,2.9,3.8,3.8
		c5.7,3.6,13.2,1.8,16.7-3.8l10.3-16.5c36.7-8.2,63.9-37.8,63.9-72.9C184.5,48.6,146.6,14.9,100,14.9z M59.8,103.9
		c-7.7,0-13.9-6.2-13.9-13.9s6.2-13.9,13.9-13.9S73.7,82.3,73.7,90S67.5,103.9,59.8,103.9z M100,103.9c-7.7,0-13.9-6.2-13.9-13.9
		s6.2-13.9,13.9-13.9s13.9,6.2,13.9,13.9S107.7,103.9,100,103.9z M140.2,103.9c-7.7,0-13.9-6.2-13.9-13.9s6.2-13.9,13.9-13.9
		s13.9,6.2,13.9,13.9S147.9,103.9,140.2,103.9z"/>
</g>
</svg>
