<?xml version="1.0" encoding="utf-8"?>
<!-- Generator: Adobe Illustrator 24.2.1, SVG Export Plug-In . SVG Version: 6.00 Build 0)  -->
<svg version="1.1" id="图层_2" xmlns="http://www.w3.org/2000/svg" xmlns:xlink="http://www.w3.org/1999/xlink" x="0px" y="0px"
	 viewBox="0 0 200 200" enable-background="new 0 0 200 200" xml:space="preserve">
<g>
	<path fill="#333333" d="M179,122.6l-19.2-91.3c-1.5-6-6.9-10.3-13.1-10.3H54c-6.3,0.1-11.8,4.3-13.8,10.3L21,122.6v42.7
		c0,7.6,6.2,13.8,13.8,13.8h130.5c7.6,0,13.7-6.1,13.8-13.7V122.6z M151.6,158.2c0,3.8-3.1,6.9-6.9,6.9c-3.8,0-6.9-3.1-6.9-6.9v-6.9
		c0-3.8,3.1-6.9,6.9-6.9c3.8,0,6.9,3.1,6.9,6.9L151.6,158.2z M36.8,128.4L54,34.8H146l17.2,93.7H36.8z"/>
	<path fill="#333333" d="M78.8,104.3V59.1c0-4,1.8-6,6.2-6.2h14.9c13.8,0,20.8,6,21,17.9c0,8.4-5.6,13.3-15.5,14.9l14,15
		c1,0.9,1.6,2.1,1.7,3.5c0,3.1-2.6,5.6-5.7,5.6c-0.2,0-0.4,0-0.6,0c-2.4,0-4.1,0-4.9-1.6L91.3,86.9v17.4c0.1,3-2.3,5.5-5.2,5.6
		c-0.3,0-0.6,0-1-0.1C80.9,109.8,78.8,108,78.8,104.3z M91.3,64.2v14h8.7c5,0,7.6-2.3,7.8-6.9c0.2-4.6-2.9-6.9-7.8-7.1L91.3,64.2z"
		/>
</g>
</svg>
