<?xml version="1.0" encoding="utf-8"?>
<!-- Generator: Adobe Illustrator 24.2.1, SVG Export Plug-In . SVG Version: 6.00 Build 0)  -->
<svg version="1.1" id="图层_2" xmlns="http://www.w3.org/2000/svg" xmlns:xlink="http://www.w3.org/1999/xlink" x="0px" y="0px"
	 viewBox="0 0 200 200" enable-background="new 0 0 200 200" xml:space="preserve">
<g>
	<path fill="#333333" d="M177.4,163.6l-30.1-30.1c-0.9-0.9-0.9-0.9-1.7-0.9c8.6-12,13.8-25.8,13.8-42.1c0-38.7-30.9-69.6-69.6-69.6
		S20,51.9,20,90.5s30.9,69.6,69.6,69.6c16.3,0,31.8-6,43.8-15.5c0,0.9,0.9,0.9,0.9,1.7l30.1,30.1c3.4,3.4,9.5,3.4,12.9,0
		C180.8,173.1,180.8,167.9,177.4,163.6L177.4,163.6z M89.7,141.3c-28.4,0-51.6-23.2-51.6-51.6s23.2-51.6,51.6-51.6
		s51.6,23.2,51.6,51.6C141.3,118.9,118.1,141.3,89.7,141.3z"/>
</g>
</svg>
