<?xml version="1.0" encoding="utf-8"?>
<!-- Generator: Adobe Illustrator 24.2.1, SVG Export Plug-In . SVG Version: 6.00 Build 0)  -->
<svg version="1.1" id="图层_2" xmlns="http://www.w3.org/2000/svg" xmlns:xlink="http://www.w3.org/1999/xlink" x="0px" y="0px"
	 viewBox="0 0 200 200" enable-background="new 0 0 200 200" xml:space="preserve">
<path fill="#333333" d="M172.1,18.2H27.9c-8,0-14.4,6.5-14.4,14.4V134c0,8,6.5,14.4,14.4,14.4h61.7v13.4h-23c-5.5,0-10,4.5-10,10
	c0,5.5,4.5,10,10,10h33l0,0h33.9c5.5,0,10-4.5,10-10c0-5.5-4.5-10-10-10h-23.9v-13.4h62.5c8,0,14.4-6.5,14.4-14.4V32.6
	C186.5,24.6,180.1,18.2,172.1,18.2z M67.6,112.4c-12.4,0-22.3-10.1-22.3-23c0-12.7,11-22.7,22-23v22.3H90
	C89.8,100.1,79.8,112.4,67.6,112.4z M76.7,77.3V54.8c11.9,0,20.1,11.1,20.1,22.5H76.7z M149,111.5h-32.3c-3.1,0-5.7-2.6-5.7-5.7
	c0-3.1,2.6-5.7,5.7-5.7H149c3.1,0,5.7,2.6,5.7,5.7C154.7,108.9,152.2,111.5,149,111.5z M149,88.6h-32.3c-3.1,0-5.7-2.6-5.7-5.7
	c0-3.1,2.6-5.7,5.7-5.7H149c3.1,0,5.7,2.6,5.7,5.7C154.7,86.1,152.2,88.6,149,88.6z M149,65.8h-32.3c-3.1,0-5.7-2.6-5.7-5.7
	c0-3.1,2.6-5.7,5.7-5.7H149c3.1,0,5.7,2.6,5.7,5.7C154.7,63.3,152.2,65.8,149,65.8z"/>
</svg>
