<?xml version="1.0" encoding="utf-8"?>
<!-- Generator: Adobe Illustrator 24.2.1, SVG Export Plug-In . SVG Version: 6.00 Build 0)  -->
<svg version="1.1" id="图层_2" xmlns="http://www.w3.org/2000/svg" xmlns:xlink="http://www.w3.org/1999/xlink" x="0px" y="0px"
	 viewBox="0 0 200 200" enable-background="new 0 0 200 200" xml:space="preserve">
<path fill="#333333" d="M172.5,25h-145c-7,0-12.8,5.8-12.8,12.8V134c0,7,5.8,12.8,12.8,12.8h45v18.8H40.9c-2.5,0-4.7,1.8-4.9,4.3
	c-0.3,2.8,1.9,5.2,4.7,5.2h118.4c2.5,0,4.7-1.8,4.9-4.3c0.3-2.8-1.9-5.2-4.7-5.2h-31.8v-18.8h45c7,0,12.8-5.8,12.8-12.8V36.3
	C185.3,29.2,179.5,24.1,172.5,25L172.5,25z M175.1,132.3H27.3c-2.4,0-4.3-1.9-4.3-4.3V39.2c0-2.4,1.9-4.3,4.3-4.3h145.7
	c2.4,0,4.3,1.9,4.3,4.3v91l0,0C177.2,131.3,176.3,132.3,175.1,132.3L175.1,132.3z"/>
</svg>
