<svg id="图层_1" data-name="图层 1" xmlns="http://www.w3.org/2000/svg" viewBox="0 0 200 200"><path d="M104.35,19.46c-.52,0-1,0-1.57,0v83.65H19.13v1.58A84.3,84.3,0,0,0,25.85,138c.33.78.69,1.54,1,2.31L44.2,130a26.9,26.9,0,0,1,31.11,2.66l10.62,9.05a12.17,12.17,0,0,0,15.83,0l41-35.24L124.65,88.69a.86.86,0,0,1-.18-.93.81.81,0,0,1,.79-.53v0h43.11a.89.89,0,0,1,.6.26.76.76,0,0,1,.27.61v42.4a.87.87,0,0,1-.53.79,1,1,0,0,1-.94-.19l-14.93-14.67L105,157.55a17.12,17.12,0,0,1-22.29.08L67.35,144.57a12.15,12.15,0,0,0-14.11-1.2l-18.3,10.85A85.23,85.23,0,1,0,104.35,19.46Z"/><path d="M95.68,10A85.1,85.1,0,0,0,10.46,95.22V96.8h86.8V10ZM77.89,58.75,55.67,89.28a1.12,1.12,0,0,1-2-.87c1.63-5.84,3.26-11.69,5-17.53.14-.53.84-2,.48-2.5s-2.78-.19-3.4-.19h-9a1.14,1.14,0,0,1-1-1.69L67.91,36a1.12,1.12,0,0,1,2,.87l-2.76,9.91c-.64,2.31-1.26,4.55-1.91,6.83-.22.79-1,2.42-.78,3.31,1.26.79,5,.14,6.32.14H77A1.13,1.13,0,0,1,77.89,58.75Z"/></svg>