<?xml version="1.0" encoding="utf-8"?>
<!-- Generator: Adobe Illustrator 24.2.1, SVG Export Plug-In . SVG Version: 6.00 Build 0)  -->
<svg version="1.1" id="图层_2" xmlns="http://www.w3.org/2000/svg" xmlns:xlink="http://www.w3.org/1999/xlink" x="0px" y="0px"
	 viewBox="0 0 200 200" enable-background="new 0 0 200 200" xml:space="preserve">
<g>
	<path fill="#333333" d="M150,114h-44V88h21c5.5,0,10-4.5,10-10V50c0-5.5-4.5-10-10-10h-21V28c0-3.3-2.7-6-6-6c-3.3,0-6,2.7-6,6v12
		H73c-5.5,0-10,4.5-10,10v28c0,5.5,4.5,10,10,10h21v26H50c-5.5,0-10,4.5-10,10v28c0,5.5,4.5,10,10,10h44v10c0,3.3,2.7,6,6,6
		c3.3,0,6-2.7,6-6v-10h44c5.5,0,10-4.5,10-10v-28C160,118.5,155.5,114,150,114z"/>
</g>
</svg>
