<?xml version="1.0" encoding="utf-8"?>
<!-- Generator: Adobe Illustrator 22.0.1, SVG Export Plug-In . SVG Version: 6.00 Build 0)  -->
<svg version="1.1" id="图层_1" xmlns="http://www.w3.org/2000/svg" xmlns:xlink="http://www.w3.org/1999/xlink" x="0px" y="0px"
	 viewBox="0 0 200 200" enable-background="new 0 0 200 200" xml:space="preserve">
<g>
	<polygon fill="#6883D8" points="141.8,189.4 141.8,153.6 177.6,153.6 	"/>
	<path fill="#6883D8" d="M153.7,10.4H46.3c-13.2,0-23.9,10.7-23.9,23.9v131.3c0,13.2,10.7,23.9,23.9,23.9h79.5v-45.8
		c0-3.3,2.7-6,6-6h45.8V34.3C177.6,21.1,166.9,10.4,153.7,10.4z M56.3,112.3c-4.4,0-8-3.6-8-8s3.6-8,8-8s8,3.6,8,8
		S60.7,112.3,56.3,112.3z M56.3,64.3c-4.4,0-8-3.6-8-8s3.6-8,8-8s8,3.6,8,8S60.7,64.3,56.3,64.3z M158.9,103.5c0,3.9-3.1,7-7,7H85.3
		c-3.9,0-7-3.1-7-7v-1c0-3.9,3.1-7,7-7h66.6c3.9,0,7,3.1,7,7V103.5z M158.9,56.8c0,3.9-3.1,7-7,7H85.3c-3.9,0-7-3.1-7-7v-1
		c0-3.9,3.1-7,7-7h66.6c3.9,0,7,3.1,7,7V56.8z"/>
</g>
<g id="图层_1_1_">
</g>
</svg>
