<?xml version="1.0" encoding="utf-8"?>
<!-- Generator: Adobe Illustrator 24.2.1, SVG Export Plug-In . SVG Version: 6.00 Build 0)  -->
<svg version="1.1" id="图层_2" xmlns="http://www.w3.org/2000/svg" xmlns:xlink="http://www.w3.org/1999/xlink" x="0px" y="0px"
	 viewBox="0 0 200 200" enable-background="new 0 0 200 200" xml:space="preserve">
<g>
	<path fill="#333333" d="M20,159.9c-0.2,10.9,8.5,19.9,19.4,20.1c0.2,0,0.5,0,0.7,0h119.8c10.9,0.2,19.9-8.5,20.1-19.4
		c0-0.2,0-0.5,0-0.7V66.6H20V159.9z M59.1,138.5c0-2.5,2-4.6,4.6-4.6h4v-15c0-2.5,2-4.6,4.6-4.6h24.4v-10.5H93c-2.5,0-4.6-2-4.6-4.6
		V87.2c0-2.5,2-4.6,4.6-4.6h14.9c2.5,0,4.6,2,4.6,4.6v12c0,2.5-2,4.6-4.6,4.6h-4v10.5h23.9c2.5,0,4.6,2,4.6,4.6v0.5h-0.1v14.6h4
		c2.5,0,4.6,2,4.6,4.6v12.8c0,2.5-2,4.6-4.6,4.6h-14.9c-2.5,0-4.6-2-4.6-4.6v-12.8c0-2.5,2-4.6,4.6-4.6h3.8v-10.2
		c0-1.3-1-2.3-2.3-2.3H77.1c-1.3,0-2.3,1-2.3,2.3v10.2h3.8c2.5,0,4.6,2,4.6,4.6v12.8c0,2.5-2,4.6-4.6,4.6H63.7c-2.5,0-4.6-2-4.6-4.6
		V138.5z"/>
	<path fill="#333333" d="M160.6,20c-0.2,0-0.5,0-0.7,0H40.1C29.2,19.8,20.2,28.5,20,39.4c0,0.2,0,0.5,0,0.7v17.8h160V40.1
		C180.2,29.2,171.5,20.2,160.6,20z M93.2,46.9V33.6h13.3v13.3H93.2z M133.4,46.9h-13.3V33.6h13.3V46.9z M159.9,46.9h-13.3V33.6h13.3
		V46.9z"/>
</g>
</svg>
