<svg id="图层_1" data-name="图层 1" xmlns="http://www.w3.org/2000/svg" viewBox="0 0 48 48"><defs><style>.cls-1{fill:#ff3939;}</style></defs><title>补充图标</title><path class="cls-1" d="M24,0A24,24,0,1,0,48,24,24,24,0,0,0,24,0Zm0,46A22,22,0,1,1,46,24,22,22,0,0,1,24,46Z"/><path class="cls-1" d="M35,26H33V23a1,1,0,0,0-1-1H25V20h2a2,2,0,0,0,2-2V13a2,2,0,0,0-2-2H21a2,2,0,0,0-2,2v5a2,2,0,0,0,2,2h2v2H16a1,1,0,0,0-1,1v3H13a2,2,0,0,0-2,2v5a2,2,0,0,0,2,2h6a2,2,0,0,0,2-2V28a2,2,0,0,0-2-2H17V24H31v2H29a2,2,0,0,0-2,2v5a2,2,0,0,0,2,2h6a2,2,0,0,0,2-2V28A2,2,0,0,0,35,26ZM21,13h6v5H21ZM19,33H13V28h6Zm16,0H29V28h6Z"/></svg>