<svg id="图层_2" data-name="图层 2" xmlns="http://www.w3.org/2000/svg" viewBox="0 0 200 200"><defs><style>.cls-1{fill:#007aff;}</style></defs><path class="cls-1" d="M154.23,68.14a7.94,7.94,0,0,0-7.93,7.92v90.2a4.13,4.13,0,0,1-4.13,4.13H57.84a4.13,4.13,0,0,1-4.12-4.13V75.74a7.93,7.93,0,0,0-15.84.08v90.42a20,20,0,0,0,20,20h84.32a20,20,0,0,0,20-20V76.06A7.94,7.94,0,0,0,154.23,68.14Z"/><path class="cls-1" d="M178.32,43.89H150.07V33.75a20,20,0,0,0-19.82-20H69.88a20,20,0,0,0-20,20V43.89H21.69a7.92,7.92,0,1,0,0,15.84H178.32a7.92,7.92,0,0,0,0-15.84ZM134.24,33.74V43.89H65.75V33.74a4.14,4.14,0,0,1,4.13-4.12h60.37A4,4,0,0,1,134.24,33.74Z"/><path class="cls-1" d="M82,150.07a7.92,7.92,0,0,0,7.9-7.91V75.9A7.93,7.93,0,0,0,74,75.9v66.3a7.91,7.91,0,0,0,7.9,7.87h0l0-1.89h0Z"/><path class="cls-1" d="M118.07,150.07v-1.89h0l0,1.89a7.9,7.9,0,0,0,7.9-7.91V75.9a7.92,7.92,0,0,0-15.83,0v66.28a7.89,7.89,0,0,0,7.89,7.89Z"/></svg>