<?xml version="1.0" encoding="utf-8"?>
<!-- Generator: Adobe Illustrator 24.2.1, SVG Export Plug-In . SVG Version: 6.00 Build 0)  -->
<svg version="1.1" id="图层_2" xmlns="http://www.w3.org/2000/svg" xmlns:xlink="http://www.w3.org/1999/xlink" x="0px" y="0px"
	 viewBox="0 0 200 200" enable-background="new 0 0 200 200" xml:space="preserve">
<path fill="#333333" d="M123.3,120.7H22.4V38.8c0-5.7,4.7-10.4,10.4-10.4h90.5V120.7z M177.1,69.8h-46V28.4h36.2
	c5.7,0,10.4,4.7,10.4,10.4v30.5C177.6,69.5,177.4,69.8,177.1,69.8z M177.1,120.7h-46V79.3h46c0.3,0,0.5,0.2,0.5,0.5v40.3
	C177.6,120.5,177.4,120.7,177.1,120.7z M167.2,171.6H131v-41.4h46.6v31C177.6,167,172.9,171.6,167.2,171.6z M69,171.6H32.8
	c-5.7,0-10.4-4.7-10.4-10.4v-31H69V171.6z M76.7,130.2h46.6v41.4H76.7V130.2z"/>
</svg>
