<?xml version="1.0" encoding="utf-8"?>
<!-- Generator: Adobe Illustrator 24.2.1, SVG Export Plug-In . SVG Version: 6.00 Build 0)  -->
<svg version="1.1" id="图层_2" xmlns="http://www.w3.org/2000/svg" xmlns:xlink="http://www.w3.org/1999/xlink" x="0px" y="0px"
	 viewBox="0 0 200 200" enable-background="new 0 0 200 200" xml:space="preserve">
<path fill="#333333" d="M35.4,15c-3.7,0-6.8,3.1-6.8,6.8v156.5c0,1.9,0.8,3.6,2,4.8c1.2,1.2,2.9,2,4.8,2c3.7,0,6.8-3.1,6.8-6.8
	v-53.3c5.8-1.5,19.6-7.2,27.2-8.5c7.1-1.2,13.4-1.7,18.8-1.7c24.4,0,35.1,9.6,50.4,10.3c1.3,0.1,2.5,0.1,3.7,0.1
	c10.2,0,16.2-2.1,21.5-2.8c3.8-0.5,7.6-4.2,7.6-8.1l0.1-87.9c0-4.3-3.6-7.7-7.7-7.7c-0.5,0-1.1,0.1-1.7,0.2c-9.2,2-22.9,7-31.3,7.5
	c-0.9,0.1-1.9,0.1-2.9,0.1c-16.5,0-41.7-7.8-64.5-7.8h-2.4C53.3,18.6,47,20.1,42,21.3c-0.1-1.7-0.9-3.2-2-4.3
	C38.9,15.8,37.2,15,35.4,15z"/>
</svg>
