<?xml version="1.0" encoding="utf-8"?>
<!-- Generator: Adobe Illustrator 24.2.1, SVG Export Plug-In . SVG Version: 6.00 Build 0)  -->
<svg version="1.1" id="图层_2" xmlns="http://www.w3.org/2000/svg" xmlns:xlink="http://www.w3.org/1999/xlink" x="0px" y="0px"
	 viewBox="0 0 200 200" enable-background="new 0 0 200 200" xml:space="preserve">
<g>
	<path fill="#333333" d="M164,25.3H36c-5.3,0-9.7,4.4-9.7,9.7v23.3c0,5.3,4.4,9.7,9.7,9.7h128c5.3,0,9.7-4.4,9.7-9.7V35
		C173.7,29.7,169.3,25.3,164,25.3z M48.2,52c0,2.4-1.9,4.3-4.3,4.3c-2.4,0-4.3-1.9-4.3-4.3c0,0,0,0,0,0V41.3c0-2.4,1.9-4.3,4.3-4.3
		c2.4,0,4.3,1.9,4.3,4.3V52z M65.2,52c0,2.4-1.9,4.3-4.3,4.3c-2.4,0-4.3-1.9-4.3-4.3c0,0,0,0,0,0V41.3c0-2.4,1.9-4.3,4.3-4.3
		c2.4,0,4.3,1.9,4.3,4.3V52z"/>
	<path fill="#333333" d="M164,78.7H36c-5.3,0-9.7,4.4-9.7,9.7v23.3c0,5.3,4.4,9.7,9.7,9.7h128c5.3,0,9.7-4.4,9.7-9.7V88.3
		C173.7,83,169.3,78.7,164,78.7z M48.2,105.3c0,2.4-1.9,4.3-4.3,4.3c-2.4,0-4.3-1.9-4.3-4.3c0,0,0,0,0,0V94.7c0-2.4,1.9-4.3,4.3-4.3
		c2.4,0,4.3,1.9,4.3,4.3V105.3z M65.2,105.3c0,2.4-1.9,4.3-4.3,4.3c-2.4,0-4.3-1.9-4.3-4.3c0,0,0,0,0,0V94.7c0-2.4,1.9-4.3,4.3-4.3
		c2.4,0,4.3,1.9,4.3,4.3V105.3z"/>
	<path fill="#333333" d="M164,132H36c-5.3,0-9.7,4.4-9.7,9.7V165c0,5.3,4.4,9.7,9.7,9.7h128c5.3,0,9.7-4.4,9.7-9.7v-23.3
		C173.7,136.4,169.3,132,164,132z M48.2,158.7c0,2.4-1.9,4.3-4.3,4.3c-2.4,0-4.3-1.9-4.3-4.3c0,0,0,0,0,0V148c0-2.4,1.9-4.3,4.3-4.3
		c2.4,0,4.3,1.9,4.3,4.3V158.7z M65.2,158.7c0,2.4-1.9,4.3-4.3,4.3c-2.4,0-4.3-1.9-4.3-4.3c0,0,0,0,0,0V148c0-2.4,1.9-4.3,4.3-4.3
		c2.4,0,4.3,1.9,4.3,4.3V158.7z"/>
</g>
</svg>
