<?xml version="1.0" encoding="utf-8"?>
<!-- Generator: Adobe Illustrator 22.0.1, SVG Export Plug-In . SVG Version: 6.00 Build 0)  -->
<svg version="1.1" id="图层_1" xmlns="http://www.w3.org/2000/svg" xmlns:xlink="http://www.w3.org/1999/xlink" x="0px" y="0px"
	 viewBox="0 0 200 200" enable-background="new 0 0 200 200" xml:space="preserve">
<g id="图层_2_1_">
	<g>
		<path d="M156.5,34c5.2,0,9.5,4.3,9.5,9.5v112.9c0,5.2-4.3,9.5-9.5,9.5h-113c-5.2,0-9.5-4.3-9.5-9.5V43.5c0-5.2,4.3-9.5,9.5-9.5
			H156.5 M156.5,20h-113C30.6,20,20,30.6,20,43.5v112.9c0,13,10.6,23.5,23.5,23.5h112.9c13,0,23.5-10.6,23.5-23.5V43.5
			C180,30.6,169.4,20,156.5,20L156.5,20z"/>
	</g>
	<g>
		<path d="M56.5,93h88v14h-88V93z"/>
	</g>
</g>
</svg>
