<?xml version="1.0" encoding="utf-8"?>
<!-- Generator: Adobe Illustrator 24.2.1, SVG Export Plug-In . SVG Version: 6.00 Build 0)  -->
<svg version="1.1" id="图层_2" xmlns="http://www.w3.org/2000/svg" xmlns:xlink="http://www.w3.org/1999/xlink" x="0px" y="0px"
	 viewBox="0 0 200 200" enable-background="new 0 0 200 200" xml:space="preserve">
<g>
	<g>
		<path fill="#333333" d="M22.7,161.7l33.4-33.6l-14.8-14.8c-0.6-0.7-1-1.5-1.3-2.4c-0.1-0.5-0.2-1.3-0.2-2.4c0-1.8,0.6-3.3,1.8-4.5
			c1.2-1.2,2.7-1.7,4.4-1.7h46c1.5,0,2.9,0.7,4.2,2c1.3,1.3,2,2.7,2,4.2v45.3c0,1.8-0.6,3.3-1.9,4.5c-1.3,1.2-2.7,1.7-4.3,1.7
			c-1.1,0-2.7-0.5-4.7-1.5l-14.8-15L39,177.3c-0.5,0.5-1.2,0.7-2.2,0.7c-0.4,0-0.8-0.1-1.3-0.4c-0.5-0.2-0.9-0.4-1.1-0.4l-11.7-11.7
			c-0.5-0.5-0.7-1.3-0.7-2.4v-0.5C22.1,162.3,22.4,162,22.7,161.7z"/>
	</g>
	<g>
		<path fill="#333333" d="M101.6,46.1c0-1.8,0.6-3.3,1.9-4.5c1.3-1.2,2.7-1.7,4.3-1.7c1.1,0,2.7,0.5,4.7,1.5l14.8,14.8L161,22.7
			c0.5-0.5,1.2-0.7,2.2-0.7c0.4,0,0.8,0.1,1.3,0.4c0.5,0.2,0.9,0.4,1.1,0.4l11.7,11.7c0.5,0.5,0.7,1.3,0.7,2.4
			c0,0.2-0.1,0.6-0.4,1.1c-0.2,0.5-0.4,0.9-0.4,1.1l-33.4,33.6l14.8,14.8c0.6,0.7,1,1.5,1.3,2.4c0.1,0.5,0.2,1.3,0.2,2.4
			c0,1.8-0.6,3.3-1.8,4.5c-1.2,1.2-2.7,1.7-4.4,1.7h-45.1c-1.9,0-3.6-0.6-5-1.9c-1.4-1.3-2.1-2.7-2.1-4.3V46.1z"/>
	</g>
</g>
</svg>
