<?xml version="1.0" encoding="utf-8"?>
<!-- Generator: Adobe Illustrator 24.2.1, SVG Export Plug-In . SVG Version: 6.00 Build 0)  -->
<svg version="1.1" id="图层_2" xmlns="http://www.w3.org/2000/svg" xmlns:xlink="http://www.w3.org/1999/xlink" x="0px" y="0px"
	 viewBox="0 0 200 200" enable-background="new 0 0 200 200" xml:space="preserve">
<path fill="#333333" d="M162.5,20.8h-125c-9.2,0-16.7,7.5-16.7,16.7v125c0,9.2,7.5,16.7,16.7,16.7h125c9.2,0,16.7-7.5,16.7-16.7
	v-125C179.2,28.3,171.7,20.8,162.5,20.8z M54.2,152.1c0,3.3-2.9,6.3-6.3,6.3s-6.3-2.9-6.3-6.3v-20.8c0-3.3,2.9-6.3,6.3-6.3
	s6.3,2.9,6.3,6.3V152.1z M79.2,152.1c0,3.3-2.9,6.3-6.3,6.3s-6.3-2.9-6.3-6.3v-20.8c0-3.3,2.9-6.3,6.3-6.3s6.3,2.9,6.3,6.3V152.1z
	 M104.2,152.1c0,3.3-2.9,6.3-6.3,6.3c-3.3,0-6.3-2.9-6.3-6.3v-20.8c0-3.3,2.9-6.3,6.3-6.3c3.3,0,6.3,2.9,6.3,6.3V152.1z
	 M129.2,152.1c0,3.3-2.9,6.3-6.2,6.3c-3.3,0-6.3-2.9-6.3-6.3v-20.8c0-3.3,2.9-6.3,6.3-6.3c3.3,0,6.2,2.9,6.2,6.3V152.1z
	 M154.2,152.1c0,3.3-2.9,6.3-6.3,6.3s-6.3-2.9-6.3-6.3v-20.8c0-3.3,2.9-6.3,6.3-6.3s6.3,2.9,6.3,6.3V152.1z M158.3,83.3
	c0,4.6-3.8,8.3-8.3,8.3h-16.7c-4.6,0-8.3-3.8-8.3-8.3V75c0-4.6-3.8-8.3-8.3-8.3H83.3c-4.6,0-8.3,3.8-8.3,8.3v8.3
	c0,4.6-3.8,8.3-8.3,8.3H50c-4.6,0-8.3-3.8-8.3-8.3V50c0-4.6,3.8-8.3,8.3-8.3h100c4.6,0,8.3,3.8,8.3,8.3V83.3z"/>
</svg>
