<svg id="图层_1" data-name="图层 1" xmlns="http://www.w3.org/2000/svg" viewBox="0 0 200 200"><path d="M135.36,177.4h0a4.18,4.18,0,0,1-4.19,4.19H40.59a4.18,4.18,0,0,1-4.19-4.19V58.6a4.19,4.19,0,0,1,4.19-4.19H98.8V46H40.59A12.61,12.61,0,0,0,28,58.6V177.4A12.61,12.61,0,0,0,40.59,190h90.58a12.61,12.61,0,0,0,12.6-12.6V89.19h-8.41Z"/><path d="M98.8,62.79h-54V173.18H127v-84h-19.8a8.41,8.41,0,0,1-8.41-8.41ZM109,109h8.41v18H109Z"/><path d="M162.4,35.2V32.79a22.79,22.79,0,1,0-45.58,0V35.2h-9.61V80.78H172V35.2Zm-6,0H122.79V32.79a16.79,16.79,0,0,1,33.58,0Z"/></svg>