<?xml version="1.0" encoding="utf-8"?>
<!-- Generator: Adobe Illustrator 22.0.1, SVG Export Plug-In . SVG Version: 6.00 Build 0)  -->
<svg version="1.1" id="图层_1" xmlns="http://www.w3.org/2000/svg" xmlns:xlink="http://www.w3.org/1999/xlink" x="0px" y="0px"
	 viewBox="0 0 200 200" enable-background="new 0 0 200 200" xml:space="preserve">
<g id="图层_1_1_">
	<g>
		<path fill="#6883D8" d="M175,113.7c-3-4-4.4-8.5-4.4-13.5c0-5.1,1.4-9.7,4.1-13.7c2.8-4,6.6-6.9,11.4-8.7
			c-1.6-7.9-4.8-15.7-9.5-23.2c-4,1.6-8.1,2.2-12.2,1.8c-4.1-0.4-7.8-1.8-11.2-4.3s-5.9-5.7-7.7-9.6c-1.2-3-1.8-6.1-1.8-9.4
			c0-3.3,0.6-6.5,1.8-9.6c-7.1-4.4-14.9-7.6-23.2-9.5c-1.8,4.8-4.6,8.7-8.7,11.4c-4,2.8-8.6,4.1-13.6,4.1s-9.6-1.5-13.7-4.4
			c-4.1-3-7-6.7-8.8-11.1c-7.9,1.6-15.7,4.8-23.2,9.5c2,4.3,2.6,8.9,1.6,13.6c-0.9,4.8-3.2,9.2-6.9,13.2c-3.4,3.4-7.4,5.5-12.2,6.4
			s-9.6,0.4-14.4-1.3c-4.3,8.8-7.2,16.2-8.7,22.4c4.8,1.8,8.6,4.6,11.4,8.7c2.8,4,4.1,8.6,4.1,13.7s-1.4,9.7-4.1,13.7
			c-2.8,4-6.6,6.9-11.4,8.7c1.6,7.9,4.8,15.7,9.5,23.2c4-1.6,8.1-2.2,12.2-1.8s7.8,1.9,11.2,4.3c3.4,2.5,5.9,5.7,7.7,9.6
			c1.2,3,1.8,6.1,1.8,9.4c0,3.3-0.6,6.5-1.8,9.6c7.1,4.4,14.9,7.6,23.2,9.5c1.7-4.8,4.6-8.6,8.7-11.4c4-2.8,8.6-4.1,13.7-4.1
			s9.7,1.4,13.7,4.1c4,2.8,6.9,6.6,8.7,11.4c7.9-1.6,15.7-4.8,23.2-9.5c-2-4.3-2.6-8.8-1.6-13.6c0.9-4.8,3.2-9.2,6.9-13.2
			c3.4-3.4,7.4-5.5,12.2-6.4s9.6-0.4,14.4,1.3c4.4-7.1,7.6-14.9,9.5-23.2C182,120.5,178,117.8,175,113.7z M100.3,147.5
			c-26.1,0-47.2-21.2-47.2-47.2S74.2,53,100.3,53s47.2,21.2,47.2,47.2S126.4,147.5,100.3,147.5z"/>
		<circle fill="#6883D8" cx="100.3" cy="100.2" r="26.9"/>
	</g>
</g>
</svg>
