<?xml version="1.0" encoding="utf-8"?>
<!-- Generator: Adobe Illustrator 24.2.1, SVG Export Plug-In . SVG Version: 6.00 Build 0)  -->
<svg version="1.1" id="图层_2" xmlns="http://www.w3.org/2000/svg" xmlns:xlink="http://www.w3.org/1999/xlink" x="0px" y="0px"
	 viewBox="0 0 200 200" enable-background="new 0 0 200 200" xml:space="preserve">
<g>
	<g>
		<path fill="#333333" d="M164.2,52.4h-29.9v-9c0.3-11.4-8.7-20.9-20.1-21.2H85.7C74.3,22.5,65.4,32,65.6,43.4v9H35.8
			c-3.4,0.2-6,3-5.8,6.4c0.2,3.2,2.7,5.7,5.8,5.8h8.5v92c-0.3,11.4,8.7,20.9,20.1,21.2h71.3c11.4-0.3,20.4-9.8,20.1-21.2v-92h8.5
			c3.4-0.2,6-3,5.8-6.4C169.9,55,167.4,52.5,164.2,52.4L164.2,52.4z M86.8,139.4c0.2,2.6-1.7,4.8-4.3,4.9c-2.6,0.2-4.8-1.7-4.9-4.3
			c0-0.2,0-0.4,0-0.6V87.7c-0.2-2.6,1.7-4.8,4.3-4.9c2.6-0.2,4.8,1.7,4.9,4.3c0,0.2,0,0.4,0,0.6V139.4z M122.5,139.4
			c0.2,2.6-1.7,4.8-4.3,4.9c-2.6,0.2-4.8-1.7-4.9-4.3c0-0.2,0-0.4,0-0.6V87.7c-0.2-2.6,1.7-4.8,4.3-4.9c2.6-0.2,4.8,1.7,4.9,4.3
			c0,0.2,0,0.4,0,0.6V139.4z M122.8,52.4H77.3v-9c-0.1-4.8,3.7-8.8,8.5-9h28.6c4.8,0.1,8.6,4.2,8.5,9L122.8,52.4L122.8,52.4z"/>
	</g>
</g>
</svg>
