<svg id="图层_1" data-name="图层 1" xmlns="http://www.w3.org/2000/svg" viewBox="0 0 200 200"><path d="M66.71,33.35a11.47,11.47,0,0,0,8,3H123.4a11.47,11.47,0,0,0,8-3,8.91,8.91,0,0,0,3.1-7.41v-.6a9.4,9.4,0,0,0-3.32-7.21,11.47,11.47,0,0,0-8-3H74.68a11.47,11.47,0,0,0-8,3,9.37,9.37,0,0,0-3.32,7.21v.6A9.57,9.57,0,0,0,66.71,33.35Z"/><path d="M168.7,26.06a12.35,12.35,0,0,0-9.34-4H141.49V28a13.35,13.35,0,0,1-3.8,9.5,12.37,12.37,0,0,1-9.35,4H69a12.45,12.45,0,0,1-9.24-4A13.13,13.13,0,0,1,55.84,28V22H40.64a12.35,12.35,0,0,0-9.34,4,13.35,13.35,0,0,0-3.8,9.5v135.8a13.35,13.35,0,0,0,3.8,9.5,12.34,12.34,0,0,0,9.34,4H159.36a12.44,12.44,0,0,0,9.24-4,13.16,13.16,0,0,0,3.9-9.5V35.56A13.35,13.35,0,0,0,168.7,26.06ZM54.56,139.22a8,8,0,1,1,8-8A8,8,0,0,1,54.56,139.22Zm0-41.79a8,8,0,1,1,8-8A8,8,0,0,1,54.56,97.43Zm94.83,39.69H85.91a5.94,5.94,0,1,1,0-11.88h63.48a5.94,5.94,0,1,1,0,11.88Zm0-41.79H85.91a5.95,5.95,0,0,1,0-11.89h63.48a5.95,5.95,0,0,1,0,11.89Z"/></svg>