<svg id="图层_1" data-name="图层 1" xmlns="http://www.w3.org/2000/svg" viewBox="0 0 200 200"><path d="M166.8,10.44H33.2A23.27,23.27,0,0,0,10,33.64v90.8a23.27,23.27,0,0,0,23.2,23.2H77.47L53.88,189.56h92.24l-22.54-41.92H166.8a23.27,23.27,0,0,0,23.2-23.2V33.64A23.27,23.27,0,0,0,166.8,10.44ZM109.51,119.33H90.39a5.26,5.26,0,0,1-5.44-5,5.18,5.18,0,0,1,5.36-5h19.2a5,5,0,1,1,0,9.92Zm5.6-15H85a5,5,0,1,1,0-9.92h30.08a5,5,0,0,1,0,9.92Zm24.23-25.43-.56.56H120.3l-.47,8.15a1.78,1.78,0,0,1-1.76,1.76H81.91a1.79,1.79,0,0,1-1.76-1.84L80,79.42H61.28l-.56-.48a2,2,0,0,1-.72-1.6,1.76,1.76,0,0,1,.72-1.52L98.39,40a2.32,2.32,0,0,1,3.2,0l37.75,35.83A2.08,2.08,0,0,1,139.34,78.86Z"/></svg>