<svg id="图层_1" data-name="图层 1" xmlns="http://www.w3.org/2000/svg" viewBox="0 0 200 200"><path d="M172,157.79a48.4,48.4,0,0,0-1.37-7.16,16.26,16.26,0,0,0-5.58-7.58,35.62,35.62,0,0,0-8.84-4.84A93.28,93.28,0,0,0,145.89,135a65.27,65.27,0,0,1-9.79-3.27,25,25,0,0,1-7.9-4.42,16.33,16.33,0,0,1-4.1-5.26,14.49,14.49,0,0,1-1.37-5.58,29.58,29.58,0,0,1,.31-5.58,14.9,14.9,0,0,1,1.16-3.58,11.62,11.62,0,0,1,1.79-2.63,18.55,18.55,0,0,1,2.42-2.21c.92-.7,1.93-1.54,3.06-2.53a9.82,9.82,0,0,0,2.73-3.36,34,34,0,0,0,2.11-4.64q.84-2.52,1.68-5.68a6.75,6.75,0,0,0,3.37-1.89,16.34,16.34,0,0,0,2.53-3.58,16.74,16.74,0,0,0,1.68-6.11,12.73,12.73,0,0,0-.1-4.95,18,18,0,0,0-1.16-3.26,8,8,0,0,0-1.9-2.31,81.89,81.89,0,0,0-.84-14.32,102.73,102.73,0,0,0-3.26-13.16,38.22,38.22,0,0,0-6.84-12.74q-4-5-12.43-9.47A40.54,40.54,0,0,0,99.89,10a59.64,59.64,0,0,0-8.42.63,37.91,37.91,0,0,0-8.85,2.42A38.77,38.77,0,0,0,74,18a33.06,33.06,0,0,0-7.58,8.21,39.53,39.53,0,0,0-5.58,11.9A97.3,97.3,0,0,0,58.2,50.42a90.42,90.42,0,0,0-.63,13.69,13.06,13.06,0,0,0-2.31,3.78,11.69,11.69,0,0,0-1.06,4.32A13.43,13.43,0,0,0,55,77.79a20.47,20.47,0,0,0,2.22,4.63A11.58,11.58,0,0,0,59.47,85,10.6,10.6,0,0,0,62,86.21q.84,3.17,1.69,5.68a42.15,42.15,0,0,0,2,4.64,11.43,11.43,0,0,0,2.63,3.58c2,1.54,3.79,3.12,5.47,4.73a10.23,10.23,0,0,1,3,6.63c.14,2,.21,3.72.21,5.27a10.71,10.71,0,0,1-1,4.42A15.35,15.35,0,0,1,73,125.37,34.46,34.46,0,0,1,67.26,130a36.69,36.69,0,0,1-11.06,4.74q-6.21,1.57-12.1,3.68a36.23,36.23,0,0,0-10.21,5.47q-4.32,3.38-5.37,10.11-1.68,11.58-.63,18.95t2.73,8.84c.71.56,2.42,1.16,5.16,1.79s6.11,1.26,10.11,1.89,8.38,1.2,13.15,1.69,9.62,1,14.53,1.37,9.65.77,14.21,1.05,8.6.42,12.11.42,7.58-.14,12.21-.42,9.44-.63,14.42-1.05,9.93-.95,14.84-1.58,9.4-1.3,13.47-2A83.69,83.69,0,0,0,165,182.63q4.11-1.26,5-2.52a14.93,14.93,0,0,0,1.9-5.69,49.48,49.48,0,0,0,.63-8.1A68.91,68.91,0,0,0,172,157.79ZM100,183c-14.47,0-26.2-15.41-26.2-34.41s11.73-27.42,26.2-27.42,26.2,8.42,26.2,27.42S114.49,183,100,183Z"/><path d="M104.44,134.12a6.45,6.45,0,0,0,2.66-5.31,6.65,6.65,0,1,0-13.29,0,6.45,6.45,0,0,0,2.66,5.31l-9,31.57A6.34,6.34,0,0,0,89.16,172l9,9a3.21,3.21,0,0,0,4.65,0l9-9a6.31,6.31,0,0,0,1.66-6.31Z"/></svg>