<?xml version="1.0" encoding="utf-8"?>
<!-- Generator: Adobe Illustrator 22.0.1, SVG Export Plug-In . SVG Version: 6.00 Build 0)  -->
<svg version="1.1" id="图层_1" xmlns="http://www.w3.org/2000/svg" xmlns:xlink="http://www.w3.org/1999/xlink" x="0px" y="0px"
	 viewBox="0 0 200 200" style="enable-background:new 0 0 200 200;" xml:space="preserve">
<style type="text/css">
	.st0{fill:#6883D8;}
</style>
<g id="图层_1_1_">
	<path class="st0" d="M75.5,108H30.8c-7.8,0-14.2,6.3-14.2,14.1v44.6c0,7.8,6.4,14.2,14.2,14.1h44.7c7.8,0,14.2-6.3,14.2-14.1v-44.6
		C89.7,114.3,83.4,108,75.5,108z M76.1,19.1H31.4c-7.8,0-14.2,6.3-14.2,14.1v44.6c0,7.8,6.4,14.1,14.2,14.1h44.7
		c7.8,0,14.2-6.3,14.2-14.1V33.3C90.3,25.4,83.9,19.1,76.1,19.1L76.1,19.1z M168.7,108H124c-7.8,0-14.2,6.3-14.2,14.2v44.6
		c0,7.8,6.4,14.1,14.2,14.1h44.7c7.8,0,14.2-6.3,14.2-14.1v-44.6C182.9,114.3,176.5,108,168.7,108L168.7,108L168.7,108z M153.9,93.5
		l27-26.9c4.7-4.7,4.7-12.3,0-17l-27-26.9c-4.7-4.7-12.3-4.7-17.1,0l-27,26.9c-4.7,4.7-4.8,12.3-0.1,17c0,0,0,0,0,0l0.1,0.1l27,26.9
		C141.5,98.2,149.2,98.2,153.9,93.5L153.9,93.5z"/>
</g>
</svg>
