<svg id="图层_2" data-name="图层 2" xmlns="http://www.w3.org/2000/svg" viewBox="0 0 200 200"><defs><style>.cls-1{fill:#007aff;}</style></defs><path class="cls-1" d="M130.66,114.78a7.56,7.56,0,0,1-6-12.22l27.42-35a17.7,17.7,0,0,0-3-24.81L146,40.29a17.69,17.69,0,0,0-24.81,3l-27.41,35A17.79,17.79,0,0,0,94,100.4a7.55,7.55,0,0,1-6.6,12.3,7.47,7.47,0,0,1-5.1-2.73,32.86,32.86,0,0,1-.45-41l27.41-35a32.84,32.84,0,0,1,46-5.62l3.15,2.47a32.84,32.84,0,0,1,5.6,46l-27.42,35A7.49,7.49,0,0,1,130.66,114.78Z"/><path class="cls-1" d="M61.87,166.16a32.43,32.43,0,0,1-20.18-7l-3.15-2.46a32.86,32.86,0,0,1-5.6-46l27.42-35A7.56,7.56,0,0,1,72.27,85L44.85,120a17.77,17.77,0,0,0,3,24.81L51,147.3a17.71,17.71,0,0,0,24.8-3l27.42-35a17.84,17.84,0,0,0-.91-22.86,7.55,7.55,0,1,1,11.11-10.23,32.83,32.83,0,0,1,1.69,42.4l-27.38,35A32.7,32.7,0,0,1,61.87,166.16Z"/><path class="cls-1" d="M171.62,140.36a4,4,0,1,0-6.91,4c.86,1.09,1.32,2.81,1.32,6.31a19.94,19.94,0,1,1-19.94-19.94h0v4.51c0,1.92,0,3.47,2,3.47a3.77,3.77,0,0,0,2.63-1.06h0s10.41-9.78,10.91-10.19a.89.89,0,0,0,.34-.73.92.92,0,0,0-.29-.66L150.7,115.72l0,0a3.85,3.85,0,0,0-2.57-1c-2,0-2,1.55-2,3.47,0,.22,0,2.09,0,4.51h0A27.92,27.92,0,1,0,174,150.65C174,147,173.46,142.93,171.62,140.36Z"/></svg>