<?xml version="1.0" encoding="utf-8"?>
<!-- Generator: Adobe Illustrator 22.0.1, SVG Export Plug-In . SVG Version: 6.00 Build 0)  -->
<svg version="1.1" id="图层_1" xmlns="http://www.w3.org/2000/svg" xmlns:xlink="http://www.w3.org/1999/xlink" x="0px" y="0px"
	 viewBox="0 0 200 200" enable-background="new 0 0 200 200" xml:space="preserve">
<path fill="#6883D8" d="M158.6,108.3L158.6,108.3l-42.7,73.4l-0.3,0.2c-2.5,6.1-8.6,10.3-15.6,10.3s-13.1-4.3-15.6-10.3l-0.3-0.2
	l-42.7-73.4c-18.7-32.1-7.6-73.1,24.8-91.6s73.7-7.5,92.4,24.6C171.1,62.7,170.2,88.2,158.6,108.3z M100,49.6
	c-14,0-25.4,11.3-25.4,25.2c0,13.8,11.4,25.1,25.4,25.1s25.4-11.3,25.4-25.2C125.4,60.9,114,49.6,100,49.6z"/>
</svg>
