<?xml version="1.0" encoding="utf-8"?>
<!-- Generator: Adobe Illustrator 24.2.1, SVG Export Plug-In . SVG Version: 6.00 Build 0)  -->
<svg version="1.1" id="图层_2" xmlns="http://www.w3.org/2000/svg" xmlns:xlink="http://www.w3.org/1999/xlink" x="0px" y="0px"
	 viewBox="0 0 200 200" enable-background="new 0 0 200 200" xml:space="preserve">
<path fill="#333333" d="M43,105.7H26.3V89.1H43L43,105.7z M166.6,30.7c0,2.7-1.3,5.3-3.6,6.8l-56.9,39.8c-2.9,2-6.7,2-9.5,0
	L39.7,37.6c-3.8-2.6-4.7-7.8-2-11.6c1.6-2.2,4.1-3.5,6.8-3.6h113.8C162.8,22.4,166.6,26.1,166.6,30.7L166.6,30.7L166.6,30.7z
	 M166.6,164.1c0,4.2-3.2,7.8-7.4,8.3l-1,0.1H44.4c-4.6,0-8.3-3.7-8.3-8.3c0-2.3,1-4.6,2.7-6.2l0.8-0.7l56.9-39.8
	c2.5-1.8,5.8-2,8.6-0.6l1,0.6l56.9,39.8C165.2,158.8,166.6,161.4,166.6,164.1L166.6,164.1z M76.3,105.7H59.7V89.1h16.7V105.7z
	 M139,35.7H61.3l40,27.3L139,35.7L139,35.7z M109.7,105.7H93V89.1h16.7V105.7z M143,105.7h-16.7V89.1H143V105.7z M176.3,105.7h-16.7
	V89.1h16.7V105.7z"/>
</svg>
