<?xml version="1.0" encoding="utf-8"?>
<!-- Generator: Adobe Illustrator 24.2.1, SVG Export Plug-In . SVG Version: 6.00 Build 0)  -->
<svg version="1.1" id="图层_2" xmlns="http://www.w3.org/2000/svg" xmlns:xlink="http://www.w3.org/1999/xlink" x="0px" y="0px"
	 viewBox="0 0 200 200" enable-background="new 0 0 200 200" xml:space="preserve">
<g>
	<path fill="#333333" d="M113.8,171.9H86.2c-1.5,0-2.8,1.2-2.8,2.8c0,7.6,6.2,13.8,13.8,13.8h5.5c7.6,0,13.8-6.2,13.8-13.8
		C116.6,173.1,115.4,171.9,113.8,171.9z"/>
	<path fill="#333333" d="M174.7,144.3h-19.4V77.9c-0.1-27.3-20-50.5-47-54.6v-3.5c0-4.6-3.7-8.3-8.3-8.3c-4.6,0-8.3,3.7-8.3,8.3v3.5
		c-27,4.2-46.9,27.3-47,54.6v66.4H25.3c-1.5,0-2.8,1.2-2.8,2.8v11.1c0,1.5,1.2,2.8,2.8,2.8h149.3c1.5,0,2.8-1.2,2.8-2.8V147
		C177.4,145.5,176.2,144.3,174.7,144.3z M106.6,117.8c0,3.7-3,6.7-6.7,6.7c-3.7,0-6.7-3-6.7-6.7c0,0,0,0,0,0c0-3.7,3-6.7,6.7-6.7
		C103.5,111,106.6,114.1,106.6,117.8C106.6,117.8,106.6,117.8,106.6,117.8z M117.3,74.6L102.7,100c-0.3,0.4-0.6,0.8-1.1,1.1
		c-1.5,0.9-3.4,0.4-4.3-1.1L82.7,74.6c-0.3-0.5-0.4-1-0.4-1.5c0-1.7,1.4-3.1,3.1-3.1h29.3c0.5,0,1.1,0.1,1.5,0.4
		C117.7,71.2,118.2,73.1,117.3,74.6z"/>
</g>
</svg>
