<?xml version="1.0" encoding="utf-8"?>
<!-- Generator: Adobe Illustrator 22.0.1, SVG Export Plug-In . SVG Version: 6.00 Build 0)  -->
<svg version="1.1" id="图层_1" xmlns="http://www.w3.org/2000/svg" xmlns:xlink="http://www.w3.org/1999/xlink" x="0px" y="0px"
	 viewBox="0 0 200 200" enable-background="new 0 0 200 200" xml:space="preserve">
<g id="图层_2_1_">
	<g>
		<g>
			<path d="M135.2,122.9c-1.8,0-3.7-0.6-5.1-1.8c-3.6-2.8-4.2-8-1.4-11.6l30-38.3c6.6-8.4,5.1-20.6-3.3-27.1l-3.4-2.7
				c-4.1-3.2-9.1-4.6-14.2-4c-5.1,0.6-9.7,3.2-12.9,7.3L94.9,83c-5.5,7-5.4,17.2,0.3,24.2c2.9,3.5,2.4,8.7-1.2,11.6
				c-1.7,1.4-3.9,2-6.1,1.8s-4.2-1.3-5.6-3c-5.1-6.2-7.9-14-8.1-22.1c-0.1-8.2,2.5-16.3,7.6-22.7l30-38.3
				c12.2-15.6,34.8-18.3,50.3-6.1l3.4,2.7c15.5,12.2,18.3,34.8,6.1,50.3l-30,38.3C140.1,121.8,137.7,122.9,135.2,122.9z"/>
		</g>
		<g>
			<path d="M60,179.1c-8.1,0-15.7-2.6-22.1-7.6l-3.4-2.7c-7.5-5.9-12.3-14.4-13.5-23.9s1.4-18.9,7.3-26.4l30-38.3
				c2.8-3.6,8-4.2,11.6-1.4c3.6,2.8,4.2,8,1.4,11.6l-30,38.3c-3.2,4-4.6,9.1-3.9,14.2c0.6,5.1,3.2,9.7,7.2,12.9l3.4,2.7
				c3.4,2.7,7.5,4.1,11.9,4.1c6,0,11.5-2.7,15.2-7.4l30-38.3c5.8-7.4,5.3-18.1-1-25c-3.1-3.4-2.9-8.6,0.5-11.7s8.6-2.9,11.7,0.5
				c5.7,6.2,9,14.2,9.4,22.7c0.4,8.6-2.3,17-7.6,23.7l-29.9,38.3C81.4,174.1,71.1,179.1,60,179.1z"/>
		</g>
	</g>
</g>
</svg>
