<?xml version="1.0" encoding="utf-8"?>
<!-- Generator: Adobe Illustrator 24.2.1, SVG Export Plug-In . SVG Version: 6.00 Build 0)  -->
<svg version="1.1" id="图层_2" xmlns="http://www.w3.org/2000/svg" xmlns:xlink="http://www.w3.org/1999/xlink" x="0px" y="0px"
	 viewBox="0 0 200 200" enable-background="new 0 0 200 200" xml:space="preserve">
<g>
	<path fill="#333333" d="M29.6,61.1h-9.1V42c0.1-0.9-0.2-1.7-0.9-2.4c-1-0.6-2.1-0.8-3.2-0.8h-1.3v-3.5c1.8-0.2,3.6-0.7,5.3-1.5
		c1.3-0.9,2.5-2,3.5-3.3h5.5v30.6L29.6,61.1z M30.4,86.1c2.3,1.3,3.7,3.7,3.6,6.3c0,1.7-0.4,3.5-1.2,5c-1,2-2.2,3.9-3.5,5.7
		c-1.7,2.3-3.3,4.6-5,7h9v5.1H15.2V111l5.3-7.8c1.1-1.7,2.4-3.6,3.8-6c0.6-1.1,1.2-2.3,1.7-3.4c0.2-0.7,0.2-1.4,0-2.1
		c0-1.5-0.6-2.3-1.9-2.3c-0.6-0.1-1.2,0.3-1.4,0.9c-0.2,0.8-0.2,1.7,0,2.5v2.8h-7.4v-2.8c-0.1-0.5-0.1-1.1,0-1.6
		c0.2-1.9,1.2-3.6,2.8-4.7c1.8-1.1,3.9-1.7,6-1.6c1.1-0.1,2.3-0.1,3.4,0C28.5,85,29.5,85.4,30.4,86.1z M33.7,160
		c0.2,1.5,0.2,2.9,0,4.4c-0.3,1.1-0.8,2-1.6,2.8c-1.9,1.6-4.3,2.4-6.8,2.3c-2.5,0.2-5-0.4-7.2-1.6c-1.6-1.1-2.6-2.9-2.5-4.8v-4.6
		h7.8v4.7c0,1.2,0,1.7,1.3,1.7c1.3,0,1.2,0,1.3-0.9c0.1-1.1,0.1-2.1,0-3.2v-2c0-1.7,0-2.8-1.1-3.2c-1.2-0.5-2.4-0.6-3.6-0.5v-4.3
		l0,0c1.2,0.3,2.4,0.3,3.5,0c0,0,0.6-1.3,0.6-2.7v-1.7c0.1-0.6,0.1-1.1,0-1.7c-0.2-0.5-0.7-0.8-1.3-0.8c-1,0-1.4,0.5-1.4,1.7v2.6
		h-7.8v-1.7c-0.3-2.1,0.5-4.2,2-5.6c2.1-1.2,4.5-1.8,7-1.5c2.5-0.2,4.9,0.4,7,1.8c1.6,1.5,2.5,3.7,2.3,5.9c0.1,1.4-0.2,2.7-1,3.9
		c-0.6,0.7-1.4,1.3-2.3,1.7c1.3,0.3,2.3,1.2,2.9,2.4c0.5,1.8,0.7,3.6,0.6,5.5L33.7,160z"/>
	<path fill="#333333" d="M56.5,144.2v21.1h127.9v-21.1H56.5z M56,110.8h129V89.6H56V110.8z M185,35.1H56v21.1h129V35.1z"/>
</g>
</svg>
