<svg id="图层_1" data-name="图层 1" xmlns="http://www.w3.org/2000/svg" viewBox="0 0 200 200"><path d="M168.89,26.1H31.25A21.17,21.17,0,0,0,10.07,47.21v84.46a21.18,21.18,0,0,0,21.18,21.12H82l19.62,19.56a5.29,5.29,0,0,0,7.49,0h0l19.62-19.56h40.16a21.18,21.18,0,0,0,21.18-21.12V47.21A21.17,21.17,0,0,0,168.89,26.1ZM94.82,119.86a6.52,6.52,0,0,1-.85,2.53,4.34,4.34,0,0,1-2.19,1.12,36.08,36.08,0,0,1-4.54,1q-2.71.46-6,.89c-2.18.28-4.38.52-6.6.7s-4.35.35-6.41.47-3.86.19-5.42.19-3.36-.07-5.38-.19-4.14-.28-6.32-.47-4.33-.39-6.46-.61-4.07-.46-5.84-.74-3.28-.57-4.49-.85a6.9,6.9,0,0,1-2.3-.79c-.5-.44-.9-1.75-1.21-3.93a30.17,30.17,0,0,1,.28-8.42,6.7,6.7,0,0,1,2.38-4.49A16.23,16.23,0,0,1,38,103.86c1.75-.62,3.54-1.17,5.38-1.63a16.14,16.14,0,0,0,4.91-2.11,15.19,15.19,0,0,0,2.58-2.06,6.87,6.87,0,0,0,1.31-1.87,4.73,4.73,0,0,0,.42-2c0-.69,0-1.47-.1-2.34a4.53,4.53,0,0,0-1.31-3,32,32,0,0,0-2.43-2.11,5,5,0,0,1-1.17-1.59,19.4,19.4,0,0,1-.89-2.06c-.25-.74-.5-1.59-.75-2.52a5.09,5.09,0,0,1-1.12-.56,5.25,5.25,0,0,1-1-1.13,8.94,8.94,0,0,1-1-2,5.88,5.88,0,0,1-.38-2.48A5.2,5.2,0,0,1,43,72.52a5.72,5.72,0,0,1,1-1.69,40.35,40.35,0,0,1,.28-6.08,43.41,43.41,0,0,1,1.17-5.47A17.55,17.55,0,0,1,47.94,54a14.68,14.68,0,0,1,3.37-3.65,17.32,17.32,0,0,1,3.83-2.2,16.91,16.91,0,0,1,3.93-1.07,26.12,26.12,0,0,1,3.75-.28,18,18,0,0,1,8.51,2,15.8,15.8,0,0,1,8.56,9.87,44.42,44.42,0,0,1,1.45,5.85,36.71,36.71,0,0,1,.38,6.36,3.69,3.69,0,0,1,.84,1,7.29,7.29,0,0,1,.51,1.45,5.46,5.46,0,0,1,.05,2.2,7,7,0,0,1-1.87,4.31,3.13,3.13,0,0,1-1.5.84c-.25.93-.5,1.78-.75,2.52a15,15,0,0,1-.93,2.06,4.36,4.36,0,0,1-1.22,1.5c-.5.44-.95.81-1.35,1.12a8,8,0,0,0-1.08,1,5.15,5.15,0,0,0-.8,1.17,6.33,6.33,0,0,0-.51,1.59A12.72,12.72,0,0,0,73,94.09a6.37,6.37,0,0,0,.61,2.48A7.1,7.1,0,0,0,75.4,98.9a11.05,11.05,0,0,0,3.51,2,30.36,30.36,0,0,0,4.35,1.45,41,41,0,0,1,4.59,1.45,16.15,16.15,0,0,1,3.93,2.15,7.27,7.27,0,0,1,2.48,3.37h0a21.85,21.85,0,0,1,.6,3.18,29.78,29.78,0,0,1,.24,3.79A22.67,22.67,0,0,1,94.82,119.86ZM140.15,89H105.79a5.72,5.72,0,1,1,0-11.43h34.36a5.72,5.72,0,1,1,0,11.43Zm23.53-22.59H105.79a5.72,5.72,0,1,1,0-11.43h57.89a5.72,5.72,0,1,1,0,11.43Z"/></svg>