<svg id="图层_1" data-name="图层 1" xmlns="http://www.w3.org/2000/svg" viewBox="0 0 200 200"><path d="M148.75,15.07h-3.93V60A13.14,13.14,0,0,1,131.75,73.1H68.25A13.14,13.14,0,0,1,55.18,60v-45h-31A9.11,9.11,0,0,0,15,24.2V175.8a9.11,9.11,0,0,0,9.13,9.13H40V107.38A13.13,13.13,0,0,1,53.07,94.31h93.72a13.13,13.13,0,0,1,13.06,13.07v77.41h16a9.11,9.11,0,0,0,9.13-9.13V51.18Z"/><rect x="122.9" y="15.07" width="7.87" height="43.98"/><rect x="69.23" y="15.07" width="39.62" height="43.98"/><path d="M90,157.58a14.24,14.24,0,0,0,4.76,3.17,13.56,13.56,0,0,0,11.11,0,32.86,32.86,0,0,0,4.77-3.17,14.24,14.24,0,0,0,3.17-4.76,23.28,23.28,0,0,0,.79-5.56,12.55,12.55,0,0,0-1.19-5.55,32.86,32.86,0,0,0-3.17-4.77,14.24,14.24,0,0,0-4.76-3.17,10,10,0,0,0-5.16-1.19,15.94,15.94,0,0,0-6,1.19A17.49,17.49,0,0,0,90,136.94a14.29,14.29,0,0,0-3.17,4.77,13.56,13.56,0,0,0,0,11.11A33.33,33.33,0,0,0,90,157.58Z"/><path d="M54.13,184.79h91.74V108.36H54.13Zm15.19-48.64a3,3,0,0,1,.79-2c.4-.8.79-1.19,1.19-2,0-.79.4-1.19.8-1.19a1.46,1.46,0,0,1,1.19-.39,1.48,1.48,0,0,1,1.19.39,6.78,6.78,0,0,0,4,.4,7.57,7.57,0,0,0,4-2,8.53,8.53,0,0,0,1.19-2A5,5,0,0,0,84,125v-3.17c0-.4,0-.4-.4-.8v-.79a4,4,0,0,1,1.59-2l2.38-1.19c.79-.39,1.59-.39,2.38-.79.8,0,1.19-.4,2-.4.39,0,1.19,0,1.19.4.39.4.39.79.79,1.19a6.23,6.23,0,0,0,2.38,3.18,7.22,7.22,0,0,0,7.94,0,6.23,6.23,0,0,0,2.38-3.18c0-.4.39-.79.79-1.19a1.45,1.45,0,0,1,1.19-.4,3.57,3.57,0,0,1,2,.4,3.07,3.07,0,0,1,2,.79c.79.4,1.19.8,2,1.19s1.59,1.2,1.59,1.59a1.46,1.46,0,0,1,.4,1.19c0,.4,0,.8-.4.8a6.86,6.86,0,0,0-.4,4c.4,1.59.8,2.78,2,3.58a5.09,5.09,0,0,0,4,1.58c1.58,0,3.17,0,4.36-.79a1.45,1.45,0,0,1,1.19-.4c.4,0,.8.4,1.19.8a6.32,6.32,0,0,1,1.59,2.77c.4,1.19.79,2.38,1.19,4,0,.8,0,1.19-.4,1.59s-.79.79-1.19.79a9.41,9.41,0,0,0-3.57,2.38,8.36,8.36,0,0,0-1.59,4.37,6.73,6.73,0,0,0,1.19,4,6.23,6.23,0,0,0,3.18,2.38c.4,0,.4.39.79.39,1.19,1.59,1.19,2,1.59,2.38v2a5.73,5.73,0,0,1-.79,2.38,8.93,8.93,0,0,1-1.19,2c-.4.8-.8,1.19-1.59,1.19a2.38,2.38,0,0,1-1.59.4,1.45,1.45,0,0,1-1.19-.4c-.4,0-1.19-.39-1.59-.39h-2c-.79,0-1.19.39-2,.39a5.63,5.63,0,0,0-1.59,1.19,7.63,7.63,0,0,0-2,4c0,1.59,0,2.78.8,4a2.53,2.53,0,0,1-.4,2.78L115,176.23a8.79,8.79,0,0,1-2,1.19c-.8.4-1.59.4-2,.79a17.27,17.27,0,0,0-2,.4,1.44,1.44,0,0,1-1.19-.4c-.4-.39-.8-.79-.8-1.19a9.29,9.29,0,0,0-2.38-3.57,5.74,5.74,0,0,0-7.93,0A7.12,7.12,0,0,0,94.32,177c-.4.4-.4.8-1.19,1.19-.4.4-.8.4-1.59.4a3.59,3.59,0,0,1-2-.4c-.79-.39-1.58-.39-2.38-.79a8.79,8.79,0,0,1-2-1.19A5.59,5.59,0,0,1,83.6,175a1.48,1.48,0,0,1-.39-1.19,2.43,2.43,0,0,1,.39-1.59,5.56,5.56,0,0,0,.4-3.57,7.08,7.08,0,0,0-1.59-3.57A2.81,2.81,0,0,0,80,163.93a4.25,4.25,0,0,0-2.78-.8c-.79,0-2,.4-2.77.4h-2c-.39,0-.79-.4-1.19-1.19s-.79-1.19-1.19-2-.4-1.59-.79-2.38c0-.8-.4-1.59,0-2a2.16,2.16,0,0,1,1.19-2,22.2,22.2,0,0,0,3.57-2.78,5.69,5.69,0,0,0,1.59-4,5.1,5.1,0,0,0-1.59-4,7.31,7.31,0,0,0-3.57-2.77.86.86,0,0,1-.8-.8c-.39-.79-.79-1.19-.79-1.58A4.29,4.29,0,0,1,69.32,136.15Z"/></svg>