<?xml version="1.0" encoding="utf-8"?>
<!-- Generator: Adobe Illustrator 22.0.1, SVG Export Plug-In . SVG Version: 6.00 Build 0)  -->
<svg version="1.1" id="图层_1" xmlns="http://www.w3.org/2000/svg" xmlns:xlink="http://www.w3.org/1999/xlink" x="0px" y="0px"
	 viewBox="0 0 200 200" enable-background="new 0 0 200 200" xml:space="preserve">
<g id="图层_1_1_">
	<path fill="#6883D8" d="M151.7,20H44.9c-6.9,0-12.5,5.6-12.5,12.5v85.1h5.3c6.2,0,12.1,2.9,15.9,7.8l17.3,22.3
		c2.1,2.7,5.4,4.3,8.8,4.3h44.6c3.4,0,6.7-1.6,8.8-4.3l17.3-22.3c3.4-4.4,8.6-7.2,14.1-7.7V32.6C164.3,25.8,158.7,20,151.7,20z
		 M77.6,104.3c0,4-3.2,7.2-7.2,7.2H60.2c-4,0-7.2-3.2-7.2-7.2l0,0c0-4,3.2-7.2,7.2-7.2h10.1C74.3,97.1,77.6,100.3,77.6,104.3
		L77.6,104.3z M77.6,75.3c0,4-3.2,7.2-7.2,7.2H60.2c-4,0-7.2-3.2-7.2-7.2l0,0c0-4,3.2-7.2,7.2-7.2h10.1
		C74.3,68.1,77.6,71.3,77.6,75.3L77.6,75.3z M77.6,46.2c0,4-3.2,7.2-7.2,7.2H60.2c-4,0-7.2-3.2-7.2-7.2l0,0c0-4,3.2-7.2,7.2-7.2
		h10.1C74.3,39,77.6,42.2,77.6,46.2L77.6,46.2z M148.6,104.3c0,4-3.2,7.2-7.2,7.2H92.2c-4,0-7.2-3.2-7.2-7.2l0,0
		c0-4,3.2-7.2,7.2-7.2h49.1C145.3,97.1,148.6,100.3,148.6,104.3L148.6,104.3z M148.6,75.3c0,4-3.2,7.2-7.2,7.2H92.2
		c-4,0-7.2-3.2-7.2-7.2l0,0c0-4,3.2-7.2,7.2-7.2h49.1C145.3,68.1,148.6,71.3,148.6,75.3L148.6,75.3z M148.6,46.2
		c0,4-3.2,7.2-7.2,7.2H92.2c-4,0-7.2-3.2-7.2-7.2l0,0c0-4,3.2-7.2,7.2-7.2h49.1C145.3,39,148.6,42.2,148.6,46.2L148.6,46.2z"/>
	<path fill="#6883D8" d="M182,171.3v-34.8c0-4.9-3.7-8.7-8.7-8.7H166c-3.1,0-6,1.4-8,3.9l-20.8,26.9c-1.8,2.3-4.5,3.6-7.4,3.6h-56
		c-2.9,0-5.6-1.3-7.4-3.6l-20.8-26.9c-1.9-2.5-4.8-3.9-8-3.9H26.7c-4.9,0-8.7,3.7-8.7,8.7v34.8c0,4.9,3.7,8.7,8.7,8.7h146.7
		C178.3,179.9,182.1,176.3,182,171.3L182,171.3z"/>
</g>
</svg>
