<?xml version="1.0" encoding="utf-8"?>
<!-- Generator: Adobe Illustrator 24.2.1, SVG Export Plug-In . SVG Version: 6.00 Build 0)  -->
<svg version="1.1" id="图层_2" xmlns="http://www.w3.org/2000/svg" xmlns:xlink="http://www.w3.org/1999/xlink" x="0px" y="0px"
	 viewBox="0 0 200 200" enable-background="new 0 0 200 200" xml:space="preserve">
<g>
	<path fill="#333333" d="M100,21.3c43.4,0,78.8,35.3,78.8,78.7c0,43.4-35.3,78.8-78.8,78.8S21.3,143.4,21.3,100
		C21.3,56.6,56.6,21.3,100,21.3 M100,10c-49.7,0-90,40.3-90,90c0,49.7,40.3,90,90,90s90-40.3,90-90C190,50.3,149.7,10,100,10L100,10
		z"/>
	<g>
		<g>
			<path fill="#333333" d="M100,81.8c-4.5,0-8.2,3.7-8.2,8.2c0,4.6,3.7,8.2,8.2,8.2v0c4.6,0,8.2-3.7,8.2-8.2
				C108.2,85.4,104.6,81.8,100,81.8z M135,55H65c-5.5,0-10,4.5-10,10v50c0,5.5,4.5,10,10,10h70c5.5,0,10-4.5,10-10V65
				C145,59.5,140.5,55,135,55z M130,97.7c-0.7,2.9-1.9,5.6-3.4,8.1c-3.1-1.4-6.7-0.7-9.2,1.7c-2.4,2.4-3.1,6.1-1.7,9.2
				c-2.5,1.5-5.3,2.6-8.1,3.4c-1.2-3.1-4.2-5.3-7.7-5.3c-3.4,0-6.5,2.1-7.7,5.3c-2.9-0.7-5.6-1.9-8.1-3.4c1-2.1,1-4.6,0-6.7
				c-1.9-4.1-6.7-6-10.8-4.1c-1.5-2.5-2.6-5.2-3.4-8.1c3.1-1.2,5.3-4.2,5.3-7.7c0-3.4-2.1-6.5-5.3-7.7c0.7-2.9,1.9-5.6,3.4-8.1
				c3.1,1.4,6.7,0.7,9.2-1.7c2.4-2.4,3.1-6.1,1.7-9.2c2.5-1.5,5.3-2.6,8.1-3.4c1.2,3.1,4.2,5.3,7.7,5.3c3.4,0,6.5-2.1,7.7-5.3
				c2.9,0.7,5.6,1.9,8.1,3.4c-1,2.1-1,4.6,0,6.7c1.9,4.1,6.7,6,10.8,4.1c1.5,2.5,2.6,5.3,3.4,8.1c-3.1,1.2-5.3,4.2-5.3,7.7
				C124.7,93.4,126.8,96.5,130,97.7z M125,135H75c-2.8,0-5,2.2-5,5c0,2.8,2.2,5,5,5h50c2.8,0,5-2.2,5-5C130,137.2,127.8,135,125,135
				z"/>
		</g>
	</g>
</g>
</svg>
