<?xml version="1.0" encoding="utf-8"?>
<!-- Generator: Adobe Illustrator 24.2.1, SVG Export Plug-In . SVG Version: 6.00 Build 0)  -->
<svg version="1.1" id="图层_2" xmlns="http://www.w3.org/2000/svg" xmlns:xlink="http://www.w3.org/1999/xlink" x="0px" y="0px"
	 viewBox="0 0 200 200" enable-background="new 0 0 200 200" xml:space="preserve">
<g>
	<g>
		<path fill="#333333" d="M175.1,116.9c-8.6,35.8-38.2,60.8-75.5,60.8c-19.7,0-38.9-7.8-53.3-21.5l-13.1,13.1
			c-1.2,1.2-2.8,1.9-4.6,1.9c-3.5,0-6.5-2.9-6.5-6.5v-45.4c0-3.5,2.9-6.5,6.5-6.5h45.4c3.5,0,6.5,2.9,6.5,6.5c0,1.7-0.7,3.3-1.9,4.6
			l-13.9,13.9c9.5,8.9,22.2,14,35.2,14c18,0,34.7-9.3,44.1-24.7c2.4-3.9,3.6-7.8,5.4-11.8c0.5-1.4,1.5-2.3,3-2.3H172
			c1.8,0,3.2,1.5,3.2,3.2C175.2,116.4,175.2,116.7,175.1,116.9z M177.8,80.6c0,3.5-2.9,6.5-6.5,6.5h-45.4c-3.5,0-6.5-2.9-6.5-6.5
			c0-1.7,0.7-3.3,1.9-4.6l14-14c-9.6-8.9-22.3-13.9-35.3-13.9c-18,0-34.7,9.3-44.1,24.7c-2.4,3.9-3.6,7.8-5.4,11.8
			C50,86.1,49,87,47.5,87H27.3c-1.8,0-3.2-1.5-3.2-3.2c0-0.2,0-0.5,0-0.7c8.7-35.9,38.6-60.8,75.9-60.8c19.8,0,39.2,7.9,53.6,21.5
			l13.2-13.1c1.2-1.2,2.8-1.9,4.6-1.9c3.5,0,6.5,2.9,6.5,6.5V80.6z"/>
	</g>
</g>
</svg>
