<?xml version="1.0" encoding="utf-8"?>
<!-- Generator: Adobe Illustrator 24.2.1, SVG Export Plug-In . SVG Version: 6.00 Build 0)  -->
<svg version="1.1" id="图层_2" xmlns="http://www.w3.org/2000/svg" xmlns:xlink="http://www.w3.org/1999/xlink" x="0px" y="0px"
	 viewBox="0 0 200 200" enable-background="new 0 0 200 200" xml:space="preserve">
<g>
	<path fill="#333333" d="M56.2,147.2c-12.1-1.2-22.3,8.9-21.1,21c0.9,9,8.1,16.3,17.1,17.2c12.2,1.2,22.3-8.9,21.1-21.1
		C72.4,155.4,65.2,148.1,56.2,147.2z"/>
	<path fill="#333333" d="M56.2,14.6C44,13.4,33.9,23.5,35.1,35.6c0.9,9,8.2,16.3,17.2,17.2c12.2,1.2,22.3-8.9,21.1-21.1
		C72.4,22.7,65.2,15.5,56.2,14.6z"/>
	<path fill="#333333" d="M56.2,81c-12.2-1.2-22.3,8.9-21.1,21.1c0.9,9,8.2,16.3,17.2,17.2c12.2,1.2,22.3-8.9,21.1-21.1
		C72.4,89.2,65.2,81.9,56.2,81z"/>
	<path fill="#333333" d="M143.8,52.8c12.2,1.2,22.3-8.9,21.1-21.1c-0.9-9-8.2-16.3-17.2-17.2c-12.2-1.2-22.3,8.9-21.1,21.1
		C127.6,44.6,134.8,51.9,143.8,52.8z"/>
	<path fill="#333333" d="M147.8,147.2c-12.1-1.2-22.3,8.9-21.1,21c0.9,9,8.1,16.3,17.1,17.2c12.2,1.2,22.3-8.9,21.1-21.1
		C164,155.4,156.7,148.1,147.8,147.2z"/>
	<path fill="#333333" d="M147.8,81c-12.2-1.2-22.3,8.9-21.1,21.1c0.9,9,8.2,16.3,17.2,17.2c12.2,1.2,22.3-8.9,21.1-21.1
		C164,89.2,156.7,81.9,147.8,81z"/>
</g>
</svg>
