<?xml version="1.0" encoding="utf-8"?>
<!-- Generator: Adobe Illustrator 24.2.1, SVG Export Plug-In . SVG Version: 6.00 Build 0)  -->
<svg version="1.1" id="图层_2" xmlns="http://www.w3.org/2000/svg" xmlns:xlink="http://www.w3.org/1999/xlink" x="0px" y="0px"
	 viewBox="0 0 200 200" enable-background="new 0 0 200 200" xml:space="preserve">
<g>
	<path fill="#333333" d="M171.1,49.8l-32.9-33.1c-1.1-1.1-2.7-1.8-4.3-1.8H39.3c-6.7,0-12.1,5.4-12.1,12.1v145.7
		c0,6.7,5.4,12.1,12.1,12.1h121.4c6.7,0,12.1-5.4,12.1-12.1V54.1C172.9,52.5,172.2,51,171.1,49.8z M107.8,148.2
		c-1.2,1.2-2.7,1.8-4.4,1.8c-1,0-1.9-0.2-2.6-0.5c-0.7-0.4-1.3-0.9-1.8-1.5c-0.5-0.6-1-1.6-1.6-2.8c-0.6-1.3-1-2.4-1.4-3.4l-3-7.9
		H67.3l-3,8c-1.2,3.1-2.2,5.2-3,6.3c-0.8,1.1-2.2,1.7-4.1,1.7c-1.6,0-3-0.6-4.3-1.7c-1.2-1.2-1.9-2.5-1.9-4c0-0.9,0.2-1.7,0.4-2.7
		c0.3-0.9,0.8-2.2,1.4-3.8l16.1-40.7c0.5-1.2,1-2.6,1.7-4.2c0.6-1.6,1.3-3,2.1-4.1c0.7-1.1,1.7-2,2.9-2.6c1.2-0.7,2.7-1,4.4-1
		c1.8,0,3.3,0.3,4.5,1c1.2,0.7,2.1,1.5,2.9,2.6c0.7,1.1,1.4,2.2,1.9,3.4c0.5,1.2,1.1,2.8,1.9,4.8l16.5,40.4c1.3,3.1,1.9,5.3,1.9,6.7
		C109.6,145.7,109,147,107.8,148.2z M142.9,121.4h-6.1v6.1c0,3.4-2.7,6.1-6.1,6.1c-3.4,0-6.1-2.7-6.1-6.1v-6.1h-6.1
		c-3.4,0-6.1-2.7-6.1-6.1c0-3.4,2.7-6.1,6.1-6.1h6.1v-6.1c0-3.4,2.7-6.1,6.1-6.1c3.4,0,6.1,2.7,6.1,6.1v6.1h6.1
		c3.4,0,6.1,2.7,6.1,6.1C149,118.7,146.2,121.4,142.9,121.4z M136.4,57.5c-3.4,0-6.1-2.7-6.1-6.1V27.1l30.4,30.4H136.4z"/>
	<polygon fill="#333333" points="70.7,124.5 89.5,124.5 80,98.6 	"/>
</g>
</svg>
