<?xml version="1.0" encoding="utf-8"?>
<!-- Generator: Adobe Illustrator 24.2.1, SVG Export Plug-In . SVG Version: 6.00 Build 0)  -->
<svg version="1.1" id="图层_2" xmlns="http://www.w3.org/2000/svg" xmlns:xlink="http://www.w3.org/1999/xlink" x="0px" y="0px"
	 viewBox="0 0 200 200" enable-background="new 0 0 200 200" xml:space="preserve">
<path fill="#333333" d="M100,180c44.2,0,80-35.8,80-80s-35.8-80-80-80s-80,35.8-80,80S55.8,180,100,180L100,180z M65.8,125.8
	L94,97.5V64c0-3.3,2.7-6,6-6s6,2.7,6,6v36c0,1.6-0.6,3.1-1.8,4.2l-30,30c-2.3,2.4-6.1,2.4-8.5,0.1c-2.4-2.3-2.4-6.1-0.1-8.5
	C65.7,125.9,65.7,125.8,65.8,125.8L65.8,125.8z"/>
</svg>
