<svg id="图层_1" data-name="图层 1" xmlns="http://www.w3.org/2000/svg" viewBox="0 0 200 200"><path d="M172.89,35.67h-4.28a4.28,4.28,0,0,0-4.28,4.27V160.05a17.12,17.12,0,0,1-17.11,17.12H39.94a4.27,4.27,0,0,0-4.27,4.27h0v4.28A4.28,4.28,0,0,0,39.94,190H155.78c9.23,0,21.39-12.16,21.39-21.28V39.83A4.25,4.25,0,0,0,172.89,35.67Z"/><circle cx="113.94" cy="128.98" r="9.09" transform="translate(-48.82 184.89) rotate(-67.5)"/><path d="M151.39,155.78V25a15,15,0,0,0-15-15H37.8a15,15,0,0,0-15,15V155.78a8.55,8.55,0,0,0,8.55,8.55H143A8.52,8.52,0,0,0,151.39,155.78ZM47.84,30.58h67a6.63,6.63,0,1,1,0,13.25h-67a6.63,6.63,0,1,1,0-13.25ZM41.21,64.07a6.65,6.65,0,0,1,6.63-6.62H85.71a6.64,6.64,0,0,1,6.62,6.62h0a6.64,6.64,0,0,1-6.62,6.63H47.84a6.65,6.65,0,0,1-6.63-6.63Zm0,26.87a6.65,6.65,0,0,1,6.63-6.62h52a6.63,6.63,0,1,1,0,13.25H47.84A6.65,6.65,0,0,1,41.21,90.94Zm95.16,40.41a2.07,2.07,0,0,1-2.07,2.06h-4.37a16,16,0,0,1-1.54,3.72l3.1,3.1a2.06,2.06,0,0,1,0,2.92l-3.36,3.36a2.07,2.07,0,0,1-2.93,0l-3.09-3.09a16.67,16.67,0,0,1-3.72,1.54v4.37a2.07,2.07,0,0,1-2.07,2.07h-4.75a2.07,2.07,0,0,1-2.07-2.07V145a16.59,16.59,0,0,1-3.71-1.54l-3.1,3.09a2.06,2.06,0,0,1-2.92,0l-3.36-3.36a2.06,2.06,0,0,1,0-2.92l3.09-3.1A16.59,16.59,0,0,1,98,133.43H93.59a2.07,2.07,0,0,1-2.07-2.07V126.6a2.07,2.07,0,0,1,2.07-2.06H98a16.21,16.21,0,0,1,1.54-3.72l-3.09-3.09a2.07,2.07,0,0,1,0-2.93l3.36-3.36a2.06,2.06,0,0,1,2.92,0l3.1,3.1a16.14,16.14,0,0,1,3.71-1.54v-4.38a2.07,2.07,0,0,1,2.07-2.07h4.75a2.07,2.07,0,0,1,2.07,2.07V113a16.21,16.21,0,0,1,3.72,1.54l3.09-3.1a2.09,2.09,0,0,1,2.93,0l3.36,3.37a2.06,2.06,0,0,1,0,2.92l-3.1,3.1a16.14,16.14,0,0,1,1.54,3.71h4.38a2.07,2.07,0,0,1,2.07,2.06Z"/></svg>