<?xml version="1.0" encoding="utf-8"?>
<!-- Generator: Adobe Illustrator 24.2.1, SVG Export Plug-In . SVG Version: 6.00 Build 0)  -->
<svg version="1.1" id="图层_2" xmlns="http://www.w3.org/2000/svg" xmlns:xlink="http://www.w3.org/1999/xlink" x="0px" y="0px"
	 viewBox="0 0 200 200" enable-background="new 0 0 200 200" xml:space="preserve">
<g>
	<path fill="#333333" d="M100,190c-49.7,0-90-40.3-90-90c0-49.7,40.3-90,90-90c49.7,0,90,40.3,90,90S149.7,190,100,190z M100,22
		c-43.1,0-78,34.9-78,78c0,43.1,34.9,78,78,78c43.1,0,78-34.9,78-78C178,56.9,143.1,22,100,22z M141.4,105.2h-35.3l-0.2,40.2
		c0,1.5,0.3,7.9-6.6,7.9c-6.6,0-5.9-4.2-5.9-7.4l0-40.7H54.6c-2.5,0-5.5,0-5.5-7.7c0-5.7,7-5.1,7-5.1h37.3V53.7c0-2.5,2-4.8,6.3-4.5
		c4.4,0.3,6.3,2,6.3,4.5v38.8h35.3c0,0,8-1,8,6.1C149.3,105.7,143,105.2,141.4,105.2L141.4,105.2z"/>
</g>
</svg>
