<?xml version="1.0" encoding="utf-8"?>
<!-- Generator: Adobe Illustrator 24.2.1, SVG Export Plug-In . SVG Version: 6.00 Build 0)  -->
<svg version="1.1" id="图层_2" xmlns="http://www.w3.org/2000/svg" xmlns:xlink="http://www.w3.org/1999/xlink" x="0px" y="0px"
	 viewBox="0 0 200 200" enable-background="new 0 0 200 200" xml:space="preserve">
<g>
	<polygon fill="#333333" points="141.8,189.5 141.8,153.7 177.6,153.7 	"/>
	<path fill="#333333" d="M153.7,10.5H46.3c-13.2,0-23.9,10.7-23.9,23.9v131.3c0,13.2,10.7,23.9,23.9,23.9h79.5v-45.8
		c0-3.3,2.7-6,6-6h45.8V34.4C177.6,21.2,166.9,10.5,153.7,10.5z M56.6,56h0.2c4.1-0.1,8.3,0,12.4,0l25.5,0l19.5-0.1l15,0l-13.8-18
		c-2-3.1-0.5-7.2,2.4-9c3.1-2,7.1-0.5,9,2.4c0.8,1.3,1.7,2.5,2.5,3.8l17.9,24.1c2.8,4.2-0.9,9.9-5.7,9.9h-0.2c-4.1,0.1-8.3,0-12.4,0
		l-18.2,0l-19.5,0.1l-24.4,0l-10.2,0c-3.7,0-6.4-3-6.6-6.6C49.8,59,53.2,56,56.6,56z M143.4,97.4h-0.2c-4.1,0.1-8.3,0-12.4,0
		l-18.2,0l-19.5,0.1l-22.3,0l13.8,18c2,3.1,0.5,7.2-2.4,9c-3.1,2-7.1,0.5-9-2.4c-0.8-1.3-1.7-2.5-2.5-3.8L52.9,94.3
		c-2.8-4.2,0.9-9.9,5.7-9.9h0.2c4.1-0.1,8.3,0,12.4,0l25.5,0l12.1-0.1l24.4,0l10.2,0c3.7,0,6.4,3,6.6,6.6
		C150.2,94.4,146.8,97.4,143.4,97.4z"/>
</g>
</svg>
