<?xml version="1.0" encoding="utf-8"?>
<!-- Generator: Adobe Illustrator 24.2.1, SVG Export Plug-In . SVG Version: 6.00 Build 0)  -->
<svg version="1.1" id="图层_2" xmlns="http://www.w3.org/2000/svg" xmlns:xlink="http://www.w3.org/1999/xlink" x="0px" y="0px"
	 viewBox="0 0 200 200" enable-background="new 0 0 200 200" xml:space="preserve">
<g>
	<path fill="#333333" d="M82.7,25h-25c-4.6,0-8.3,3.7-8.3,8.3v133.3c0,4.6,3.7,8.3,8.3,8.3h25c4.6,0,8.3-3.7,8.3-8.3V33.3
		C91,28.7,87.3,25,82.7,25z M70.2,155.5c-4.3,0-7.9-3.5-7.9-7.9s3.5-7.9,7.9-7.9s7.9,3.5,7.9,7.9S74.5,155.5,70.2,155.5z
		 M70.2,123.7c-4.3,0-7.9-3.5-7.9-7.9c0-4.3,3.5-7.9,7.9-7.9s7.9,3.5,7.9,7.9C78,120.2,74.5,123.7,70.2,123.7z M70.2,92
		c-4.3,0-7.9-3.5-7.9-7.9s3.5-7.9,7.9-7.9s7.9,3.5,7.9,7.9S74.5,92,70.2,92z M70.2,60.2c-4.3,0-7.9-3.5-7.9-7.9
		c0-4.3,3.5-7.9,7.9-7.9S78,48,78,52.4C78,56.7,74.5,60.2,70.2,60.2z"/>
	<path fill="#333333" d="M142.3,25h-25c-4.6,0-8.3,3.7-8.3,8.3v133.3c0,4.6,3.7,8.3,8.3,8.3h25c4.6,0,8.3-3.7,8.3-8.3V33.3
		C150.7,28.7,146.9,25,142.3,25z M129.8,155.5c-4.3,0-7.9-3.5-7.9-7.9s3.5-7.9,7.9-7.9s7.9,3.5,7.9,7.9S134.2,155.5,129.8,155.5z
		 M129.8,123.7c-4.3,0-7.9-3.5-7.9-7.9c0-4.3,3.5-7.9,7.9-7.9s7.9,3.5,7.9,7.9C137.7,120.2,134.2,123.7,129.8,123.7z M129.8,92
		c-4.3,0-7.9-3.5-7.9-7.9s3.5-7.9,7.9-7.9s7.9,3.5,7.9,7.9S134.2,92,129.8,92z M129.8,60.2c-4.3,0-7.9-3.5-7.9-7.9
		c0-4.3,3.5-7.9,7.9-7.9s7.9,3.5,7.9,7.9C137.7,56.7,134.2,60.2,129.8,60.2z"/>
</g>
</svg>
