<?xml version="1.0" encoding="utf-8"?>
<!-- Generator: Adobe Illustrator 24.2.1, SVG Export Plug-In . SVG Version: 6.00 Build 0)  -->
<svg version="1.1" id="图层_2" xmlns="http://www.w3.org/2000/svg" xmlns:xlink="http://www.w3.org/1999/xlink" x="0px" y="0px"
	 viewBox="0 0 200 200" enable-background="new 0 0 200 200" xml:space="preserve">
<g>
	<path fill="#333333" d="M42,178.5v-157h56c17.2,0,30.4,3.2,39.7,9.7s14,15.5,14,27c0,8.5-2.9,16-8.7,22.4
		c-5.8,6.4-13,10.8-21.8,13.3v0.4c11,1.4,19.9,5.4,26.6,12.2c6.7,6.8,10.1,15.2,10.1,25.4c0,14.3-5.1,25.6-15.3,34
		c-10.2,8.4-24.1,12.6-41.8,12.6H42z M75.6,46.4v38.8h16c7.7,0,13.7-1.8,18.1-5.5c4.4-3.6,6.6-8.8,6.6-15.3c0-12-8.8-18-26.5-18
		H75.6z M75.6,110.5v43.1h20c8.5,0,15.1-2,19.9-5.9c4.8-3.9,7.2-9.4,7.2-16.3c0-6.6-2.4-11.8-7.1-15.4c-4.7-3.6-11.5-5.5-20.3-5.5
		H75.6z"/>
</g>
</svg>
