<svg id="图层_1" data-name="图层 1" xmlns="http://www.w3.org/2000/svg" viewBox="0 0 200 200"><path d="M168.47,10H31.53A10.59,10.59,0,0,0,21,20.59V179.41A10.59,10.59,0,0,0,31.53,190H168.47A10.59,10.59,0,0,0,179,179.41V20.59A10.59,10.59,0,0,0,168.47,10ZM46,57.31a8.36,8.36,0,0,1,8.32-8.37h84.94a8.35,8.35,0,0,1,8.31,8.37V87.08a8.35,8.35,0,0,1-8.31,8.37H54.27A8.35,8.35,0,0,1,46,87.1Zm53,56.44H55.09v28.11H98.66a29.26,29.26,0,0,0,7.67,9.2H54.27A8.36,8.36,0,0,1,46,142.69V112.9a8.35,8.35,0,0,1,8.32-8.36H107A29,29,0,0,0,98.93,113.75Zm1.41,9.44v9.2h-37v-9.2ZM112.68,116h27.47l-3-4.13a4.63,4.63,0,0,1,1-6.42,4.56,4.56,0,0,1,6.39,1l8.33,11.44a4.66,4.66,0,0,1,.39,4.8,4.56,4.56,0,0,1-4.08,2.52H112.68a4.6,4.6,0,0,1,0-9.2Zm36.8,23.52H122l3,4.12a4.62,4.62,0,0,1-1,6.42,4.44,4.44,0,0,1-2.69.9,4.55,4.55,0,0,1-3.69-1.88l-8.33-11.43a4.64,4.64,0,0,1-.39-4.81,4.55,4.55,0,0,1,4.07-2.52h36.5a4.6,4.6,0,0,1,0,9.2Z"/><path d="M138.37,58.14H55.09V86.25h83.28ZM109,76.8H63.31V67.6H109Zm20.71,0H120.6V67.6h9.14Z"/></svg>