<svg id="图层_1" data-name="图层 1" xmlns="http://www.w3.org/2000/svg" viewBox="0 0 200 200"><path d="M100,190a89.61,89.61,0,0,0,46.61-13L190,190l-17.83-36.22A90,90,0,1,0,100,190ZM66.91,80.89Q67.21,70,69.5,64.26a27.21,27.21,0,0,1,7.28-10.17,32.83,32.83,0,0,1,11.15-6.61,39.66,39.66,0,0,1,13-2.13q13.83,0,23,8.13t9.2,21.63a25.19,25.19,0,0,1-2.35,11q-2.34,4.92-10,12.3a135.51,135.51,0,0,0-10.17,10.48,21.37,21.37,0,0,0-3.81,7.44,38.56,38.56,0,0,0-1.13,11.6H92.26a54.18,54.18,0,0,1,1.37-13.58,27,27,0,0,1,4.11-8.89,114.42,114.42,0,0,1,9.87-11.16q7.14-7.36,9.19-10.69c1.37-2.22,2-5.54,2-9.94A16.72,16.72,0,0,0,114.15,62q-4.7-5.08-13.67-5.09-20.19,0-20.2,24H66.91v0Zm39.76,74.85H92V140.26h14.71Z"/></svg>