<?xml version="1.0" encoding="utf-8"?>
<!-- Generator: Adobe Illustrator 24.2.1, SVG Export Plug-In . SVG Version: 6.00 Build 0)  -->
<svg version="1.1" id="图层_2" xmlns="http://www.w3.org/2000/svg" xmlns:xlink="http://www.w3.org/1999/xlink" x="0px" y="0px"
	 viewBox="0 0 200 200" enable-background="new 0 0 200 200" xml:space="preserve">
<g>
	<path fill="#333333" d="M68.8,20.5H37.6c-11.3,0-17,5.7-17,17v124.8c0,11.3,5.7,17,17,17h31.2c11.3,0,17-5.7,17-17V37.6
		C85.8,26.2,80.1,20.5,68.8,20.5z"/>
	<path fill="#333333" d="M168.1,20.5h-62.4c-7.6,0-11.4,3.8-11.4,11.3v39.7c0,7.6,3.8,11.3,11.4,11.3h62.4c7.6,0,11.3-3.8,11.3-11.3
		V31.9C179.4,24.3,175.7,20.5,168.1,20.5z"/>
	<path fill="#333333" d="M122.7,88.7h-17c-7.6,0-11.4,3.8-11.4,11.3v68.1c0,7.6,3.8,11.3,11.4,11.3h17c7.6,0,11.3-3.8,11.3-11.3V100
		C134,92.4,130.3,88.7,122.7,88.7z"/>
	<path fill="#333333" d="M168.1,88.7h-17c-7.6,0-11.3,3.8-11.3,11.3v68.1c0,7.6,3.8,11.3,11.3,11.3h17c7.6,0,11.3-3.8,11.3-11.3V100
		C179.4,92.4,175.7,88.7,168.1,88.7z"/>
</g>
</svg>
