<svg xmlns="http://www.w3.org/2000/svg" viewBox="0 0 200 200"><defs><style>.cls-1{fill:#007aff;}</style></defs><g id="图层_1" data-name="图层 1"><path class="cls-1" d="M160.51,19.84H36.07A17.83,17.83,0,0,0,18.29,37.62V162.06a17.83,17.83,0,0,0,17.78,17.78H160.51a17.83,17.83,0,0,0,17.78-17.78V37.62a17.83,17.83,0,0,0-17.78-17.78ZM53.85,68.73H121.4L109.85,57.17a8.8,8.8,0,1,1,12.44-12.44L149,71.39a8.12,8.12,0,0,1,1.77,9.78q-2.65,5.34-8,5.34H53.85C48.51,86.51,45,83,45,77.62S48.51,68.73,53.85,68.73ZM142.73,131H75.18l11.55,11.56a8.58,8.58,0,0,1,0,12.44,9.57,9.57,0,0,1-6.22,2.67A9.59,9.59,0,0,1,74.29,155L47.62,128.28a8.11,8.11,0,0,1-1.77-9.77q2.65-5.34,8-5.34h88.88c5.34,0,8.89,3.56,8.89,8.89s-3.55,8.89-8.89,8.89Z"/></g></svg>