<?xml version="1.0" encoding="utf-8"?>
<!-- Generator: Adobe Illustrator 24.2.1, SVG Export Plug-In . SVG Version: 6.00 Build 0)  -->
<svg version="1.1" id="图层_2" xmlns="http://www.w3.org/2000/svg" xmlns:xlink="http://www.w3.org/1999/xlink" x="0px" y="0px"
	 viewBox="0 0 200 200" enable-background="new 0 0 200 200" xml:space="preserve">
<path fill="#333333" d="M93.5,12.7L93.5,100l0,0.6c0,0.2,0.1,0.5,0.1,0.7c-0.2,1.8,0.3,3.5,1.4,4.9l0.5,0.5l59.3,61.4
	c-37.7,30.2-92.7,24-122.9-13.7S7.8,61.8,45.5,31.6C59.3,20.6,76,14,93.5,12.7z M113.4,106.5l73.8,0c-1.4,19.7-9.5,38.3-22.9,52.7
	L113.4,106.5l73.8,0L113.4,106.5L113.4,106.5L113.4,106.5L113.4,106.5z M106.6,93.3l0.1-80.6c43.1,3.2,77.4,37.5,80.6,80.6
	L106.6,93.3l0.1-80.6L106.6,93.3L106.6,93.3z"/>
</svg>
