<?xml version="1.0" encoding="utf-8"?>
<!-- Generator: Adobe Illustrator 22.0.1, SVG Export Plug-In . SVG Version: 6.00 Build 0)  -->
<svg version="1.1" id="图层_1" xmlns="http://www.w3.org/2000/svg" xmlns:xlink="http://www.w3.org/1999/xlink" x="0px" y="0px"
	 viewBox="0 0 200 200" enable-background="new 0 0 200 200" xml:space="preserve">
<g id="图层_1_1_">
	<path fill="#6883D8" d="M153.5,10.3H46.4c-9.3,0-16.1,5.3-17,13.2v0.1V175c0,8.6,7,14.7,17,14.7h107.1c9.4,0,17.1-6.1,17.1-13.5
		V23.8C170.6,16.4,163,10.3,153.5,10.3z M155.2,166.3c0.1,6.1-6.7,8.1-9.7,8.1H79.4l47-6.3c4.1-0.6,9.7-3,9.7-8.3V39.5
		c0-6.3-5.6-7.7-9.7-8.3l-49.6-6.4h68.7c3,0,9.8,1.8,9.7,8.1V166.3z M111,97.7v3.2l5.6,24.4H99.8l5.6-24.4v-3.2c0,0,0,0,0-0.1
		c-5.1-1.3-8.9-5.9-8.9-11.3c0-6.5,5.2-11.7,11.7-11.7l0,0l0,0l0,0c4,0,7.4,1.8,9.3,4.7c1.5,2,2.4,4.4,2.4,7
		C119.9,91.8,116.1,96.4,111,97.7L111,97.7z"/>
</g>
</svg>
