<?xml version="1.0" encoding="utf-8"?>
<!-- Generator: Adobe Illustrator 24.2.1, SVG Export Plug-In . SVG Version: 6.00 Build 0)  -->
<svg version="1.1" id="图层_2" xmlns="http://www.w3.org/2000/svg" xmlns:xlink="http://www.w3.org/1999/xlink" x="0px" y="0px"
	 viewBox="0 0 200 200" enable-background="new 0 0 200 200" xml:space="preserve">
<g>
	<path fill="#333333" d="M58.8,95.1c0.1-2.8-0.3-5.6-1.1-8.3c-0.7-2.4-1.8-4.6-3.3-6.6c-1.5-1.9-3.5-3.4-5.6-4.3
		c-2.2-1-4.6-1.5-7-1.5c0,0-0.1,0-0.1,0c-3.6-0.1-7,1.3-9.5,3.7v-16c0-0.6-0.4-1-1-1h-6.5c-0.6,0-1,0.4-1,1v52.7c0,0.6,0.4,1,1,1
		h6.1c0.5,0,1-0.4,1-1l0-2.1c2.4,2.4,5.8,3.9,9.3,3.8c0.1,0,0.2,0,0.3,0c4.7,0,9.3-2,12.5-5.6C57.4,106.4,59.2,100.8,58.8,95.1z
		 M47.4,106c-1.6,2.1-4,3.3-6.5,3.3c-3.1,0-5.9-1.7-7.4-4.4c-1.3-2.8-2-5.8-1.9-8.9c0-0.1,0-0.6,0-0.9c0-0.1,0-0.2,0-0.2
		c-0.2-3.5,0.9-7,2.9-9.8c1.6-2.1,4-3.3,6.5-3.3c2.6,0,5,1.3,6.5,3.4c2.1,3,3.1,6.7,2.8,10.4c0,0.1,0,0.1,0,0.2
		C50.6,99.4,49.6,103,47.4,106z"/>
	<path fill="#333333" d="M99.8,114.3c-0.8-1.3-1.3-2.8-1.5-4.2c-0.4-3.7-0.5-7.5-0.4-11.3l0-8.8c0.1-2-0.1-4.1-0.4-6.2
		c-0.3-1.8-1.1-3.5-2.3-4.9c-1.3-1.4-3-2.5-4.9-3.2c-2.7-0.9-5.5-1.3-8.3-1.2c-3.2-0.1-6.3,0.4-9.2,1.5c-2.4,0.8-4.6,2.2-6.2,4.2
		c-1.5,2.1-2.6,4.6-3,7.1c0,0.3,0,0.6,0.2,0.8c0.2,0.2,0.4,0.4,0.7,0.4l6.3,0.6c0.5,0.1,1-0.3,1.1-0.8c0.3-1.9,1.3-3.7,2.8-5.1
		c1.8-1.1,3.9-1.6,6.1-1.4c0.1,0,0.1,0,0.2,0c2.4-0.2,4.7,0.5,6.6,2c1.2,1.3,1.7,3,1.5,4.7c0,0,0,0.1,0,0.1v0.9c-3.5,1-7,1.6-10.6,2
		c-2,0.2-4,0.5-6,1c-1.8,0.5-3.4,1.2-4.9,2.2c-3.2,2.2-5.1,5.8-5.1,9.6c-0.1,3.3,1.2,6.5,3.7,8.7c2.7,2.3,6.2,3.5,9.7,3.5
		c0.3,0,0.6,0,0.9,0c2.5,0,4.9-0.5,7.3-1.3c2.1-0.8,4-2,5.8-3.3c0.2,1.1,0.6,2.2,1.1,3.3c0.2,0.3,0.5,0.6,0.9,0.6h7
		c0.4,0,0.7-0.2,0.9-0.5C100,115,100,114.6,99.8,114.3z M88.2,104c-0.8,1.7-2.2,3.1-3.9,4c-1.8,1-3.9,1.6-6.1,1.6c0,0-0.1,0-0.2,0
		c-1.8,0.1-3.6-0.4-5-1.5c-1.1-0.9-1.7-2.2-1.6-3.6c0-0.9,0.3-1.8,0.7-2.5c0.5-0.8,1.3-1.4,2.1-1.7c1.7-0.6,3.6-1,5.4-1.2
		c3.2-0.4,6.4-1.1,9.4-2.1l0,1C89.3,100,89,102.1,88.2,104z"/>
	<path fill="#333333" d="M138.2,100.8l-6.4-1.1c-0.3,0-0.6,0-0.8,0.2c-0.2,0.2-0.4,0.4-0.4,0.7c-0.1,2.3-1,4.6-2.5,6.4
		c-1.5,1.4-3.5,2.1-5.7,2.1c-2.6,0.1-5.3-1.1-6.9-3.1c-2.1-3.1-3.1-6.8-2.8-10.5c0-0.1,0-0.1,0-0.2c-0.3-3.7,0.7-7.4,2.8-10.4
		c1.8-2.1,4.4-3.2,7.2-3.2c1.7,0,3.3,0.6,4.6,1.7c1.5,1.4,2.5,3.2,2.9,5.2c0.1,0.5,0.6,0.9,1.1,0.8l6.3-0.9c0.3,0,0.5-0.2,0.7-0.4
		c0.2-0.2,0.2-0.5,0.2-0.7c-0.6-3.8-2.6-7.2-5.7-9.6c-3.1-2.3-6.9-3.5-10.8-3.4c-3.4,0-6.7,0.9-9.7,2.6c-3,1.8-5.3,4.5-6.5,7.7
		c-1.5,3.6-2.2,7.4-2.1,11.2c-0.4,5.6,1.4,11.1,5,15.5c3.3,3.6,8,5.6,12.9,5.6c0.2,0,0.3,0,0.5,0c4.1,0.1,8.1-1.3,11.2-4
		c3.2-2.9,5.2-6.9,5.6-11.2C139.1,101.4,138.7,100.9,138.2,100.8z"/>
	<path fill="#333333" d="M176.2,114.2l-15.7-23.4l14-13.6c0.3-0.3,0.4-0.7,0.2-1.1c-0.2-0.4-0.5-0.6-0.9-0.6h-8.4
		c-0.3,0-0.5,0.1-0.7,0.3l-13.6,13.8V62.1c0-0.6-0.4-1-1-1h-6.5c-0.6,0-1,0.4-1,1v52.7c0,0.6,0.4,1,1,1h6.5c0.6,0,1-0.4,1-1V100
		l3.4-3.3l12,18.6c0.2,0.3,0.5,0.5,0.8,0.5h8c0.4,0,0.7-0.2,0.9-0.5C176.4,114.9,176.4,114.5,176.2,114.2z"/>
</g>
<rect x="28.1" y="135.7" fill="#333333" width="144" height="20"/>
</svg>
