<?xml version="1.0" encoding="utf-8"?>
<!-- Generator: Adobe Illustrator 24.2.1, SVG Export Plug-In . SVG Version: 6.00 Build 0)  -->
<svg version="1.1" id="图层_2" xmlns="http://www.w3.org/2000/svg" xmlns:xlink="http://www.w3.org/1999/xlink" x="0px" y="0px"
	 viewBox="0 0 200 200" enable-background="new 0 0 200 200" xml:space="preserve">
<path fill="#333333" d="M44.6,33.6V22.5H22.5v155h22.1v-11.1H33.6v-38.8h11.1v-11.1H33.6V77.9h11.1V66.8H33.6V33.6H44.6z M65.2,88.9
	H85c2.2,0,3.9,1.8,3.9,3.9v80.7c0,2.2-1.8,3.9-3.9,3.9H65.2c-2.2,0-3.9-1.8-3.9-3.9V92.9C61.2,90.7,63,88.9,65.2,88.9z M109.5,55.7
	h19.8c2.2,0,3.9,1.8,3.9,3.9v113.9c0,2.2-1.8,3.9-3.9,3.9h-19.8c-2.2,0-3.9-1.8-3.9-3.9V59.7C105.5,57.5,107.3,55.7,109.5,55.7z
	 M153.8,22.5h19.8c2.2,0,3.9,1.8,3.9,3.9v147.1c0,2.2-1.8,3.9-3.9,3.9h-19.8c-2.2,0-3.9-1.8-3.9-3.9V26.4
	C149.8,24.3,151.6,22.5,153.8,22.5z"/>
</svg>
