<?xml version="1.0" encoding="utf-8"?>
<!-- Generator: Adobe Illustrator 24.2.1, SVG Export Plug-In . SVG Version: 6.00 Build 0)  -->
<svg version="1.1" id="图层_2" xmlns="http://www.w3.org/2000/svg" xmlns:xlink="http://www.w3.org/1999/xlink" x="0px" y="0px"
	 viewBox="0 0 200 200" enable-background="new 0 0 200 200" xml:space="preserve">
<path fill="#333333" d="M151.2,94.7l15.4,22.3c2.6,3.8,1.7,8.9-2.1,11.5c-3.8,2.6-8.9,1.7-11.5-2.1l-17.6-25.5
	c-8.6,2.6-17.7,4.3-27,5v30.4c0,4.6-3.7,8.3-8.3,8.3s-8.3-3.7-8.3-8.3v-30.4c-9.4-0.6-18.5-2.3-27-5l-17.6,25.5
	c-2.6,3.8-7.8,4.7-11.5,2.1c-3.8-2.6-4.7-7.8-2.1-11.5l15.4-22.3c-13-6.4-24.1-15.2-32.2-25.9c-2.7-3.7-2-8.9,1.7-11.6
	c3.7-2.7,8.9-2,11.6,1.7C44,77.5,70.5,89.6,100,89.6s56-12,70.1-30.8c2.7-3.7,7.9-4.4,11.6-1.7c3.7,2.7,4.4,7.9,1.7,11.6
	C175.3,79.4,164.2,88.3,151.2,94.7L151.2,94.7z"/>
</svg>
