<svg id="图层_2" data-name="图层 2" xmlns="http://www.w3.org/2000/svg" viewBox="0 0 200 200"><defs><style>.cls-1{fill:#007aff;}</style></defs><path class="cls-1" d="M131.55,124.64a8.14,8.14,0,0,1,2.55-14.42l21.5-6a19.07,19.07,0,0,0,13.09-23.53l-1.18-4.13A19,19,0,0,0,144,63.42L103.53,75.28A19.17,19.17,0,0,0,89.75,94.69a8.15,8.15,0,0,1-16.27.92,35.43,35.43,0,0,1,25.58-36l40.45-11.87A35.37,35.37,0,0,1,183.18,72l1.18,4.14a35.38,35.38,0,0,1-24.28,43.65l-21.5,6A8.05,8.05,0,0,1,131.55,124.64Z"/><path class="cls-1" d="M67.24,179a34.94,34.94,0,0,1-22.14-6.24l-3.54-2.45a35.4,35.4,0,0,1-8.88-49.16L49.75,95.39a8.15,8.15,0,0,1,13.39,9.29L46.06,130.4a19.13,19.13,0,0,0,4.78,26.49l3.53,2.45a19.07,19.07,0,0,0,26.49-4.79l25-36.33a19.21,19.21,0,0,0-2.4-24.53A8.14,8.14,0,1,1,114.78,82a35.41,35.41,0,0,1,4.45,45.51l-25,36.34A35.22,35.22,0,0,1,67.24,179Z"/><path class="cls-1" d="M21.18,87.41a6.9,6.9,0,0,1-.54-13.77l28.05-2.21a6.9,6.9,0,1,1,1.08,13.75l-28,2.21Z"/><path class="cls-1" d="M56.7,66.45a6.87,6.87,0,0,1-4.78-1.93l-18.72-18a6.9,6.9,0,0,1,9.57-9.94L61.49,54.59A6.9,6.9,0,0,1,56.7,66.45Z"/><path class="cls-1" d="M76.4,59.78a6.92,6.92,0,0,1-6.87-6.34l-2-25a6.9,6.9,0,1,1,13.75-1.12l2,25A6.88,6.88,0,0,1,77,59.75,5.44,5.44,0,0,1,76.4,59.78Z"/></svg>