<svg id="图层_1" data-name="图层 1" xmlns="http://www.w3.org/2000/svg" viewBox="0 0 200 200"><path d="M66.22,33.18a11.48,11.48,0,0,0,8,3h48.72a11.5,11.5,0,0,0,8-3,8.94,8.94,0,0,0,3.1-7.41v-.6A9.4,9.4,0,0,0,130.66,18a11.51,11.51,0,0,0-8-3H74.19a11.47,11.47,0,0,0-8,3,9.38,9.38,0,0,0-3.33,7.21v.6A9.58,9.58,0,0,0,66.22,33.18Z"/><path d="M168.7,26.23a12.35,12.35,0,0,0-9.34-4H141.49v5.92a13.35,13.35,0,0,1-3.8,9.5,12.36,12.36,0,0,1-9.35,4H69a12.44,12.44,0,0,1-9.24-4,13.13,13.13,0,0,1-3.91-9.5V22.21H40.64a12.35,12.35,0,0,0-9.34,4,13.35,13.35,0,0,0-3.8,9.5v135.8a13.35,13.35,0,0,0,3.8,9.5,12.34,12.34,0,0,0,9.34,4H159.36a12.44,12.44,0,0,0,9.24-4,13.16,13.16,0,0,0,3.9-9.5V35.73A13.35,13.35,0,0,0,168.7,26.23Zm-105.58,63c0-6.9,12.95-12.5,35.13-12.5s37.64,5.58,37.64,12.5v7.51c0,6.9-15.46,12.5-37.64,12.5s-35.13-5.6-35.13-12.5Zm0,22.48A5.22,5.22,0,0,1,64.89,108c5.13,5.07,15.26,8.75,33.23,8.75h1.43a27.24,27.24,0,0,0-6.3,17.41c-19.09-.77-30.13-6-30.13-12.4Zm35.15,45c-22.16,0-35.13-5.58-35.13-12.49v-10a5.26,5.26,0,0,1,1.77-3.76c4.66,4.63,12.77,9.47,28,10,1.3,7.15,6.15,12,11.86,16.05C102.64,156.74,100.49,156.79,98.27,156.79Zm45.29,5a4.58,4.58,0,0,1-3.28-1.35L133,153.14a22.08,22.08,0,1,1,6.44-6.66l7.39,7.44a4.69,4.69,0,0,1,1.35,3.27A4.62,4.62,0,0,1,143.56,161.81Z"/><ellipse cx="120.52" cy="134.8" rx="15.39" ry="15.33"/></svg>