<?xml version="1.0" encoding="utf-8"?>
<!-- Generator: Adobe Illustrator 22.0.1, SVG Export Plug-In . SVG Version: 6.00 Build 0)  -->
<svg version="1.1" id="图层_1" xmlns="http://www.w3.org/2000/svg" xmlns:xlink="http://www.w3.org/1999/xlink" x="0px" y="0px"
	 viewBox="0 0 200 200" enable-background="new 0 0 200 200" xml:space="preserve">
<g id="图层_1_1_">
	<path fill="#6883D8" d="M106.1,19.7H125c2,0,3.7,1.3,4.3,3.2l7.3,24.3c1.3,4.2,7.3,4.2,8.5,0l7.3-24.3c0.6-1.9,2.3-3.2,4.3-3.2
		h17.6c2.3,0,4.2,1.8,4.2,4.1l0,0v59.5l0,0H21.7l0,0V23.8c0-2.3,1.8-4.2,4.1-4.2l0,0h16.7c1.9,0,3.6,1.2,4.2,3l5.4,15
		c1.4,4.1,7.3,3.9,8.5-0.3l4.2-14.5c0.6-1.9,2.3-3.2,4.3-3.2l14.6,0.1c1.7,0,3.2,1,4,2.5l3.1,6.3c1.6,3.3,6.3,3.3,8,0l3.2-6.3
		C102.8,20.6,104.3,19.7,106.1,19.7z"/>
	<path fill="#6883D8" d="M113.8,125.7l8.3,41.1c1.6,9.1-4.4,17.7-13.5,19.3c-0.9,0.2-1.9,0.3-2.9,0.3H93.8
		c-9.2,0-16.7-7.5-16.7-16.7c0-1,0.1-2,0.3-3l8.7-41H29.8c-4.6,0-8.3-3.7-8.3-8.3v-16.7h156.7v16.6c0,4.6-3.7,8.3-8.3,8.3
		L113.8,125.7z M99.9,173c5.9,0,10.6-4.7,10.7-10.6c0-5.9-4.7-10.6-10.6-10.7c-5.9,0-10.6,4.7-10.7,10.6c0,0,0,0,0,0.1
		C89.3,168.3,94.1,173,99.9,173z"/>
</g>
</svg>
