<?xml version="1.0" encoding="utf-8"?>
<!-- Generator: Adobe Illustrator 24.2.1, SVG Export Plug-In . SVG Version: 6.00 Build 0)  -->
<svg version="1.1" id="图层_2" xmlns="http://www.w3.org/2000/svg" xmlns:xlink="http://www.w3.org/1999/xlink" x="0px" y="0px"
	 viewBox="0 0 200 200" enable-background="new 0 0 200 200" xml:space="preserve">
<g>
	<path fill="#333333" d="M181.2,62.2H25.8V40c0-6.1,5-11.1,11.1-11.1l0,0h35.5c2.1,0,4.2,0.8,5.7,2.3L98,51.1h72.1
		C176.3,51.1,181.2,56.1,181.2,62.2z"/>
	<path fill="#333333" d="M36.9,73.3h133.2c7.4,0,11.1,3.7,11.1,11.1v72.8c0,7.4-3.7,11.1-11.1,11.1H36.9c-7.4,0-11.1-3.7-11.1-11.1
		V84.4C25.8,77,29.5,73.3,36.9,73.3L36.9,73.3z"/>
</g>
</svg>
