<?xml version="1.0" encoding="utf-8"?>
<!-- Generator: Adobe Illustrator 24.2.1, SVG Export Plug-In . SVG Version: 6.00 Build 0)  -->
<svg version="1.1" id="图层_2" xmlns="http://www.w3.org/2000/svg" xmlns:xlink="http://www.w3.org/1999/xlink" x="0px" y="0px"
	 viewBox="0 0 200 200" enable-background="new 0 0 200 200" xml:space="preserve">
<g>
	<path fill="#333333" d="M20,48.3v-4.1c1.7-3.3,4.4-4.2,7.9-4.2c10.2,0.2,20.5,0.1,30.8,0.1c1.4,0,2.8-0.1,4.3-0.2v-5
		c0.2-9.1,5.3-14.5,14.1-14.9c2-0.1,4,0,6,0c12.8,0,25.6-0.1,38.4,0c10.1,0.1,15.2,5.1,15.7,15.4l0.2,4.6c11.9,0,23.5,0.1,35-0.1
		c3.4-0.1,5.9,1,7.5,4.2v4.1c-2.2,3.2-5.5,3.8-9.1,3.7c-4.6-0.2-9.2,0-14.2,0v103.5c0,9.7-3.4,17.3-12.1,21.7
		c-2.4,1.2-5.2,1.8-7.8,2.7H63.2c-16.1-5.3-19.8-10.6-19.8-28.5V52C38,52,33.2,51.8,28.3,52C24.8,52.1,22,51.3,20,48.3z M74.5,39.8
		h50.9c0-1.8-0.1-3.1,0-4.4c0.2-2.5-1-3.4-3.3-3.4c-14.8,0.1-29.5,0-44.3,0c-2.4,0-3.4,1.1-3.4,3.4V39.8z M132.8,113
		c0-10.1,0-20.4-0.1-30.7c0-5-1.8-7.6-5.1-7.7c-3.3-0.1-5.4,2.7-5.4,7.5c-0.1,20.3,0,40.4,0,60.7c0.1,4.8,2.2,7.7,5.4,7.6
		c3.3-0.1,5.2-2.9,5.2-7.8V113z M78.3,112.6C78.2,112.6,78.2,112.6,78.3,112.6c-0.1-10.5,0-21,0-31.5c-0.1-3.9-2.3-6.4-5.3-6.4
		c-3.1,0.1-5.1,2.5-5.3,6.5v60.9c0,1-0.2,2.2,0.1,3.3c0.6,3.2,2.3,5.3,5.2,5.2c2.8-0.1,4.7-2,5.2-5.3c0.2-1.3,0.2-2.7,0.2-4.1
		C78.3,141.2,78.3,112.6,78.3,112.6L78.3,112.6z M105.8,112.8V81.6c0-4.3-1.9-6.9-5.2-7c-3.4-0.1-5.4,2.6-5.4,7.1v61.7
		c0,4.3,2,7,5.2,7c3.3,0.1,5.4-2.6,5.4-7.1V112.8z"/>
</g>
</svg>
