<?xml version="1.0" encoding="utf-8"?>
<!-- Generator: Adobe Illustrator 22.0.1, SVG Export Plug-In . SVG Version: 6.00 Build 0)  -->
<svg version="1.1" id="图层_1" xmlns="http://www.w3.org/2000/svg" xmlns:xlink="http://www.w3.org/1999/xlink" x="0px" y="0px"
	 viewBox="0 0 200 200" enable-background="new 0 0 200 200" xml:space="preserve">
<g id="图层_1_1_">
	<path fill="#7DA4EC" d="M137.2,47.8c-24.7-24.7-64.8-24.7-89.5,0s-24.7,64.8,0,89.5c22.7,22.7,58.4,24.5,83.2,5.4l25.7,25.7
		c3.2,3.2,8.4,3.2,11.7,0c3.2-3.2,3.2-8.4,0-11.7L142.6,131C161.7,106.2,159.9,70.5,137.2,47.8z M125.6,125.6
		c-18.2,18.2-47.9,18.2-66.1,0s-18.2-47.9,0-66.1s47.9-18.2,66.1,0S143.8,107.3,125.6,125.6z"/>
</g>
</svg>
