<?xml version="1.0" encoding="utf-8"?>
<!-- Generator: Adobe Illustrator 22.0.1, SVG Export Plug-In . SVG Version: 6.00 Build 0)  -->
<svg version="1.1" id="_x31_" xmlns="http://www.w3.org/2000/svg" xmlns:xlink="http://www.w3.org/1999/xlink" x="0px" y="0px"
	 viewBox="0 0 24 24" enable-background="new 0 0 24 24" xml:space="preserve">
<g id="_x30_1">
	<path fill="#0063F5" d="M21,3.7H3c-0.6,0-1,0.4-1,1V6c0,0.6,0.4,1,1,1h18c0.6,0,1-0.4,1-1V4.7C22,4.1,21.5,3.7,21,3.7z"/>
	<path fill="#0063F5" d="M21,10.3H3c-0.6,0-1,0.4-1,1v1.3c0,0.6,0.4,1,1,1h18c0.6,0,1-0.4,1-1v-1.3C22,10.8,21.5,10.3,21,10.3z"/>
	<path fill="#0063F5" d="M21,17H3c-0.6,0-1,0.4-1,1v1.3c0,0.6,0.4,1,1,1h18c0.6,0,1-0.4,1-1V18C22,17.4,21.5,17,21,17z"/>
</g>
</svg>
