<?xml version="1.0" encoding="utf-8"?>
<!-- Generator: Adobe Illustrator 22.0.1, SVG Export Plug-In . SVG Version: 6.00 Build 0)  -->
<svg version="1.1" id="图层_1" xmlns="http://www.w3.org/2000/svg" xmlns:xlink="http://www.w3.org/1999/xlink" x="0px" y="0px"
	 viewBox="0 0 200 200" enable-background="new 0 0 200 200" xml:space="preserve">
<g id="图层_1_1_">
	<path fill="#7DA4EC" d="M145.8,45.8H54.2c-4.6,0-8.3,3.7-8.3,8.3v91.7c0,4.6,3.7,8.3,8.3,8.3h91.7c4.6,0,8.3-3.7,8.3-8.3V54.2
		C154.2,49.6,150.4,45.8,145.8,45.8z M127.1,106.2h-20.8V127c0,3.5-2.8,6.3-6.3,6.3s-6.3-2.8-6.3-6.3v-20.8H72.9
		c-3.5,0-6.3-2.8-6.3-6.3s2.8-6.3,6.3-6.3h20.8V72.9c0-3.5,2.8-6.3,6.3-6.3s6.3,2.8,6.3,6.3v20.8h20.8c3.5,0,6.2,2.8,6.2,6.3
		S130.5,106.2,127.1,106.2z"/>
</g>
</svg>
