<?xml version="1.0" encoding="utf-8"?>
<!-- Generator: Adobe Illustrator 24.2.1, SVG Export Plug-In . SVG Version: 6.00 Build 0)  -->
<svg version="1.1" id="图层_2" xmlns="http://www.w3.org/2000/svg" xmlns:xlink="http://www.w3.org/1999/xlink" x="0px" y="0px"
	 viewBox="0 0 200 200" enable-background="new 0 0 200 200" xml:space="preserve">
<path fill="#333333" d="M111,124.9c-2.9-0.6-5.9,0.4-7.7,2.7c-8.5,8-16,16.2-24.2,24.1c-8.6,8.7-22.6,8.9-31.4,0.4
	c-4.5-4.4-7-10.5-6.7-16.8c0.3-6.1,3-11.9,7.6-16c7.9-8.1,16-15.9,23.8-23.9c2-1.4,3.3-3.6,3.4-6c0.2-2.4-0.7-4.7-2.5-6.3
	c-1.7-1.5-4-2.3-6.3-2.2c-2.3,0.1-4.5,1.2-5.9,3c-8.5,8.8-16.9,16.4-24.9,24.9c-15.1,15.3-14.9,39.8,0.4,54.9
	c3.2,3.1,6.8,5.6,10.9,7.5c13.3,6.6,29.2,4.3,40.1-5.8c9.5-8.5,18.3-18,27.5-27.4c1.7-2.1,2.3-4.9,1.9-7.5
	C116.3,127.7,113.9,125.5,111,124.9z M163.9,90.4c11.3-11.1,14.3-28.1,7.6-42.4c-5.3-13.6-18.3-22.6-32.9-22.9
	c-9-0.8-17.9,1.8-24.9,7.4c-10.2,9.2-19.7,19.1-29.3,28.8c-1.9,2.2-2.5,5.3-1.4,8.1c1.1,2.7,3.7,4.5,6.6,4.7c2.7-0.2,5.2-1.2,7.2-3
	c8.5-8.5,16.9-17,25.5-24.9c5.2-4.8,12.5-6.4,19.3-4.4c11.9,3,19.1,15.1,16.1,27c-1,3.9-3,7.4-5.9,10.3L126.7,104
	c-3.5,3.1-3.9,8.3-1,11.9c3.4,3.5,9,3.6,12.5,0.2c0.1-0.1,0.1-0.1,0.2-0.2C146.9,107.4,155.5,99.4,163.9,90.4z"/>
<path fill="#333333" d="M66.1,124.7c-0.1,2.3,0.8,4.5,2.5,6c3.1,3.3,8.3,3.5,11.7,0.4c0.2-0.1,0.3-0.3,0.4-0.4
	c16.7-16.6,33.6-33.4,50.5-50.2c1.1-1.4,2-2.9,2.6-4.5c0.3-3.7-1.8-7.2-5.2-8.6c-3.3-1.5-7.2-0.7-9.6,2.1l-50.4,49.5
	C67,120.4,66.1,122.5,66.1,124.7z"/>
</svg>
