<?xml version="1.0" encoding="utf-8"?>
<!-- Generator: Adobe Illustrator 22.0.1, SVG Export Plug-In . SVG Version: 6.00 Build 0)  -->
<svg version="1.1" id="图层_1" xmlns="http://www.w3.org/2000/svg" xmlns:xlink="http://www.w3.org/1999/xlink" x="0px" y="0px"
	 viewBox="0 0 200 200" enable-background="new 0 0 200 200" xml:space="preserve">
<path fill="#6883D8" d="M180.4,71.3h-16.1c-4.4,0-8-3.6-8-8V40.2c0-4.4-3.6-8-8-8h-8H59.8h-8c-4.4,0-8,3.6-8,8v23.1c0,4.4-3.6,8-8,8
	H19.6c-4.4,0-8,3.6-8,8v80.4c0,4.4,3.6,8,8,8h160.8c4.4,0,8-3.6,8-8V79.4C188.4,74.9,184.8,71.3,180.4,71.3z M47.4,102.1L47.4,102.1
	c4.8,0,8.8,3.9,8.8,8.8v17.5c0,4.8-3.9,8.8-8.8,8.8l0,0c-4.8,0-8.8-3.9-8.8-8.8v-17.5C38.7,106,42.6,102.1,47.4,102.1z M82.5,102.1
	L82.5,102.1c4.8,0,8.8,3.9,8.8,8.8v17.5c0,4.8-3.9,8.8-8.8,8.8l0,0c-4.8,0-8.8-3.9-8.8-8.8v-17.5C73.7,106,77.6,102.1,82.5,102.1z
	 M117.5,102.1L117.5,102.1c4.8,0,8.8,3.9,8.8,8.8v17.5c0,4.8-3.9,8.8-8.8,8.8l0,0c-4.8,0-8.8-3.9-8.8-8.8v-17.5
	C108.8,106,112.7,102.1,117.5,102.1z M152.6,102.1L152.6,102.1c4.8,0,8.8,3.9,8.8,8.8v17.5c0,4.8-3.9,8.8-8.8,8.8l0,0
	c-4.8,0-8.8-3.9-8.8-8.8v-17.5C143.8,106,147.7,102.1,152.6,102.1z"/>
</svg>
