<svg id="图层_1" data-name="图层 1" xmlns="http://www.w3.org/2000/svg" viewBox="0 0 200 200"><defs><style>.cls-1{fill:#515151;}.cls-2{fill:#fff;}</style></defs><rect class="cls-1" x="14.51" y="15" width="170" height="170" rx="14"/><path class="cls-2" d="M149.55,78.35l-56.46,57.7a9.86,9.86,0,0,1-7,2.95H86a9.78,9.78,0,0,1-7-3.09L49.36,104.58a10.35,10.35,0,0,1,.13-14.3,10.21,10.21,0,0,1,7.11-3,9.65,9.65,0,0,1,7,3.12l22.58,23.91L135.5,64a9.87,9.87,0,0,1,7-3h.06a9.74,9.74,0,0,1,7,3.07A10.32,10.32,0,0,1,149.55,78.35Z"/></svg>