<svg id="图层_1" data-name="图层 1" xmlns="http://www.w3.org/2000/svg" viewBox="0 0 200 200"><path d="M183.51,169.33h-167c-3.6,0-6.49,3.4-6.49,7.73s2.89,7.73,6.49,7.73h167c3.6,0,6.49-3.5,6.49-7.73S187.11,169.33,183.51,169.33Z"/><path d="M177.11,15.21H22.89A12.89,12.89,0,0,0,10,28.09V143.66a12.9,12.9,0,0,0,12.89,12.89H177.11A12.9,12.9,0,0,0,190,143.66V28.09A12.89,12.89,0,0,0,177.11,15.21ZM67.31,85.37v29.84a5.45,5.45,0,0,1-10.9,0V85.37a12.81,12.81,0,0,1,0-23.24v-8.7a5.45,5.45,0,0,1,10.9,0v8.7a12.81,12.81,0,0,1,0,23.24Zm38.14,21.8v8a5.45,5.45,0,1,1-10.9,0v-8a12.81,12.81,0,0,1,0-23.24V53.43a5.45,5.45,0,0,1,10.9,0v30.5a12.81,12.81,0,0,1,0,23.24Zm38.14-21.8v29.84a5.45,5.45,0,0,1-10.9,0V85.37a12.81,12.81,0,0,1,0-23.24v-8.7a5.45,5.45,0,0,1,10.9,0v8.7a12.81,12.81,0,0,1,0,23.24Z"/></svg>