<?xml version="1.0" encoding="utf-8"?>
<!-- Generator: Adobe Illustrator 24.2.1, SVG Export Plug-In . SVG Version: 6.00 Build 0)  -->
<svg version="1.1" id="图层_2" xmlns="http://www.w3.org/2000/svg" xmlns:xlink="http://www.w3.org/1999/xlink" x="0px" y="0px"
	 viewBox="0 0 200 200" enable-background="new 0 0 200 200" xml:space="preserve">
<path fill="#333333" stroke="#333333" stroke-width="8.8762" d="M167.7,79.5c3.3,0,4.8,1.9,4.8,4.2c-0.2,1.7-1,3.3-2.3,4.3
	l-31.7,32.4l7.5,45.7c0.1,0.6,0.1,1.2,0,1.8c0.1,1.1-0.2,2.3-0.8,3.3c-0.6,0.8-1.6,1.3-2.7,1.3c-1.2,0-2.5-0.4-3.5-1.1l-39-21.6
	l-39.2,21.6c-1,0.7-2.3,1-3.5,1.1c-1.1,0.1-2.1-0.5-2.7-1.3c-0.7-1-1-2.1-1-3.3c0,0,0-1,0-1.8l7.5-45.7L29.7,87.9
	c-1.2-1.1-2-2.6-2.2-4.2c0-2.3,1.6-3.6,4.8-4.2l43.5-6.6l19.9-41.6c1.1-2.5,2.5-3.7,4.2-3.7s3.1,1.2,4.2,3.7l19.9,41.6L167.7,79.5z"
	/>
</svg>
