<svg xmlns="http://www.w3.org/2000/svg" viewBox="0 0 200 200"><defs><style>.cls-1{fill:#333;}</style></defs><g id="图层_1" data-name="图层 1"><path class="cls-1" d="M81,156.19l16.31-16.32h1.81c30.82,0,53.47-11.78,70.69-36.25a121.45,121.45,0,0,0-18.12-19l13.59-11.78c10,8.16,18.12,19,25.38,30.81C169.78,139.87,139,157.09,100,157.09,93.66,158,87.31,157.09,81,156.19ZM30.22,130.81A133.7,133.7,0,0,1,9.38,103.62C30.22,67.37,61,50.16,100,50.16h10L91.84,68.28c-27.18,1.81-48,13.59-63.43,35.34a66,66,0,0,0,12.68,14.5ZM151.66,36.56l12.68,12.69L50.16,163.44,37.47,150.75Z"/></g></svg>