<svg id="图层_1" data-name="图层 1" xmlns="http://www.w3.org/2000/svg" viewBox="0 0 200 200"><path d="M66.49,117.39H36.42V107.13a7.67,7.67,0,0,0-4.24-6.47L14.24,92.78c-2.33-1-4.24.22-4.24,2.76v63.25c0,2.55,1.91,3.78,4.24,2.76l17.94-7.88a7.7,7.7,0,0,0,4.23-6.48V136.94H72.76a9.83,9.83,0,0,0,8.91-5.68l8.4-18.16L72.3,104.83Z"/><polygon points="166.99 122.42 179.24 96.23 149.46 114.27 166.99 122.42"/><path d="M186.4,72.1,64.64,15.5A9.3,9.3,0,0,0,52.33,20L31.19,65.17a9.25,9.25,0,0,0,4.48,12.27L116,114.77c4.62,2.14,12,1.74,16.31-.89l54.6-33.08C191.22,78.16,191,74.25,186.4,72.1Z"/><path d="M141.64,122.42a31.47,31.47,0,1,0,31.47,31.47A31.38,31.38,0,0,0,141.64,122.42Zm25,32.18a2.11,2.11,0,0,1-2.14,2.15h-4.15a2,2,0,0,1-2-1.43l-1.43-3.86-7,20a2.15,2.15,0,0,1-2,1.43h-.14a2.49,2.49,0,0,1-2-1.72l-4.73-24.89-2.57,9a2.15,2.15,0,0,1-2,1.43h-2.58l-2.57,6.44a2.12,2.12,0,0,1-4,0l-3.15-9.44-1,2a2.24,2.24,0,0,1-2,1.29h-2.43a2.2,2.2,0,0,1-2.15-2.15,2.47,2.47,0,0,1,2.15-2.43h1.14l2.72-5.72a2.22,2.22,0,0,1,2.15-1.29,2,2,0,0,1,1.86,1.43l2.86,8.87.86-2.15a2.14,2.14,0,0,1,2-1.43h2.43l4.72-16a2.16,2.16,0,0,1,2.15-1.57,2,2,0,0,1,2,1.71l5,26.18,6.43-18.17a2.12,2.12,0,0,1,4,0l2.86,8.16h2.58A2.1,2.1,0,0,1,166.67,154.6Z"/></svg>