<?xml version="1.0" encoding="utf-8"?>
<!-- Generator: Adobe Illustrator 24.2.1, SVG Export Plug-In . SVG Version: 6.00 Build 0)  -->
<svg version="1.1" id="图层_2" xmlns="http://www.w3.org/2000/svg" xmlns:xlink="http://www.w3.org/1999/xlink" x="0px" y="0px"
	 viewBox="0 0 200 200" enable-background="new 0 0 200 200" xml:space="preserve">
<path fill="#333333" d="M60.5,118.8c-6.7-10.6-6.5-24,0.4-34.4L38.3,61.7c-10.6,10.4-16.5,24.7-16.5,39.6c0,14.9,5.9,29.1,16.4,39.6
	L60.5,118.8z M24.6,164.1c14.9,15,35.2,23.4,56.4,23.4V133c-6.1-1.3-11.7-4.4-16-8.8L24.6,164.1z M88.4,133.6v37.6
	c14.5,0,28.4-5.7,38.6-16l-25.1-25.1C97.7,132.3,93.1,133.5,88.4,133.6L88.4,133.6z M108.6,125.3l30,30.1
	c13.8-13.5,21.6-32,21.6-51.3h-41.3C118.3,112.2,114.6,119.8,108.6,125.3z M118.3,96.1h59.9c0-22.2-8.7-43.5-24.4-59.2
	c-15.7-15.7-37-24.5-59.2-24.4v58.7C106.7,74.1,116,83.8,118.3,96.1L118.3,96.1z M65.6,78.9c5.6-5.4,13-8.6,20.9-8.8V27.9
	c-19,0-37.3,7.6-50.8,21L65.6,78.9z"/>
</svg>
