<?xml version="1.0" encoding="utf-8"?>
<!-- Generator: Adobe Illustrator 24.2.1, SVG Export Plug-In . SVG Version: 6.00 Build 0)  -->
<svg version="1.1" id="图层_2" xmlns="http://www.w3.org/2000/svg" xmlns:xlink="http://www.w3.org/1999/xlink" x="0px" y="0px"
	 viewBox="0 0 200 200" enable-background="new 0 0 200 200" xml:space="preserve">
<path fill="#333333" d="M100,10c39.7,0,71.8,32.4,71.8,72.5c0,26.1-22.8,61.4-68.5,106.2c-1.9,1.8-4.8,1.8-6.7,0l-2.2-2.1
	c-44.2-43.7-66.3-78.4-66.3-104.1C28.2,42.4,60.3,10,100,10z M100,53c-13.2,0-23.9,10.7-23.9,23.9c0,13.2,10.7,23.9,23.9,23.9
	c0,0,0,0,0,0c13.2,0,23.9-10.7,23.9-23.9C123.9,63.7,113.2,53,100,53z"/>
</svg>
