<?xml version="1.0" encoding="utf-8"?>
<!-- Generator: Adobe Illustrator 24.2.1, SVG Export Plug-In . SVG Version: 6.00 Build 0)  -->
<svg version="1.1" id="图层_2" xmlns="http://www.w3.org/2000/svg" xmlns:xlink="http://www.w3.org/1999/xlink" x="0px" y="0px"
	 viewBox="0 0 200 200" enable-background="new 0 0 200 200" xml:space="preserve">
<g>
	<path fill="#333333" d="M170.8,79.2h-66.7c-4.6,0-8.3,3.8-8.3,8.3v8.3h83.3v-8.3C179.2,82.9,175.4,79.2,170.8,79.2L170.8,79.2z
		 M95.8,129.2c0,4.6,3.8,8.3,8.3,8.3h66.7c4.6,0,8.3-3.8,8.3-8.3v-25H95.8V129.2z"/>
	<path fill="#333333" d="M104.2,66.7h33.3V37.5c0-9.2-7.5-16.7-16.7-16.7H37.5c-9.2,0-16.7,7.5-16.7,16.7v125
		c0,9.2,7.5,16.7,16.7,16.7h83.3c9.2,0,16.7-7.5,16.7-16.7V150h-33.3c-11.7,0-20.8-9.2-20.8-20.8V87.5
		C83.3,75.8,92.5,66.7,104.2,66.7L104.2,66.7z M70.8,87.5c0,3.3-2.9,6.3-6.3,6.3s-6.2-2.9-6.2-6.3c0-25.4,20.4-45.8,45.8-45.8
		c3.3,0,6.3,2.9,6.3,6.3s-2.9,6.3-6.3,6.3C85.8,54.2,70.8,69.2,70.8,87.5z"/>
</g>
</svg>
