<?xml version="1.0" encoding="utf-8"?>
<!-- Generator: Adobe Illustrator 22.0.1, SVG Export Plug-In . SVG Version: 6.00 Build 0)  -->
<svg version="1.1" id="图层_1" xmlns="http://www.w3.org/2000/svg" xmlns:xlink="http://www.w3.org/1999/xlink" x="0px" y="0px"
	 viewBox="0 0 200 200" enable-background="new 0 0 200 200" xml:space="preserve">
<g>
	<path fill="#6883D8" d="M178.1,29.7c-1.9-1.9-4.5-3-7.2-3h-62.8H91.9H29c-5.6,0-10.1,4.5-10.1,10.1v45.4c0,5.6,4.5,10.1,10.1,10.1
		h142c5.6,0,10.1-4.5,10.1-10.1V36.9C181.1,34.2,180,31.6,178.1,29.7z M46.8,70.6c-4.5,0-8.5-2.7-10.2-6.8c-1.7-4.1-0.8-8.9,2.4-12
		c3.2-3.2,7.9-4.1,12-2.4c4.1,1.7,6.8,5.7,6.8,10.2C57.9,65.7,52.9,70.6,46.8,70.6z M82.3,70.6c-4.5,0-8.5-2.7-10.2-6.8
		c-1.7-4.1-0.8-8.9,2.4-12c3.2-3.2,7.9-4.1,12-2.4c4.1,1.7,6.8,5.7,6.8,10.2C93.3,65.7,88.4,70.6,82.3,70.6z"/>
	<path fill="#6883D8" d="M178.1,110.6c-1.9-1.9-4.5-3-7.2-3h-62.8H91.9H29c-5.6,0-10.1,4.5-10.1,10.1v45.4c0,5.6,4.5,10.1,10.1,10.1
		h142c5.6,0,10.1-4.5,10.1-10.1v-45.4C181.1,115,180,112.5,178.1,110.6z M46.8,151.4c-4.5,0-8.5-2.7-10.2-6.8s-0.8-8.9,2.4-12
		c3.2-3.2,7.9-4.1,12-2.4c4.1,1.7,6.8,5.7,6.8,10.2C57.9,146.5,52.9,151.4,46.8,151.4z M82.3,151.4c-4.5,0-8.5-2.7-10.2-6.8
		s-0.8-8.9,2.4-12c3.2-3.2,7.9-4.1,12-2.4c4.1,1.7,6.8,5.7,6.8,10.2C93.3,146.5,88.4,151.4,82.3,151.4z"/>
</g>
</svg>
