<?xml version="1.0" encoding="utf-8"?>
<!-- Generator: Adobe Illustrator 24.2.1, SVG Export Plug-In . SVG Version: 6.00 Build 0)  -->
<svg version="1.1" id="图层_2" xmlns="http://www.w3.org/2000/svg" xmlns:xlink="http://www.w3.org/1999/xlink" x="0px" y="0px"
	 viewBox="0 0 200 200" enable-background="new 0 0 200 200" xml:space="preserve">
<path fill="#333333" d="M100,12c-48.6,0-88,39.4-88,88c0,48.6,39.4,88,88,88s88-39.4,88-88C188,51.4,148.6,12,100,12z M142.8,132.4
	c2.9,2.9,2.9,7.6,0,10.5c-1.4,1.4-3.3,2.2-5.2,2.2s-3.8-0.8-5.2-2.2L100,110.5l-32.4,32.4c-1.4,1.4-3.3,2.2-5.2,2.2
	s-3.8-0.8-5.2-2.2c-2.9-2.9-2.9-7.6,0-10.5L89.5,100L57.2,67.6c-2.9-2.9-2.9-7.6,0-10.5c1.4-1.4,3.3-2.2,5.2-2.2
	c2,0,3.8,0.8,5.2,2.2L100,89.5l32.4-32.4c1.4-1.4,3.3-2.2,5.2-2.2c2,0,3.8,0.8,5.2,2.2c2.9,2.9,2.9,7.6,0,10.5L110.5,100
	L142.8,132.4z"/>
</svg>
