<?xml version="1.0" encoding="utf-8"?>
<!-- Generator: Adobe Illustrator 24.2.1, SVG Export Plug-In . SVG Version: 6.00 Build 0)  -->
<svg version="1.1" id="图层_2" xmlns="http://www.w3.org/2000/svg" xmlns:xlink="http://www.w3.org/1999/xlink" x="0px" y="0px"
	 viewBox="0 0 200 200" enable-background="new 0 0 200 200" xml:space="preserve">
<path fill="#333333" d="M25.6,174.4h154.1c2.9,0,5.3,2.4,5.3,5.3s-2.4,5.3-5.3,5.3H20.3c-2.9,0-5.3-2.4-5.3-5.3V20.3
	c0-2.9,2.4-5.3,5.3-5.3s5.3,2.4,5.3,5.3V174.4z M52.2,68.1h21.2c2.9,0,5.3,2.4,5.3,5.3v79.7H46.9V73.4
	C46.9,70.5,49.3,68.1,52.2,68.1z M94.7,36.3h21.2c2.9,0,5.3,2.4,5.3,5.3v111.6H89.4V41.6C89.4,38.6,91.8,36.3,94.7,36.3L94.7,36.3z
	 M137.2,100h21.2c2.9,0,5.3,2.4,5.3,5.3v47.8h-31.9v-47.8C131.9,102.4,134.3,100,137.2,100L137.2,100z"/>
</svg>
