<svg xmlns="http://www.w3.org/2000/svg" viewBox="0 0 200 200"><defs><style>.cls-1{font-size:14px;fill:#fff;font-family:MicrosoftYaHei, Microsoft YaHei;}.cls-2{letter-spacing:-0.25em;}.cls-3{letter-spacing:0.25em;}.cls-4{fill:#333;}</style></defs><g id="图层_2" data-name="图层 2"><text class="cls-1" transform="translate(-2.26 -148.74)">规则<tspan class="cls-2" x="28" y="0">：</tspan><tspan x="0" y="24.5">尺寸：200 x 200 px</tspan><tspan x="0" y="49" xml:space="preserve">          一级  线条粗</tspan><tspan class="cls-3" x="119.71" y="49">细</tspan><tspan x="137.21" y="49">16-20px</tspan><tspan x="0" y="73.5" xml:space="preserve">          二级  线</tspan><tspan class="cls-3" x="91.71" y="73.5">条</tspan><tspan x="109.21" y="73.5">8-10px</tspan><tspan x="0" y="98">大圆角：8-14px</tspan><tspan x="0" y="122.5">小圆角：2-4px</tspan></text></g><g id="图层_1" data-name="图层 1"><path class="cls-4" d="M100,75.31A24.69,24.69,0,1,0,124.69,100,24.72,24.72,0,0,0,100,75.31Z"/><path class="cls-4" d="M182.35,94.85H170.92a71.19,71.19,0,0,0-65.77-65.76V17.65a5.15,5.15,0,0,0-10.3,0V29.09A71.18,71.18,0,0,0,29.09,94.85H17.65a5.15,5.15,0,1,0,0,10.3H29.09a71.18,71.18,0,0,0,65.76,65.76v11.44a5.15,5.15,0,1,0,10.3,0V170.91a71.19,71.19,0,0,0,65.77-65.76h11.43a5.15,5.15,0,1,0,0-10.3Zm-77.2,65.74V150.08a5.15,5.15,0,0,0-10.3,0v10.51a60.9,60.9,0,0,1-55.44-55.44H49.92a5.15,5.15,0,0,0,0-10.3H39.41A60.9,60.9,0,0,1,94.85,39.41V49.92a5.15,5.15,0,0,0,10.3,0V39.41a60.89,60.89,0,0,1,55.44,55.44H150.08a5.15,5.15,0,0,0,0,10.3h10.51A60.89,60.89,0,0,1,105.15,160.59Z"/></g></svg>