<?xml version="1.0" encoding="utf-8"?>
<!-- Generator: Adobe Illustrator 24.2.1, SVG Export Plug-In . SVG Version: 6.00 Build 0)  -->
<svg version="1.1" id="图层_2" xmlns="http://www.w3.org/2000/svg" xmlns:xlink="http://www.w3.org/1999/xlink" x="0px" y="0px"
	 viewBox="0 0 200 200" enable-background="new 0 0 200 200" xml:space="preserve">
<path fill="#333333" d="M171.5,60.9l-28,16.7V57.8c-0.1-5-4.1-9-9.2-9H31.5c-5,0-9.1,4-9.1,9.1v84.3c0,5,4,9.1,9.1,9.1h102.9
	c5,0,9.1-4,9.1-9.1v-19.9l28,16.7c2.7,1.6,6.1-0.3,6.1-3.4V64.3C177.6,61.2,174.2,59.3,171.5,60.9z M61.7,124.6V75.3
	c0-3.1,3.4-5,6.1-3.4l40.2,24.7c2.5,1.6,2.5,5.3,0,6.8L67.8,128C65.1,129.7,61.7,127.7,61.7,124.6z"/>
</svg>
