<svg id="图层_2" data-name="图层 2" xmlns="http://www.w3.org/2000/svg" viewBox="0 0 200 200"><defs><style>.cls-1{fill:#007aff;}</style></defs><path class="cls-1" d="M129.19,113.49a7.45,7.45,0,0,1-5.87-12l27-34.52a17.44,17.44,0,0,0-3-24.46L144.28,40a17.44,17.44,0,0,0-24.46,3l-27,34.51A17.57,17.57,0,0,0,93,99.31,7.47,7.47,0,0,1,92,109.8a7.47,7.47,0,0,1-10.49-1A32.43,32.43,0,0,1,81,68.34l27-34.51a32.37,32.37,0,0,1,45.4-5.54l3.1,2.43A32.38,32.38,0,0,1,162.1,76.1l-27,34.52A7.4,7.4,0,0,1,129.19,113.49Z"/><path class="cls-1" d="M61.36,164.16a32,32,0,0,1-19.91-6.87l-3.1-2.43a32.41,32.41,0,0,1-5.52-45.39L59.87,75a7.46,7.46,0,1,1,11.74,9.2l-27,34.51a17.5,17.5,0,0,0,3,24.46l3.1,2.43a17.14,17.14,0,0,0,10.72,3.69,17.36,17.36,0,0,0,13.74-6.67l27-34.51a17.6,17.6,0,0,0-.89-22.55,7.45,7.45,0,1,1,11-10.09,32.41,32.41,0,0,1,1.66,41.82l-27,34.53A32.23,32.23,0,0,1,61.36,164.16Z"/><path class="cls-1" d="M144.41,119.34A29.62,29.62,0,1,0,174,149,29.65,29.65,0,0,0,144.41,119.34ZM162.3,149a17.8,17.8,0,0,1-2.2,8.58l-24.27-24.27A17.88,17.88,0,0,1,162.3,149Zm-35.78,0a17.77,17.77,0,0,1,1.43-7l23.45,23.46a17.68,17.68,0,0,1-7,1.43A17.92,17.92,0,0,1,126.52,149Z"/></svg>