<svg id="图层_1" data-name="图层 1" xmlns="http://www.w3.org/2000/svg" viewBox="0 0 200 200"><defs><style>.cls-1{fill:#515151;}</style></defs><path class="cls-1" d="M100,175a75,75,0,1,0-75-75,75,75,0,0,0,75,75Zm0,15a90,90,0,1,1,90-90A90,90,0,0,1,100,190ZM91.5,88.4v62.4c0,4.31,3.81,7.8,8.5,7.8s8.5-3.49,8.5-7.8V88.4c0-4.31-3.81-7.8-8.5-7.8S91.5,84.09,91.5,88.4Zm8-39.44a8.8,8.8,0,0,0-6.94,2.8,9,9,0,0,0-3,7.13,9.45,9.45,0,0,0,3,7.13A8.91,8.91,0,0,0,99.52,69a10.63,10.63,0,0,0,7.21-2.8,10,10,0,0,0,2.85-7.27,9.4,9.4,0,0,0-2.85-7.13A9.6,9.6,0,0,0,99.52,49Z"/></svg>