<?xml version="1.0" encoding="utf-8"?>
<!-- Generator: Adobe Illustrator 24.2.1, SVG Export Plug-In . SVG Version: 6.00 Build 0)  -->
<svg version="1.1" id="图层_2" xmlns="http://www.w3.org/2000/svg" xmlns:xlink="http://www.w3.org/1999/xlink" x="0px" y="0px"
	 viewBox="0 0 200 200" enable-background="new 0 0 200 200" xml:space="preserve">
<path fill="#333333" d="M49.9,67.6c-0.1,0-0.1,0-0.2,0l-21.6,0c-4,0-7.2,3.2-7.2,7.2v50.4c0,4,3.2,7.2,7.2,7.2h21.6c0,0,0,0,0,0v0
	l52.9,34.2c1.3,1.1,2.9,1.7,4.7,1.7c4,0,7.2-3.2,7.2-7.2c0-0.3,0-0.7-0.1-1l0-120.4c0-0.3,0.1-0.6,0.1-1c0-4-3.2-7.2-7.2-7.2
	c-1.6,0-3.1,0.5-4.4,1.5L49.9,67.6z M161.4,100l16.2-16.2c2-2,2-5.4,0-7.4c-2.1-2.1-5.4-2.1-7.4,0L154,92.5l-16.2-16.2
	c-2-2-5.4-2.1-7.4,0c-2.1,2.1-2,5.4,0,7.4l16.2,16.2l-16.2,16.2c-2,2-2,5.4,0,7.4c2.1,2.1,5.4,2.1,7.4,0l16.2-16.2l16.2,16.2
	c2,2,5.4,2.1,7.4,0c2.1-2.1,2-5.4,0-7.4L161.4,100z"/>
</svg>
