<?xml version="1.0" encoding="utf-8"?>
<!-- Generator: Adobe Illustrator 22.0.1, SVG Export Plug-In . SVG Version: 6.00 Build 0)  -->
<svg version="1.1" id="图层_1" xmlns="http://www.w3.org/2000/svg" xmlns:xlink="http://www.w3.org/1999/xlink" x="0px" y="0px"
	 viewBox="0 0 200 200" enable-background="new 0 0 200 200" xml:space="preserve">
<g id="图层_1_1_">
	<g>
		<g>
			<g>
				<path fill="#7DA4EC" d="M137.4,103.5c-1.6,0-3.1-0.6-4.3-1.7l-33.1-32l-33.1,31.9c-2.5,2.4-6.4,2.3-8.8-0.2
					c-2.4-2.5-2.3-6.4,0.2-8.8l37.4-36.1c2.4-2.3,6.3-2.3,8.7,0l37.4,36.1c2.5,2.4,2.6,6.4,0.2,8.8
					C140.7,102.8,139.1,103.5,137.4,103.5z"/>
			</g>
		</g>
		<g>
			<g>
				<path fill="#7DA4EC" d="M137.4,145.1c-1.6,0-3.1-0.6-4.3-1.7L100,111.5l-33.1,31.9c-2.5,2.4-6.4,2.3-8.8-0.2
					c-2.4-2.5-2.3-6.4,0.2-8.8l37.4-36.1c2.4-2.3,6.3-2.3,8.7,0l37.4,36.1c2.5,2.4,2.6,6.4,0.2,8.8
					C140.7,144.5,139.1,145.1,137.4,145.1z"/>
			</g>
		</g>
	</g>
</g>
</svg>
