<?xml version="1.0" encoding="utf-8"?>
<!-- Generator: Adobe Illustrator 24.2.1, SVG Export Plug-In . SVG Version: 6.00 Build 0)  -->
<svg version="1.1" id="图层_2" xmlns="http://www.w3.org/2000/svg" xmlns:xlink="http://www.w3.org/1999/xlink" x="0px" y="0px"
	 viewBox="0 0 200 200" enable-background="new 0 0 200 200" xml:space="preserve">
<g>
	<path fill="#333333" d="M162.8,47.3c4.4-4.4,4.4-12.4,0-17.7l-6.2-6.2c-4.4-4.4-12.4-4.4-17.7,0l-8.8,8.8L154,56.1L162.8,47.3z
		 M148.7,64.1L123,38.4l-72.5,71.7l25.7,25.7L148.7,64.1L148.7,64.1z M46,118l-11.5,35.4l35.4-11.5L46,118z M157.5,162.3h-115
		c-5.3,0-8.8,3.5-8.8,8.8s3.5,8.8,8.8,8.8h115c5.3,0,8.8-3.5,8.8-8.8C166.4,166.7,162.8,162.3,157.5,162.3z"/>
</g>
</svg>
