<?xml version="1.0" encoding="utf-8"?>
<!-- Generator: Adobe Illustrator 24.2.1, SVG Export Plug-In . SVG Version: 6.00 Build 0)  -->
<svg version="1.1" id="图层_2" xmlns="http://www.w3.org/2000/svg" xmlns:xlink="http://www.w3.org/1999/xlink" x="0px" y="0px"
	 viewBox="0 0 200 200" enable-background="new 0 0 200 200" xml:space="preserve">
<path fill="#333333" d="M171.1,49.8l-32.9-33.1c-1.1-1.1-2.7-1.8-4.3-1.8H39.3c-6.7,0-12.1,5.4-12.1,12.1v145.7
	c0,6.7,5.4,12.1,12.1,12.1h121.4c6.7,0,12.1-5.4,12.1-12.1V54.1C172.9,52.5,172.2,51,171.1,49.8z M75.2,116.8h12.5v7.1H75.2V116.8z
	 M54.5,116.8h12.5v7.1H54.5V116.8z M74.1,160c-9.6,0.7-17.6-1.6-23.4-7.1l6.5-6.9c3.8,3.6,9.1,5.1,16.2,4.6
	c6.3-0.5,12.6-6.8,18.6-19.6l8.6,4C93.3,150.6,84.6,159.2,74.1,160z M108.5,123.8H96v-7.1h12.5V123.8z M129.3,123.8h-12.5v-7.1h12.5
	V123.8z M150,123.8h-12.5v-7.1H150V123.8z M145.5,93.6c-3.6-3.4-8.8-5.1-15.7-5.1c-5.7,0-12.2,6.1-18.8,19.3l-8.4-4.2
	c8.1-16.1,17-24.5,27.3-24.5c9.1,0,16.6,2.5,22.1,7.6L145.5,93.6z M136.4,57.5c-3.4,0-6.1-2.7-6.1-6.1V27.1l30.4,30.4H136.4z"/>
</svg>
