<?xml version="1.0" encoding="utf-8"?>
<!-- Generator: Adobe Illustrator 22.0.1, SVG Export Plug-In . SVG Version: 6.00 Build 0)  -->
<svg version="1.1" id="图层_1" xmlns="http://www.w3.org/2000/svg" xmlns:xlink="http://www.w3.org/1999/xlink" x="0px" y="0px"
	 viewBox="0 0 200 200" enable-background="new 0 0 200 200" xml:space="preserve">
<g id="图层_1_1_">
	<polygon fill="#6883D8" points="141.8,189.4 141.8,153.6 177.6,153.6 	"/>
	<path fill="#6883D8" d="M153.7,10.4H46.3c-13.2,0-23.9,10.7-23.9,23.9v131.3c0,13.2,10.7,23.9,23.9,23.9h79.5v-45.8
		c0-3.3,2.7-6,6-6h45.8V34.3C177.6,21.1,166.9,10.4,153.7,10.4z M56.6,55.9h0.2c4.1-0.1,8.3,0,12.4,0h25.5l19.5-0.1h15l-13.8-18
		c-2-3.1-0.5-7.2,2.4-9c3.1-2,7.1-0.5,9,2.4c0.8,1.3,1.7,2.5,2.5,3.8l17.9,24.1c2.8,4.2-0.9,9.9-5.7,9.9h-0.2c-4.1,0.1-8.3,0-12.4,0
		h-18.2l-19.5,0.1H66.8H56.6c-3.7,0-6.4-3-6.6-6.6C49.8,58.9,53.2,55.9,56.6,55.9z M143.4,97.3h-0.2c-4.1,0.1-8.3,0-12.4,0h-18.2
		l-19.5,0.1H70.8l13.8,18c2,3.1,0.5,7.2-2.4,9c-3.1,2-7.1,0.5-9-2.4c-0.8-1.3-1.7-2.5-2.5-3.8l-17.8-24c-2.8-4.2,0.9-9.9,5.7-9.9
		h0.2c4.1-0.1,8.3,0,12.4,0h25.5l12.1-0.1h24.4h10.2c3.7,0,6.4,3,6.6,6.6C150.2,94.3,146.8,97.3,143.4,97.3z"/>
</g>
</svg>
