<?xml version="1.0" encoding="utf-8"?>
<!-- Generator: Adobe Illustrator 22.0.1, SVG Export Plug-In . SVG Version: 6.00 Build 0)  -->
<svg version="1.1" id="图层_1" xmlns="http://www.w3.org/2000/svg" xmlns:xlink="http://www.w3.org/1999/xlink" x="0px" y="0px"
	 viewBox="0 0 200 200" enable-background="new 0 0 200 200" xml:space="preserve">
<g id="图层_1_1_">
	<path fill="#7DA4EC" d="M100,12.5c-48.2,0-87.5,39.2-87.5,87.5s39.3,87.5,87.5,87.5s87.5-39.2,87.5-87.5S148.2,12.5,100,12.5z
		 M148.8,70.8L95,131.4c-1.4,1.5-3.2,2.3-5,2.3c-1.5,0-3-0.5-4.2-1.5L52,105.3c-2.9-2.3-3.4-6.6-1-9.5c2.3-2.9,6.5-3.4,9.4-1.1
		l28.7,22.9l49.6-55.8c2.5-2.8,6.7-3,9.5-0.6C151,63.8,151.3,68,148.8,70.8z"/>
</g>
</svg>
