<?xml version="1.0" encoding="utf-8"?>
<!-- Generator: Adobe Illustrator 22.0.1, SVG Export Plug-In . SVG Version: 6.00 Build 0)  -->
<svg version="1.1" id="_x30_01" xmlns="http://www.w3.org/2000/svg" xmlns:xlink="http://www.w3.org/1999/xlink" x="0px" y="0px"
	 viewBox="0 0 24 24" enable-background="new 0 0 24 24" xml:space="preserve">
<g id="_x30_02">
	<g>
		<path fill="#0063F5" d="M12,22.5c1.7,0,3-1.3,3-3H9C9,21.2,10.3,22.5,12,22.5z M19.7,16.9c-1,0-1-3.7-1-3.7v-2.6
			c0-3.3-2-6-4.8-6.9c0-0.1,0-0.2,0-0.3c0-1-0.9-1.9-1.9-1.9c-1.1,0-1.9,0.8-1.9,1.9c0,0.1,0,0.2,0,0.3c-2.7,0.9-4.8,3.7-4.8,6.9
			v2.6c0,0,0,3.7-0.9,3.7c-0.6,0-1,0.4-1,0.9s0.4,0.9,1,0.9h15.3c0.5,0,1-0.4,1-0.9C20.6,17.3,20.2,16.9,19.7,16.9z"/>
	</g>
</g>
</svg>
