<svg id="图层_1" data-name="图层 1" xmlns="http://www.w3.org/2000/svg" viewBox="0 0 200 200"><path d="M170.62,150.63a48.4,48.4,0,0,1,1.37,7.16,68.91,68.91,0,0,1,.53,8.53,49.48,49.48,0,0,1-.63,8.1,14.93,14.93,0,0,1-1.9,5.69q-.84,1.26-5,2.52A83.69,83.69,0,0,1,154.83,185q-6.11,1.05-13.47,2t-14.84,1.58q-7.47.63-14.42,1.05T99.89,190q-5.26,0-12.11-.42t-14.21-1.05q-7.36-.63-14.53-1.37t-13.15-1.69q-6-.94-10.11-1.89c-2.74-.63-4.45-1.23-5.16-1.79q-1.68-1.47-2.73-8.84T28.52,154q1.05-6.74,5.37-10.11a36.23,36.23,0,0,1,10.21-5.47q5.9-2.1,12.1-3.68A36.69,36.69,0,0,0,67.26,130,34.46,34.46,0,0,0,73,125.37,15.35,15.35,0,0,0,76,121.16a10.71,10.71,0,0,0,1-4.42c0-1.55-.07-3.3-.21-5.27a10.23,10.23,0,0,0-3-6.63c-1.68-1.61-3.51-3.19-5.47-4.73a11.43,11.43,0,0,1-2.63-3.58,42.15,42.15,0,0,1-2-4.64q-.85-2.52-1.69-5.68A10.6,10.6,0,0,1,59.47,85a11.58,11.58,0,0,1-2.21-2.53A20.47,20.47,0,0,1,55,77.79a13.43,13.43,0,0,1-.84-5.58,11.69,11.69,0,0,1,1.06-4.32,13.06,13.06,0,0,1,2.31-3.78,90.42,90.42,0,0,1,.63-13.69,97.3,97.3,0,0,1,2.63-12.31,39.53,39.53,0,0,1,5.58-11.9A33.06,33.06,0,0,1,74,18a38.77,38.77,0,0,1,8.63-4.95,37.91,37.91,0,0,1,8.85-2.42A59.64,59.64,0,0,1,99.89,10,40.54,40.54,0,0,1,119,14.42q8.43,4.43,12.43,9.47a38.22,38.22,0,0,1,6.84,12.74,102.73,102.73,0,0,1,3.26,13.16,81.89,81.89,0,0,1,.84,14.32,8,8,0,0,1,1.9,2.31,18,18,0,0,1,1.16,3.26,12.73,12.73,0,0,1,.1,4.95,16.74,16.74,0,0,1-1.68,6.11,16.34,16.34,0,0,1-2.53,3.58A6.75,6.75,0,0,1,138,86.21q-.84,3.17-1.68,5.68a34,34,0,0,1-2.11,4.64,9.82,9.82,0,0,1-2.73,3.36c-1.13,1-2.14,1.83-3.06,2.53a18.55,18.55,0,0,0-2.42,2.21,11.62,11.62,0,0,0-1.79,2.63,14.9,14.9,0,0,0-1.16,3.58,29.58,29.58,0,0,0-.31,5.58A14.49,14.49,0,0,0,124.1,122a16.33,16.33,0,0,0,4.1,5.26,25,25,0,0,0,7.9,4.42,65.27,65.27,0,0,0,9.79,3.27,93.28,93.28,0,0,1,10.31,3.26,35.62,35.62,0,0,1,8.84,4.84,16.26,16.26,0,0,1,5.58,7.58Z"/></svg>