<?xml version="1.0" encoding="utf-8"?>
<!-- Generator: Adobe Illustrator 22.0.1, SVG Export Plug-In . SVG Version: 6.00 Build 0)  -->
<svg version="1.1" id="图层_1" xmlns="http://www.w3.org/2000/svg" xmlns:xlink="http://www.w3.org/1999/xlink" x="0px" y="0px"
	 viewBox="0 0 200 200" enable-background="new 0 0 200 200" xml:space="preserve">
<g id="图层_1_1_">
	<g>
		<g>
			<path d="M177.4,35.1c2,2,3,4.4,3,7.2v118.3c0,2.8-1,5.2-3,7.2s-4.4,3-7.2,3H30.8c-2.9,0-5.3-1-7.3-3s-3-4.4-3-7.2V42.3
				c0-2.8,1-5.2,3-7.2s4.4-3,7.3-3H64v-8.7c0-1.1,0.9-2,2-2h17.3c1.1,0,2,0.9,2,2v8.7h32v-8.7c0-1.1,0.9-2,2-2h17.3c1.1,0,2,0.9,2,2
				v8.7h31.7C173,32.1,175.4,33.1,177.4,35.1z M167.7,42.8H33.1c-1.1,0-2,0.9-2,2v113.3c0,1.1,0.9,2,2,2h134.6c1.1,0,2-0.9,2-2V44.8
				C169.7,43.7,168.8,42.8,167.7,42.8z"/>
		</g>
	</g>
	<g>
		<g>
			<path d="M115.3,121.1c-1.1,0-2.1-0.3-3-1l-16.9-12.8c-1.2-0.9-2-2.4-2-4V82.1c0-2.8,2.2-5,5-5s5,2.2,5,5v18.7l14.9,11.3
				c2.2,1.7,2.6,4.8,1,7C118.3,120.4,116.8,121.1,115.3,121.1z"/>
		</g>
		<g>
			<g>
				<path d="M101.8,62.7c21.2,0,38.4,17.2,38.4,38.4s-17.2,38.4-38.4,38.4s-38.4-17.2-38.4-38.4S80.7,62.7,101.8,62.7 M101.8,52.7
					c-26.7,0-48.4,21.7-48.4,48.4s21.7,48.4,48.4,48.4s48.4-21.7,48.4-48.4S128.6,52.7,101.8,52.7L101.8,52.7z"/>
			</g>
		</g>
	</g>
</g>
</svg>
