<?xml version="1.0" encoding="utf-8"?>
<!-- Generator: Adobe Illustrator 24.2.1, SVG Export Plug-In . SVG Version: 6.00 Build 0)  -->
<svg version="1.1" id="图层_2" xmlns="http://www.w3.org/2000/svg" xmlns:xlink="http://www.w3.org/1999/xlink" x="0px" y="0px"
	 viewBox="0 0 200 200" enable-background="new 0 0 200 200" xml:space="preserve">
<g>
	<path fill="#333333" d="M124.8,64.2c0-23.7-19.5-42.8-43.5-42.8c-1.1,0-2.2,0.1-3.2,0.2l-38.4,0v0.1H20v157h22.1v-71.7h35.9
		c1.7,0.2,1.7,0.1,3.4,0.1C105.4,107,124.8,87.9,124.8,64.2z M77.9,84.8H42.1V43.4h35.9C88.4,43.9,98,53.5,98,64
		S88.4,84.3,77.9,84.8z M178.5,140c-0.7-1.4-2.6-3-2.6-3l-7.9-21.2c-1.6-4-6.5-6.1-8.6-6.1h-41.6c-2.1,0-6.9,2.1-8.6,6.1l-7.9,21.2
		c0,0-1.9,1.6-2.6,3c-0.7,1.4-1.5,2.6-1.5,12c0,9.2,1.8,12.4,4,13.6l1.7,1v8.5c0,2.8,0.7,3.6,3.3,3.6h5.9c2.6,0,4.4,0,4.4-2.7v-8.3
		h44.1v8.3c0,2.8,1.8,2.7,4.4,2.7h5.9c2.6,0,3.3-0.8,3.3-3.6v-8.5l1.7-1c2.2-1.1,4-4.4,4-13.6C180,142.6,179.2,141.4,178.5,140z
		 M111.9,134.5c0.3-1.2,2.5-10.6,3.5-13.9c0.4-1.1,3-4.5,6-4.3h34.4c3-0.2,5.6,3.2,6,4.3c1,3.3,3.2,12.7,3.5,13.9
		c0.4,1.4-0.9,1.3-0.9,1.3h-51.7C112.8,135.8,111.5,135.9,111.9,134.5z M112.7,157.5c-3.5,0-6.3-2.8-6.3-6.3c0-3.5,2.8-6.3,6.3-6.3
		c3.5,0,6.3,2.8,6.3,6.3C119,154.7,116.2,157.5,112.7,157.5z M164.7,157.5c-3.5,0-6.3-2.8-6.3-6.3c0-3.5,2.8-6.3,6.3-6.3
		c3.5,0,6.3,2.8,6.3,6.3C171,154.7,168.2,157.5,164.7,157.5z"/>
</g>
</svg>
