<svg id="图层_1" data-name="图层 1" xmlns="http://www.w3.org/2000/svg" viewBox="0 0 200 200"><path d="M68.71,40.45a10.76,10.76,0,0,0,7.5,2.83H122a10.79,10.79,0,0,0,7.5-2.83,8.41,8.41,0,0,0,2.91-7v-.56a8.86,8.86,0,0,0-3.12-6.79,10.8,10.8,0,0,0-7.5-2.82H76.21a10.8,10.8,0,0,0-7.5,2.82,8.87,8.87,0,0,0-3.13,6.79v.56A9,9,0,0,0,68.71,40.45Z"/><path d="M122.44,112.31a27.14,27.14,0,1,0,27.14,27.14A27.17,27.17,0,0,0,122.44,112.31Zm19.23,22.43-8.29,8.09a.92.92,0,0,0-.26.8l2,11.42a.9.9,0,0,1-1.31.95l-10.26-5.39a.89.89,0,0,0-.84,0L112.41,156a.9.9,0,0,1-1.31-.95l2-11.41a.88.88,0,0,0-.25-.8l-8.3-8.09a.9.9,0,0,1,.5-1.54l11.47-1.67a.89.89,0,0,0,.67-.5l5.13-10.39a.9.9,0,0,1,1.62,0L129,131a.88.88,0,0,0,.68.5l11.47,1.66A.9.9,0,0,1,141.67,134.74Z"/><path d="M164.65,34.92a11.64,11.64,0,0,0-8.79-3.77H139.05v5.56a12.57,12.57,0,0,1-3.57,8.94,11.61,11.61,0,0,1-8.79,3.78H70.85a11.71,11.71,0,0,1-8.69-3.78,12.37,12.37,0,0,1-3.67-8.94V31.15H44.19a11.64,11.64,0,0,0-8.79,3.77,12.58,12.58,0,0,0-3.57,8.94V171.61a12.58,12.58,0,0,0,3.57,8.94,11.64,11.64,0,0,0,8.79,3.77H155.86a11.76,11.76,0,0,0,8.7-3.77,12.43,12.43,0,0,0,3.67-8.94V43.86A12.55,12.55,0,0,0,164.65,34.92Zm-114.08,75A4.85,4.85,0,1,1,55.43,105,4.85,4.85,0,0,1,50.57,109.87Zm15,0A4.85,4.85,0,1,1,70.44,105,4.85,4.85,0,0,1,65.58,109.87Zm14.47,0A4.85,4.85,0,1,1,84.9,105,4.85,4.85,0,0,1,80.05,109.87Zm72.29,42.21a32.55,32.55,0,1,1,2.55-12.63A32.23,32.23,0,0,1,152.34,152.08Zm-5-61.32H51.31a5.59,5.59,0,0,1,0-11.18h96.07a5.59,5.59,0,0,1,0,11.18Zm0-19.88H51.32a5.59,5.59,0,0,1,0-11.18h96.07a5.59,5.59,0,1,1,0,11.18Z"/></svg>