<?xml version="1.0" encoding="utf-8"?>
<!-- Generator: Adobe Illustrator 24.2.1, SVG Export Plug-In . SVG Version: 6.00 Build 0)  -->
<svg version="1.1" id="图层_2" xmlns="http://www.w3.org/2000/svg" xmlns:xlink="http://www.w3.org/1999/xlink" x="0px" y="0px"
	 viewBox="0 0 200 200" enable-background="new 0 0 200 200" xml:space="preserve">
<g>
	<path fill="#333333" d="M62.4,88.6c-6.3,0-11.4,5.1-11.4,11.4c0,6.3,5.1,11.4,11.4,11.4c6.3,0,11.4-5.1,11.4-11.4
		C73.8,93.7,68.7,88.6,62.4,88.6z"/>
	<path fill="#333333" d="M100,88.6c-6.3,0-11.4,5.1-11.4,11.4c0,6.3,5.1,11.4,11.4,11.4s11.4-5.1,11.4-11.4
		C111.4,93.7,106.3,88.6,100,88.6z"/>
	<path fill="#333333" d="M137.6,88.6c-6.3,0-11.4,5.1-11.4,11.4c0,6.3,5.1,11.4,11.4,11.4c6.3,0,11.4-5.1,11.4-11.4
		C149.1,93.7,144,88.6,137.6,88.6z"/>
	<path fill="#333333" d="M100,13c-48,0-87,39-87,87s39,87,87,87s87-39,87-87S148,13,100,13z M100,170.7c-39,0-70.7-31.7-70.7-70.7
		S61,29.3,100,29.3S170.7,61,170.7,100S139,170.7,100,170.7z"/>
</g>
</svg>
