<?xml version="1.0" encoding="utf-8"?>
<!-- Generator: Adobe Illustrator 24.2.1, SVG Export Plug-In . SVG Version: 6.00 Build 0)  -->
<svg version="1.1" id="图层_2" xmlns="http://www.w3.org/2000/svg" xmlns:xlink="http://www.w3.org/1999/xlink" x="0px" y="0px"
	 viewBox="0 0 200 200" enable-background="new 0 0 200 200" xml:space="preserve">
<g>
	<g>
		<path fill="#333333" d="M106.6,60.1l30.4,31.2L63.4,167c-1.6,1.6-3.7,2.5-5.9,2.5H30.5v-27.8c0-2.2,0.8-4.2,2.4-5.8L106.6,60.1z
			 M115.3,51.2l17.6-18c3.3-3.4,8.8-3.5,12.3-0.2c0.1,0.1,0.1,0.1,0.2,0.2l18.3,18.8c3.3,3.4,3.3,8.8,0,12.1l-17.9,18.4L115.3,51.2z
			 M103.6,152.1h56.9c4.6,0,8.7,3.5,9,8.1c0.3,5.1-3.7,9.3-8.7,9.3H94.9c-2.8,0-5.1-2.3-5.1-5.1c0-1.3,0.5-2.6,1.5-3.6l6.1-6.1
			C99.1,153,101.3,152.1,103.6,152.1L103.6,152.1z"/>
	</g>
</g>
</svg>
