<?xml version="1.0" encoding="utf-8"?>
<!-- Generator: Adobe Illustrator 24.2.1, SVG Export Plug-In . SVG Version: 6.00 Build 0)  -->
<svg version="1.1" id="图层_2" xmlns="http://www.w3.org/2000/svg" xmlns:xlink="http://www.w3.org/1999/xlink" x="0px" y="0px"
	 viewBox="0 0 200 200" enable-background="new 0 0 200 200" xml:space="preserve">
<g>
	<path fill="#333333" d="M54.8,91.5h58.3l-6.9-1.3l-6.7-1.3c-8.3-1.2-16.4-3.8-23.8-7.7C68.4,77.5,63.8,70,63.8,61.9
		c-0.3-7.9,3.3-15.4,9.7-20c7.5-5.2,16.4-7.8,25.5-7.3c10.1-0.7,20.1,2.8,27.5,9.7c3.2,3.4,5.6,7.5,7,11.9c0.4,1.3,0.7,2.7,1,4.1
		c0.1,1.1,1.1,1.9,2.1,1.8h16.8c1.2,0.1,2.2-0.8,2.3-2c0-0.1,0-0.2,0-0.2l0,0c0-1.2,0-2.4,0-3.6c-1.5-9.7-6.2-18.6-13.5-25.1
		c-11.4-10-26.1-15.1-41.2-14.4C86.7,16.2,72.8,20.4,61,28.5c-5.5,3.9-10,9.2-13,15.3c-2.9,6.4-4.4,13.4-4.4,20.5
		c-0.3,6.1,1,12.3,3.7,17.8C49.2,85.6,51.8,88.8,54.8,91.5z M151.4,108.7H99.1h1.3c6.8,1.4,10.8,2.3,14.5,3.3
		c4.2,1.1,8.2,2.8,11.9,4.9c7.5,3.8,12.2,11.7,11.9,20.1c0.1,7.8-3.4,15.3-9.5,20.1c-8.3,5.9-18.3,8.8-28.5,8.2
		c-8.3,0.2-16.5-1.7-23.8-5.7c-6.2-3.4-10.9-9-13.1-15.7l-0.6-2c-0.4-0.8-1.2-1.3-2.1-1.3H43.4c-1.3,0-2.3,1-2.3,2.3l0,0
		c-0.1,0.4-0.1,0.9,0,1.3c1.2,10.8,6.8,20.7,15.5,27.3c12.3,8.4,27,12.6,42,11.9c15.9,0.7,31.7-3.9,44.7-13.1
		c5.1-4.2,9.2-9.6,11.9-15.6c2.8-6.5,4.3-13.5,4.3-20.6c0.4-6.3-0.7-12.6-3.1-18.5C155,113.1,153.4,110.8,151.4,108.7z"/>
	<path fill="#333333" d="M177.5,108.2c0,0.3,0,0.5,0,0.8c-0.1,3.7-3.2,6.5-6.9,6.5H29.4c-3.7,0-6.8-2.9-6.9-6.6c0-0.2,0-0.3,0-0.5
		c0-0.2,0-0.3,0-0.5c0-0.2,0-0.3,0-0.5c0-3.7,3.2-6.6,6.9-6.6h141.2c3.9,0,7.2,3.3,6.9,7.2C177.5,108.2,177.5,108.2,177.5,108.2z"/>
</g>
</svg>
