<?xml version="1.0" encoding="utf-8"?>
<!-- Generator: Adobe Illustrator 22.0.1, SVG Export Plug-In . SVG Version: 6.00 Build 0)  -->
<svg version="1.1" id="图层_1" xmlns="http://www.w3.org/2000/svg" xmlns:xlink="http://www.w3.org/1999/xlink" x="0px" y="0px"
	 viewBox="0 0 200 200" enable-background="new 0 0 200 200" xml:space="preserve">
<g>
	<path fill="#6883D8" d="M82,132.1c0-33.1,26.9-60,60-60c4.9,0,9.3,0.6,13.1,1.8c-1.6-25.4-18.7-46.5-42-53.2l-0.8-0.3
		c-4.6-6.4-11.8-9.4-17.9-9.4c-5.1,0-10.2,2-15.8,9.5l-0.4,0.1c-24.7,6.9-42.6,29.9-42.6,57.2v17.1c0,34.2-25.6,25.6-25.6,42.7
		c0,8.5,11.1,17.1,17.1,17.1c7.7,0,17,0,27.2,0h32.2C83.6,147.9,82,140.1,82,132.1z"/>
	<path fill="#6883D8" d="M91.1,163.9h-25c4,14.4,17.3,25,32.9,25c5.5,0,10.6-1.3,15.2-3.6C104.8,180.4,96.8,172.9,91.1,163.9z"/>
	<path fill="#6883D8" d="M175.9,98.2c-9.3-9.4-21.6-14.1-33.9-14.1s-24.6,4.7-33.9,14.1c-18.7,18.7-18.7,49.1,0,67.9
		c9.4,9.4,21.7,14.1,33.9,14.1s24.6-4.7,33.9-14.1C194.6,147.4,194.6,117.1,175.9,98.2z M118.7,155.5c-11.1-11.1-12.6-28-4.7-40.8
		l45.4,45.4c-5.2,3.3-11.2,5-17.5,5C133.2,165.2,124.9,161.9,118.7,155.5z M170.1,149.6l-45.4-45.4c5.2-3.3,11.2-5,17.4-5
		c8.8,0,17.1,3.4,23.3,9.7C176.4,119.9,178,136.8,170.1,149.6z"/>
</g>
</svg>
