<svg id="图层_1" data-name="图层 1" xmlns="http://www.w3.org/2000/svg" viewBox="0 0 200 200"><path d="M67.61,33.18a11.52,11.52,0,0,0,8,3h48.72a11.5,11.5,0,0,0,8-3,8.94,8.94,0,0,0,3.1-7.41v-.6A9.4,9.4,0,0,0,132.06,18a11.51,11.51,0,0,0-8-3H75.59a11.51,11.51,0,0,0-8,3,9.4,9.4,0,0,0-3.32,7.21v.6A9.6,9.6,0,0,0,67.61,33.18Z"/><path d="M170.14,26.23a12.37,12.37,0,0,0-9.35-4H142.92v5.92a13.35,13.35,0,0,1-3.79,9.5,12.36,12.36,0,0,1-9.35,4H70.43a12.46,12.46,0,0,1-9.25-4,13.16,13.16,0,0,1-3.9-9.5V22.21H42.08a12.35,12.35,0,0,0-9.34,4,13.35,13.35,0,0,0-3.8,9.5v135.8a13.35,13.35,0,0,0,3.8,9.5,12.34,12.34,0,0,0,9.34,4H160.79a12.47,12.47,0,0,0,9.25-4,13.16,13.16,0,0,0,3.9-9.5V35.73A13.35,13.35,0,0,0,170.14,26.23Zm-93.83,113a6.48,6.48,0,0,1-1.79,4.63A6,6,0,0,1,70,145.74h-.63a6.09,6.09,0,0,1-4.43-1.89A6.32,6.32,0,0,1,63,139.22V128.86a6.19,6.19,0,0,1,1.79-4.42,6,6,0,0,1,4.53-1.89H70a6.26,6.26,0,0,1,4.43,1.78,6,6,0,0,1,1.89,4.53Zm32.46,0a6.48,6.48,0,0,1-1.79,4.63,6,6,0,0,1-4.53,1.89h-.63a6.09,6.09,0,0,1-4.43-1.89,6.33,6.33,0,0,1-1.9-4.63V118.6a6.2,6.2,0,0,1,1.8-4.42,6,6,0,0,1,4.53-1.89h.63a6.26,6.26,0,0,1,4.43,1.78,6,6,0,0,1,1.89,4.53Zm-2-35.56a2.43,2.43,0,0,1-1.37.42,1.33,1.33,0,0,1-1.16-.63L93.91,90.19a1.87,1.87,0,0,0-1-.52,1.75,1.75,0,0,0-1.27.31l-24,17.89a1.46,1.46,0,0,1-2.32-.21l-3.38-3.58a1.44,1.44,0,0,1-.31-1.26,2,2,0,0,1,.53-1.26l31-23.15a1.86,1.86,0,0,1,1.37-.31c.49.07.61.29,1,.73L105.29,91a1.34,1.34,0,0,0,1.16.63,2.41,2.41,0,0,0,1.37-.42L121.1,78.83a1.56,1.56,0,0,0,.42-1.16,2.4,2.4,0,0,0-.42-1.36l-3.79-3.37a1.86,1.86,0,0,1-.32-1.79A1.62,1.62,0,0,1,118.15,70l20.24-4a1.68,1.68,0,0,1,2.1,2.1l-5.05,18.31a1.47,1.47,0,0,1-1.16,1.26,1.6,1.6,0,0,1-1.58-.42l-3-2.74a1.57,1.57,0,0,0-2.52,0Zm34.57,35.56a6.47,6.47,0,0,1-6.54,6.52h-.63a6,6,0,0,1-4.53-1.89,6.48,6.48,0,0,1-1.79-4.63V105.34a6.48,6.48,0,0,1,1.79-4.63,6,6,0,0,1,4.53-1.89h.63a6.47,6.47,0,0,1,6.54,6.52Z"/></svg>