<?xml version="1.0" encoding="utf-8"?>
<!-- Generator: Adobe Illustrator 24.2.1, SVG Export Plug-In . SVG Version: 6.00 Build 0)  -->
<svg version="1.1" id="图层_2" xmlns="http://www.w3.org/2000/svg" xmlns:xlink="http://www.w3.org/1999/xlink" x="0px" y="0px"
	 viewBox="0 0 200 200" enable-background="new 0 0 200 200" xml:space="preserve">
<path fill="#333333" d="M42.4,100c-0.2-7.8-6.3-13.9-13.5-13.7c0,0-0.1,0-0.1,0C21.4,86,15.3,92.1,15,100c0,0,0,0,0,0
	c0.3,7.9,6.4,14,13.7,13.7c0,0,0,0,0,0c7.2,0.3,13.3-5.7,13.6-13.5C42.4,100.1,42.4,100,42.4,100z M28.7,35.4
	C21.4,35,15.3,41.2,15,49.1c0,0,0,0,0,0c0.3,7.8,6.4,13.9,13.6,13.6c0,0,0.1,0,0.1,0C36,63,42.1,56.9,42.4,49.1c0,0,0,0,0,0
	c-0.2-7.8-6.3-14-13.5-13.7C28.8,35.4,28.8,35.4,28.7,35.4z M42.4,150.9c-0.3-7.8-6.4-13.9-13.6-13.6c0,0,0,0,0,0
	c-7.3-0.3-13.4,5.8-13.7,13.6c0.4,7.8,6.5,13.9,13.7,13.7C36,164.8,42,158.8,42.4,150.9z M56.6,140.7v21H185v-21H56.6z M56.6,110.5
	H185v-21H56.6C56.6,89.5,56.6,110.5,56.6,110.5z M185,38.3H56.6v21H185V38.3z"/>
</svg>
