<?xml version="1.0" encoding="utf-8"?>
<!-- Generator: Adobe Illustrator 24.2.1, SVG Export Plug-In . SVG Version: 6.00 Build 0)  -->
<svg version="1.1" id="图层_2" xmlns="http://www.w3.org/2000/svg" xmlns:xlink="http://www.w3.org/1999/xlink" x="0px" y="0px"
	 viewBox="0 0 200 200" enable-background="new 0 0 200 200" xml:space="preserve">
<g>
	<g>
		<path fill="#333333" d="M180.9,55.3L152.6,27c-2.9-2.9-7.8-4.9-13.6-4.9H50.2c-10.7,0-19.5,8.8-19.5,19.5v117
			c0,10.7,8.8,19.5,19.5,19.5h117c10.7,0,19.5-8.8,19.5-19.5V69.9C186.7,64.1,184.8,59.2,180.9,55.3z M69.7,51.4H138
			c5.8,0,9.8,3.9,9.8,9.7v15.5c0,5.9-3.9,9.8-9.8,9.8H69.7c-5.9,0-9.8-3.9-9.8-9.8V61.1C60,55.3,63.9,51.4,69.7,51.4z M60,151.6
			c-5.9,0-9.8-3.9-9.8-9.8v-22.3c0-5.8,3.9-9.8,9.8-9.8h97.5c5.8,0,9.8,3.9,9.8,9.8v22.3c0,5.8-3.9,9.8-9.8,9.8H60z"/>
	</g>
	<g>
		<path fill="#333333" d="M113.6,78.6h9.8c2.9,0,4.9-1.9,4.9-4.9V64c0-2.9-1.9-4.9-4.9-4.9h-9.8c-2.9,0-4.9,2-4.9,4.9v9.8
			C108.7,76.7,110.7,78.6,113.6,78.6z"/>
	</g>
</g>
</svg>
