<?xml version="1.0" encoding="utf-8"?>
<!-- Generator: Adobe Illustrator 22.0.1, SVG Export Plug-In . SVG Version: 6.00 Build 0)  -->
<svg version="1.1" id="图层_1" xmlns="http://www.w3.org/2000/svg" xmlns:xlink="http://www.w3.org/1999/xlink" x="0px" y="0px"
	 viewBox="0 0 200 200" enable-background="new 0 0 200 200" xml:space="preserve">
<g id="图层_2_1_">
	<path d="M77.9,139.7c0-4.2,0-77.1,0-80c0-3.7,2.7-6.5,5.4-4.3c2.2,1.7,45.2,36.9,48.9,39.9c2.4,2,2.4,6.7,0,8.7
		c-2.6,2.2-45.9,37.5-49,40C81,145.8,77.9,143.8,77.9,139.7z"/>
	<path d="M99,20.9c43.4,0,78.8,35.3,78.8,78.7s-35.3,78.8-78.8,78.8s-78.8-35.3-78.8-78.8C20.3,56.3,55.6,20.9,99,20.9 M99,9.7
		C49.3,9.7,9,50,9,99.7s40.3,90,90,90s90-40.3,90-90S148.7,9.7,99,9.7L99,9.7z"/>
</g>
</svg>
