<?xml version="1.0" encoding="utf-8"?>
<!-- Generator: Adobe Illustrator 22.0.1, SVG Export Plug-In . SVG Version: 6.00 Build 0)  -->
<svg version="1.1" id="图层_1" xmlns="http://www.w3.org/2000/svg" xmlns:xlink="http://www.w3.org/1999/xlink" x="0px" y="0px"
	 viewBox="0 0 200 200" enable-background="new 0 0 200 200" xml:space="preserve">
<g id="图层_1_1_">
	<path fill="#6883D8" d="M159.7,10.5H40.3l0,0c-13.2,0-23.9,10.7-23.9,23.9v103.4v27.9c0,13.2,10.7,23.9,23.9,23.9h27.9h59.7h31.9
		c13.2,0,23.9-10.7,23.9-23.9v-27.9V34.4C183.6,21.2,172.9,10.5,159.7,10.5z M61.3,155.9v-9.3c-15.4,0-28-12.6-28-28
		c0-15.5,12.6-28,28.1-28h9.3v9.4h-9.3c-5,0-9.7,1.9-13.2,5.5c-3.5,3.5-5.5,8.2-5.5,13.2v0.1c0,10.3,8.4,18.6,18.7,18.6l0,0l0,0l0,0
		V128l14,14L61.3,155.9z M91.3,40.6h17.4c7,0.1,12.7,5.8,12.8,12.8c0.1,7.2-5.6,13.3-12.8,13.3H91.3c-7,0-12.7-5.8-12.8-12.8l0,0
		C78.4,46.7,84.1,40.7,91.3,40.6z M108.7,153.6H91.3c-7-0.1-12.7-5.8-12.8-12.8c-0.1-7.2,5.6-13,12.8-13.3h17.4l0,0
		c7,0.1,12.7,5.8,12.8,12.8l0,0C121.7,147.6,115.9,153.6,108.7,153.6z M108.7,110.3H91.3c-7-0.3-12.7-5.8-12.8-12.8l0,0
		c-0.1-7.2,5.6-13.1,12.8-13.3h17.4l0,0c7,0.1,12.7,5.8,12.8,12.8C121.7,104.2,115.9,110,108.7,110.3z M138.6,103.1v9.3l-14-14
		l14-14v9.3c5,0,9.7-2,13.2-5.5c0,0,0,0,0.1-0.1c7.2-7.3,7.2-19,0-26.3c-3.5-3.5-8.2-5.4-13.2-5.4h-9.3V47h9.3l0,0c0,0,0,0,0.1,0
		c15.4,0,27.9,12.5,27.9,28C166.6,90.6,154,103.1,138.6,103.1z"/>
</g>
</svg>
