<?xml version="1.0" encoding="utf-8"?>
<!-- Generator: Adobe Illustrator 22.0.0, SVG Export Plug-In . SVG Version: 6.00 Build 0)  -->
<svg version="1.1" id="图层_1" xmlns="http://www.w3.org/2000/svg" xmlns:xlink="http://www.w3.org/1999/xlink" x="0px" y="0px"
	 viewBox="0 0 400 72" style="enable-background:new 0 0 400 72;" xml:space="preserve">
<style type="text/css">
	.st0{fill-rule:evenodd;clip-rule:evenodd;fill:#3D5257;}
</style>
<g>
	<path class="st0" d="M78.6,59.5l-5.9-10c2-1.9,4-3.7,6.1-5.5c3.9-3.4,8-6.8,12.2-10.1l18.4,30l-28.1,0L78.6,59.5z M133.7,2
		c-20.9,3.3-36.4,11.6-50.1,19.9L72.8,4.1L47,4.1l17.5,31C51.4,45.4,39.1,57.3,24.3,70.3h24.3C72,43.7,97,20.4,133.9,2.8
		C136.7,1.4,137.1,1.4,133.7,2z"/>
	<path class="st0" d="M127.5,39.3c3.9,0,5.8-1.6,6.1-4.3c0.3-3-2.8-6.4-6-6.4H115v10.7H127.5z M128.6,56.5c4.8,0,7-2.7,6.8-6.2
		c-0.2-3.1-2.7-4.2-6.9-4.2H115v10.4H128.6z M200.3,21.5c11.4,0,20.7,9.3,20.7,20.7c0,11.4-9.3,20.7-20.7,20.7v-7.3
		c7.4,0,13.4-6,13.4-13.4c0-7.4-6-13.4-13.4-13.4V21.5z M200.3,62.9c-11.4,0-20.7-9.3-20.7-20.7c0-11.4,9.3-20.7,20.7-20.7v7.3
		c-7.4,0-13.4,6-13.4,13.4c0,7.4,6,13.4,13.4,13.4V62.9z M164.6,39c3.2,0,5.2-1.9,5.4-4.7c0.1-2.9-1.9-5.5-6.4-5.6h-1.1h-8V39H164.6
		z M162.7,47.6c7.3-0.2,9.8,1.1,12.9,6.5c3.1,5.5,6,10.7,9,16.2c-7.3,0.2-9.8-1.1-12.9-6.5C168.7,58.5,165.7,53.1,162.7,47.6z
		 M166.7,21.5c6.3,0.4,11.1,5.8,11.2,12.4c0,4.2-2.6,7.6-5.2,9.6c-2.6,2-5.2,2.2-8.4,2.5h-9.8v16.4c0,0.7,0.1,1.4-1.2,1.4h-0.6h-6.4
		V25.2c0-0.8,0.5-3.6,3.6-3.6H166.7z M224,38.9h32.6v7.4H224V38.9z M234.2,47.6c7.3-0.2,9.8,1.1,12.9,6.5c3.1,5.5,6,10.7,9,16.2
		c-7.3,0.2-9.8-1.1-12.9-6.5C240.2,58.5,237.2,53.1,234.2,47.6z M355.6,39c3.2,0,5.2-1.9,5.4-4.7c0.1-2.9-1.9-5.5-6.4-5.6h-1.1H346
		V39H355.6z M353.7,47.6c7.3-0.2,9.8,1.1,12.9,6.5c3.1,5.5,6,10.7,9,16.2c-7.3,0.2-9.8-1.1-12.9-6.5
		C359.7,58.5,356.7,53.1,353.7,47.6z M311,21.3h22.1v7.9h-18.4c-2.3,0-4.3-0.4-4.3,2.6V39h22.7v7.2h-22.7v5.3c0,1.7-0.6,4.1,4.1,4.1
		h23.3V25.2c0-0.8,0.5-3.6,3.6-3.6h2.2h14c6.3,0.4,11.1,5.8,11.2,12.4c0,4.2-2.6,7.6-5.2,9.6c-2.6,2-5.2,2.2-8.4,2.5H346v16.6V63
		c0,0.8-0.5,0.8-1.2,0.8c-11.2,0-22.5,0-33.8,0c-2.4,0-4.7-1-6.3-2.6c-1.6-1.6-2.6-3.8-2.6-6.3V30.1c0-2.4,1-4.6,2.6-6.2l0,0l0,0
		l0,0C306.4,22.2,308.6,21.3,311,21.3z M297.8,63.8h-8.5V46h-20.4v17.8h-8.5V21.3h8.5v17.4h20.4V21.3h8.5V63.8z M131.8,21.5
		c5.6,0.3,10.2,5.8,10.4,11c0.2,5.2-2.5,8.1-5.3,9c4.6,2.8,6.3,5.2,6.3,9.7c0,2.3-0.6,4.4-1.7,6.2c-0.6,0.9-1.2,1.7-2,2.5
		c-3.1,2.9-5.1,3.5-8.5,3.9h-16.2l-8.1-12.9V24c0-1.7,1-2.4,2.5-2.4H131.8z"/>
</g>
</svg>
