<?xml version="1.0" encoding="utf-8"?>
<!-- Generator: Adobe Illustrator 22.0.1, SVG Export Plug-In . SVG Version: 6.00 Build 0)  -->
<svg version="1.1" id="图层_1" xmlns="http://www.w3.org/2000/svg" xmlns:xlink="http://www.w3.org/1999/xlink" x="0px" y="0px"
	 viewBox="0 0 32 32" style="enable-background:new 0 0 32 32;" xml:space="preserve">
<g id="水流开关">
	<g>
		<path d="M25.8,21c-0.6,0-1,0.5-1,1v7.8c0,0.6,0.5,1,1,1s1-0.5,1-1V22C26.9,21.5,26.4,21,25.8,21z"/>
		<path d="M7.1,21L7.1,21c-0.6,0-1,0.4-1,1v7.9c0,0.6,0.4,1,1,1l0,0c0.6,0,1-0.4,1-1V22C8.1,21.4,7.6,21,7.1,21z"/>
		<path d="M21.8,21.9H11.1c-1.1,0-2,0.9-2,2v4c0,1.1,0.9,2,2,2h10.8c1.1,0,2-0.9,2-2v-4C23.8,22.8,22.9,21.9,21.8,21.9z"/>
		<path d="M20.3,16.3h-0.6h-2c3.2-0.7,5.6-3.5,5.6-6.9c0-3.9-3.2-7.1-7.1-7.1s-7,3.2-7,7.1c0,3.4,2.4,6.2,5.6,6.9h-2h-0.6
			c-0.6,0-1,0.4-1,1s0.4,1,1,1h0.6v2.6h7v-2.6h0.6c0.6,0,1-0.4,1-1C21.3,16.8,20.9,16.3,20.3,16.3z M15,13.7h-1.8V4.8h6.1v1.8H15
			v1.8h4.1v1.8H15V13.7z"/>
	</g>
</g>
</svg>
