<?xml version="1.0" encoding="utf-8"?>
<!-- Generator: Adobe Illustrator 22.0.1, SVG Export Plug-In . SVG Version: 6.00 Build 0)  -->
<svg version="1.1" id="图层_1" xmlns="http://www.w3.org/2000/svg" xmlns:xlink="http://www.w3.org/1999/xlink" x="0px" y="0px"
	 width="32px" height="32px" viewBox="0 0 32 32" style="enable-background:new 0 0 32 32;" xml:space="preserve">
<g id="电动调节阀">
	<g>
		<path d="M25.3,20.3c-0.6,0-1,0.5-1,1v7.8c0,0.6,0.5,1,1,1s1-0.5,1-1v-7.8C26.4,20.7,25.9,20.3,25.3,20.3z"/>
		<path d="M6.6,20.3L6.6,20.3c-0.6,0-1,0.4-1,1v7.9c0,0.6,0.4,1,1,1l0,0c0.6,0,1-0.4,1-1v-7.9C7.6,20.7,7.1,20.3,6.6,20.3z"/>
		<path d="M21.3,21.2H10.6c-1.1,0-2,0.9-2,2v4c0,1.1,0.9,2,2,2h10.8c1.1,0,2-0.9,2-2v-4C23.3,22.1,22.4,21.2,21.3,21.2z"/>
		<g>
			<path d="M14.6,6c0-0.6-0.5-1.1-1.1-1.1S12.4,5.4,12.4,6s0.5,1.1,1.1,1.1S14.6,6.6,14.6,6z"/>
			<path d="M19.9,10.2c0-0.6-0.5-1.1-1.1-1.1s-1.1,0.5-1.1,1.1s0.5,1.1,1.1,1.1S19.9,10.8,19.9,10.2z"/>
			<path d="M19.8,15.6h-0.6h-2c3.2-0.7,5.6-3.5,5.6-6.9c0-3.9-3.2-7.1-7.1-7.1s-7,3.2-7,7.1c0,3.4,2.4,6.2,5.6,6.9h-2h-0.6
				c-0.6,0-1,0.4-1,1s0.4,1,1,1h0.6v2.6h7v-2.6h0.6c0.6,0,1-0.4,1-1C20.8,16,20.4,15.6,19.8,15.6z M11.3,6c0-1.2,1-2.1,2.1-2.1
				c1.2,0,2.1,1,2.1,2.1c0,1.2-1,2.1-2.1,2.1S11.3,7.2,11.3,6z M13.4,11.7l-0.8-0.8L19,4.5l0.8,0.8L13.4,11.7z M16.6,10.2
				c0-1.2,1-2.1,2.1-2.1c1.2,0,2.1,1,2.1,2.1s-1,2.1-2.1,2.1C17.6,12.3,16.6,11.4,16.6,10.2z"/>
		</g>
	</g>
</g>
<g id="压差平衡阀">
</g>
<g id="电动三通阀">
</g>
<g id="水流开关">
</g>
<g id="压差旁通阀">
</g>
<g id="电磁阀">
</g>
<g id="截止阀">
</g>
<g id="闸阀">
</g>
<g id="球阀">
</g>
<g id="快开阀">
</g>
<g id="蝶阀">
</g>
<g id="旋塞阀">
</g>
<g id="止回阀">
</g>
<g id="浮球阀">
</g>
<g id="三通阀">
</g>
<g id="自动排气阀">
</g>
</svg>
