<?xml version="1.0" encoding="utf-8"?>
<!-- Generator: Adobe Illustrator 22.0.1, SVG Export Plug-In . SVG Version: 6.00 Build 0)  -->
<svg version="1.1" id="图层_1" xmlns="http://www.w3.org/2000/svg" xmlns:xlink="http://www.w3.org/1999/xlink" x="0px" y="0px"
	 viewBox="0 0 32 32" style="enable-background:new 0 0 32 32;" xml:space="preserve">
<g id="图层_6">
	<g>
		<path d="M28.8,23.5h-3.1V21h0.9v-2.5H18V21h0.7v2.5H9.3v-5.1h1.8v-1.8H12v0.1c0,0.4,0.4,0.8,0.8,0.8h0.4c0.4,0,0.8-0.4,0.8-0.8
			v-2.2c0-0.4-0.4-0.8-0.8-0.8h-0.4c-0.4,0-0.8,0.4-0.8,0.8v0.1h-0.9v-1.8H9.3V8.9h1.1c0.5,0,1-0.4,1-1V7.8c0-0.5-0.4-1-1-1H9.3h-2
			h-1c-0.5,0-1,0.4-1,1v0.1c0,0.5,0.4,1,1,1h1.1v3.8H6.5v5.7h0.9v3c0,0,0,0-0.1,0H3.6c-1.1,0-2,0.9-2,2V25c0,0,0,0,0,0.1
			c0,0,0,0,0,0.1v0.3c0,0.9,0.7,1.6,1.6,1.6h0.4h3.7h21.5c0.9,0,1.6-0.7,1.6-1.6v-0.3C30.4,24.2,29.7,23.5,28.8,23.5z M23.7,23.5
			h-2.9V21h2.9V23.5z"/>
		<path d="M6.3,5.9h4.1c0.5,0,1-0.4,1-1l0,0c0-0.5-0.4-1-1-1H9.3v-1C9.3,2.4,8.9,2,8.4,2H8.3c-0.6,0-1,0.4-1,0.9v1h-1
			c-0.5,0-1,0.4-1,1V5C5.3,5.5,5.7,5.9,6.3,5.9z"/>
		<rect x="18.1" y="10.8" width="8.6" height="2.5"/>
		<rect x="18.1" y="14.5" width="8.6" height="2.6"/>
		<path d="M17,21V10.6c-1,0.1-1.9,0.9-1.9,2v6.5C15.1,20.1,16,21,17,21z"/>
		<path d="M29.6,19.1v-6.5c0-1.1-0.9-2-2-2h-0.1v10.5h0.1C28.7,21.1,29.6,20.2,29.6,19.1z"/>
		<path d="M20.9,9.7h2.8c1.1,0,2-0.9,2-2h-6.8C18.9,8.8,19.8,9.7,20.9,9.7z"/>
		<path d="M2.3,16.5h1.2c0.1,1,0.9,1.8,1.9,1.8v-5.7c-1,0-1.8,0.8-1.9,1.8H2.3c-0.4,0-0.8,0.4-0.8,0.8v0.4
			C1.5,16.2,1.9,16.5,2.3,16.5z"/>
	</g>
</g>
</svg>
