<?xml version="1.0" encoding="utf-8"?>
<!-- Generator: Adobe Illustrator 22.0.1, SVG Export Plug-In . SVG Version: 6.00 Build 0)  -->
<svg version="1.1" id="图层_1" xmlns="http://www.w3.org/2000/svg" xmlns:xlink="http://www.w3.org/1999/xlink" x="0px" y="0px"
	 width="32px" height="32px" viewBox="0 0 32 32" style="enable-background:new 0 0 32 32;" xml:space="preserve">
<g id="快开阀">
	<g>
		<path d="M4.6,13.3c-0.6,0-1,0.4-1,1v11c0,0.6,0.4,1,1,1s1-0.4,1-1v-11C5.6,13.7,5.1,13.3,4.6,13.3z"/>
		<path d="M27.4,13.3c-0.6,0-1,0.4-1,1v11c0,0.6,0.4,1,1,1s1-0.4,1-1v-11C28.4,13.7,28,13.3,27.4,13.3z"/>
		<path d="M24.4,13.9c-0.6-0.3-1.3-0.4-1.9,0l-5.7,3.3V7.5h6.3c0.3,0,0.5-0.2,0.5-0.5s-0.2-0.5-0.5-0.5h-6.3h-1.4h-0.6V17l-5.3-3.1
			c-0.6-0.4-1.3-0.3-1.9,0c-0.6,0.4-1,1-1,1.7V24c0,0.7,0.4,1.3,1,1.7c0.3,0.2,0.6,0.3,1,0.3c0.3,0,0.7-0.1,1-0.3l6.5-3.7l6.5,3.7
			c0.3,0.2,0.6,0.3,1,0.3c0.3,0,0.7-0.1,1-0.3c0.6-0.3,1-1,1-1.7v-8.4C25.4,14.9,25,14.3,24.4,13.9z M13.8,20.3l-3.5,2
			c-0.4,0.2-0.8-0.1-0.8-0.5v-4c0-0.4,0.5-0.7,0.8-0.5l3.5,2C14.2,19.5,14.2,20.1,13.8,20.3z M22.5,21.8c0,0.4-0.5,0.7-0.8,0.5
			l-3.5-2c-0.4-0.2-0.4-0.7,0-0.9l3.5-2c0.4-0.2,0.8,0.1,0.8,0.5V21.8z"/>
	</g>
</g>
</svg>
