<?xml version="1.0" encoding="utf-8"?>
<!-- Generator: Adobe Illustrator 22.0.1, SVG Export Plug-In . SVG Version: 6.00 Build 0)  -->
<svg version="1.1" id="图层_1" xmlns="http://www.w3.org/2000/svg" xmlns:xlink="http://www.w3.org/1999/xlink" x="0px" y="0px"
	 viewBox="0 0 32 32" style="enable-background:new 0 0 32 32;" xml:space="preserve">
<g id="图层_8">
	<g>
		<path d="M28.5,13.1H4c-1.1,0-2,0.9-2,1.9v13.4c0,1,0.9,1.9,2,1.9h24.6c1.1,0,2-0.9,2-1.9V15C30.5,13.9,29.6,13.1,28.5,13.1z
			 M28.5,16.9c0,1.1-0.9,2-2,2H6c-1.1,0-2-0.9-2-2V17c0-1.1,0.9-2,2-2h20.5C27.6,15,28.5,15.9,28.5,16.9L28.5,16.9z M28,24.6H4.5
			c-0.3,0-0.5-0.2-0.5-0.5l0,0c0-0.3,0.2-0.5,0.5-0.5H28c0.3,0,0.5,0.2,0.5,0.5l0,0C28.5,24.4,28.3,24.6,28,24.6z"/>
	</g>
	<g>
		<path d="M16,10.9c-0.2,0-0.4-0.1-0.6-0.2c-0.1-0.1-1.1-0.8-1.3-2.1c-0.1-0.9,0.2-1.9,1-2.8c1.2-1.4,0.2-2.6,0.1-2.7
			c-0.4-0.4-0.3-1,0.1-1.4c0.4-0.4,1-0.3,1.4,0.1c0.8,0.9,1.8,3.1-0.1,5.3c-0.3,0.3-0.6,0.8-0.5,1.2c0.1,0.4,0.4,0.7,0.4,0.7
			c0.4,0.3,0.5,0.9,0.2,1.4C16.6,10.7,16.3,10.9,16,10.9z"/>
	</g>
	<g>
		<path d="M9.9,12c-0.2,0-0.4-0.1-0.5-0.2C9.2,11.8,8.2,11,8,9.7c-0.1-0.9,0.2-1.9,1-2.8c1.2-1.4,0.2-2.6,0.1-2.7
			c-0.4-0.4-0.3-1,0.1-1.4c0.4-0.4,1-0.3,1.4,0.1c0.8,0.9,1.8,3.1-0.1,5.3C10.1,8.7,9.9,9.1,10,9.4c0.1,0.4,0.5,0.7,0.5,0.7
			c0.5,0.3,0.6,0.9,0.3,1.4C10.5,11.8,10.2,12,9.9,12z"/>
	</g>
	<g>
		<path d="M22.1,12.3c-0.2,0-0.4-0.1-0.6-0.2c-0.1-0.1-1-0.8-1.2-2.1c-0.1-0.9,0.2-1.9,0.9-2.8c1.2-1.4,0.2-2.6,0.1-2.7
			c-0.4-0.4-0.3-1,0.1-1.4c0.4-0.4,1-0.3,1.4,0.1c0.8,0.9,1.8,3.1-0.1,5.3c-0.4,0.4-0.5,0.9-0.5,1.2c0.1,0.4,0.4,0.7,0.4,0.7
			c0.4,0.3,0.5,0.9,0.2,1.4C22.7,12.2,22.4,12.3,22.1,12.3z"/>
	</g>
</g>
</svg>
