<?xml version="1.0" encoding="utf-8"?>
<!-- Generator: Adobe Illustrator 22.0.1, SVG Export Plug-In . SVG Version: 6.00 Build 0)  -->
<svg version="1.1" id="图层_1" xmlns="http://www.w3.org/2000/svg" xmlns:xlink="http://www.w3.org/1999/xlink" x="0px" y="0px"
	 viewBox="0 0 32 32" style="enable-background:new 0 0 32 32;" xml:space="preserve">
<g id="图层_5">
	<g>
		<circle cx="18.5" cy="16.1" r="1.5"/>
		<path d="M17,14c0.4-0.3,0.9-0.5,1.5-0.5c0.3,0,0.7,0.1,1,0.2v-0.1c1-3.8-1.3-4.9-2.5-5.1c-0.2-0.1-0.3-0.1-0.5-0.1
			c-0.1,0-0.1,0-0.1,0c-1.2,0-2.1,0.9-2.1,2.1c0,0.9,0.6,1.7,1.3,2l0,0C16.5,12.9,16.9,13.7,17,14z"/>
		<path d="M16.8,20.4c-0.1-1,0.4-1.7,0.6-2c-0.8-0.4-1.3-1.1-1.5-2h-0.1c-3.8,1-3.6,3.5-3.2,4.7c0,0.2,0.1,0.3,0.2,0.5
			c0,0.1,0,0.1,0,0.1c0.6,1,1.9,1.4,2.9,0.8C16.5,22.1,16.9,21.3,16.8,20.4L16.8,20.4z"/>
		<path d="M25.4,15.3c-0.8-0.4-1.7-0.3-2.4,0.2l0,0c-0.8,0.6-1.7,0.5-2,0.4c0,0.1,0,0.1,0,0.2c0,0.8-0.4,1.5-1,2v0.1
			c2.8,2.8,4.8,1.3,5.7,0.4c0.1-0.1,0.2-0.3,0.3-0.4c0-0.1,0.1-0.1,0.1-0.1C26.8,17.1,26.4,15.9,25.4,15.3z"/>
		<path d="M18.8,4.7L19,4.6H3.9c-1.1,0-2,0.9-2,2v6c0,1.1,0.9,2,2,2h3.6c-0.1,0.5-0.1,0.9-0.1,1.4c0,6.3,5.1,11.3,11.3,11.3
			C25,27.3,30,22.2,30,16C30,9.8,25.1,4.8,18.8,4.7z M18.7,25c-5,0-9-4-9-9s4-9,9-9s9,4,9,9C27.8,21,23.7,25,18.7,25z"/>
	</g>
</g>
</svg>
