<?xml version="1.0" encoding="utf-8"?>
<!-- Generator: Adobe Illustrator 22.0.1, SVG Export Plug-In . SVG Version: 6.00 Build 0)  -->
<svg version="1.1" id="图层_1" xmlns="http://www.w3.org/2000/svg" xmlns:xlink="http://www.w3.org/1999/xlink" x="0px" y="0px"
	 viewBox="0 0 32 32" style="enable-background:new 0 0 32 32;" xml:space="preserve">
<g id="图层_2_1_">
	<g>
		<path d="M15.6,27.4c-0.7,0-1.4-0.1-2.1-0.2v1.5c0,1.2,0.9,2.1,2.1,2.1s2.1-0.9,2.1-2.1v-1.5C17,27.3,16.3,27.4,15.6,27.4z"/>
		<path d="M29.9,10.7h-1.1c0.2,1,0.4,2,0.4,3.1c0,1-0.1,2-0.4,2.9h1.1c0.6,0,1.1-0.5,1.1-1.1v-3.9C31,11.2,30.5,10.7,29.9,10.7z"/>
		<path d="M15.6,1.2C8.6,1.2,3,6.8,3,13.8s5.6,12.6,12.6,12.6s12.6-5.6,12.6-12.6S22.5,1.2,15.6,1.2z M17.5,23.4L17.5,23.4
			L17.5,23.4H14c-0.8,0-0.8-1.2,0-1.2h3.5c0.3,0,0.6,0.3,0.6,0.6C18.1,23.2,17.8,23.4,17.5,23.4z M20.7,20.8h-10
			c-0.8,0-0.8-1.2,0-1.2h10c0.3,0,0.6,0.3,0.6,0.6C21.3,20.5,21,20.8,20.7,20.8z M24.2,20.3c-0.5,0.6-1.4-0.1-0.9-0.7
			c0.5-0.7,0.9-1.4,1.2-2.1l-1.8-0.6c-0.7-0.2-0.4-1.4,0.4-1.1l1.8,0.6c0.4-1.6,0.4-3.2,0-4.8l-1.8,0.6c-0.7,0.2-1.1-0.9-0.4-1.1
			l1.8-0.6c-0.6-1.5-1.6-2.9-2.8-3.9l-1.1,1.5c-0.5,0.6-1.4-0.1-1-0.7l1.1-1.5c-1.3-0.9-2.9-1.4-4.5-1.5v1.9c0,0.8-1.2,0.8-1.2,0
			V4.4c-1.7,0.1-3.3,0.6-4.7,1.5l1.2,1.6c0.5,0.6-0.5,1.3-1,0.7l-1-1.6c-1.3,1-2.2,2.4-2.8,3.9l1.9,0.6c0.7,0.2,0.4,1.4-0.4,1.1
			l-1.9-0.6c-0.4,1.6-0.4,3.2,0,4.8l1.9-0.6c0.3-0.1,0.6,0.1,0.7,0.3l5.6-2.1l0,0c0-0.6,0.5-1.1,1.1-1.1c0.3,0,0.6,0.1,0.8,0.4
			l2.5-0.9l0.3,0.9L16.7,14l0,0c0,0.6-0.5,1.1-1.1,1.1c-0.4,0-0.7-0.2-0.9-0.5l0,0L9,16.1c0.1,0.3,0,0.7-0.4,0.8l-1.9,0.6
			c0.3,0.7,0.7,1.4,1.1,2.1c0.5,0.6-0.5,1.3-1,0.7c-1.7-2.3-2.4-5.2-1.9-8C6.5,2.8,18.7-0.1,24.3,7.6C27,11.4,27,16.5,24.2,20.3z"/>
	</g>
</g>
</svg>
