<?xml version="1.0" encoding="utf-8"?>
<!-- Generator: Adobe Illustrator 22.0.1, SVG Export Plug-In . SVG Version: 6.00 Build 0)  -->
<svg version="1.1" id="图层_1" xmlns="http://www.w3.org/2000/svg" xmlns:xlink="http://www.w3.org/1999/xlink" x="0px" y="0px"
	 width="32px" height="32px" viewBox="0 0 32 32" style="enable-background:new 0 0 32 32;" xml:space="preserve">
<g id="图层_2_1_">
	<g>
		<g>
			<path d="M19,26c-3,0-5.7-0.8-7-2.1c-0.8,0.6-1.2,1.3-1.2,2.1c0,2.2,3.6,4,8,4s8-1.8,8-4c0-0.7-0.4-1.3-1-1.9
				C24.4,25.2,21.9,26,19,26z"/>
		</g>
		<g>
			<path d="M12.8,9.1v14.4c1.5,0.9,3.7,1.5,6.2,1.5c2.3,0,4.3-0.5,5.8-1.2V9.1c-1.5,0.8-3.6,1.4-6,1.4S14.2,10,12.8,9.1z"/>
		</g>
		<g>
			<polygon points="11.8,14.9 7.2,11.7 8.3,10.1 6.7,8.9 2.2,15.6 3.9,16.7 5,15 11.8,19.8 			"/>
		</g>
		<g>
			<g>
				<path d="M18.8,9.5c4.4,0,8-1.8,8-4s-3.6-4-8-4s-8,1.8-8,4C10.8,7.7,14.4,9.5,18.8,9.5z M18.8,3.4c2.9,0,5.2,0.9,5.2,2.1
					s-2.3,2.1-5.2,2.1s-5.2-0.9-5.2-2.1S15.9,3.4,18.8,3.4z"/>
			</g>
		</g>
	</g>
</g>
</svg>
