<?xml version="1.0" encoding="utf-8"?>
<!-- Generator: Adobe Illustrator 22.0.1, SVG Export Plug-In . SVG Version: 6.00 Build 0)  -->
<svg version="1.1" id="图层_1" xmlns="http://www.w3.org/2000/svg" xmlns:xlink="http://www.w3.org/1999/xlink" x="0px" y="0px"
	 width="32px" height="32px" viewBox="0 0 32 32" style="enable-background:new 0 0 32 32;" xml:space="preserve">
<g id="图层_12">
	<path d="M27.7,5.8h-4V3.6c0-1.1-0.9-2-2-2H10.3c-1.1,0-2,0.9-2,2v2.2h-4c-1.1,0-2,0.9-2,2v17.8c0,1.1,0.9,2,2,2h0.9v1.8
		c0,0.5,0.5,1,1,1h3.2c0.5,0,1-0.5,1-1v-1.8h11.2v1.8c0,0.5,0.5,1,1,1h3.2c0.5,0,1-0.5,1-1v-1.8h0.9c1.1,0,2-0.9,2-2V7.8
		C29.7,6.7,28.8,5.8,27.7,5.8z M6.2,9.5h19.6c0.3,0,0.5,0.2,0.5,0.5s-0.2,0.5-0.5,0.5H6.2c-0.3,0-0.5-0.2-0.5-0.5S5.9,9.5,6.2,9.5z
		 M25.3,25H6.5c-0.5,0-1-0.4-1-1c0-0.5,0.5-1,1-1h18.8c0.5,0,1,0.5,1,1S25.9,25,25.3,25z M5.7,19.4c0-0.3,0.2-0.5,0.5-0.5h19.6
		c0.3,0,0.5,0.2,0.5,0.5s-0.2,0.5-0.5,0.5H6.2C5.9,19.9,5.7,19.7,5.7,19.4z M25.3,15.7H6.5c-0.5,0-1-0.5-1-1c0-0.6,0.5-1,1-1h18.8
		c0.5,0,1,0.4,1,1S25.9,15.7,25.3,15.7z"/>
</g>
</svg>
