<?xml version="1.0" encoding="utf-8"?>
<!-- Generator: Adobe Illustrator 22.0.1, SVG Export Plug-In . SVG Version: 6.00 Build 0)  -->
<svg version="1.1" id="图层_1" xmlns="http://www.w3.org/2000/svg" xmlns:xlink="http://www.w3.org/1999/xlink" x="0px" y="0px"
	 width="32px" height="32px" viewBox="0 0 32 32" style="enable-background:new 0 0 32 32;" xml:space="preserve">
<g id="浮球阀">
	<path d="M27.4,17.2h-0.2c-0.5,0-0.9,0.4-0.9,0.9v0.5h-0.8v-0.9l-3.4-3.1h-4.3v-0.8H20c0.6,0,1-0.4,1-1s-0.4-1-1-1h-0.3v-0.1h-1.5
		V9.3h-1V8.7h6.5c0.2,0.7,0.8,1.2,1.6,1.2c0.9,0,1.7-0.7,1.7-1.7s-0.7-1.7-1.7-1.7c-0.8,0-1.4,0.5-1.6,1.2h-6.5V7.5h-1v0.4h-0.8v0.8
		h0.8v0.7h-1v2.4h-1.5v0.1h-0.4c-0.6,0-1,0.4-1,1s0.4,1,1,1h2.4v0.8H11l-3,3v0.9H7.2v-0.5c0-0.5-0.4-0.9-0.9-0.9H6.1
		c-0.5,0-0.9,0.4-0.9,0.9v5.1c0,0.5,0.4,0.9,0.9,0.9h0.2c0.5,0,0.9-0.4,0.9-0.9v-0.7H8v1.1l3.3,2.9h11.1l3.1-2.5v-1.4h0.8v0.7
		c0,0.5,0.4,0.9,0.9,0.9h0.2c0.5,0,0.9-0.4,0.9-0.9v-5.1C28.2,17.6,27.8,17.2,27.4,17.2z M21.7,22.5c0,0.1-1.1,1.3-2.7,1.4
		c-0.1,0-0.1,0-0.2,0c-0.8,0-1.5-0.3-2.2-0.9c-1.9-1.7-4.1,0-4.2,0c-0.2,0.2-0.5,0.1-0.7-0.1s-0.1-0.5,0.1-0.7c1-0.8,3.5-1.8,5.5,0
		c0.5,0.5,1.1,0.7,1.7,0.7c1.1-0.1,2-1.1,2-1.1c0.2-0.2,0.5-0.2,0.7-0.1C21.9,21.9,21.9,22.3,21.7,22.5z M21.7,18.7
		c0,0.1-1.1,1.3-2.7,1.4c-0.1,0-0.1,0-0.2,0c-0.8,0-1.5-0.3-2.2-0.9c-1.9-1.7-4.1,0-4.2,0c-0.2,0.2-0.5,0.1-0.7-0.1
		s-0.1-0.5,0.1-0.7c1-0.8,3.5-1.8,5.5,0c0.5,0.5,1.1,0.7,1.7,0.7c1.1-0.1,2-1.1,2-1.1c0.2-0.2,0.5-0.2,0.7-0.1
		C21.9,18.2,21.9,18.5,21.7,18.7z"/>
</g>
</svg>
