<?xml version="1.0" encoding="utf-8"?>
<!-- Generator: Adobe Illustrator 22.0.1, SVG Export Plug-In . SVG Version: 6.00 Build 0)  -->
<svg version="1.1" id="图层_1" xmlns="http://www.w3.org/2000/svg" xmlns:xlink="http://www.w3.org/1999/xlink" x="0px" y="0px"
	 width="32px" height="32px" viewBox="0 0 32 32" style="enable-background:new 0 0 32 32;" xml:space="preserve">
<g id="图层_15">
	<path d="M22,1.5H10c-1.1,0-2,0.9-2,2v24.9c0,1.1,0.9,2,2,2h12c1.1,0,2-0.9,2-2V3.5C24,2.5,23.1,1.5,22,1.5z M10.4,3.9h11.3
		c0.4,0,0.8,0.3,0.9,0.6H9.4C9.6,4.2,9.9,3.9,10.4,3.9z M9.4,5.6h13.3v0.7H9.4V5.6z M9.4,7.2h13.3v0.7H9.4V7.2z M10.4,9.5
		c-0.4,0-0.8-0.3-0.9-0.7h13.2c-0.1,0.4-0.5,0.7-0.9,0.7H10.4z M17.8,12.4v2.7h-3.6v-2.7H17.8z M22.7,28.1c0,0.5-0.4,0.9-0.9,0.9
		H10.3c-0.5,0-0.9-0.4-0.9-0.9v-0.2h13.3V28.1z"/>
</g>
</svg>
