<?xml version="1.0" encoding="utf-8"?>
<!-- Generator: Adobe Illustrator 22.0.1, SVG Export Plug-In . SVG Version: 6.00 Build 0)  -->
<svg version="1.1" id="图层_1" xmlns="http://www.w3.org/2000/svg" xmlns:xlink="http://www.w3.org/1999/xlink" x="0px" y="0px"
	 viewBox="0 0 32 32" style="enable-background:new 0 0 32 32;" xml:space="preserve">
<g id="电动开关阀">
</g>
<g id="电动调节阀">
</g>
<g id="压差平衡阀">
</g>
<g id="电动三通阀">
</g>
<g id="水流开关">
</g>
<g id="压差旁通阀">
</g>
<g id="电磁阀">
</g>
<g id="截止阀">
</g>
<g id="闸阀">
</g>
<g id="球阀">
</g>
<g id="快开阀">
</g>
<g id="蝶阀">
</g>
<g id="旋塞阀">
	<g>
		<path d="M4.6,13.7c-0.6,0-1,0.4-1,1v11c0,0.6,0.4,1,1,1s1-0.4,1-1v-11C5.6,14.1,5.1,13.7,4.6,13.7z"/>
		<path d="M27.4,13.7c-0.6,0-1,0.4-1,1v11c0,0.6,0.4,1,1,1s1-0.4,1-1v-11C28.4,14.1,28,13.7,27.4,13.7z"/>
		<path d="M24.4,14.3c-0.6-0.3-1.3-0.4-1.9,0l-5.7,3.3V14c0.7-0.3,1.1-1,1.1-1.8s-0.5-1.4-1.1-1.8V7.6H21c0.6,0,1-0.4,1-1
			s-0.4-1-1-1H11c-0.6,0-1,0.4-1,1s0.4,1,1,1h3.8v3c-0.5,0.4-0.9,1-0.9,1.7s0.4,1.3,0.9,1.7v3.5l-5.3-3.1c-0.6-0.4-1.3-0.3-1.9,0
			c-0.6,0.4-1,1-1,1.7v8.4c0,0.7,0.4,1.3,1,1.7c0.3,0.2,0.6,0.3,1,0.3c0.3,0,0.7-0.1,1-0.3l6.5-3.7l6.5,3.7c0.3,0.2,0.6,0.3,1,0.3
			c0.3,0,0.7-0.1,1-0.3c0.6-0.3,1-1,1-1.7V16C25.4,15.3,25,14.6,24.4,14.3z M13.8,20.6l-3.5,2c-0.4,0.2-0.8-0.1-0.8-0.5v-4
			c0-0.4,0.5-0.7,0.8-0.5l3.5,2C14.2,19.9,14.2,20.4,13.8,20.6z M15.9,13.2c-0.6,0-1-0.4-1-1s0.4-1,1-1s1,0.4,1,1
			S16.5,13.2,15.9,13.2z M22.5,22.2c0,0.4-0.5,0.7-0.8,0.5l-3.5-2c-0.4-0.2-0.4-0.7,0-0.9l3.5-2c0.4-0.2,0.8,0.1,0.8,0.5V22.2z"/>
	</g>
</g>
<g id="止回阀">
</g>
<g id="浮球阀">
</g>
<g id="三通阀">
</g>
<g id="自动排气阀">
</g>
</svg>
