<?xml version="1.0" encoding="utf-8"?>
<!-- Generator: Adobe Illustrator 22.0.1, SVG Export Plug-In . SVG Version: 6.00 Build 0)  -->
<svg version="1.1" id="图层_1" xmlns="http://www.w3.org/2000/svg" xmlns:xlink="http://www.w3.org/1999/xlink" x="0px" y="0px"
	 viewBox="0 0 32 32" style="enable-background:new 0 0 32 32;" xml:space="preserve">
<g id="图层_4">
	<g>
		<g>
			<path d="M16,1.5C9.7,1.5,4.7,6.6,4.7,12.9s5,11.3,11.3,11.3s11.3-5.1,11.3-11.3S22.3,1.5,16,1.5z M16,21.9c-5,0-9-4-9-9s4-9,9-9
				s9,4,9,9C25,17.8,21,21.9,16,21.9z"/>
			<path d="M15.7,11.5c-0.8,0-1.5,0.7-1.5,1.5s0.7,1.5,1.5,1.5s1.5-0.7,1.5-1.5S16.6,11.5,15.7,11.5z"/>
			<path d="M12.9,9.4L12.9,9.4c0.9,0.4,1.3,1.2,1.4,1.5c0.4-0.3,0.9-0.5,1.5-0.5c0.3,0,0.7,0.1,1,0.2v-0.1c1-3.8-1.3-4.9-2.5-5.1
				c-0.2-0.1-0.3-0.1-0.5-0.1c-0.1,0-0.1,0-0.1,0c-1.2,0-2.1,0.9-2.1,2.1C11.5,8.3,12.1,9.1,12.9,9.4z"/>
			<path d="M14.7,15.3c-0.8-0.4-1.3-1.1-1.5-2h-0.1c-3.8,1-3.6,3.5-3.2,4.7c0,0.2,0.1,0.3,0.2,0.5c0,0.1,0,0.1,0,0.1
				c0.6,1,1.9,1.4,2.9,0.8c0.8-0.4,1.2-1.3,1-2.1l0,0C13.9,16.3,14.4,15.6,14.7,15.3z"/>
			<path d="M20.3,12.3L20.3,12.3c-0.8,0.6-1.7,0.5-2,0.4c0,0.1,0,0.1,0,0.2c0,0.8-0.4,1.5-1,2V15c2.8,2.8,4.8,1.3,5.7,0.4
				c0.1-0.1,0.2-0.3,0.3-0.4c0-0.1,0.1-0.1,0.1-0.1c0.6-1,0.2-2.3-0.8-2.9C21.9,11.7,21,11.8,20.3,12.3z"/>
		</g>
		<path d="M25.4,28.4H21c0-0.1,0-0.1,0-0.2V24c-1.5,0.8-3.2,1.2-5,1.2s-3.5-0.4-5-1.2v4.2c0,0.1,0,0.1,0,0.2H6.5c-0.6,0-1,0.5-1,1
			v0.1c0,0.6,0.5,1,1,1h19c0.5,0,0.9-0.5,0.9-1v-0.1C26.4,28.8,25.9,28.4,25.4,28.4z"/>
	</g>
</g>
</svg>
