<?xml version="1.0" encoding="utf-8"?>
<!-- Generator: Adobe Illustrator 22.0.1, SVG Export Plug-In . SVG Version: 6.00 Build 0)  -->
<svg version="1.1" id="图层_1" xmlns="http://www.w3.org/2000/svg" xmlns:xlink="http://www.w3.org/1999/xlink" x="0px" y="0px"
	 viewBox="0 0 32 32" style="enable-background:new 0 0 32 32;" xml:space="preserve">
<g id="图层_2_1_">
	<g>
		<path d="M17.2,28.7V30c0,0.3-0.2,0.5-0.5,0.5h-1.4c-0.3,0-0.5-0.2-0.5-0.5v-1.3H12c-0.3,0-0.5-0.2-0.5-0.5v-1.4
			c0-0.3,0.2-0.5,0.5-0.5h1v-0.8C7.6,24,3.7,19.1,3.9,13.3C4,7,9.2,1.7,15.5,1.5c6.9-0.3,12.6,5.3,12.6,12.1
			c0,5.7-3.9,10.4-9.1,11.8v0.8h1c0.3,0,0.5,0.2,0.5,0.5v1.4c0,0.3-0.2,0.5-0.5,0.5h-2.8V28.7z M15,13l-2.1-2l-1-0.8l-0.8-1.4
			l1.4,0.8l0.8,1l2.1,2.1c0.6-0.4,1.3-0.2,1.7,0.4c0.2,0.4,0.2,0.9,0,1.3l0.2,0.2l0.7,0.6l0.7,1l-0.2,0.2l-1-0.7L16.9,15l-0.2-0.2
			c-0.6,0.4-1.3,0.2-1.7-0.4C14.7,13.9,14.7,13.4,15,13L15,13z M16,23.4c5.4,0,9.7-4.4,9.7-9.7S21.4,3.9,16,3.9s-9.7,4.4-9.7,9.7
			S10.6,23.4,16,23.4z M15.8,4.2h0.3v1.5h-0.3V4.2z M16.5,4.2h0.3l-0.1,0.9h-0.3C16.4,5.2,16.5,4.2,16.5,4.2z M17.1,4.3h0.3
			l-0.1,0.9H17L17.1,4.3z M17.7,4.4H18l-0.2,0.9l-0.3-0.1L17.7,4.4z M18.3,4.5l0.3,0.1l-0.2,0.9l-0.3-0.1L18.3,4.5z M18.9,4.7
			l0.3,0.1l-0.3,0.9l-0.3-0.1L18.9,4.7z M19.5,4.9L19.8,5l-0.4,0.8l-0.3-0.1L19.5,4.9z M20.1,5.2l0.3,0.1L20,6.1L19.7,6L20.1,5.2z
			 M20.6,5.4l0.3,0.2l-0.5,0.8l-0.3-0.2L20.6,5.4z M21.2,5.8L21.5,6L21,6.8l-0.3-0.2L21.2,5.8z M21.7,6.1l0.2,0.2L21.3,7l-0.2-0.2
			L21.7,6.1z M22.1,6.5l0.2,0.2l-0.6,0.7l-0.2-0.2L22.1,6.5z M22.6,6.9l0.2,0.2l-0.6,0.6L22,7.6L22.6,6.9z M23,7.4l0.2,0.2l-0.7,0.6
			L22.3,8L23,7.4z M23.4,7.9l0.2,0.2l-0.7,0.5l-0.2-0.2L23.4,7.9L23.4,7.9z M23.8,8.4L24,8.6l-0.8,0.5L23,8.9L23.8,8.4L23.8,8.4z
			 M24.1,8.9l0.1,0.3l-0.8,0.4l-0.1-0.3L24.1,8.9z M24.4,9.4l0.1,0.3l-0.8,0.4l-0.1-0.3L24.4,9.4L24.4,9.4z M24.7,10l0.1,0.3
			L24,10.6l-0.1-0.3L24.7,10L24.7,10z M24.9,10.6l0.1,0.3l-0.9,0.3L24,10.9L24.9,10.6z M25.1,11.2l0.1,0.3l-0.9,0.2l-0.1-0.3
			L25.1,11.2L25.1,11.2z M25.2,11.8l0.1,0.3l-0.9,0.2L24.3,12L25.2,11.8z M25.3,12.4v0.3l-0.9,0.1v-0.3L25.3,12.4L25.3,12.4z
			 M25.4,13v0.3h-0.9V13H25.4L25.4,13z M25.4,13.7V14h-0.9v-0.3H25.4L25.4,13.7z M25.4,14.3v0.3l-0.9-0.1v-0.3L25.4,14.3L25.4,14.3z
			 M25.3,14.9v0.3l-0.9-0.1v-0.3L25.3,14.9z M25.2,15.5l-0.1,0.3l-0.9-0.2l0.1-0.3L25.2,15.5L25.2,15.5z M25.1,16.1L25,16.4
			l-0.9-0.3l0.1-0.3L25.1,16.1z M24.9,16.7L24.8,17l-0.9-0.3l0.1-0.3L24.9,16.7z M24.7,17.3l-0.1,0.3l-0.8-0.4l0.1-0.3L24.7,17.3
			L24.7,17.3z M24.4,17.9l-0.1,0.3l-0.8-0.4l0.1-0.3L24.4,17.9z M24.1,18.4L24,18.7l-0.8-0.5l0.2-0.3L24.1,18.4z M23.8,18.9
			l-0.2,0.2l-1.3-0.9l0.2-0.2L23.8,18.9L23.8,18.9z M8.4,19.2L8.2,19l1.2-0.8l0.2,0.2L8.4,19.2z M8,18.7l-0.2-0.3l0.8-0.5l0.2,0.3
			L8,18.7z M7.7,18.1l-0.1-0.3l0.8-0.4l0.1,0.3L7.7,18.1z M7.4,17.6l-0.1-0.3l0.8-0.4l0.1,0.3L7.4,17.6L7.4,17.6z M7.2,17l-0.1-0.3
			L8,16.4l0.1,0.3L7.2,17L7.2,17z M7,16.4l-0.1-0.3l0.9-0.3l0.1,0.3L7,16.4z M6.8,15.8l-0.1-0.3l0.9-0.2l0.1,0.3L6.8,15.8z
			 M6.7,15.2v-0.3l0.9-0.1v0.3C7.6,15.1,6.7,15.2,6.7,15.2z M6.6,14.6v-0.3l0.9-0.1v0.3L6.6,14.6z M6.6,14v-0.3h0.9V14H6.6z
			 M6.6,13.3V13h0.9v0.3H6.6z M6.6,12.7v-0.3l0.9,0.1v0.3L6.6,12.7z M6.7,12.1l0.1-0.3L7.7,12l-0.1,0.3L6.7,12.1z M6.8,11.5l0.1-0.3
			l0.9,0.2l-0.1,0.3L6.8,11.5z M7,10.9l0.1-0.3L8,10.9l-0.1,0.3L7,10.9z M7.2,10.3L7.3,10l0.8,0.3L8,10.6L7.2,10.3L7.2,10.3z
			 M7.4,9.7l0.1-0.3l0.8,0.4l-0.1,0.3L7.4,9.7z M7.7,9.2l0.1-0.3l0.8,0.4L8.5,9.6L7.7,9.2z M8,8.6l0.2-0.3L9,8.9L8.8,9.1L8,8.6z
			 M8.4,8.1l0.2-0.2l0.7,0.5L9.1,8.7L8.4,8.1L8.4,8.1z M8.8,7.6L9,7.4L9.7,8L9.5,8.2L8.8,7.6z M9.2,7.2L9.4,7L10,7.6L9.8,7.8
			L9.2,7.2z M9.6,6.7l0.2-0.2l0.6,0.7l-0.2,0.2L9.6,6.7z M10.1,6.3l0.2-0.2l0.6,0.7L10.7,7L10.1,6.3z M10.6,5.9l0.3-0.2l0.5,0.8
			l-0.3,0.2L10.6,5.9L10.6,5.9z M11.1,5.6l0.3-0.2l0.5,0.8l-0.3,0.2L11.1,5.6z M11.7,5.3L12,5.2L12.3,6L12,6.1L11.7,5.3z M12.2,5
			l0.3-0.1l0.4,0.8l-0.3,0.1L12.2,5z M12.8,4.8l0.3-0.1l0.3,0.9l-0.3,0.1L12.8,4.8z M13.4,4.6l0.3-0.1l0.2,0.9l-0.3,0.1L13.4,4.6
			L13.4,4.6z M14,4.4l0.3-0.1l0.2,0.9l-0.3,0.1L14,4.4L14,4.4z M14.6,4.3h0.3L15,5.2h-0.3L14.6,4.3z M15.2,4.3h0.3l0.1,0.9h-0.3
			L15.2,4.3z M16,14.1c0.3,0,0.5-0.2,0.5-0.5s-0.2-0.5-0.5-0.5c-0.3,0-0.5,0.2-0.5,0.5C15.5,13.9,15.7,14.1,16,14.1z"/>
		<path d="M15,20.9h-0.6l-1.2-1.5l-0.1-0.1l0,0v1.6h-0.4v-3.3h0.4v1.5l0,0l0.1-0.1l1.2-1.4h0.5l-1.4,1.6L15,20.9z M15.8,20.6V22
			h-0.4v-3.4h0.4V19l0,0c0.2-0.3,0.5-0.5,0.8-0.5c0.3,0,0.5,0.1,0.7,0.3c0.2,0.2,0.3,0.5,0.3,0.8c0,0.4-0.1,0.7-0.3,0.9
			c-0.2,0.2-0.5,0.4-0.8,0.4C16.2,21,16,20.9,15.8,20.6L15.8,20.6L15.8,20.6z M15.8,20c0,0.2,0.1,0.4,0.2,0.5
			c0.1,0.1,0.3,0.2,0.5,0.2s0.4-0.1,0.5-0.3c0.1-0.2,0.2-0.4,0.2-0.7c0-0.3-0.1-0.4-0.2-0.6c-0.1-0.1-0.3-0.2-0.5-0.2
			S16.1,19,16,19.1s-0.2,0.3-0.2,0.6V20L15.8,20z M18.2,18.7c0.2-0.1,0.5-0.2,0.8-0.2c0.6,0,0.8,0.3,0.8,0.9v1.5h-0.4v-0.4l0,0
			C19.2,20.8,19,21,18.7,21c-0.2,0-0.4-0.1-0.5-0.2S18,20.5,18,20.3c0-0.4,0.3-0.7,0.8-0.8l0.7-0.1c0-0.4-0.2-0.6-0.5-0.6
			s-0.5,0.1-0.8,0.3V18.7z M18.8,19.8c-0.2,0-0.3,0.1-0.4,0.1c-0.1,0.1-0.1,0.2-0.1,0.3c0,0.1,0,0.2,0.1,0.3
			c0.1,0.1,0.2,0.1,0.3,0.1c0.2,0,0.3-0.1,0.4-0.2s0.2-0.3,0.2-0.5v-0.2L18.8,19.8L18.8,19.8z"/>
	</g>
</g>
</svg>
